<svg aria-roledescription="er" role="graphics-document document" viewBox="-144.75920867919922 0 1389.6981201171875 1364" style="max-width: 1389.7px; background-color: transparent;" xmlns:xlink="http://www.w3.org/1999/xlink" xmlns="http://www.w3.org/2000/svg" width="100%" id="my-svg"><style>#my-svg{font-family:"trebuchet ms",verdana,arial,sans-serif;font-size:16px;fill:#333;}#my-svg .error-icon{fill:#552222;}#my-svg .error-text{fill:#552222;stroke:#552222;}#my-svg .edge-thickness-normal{stroke-width:1px;}#my-svg .edge-thickness-thick{stroke-width:3.5px;}#my-svg .edge-pattern-solid{stroke-dasharray:0;}#my-svg .edge-thickness-invisible{stroke-width:0;fill:none;}#my-svg .edge-pattern-dashed{stroke-dasharray:3;}#my-svg .edge-pattern-dotted{stroke-dasharray:2;}#my-svg .marker{fill:#333333;stroke:#333333;}#my-svg .marker.cross{stroke:#333333;}#my-svg svg{font-family:"trebuchet ms",verdana,arial,sans-serif;font-size:16px;}#my-svg p{margin:0;}#my-svg .entityBox{fill:#ECECFF;stroke:#9370DB;}#my-svg .attributeBoxOdd{fill:#ffffff;stroke:#9370DB;}#my-svg .attributeBoxEven{fill:#f2f2f2;stroke:#9370DB;}#my-svg .relationshipLabelBox{fill:hsl(80, 100%, 96.2745098039%);opacity:0.7;background-color:hsl(80, 100%, 96.2745098039%);}#my-svg .relationshipLabelBox rect{opacity:0.5;}#my-svg .relationshipLine{stroke:#333333;}#my-svg .entityTitleText{text-anchor:middle;font-size:18px;fill:#333;}#my-svg #MD_PARENT_START{fill:#f5f5f5!important;stroke:#333333!important;stroke-width:1;}#my-svg #MD_PARENT_END{fill:#f5f5f5!important;stroke:#333333!important;stroke-width:1;}#my-svg :root{--mermaid-font-family:"trebuchet ms",verdana,arial,sans-serif;}</style><g/><defs><marker orient="auto" markerHeight="240" markerWidth="190" refY="7" refX="0" id="MD_PARENT_START"><path d="M 18,7 L9,13 L1,7 L9,1 Z"/></marker></defs><defs><marker orient="auto" markerHeight="28" markerWidth="20" refY="7" refX="19" id="MD_PARENT_END"><path d="M 18,7 L9,13 L1,7 L9,1 Z"/></marker></defs><defs><marker orient="auto" markerHeight="18" markerWidth="18" refY="9" refX="0" id="ONLY_ONE_START"><path d="M9,0 L9,18 M15,0 L15,18" fill="none" stroke="gray"/></marker></defs><defs><marker orient="auto" markerHeight="18" markerWidth="18" refY="9" refX="18" id="ONLY_ONE_END"><path d="M3,0 L3,18 M9,0 L9,18" fill="none" stroke="gray"/></marker></defs><defs><marker orient="auto" markerHeight="18" markerWidth="30" refY="9" refX="0" id="ZERO_OR_ONE_START"><circle r="6" cy="9" cx="21" fill="white" stroke="gray"/><path d="M9,0 L9,18" fill="none" stroke="gray"/></marker></defs><defs><marker orient="auto" markerHeight="18" markerWidth="30" refY="9" refX="30" id="ZERO_OR_ONE_END"><circle r="6" cy="9" cx="9" fill="white" stroke="gray"/><path d="M21,0 L21,18" fill="none" stroke="gray"/></marker></defs><defs><marker orient="auto" markerHeight="36" markerWidth="45" refY="18" refX="18" id="ONE_OR_MORE_START"><path d="M0,18 Q 18,0 36,18 Q 18,36 0,18 M42,9 L42,27" fill="none" stroke="gray"/></marker></defs><defs><marker orient="auto" markerHeight="36" markerWidth="45" refY="18" refX="27" id="ONE_OR_MORE_END"><path d="M3,9 L3,27 M9,18 Q27,0 45,18 Q27,36 9,18" fill="none" stroke="gray"/></marker></defs><defs><marker orient="auto" markerHeight="36" markerWidth="57" refY="18" refX="18" id="ZERO_OR_MORE_START"><circle r="6" cy="18" cx="48" fill="white" stroke="gray"/><path d="M0,18 Q18,0 36,18 Q18,36 0,18" fill="none" stroke="gray"/></marker></defs><defs><marker orient="auto" markerHeight="36" markerWidth="57" refY="18" refX="39" id="ZERO_OR_MORE_END"><circle r="6" cy="18" cx="9" fill="white" stroke="gray"/><path d="M21,18 Q39,0 57,18 Q39,36 21,18" fill="none" stroke="gray"/></marker></defs><path style="stroke: gray; fill: none;" marker-start="url(#ONLY_ONE_START)" marker-end="url(#ZERO_OR_ONE_END)" d="M662.71,62.254L684.96,71.045C707.211,79.836,751.713,97.418,773.964,118.459C796.214,139.5,796.214,164,796.214,176.25L796.214,188.5" class="er relationshipLine"/><path style="stroke: gray; fill: none;" marker-start="url(#ONLY_ONE_START)" marker-end="url(#ZERO_OR_MORE_END)" d="M562.71,62.254L540.459,71.045C518.208,79.836,473.707,97.418,451.456,114.542C429.205,131.667,429.205,148.333,429.205,156.667L429.205,165" class="er relationshipLine"/><path style="stroke: gray; fill: none;" marker-start="url(#ONLY_ONE_START)" marker-end="url(#ZERO_OR_MORE_END)" d="M507.971,415.214L515.054,425.845C522.137,436.476,536.304,457.738,543.387,482.202C550.471,506.667,550.471,534.333,550.471,548.167L550.471,562" class="er relationshipLine"/><path style="stroke: gray; fill: none;" marker-start="url(#ONLY_ONE_START)" marker-end="url(#ZERO_OR_ONE_END)" d="M350.439,415.214L343.356,425.845C336.273,436.476,322.106,457.738,315.023,485.786C307.939,513.833,307.939,548.667,307.939,566.083L307.939,583.5" class="er relationshipLine"/><path style="stroke: gray; fill: none;" marker-start="url(#ONLY_ONE_START)" marker-end="url(#ZERO_OR_ONE_END)" d="M507.971,327.337L573.598,352.614C639.226,377.892,770.481,428.446,836.109,462.056C901.736,495.667,901.736,512.333,901.736,520.667L901.736,529" class="er relationshipLine"/><path style="stroke: gray; fill: none;" marker-start="url(#ONLY_ONE_START)" marker-end="url(#ZERO_OR_MORE_END)" d="M507.971,346.929L542.696,368.94C577.421,390.952,646.872,434.976,681.597,478.155C716.322,521.333,716.322,563.667,716.322,606C716.322,648.333,716.322,690.667,725.475,729.193C734.628,767.719,752.934,802.439,762.087,819.798L771.24,837.158" class="er relationshipLine"/><path style="stroke: gray; fill: none;" marker-start="url(#ONLY_ONE_START)" marker-end="url(#ZERO_OR_ONE_END)" d="M507.971,227.111L519.637,216.759C531.304,206.407,554.637,185.704,569.221,175.352C583.804,165,589.637,165,595.471,187C601.304,209,607.137,253,607.137,297C607.137,341,601.304,385,595.471,407C589.637,429,583.804,429,569.221,418.648C554.637,408.296,531.304,387.593,519.637,377.241L507.971,366.889" class="er relationshipLine"/><path style="stroke: gray; fill: none;" marker-start="url(#ONLY_ONE_START)" marker-end="url(#ZERO_OR_ONE_END)" d="M350.439,332.521L296.305,356.934C242.17,381.347,133.9,430.174,85.211,468.42C36.522,506.667,47.415,534.333,52.861,548.167L58.307,562" class="er relationshipLine"/><path style="stroke: gray; fill: none;" marker-start="url(#ONLY_ONE_START)" marker-end="url(#ZERO_OR_MORE_END)" d="M350.439,323.977L275.002,349.814C199.565,375.651,48.69,427.326,-26.748,474.33C-102.185,521.333,-102.185,563.667,-102.185,606C-102.185,648.333,-102.185,690.667,-102.185,753.083C-102.185,815.5,-102.185,898,-102.185,980.5C-102.185,1063,-102.185,1145.5,-27.993,1199.186C46.199,1252.873,194.583,1277.746,268.775,1290.182L342.968,1302.619" class="er relationshipLine"/><path style="stroke: gray; fill: none;" marker-start="url(#ONLY_ONE_START)" marker-end="url(#ONLY_ONE_END)" d="M98.55,562L105.755,548.167C112.961,534.333,127.373,506.667,169.355,470.813C211.336,434.959,280.888,390.917,315.664,368.897L350.439,346.876" class="er relationshipLine"/><path style="stroke: gray; fill: none;" marker-start="url(#ONLY_ONE_START)" marker-end="url(#ZERO_OR_MORE_END)" d="M75.63,650L75.63,663.833C75.63,677.667,75.63,705.333,75.63,760.417C75.63,815.5,75.63,898,75.63,980.5C75.63,1063,75.63,1145.5,120.186,1198.404C164.742,1251.307,253.855,1274.615,298.411,1286.269L342.968,1297.922" class="er relationshipLine"/><path style="stroke: gray; fill: none;" marker-start="url(#ONLY_ONE_START)" marker-end="url(#ZERO_OR_ONE_END)" d="M922.396,902.668L949.855,874.39C977.314,846.112,1032.232,789.556,1059.691,740.111C1087.15,690.667,1087.15,648.333,1087.15,606C1087.15,563.667,1087.15,521.333,990.62,473.465C894.09,425.596,701.031,372.192,604.501,345.49L507.971,318.788" class="er relationshipLine"/><path style="stroke: gray; fill: none;" marker-start="url(#ONLY_ONE_START)" marker-end="url(#ZERO_OR_MORE_END)" d="M846.818,1178L846.818,1186.333C846.818,1194.667,846.818,1211.333,779.51,1231.976C712.201,1252.619,577.584,1277.237,510.276,1289.547L442.968,1301.856" class="er relationshipLine"/><path style="stroke: gray; fill: none;" marker-start="url(#ONLY_ONE_START)" marker-end="url(#ONLY_ONE_END)" d="M901.736,683L901.736,691.333C901.736,699.667,901.736,716.333,899.887,733C898.038,749.667,894.34,766.333,892.491,774.667L890.642,783" class="er relationshipLine"/><path style="stroke: gray; fill: none;" marker-start="url(#ONLY_ONE_START)" marker-end="url(#ZERO_OR_MORE_END)" d="M987.15,639.563L1026.782,655.136C1066.413,670.709,1145.676,701.854,1185.308,758.677C1224.939,815.5,1224.939,898,1224.939,980.5C1224.939,1063,1224.939,1145.5,1094.611,1199.752C964.282,1254.004,703.625,1280.008,573.296,1293.01L442.968,1306.012" class="er relationshipLine"/><g transform="translate(562.7096862792969,20 )" id="entity-Container-bc34fb32-8a75-5b81-936b-92374bf40296"><rect height="45" width="100" y="0" x="0" class="er entityBox"/><text style="dominant-baseline: middle; text-anchor: middle; font-size: 12px;" transform="translate(50,12)" y="0" x="0" id="text-entity-Container-bc34fb32-8a75-5b81-936b-92374bf40296" class="er entityLabel">Container</text><rect height="21" width="69.5859375" y="24" x="0" class="er attributeBoxOdd"/><text style="dominant-baseline: middle; font-size: 10.2px;" transform="translate(5,34.5)" y="0" x="0" id="text-entity-Container-bc34fb32-8a75-5b81-936b-92374bf40296-attr-1-type" class="er entityLabel">uriorcurie</text><rect height="21" width="30.4140625" y="24" x="69.5859375" class="er attributeBoxOdd"/><text style="dominant-baseline: middle; font-size: 10.2px;" transform="translate(74.5859375,34.5)" y="0" x="0" id="text-entity-Container-bc34fb32-8a75-5b81-936b-92374bf40296-attr-1-name" class="er entityLabel">iri</text></g><g transform="translate(350.439453125,165 )" id="entity-SpatialEntity-d1db85b5-1d94-5840-8e44-d9029b3ecf4a"><rect height="264" width="157.53125" y="0" x="0" class="er entityBox"/><text style="dominant-baseline: middle; text-anchor: middle; font-size: 12px;" transform="translate(78.765625,12)" y="0" x="0" id="text-entity-SpatialEntity-d1db85b5-1d94-5840-8e44-d9029b3ecf4a" class="er entityLabel">SpatialEntity</text><rect height="22" width="59.03125" y="24" x="0" class="er attributeBoxOdd"/><text style="dominant-baseline: middle; font-size: 10.2px;" transform="translate(5,35)" y="0" x="0" id="text-entity-SpatialEntity-d1db85b5-1d94-5840-8e44-d9029b3ecf4a-attr-1-type" class="er entityLabel">string</text><rect height="22" width="98.5" y="24" x="59.03125" class="er attributeBoxOdd"/><text style="dominant-baseline: middle; font-size: 10.2px;" transform="translate(64.03125,35)" y="0" x="0" id="text-entity-SpatialEntity-d1db85b5-1d94-5840-8e44-d9029b3ecf4a-attr-1-name" class="er entityLabel">pref_label</text><rect height="22" width="59.03125" y="46" x="0" class="er attributeBoxEven"/><text style="dominant-baseline: middle; font-size: 10.2px;" transform="translate(5,57)" y="0" x="0" id="text-entity-SpatialEntity-d1db85b5-1d94-5840-8e44-d9029b3ecf4a-attr-2-type" class="er entityLabel">date</text><rect height="22" width="98.5" y="46" x="59.03125" class="er attributeBoxEven"/><text style="dominant-baseline: middle; font-size: 10.2px;" transform="translate(64.03125,57)" y="0" x="0" id="text-entity-SpatialEntity-d1db85b5-1d94-5840-8e44-d9029b3ecf4a-attr-2-name" class="er entityLabel">create_date</text><rect height="22" width="59.03125" y="68" x="0" class="er attributeBoxOdd"/><text style="dominant-baseline: middle; font-size: 10.2px;" transform="translate(5,79)" y="0" x="0" id="text-entity-SpatialEntity-d1db85b5-1d94-5840-8e44-d9029b3ecf4a-attr-3-type" class="er entityLabel">float</text><rect height="22" width="98.5" y="68" x="59.03125" class="er attributeBoxOdd"/><text style="dominant-baseline: middle; font-size: 10.2px;" transform="translate(64.03125,79)" y="0" x="0" id="text-entity-SpatialEntity-d1db85b5-1d94-5840-8e44-d9029b3ecf4a-attr-3-name" class="er entityLabel">x_dimension</text><rect height="22" width="59.03125" y="90" x="0" class="er attributeBoxEven"/><text style="dominant-baseline: middle; font-size: 10.2px;" transform="translate(5,101)" y="0" x="0" id="text-entity-SpatialEntity-d1db85b5-1d94-5840-8e44-d9029b3ecf4a-attr-4-type" class="er entityLabel">float</text><rect height="22" width="98.5" y="90" x="59.03125" class="er attributeBoxEven"/><text style="dominant-baseline: middle; font-size: 10.2px;" transform="translate(64.03125,101)" y="0" x="0" id="text-entity-SpatialEntity-d1db85b5-1d94-5840-8e44-d9029b3ecf4a-attr-4-name" class="er entityLabel">y_dimension</text><rect height="22" width="59.03125" y="112" x="0" class="er attributeBoxOdd"/><text style="dominant-baseline: middle; font-size: 10.2px;" transform="translate(5,123)" y="0" x="0" id="text-entity-SpatialEntity-d1db85b5-1d94-5840-8e44-d9029b3ecf4a-attr-5-type" class="er entityLabel">float</text><rect height="22" width="98.5" y="112" x="59.03125" class="er attributeBoxOdd"/><text style="dominant-baseline: middle; font-size: 10.2px;" transform="translate(64.03125,123)" y="0" x="0" id="text-entity-SpatialEntity-d1db85b5-1d94-5840-8e44-d9029b3ecf4a-attr-5-name" class="er entityLabel">z_dimension</text><rect height="22" width="59.03125" y="134" x="0" class="er attributeBoxEven"/><text style="dominant-baseline: middle; font-size: 10.2px;" transform="translate(5,145)" y="0" x="0" id="text-entity-SpatialEntity-d1db85b5-1d94-5840-8e44-d9029b3ecf4a-attr-6-type" class="er entityLabel">string</text><rect height="22" width="98.5" y="134" x="59.03125" class="er attributeBoxEven"/><text style="dominant-baseline: middle; font-size: 10.2px;" transform="translate(64.03125,145)" y="0" x="0" id="text-entity-SpatialEntity-d1db85b5-1d94-5840-8e44-d9029b3ecf4a-attr-6-name" class="er entityLabel">dimension_unit</text><rect height="22" width="59.03125" y="156" x="0" class="er attributeBoxOdd"/><text style="dominant-baseline: middle; font-size: 10.2px;" transform="translate(5,167)" y="0" x="0" id="text-entity-SpatialEntity-d1db85b5-1d94-5840-8e44-d9029b3ecf4a-attr-7-type" class="er entityLabel">string</text><rect height="22" width="98.5" y="156" x="59.03125" class="er attributeBoxOdd"/><text style="dominant-baseline: middle; font-size: 10.2px;" transform="translate(64.03125,167)" y="0" x="0" id="text-entity-SpatialEntity-d1db85b5-1d94-5840-8e44-d9029b3ecf4a-attr-7-name" class="er entityLabel">organ_owner_sex</text><rect height="22" width="59.03125" y="178" x="0" class="er attributeBoxEven"/><text style="dominant-baseline: middle; font-size: 10.2px;" transform="translate(5,189)" y="0" x="0" id="text-entity-SpatialEntity-d1db85b5-1d94-5840-8e44-d9029b3ecf4a-attr-8-type" class="er entityLabel">string</text><rect height="22" width="98.5" y="178" x="59.03125" class="er attributeBoxEven"/><text style="dominant-baseline: middle; font-size: 10.2px;" transform="translate(64.03125,189)" y="0" x="0" id="text-entity-SpatialEntity-d1db85b5-1d94-5840-8e44-d9029b3ecf4a-attr-8-name" class="er entityLabel">organ_side</text><rect height="22" width="59.03125" y="200" x="0" class="er attributeBoxOdd"/><text style="dominant-baseline: middle; font-size: 10.2px;" transform="translate(5,211)" y="0" x="0" id="text-entity-SpatialEntity-d1db85b5-1d94-5840-8e44-d9029b3ecf4a-attr-9-type" class="er entityLabel">integer</text><rect height="22" width="98.5" y="200" x="59.03125" class="er attributeBoxOdd"/><text style="dominant-baseline: middle; font-size: 10.2px;" transform="translate(64.03125,211)" y="0" x="0" id="text-entity-SpatialEntity-d1db85b5-1d94-5840-8e44-d9029b3ecf4a-attr-9-name" class="er entityLabel">rui_rank</text><rect height="21" width="59.03125" y="222" x="0" class="er attributeBoxEven"/><text style="dominant-baseline: middle; font-size: 10.2px;" transform="translate(5,232.5)" y="0" x="0" id="text-entity-SpatialEntity-d1db85b5-1d94-5840-8e44-d9029b3ecf4a-attr-10-type" class="er entityLabel">uriorcurie</text><rect height="21" width="98.5" y="222" x="59.03125" class="er attributeBoxEven"/><text style="dominant-baseline: middle; font-size: 10.2px;" transform="translate(64.03125,232.5)" y="0" x="0" id="text-entity-SpatialEntity-d1db85b5-1d94-5840-8e44-d9029b3ecf4a-attr-10-name" class="er entityLabel">id</text><rect height="21" width="59.03125" y="243" x="0" class="er attributeBoxOdd"/><text style="dominant-baseline: middle; font-size: 10.2px;" transform="translate(5,253.5)" y="0" x="0" id="text-entity-SpatialEntity-d1db85b5-1d94-5840-8e44-d9029b3ecf4a-attr-11-type" class="er entityLabel">string</text><rect height="21" width="98.5" y="243" x="59.03125" class="er attributeBoxOdd"/><text style="dominant-baseline: middle; font-size: 10.2px;" transform="translate(64.03125,253.5)" y="0" x="0" id="text-entity-SpatialEntity-d1db85b5-1d94-5840-8e44-d9029b3ecf4a-attr-11-name" class="er entityLabel">label</text></g><g transform="translate(342.9675598144531,1278 )" id="entity-Named-527792da-945b-57c2-aece-6a504f46f916"><rect height="66" width="100" y="0" x="0" class="er entityBox"/><text style="dominant-baseline: middle; text-anchor: middle; font-size: 12px;" transform="translate(50,12)" y="0" x="0" id="text-entity-Named-527792da-945b-57c2-aece-6a504f46f916" class="er entityLabel">Named</text><rect height="21" width="62.1953125" y="24" x="0" class="er attributeBoxOdd"/><text style="dominant-baseline: middle; font-size: 10.2px;" transform="translate(5,34.5)" y="0" x="0" id="text-entity-Named-527792da-945b-57c2-aece-6a504f46f916-attr-1-type" class="er entityLabel">uriorcurie</text><rect height="21" width="37.8046875" y="24" x="62.1953125" class="er attributeBoxOdd"/><text style="dominant-baseline: middle; font-size: 10.2px;" transform="translate(67.1953125,34.5)" y="0" x="0" id="text-entity-Named-527792da-945b-57c2-aece-6a504f46f916-attr-1-name" class="er entityLabel">id</text><rect height="21" width="62.1953125" y="45" x="0" class="er attributeBoxEven"/><text style="dominant-baseline: middle; font-size: 10.2px;" transform="translate(5,55.5)" y="0" x="0" id="text-entity-Named-527792da-945b-57c2-aece-6a504f46f916-attr-2-type" class="er entityLabel">string</text><rect height="21" width="37.8046875" y="45" x="62.1953125" class="er attributeBoxEven"/><text style="dominant-baseline: middle; font-size: 10.2px;" transform="translate(67.1953125,55.5)" y="0" x="0" id="text-entity-Named-527792da-945b-57c2-aece-6a504f46f916-attr-2-name" class="er entityLabel">label</text></g><g transform="translate(20,562 )" id="entity-ExtractionSet-36c25d42-40a1-50db-ad03-0979e3be5d88"><rect height="88" width="111.259765625" y="0" x="0" class="er entityBox"/><text style="dominant-baseline: middle; text-anchor: middle; font-size: 12px;" transform="translate(55.6298828125,12)" y="0" x="0" id="text-entity-ExtractionSet-36c25d42-40a1-50db-ad03-0979e3be5d88" class="er entityLabel">ExtractionSet</text><rect height="22" width="59.4168701171875" y="24" x="0" class="er attributeBoxOdd"/><text style="dominant-baseline: middle; font-size: 10.2px;" transform="translate(5,35)" y="0" x="0" id="text-entity-ExtractionSet-36c25d42-40a1-50db-ad03-0979e3be5d88-attr-1-type" class="er entityLabel">integer</text><rect height="22" width="51.8428955078125" y="24" x="59.4168701171875" class="er attributeBoxOdd"/><text style="dominant-baseline: middle; font-size: 10.2px;" transform="translate(64.4168701171875,35)" y="0" x="0" id="text-entity-ExtractionSet-36c25d42-40a1-50db-ad03-0979e3be5d88-attr-1-name" class="er entityLabel">rui_rank</text><rect height="21" width="59.4168701171875" y="46" x="0" class="er attributeBoxEven"/><text style="dominant-baseline: middle; font-size: 10.2px;" transform="translate(5,56.5)" y="0" x="0" id="text-entity-ExtractionSet-36c25d42-40a1-50db-ad03-0979e3be5d88-attr-2-type" class="er entityLabel">uriorcurie</text><rect height="21" width="51.8428955078125" y="46" x="59.4168701171875" class="er attributeBoxEven"/><text style="dominant-baseline: middle; font-size: 10.2px;" transform="translate(64.4168701171875,56.5)" y="0" x="0" id="text-entity-ExtractionSet-36c25d42-40a1-50db-ad03-0979e3be5d88-attr-2-name" class="er entityLabel">id</text><rect height="21" width="59.4168701171875" y="67" x="0" class="er attributeBoxOdd"/><text style="dominant-baseline: middle; font-size: 10.2px;" transform="translate(5,77.5)" y="0" x="0" id="text-entity-ExtractionSet-36c25d42-40a1-50db-ad03-0979e3be5d88-attr-3-type" class="er entityLabel">string</text><rect height="21" width="51.8428955078125" y="67" x="59.4168701171875" class="er attributeBoxOdd"/><text style="dominant-baseline: middle; font-size: 10.2px;" transform="translate(64.4168701171875,77.5)" y="0" x="0" id="text-entity-ExtractionSet-36c25d42-40a1-50db-ad03-0979e3be5d88-attr-3-name" class="er entityLabel">label</text></g><g transform="translate(771.240234375,783 )" id="entity-SpatialPlacement-346e1bb7-3014-5df7-8b75-dd9bd5f12664"><rect height="395" width="151.15625" y="0" x="0" class="er entityBox"/><text style="dominant-baseline: middle; text-anchor: middle; font-size: 12px;" transform="translate(75.578125,12)" y="0" x="0" id="text-entity-SpatialPlacement-346e1bb7-3014-5df7-8b75-dd9bd5f12664" class="er entityLabel">SpatialPlacement</text><rect height="21" width="59.03125" y="24" x="0" class="er attributeBoxOdd"/><text style="dominant-baseline: middle; font-size: 10.2px;" transform="translate(5,34.5)" y="0" x="0" id="text-entity-SpatialPlacement-346e1bb7-3014-5df7-8b75-dd9bd5f12664-attr-1-type" class="er entityLabel">uriorcurie</text><rect height="21" width="92.125" y="24" x="59.03125" class="er attributeBoxOdd"/><text style="dominant-baseline: middle; font-size: 10.2px;" transform="translate(64.03125,34.5)" y="0" x="0" id="text-entity-SpatialPlacement-346e1bb7-3014-5df7-8b75-dd9bd5f12664-attr-1-name" class="er entityLabel">target</text><rect height="22" width="59.03125" y="45" x="0" class="er attributeBoxEven"/><text style="dominant-baseline: middle; font-size: 10.2px;" transform="translate(5,56)" y="0" x="0" id="text-entity-SpatialPlacement-346e1bb7-3014-5df7-8b75-dd9bd5f12664-attr-2-type" class="er entityLabel">date</text><rect height="22" width="92.125" y="45" x="59.03125" class="er attributeBoxEven"/><text style="dominant-baseline: middle; font-size: 10.2px;" transform="translate(64.03125,56)" y="0" x="0" id="text-entity-SpatialPlacement-346e1bb7-3014-5df7-8b75-dd9bd5f12664-attr-2-name" class="er entityLabel">placement_date</text><rect height="22" width="59.03125" y="67" x="0" class="er attributeBoxOdd"/><text style="dominant-baseline: middle; font-size: 10.2px;" transform="translate(5,78)" y="0" x="0" id="text-entity-SpatialPlacement-346e1bb7-3014-5df7-8b75-dd9bd5f12664-attr-3-type" class="er entityLabel">float</text><rect height="22" width="92.125" y="67" x="59.03125" class="er attributeBoxOdd"/><text style="dominant-baseline: middle; font-size: 10.2px;" transform="translate(64.03125,78)" y="0" x="0" id="text-entity-SpatialPlacement-346e1bb7-3014-5df7-8b75-dd9bd5f12664-attr-3-name" class="er entityLabel">x_scaling</text><rect height="22" width="59.03125" y="89" x="0" class="er attributeBoxEven"/><text style="dominant-baseline: middle; font-size: 10.2px;" transform="translate(5,100)" y="0" x="0" id="text-entity-SpatialPlacement-346e1bb7-3014-5df7-8b75-dd9bd5f12664-attr-4-type" class="er entityLabel">float</text><rect height="22" width="92.125" y="89" x="59.03125" class="er attributeBoxEven"/><text style="dominant-baseline: middle; font-size: 10.2px;" transform="translate(64.03125,100)" y="0" x="0" id="text-entity-SpatialPlacement-346e1bb7-3014-5df7-8b75-dd9bd5f12664-attr-4-name" class="er entityLabel">y_scaling</text><rect height="22" width="59.03125" y="111" x="0" class="er attributeBoxOdd"/><text style="dominant-baseline: middle; font-size: 10.2px;" transform="translate(5,122)" y="0" x="0" id="text-entity-SpatialPlacement-346e1bb7-3014-5df7-8b75-dd9bd5f12664-attr-5-type" class="er entityLabel">float</text><rect height="22" width="92.125" y="111" x="59.03125" class="er attributeBoxOdd"/><text style="dominant-baseline: middle; font-size: 10.2px;" transform="translate(64.03125,122)" y="0" x="0" id="text-entity-SpatialPlacement-346e1bb7-3014-5df7-8b75-dd9bd5f12664-attr-5-name" class="er entityLabel">z_scaling</text><rect height="22" width="59.03125" y="133" x="0" class="er attributeBoxEven"/><text style="dominant-baseline: middle; font-size: 10.2px;" transform="translate(5,144)" y="0" x="0" id="text-entity-SpatialPlacement-346e1bb7-3014-5df7-8b75-dd9bd5f12664-attr-6-type" class="er entityLabel">string</text><rect height="22" width="92.125" y="133" x="59.03125" class="er attributeBoxEven"/><text style="dominant-baseline: middle; font-size: 10.2px;" transform="translate(64.03125,144)" y="0" x="0" id="text-entity-SpatialPlacement-346e1bb7-3014-5df7-8b75-dd9bd5f12664-attr-6-name" class="er entityLabel">scaling_unit</text><rect height="22" width="59.03125" y="155" x="0" class="er attributeBoxOdd"/><text style="dominant-baseline: middle; font-size: 10.2px;" transform="translate(5,166)" y="0" x="0" id="text-entity-SpatialPlacement-346e1bb7-3014-5df7-8b75-dd9bd5f12664-attr-7-type" class="er entityLabel">float</text><rect height="22" width="92.125" y="155" x="59.03125" class="er attributeBoxOdd"/><text style="dominant-baseline: middle; font-size: 10.2px;" transform="translate(64.03125,166)" y="0" x="0" id="text-entity-SpatialPlacement-346e1bb7-3014-5df7-8b75-dd9bd5f12664-attr-7-name" class="er entityLabel">x_rotation</text><rect height="22" width="59.03125" y="177" x="0" class="er attributeBoxEven"/><text style="dominant-baseline: middle; font-size: 10.2px;" transform="translate(5,188)" y="0" x="0" id="text-entity-SpatialPlacement-346e1bb7-3014-5df7-8b75-dd9bd5f12664-attr-8-type" class="er entityLabel">float</text><rect height="22" width="92.125" y="177" x="59.03125" class="er attributeBoxEven"/><text style="dominant-baseline: middle; font-size: 10.2px;" transform="translate(64.03125,188)" y="0" x="0" id="text-entity-SpatialPlacement-346e1bb7-3014-5df7-8b75-dd9bd5f12664-attr-8-name" class="er entityLabel">y_rotation</text><rect height="22" width="59.03125" y="199" x="0" class="er attributeBoxOdd"/><text style="dominant-baseline: middle; font-size: 10.2px;" transform="translate(5,210)" y="0" x="0" id="text-entity-SpatialPlacement-346e1bb7-3014-5df7-8b75-dd9bd5f12664-attr-9-type" class="er entityLabel">float</text><rect height="22" width="92.125" y="199" x="59.03125" class="er attributeBoxOdd"/><text style="dominant-baseline: middle; font-size: 10.2px;" transform="translate(64.03125,210)" y="0" x="0" id="text-entity-SpatialPlacement-346e1bb7-3014-5df7-8b75-dd9bd5f12664-attr-9-name" class="er entityLabel">z_rotation</text><rect height="22" width="59.03125" y="221" x="0" class="er attributeBoxEven"/><text style="dominant-baseline: middle; font-size: 10.2px;" transform="translate(5,232)" y="0" x="0" id="text-entity-SpatialPlacement-346e1bb7-3014-5df7-8b75-dd9bd5f12664-attr-10-type" class="er entityLabel">string</text><rect height="22" width="92.125" y="221" x="59.03125" class="er attributeBoxEven"/><text style="dominant-baseline: middle; font-size: 10.2px;" transform="translate(64.03125,232)" y="0" x="0" id="text-entity-SpatialPlacement-346e1bb7-3014-5df7-8b75-dd9bd5f12664-attr-10-name" class="er entityLabel">rotation_unit</text><rect height="22" width="59.03125" y="243" x="0" class="er attributeBoxOdd"/><text style="dominant-baseline: middle; font-size: 10.2px;" transform="translate(5,254)" y="0" x="0" id="text-entity-SpatialPlacement-346e1bb7-3014-5df7-8b75-dd9bd5f12664-attr-11-type" class="er entityLabel">string</text><rect height="22" width="92.125" y="243" x="59.03125" class="er attributeBoxOdd"/><text style="dominant-baseline: middle; font-size: 10.2px;" transform="translate(64.03125,254)" y="0" x="0" id="text-entity-SpatialPlacement-346e1bb7-3014-5df7-8b75-dd9bd5f12664-attr-11-name" class="er entityLabel">rotation_order</text><rect height="22" width="59.03125" y="265" x="0" class="er attributeBoxEven"/><text style="dominant-baseline: middle; font-size: 10.2px;" transform="translate(5,276)" y="0" x="0" id="text-entity-SpatialPlacement-346e1bb7-3014-5df7-8b75-dd9bd5f12664-attr-12-type" class="er entityLabel">float</text><rect height="22" width="92.125" y="265" x="59.03125" class="er attributeBoxEven"/><text style="dominant-baseline: middle; font-size: 10.2px;" transform="translate(64.03125,276)" y="0" x="0" id="text-entity-SpatialPlacement-346e1bb7-3014-5df7-8b75-dd9bd5f12664-attr-12-name" class="er entityLabel">x_translation</text><rect height="22" width="59.03125" y="287" x="0" class="er attributeBoxOdd"/><text style="dominant-baseline: middle; font-size: 10.2px;" transform="translate(5,298)" y="0" x="0" id="text-entity-SpatialPlacement-346e1bb7-3014-5df7-8b75-dd9bd5f12664-attr-13-type" class="er entityLabel">float</text><rect height="22" width="92.125" y="287" x="59.03125" class="er attributeBoxOdd"/><text style="dominant-baseline: middle; font-size: 10.2px;" transform="translate(64.03125,298)" y="0" x="0" id="text-entity-SpatialPlacement-346e1bb7-3014-5df7-8b75-dd9bd5f12664-attr-13-name" class="er entityLabel">y_translation</text><rect height="22" width="59.03125" y="309" x="0" class="er attributeBoxEven"/><text style="dominant-baseline: middle; font-size: 10.2px;" transform="translate(5,320)" y="0" x="0" id="text-entity-SpatialPlacement-346e1bb7-3014-5df7-8b75-dd9bd5f12664-attr-14-type" class="er entityLabel">float</text><rect height="22" width="92.125" y="309" x="59.03125" class="er attributeBoxEven"/><text style="dominant-baseline: middle; font-size: 10.2px;" transform="translate(64.03125,320)" y="0" x="0" id="text-entity-SpatialPlacement-346e1bb7-3014-5df7-8b75-dd9bd5f12664-attr-14-name" class="er entityLabel">z_translation</text><rect height="22" width="59.03125" y="331" x="0" class="er attributeBoxOdd"/><text style="dominant-baseline: middle; font-size: 10.2px;" transform="translate(5,342)" y="0" x="0" id="text-entity-SpatialPlacement-346e1bb7-3014-5df7-8b75-dd9bd5f12664-attr-15-type" class="er entityLabel">string</text><rect height="22" width="92.125" y="331" x="59.03125" class="er attributeBoxOdd"/><text style="dominant-baseline: middle; font-size: 10.2px;" transform="translate(64.03125,342)" y="0" x="0" id="text-entity-SpatialPlacement-346e1bb7-3014-5df7-8b75-dd9bd5f12664-attr-15-name" class="er entityLabel">translation_unit</text><rect height="21" width="59.03125" y="353" x="0" class="er attributeBoxEven"/><text style="dominant-baseline: middle; font-size: 10.2px;" transform="translate(5,363.5)" y="0" x="0" id="text-entity-SpatialPlacement-346e1bb7-3014-5df7-8b75-dd9bd5f12664-attr-16-type" class="er entityLabel">uriorcurie</text><rect height="21" width="92.125" y="353" x="59.03125" class="er attributeBoxEven"/><text style="dominant-baseline: middle; font-size: 10.2px;" transform="translate(64.03125,363.5)" y="0" x="0" id="text-entity-SpatialPlacement-346e1bb7-3014-5df7-8b75-dd9bd5f12664-attr-16-name" class="er entityLabel">id</text><rect height="21" width="59.03125" y="374" x="0" class="er attributeBoxOdd"/><text style="dominant-baseline: middle; font-size: 10.2px;" transform="translate(5,384.5)" y="0" x="0" id="text-entity-SpatialPlacement-346e1bb7-3014-5df7-8b75-dd9bd5f12664-attr-17-type" class="er entityLabel">string</text><rect height="21" width="92.125" y="374" x="59.03125" class="er attributeBoxOdd"/><text style="dominant-baseline: middle; font-size: 10.2px;" transform="translate(64.03125,384.5)" y="0" x="0" id="text-entity-SpatialPlacement-346e1bb7-3014-5df7-8b75-dd9bd5f12664-attr-17-name" class="er entityLabel">label</text></g><g transform="translate(816.322265625,529 )" id="entity-SpatialObjectReference-d20666d8-ec01-5119-8567-c67f55a6b2e7"><rect height="154" width="170.828125" y="0" x="0" class="er entityBox"/><text style="dominant-baseline: middle; text-anchor: middle; font-size: 12px;" transform="translate(85.4140625,12)" y="0" x="0" id="text-entity-SpatialObjectReference-d20666d8-ec01-5119-8567-c67f55a6b2e7" class="er entityLabel">SpatialObjectReference</text><rect height="22" width="78.921875" y="24" x="0" class="er attributeBoxOdd"/><text style="dominant-baseline: middle; font-size: 10.2px;" transform="translate(5,35)" y="0" x="0" id="text-entity-SpatialObjectReference-d20666d8-ec01-5119-8567-c67f55a6b2e7-attr-1-type" class="er entityLabel">string</text><rect height="22" width="91.90625" y="24" x="78.921875" class="er attributeBoxOdd"/><text style="dominant-baseline: middle; font-size: 10.2px;" transform="translate(83.921875,35)" y="0" x="0" id="text-entity-SpatialObjectReference-d20666d8-ec01-5119-8567-c67f55a6b2e7-attr-1-name" class="er entityLabel">file_name</text><rect height="22" width="78.921875" y="46" x="0" class="er attributeBoxEven"/><text style="dominant-baseline: middle; font-size: 10.2px;" transform="translate(5,57)" y="0" x="0" id="text-entity-SpatialObjectReference-d20666d8-ec01-5119-8567-c67f55a6b2e7-attr-2-type" class="er entityLabel">string</text><rect height="22" width="91.90625" y="46" x="78.921875" class="er attributeBoxEven"/><text style="dominant-baseline: middle; font-size: 10.2px;" transform="translate(83.921875,57)" y="0" x="0" id="text-entity-SpatialObjectReference-d20666d8-ec01-5119-8567-c67f55a6b2e7-attr-2-name" class="er entityLabel">file_url</text><rect height="22" width="78.921875" y="68" x="0" class="er attributeBoxOdd"/><text style="dominant-baseline: middle; font-size: 10.2px;" transform="translate(5,79)" y="0" x="0" id="text-entity-SpatialObjectReference-d20666d8-ec01-5119-8567-c67f55a6b2e7-attr-3-type" class="er entityLabel">string</text><rect height="22" width="91.90625" y="68" x="78.921875" class="er attributeBoxOdd"/><text style="dominant-baseline: middle; font-size: 10.2px;" transform="translate(83.921875,79)" y="0" x="0" id="text-entity-SpatialObjectReference-d20666d8-ec01-5119-8567-c67f55a6b2e7-attr-3-name" class="er entityLabel">file_subpath</text><rect height="22" width="78.921875" y="90" x="0" class="er attributeBoxEven"/><text style="dominant-baseline: middle; font-size: 10.2px;" transform="translate(5,101)" y="0" x="0" id="text-entity-SpatialObjectReference-d20666d8-ec01-5119-8567-c67f55a6b2e7-attr-4-type" class="er entityLabel">string</text><rect height="22" width="91.90625" y="90" x="78.921875" class="er attributeBoxEven"/><text style="dominant-baseline: middle; font-size: 10.2px;" transform="translate(83.921875,101)" y="0" x="0" id="text-entity-SpatialObjectReference-d20666d8-ec01-5119-8567-c67f55a6b2e7-attr-4-name" class="er entityLabel">file_format</text><rect height="21" width="78.921875" y="112" x="0" class="er attributeBoxOdd"/><text style="dominant-baseline: middle; font-size: 10.2px;" transform="translate(5,122.5)" y="0" x="0" id="text-entity-SpatialObjectReference-d20666d8-ec01-5119-8567-c67f55a6b2e7-attr-5-type" class="er entityLabel">uriorcurie</text><rect height="21" width="91.90625" y="112" x="78.921875" class="er attributeBoxOdd"/><text style="dominant-baseline: middle; font-size: 10.2px;" transform="translate(83.921875,122.5)" y="0" x="0" id="text-entity-SpatialObjectReference-d20666d8-ec01-5119-8567-c67f55a6b2e7-attr-5-name" class="er entityLabel">id</text><rect height="21" width="78.921875" y="133" x="0" class="er attributeBoxEven"/><text style="dominant-baseline: middle; font-size: 10.2px;" transform="translate(5,143.5)" y="0" x="0" id="text-entity-SpatialObjectReference-d20666d8-ec01-5119-8567-c67f55a6b2e7-attr-6-type" class="er entityLabel">string</text><rect height="21" width="91.90625" y="133" x="78.921875" class="er attributeBoxEven"/><text style="dominant-baseline: middle; font-size: 10.2px;" transform="translate(83.921875,143.5)" y="0" x="0" id="text-entity-SpatialObjectReference-d20666d8-ec01-5119-8567-c67f55a6b2e7-attr-6-name" class="er entityLabel">label</text></g><g transform="translate(231.259765625,583.5 )" id="entity-AnatomicalStructure-3c5e0f00-f4ad-5ab6-89b3-e0fa067e5e05"><rect height="45" width="153.359375" y="0" x="0" class="er entityBox"/><text style="dominant-baseline: middle; text-anchor: middle; font-size: 12px;" transform="translate(76.6796875,12)" y="0" x="0" id="text-entity-AnatomicalStructure-3c5e0f00-f4ad-5ab6-89b3-e0fa067e5e05" class="er entityLabel">AnatomicalStructure</text><rect height="21" width="96.5390625" y="24" x="0" class="er attributeBoxOdd"/><text style="dominant-baseline: middle; font-size: 10.2px;" transform="translate(5,34.5)" y="0" x="0" id="text-entity-AnatomicalStructure-3c5e0f00-f4ad-5ab6-89b3-e0fa067e5e05-attr-1-type" class="er entityLabel">uriorcurie</text><rect height="21" width="56.8203125" y="24" x="96.5390625" class="er attributeBoxOdd"/><text style="dominant-baseline: middle; font-size: 10.2px;" transform="translate(101.5390625,34.5)" y="0" x="0" id="text-entity-AnatomicalStructure-3c5e0f00-f4ad-5ab6-89b3-e0fa067e5e05-attr-1-name" class="er entityLabel">id</text></g><g transform="translate(484.619140625,562 )" id="entity-Creator-22c37820-830e-5050-9ef7-2120deecbdf9"><rect height="88" width="131.703125" y="0" x="0" class="er entityBox"/><text style="dominant-baseline: middle; text-anchor: middle; font-size: 12px;" transform="translate(65.8515625,12)" y="0" x="0" id="text-entity-Creator-22c37820-830e-5050-9ef7-2120deecbdf9" class="er entityLabel">Creator</text><rect height="22" width="59.03125" y="24" x="0" class="er attributeBoxOdd"/><text style="dominant-baseline: middle; font-size: 10.2px;" transform="translate(5,35)" y="0" x="0" id="text-entity-Creator-22c37820-830e-5050-9ef7-2120deecbdf9-attr-1-type" class="er entityLabel">string</text><rect height="22" width="72.671875" y="24" x="59.03125" class="er attributeBoxOdd"/><text style="dominant-baseline: middle; font-size: 10.2px;" transform="translate(64.03125,35)" y="0" x="0" id="text-entity-Creator-22c37820-830e-5050-9ef7-2120deecbdf9-attr-1-name" class="er entityLabel">conforms_to</text><rect height="21" width="59.03125" y="46" x="0" class="er attributeBoxEven"/><text style="dominant-baseline: middle; font-size: 10.2px;" transform="translate(5,56.5)" y="0" x="0" id="text-entity-Creator-22c37820-830e-5050-9ef7-2120deecbdf9-attr-2-type" class="er entityLabel">uriorcurie</text><rect height="21" width="72.671875" y="46" x="59.03125" class="er attributeBoxEven"/><text style="dominant-baseline: middle; font-size: 10.2px;" transform="translate(64.03125,56.5)" y="0" x="0" id="text-entity-Creator-22c37820-830e-5050-9ef7-2120deecbdf9-attr-2-name" class="er entityLabel">id</text><rect height="21" width="59.03125" y="67" x="0" class="er attributeBoxOdd"/><text style="dominant-baseline: middle; font-size: 10.2px;" transform="translate(5,77.5)" y="0" x="0" id="text-entity-Creator-22c37820-830e-5050-9ef7-2120deecbdf9-attr-3-type" class="er entityLabel">string</text><rect height="21" width="72.671875" y="67" x="59.03125" class="er attributeBoxOdd"/><text style="dominant-baseline: middle; font-size: 10.2px;" transform="translate(64.03125,77.5)" y="0" x="0" id="text-entity-Creator-22c37820-830e-5050-9ef7-2120deecbdf9-attr-3-name" class="er entityLabel">label</text></g><g transform="translate(717.970703125,188.5 )" id="entity-RefOrganMetadata-e7045ce5-7dfe-5c38-8288-5e44f2ff027b"><rect height="217" width="156.4871826171875" y="0" x="0" class="er entityBox"/><text style="dominant-baseline: middle; text-anchor: middle; font-size: 12px;" transform="translate(78.24359130859375,12)" y="0" x="0" id="text-entity-RefOrganMetadata-e7045ce5-7dfe-5c38-8288-5e44f2ff027b" class="er entityLabel">RefOrganMetadata</text><rect height="21" width="76.8309326171875" y="24" x="0" class="er attributeBoxOdd"/><text style="dominant-baseline: middle; font-size: 10.2px;" transform="translate(5,34.5)" y="0" x="0" id="text-entity-RefOrganMetadata-e7045ce5-7dfe-5c38-8288-5e44f2ff027b-attr-1-type" class="er entityLabel">string</text><rect height="21" width="79.65625" y="24" x="76.8309326171875" class="er attributeBoxOdd"/><text style="dominant-baseline: middle; font-size: 10.2px;" transform="translate(81.8309326171875,34.5)" y="0" x="0" id="text-entity-RefOrganMetadata-e7045ce5-7dfe-5c38-8288-5e44f2ff027b-attr-1-name" class="er entityLabel">title</text><rect height="21" width="76.8309326171875" y="45" x="0" class="er attributeBoxEven"/><text style="dominant-baseline: middle; font-size: 10.2px;" transform="translate(5,55.5)" y="0" x="0" id="text-entity-RefOrganMetadata-e7045ce5-7dfe-5c38-8288-5e44f2ff027b-attr-2-type" class="er entityLabel">string</text><rect height="21" width="79.65625" y="45" x="76.8309326171875" class="er attributeBoxEven"/><text style="dominant-baseline: middle; font-size: 10.2px;" transform="translate(81.8309326171875,55.5)" y="0" x="0" id="text-entity-RefOrganMetadata-e7045ce5-7dfe-5c38-8288-5e44f2ff027b-attr-2-name" class="er entityLabel">description</text><rect height="22" width="76.8309326171875" y="66" x="0" class="er attributeBoxOdd"/><text style="dominant-baseline: middle; font-size: 10.2px;" transform="translate(5,77)" y="0" x="0" id="text-entity-RefOrganMetadata-e7045ce5-7dfe-5c38-8288-5e44f2ff027b-attr-3-type" class="er entityLabel">uriorcurieList</text><rect height="22" width="79.65625" y="66" x="76.8309326171875" class="er attributeBoxOdd"/><text style="dominant-baseline: middle; font-size: 10.2px;" transform="translate(81.8309326171875,77)" y="0" x="0" id="text-entity-RefOrganMetadata-e7045ce5-7dfe-5c38-8288-5e44f2ff027b-attr-3-name" class="er entityLabel">created_by</text><rect height="22" width="76.8309326171875" y="88" x="0" class="er attributeBoxEven"/><text style="dominant-baseline: middle; font-size: 10.2px;" transform="translate(5,99)" y="0" x="0" id="text-entity-RefOrganMetadata-e7045ce5-7dfe-5c38-8288-5e44f2ff027b-attr-4-type" class="er entityLabel">string</text><rect height="22" width="79.65625" y="88" x="76.8309326171875" class="er attributeBoxEven"/><text style="dominant-baseline: middle; font-size: 10.2px;" transform="translate(81.8309326171875,99)" y="0" x="0" id="text-entity-RefOrganMetadata-e7045ce5-7dfe-5c38-8288-5e44f2ff027b-attr-4-name" class="er entityLabel">creation_date</text><rect height="21" width="76.8309326171875" y="110" x="0" class="er attributeBoxOdd"/><text style="dominant-baseline: middle; font-size: 10.2px;" transform="translate(5,120.5)" y="0" x="0" id="text-entity-RefOrganMetadata-e7045ce5-7dfe-5c38-8288-5e44f2ff027b-attr-5-type" class="er entityLabel">string</text><rect height="21" width="79.65625" y="110" x="76.8309326171875" class="er attributeBoxOdd"/><text style="dominant-baseline: middle; font-size: 10.2px;" transform="translate(81.8309326171875,120.5)" y="0" x="0" id="text-entity-RefOrganMetadata-e7045ce5-7dfe-5c38-8288-5e44f2ff027b-attr-5-name" class="er entityLabel">version</text><rect height="21" width="76.8309326171875" y="131" x="0" class="er attributeBoxEven"/><text style="dominant-baseline: middle; font-size: 10.2px;" transform="translate(5,141.5)" y="0" x="0" id="text-entity-RefOrganMetadata-e7045ce5-7dfe-5c38-8288-5e44f2ff027b-attr-6-type" class="er entityLabel">string</text><rect height="21" width="79.65625" y="131" x="76.8309326171875" class="er attributeBoxEven"/><text style="dominant-baseline: middle; font-size: 10.2px;" transform="translate(81.8309326171875,141.5)" y="0" x="0" id="text-entity-RefOrganMetadata-e7045ce5-7dfe-5c38-8288-5e44f2ff027b-attr-6-name" class="er entityLabel">license</text><rect height="21" width="76.8309326171875" y="152" x="0" class="er attributeBoxOdd"/><text style="dominant-baseline: middle; font-size: 10.2px;" transform="translate(5,162.5)" y="0" x="0" id="text-entity-RefOrganMetadata-e7045ce5-7dfe-5c38-8288-5e44f2ff027b-attr-7-type" class="er entityLabel">string</text><rect height="21" width="79.65625" y="152" x="76.8309326171875" class="er attributeBoxOdd"/><text style="dominant-baseline: middle; font-size: 10.2px;" transform="translate(81.8309326171875,162.5)" y="0" x="0" id="text-entity-RefOrganMetadata-e7045ce5-7dfe-5c38-8288-5e44f2ff027b-attr-7-name" class="er entityLabel">publisher</text><rect height="22" width="76.8309326171875" y="173" x="0" class="er attributeBoxEven"/><text style="dominant-baseline: middle; font-size: 10.2px;" transform="translate(5,184)" y="0" x="0" id="text-entity-RefOrganMetadata-e7045ce5-7dfe-5c38-8288-5e44f2ff027b-attr-8-type" class="er entityLabel">uriorcurie</text><rect height="22" width="79.65625" y="173" x="76.8309326171875" class="er attributeBoxEven"/><text style="dominant-baseline: middle; font-size: 10.2px;" transform="translate(81.8309326171875,184)" y="0" x="0" id="text-entity-RefOrganMetadata-e7045ce5-7dfe-5c38-8288-5e44f2ff027b-attr-8-name" class="er entityLabel">see_also</text><rect height="22" width="76.8309326171875" y="195" x="0" class="er attributeBoxOdd"/><text style="dominant-baseline: middle; font-size: 10.2px;" transform="translate(5,206)" y="0" x="0" id="text-entity-RefOrganMetadata-e7045ce5-7dfe-5c38-8288-5e44f2ff027b-attr-9-type" class="er entityLabel">uriorcurie</text><rect height="22" width="79.65625" y="195" x="76.8309326171875" class="er attributeBoxOdd"/><text style="dominant-baseline: middle; font-size: 10.2px;" transform="translate(81.8309326171875,206)" y="0" x="0" id="text-entity-RefOrganMetadata-e7045ce5-7dfe-5c38-8288-5e44f2ff027b-attr-9-name" class="er entityLabel">derived_from</text></g><rect height="14" width="58.171875" y="96.75582885742188" x="725.2677001953125" class="er relationshipLabelBox"/><text style="text-anchor: middle; dominant-baseline: middle; font-size: 12px;" y="103.75582885742188" x="754.3536376953125" id="rel1" class="er relationshipLabel">metadata</text><rect height="14" width="27.03125" y="90.68323516845703" x="465.8128967285156" class="er relationshipLabelBox"/><text style="text-anchor: middle; dominant-baseline: middle; font-size: 12px;" y="97.68323516845703" x="479.3285217285156" id="rel2" class="er relationshipLabel">data</text><rect height="14" width="49.25" y="477.26763916015625" x="519.3411865234375" class="er relationshipLabelBox"/><text style="text-anchor: middle; dominant-baseline: middle; font-size: 12px;" y="484.26763916015625" x="543.9661865234375" id="rel3" class="er relationshipLabel">creators</text><rect height="14" width="106.349609375" y="487.96478271484375" x="259.8145751953125" class="er relationshipLabelBox"/><text style="text-anchor: middle; dominant-baseline: middle; font-size: 12px;" y="494.96478271484375" x="312.9893798828125" id="rel4" class="er relationshipLabel">representation_of</text><rect height="14" width="100.28125" y="403.2843322753906" x="669.578125" class="er relationshipLabelBox"/><text style="text-anchor: middle; dominant-baseline: middle; font-size: 12px;" y="410.2843322753906" x="719.71875" id="rel5" class="er relationshipLabel">object_reference</text><rect height="14" width="69.921875" y="542.7871704101562" x="678.3609619140625" class="er relationshipLabelBox"/><text style="text-anchor: middle; dominant-baseline: middle; font-size: 12px;" y="549.7871704101562" x="713.3218994140625" id="rel6" class="er relationshipLabel">placements</text><rect height="14" width="97.953125" y="290" x="558.1604614257812" class="er relationshipLabelBox"/><text style="text-anchor: middle; dominant-baseline: middle; font-size: 12px;" y="297" x="607.1370239257812" id="rel7" class="er relationshipLabel">reference_organ</text><rect height="14" width="85.484375" y="412.05987548828125" x="123.4083251953125" class="er relationshipLabelBox"/><text style="text-anchor: middle; dominant-baseline: middle; font-size: 12px;" y="419.05987548828125" x="166.1505126953125" id="rel8" class="er relationshipLabel">extraction_set</text><rect height="14" width="45.1484375" y="816.9821166992188" x="-124.75920867919922" class="er relationshipLabelBox"/><text style="text-anchor: middle; dominant-baseline: middle; font-size: 12px;" y="823.9821166992188" x="-102.18498992919922" id="rel9" class="er relationshipLabel">type_of</text><rect height="14" width="107.755859375" y="432.1788635253906" x="156.2084197998047" class="er relationshipLabelBox"/><text style="text-anchor: middle; dominant-baseline: middle; font-size: 12px;" y="439.1788635253906" x="210.0863494873047" id="rel10" class="er relationshipLabel">extraction_set_for</text><rect height="14" width="45.1484375" y="1045.6221923828125" x="54.19383239746094" class="er relationshipLabelBox"/><text style="text-anchor: middle; dominant-baseline: middle; font-size: 12px;" y="1052.6221923828125" x="76.76805114746094" id="rel11" class="er relationshipLabel">type_of</text><rect height="14" width="39.859375" y="471.2494812011719" x="980.054443359375" class="er relationshipLabelBox"/><text style="text-anchor: middle; dominant-baseline: middle; font-size: 12px;" y="478.2494812011719" x="999.984130859375" id="rel12" class="er relationshipLabel">source</text><rect height="14" width="45.1484375" y="1254.12060546875" x="635.7664184570312" class="er relationshipLabelBox"/><text style="text-anchor: middle; dominant-baseline: middle; font-size: 12px;" y="1261.12060546875" x="658.3406372070312" id="rel13" class="er relationshipLabel">type_of</text><rect height="14" width="63.962890625" y="726.4035034179688" x="867.860107421875" class="er relationshipLabelBox"/><text style="text-anchor: middle; dominant-baseline: middle; font-size: 12px;" y="733.4035034179688" x="899.841552734375" id="rel14" class="er relationshipLabel">placement</text><rect height="14" width="45.1484375" y="1175.625732421875" x="1107.4095458984375" class="er relationshipLabelBox"/><text style="text-anchor: middle; dominant-baseline: middle; font-size: 12px;" y="1182.625732421875" x="1129.9837646484375" id="rel15" class="er relationshipLabel">type_of</text></svg>