<svg aria-roledescription="er" role="graphics-document document" viewBox="-74.32721328735352 0 517.91796875 1282" style="max-width: 517.918px; background-color: transparent;" xmlns:xlink="http://www.w3.org/1999/xlink" xmlns="http://www.w3.org/2000/svg" width="100%" id="my-svg"><style>#my-svg{font-family:"trebuchet ms",verdana,arial,sans-serif;font-size:16px;fill:#333;}#my-svg .error-icon{fill:#552222;}#my-svg .error-text{fill:#552222;stroke:#552222;}#my-svg .edge-thickness-normal{stroke-width:1px;}#my-svg .edge-thickness-thick{stroke-width:3.5px;}#my-svg .edge-pattern-solid{stroke-dasharray:0;}#my-svg .edge-thickness-invisible{stroke-width:0;fill:none;}#my-svg .edge-pattern-dashed{stroke-dasharray:3;}#my-svg .edge-pattern-dotted{stroke-dasharray:2;}#my-svg .marker{fill:#333333;stroke:#333333;}#my-svg .marker.cross{stroke:#333333;}#my-svg svg{font-family:"trebuchet ms",verdana,arial,sans-serif;font-size:16px;}#my-svg p{margin:0;}#my-svg .entityBox{fill:#ECECFF;stroke:#9370DB;}#my-svg .attributeBoxOdd{fill:#ffffff;stroke:#9370DB;}#my-svg .attributeBoxEven{fill:#f2f2f2;stroke:#9370DB;}#my-svg .relationshipLabelBox{fill:hsl(80, 100%, 96.2745098039%);opacity:0.7;background-color:hsl(80, 100%, 96.2745098039%);}#my-svg .relationshipLabelBox rect{opacity:0.5;}#my-svg .relationshipLine{stroke:#333333;}#my-svg .entityTitleText{text-anchor:middle;font-size:18px;fill:#333;}#my-svg #MD_PARENT_START{fill:#f5f5f5!important;stroke:#333333!important;stroke-width:1;}#my-svg #MD_PARENT_END{fill:#f5f5f5!important;stroke:#333333!important;stroke-width:1;}#my-svg :root{--mermaid-font-family:"trebuchet ms",verdana,arial,sans-serif;}</style><g/><defs><marker orient="auto" markerHeight="240" markerWidth="190" refY="7" refX="0" id="MD_PARENT_START"><path d="M 18,7 L9,13 L1,7 L9,1 Z"/></marker></defs><defs><marker orient="auto" markerHeight="28" markerWidth="20" refY="7" refX="19" id="MD_PARENT_END"><path d="M 18,7 L9,13 L1,7 L9,1 Z"/></marker></defs><defs><marker orient="auto" markerHeight="18" markerWidth="18" refY="9" refX="0" id="ONLY_ONE_START"><path d="M9,0 L9,18 M15,0 L15,18" fill="none" stroke="gray"/></marker></defs><defs><marker orient="auto" markerHeight="18" markerWidth="18" refY="9" refX="18" id="ONLY_ONE_END"><path d="M3,0 L3,18 M9,0 L9,18" fill="none" stroke="gray"/></marker></defs><defs><marker orient="auto" markerHeight="18" markerWidth="30" refY="9" refX="0" id="ZERO_OR_ONE_START"><circle r="6" cy="9" cx="21" fill="white" stroke="gray"/><path d="M9,0 L9,18" fill="none" stroke="gray"/></marker></defs><defs><marker orient="auto" markerHeight="18" markerWidth="30" refY="9" refX="30" id="ZERO_OR_ONE_END"><circle r="6" cy="9" cx="9" fill="white" stroke="gray"/><path d="M21,0 L21,18" fill="none" stroke="gray"/></marker></defs><defs><marker orient="auto" markerHeight="36" markerWidth="45" refY="18" refX="18" id="ONE_OR_MORE_START"><path d="M0,18 Q 18,0 36,18 Q 18,36 0,18 M42,9 L42,27" fill="none" stroke="gray"/></marker></defs><defs><marker orient="auto" markerHeight="36" markerWidth="45" refY="18" refX="27" id="ONE_OR_MORE_END"><path d="M3,9 L3,27 M9,18 Q27,0 45,18 Q27,36 9,18" fill="none" stroke="gray"/></marker></defs><defs><marker orient="auto" markerHeight="36" markerWidth="57" refY="18" refX="18" id="ZERO_OR_MORE_START"><circle r="6" cy="18" cx="48" fill="white" stroke="gray"/><path d="M0,18 Q18,0 36,18 Q18,36 0,18" fill="none" stroke="gray"/></marker></defs><defs><marker orient="auto" markerHeight="36" markerWidth="57" refY="18" refX="39" id="ZERO_OR_MORE_END"><circle r="6" cy="18" cx="9" fill="white" stroke="gray"/><path d="M21,18 Q39,0 57,18 Q39,36 21,18" fill="none" stroke="gray"/></marker></defs><path style="stroke: gray; fill: none;" marker-start="url(#ONLY_ONE_START)" marker-end="url(#ZERO_OR_ONE_END)" d="M123.611,86L123.611,94.333C123.611,102.667,123.611,119.333,123.611,136C123.611,152.667,123.611,169.333,123.611,177.667L123.611,186" class="er relationshipLine"/><path style="stroke: gray; fill: none;" marker-start="url(#ONLY_ONE_START)" marker-end="url(#ZERO_OR_MORE_END)" d="M123.611,337L123.611,345.333C123.611,353.667,123.611,370.333,123.611,387C123.611,403.667,123.611,420.333,123.611,428.667L123.611,437" class="er relationshipLine"/><path style="stroke: gray; fill: none;" marker-start="url(#ONLY_ONE_START)" marker-end="url(#ONE_OR_MORE_END)" d="M174.343,590L179.869,598.333C185.395,606.667,196.448,623.333,201.975,640C207.501,656.667,207.501,673.333,207.501,681.667L207.501,690" class="er relationshipLine"/><path style="stroke: gray; fill: none;" marker-start="url(#ONLY_ONE_START)" marker-end="url(#ZERO_OR_MORE_END)" d="M29.656,590L19.421,598.333C9.186,606.667,-11.283,623.333,-21.518,652.667C-31.753,682,-31.753,724,-31.753,766C-31.753,808,-31.753,850,-31.753,892.167C-31.753,934.333,-31.753,976.667,-31.753,1019C-31.753,1061.333,-31.753,1103.667,-17.771,1133.501C-3.789,1163.335,24.174,1180.67,38.156,1189.337L52.138,1198.004" class="er relationshipLine"/><path style="stroke: gray; fill: none;" marker-start="url(#ONLY_ONE_START)" marker-end="url(#ZERO_OR_MORE_END)" d="M271.053,842L278.022,850.333C284.99,858.667,298.927,875.333,305.896,892C312.864,908.667,312.864,925.333,312.864,933.667L312.864,942" class="er relationshipLine"/><path style="stroke: gray; fill: none;" marker-start="url(#ONLY_ONE_START)" marker-end="url(#ZERO_OR_MORE_END)" d="M143.948,842L136.98,850.333C130.012,858.667,116.075,875.333,109.106,904.833C102.138,934.333,102.138,976.667,102.138,1019C102.138,1061.333,102.138,1103.667,102.138,1133.167C102.138,1162.667,102.138,1179.333,102.138,1187.667L102.138,1196" class="er relationshipLine"/><path style="stroke: gray; fill: none;" marker-start="url(#ONLY_ONE_START)" marker-end="url(#ZERO_OR_MORE_END)" d="M312.864,1096L312.864,1104.333C312.864,1112.667,312.864,1129.333,286.076,1148.218C259.289,1167.102,205.713,1188.204,178.925,1198.755L152.138,1209.306" class="er relationshipLine"/><g transform="translate(73.61077880859375,20 )" id="entity-Container-bc34fb32-8a75-5b81-936b-92374bf40296"><rect height="66" width="100" y="0" x="0" class="er entityBox"/><text style="dominant-baseline: middle; text-anchor: middle; font-size: 12px;" transform="translate(50,12)" y="0" x="0" id="text-entity-Container-bc34fb32-8a75-5b81-936b-92374bf40296" class="er entityLabel">Container</text><rect height="21" width="39.9296875" y="24" x="0" class="er attributeBoxOdd"/><text style="dominant-baseline: middle; font-size: 10.2px;" transform="translate(5,34.5)" y="0" x="0" id="text-entity-Container-bc34fb32-8a75-5b81-936b-92374bf40296-attr-1-type" class="er entityLabel">string</text><rect height="21" width="60.0703125" y="24" x="39.9296875" class="er attributeBoxOdd"/><text style="dominant-baseline: middle; font-size: 10.2px;" transform="translate(44.9296875,34.5)" y="0" x="0" id="text-entity-Container-bc34fb32-8a75-5b81-936b-92374bf40296-attr-1-name" class="er entityLabel">iri</text><rect height="21" width="39.9296875" y="45" x="0" class="er attributeBoxEven"/><text style="dominant-baseline: middle; font-size: 10.2px;" transform="translate(5,55.5)" y="0" x="0" id="text-entity-Container-bc34fb32-8a75-5b81-936b-92374bf40296-attr-2-type" class="er entityLabel">string</text><rect height="21" width="60.0703125" y="45" x="39.9296875" class="er attributeBoxEven"/><text style="dominant-baseline: middle; font-size: 10.2px;" transform="translate(44.9296875,55.5)" y="0" x="0" id="text-entity-Container-bc34fb32-8a75-5b81-936b-92374bf40296-attr-2-name" class="er entityLabel">metadata</text></g><g transform="translate(54.07171630859375,186 )" id="entity-CellSummaryData-01877285-8b8e-5081-8d0c-af66f80061f2"><rect height="151" width="139.078125" y="0" x="0" class="er entityBox"/><text style="dominant-baseline: middle; text-anchor: middle; font-size: 12px;" transform="translate(69.5390625,12)" y="0" x="0" id="text-entity-CellSummaryData-01877285-8b8e-5081-8d0c-af66f80061f2" class="er entityLabel">CellSummaryData</text><rect height="21" width="49.8671875" y="24" x="0" class="er attributeBoxOdd"/><text style="dominant-baseline: middle; font-size: 10.2px;" transform="translate(5,34.5)" y="0" x="0" id="text-entity-CellSummaryData-01877285-8b8e-5081-8d0c-af66f80061f2-attr-1-type" class="er entityLabel">string</text><rect height="21" width="89.2109375" y="24" x="49.8671875" class="er attributeBoxOdd"/><text style="dominant-baseline: middle; font-size: 10.2px;" transform="translate(54.8671875,34.5)" y="0" x="0" id="text-entity-CellSummaryData-01877285-8b8e-5081-8d0c-af66f80061f2-attr-1-name" class="er entityLabel">donor</text><rect height="21" width="49.8671875" y="45" x="0" class="er attributeBoxEven"/><text style="dominant-baseline: middle; font-size: 10.2px;" transform="translate(5,55.5)" y="0" x="0" id="text-entity-CellSummaryData-01877285-8b8e-5081-8d0c-af66f80061f2-attr-2-type" class="er entityLabel">string</text><rect height="21" width="89.2109375" y="45" x="49.8671875" class="er attributeBoxEven"/><text style="dominant-baseline: middle; font-size: 10.2px;" transform="translate(54.8671875,55.5)" y="0" x="0" id="text-entity-CellSummaryData-01877285-8b8e-5081-8d0c-af66f80061f2-attr-2-name" class="er entityLabel">sample</text><rect height="21" width="49.8671875" y="66" x="0" class="er attributeBoxOdd"/><text style="dominant-baseline: middle; font-size: 10.2px;" transform="translate(5,76.5)" y="0" x="0" id="text-entity-CellSummaryData-01877285-8b8e-5081-8d0c-af66f80061f2-attr-3-type" class="er entityLabel">string</text><rect height="21" width="89.2109375" y="66" x="49.8671875" class="er attributeBoxOdd"/><text style="dominant-baseline: middle; font-size: 10.2px;" transform="translate(54.8671875,76.5)" y="0" x="0" id="text-entity-CellSummaryData-01877285-8b8e-5081-8d0c-af66f80061f2-attr-3-name" class="er entityLabel">dataset</text><rect height="22" width="49.8671875" y="87" x="0" class="er attributeBoxEven"/><text style="dominant-baseline: middle; font-size: 10.2px;" transform="translate(5,98)" y="0" x="0" id="text-entity-CellSummaryData-01877285-8b8e-5081-8d0c-af66f80061f2-attr-4-type" class="er entityLabel">string</text><rect height="22" width="89.2109375" y="87" x="49.8671875" class="er attributeBoxEven"/><text style="dominant-baseline: middle; font-size: 10.2px;" transform="translate(54.8671875,98)" y="0" x="0" id="text-entity-CellSummaryData-01877285-8b8e-5081-8d0c-af66f80061f2-attr-4-name" class="er entityLabel">spatial_entity</text><rect height="21" width="49.8671875" y="109" x="0" class="er attributeBoxOdd"/><text style="dominant-baseline: middle; font-size: 10.2px;" transform="translate(5,119.5)" y="0" x="0" id="text-entity-CellSummaryData-01877285-8b8e-5081-8d0c-af66f80061f2-attr-5-type" class="er entityLabel">string</text><rect height="21" width="89.2109375" y="109" x="49.8671875" class="er attributeBoxOdd"/><text style="dominant-baseline: middle; font-size: 10.2px;" transform="translate(54.8671875,119.5)" y="0" x="0" id="text-entity-CellSummaryData-01877285-8b8e-5081-8d0c-af66f80061f2-attr-5-name" class="er entityLabel">collision</text><rect height="21" width="49.8671875" y="130" x="0" class="er attributeBoxEven"/><text style="dominant-baseline: middle; font-size: 10.2px;" transform="translate(5,140.5)" y="0" x="0" id="text-entity-CellSummaryData-01877285-8b8e-5081-8d0c-af66f80061f2-attr-6-type" class="er entityLabel">string</text><rect height="21" width="89.2109375" y="130" x="49.8671875" class="er attributeBoxEven"/><text style="dominant-baseline: middle; font-size: 10.2px;" transform="translate(54.8671875,140.5)" y="0" x="0" id="text-entity-CellSummaryData-01877285-8b8e-5081-8d0c-af66f80061f2-attr-6-name" class="er entityLabel">corridor</text></g><g transform="translate(20,437 )" id="entity-CellSummary-8c926ae0-12f6-5efa-bf9c-bb558c567bb2"><rect height="153" width="207.2215576171875" y="0" x="0" class="er entityBox"/><text style="dominant-baseline: middle; text-anchor: middle; font-size: 12px;" transform="translate(103.61077880859375,12)" y="0" x="0" id="text-entity-CellSummary-8c926ae0-12f6-5efa-bf9c-bb558c567bb2" class="er entityLabel">CellSummary</text><rect height="22" width="76.8309326171875" y="24" x="0" class="er attributeBoxOdd"/><text style="dominant-baseline: middle; font-size: 10.2px;" transform="translate(5,35)" y="0" x="0" id="text-entity-CellSummary-8c926ae0-12f6-5efa-bf9c-bb558c567bb2-attr-1-type" class="er entityLabel">string</text><rect height="22" width="130.390625" y="24" x="76.8309326171875" class="er attributeBoxOdd"/><text style="dominant-baseline: middle; font-size: 10.2px;" transform="translate(81.8309326171875,35)" y="0" x="0" id="text-entity-CellSummary-8c926ae0-12f6-5efa-bf9c-bb558c567bb2-attr-1-name" class="er entityLabel">annotation_method</text><rect height="22" width="76.8309326171875" y="46" x="0" class="er attributeBoxEven"/><text style="dominant-baseline: middle; font-size: 10.2px;" transform="translate(5,57)" y="0" x="0" id="text-entity-CellSummary-8c926ae0-12f6-5efa-bf9c-bb558c567bb2-attr-2-type" class="er entityLabel">uriorcurieList</text><rect height="22" width="130.390625" y="46" x="76.8309326171875" class="er attributeBoxEven"/><text style="dominant-baseline: middle; font-size: 10.2px;" transform="translate(81.8309326171875,57)" y="0" x="0" id="text-entity-CellSummary-8c926ae0-12f6-5efa-bf9c-bb558c567bb2-attr-2-name" class="er entityLabel">aggregated_summaries</text><rect height="21" width="76.8309326171875" y="68" x="0" class="er attributeBoxOdd"/><text style="dominant-baseline: middle; font-size: 10.2px;" transform="translate(5,78.5)" y="0" x="0" id="text-entity-CellSummary-8c926ae0-12f6-5efa-bf9c-bb558c567bb2-attr-3-type" class="er entityLabel">string</text><rect height="21" width="130.390625" y="68" x="76.8309326171875" class="er attributeBoxOdd"/><text style="dominant-baseline: middle; font-size: 10.2px;" transform="translate(81.8309326171875,78.5)" y="0" x="0" id="text-entity-CellSummary-8c926ae0-12f6-5efa-bf9c-bb558c567bb2-attr-3-name" class="er entityLabel">modality</text><rect height="22" width="76.8309326171875" y="89" x="0" class="er attributeBoxEven"/><text style="dominant-baseline: middle; font-size: 10.2px;" transform="translate(5,100)" y="0" x="0" id="text-entity-CellSummary-8c926ae0-12f6-5efa-bf9c-bb558c567bb2-attr-4-type" class="er entityLabel">string</text><rect height="22" width="130.390625" y="89" x="76.8309326171875" class="er attributeBoxEven"/><text style="dominant-baseline: middle; font-size: 10.2px;" transform="translate(81.8309326171875,100)" y="0" x="0" id="text-entity-CellSummary-8c926ae0-12f6-5efa-bf9c-bb558c567bb2-attr-4-name" class="er entityLabel">donor_sex</text><rect height="21" width="76.8309326171875" y="111" x="0" class="er attributeBoxOdd"/><text style="dominant-baseline: middle; font-size: 10.2px;" transform="translate(5,121.5)" y="0" x="0" id="text-entity-CellSummary-8c926ae0-12f6-5efa-bf9c-bb558c567bb2-attr-5-type" class="er entityLabel">uriorcurie</text><rect height="21" width="130.390625" y="111" x="76.8309326171875" class="er attributeBoxOdd"/><text style="dominant-baseline: middle; font-size: 10.2px;" transform="translate(81.8309326171875,121.5)" y="0" x="0" id="text-entity-CellSummary-8c926ae0-12f6-5efa-bf9c-bb558c567bb2-attr-5-name" class="er entityLabel">id</text><rect height="21" width="76.8309326171875" y="132" x="0" class="er attributeBoxEven"/><text style="dominant-baseline: middle; font-size: 10.2px;" transform="translate(5,142.5)" y="0" x="0" id="text-entity-CellSummary-8c926ae0-12f6-5efa-bf9c-bb558c567bb2-attr-6-type" class="er entityLabel">string</text><rect height="21" width="130.390625" y="132" x="76.8309326171875" class="er attributeBoxEven"/><text style="dominant-baseline: middle; font-size: 10.2px;" transform="translate(81.8309326171875,142.5)" y="0" x="0" id="text-entity-CellSummary-8c926ae0-12f6-5efa-bf9c-bb558c567bb2-attr-6-name" class="er entityLabel">label</text></g><g transform="translate(52.13763427734375,1196 )" id="entity-Named-527792da-945b-57c2-aece-6a504f46f916"><rect height="66" width="100" y="0" x="0" class="er entityBox"/><text style="dominant-baseline: middle; text-anchor: middle; font-size: 12px;" transform="translate(50,12)" y="0" x="0" id="text-entity-Named-527792da-945b-57c2-aece-6a504f46f916" class="er entityLabel">Named</text><rect height="21" width="62.1953125" y="24" x="0" class="er attributeBoxOdd"/><text style="dominant-baseline: middle; font-size: 10.2px;" transform="translate(5,34.5)" y="0" x="0" id="text-entity-Named-527792da-945b-57c2-aece-6a504f46f916-attr-1-type" class="er entityLabel">uriorcurie</text><rect height="21" width="37.8046875" y="24" x="62.1953125" class="er attributeBoxOdd"/><text style="dominant-baseline: middle; font-size: 10.2px;" transform="translate(67.1953125,34.5)" y="0" x="0" id="text-entity-Named-527792da-945b-57c2-aece-6a504f46f916-attr-1-name" class="er entityLabel">id</text><rect height="21" width="62.1953125" y="45" x="0" class="er attributeBoxEven"/><text style="dominant-baseline: middle; font-size: 10.2px;" transform="translate(5,55.5)" y="0" x="0" id="text-entity-Named-527792da-945b-57c2-aece-6a504f46f916-attr-2-type" class="er entityLabel">string</text><rect height="21" width="37.8046875" y="45" x="62.1953125" class="er attributeBoxEven"/><text style="dominant-baseline: middle; font-size: 10.2px;" transform="translate(67.1953125,55.5)" y="0" x="0" id="text-entity-Named-527792da-945b-57c2-aece-6a504f46f916-attr-2-name" class="er entityLabel">label</text></g><g transform="translate(139.72064208984375,690 )" id="entity-CellSummaryRow-721c8715-1698-50b5-bf9f-fa26e676b89e"><rect height="152" width="135.560546875" y="0" x="0" class="er entityBox"/><text style="dominant-baseline: middle; text-anchor: middle; font-size: 12px;" transform="translate(67.7802734375,12)" y="0" x="0" id="text-entity-CellSummaryRow-721c8715-1698-50b5-bf9f-fa26e676b89e" class="er entityLabel">CellSummaryRow</text><rect height="22" width="63.2958984375" y="24" x="0" class="er attributeBoxOdd"/><text style="dominant-baseline: middle; font-size: 10.2px;" transform="translate(5,35)" y="0" x="0" id="text-entity-CellSummaryRow-721c8715-1698-50b5-bf9f-fa26e676b89e-attr-1-type" class="er entityLabel">uriorcurie</text><rect height="22" width="72.2646484375" y="24" x="63.2958984375" class="er attributeBoxOdd"/><text style="dominant-baseline: middle; font-size: 10.2px;" transform="translate(68.2958984375,35)" y="0" x="0" id="text-entity-CellSummaryRow-721c8715-1698-50b5-bf9f-fa26e676b89e-attr-1-name" class="er entityLabel">cell_id</text><rect height="22" width="63.2958984375" y="46" x="0" class="er attributeBoxEven"/><text style="dominant-baseline: middle; font-size: 10.2px;" transform="translate(5,57)" y="0" x="0" id="text-entity-CellSummaryRow-721c8715-1698-50b5-bf9f-fa26e676b89e-attr-2-type" class="er entityLabel">string</text><rect height="22" width="72.2646484375" y="46" x="63.2958984375" class="er attributeBoxEven"/><text style="dominant-baseline: middle; font-size: 10.2px;" transform="translate(68.2958984375,57)" y="0" x="0" id="text-entity-CellSummaryRow-721c8715-1698-50b5-bf9f-fa26e676b89e-attr-2-name" class="er entityLabel">cell_label</text><rect height="21" width="63.2958984375" y="68" x="0" class="er attributeBoxOdd"/><text style="dominant-baseline: middle; font-size: 10.2px;" transform="translate(5,78.5)" y="0" x="0" id="text-entity-CellSummaryRow-721c8715-1698-50b5-bf9f-fa26e676b89e-attr-3-type" class="er entityLabel">integer</text><rect height="21" width="72.2646484375" y="68" x="63.2958984375" class="er attributeBoxOdd"/><text style="dominant-baseline: middle; font-size: 10.2px;" transform="translate(68.2958984375,78.5)" y="0" x="0" id="text-entity-CellSummaryRow-721c8715-1698-50b5-bf9f-fa26e676b89e-attr-3-name" class="er entityLabel">count</text><rect height="21" width="63.2958984375" y="89" x="0" class="er attributeBoxEven"/><text style="dominant-baseline: middle; font-size: 10.2px;" transform="translate(5,99.5)" y="0" x="0" id="text-entity-CellSummaryRow-721c8715-1698-50b5-bf9f-fa26e676b89e-attr-4-type" class="er entityLabel">float</text><rect height="21" width="72.2646484375" y="89" x="63.2958984375" class="er attributeBoxEven"/><text style="dominant-baseline: middle; font-size: 10.2px;" transform="translate(68.2958984375,99.5)" y="0" x="0" id="text-entity-CellSummaryRow-721c8715-1698-50b5-bf9f-fa26e676b89e-attr-4-name" class="er entityLabel">percentage</text><rect height="21" width="63.2958984375" y="110" x="0" class="er attributeBoxOdd"/><text style="dominant-baseline: middle; font-size: 10.2px;" transform="translate(5,120.5)" y="0" x="0" id="text-entity-CellSummaryRow-721c8715-1698-50b5-bf9f-fa26e676b89e-attr-5-type" class="er entityLabel">uriorcurie</text><rect height="21" width="72.2646484375" y="110" x="63.2958984375" class="er attributeBoxOdd"/><text style="dominant-baseline: middle; font-size: 10.2px;" transform="translate(68.2958984375,120.5)" y="0" x="0" id="text-entity-CellSummaryRow-721c8715-1698-50b5-bf9f-fa26e676b89e-attr-5-name" class="er entityLabel">id</text><rect height="21" width="63.2958984375" y="131" x="0" class="er attributeBoxEven"/><text style="dominant-baseline: middle; font-size: 10.2px;" transform="translate(5,141.5)" y="0" x="0" id="text-entity-CellSummaryRow-721c8715-1698-50b5-bf9f-fa26e676b89e-attr-6-type" class="er entityLabel">string</text><rect height="21" width="72.2646484375" y="131" x="63.2958984375" class="er attributeBoxEven"/><text style="dominant-baseline: middle; font-size: 10.2px;" transform="translate(68.2958984375,141.5)" y="0" x="0" id="text-entity-CellSummaryRow-721c8715-1698-50b5-bf9f-fa26e676b89e-attr-6-name" class="er entityLabel">label</text></g><g transform="translate(202.13763427734375,942 )" id="entity-GeneExpression-6cf021ab-2198-5a58-b397-34a8273c9d2a"><rect height="154" width="221.453125" y="0" x="0" class="er entityBox"/><text style="dominant-baseline: middle; text-anchor: middle; font-size: 12px;" transform="translate(110.7265625,12)" y="0" x="0" id="text-entity-GeneExpression-6cf021ab-2198-5a58-b397-34a8273c9d2a" class="er entityLabel">GeneExpression</text><rect height="22" width="59.03125" y="24" x="0" class="er attributeBoxOdd"/><text style="dominant-baseline: middle; font-size: 10.2px;" transform="translate(5,35)" y="0" x="0" id="text-entity-GeneExpression-6cf021ab-2198-5a58-b397-34a8273c9d2a-attr-1-type" class="er entityLabel">uriorcurie</text><rect height="22" width="162.421875" y="24" x="59.03125" class="er attributeBoxOdd"/><text style="dominant-baseline: middle; font-size: 10.2px;" transform="translate(64.03125,35)" y="0" x="0" id="text-entity-GeneExpression-6cf021ab-2198-5a58-b397-34a8273c9d2a-attr-1-name" class="er entityLabel">gene_id</text><rect height="22" width="59.03125" y="46" x="0" class="er attributeBoxEven"/><text style="dominant-baseline: middle; font-size: 10.2px;" transform="translate(5,57)" y="0" x="0" id="text-entity-GeneExpression-6cf021ab-2198-5a58-b397-34a8273c9d2a-attr-2-type" class="er entityLabel">string</text><rect height="22" width="162.421875" y="46" x="59.03125" class="er attributeBoxEven"/><text style="dominant-baseline: middle; font-size: 10.2px;" transform="translate(64.03125,57)" y="0" x="0" id="text-entity-GeneExpression-6cf021ab-2198-5a58-b397-34a8273c9d2a-attr-2-name" class="er entityLabel">gene_label</text><rect height="22" width="59.03125" y="68" x="0" class="er attributeBoxOdd"/><text style="dominant-baseline: middle; font-size: 10.2px;" transform="translate(5,79)" y="0" x="0" id="text-entity-GeneExpression-6cf021ab-2198-5a58-b397-34a8273c9d2a-attr-3-type" class="er entityLabel">string</text><rect height="22" width="162.421875" y="68" x="59.03125" class="er attributeBoxOdd"/><text style="dominant-baseline: middle; font-size: 10.2px;" transform="translate(64.03125,79)" y="0" x="0" id="text-entity-GeneExpression-6cf021ab-2198-5a58-b397-34a8273c9d2a-attr-3-name" class="er entityLabel">ensembl_id</text><rect height="22" width="59.03125" y="90" x="0" class="er attributeBoxEven"/><text style="dominant-baseline: middle; font-size: 10.2px;" transform="translate(5,101)" y="0" x="0" id="text-entity-GeneExpression-6cf021ab-2198-5a58-b397-34a8273c9d2a-attr-4-type" class="er entityLabel">float</text><rect height="22" width="162.421875" y="90" x="59.03125" class="er attributeBoxEven"/><text style="dominant-baseline: middle; font-size: 10.2px;" transform="translate(64.03125,101)" y="0" x="0" id="text-entity-GeneExpression-6cf021ab-2198-5a58-b397-34a8273c9d2a-attr-4-name" class="er entityLabel">mean_gene_expression_value</text><rect height="21" width="59.03125" y="112" x="0" class="er attributeBoxOdd"/><text style="dominant-baseline: middle; font-size: 10.2px;" transform="translate(5,122.5)" y="0" x="0" id="text-entity-GeneExpression-6cf021ab-2198-5a58-b397-34a8273c9d2a-attr-5-type" class="er entityLabel">uriorcurie</text><rect height="21" width="162.421875" y="112" x="59.03125" class="er attributeBoxOdd"/><text style="dominant-baseline: middle; font-size: 10.2px;" transform="translate(64.03125,122.5)" y="0" x="0" id="text-entity-GeneExpression-6cf021ab-2198-5a58-b397-34a8273c9d2a-attr-5-name" class="er entityLabel">id</text><rect height="21" width="59.03125" y="133" x="0" class="er attributeBoxEven"/><text style="dominant-baseline: middle; font-size: 10.2px;" transform="translate(5,143.5)" y="0" x="0" id="text-entity-GeneExpression-6cf021ab-2198-5a58-b397-34a8273c9d2a-attr-6-type" class="er entityLabel">string</text><rect height="21" width="162.421875" y="133" x="59.03125" class="er attributeBoxEven"/><text style="dominant-baseline: middle; font-size: 10.2px;" transform="translate(64.03125,143.5)" y="0" x="0" id="text-entity-GeneExpression-6cf021ab-2198-5a58-b397-34a8273c9d2a-attr-6-name" class="er entityLabel">label</text></g><rect height="14" width="27.03125" y="129" x="110.09537506103516" class="er relationshipLabelBox"/><text style="text-anchor: middle; dominant-baseline: middle; font-size: 12px;" y="136" x="123.61100006103516" id="rel1" class="er relationshipLabel">data</text><rect height="14" width="83.28125" y="380" x="81.97037506103516" class="er relationshipLabelBox"/><text style="text-anchor: middle; dominant-baseline: middle; font-size: 12px;" y="387" x="123.61100006103516" id="rel2" class="er relationshipLabel">cell_summary</text><rect height="14" width="90.703125" y="629.817138671875" x="155.50274658203125" class="er relationshipLabelBox"/><text style="text-anchor: middle; dominant-baseline: middle; font-size: 12px;" y="636.817138671875" x="200.85430908203125" id="rel3" class="er relationshipLabel">summary_rows</text><rect height="14" width="45.1484375" y="893.7056884765625" x="-54.327213287353516" class="er relationshipLabelBox"/><text style="text-anchor: middle; dominant-baseline: middle; font-size: 12px;" y="900.7056884765625" x="-31.752994537353516" id="rel4" class="er relationshipLabel">type_of</text><rect height="14" width="106.96875" y="880.313232421875" x="250.2763671875" class="er relationshipLabelBox"/><text style="text-anchor: middle; dominant-baseline: middle; font-size: 12px;" y="887.313232421875" x="303.7607421875" id="rel5" class="er relationshipLabel">gene_expressions</text><rect height="14" width="45.1484375" y="1006.8474731445312" x="79.56488800048828" class="er relationshipLabelBox"/><text style="text-anchor: middle; dominant-baseline: middle; font-size: 12px;" y="1013.8474731445312" x="102.13910675048828" id="rel6" class="er relationshipLabel">type_of</text><rect height="14" width="45.1484375" y="1162.04638671875" x="226.3064422607422" class="er relationshipLabelBox"/><text style="text-anchor: middle; dominant-baseline: middle; font-size: 12px;" y="1169.04638671875" x="248.8806610107422" id="rel7" class="er relationshipLabel">type_of</text></svg>