<?xml version="1.0" encoding="UTF-8"?>
<svg id="Layer_1" data-name="Layer 1" xmlns="http://www.w3.org/2000/svg" xmlns:xlink="http://www.w3.org/1999/xlink" viewBox="0 0 790.8 616.9">
  <defs>
    <style>
      .cls-1, .cls-2, .cls-3, .cls-4, .cls-5 {
        fill: none;
      }

      .cls-6 {
        fill: #909090;
      }

      .cls-7 {
        fill: #a7a7a7;
      }

      .cls-8 {
        fill: #6c6c6c;
      }

      .cls-9 {
        fill: #bdbdbd;
      }

      .cls-10 {
        fill: #a9a9a9;
      }

      .cls-11 {
        fill: #939393;
      }

      .cls-12 {
        fill: #e3e3e3;
      }

      .cls-13 {
        fill: #d2d2d2;
      }

      .cls-14 {
        fill: #b5b5b5;
      }

      .cls-15 {
        fill: #9a9a9a;
      }

      .cls-16 {
        fill: #d0d0d0;
      }

      .cls-17 {
        fill: #f9e6de;
      }

      .cls-18 {
        fill: #7a7a7a;
      }

      .cls-2 {
        stroke: #fff;
      }

      .cls-2, .cls-3, .cls-4, .cls-5 {
        stroke-miterlimit: 10;
      }

      .cls-19 {
        fill: #efefef;
      }

      .cls-20 {
        fill: #8e8e8e;
      }

      .cls-21 {
        fill: #a1a1a1;
      }

      .cls-22 {
        fill: #979797;
      }

      .cls-23 {
        fill: #868686;
      }

      .cls-24 {
        fill: #cecece;
      }

      .cls-25 {
        fill: #e2a489;
      }

      .cls-26 {
        fill: #969696;
      }

      .cls-27 {
        fill: url(#linear-gradient);
      }

      .cls-28 {
        fill: #aaa;
      }

      .cls-29 {
        fill: #b4b4b4;
      }

      .cls-30 {
        fill: #ccc;
      }

      .cls-3 {
        stroke-width: 1.5px;
      }

      .cls-3, .cls-4 {
        stroke: #000;
      }

      .cls-31 {
        fill: #9d9d9d;
      }

      .cls-32 {
        fill: #757575;
      }

      .cls-33 {
        isolation: isolate;
      }

      .cls-34 {
        fill: #c3c3c3;
      }

      .cls-35 {
        mix-blend-mode: multiply;
      }

      .cls-36 {
        fill: #bebebe;
      }

      .cls-37 {
        fill: #c7c7c7;
      }

      .cls-38 {
        fill: #717171;
      }

      .cls-39 {
        fill: #b0b0b0;
      }

      .cls-40 {
        fill: #d7d7d7;
      }

      .cls-41 {
        fill: #9b9b9b;
      }

      .cls-42 {
        fill: #848484;
      }

      .cls-43 {
        fill: #6f6f6f;
      }

      .cls-44 {
        fill: #fff;
      }

      .cls-45 {
        fill: #f9c7dc;
      }

      .cls-46 {
        fill: #bcbcbc;
      }

      .cls-47 {
        fill: #9f9f9f;
      }

      .cls-48 {
        fill: #bababa;
      }

      .cls-49 {
        fill: #fafafa;
      }

      .cls-50 {
        fill: #bbb;
      }

      .cls-51 {
        fill: #cd5257;
      }

      .cls-52 {
        fill: #818181;
      }

      .cls-53 {
        fill: #7e7e7e;
      }

      .cls-54 {
        fill: #878787;
      }

      .cls-55 {
        fill: #b8b8b8;
      }

      .cls-56 {
        fill: #959595;
      }

      .cls-57 {
        fill: #a3a3a3;
      }

      .cls-58 {
        fill: #858585;
      }

      .cls-59 {
        fill: #8b8b8b;
      }

      .cls-60 {
        fill: #fefefe;
      }

      .cls-61 {
        fill: #acacac;
      }

      .cls-62 {
        fill: #a2a2a2;
      }

      .cls-63 {
        fill: #8a8a8a;
      }

      .cls-5 {
        stroke: #f5a59a;
        stroke-width: 13.7px;
      }

      .cls-64 {
        fill: #e1e1e1;
      }

      .cls-65 {
        fill: #949494;
      }

      .cls-66 {
        fill: #838383;
      }

      .cls-67 {
        fill: #8d8d8d;
      }

      .cls-68 {
        fill: #b9b9b9;
      }

      .cls-69 {
        fill: #cbcbcb;
      }

      .cls-70 {
        fill: #ff0043;
      }

      .cls-71 {
        fill: #aeaeae;
      }

      .cls-72 {
        fill: #9e9e9e;
      }

      .cls-73 {
        fill: #a8a8a8;
      }

      .cls-74 {
        fill: #a4a4a4;
      }

      .cls-75 {
        fill: #989898;
      }

      .cls-76 {
        fill: #ededed;
      }

      .cls-77 {
        fill: #787878;
      }

      .cls-78 {
        fill: #adadad;
      }

      .cls-79 {
        fill: #c8c8c8;
      }

      .cls-80 {
        fill: #d3d3d3;
      }

      .cls-81 {
        fill: #d1d1d1;
      }

      .cls-82 {
        fill: #b6b6b6;
      }

      .cls-83 {
        clip-path: url(#clippath);
      }

      .cls-84 {
        fill: #cacaca;
      }

      .cls-85 {
        fill: #898989;
      }

      .cls-86 {
        fill: #cfcfcf;
      }

      .cls-87 {
        fill: #b2b2b2;
      }

      .cls-88 {
        fill: #f4e4ea;
      }
    </style>
    <clipPath id="clippath">
      <rect class="cls-1" x="700.3" y="565.4" width="48" height="48"/>
    </clipPath>
    <linearGradient id="linear-gradient" x1="706.5" y1="2029.5" x2="742.1" y2="2008.9" gradientTransform="translate(0 -1429.8)" gradientUnits="userSpaceOnUse">
      <stop offset=".1" stop-color="#fff" stop-opacity="0"/>
      <stop offset=".4" stop-color="#fff"/>
    </linearGradient>
  </defs>
  <g class="cls-33">
    <g id="Layer_1-2" data-name="Layer 1-2">
      <g id="svg900">
        <g id="Crosswalk">
          <g id="Blood_Cell" data-name="Blood Cell">
            <polyline id="Blood_cell" data-name="Blood cell" class="cls-1" points="122.2 134 106.6 136.1 88.2 144.4 68.2 147.4 58.5 155.6 56.9 166.3 56.6 178 64.2 186.5 82.9 190.7 105 186.1 128.7 173 136.7 163.3 140.3 150.9 133.4 138.3 122.2 134"/>
          </g>
          <g id="Endothelium_Peritubular_Capillary" data-name="Endothelium Peritubular Capillary">
            <polyline id="Endothelium_Peritubular_Capillary_1" data-name="Endothelium Peritubular Capillary 1" class="cls-1" points="77.5 84.2 61.8 91.4 47.4 100.8 34 112.7 23.3 114.1 21.8 109.7 33.6 98.9 47.4 86.8 58.5 78.7 68.1 77.1 77.2 78.2 77.5 84.2"/>
            <polyline id="Endothelium_Peritubular_Capillary_2" data-name="Endothelium Peritubular Capillary 2" class="cls-1" points="87.1 80.9 94.5 87.9 104.5 88.6 114.1 89.4 126 90.2 135.9 93.2 143.8 94.8 150.6 92.7 149.8 87.9 142.5 81.2 135.1 78.4 122.2 78.4 109.1 78.4 99.7 77.5 92.3 76.7 87.1 80.9"/>
            <path id="Endothelium_Peritubular_Capillary_3" data-name="Endothelium Peritubular Capillary 3" class="cls-1" d="M161.4,98.7c-1.7,5.6-.2,8.3-.2,8.3l2.3,9.5,4.5,9.4,1.5,11.1-2.2,12-10.6,17.7-7.6,9.9-5.6,11.4-4.4,18-3.7,13.4-15.8,11.5-11.7,5.1-15.8,5.4-4.9,3.5-6.3,3.6,6.2,5.1h12.4c0-.1,15.1-10.5,15.1-10.5l18-5.1,14.8-8.2,16-19.6,11.6-18.1,7.4-23.2v-21.4c.1,0-2.4-15.5-2.4-15.5l-2.1-13.5-4.3-13.3-9.8-6.6"/>
            <polyline id="Endothelium_Peritubular_Capillary_4" data-name="Endothelium Peritubular Capillary 4" class="cls-1" points="23 202.5 17.4 209.4 18.7 214.6 22.4 219.7 27.1 223.1 39.6 240.3 49.9 247 59.3 248.5 63.5 245.8 61.1 240.7 45.4 228.9 40.8 220.9 34.7 208.1 31 203.8 23 202.5"/>
            <polyline id="Endothelium_Peritubular_Capillary_5" data-name="Endothelium Peritubular Capillary 5" class="cls-1" points="19.9 125 18 135.7 14.3 152.3 13.2 170.9 13.6 179.6 16.1 187.4 11.9 190.6 5.3 183.5 4 165.8 1.4 146.4 5.1 136.6 10.6 129.5 19.9 125"/>
          </g>
          <g id="Inner_Medullary_Collecting_Duct_Cell" data-name="Inner Medullary Collecting Duct Cell">
            <polyline id="Inner_Medullary_Collecting_Duct_Cell_1" data-name="Inner Medullary Collecting Duct Cell 1" class="cls-1" points="313 167.4 309.6 174.6 313.9 183.2 332.5 196.3 344.6 216 356.1 226.6 367.6 228.7 386.4 224 402.1 218.8 409.1 196.1 413.8 179.7 423.8 163.7 432.3 151.7 418.7 149 395 147.7 361.8 153.5 333.8 157.6 313 167.4"/>
            <polyline id="Inner_Medullary_Collecting_Duct_Cell_2" data-name="Inner Medullary Collecting Duct Cell 2" class="cls-1" points="437.7 150.6 456.6 155.1 475.4 163.3 498.8 174.1 513.1 184.5 519.7 193.6 521.2 201.2 511.4 209.6 496.2 222.7 480.5 239 464.4 250.9 461.2 257.1 445.8 250.8 430.2 243 413.8 232.4 405.9 223.4 404 214.9 412.5 188.2 423.3 168.1 432.3 154.9 437.7 150.6"/>
            <polygon id="Inner_Medullary_Collecting_Duct_Cell_3" data-name="Inner Medullary Collecting Duct Cell 3" class="cls-1" points="522.8 206.8 505.8 218.4 484.9 238.3 468.4 250.9 461.1 262.8 462.6 275.2 466.9 286.1 476 298.5 484.2 307.5 496.3 312.9 503.1 311.3 525.6 303.1 556 294.7 571.8 292.4 579.6 295.2 585.7 291.5 578.7 273.3 565.4 249.9 553.9 234.1 542 216.3 533.3 209.7 522.8 206.8"/>
            <polyline id="Inner_Medullary_Collecting_Duct_Cell_4" data-name="Inner Medullary Collecting Duct Cell 4" class="cls-1" points="500 317.3 494.5 323.9 495.9 334 495.7 348.6 499 366.5 505.8 378 521.2 380.9 548.7 387 568.3 389.7 596 401 599 394.4 600.7 379.3 598.1 352.2 596.3 331.9 594.4 317.3 591.2 304.5 585 294.7 567.4 294.7 535.4 303.1 513.2 311.3 500 317.3"/>
            <polyline id="Inner_Medullary_Collecting_Duct_Cell_5" data-name="Inner Medullary Collecting Duct Cell 5" class="cls-1" points="516 385.1 503 387.5 498.5 398.1 495.7 415.9 494.3 429.4 492.4 442.4 500.4 447.5 517.1 459.3 543 478.7 553.9 488.4 559.9 493.1 568.7 487.5 580.5 458.4 588.9 437 593.3 421.2 598.1 406.8 591.2 398.9 563.2 389.9 535.4 383.5 516 385.1"/>
            <polyline id="Inner_Medullary_Collecting_Duct_Cell_6" data-name="Inner Medullary Collecting Duct Cell 6" class="cls-1" points="486 448.5 507.4 455.5 524.2 467 541.5 481.4 551.8 491.1 554.7 498 554.7 506.1 540.7 524.9 523.4 544.7 502.9 559.4 486 565.6 478.7 560.6 468.7 540.6 456 518.7 446.5 500.7 443.9 493.1 446.8 483 456.7 469.1 469.6 457.5 486 448.5"/>
            <polyline id="Inner_Medullary_Collecting_Duct_Cell_7" data-name="Inner Medullary Collecting Duct Cell 7" class="cls-1" points="387.8 515.9 383.6 528.3 375.1 575.1 372.2 585.1 374.9 589.1 381 592.1 402 590.3 430.8 587.6 455.4 581 472.5 574.3 477.7 571.9 480.5 569.3 479.6 565.5 468.4 549.2 455.4 521.8 446.9 510.3 439.1 498.9 426.3 495.8 405.6 499.3 394.1 507 387.8 515.9"/>
            <polyline id="Inner_Medullary_Collecting_Duct_Cell_8" data-name="Inner Medullary Collecting Duct Cell 8" class="cls-1" points="315.6 508.8 328.3 498.7 343.9 496.8 355.3 496.1 364.2 496.5 375.3 502.8 380.6 511.8 382.1 519 378.8 539.1 374.8 561.6 371 573 369.2 579.3 369.1 590.7 361.7 594.9 330.8 592.8 302.7 586.6 291 581 290.7 573.6 297.8 559.7 303.7 542.7 306.7 530.5 315.6 508.8"/>
            <path id="Inner_Medullary_Collecting_Duct_Cell_9" data-name="Inner Medullary Collecting Duct Cell 9" class="cls-1" d="M259.4,460.3c12.5,3.3,24,9.3,24,9.3l20.9,14.4,7.8,10.1,1.9,6.2-4.3,14.3-6.9,18.6-1.9,11.8-9.3,21.5-8.8,13.1-21.5-5.3-28.4-12.7-18.6-12.3-11.5-11.2,6-6.8,4.2-6.3,9.5-16,10.4-11.7,11-9.7,9.6-23.5,5.9-3.8"/>
            <polyline id="Inner_Medullary_Collecting_Duct_Cell_10" data-name="Inner Medullary Collecting Duct Cell 10" class="cls-1" points="163.2 450.4 184.9 440 206.6 434.2 230 433.7 243.8 432.7 253.9 444.2 255.8 458.1 250.5 470 244.9 482.6 229.2 497.4 222.5 508.9 210 524.9 200.2 529.9 190 529.4 179.6 516.9 165.7 497.4 158.6 472.7 157.3 454.4 163.2 450.4"/>
            <polyline id="Inner_Medullary_Collecting_Duct_Cell_11" data-name="Inner Medullary Collecting Duct Cell 11" class="cls-1" points="160.4 358.6 179.9 374 190.6 376.5 201 384.1 225.9 390 237.5 394.6 245 401.7 246.9 414.6 244.4 430.6 229.8 430.6 201 434.9 176.5 442.7 160 447 156.4 421.8 157.5 401 157.7 379.1 160.4 358.6"/>
            <polyline id="Inner_Medullary_Collecting_Duct_Cell_12" data-name="Inner Medullary Collecting Duct Cell 12" class="cls-1" points="181.3 293.9 173.5 305.3 168 327.3 163.2 342.5 163.2 354.2 165.7 359.8 182.2 372.9 203.6 380.9 226.8 387.5 238.7 388.2 246.9 381.8 250.6 368.3 252.9 352.2 252.4 337.5 243.8 328.6 237.7 324.7 218.5 318.6 203.7 310.3 192 301.4 181.3 293.9"/>
            <polygon id="Inner_Medullary_Collecting_Duct_Cell_13" data-name="Inner Medullary Collecting Duct Cell 13" class="cls-1" points="182.4 288.8 199.2 302.9 207.4 306.5 225.9 317.3 244.9 325.5 253.9 330.1 259.5 329.5 269.2 321.1 280.3 305.3 287.1 290.6 289.7 284.4 288.6 258.5 280.3 235.4 266.9 215.1 261.3 206.8 254 205.2 244 204.1 222.5 223.1 199.2 250.9 187.9 267.8 185.5 276.8 182.4 288.8"/>
            <polyline id="Inner_Medullary_Collecting_Duct_Cell_14" data-name="Inner Medullary Collecting Duct Cell 14" class="cls-1" points="258.1 195.1 259.4 200.8 266.9 215.1 280.3 235.4 292.4 255.1 299.6 261.1 311.6 259.7 323 251.7 335.1 241 347.5 233 346.3 224.6 338.1 209.5 324.8 197.2 317 186.7 306.1 178.3 302.8 171.3 287.1 176.6 267.7 188.2 258.1 195.1"/>
          </g>
        </g>
        <g id="art">
          <g id="g94">
            <g id="g56">
              <path id="path50" class="cls-88" d="M33.6,217.7c13.3,16.2,1,20.7,20.4,28.6s42.8,11.9,58-2.5c8.9-8.4,45.8-26.7,47.8-38.8,2.1-12.1,14.2-66.5,13.7-78.8-.6-12.7,2.2-16.3-7.2-24.8-13.3-12-29.6-23.2-42.9-19.7-14.2,3.7-7.2,1.9-21,1.4-19.1-.6-26.6-7.1-44.1.4s-25.3,15.6-36.6,31.3c-11.1,15.4-15.2,14.1-18.4,32.8-2,11.8,0,24.9,3.6,36.4,3.3,11,8,22.7,15.3,31.5"/>
              <g id="g54">
                <path id="path52" class="cls-88" d="M31.9,219.4c2.7,3.3,4.9,6.9,6,10.9.7,2.5,1,5.2,2,7.7,1.2,3.1,3.5,5.4,6.3,7.1,4.5,2.8,9.7,4.6,14.7,6.3,10.5,3.5,21.8,5.5,32.8,3.7,5.2-.8,10.4-2.7,14.8-5.6,2.1-1.3,3.9-3,5.7-4.6.4-.4.9-.8,1.3-1.1.1,0,.6-.4.1-.1.1-.1.2-.2.3-.2.3-.2.7-.5,1-.7,6.6-4.8,13.6-9,20.4-13.5,6.9-4.5,14-9.3,19.7-15.3,2-2.2,4.1-4.8,4.8-7.7.5-2.1.8-4.3,1.2-6.4,1.4-7.2,2.9-14.3,4.3-21.4,1.7-8.6,3.4-17.1,4.9-25.7,1.3-7.1,2.5-14.2,3.2-21.3.3-2.9.2-5.6.1-8.5,0-4,.4-8.1-.4-12-.9-4.2-3.7-7.7-6.8-10.6-4.7-4.4-9.8-8.5-15.1-12.1-4.9-3.3-10.2-6.3-16-8.1-5.4-1.7-10.7-1.8-16.1-.4-2.2.6-4.3,1.2-6.5,1.6-.3.1-.6.1-.9.2-.7.1.4,0-.2,0h-1.3c-1.1-.1-2.3-.3-3.4-.4-2.5-.3-5-.4-7.6-.5-5.5-.2-11-1.2-16.5-2.1-4.6-.8-9.3-1.4-14-.9-5.9.6-11.4,2.6-16.7,5.1-4.6,2.1-9.1,4.6-13.2,7.6-8.2,6-14.5,13.7-20.4,21.8-2.9,3.9-5.9,7.7-9.1,11.4-2.3,2.6-4.5,5.3-6.1,8.4-2.1,4-3.2,8.4-4,12.8C0,151.2-.3,157.7.3,164.2c1.2,12.9,5,25.9,10.6,37.6,2.5,5.4,5.7,10.6,9.5,15.2.8,1,2.5.8,3.3,0,1-1,.8-2.3,0-3.3-7.6-9.2-12-20.8-15.2-32.2-3.5-12.2-4.9-24.8-2.3-37.4.8-4,1.9-7.7,3.8-11,.4-.6.8-1.3,1.2-1.9.5-.8.8-1.1,1.3-1.7,1.1-1.4,2.3-2.7,3.4-4,6.7-7.5,12-16.1,19-23.4,6.6-6.9,14.4-12,23.1-15.9,4.7-2.1,9.7-3.7,14.9-3.9,4.5-.2,9,.6,13.5,1.3,5.6.9,11.2,1.6,16.9,1.9,2.2.1,4.3.2,6.5.5,1,.1,2,.3,3.1.3,3.3.1,6.7-1.2,9.9-2,2.5-.6,4.8-1,7.4-.9,2.5.2,5,.8,7.4,1.6,5.4,1.8,10.4,4.8,15,8.1,5,3.5,9.9,7.4,14.2,11.8,1.4,1.4,2.5,2.8,3.4,4.5.5.9,1,2.9,1.1,3.8.4,4.2,0,8.5.1,12.7.1,2.2-.1,4.4-.3,6.6-.1.7-.1,1.3-.2,2,0,.4-.1.7-.1,1.1s-.1.4-.1.7c-.1.7.1-.5,0,.3-.2,1.7-.5,3.4-.8,5.2-1.3,8-2.8,16-4.3,24s-3.2,15.9-4.8,23.8c-.6,3.1-1.3,6.2-1.9,9.3-.4,2-.6,4.2-1.2,6.2-.1.3-.2.5-.3.8-.2.5.2-.5,0,.1,0,.1-.1.2-.1.3-.3.6-.7,1.2-1.1,1.8-.2.3-.4.5-.6.8-.2.3.3-.4-.1.1-.1.2-.3.3-.4.5-.5.6-1.1,1.2-1.7,1.8-2.5,2.6-5.4,5-8.3,7.1-6.9,5.1-14.2,9.7-21.4,14.4-3,1.9-6,3.9-8.9,6s-5.4,4.7-8.4,6.7c-8.5,5.6-19.1,6.5-29,5-5.3-.8-10.6-2.1-15.7-3.9-4.6-1.6-9.5-3.2-13.5-6-.6-.4-.8-.6-1.5-1.2-.2-.2-.5-.5-.7-.7s-.2-.3-.4-.4c.2.3,0,.1,0-.1-.3-.5-.6-1-.8-1.5-.3-.6,0,.3,0-.3s-.2-.6-.3-.9c-.8-2.6-1.1-5.4-2-8-1.5-4.2-3.9-8-6.8-11.4-.8-1-2.5-.8-3.3,0-1.3.9-1.1,2.3-.3,3.3h-.2,0Z"/>
              </g>
            </g>
            <g id="g64">
              <path id="path58" class="cls-45" d="M136.7,217.2c-1.4,10.3-11.1,17.6-20.9,21-9.8,3.5-20.5,4.5-29.9,9-2.1,1-5.3.7-3.3,1.8,6.4,3.8,13.9.5,15,.4,5-.5,3.1-3,13.3-7.8,8.9-4.1,18.9-6.5,24.1-9.2,15.2-7.8,10.6-6.8,22.4-19.2,25.1-26.5,28.4-62.9,13.7-101.3-1.6-4-3-9.2-7.4-9.5-1.9,1.4-1,3.9-.1,6.1,6.1,15.4,14.6,28.8,6,42.8-2.3,3.7-5.7,8.6-8.5,12-13.8,16.2-19.9,32.9-24,57.6"/>
              <g id="g62">
                <path id="path60" class="cls-45" d="M133.3,216.3c-2.2,12.6-14.9,17.9-26,20.8-6.2,1.6-12.4,2.8-18.4,5-3.2,1.2-9,1.9-10.4,5.5-.4,1.1,0,2.7.9,3.4,5.9,4.8,17.7,4.3,23.8-.2,4.6-3.3,8.7-6.1,14.2-8.2,5.7-2.2,11.7-3.8,17.3-6.3,7.5-3.3,13.6-7.3,18.8-13.6,7.9-9.5,16.2-17.8,21.5-29.1,11.3-24,9.9-51.4,1.8-76.1-1.6-4.9-3.2-11.8-6.9-15.7-3.1-3.3-8.5-4.4-10.5.6-2,5.2,3.2,12.9,5.1,17.4,2.9,6.8,6,14.2,4.9,21.7-1.2,7.9-7.4,15-12.3,21-4.2,5.1-7.9,10.6-11,16.5-6.7,12.8-10.1,26.9-12.5,41-.8,4.4,6,6.3,6.8,1.9,3.6-21.1,9.9-39.9,23.5-56.7,6.5-8,13.1-17,12.7-27.8-.2-5.2-1.7-10.2-3.6-15-1.1-2.7-2.2-5.4-3.4-8.1-.5-1.2-4.5-8.4-3.6-9.4-1.1.3-2.3.6-3.4.9,3.1.5,3.9,4.4,4.9,7,1.4,3.8,2.8,7.7,3.9,11.6,2.2,7.6,3.8,15.4,4.4,23.3,1.1,14.4-.8,29.2-7,42.4-5.5,11.6-14.3,20.8-22.7,30.4-7.1,8.1-18.7,10.9-28.4,14.4-4.1,1.5-8.2,3.1-12,5.2-2.4,1.3-4.2,3.2-6.4,4.7-3.4,2.3-11.8,3.9-15.1,1.2.3,1.1.6,2.3.9,3.4,0-.1.1-.2.1-.3-.8.8-1.6,1.6-2.5,2.5,5.6-1.9,11.2-4,16.9-5.5,6.5-1.7,13.2-3,19.5-5.6,9.8-4.1,18.9-11.6,20.7-22.5,1.1-4.3-5.7-6.2-6.5-1.7h0Z"/>
              </g>
            </g>
            <g id="g72">
              <path id="path66" class="cls-45" d="M19.9,211.5c0,3.7,2.6,5.4,5.1,7.8,2.4,2.3,4.6,5.3,7.8,9.5,3.5,4.6,8,6.6,12.3,10.4,2.4,2.1,3.2,3.7,6.1,5,1.9.8,4.6,2.2,6.4,1.3,1.8-.9,2.3-1.9,1.1-3.5-.6-.8-9-5.3-9.9-5.8-6.4-2.9-8.1-9.5-11.1-15.3-3.4-6.6-7.8-12.2-11.6-15.2-.4-.3-4.1-.1-4.7-.1-1.4,0-.8,4.7-.8,6.1s.9,2.7,1.7,3.9"/>
              <g id="g70">
                <path id="path68" class="cls-45" d="M16.3,211.5c.7,7.3,7.9,12,12.2,17.5,4.7,6.1,11.2,10.3,16.8,15.5,3.9,3.5,12.3,7.6,16.3,2.1,3.2-4.4-1.3-7.8-4.8-9.9-5-2.9-9.7-4.6-12.6-10-3.9-7.3-7.1-14.6-12.9-20.7-2.9-3.1-8-6-12.3-3.2-4.3,2.8-2.1,11.2,0,14.6,2.4,3.8,8.5.3,6.1-3.6-.7-1.1-1.1-1.9-1.2-3.2v-2.5c-.7.3-1.4.7-2.1,1h1.4c.2.1,1.9.2,1.3,0,4.1,2,7.6,9.1,9.7,12.9,4,7.5,6.3,13.9,14.2,18,2,1.1,5.5,4.2,7.6,4.4.7.5.5.1-.5-1.2-.4-1.2-1.2-1.9-2.5-2.1-1-.7-2-1.2-3-2-1.7-1.5-3.2-3.1-5-4.5-4.8-3.7-8.7-7-12.4-11.8-1.2-1.6-2.4-3.1-3.8-4.6-1.7-1.9-5.1-3.9-5.4-6.7-.4-4.5-7.5-4.5-7.1,0h0Z"/>
              </g>
            </g>
            <g id="g78">
              <g id="g76">
                <path id="path74" class="cls-45" d="M3.8,165.9c-1.8,6.3-2.4,15.1.5,21.2,2.4,5.1,11,5.6,11.7-.9.4-3.7-1.1-7.9-1.4-11.6-.3-5.2-.2-10.4.3-15.5.5-5.5,1.5-11,2.7-16.4,1.1-4.8.9-9.9,2.2-14.6,1-3.5-3.4-5.8-5.9-3.4C1.1,136.6.2,155.2,1.8,171.4c.4,4.5,7.5,4.5,7.1,0-1.4-14.3-1.4-31.2,10-41.7-2-1.1-3.9-2.3-5.9-3.4-.8,2.9-.9,5.7-1.2,8.6-.3,3.8-1.4,7.6-2.1,11.3-1.3,6.7-2.1,13.4-2.3,20.2,0,3.3,0,6.6.3,10,0,1.4.2,8.5,1.3,9.1,1.6.9.6-8.5.6-8.7,0-3.1.2-6.1,1.1-9.1,1.1-4.3-5.7-6.2-6.9-1.8h0Z"/>
              </g>
            </g>
            <g id="g84">
              <g id="g82">
                <path id="path80" class="cls-45" d="M65.7,90.2c1.9-2,6.1-1.5,8.4-2.9,2.6-1.5,3.7-4.1,2.6-7-.6-1.6-1.7-2.4-3.4-2.6-5.5-.5-10.9-.7-16.2,1.4-5.4,2.1-10,6-14.4,9.6-5.8,4.7-11.2,9.8-16.3,15.1-2.3,2.4-6.9,5.5-4.3,9.3,4.6,6.6,17.8-4.6,21.9-7.6,3.8-2.8,6.9-6.4,10.8-9,4.3-2.9,9.2-5.6,14.2-7.1,4.3-1.3,2.5-8.1-1.9-6.8-7.6,2.3-15.1,6.6-20.9,11.9-2.8,2.5-5.6,4.9-8.7,7-2.2,1.4-8.7,7.2-11.3,6.4.7.5,1.4,1.1,2.1,1.6,0-.2-.2-.4-.3-.5,0,.9.2,1.8.4,2.7,0,.2,2-1.7,2.6-2.3,1.9-1.9,3.7-3.9,5.6-5.7,3.8-3.7,7.8-7.3,12-10.6,3.6-2.9,7.4-6.1,11.8-7.7,4.2-1.5,8.8-1.1,13.1-.7-1.1-.9-2.3-1.7-3.4-2.6.7-.9.5-1.1-.5-.6-.3.1-.6.2-.9.2-1,.1-2.3.5-3.2.8-1.8.6-3.3,1.3-4.6,2.6-3.3,3.4,1.6,8.4,4.8,5.1h0Z"/>
              </g>
            </g>
            <g id="g92">
              <path id="path86" class="cls-45" d="M146.4,91.3c-1.9-4.4-8.1-8-12.9-9-4.7-1-10.7.6-15.5.4-5-.3-8,0-12.8-1.4-4.4-1.3-9.9-1.6-14,.6,3.9,2.6,13.2,4,19.5,4.5,11.4.7,20.9,2.8,31.7,6.7,1.1.4,1.7.6,1.9-.6"/>
              <g id="g90">
                <path id="path88" class="cls-45" d="M149.5,89.5c-5.1-9.8-16.2-11.5-26-10.6-6.1.6-12.1.2-18-1.3-5.5-1.3-10.7-1.2-15.9,1.1-2.5,1.1-2.1,4.8,0,6.1,8.6,5.2,19.8,4.4,29.4,5.8,6,.8,11.8,2.2,17.6,4,3.4,1.1,8.9,4.2,10.9-.5,1.8-4.1-4.3-7.7-6.1-3.6-.1.3-.2.5-.3.8.7-.5,1.4-1.1,2.1-1.6,1.1-.2-1.3-.8-1.4-.8-1.1-.5-2.2-.8-3.3-1.1-2.4-.8-4.9-1.5-7.3-2.1-4.4-1.1-8.8-1.8-13.3-2.4-8-1-17.6-.3-24.7-4.6v6.1c5-2.2,9.6-.3,14.6.6,4.1.7,8.5.9,12.7.8,8.3-.3,18.4-2.2,23.1,6.9,1.9,4,8,.5,5.9-3.6h0Z"/>
              </g>
            </g>
          </g>
          <g id="g102">
            <path id="path96" class="cls-51" d="M119.8,135.7c-4.7-.2-9.2,2.1-13.5,4.1-7.5,3.5-15.4,6-23.6,7.7-7.9,1.6-16.7,2.8-21.8,9-5,6.1-4.5,15.2-1.8,22.6,1,2.9,2.5,5.8,5,7.4,2.6,1.7,5.9,1.8,9,1.8,19.8-.1,41.2-4.1,54.4-18.8,4.9-5.5,8.4-12.7,7.4-20s-7.9-13.9-15.1-12.8"/>
            <g id="g100">
              <path id="path98" class="cls-51" d="M119.8,132.7c-9.1.2-17.3,6-25.8,8.7-7.8,2.6-16.1,3.3-23.9,5.9-15.1,5-18.9,19.9-13.2,33.9,2.9,7.1,8.1,9.9,15.6,10s15.1-.6,22.5-1.9c14.4-2.7,29-9.1,37.7-21.4,4.7-6.6,7.3-15.4,4.1-23.2-2.8-6.8-9.4-11.7-16.9-11-3.8.3-3.9,6.3,0,6,9.2-.8,13.7,8.8,11.7,16.7-1.9,7.6-8,13.9-14.3,18.1-12.2,8.1-27.4,10.4-41.8,10.8-4.7.1-9.4.4-12.1-4.2-2-3.3-2.9-7.7-3.1-11.5-.4-8.9,4.6-14.3,12.8-16.8,7.2-2.1,14.6-3,21.7-5.3,8-2.5,16.7-8.6,25.1-8.8,3.7,0,3.7-6.1-.1-6h0Z"/>
            </g>
          </g>
          <g id="g110">
            <path id="path104" class="cls-17" d="M234.5,217.7c-14.8,14.1-29.1,29-39.5,46.6-7.1,12-12.3,25-16.7,38.2-3.1,9.2-6,18.5-8.5,27.9-1.8,6.8-3.5,13.7-4.2,20.8-.7,6.5-5.4,27.6-5.3,34.1.3,13.5-1.6,27.7,1.1,41,3.1,15.6-.9,32,2,47.9,8.6,46.6,51.3,79.5,95.1,97.4,58.8,24,126.1,28.8,186.4,9,60.3-19.9,112.7-65.4,136.5-124.3,6.3-15.6,11.2-31.9,13.7-48.5,5.4-36.9,2.4-92.8-16.4-134.3-21.1-46.4-56-83.3-101.5-107-19.2-10-40-18.1-61.6-18.8-16.2-.5-32.1,3.1-47.8,7.1-21.9,5.6-43.5,12.1-64.9,19.4,14.4,7.6,26.9,18.7,36.2,32.1,6.4,9.3,12.8,18.7,24,20.2,9.4,1.3,18.4-5.2,27.8-4.8,5.3.2,11.4-4.9,15-1,17,18,32,23.7,48,31.6,2.9,1.4,5.9,3,7.5,5.8,2.4,4.4,3.2,9.7,3,14.7-.9,18.9,28.5,27.9,33.6,46.2,1.4,4.9-2,10.1-2,15.2,0,9.2,2.1,18.4,4.2,27.4,1.3,5.4,5.4,14.4,5.8,20,.4,6-5,8.3-6.1,14.1-2.6,14.5-2.2,28.9-4.8,43.4-.5,2.7-4,5.4-5.5,7.7-2.6,4-10.2,7.5-13.8,10.5-12.2,10-24.9,17.3-28.4,33-.8,3.7-2.5,8-5.6,10.2s-7.3,1.5-11,.8c-12.1-2.3-26.8-2.8-34.3,6.9-2.5,3.2-4.6,7.7-8.7,7.9-3.3,0-5.7-2.7-7.9-5.1-12.4-13.3-33.2-15.1-50.2-8.6-4,1.5-8.6,3.6-12.3,1.5-2-1.2-3.2-3.4-4.4-5.4-11.8-20-38.8-29.2-57.1-35.9.6-11-7.2-24.1-16.6-29.9,4.6-12.4,3.8-26.6-2-38.4-.8-1.6.3-3.2.6-5,.5-2.8.7-3.1,3-4.8,7.6-5.3,9.3-17.5,7.6-26.6s-1.7-19.5,4.1-26.7c3.7,3.3,8.5-3.7,12.2-7.1,18.9-17.3,26.5-50.9,23-70.9,3.3,8.3,16.2,11.2,23.5,6.1,11.6-8.1,29.2-19.6,36.9-35.7-11.6-3.3-17.9-15.6-23.6-26.3-3.9-7.4-9-15.2-16.5-19.4-8.4-4.7-16.4-.2-24.5,3.5-18.5,8.5-34.3,22.2-49.1,36.3h0Z"/>
            <g id="g108">
              <path id="path106" class="cls-17" d="M231,214.1c-17.2,16.5-33.7,34.1-44.6,55.5-11.1,21.8-19.2,46.6-24.1,70.5-1.7,8.2-2.6,16.5-4.1,24.7-1.4,7.7-2.9,15.3-2.8,23.1,0,12.6-1.2,25.2.9,37.7,2,12.5.7,24.8,1.1,37.3,1.3,41.5,31.8,74.9,65.3,95.8,37.8,23.6,83.4,36,127.7,38.6,44.8,2.6,90.3-5.9,130.4-26.5,35.8-18.4,67.1-46.2,88.7-80.3,23.2-36.6,33.7-79.2,33.2-122.3-.6-42.7-9.9-84.6-32.1-121.4-21.2-35.1-51.8-64-87.9-83.4-21.2-11.4-44.5-20.7-68.9-21-25.4-.3-51,7.9-75.2,15-12.4,3.6-24.7,7.5-36.9,11.7-3.9,1.3-5.2,7-1.2,9.1,11.2,6,21.1,13.9,29.3,23.6,7.4,8.7,12.6,19.9,22.8,25.9,11.2,6.6,21.3,1.9,32.8-.7,2.8-.6,5.6-.4,8.4-.8,2.4-.3,4.5-1.2,6.8-1.8s1.4-.6,3.4,1c1.4,1.1,2.7,2.7,4,3.9,2.5,2.3,5.1,4.5,7.8,6.6,8.8,6.9,18.4,12,28.4,16.8,4,1.9,10.7,3.8,13.2,7.6,3.4,5.3,1.6,11.9,2.8,17.6,3.6,17.5,23.9,23.6,31.7,38.3,2.8,5.3.4,9.3-.4,14.8-1,6.8.4,14.1,1.7,20.7,1.1,5.8,2.5,11.6,4.4,17.2,1.5,4.3,4.9,10.5,3.1,14.9-.8,1.9-2.5,3.5-3.5,5.4-1.2,2.1-1.7,4.3-2.1,6.7-1.3,7.3-1.7,14.7-2.3,22.1-.3,3.8-.6,7.6-1,11.3-.3,2.9-.3,6.6-1.7,9.2-2.6,4.9-7.7,8.3-12.2,11.2-8.8,5.7-18.1,12.7-25.1,20.6-3.2,3.6-5.9,7.6-7.8,12.1s-2,13.6-8,14.3c-4.9.5-10.5-1.7-15.5-2-5.4-.3-11.2,0-16.3,1.7-4.6,1.6-8.7,4.1-11.8,7.9-1.3,1.6-2.3,3.6-3.8,5.1-2.7,2.8-4.8-1.4-6.8-3.4-8.6-8.4-20.5-12.5-32.4-12.7-6.3,0-12.8.9-18.8,2.9-2.9.9-6,2.8-9.1,3.1-3.8.4-5.2-4.6-7-7.2-13.5-19-36.8-27.1-57.8-34.8,1.2,1.6,2.4,3.2,3.7,4.8.3-13.6-7.8-26.9-19.1-34.2.8,1.9,1.5,3.8,2.3,5.6,3.3-9.5,4-19.6,2-29.4-.5-2.4-1.2-4.8-2-7.1-.6-1.6-1.8-3.5-1.8-4.9-.1-4,3.5-5,5.8-8,5-6.3,6.6-14.9,6-22.7-.7-9.9-3.6-19.3,2.9-28.1-2.3.6-4.6,1.2-6.8,1.8,7.9,5.2,15.3-4.7,20.2-9.7,6.5-6.5,11.3-14.5,15-22.9,6.8-15.8,10.2-33.9,7.4-51-3,1.3-6.1,2.6-9.1,3.9,2.8,6.1,9,9.8,15.6,10.8,7.4,1.1,13-1.6,18.9-5.8,13.4-9.4,27.2-19.7,34.7-34.7s.2-6.3-3-7.3c-11.4-3.7-16.3-16.4-21.7-25.9-5.7-10.2-15-22.3-28-21.9-6.7.2-12.8,3.4-18.7,6.2-6.2,2.9-12.1,6.3-17.8,10.1-12.4,8.1-23,17.5-33.2,27.2-4.7,4.4,2.4,11.5,7.1,7.1,9.4-8.9,19.1-17.6,29.8-24.9,5.4-3.7,11.1-7,17-9.8,5.4-2.6,12.6-7,18.8-5.2,10.8,3.2,15.9,17.2,20.9,26,5.3,9.2,12,17.7,22.5,21-1-2.4-2-4.9-3-7.3-5.9,11.8-16.1,20.4-26.7,28-3.9,2.8-8.4,7.2-13.4,7.7-4.8.5-9.7-1.6-11.8-6.1-2.5-5.5-10-1.3-9.1,3.9,2.2,13-.4,26.9-4.8,39.2-2.4,6.6-5.6,13-9.7,18.7-2.1,3-4.6,5.6-7.2,8.1-1.1,1.1-6.1,6.3-6.1,6.3-2.4-1.6-5.3-.3-6.8,1.8-5.8,7.7-6.5,17.6-5.2,26.8,1.1,8.1,2.4,18-4.3,24.3-2.8,2.6-4.6,3.7-5.6,7.5-.5,1.7-1.2,3.9-1.2,5.7s1.5,4.8,2.4,7.1c3.8,10.2,3.6,21,0,31.2-.8,2.1.5,4.5,2.3,5.6,8.3,5.4,14.3,15.5,14.1,25.6-.1,2.3,1.6,4.1,3.7,4.8,19.7,7.2,42.5,14.8,54.1,33.6,2.8,4.5,5.9,8.5,11.7,8.8,6.6.3,12.9-3.7,19.2-5.1,11.4-2.4,24.4-.8,33.6,6.8,3.9,3.2,6.8,8,12,9.3,5.4,1.3,9.7-1.9,12.7-6,3.4-4.6,6.3-7.8,12.1-9.2,5.4-1.3,11.4-.9,16.8,0,5.4.8,11.2,2.6,16.4,0,5.3-2.8,7.6-8.4,9.1-13.9,3.2-11.9,11.8-18.8,21.2-26.2,8.6-6.7,18.2-11.8,24.5-21,3.5-5,3.3-12.7,3.8-18.6.7-7.5,1-15.1,2-22.6.4-3.3.6-6.7,2.3-9.6,1.2-2,2.7-3.7,3.6-5.9,2.2-5.1.8-10.3-.8-15.4-1.7-5.2-3.6-10.3-4.8-15.7-1.8-7.6-4.2-16.3-3-24.2.8-5.6,3.1-10.1,1.3-15.8-1.5-4.7-4.3-8.7-7.5-12.4-5.9-6.7-13.5-11.8-19.6-18.4-2.7-2.9-5.2-6.3-5.9-10.3-1-6,0-11.4-2.5-17.3-4.2-10.2-17.6-13.5-26.7-18.2-5.6-2.9-11.1-6.1-16.2-9.9-3.3-2.4-6.3-5-9.3-7.8-2.6-2.5-5-5.9-8.3-7.3-5.5-2.4-11.5,1.2-17.1,1.6-7,.4-13.1,3.4-19.8,4.6-15.4,2.8-22.8-13.8-30.7-23.8-9.1-11.4-20.5-20.8-33.3-27.7-.4,3-.8,6.1-1.2,9.1,23.5-8,47.3-15.2,71.5-21.1,12.4-3,25.1-5.5,37.9-5.3,11.6.2,23.1,2.6,34.1,6.4,38.2,13,72.7,38.4,97.9,69.7,25.8,32.2,40.7,70.4,45.2,111.3,4.6,41.3.6,82.6-16.6,120.7-33.4,74.2-109.6,121-189.5,126.6-44.7,3.1-90.9-5-131.7-23.5-33.4-15.1-67.3-39.7-80.4-75.4-3.7-10-5.3-20.1-5.2-30.8.1-5.9.4-11.7.4-17.6-.1-6.1-1.1-11.9-1.9-18-1.7-11.8-.4-23.9-.4-35.7s1.7-14.1,3-21c1.5-8,2.3-16.2,4-24.1,2.6-12,6.2-23.8,10.1-35.4,7.4-22.1,17.2-42.5,32.4-60.4,7.2-8.4,15.1-16.3,23.1-24,4.4-4.3-2.7-11.3-7.3-6.9v-.1h0Z"/>
            </g>
          </g>
        </g>
        <g id="membrane" class="cls-35">
          <path id="path113" class="cls-5" d="M256.1,189.8c-50.5,30.1-75.3,75.3-92.1,129.8-15.8,51.5-13,116.1-7.6,159.1,1.6,13.3,12.2,31.6,19.6,42.9,11.5,17.6,29.1,28.4,47.5,38.6,33.5,18.7,70.8,32.1,108.6,38.2,22.2,3.6,44.8.2,67.1-2.3,81.9-9.4,109.8-32.1,128.7-50.6,65.7-63.9,85.2-134.3,74.4-210.7-8.5-60.2-47.1-117.8-94.4-156-23.3-18.8-49.9-30.2-79.5-35.1-21.5-3.6-43.5-1-64.8,3.5-39.5,8.4-106.5,42-107.5,42.6h0Z"/>
        </g>
        <g id="nuclei" class="cls-35">
          <g id="g120">
            <g id="g118">
              <path id="path116" class="cls-25" d="M411.8,571.1c10,3.5,21.7,2.3,30.7-3.2,5-3,9.6-7.4,11.1-13.3,1.6-6.3-.8-13.4-5.5-17.8-9.3-8.9-22.9-5.7-32.7.4-5.3,3.3-9.7,7.7-10.8,14.1-1.2,7,1.8,12.7,7.5,16.8,5.1,3.6,12.8.9,15.7-4.1,3.4-5.8,1-12.1-4.1-15.7-.3-.2-.7-.5-1-.7,1.4,1.4,2.8,2.8,4.1,4.1,1.9,2.7-3.2,6.6.8,5.1,1.4-.5,2.8-1.6,4.2-2.2.4-.2,2-.5,1.8-.2-1.1,1.8-4.4-7.9-1.4-7.1-.1,0-2.2,1.5-2.6,1.7-1.3.6-2.9,1.1-4.4,1.3-2.5.3-4.8-.3-7.3-1.2-5.9-2-12.6,2.3-14.1,8-1.7,6.2,2.1,11.9,8,14h0Z"/>
            </g>
          </g>
          <g id="g126">
            <g id="g124">
              <path id="path122" class="cls-25" d="M485.6,520.1c.8,6.4,3.3,11.9,9,15.4,5,3.1,11.1,3.8,16.7,2.1,12.9-4,20.7-19,13.1-31-5.7-9.1-17.1-13.3-27.4-10.5-13.3,3.6-18.4,18.6-10.6,29.8,3.5,5.1,10.1,7.4,15.7,4.1,5.1-3,7.7-10.6,4.1-15.7-1.6-2.3-.4.8-2.3,3.4-.8,1.1-2,.4-.3.4-1.3,0-1.2,0,.2,0-1.2-.3-1.2-.2.2,0,1.3.4,1.4.4.3,0,1,.7,1.2.8.6.3-.6-.4-.4-.3.4.6l-.6-.6c-.6-1.6-.5-2.8.5-3.6-1,.9-1.2,1.2-.7.7s.4-.3.7-.3c-1.4.4-1.6.5-.6,0,1.4,0,2.4.3,3.1,1.2.7,1,1,2.1,1,3.3-.8-6.2-4.7-11.5-11.5-11.5-5.7,0-12.4,5.3-11.6,11.5h0v.4h0Z"/>
            </g>
          </g>
          <g id="g132">
            <g id="g130">
              <path id="path128" class="cls-25" d="M319.3,573.9c10.5,5.5,24,5.8,32.9-3.1,8.9-9,8.8-22.6.5-31.9-4.5-4.9-10.5-8.2-17.3-6.2-4.8,1.4-9.8,5.4-13.6,8.5-10,8.2-10.4,23.4.7,30.7,5.2,3.4,12.7,1,15.7-4.1,3.3-5.6,1.1-12.3-4.1-15.7,3.7,2.4,2.5,3,2.9,5.4.3,1.4-.7,1.1.4.5-.1,0,2-1.2,2.6-1.6.6-.4,5-2.6,2.5-1.8h-6.1c-2.2-1.7-2.7-2-1.5-1l1.5,1.5c-.1,0-.1-.3-.2-.4-.8-.5,1.2-3-.2-.3.8-1.4-1,1-.2.3,1-1-.9.3-1.4.3-1,0-2.1-.3-3.4-1-5.5-2.9-12.5-1.4-15.7,4.1-3.2,5.2-1.6,12.9,4,15.8h0Z"/>
            </g>
          </g>
          <g id="g138">
            <g id="g136">
              <path id="path134" class="cls-25" d="M241.9,544.8c8.5,7.9,21.2,11.1,31,3.4,9-7.1,10.3-20.9,3.9-30.3-3.1-4.6-7.4-8.2-12.8-9.9-5.9-1.9-11.9,0-17,3.2-10.3,6.2-16.1,19.2-9.3,30.2,7.8,12.5,27.7,1,19.9-11.6,1,1.6-1.1,2.3,1,1.3.8-.5,1.6-.9,2.4-1.2-1.2.7-2.5.7-4,0-.6-.6-.4-.5.6.5-.267-.333-.267-.267,0,.2.1.2.1,1.7.2.7.2-1,.1-.7-.2.7,0-.6.2-1,.8-1.3-.4.2,2.5-2,2.3-.8-.2.9-2.7-1.6-2.5-1.4-10.9-10-27.2,6.2-16.3,16.3h0Z"/>
            </g>
          </g>
          <g id="g144">
            <g id="g142">
              <path id="path140" class="cls-25" d="M202.9,499.1c8.3-5.6,14.1-14.2,14.4-24.5.2-9.7-4.7-21.3-14-25.4-10.6-4.7-20.9,3.6-23.6,13.7-2.4,8.9,0,19.4,3.3,27.8,2.3,5.8,7.7,9.8,14.1,8,5.5-1.5,10.3-8.3,8-14.1-1.3-3.3-2.5-6.8-3.1-10.4-.3-1.8-.4-3.8-.2-5.6-.1.9.1.7.3-.7-.2,1.9-1.8,2.2-4.7,1.1-7.9,1.1-2.6.7-3.2,5.7-.2,1.9-1.4,3.6-3,4.6-5.2,3.4-7.4,10.1-4.1,15.7,3,5.1,10.6,7.6,15.8,4.1h0Z"/>
            </g>
          </g>
          <g id="g150">
            <g id="g148">
              <path id="path146" class="cls-25" d="M172.9,421.4c9.6,3.1,20.4,2.1,29.2-2.9,10.8-6.1,14.3-20,3.4-28-7.5-5.6-20.2-6.5-29.2-4.6-5.3,1.1-9.7,4.6-11.8,9.6-2.4,5.8-.9,11.4,1.5,16.9,2.5,5.7,10.8,7,15.7,4.1,5.9-3.4,6.6-10,4.1-15.7.7,1.7-2.1,8.4-4.6,7.5,1.4.6,4.1,0,5.6,0s3,.7,3.8.4c1.4-.5.8.6.1-.8-.5-1.9-1-3.9-1.6-5.8,3.3-4.1,4-5.4,1.9-4-.7.4-1.4.8-2.1,1.2-.9.4-2.5.7-3.4.8-2.4.3-4.4-.3-6.7-1-13.9-4.3-19.9,17.9-5.9,22.3h0Z"/>
            </g>
          </g>
          <g id="g156">
            <g id="g154">
              <path id="path152" class="cls-25" d="M181.1,353.9c6.2,6.7,16.6,13.4,25.5,7.7,7.2-4.6,11.3-15.5,9.2-23.8-1.4-5.5-5.2-9.4-10.5-11.4-2.8-1.1-6.1-1.4-9.1-1.9-6.2-1-11.9.4-15.8,5.5-2.6,3.4-3.8,8-3.4,12.2.7,6,4.8,11.8,11.5,11.5,5.6-.3,12.2-5.1,11.5-11.5-.1-.5-.1-1.1-.1-1.6-.3,1.7-.4,1.9-.1.7-1.6,4.1-4.5,5.9-8.8,5.5.7.1,1.4.3,2.1.4,1.4.2,2.8.7,4.1.8,2.6.8,1.5-.2-3.1-2.9-.7-3.7-1-4.6-.9-2.5.3-1.5.2-1.7,0-.3-.2.6-.3,1.2-.5,1.7.6-1.4.7-1.5.1-.4.9-1.3,2.2-2.2,3.9-2.6,5.4,1.1,6.8,1.1,4.3-.2-1.1-.8-1.2-.8-.4-.1-1.2-.9-2.2-2-3.2-3.1-4.1-4.4-12.2-4.4-16.3,0-4.3,4.8-4.3,11.5,0,16.3h0Z"/>
            </g>
          </g>
          <g id="g162">
            <g id="g160">
              <path id="path158" class="cls-25" d="M213.2,281c4.6,6.8,11.7,10.5,19.9,9.7,9-.8,16-6.8,21.1-13.9,5.8-8,4.3-15.7.6-24.1-3.4-7.7-7.7-16.2-17-17.5-8.5-1.1-17.3,5.4-22.8,11.4-6.2,6.8-8.7,14.9-6.8,23.9,1.8,8.6,7,17.8,17.2,16.5,9.7-1.2,13.8-11.5,18.2-18.9,7.5-12.8-12.3-24.4-19.9-11.6-1.2,2-2.4,4-3.5,6-.5.9-1,1.7-1.5,2.6-1.9,2.6-1.1,2.5,2.2-.4h6.1c-.4-.1-.7-.1-1.1-.2,1.7,1,3.4,2,5.1,3,.6.5.5,1.9.4.3-.1-.8-.7-1.7-.8-2.5-.1-1.5.1-1.6.2-1.7,1.1-2,3.7-3.4,5.4-4.8.5-.3,1-.6,1.5-.9-2.4-.7-4.8-1.5-7.3-2.2-.2.4,1.7,3,1.9,3.4,1,1.8,1.7,3.9,2.7,5.7,2,3.5-.4-1.8.9-1.8,0,0-1.2,1.8-1.4,1.9-1,1.2-2.1,2.2-3.3,3,.9-.7-.4.8-.8.1-.3-.6,3.5,3,2.5,1.5-3.5-5.1-10.1-7.4-15.7-4.1-5,2.8-7.5,10.4-4,15.6h0Z"/>
            </g>
          </g>
          <g id="g168">
            <g id="g166">
              <path id="path164" class="cls-25" d="M291.4,208.6c2.8-.8-.3-.5,1.2-.2.7.1,1,.6,2.1.9,1.1.2-.2.1-.3-.9-.1-2,.3-4.2,2.2-5.4,1.1-.7,1.7-.2,2.7-.6,1,.5.9.3-.3-.3.2.1.4.2.5.3-1.2-1.1-.4-.1-1.2-1.6-.8-1.7-1.1-2-1.6-3.3-2.3-5.7-7.7-9.8-14.1-8-5.5,1.5-10.4,8.4-8,14.1,3.2,7.8,6.8,15.5,14.8,19.5s17.5,2.6,23.4-4c6.8-7.6,5.2-19.2-1.7-26-6.6-6.5-16.9-9.2-25.8-6.6-6,1.7-9.7,8.1-8,14.1,1.6,5.9,8.1,9.8,14.1,8h0Z"/>
            </g>
          </g>
          <g id="g174">
            <g id="g172">
              <path id="path170" class="cls-25" d="M360.6,196.2c10.9,4.9,23.3,3.1,30.5-7.1,6.3-8.9,6.1-24.3-4.6-30-10.3-5.4-22.6.5-30.4,7.7-4,3.7-7,8.7-6.9,14.3.1,6.9,4.8,13.2,11.6,14.8,6,1.4,12.5-1.9,14.1-8,1.6-5.8-2-12.7-8-14.1.2.1.5.1.7.2,1.4,1.4,2.8,2.8,4.1,4.1,1.1,2.8.9,4.9-.8,6.4.3-.3.6-.6.8-.9-2.4,1.2,4.6-3.2,2.4-1.9,4.3-2.7,5.5-.3-1.3-4.9-.2-.1-.6-1.5-.5-1.4.8.3-1.5,1.6-.3.8.5-.4.8,0-.2,0-1.4-.1,0,.1.3.3-5.7-2.5-12.4-1.6-15.7,4.1-2.8,4.8-1.5,13.1,4.2,15.6h0Z"/>
            </g>
          </g>
          <g id="g180">
            <g id="g178">
              <path id="path176" class="cls-25" d="M435,200.9c2.7,6.2,6.3,11.9,12.1,15.6,6.4,4,14.5,4.5,21.1.9,12.3-6.6,18.1-23.3,10.1-35.4-8.2-12.4-24.9-11.6-36.8-5.4-7.4,3.8-10.4,12.7-6.1,20.1,3.6,6.2,11.5,9.4,17.9,11.9,5.8,2.3,12.6-2.5,14.1-8,1.8-6.6-2.3-11.8-8-14.1-2.1-.8-4.6-2.2-5.9-3.7,1,1.7,2,3.4,3,5.1,0,1-.1,2-.1,3.1-1,1.7-2,3.4-3,5.1-2,1.2-1.9,1.3.1.4,1-.4,2.1-.7,3.2-1,1.2-.3,1.9-.2,3.1-.3-1.7.3.8-1.2-.8-.1.4-.3-2.1,3.5-1.6,2.2-.1.3,1.7.2,1.4-.5-1.3-2.5-2.7-4.9-3.9-7.5-2.5-5.7-10.8-7-15.7-4.1-5.9,3.4-6.7,10-4.2,15.7h0Z"/>
            </g>
          </g>
          <g id="g186">
            <g id="g184">
              <path id="path182" class="cls-25" d="M528.6,264.7c-.3,2-2.5,2-.3,1.1-.5.2,1.5-.8,1.2-.6,1-.5,2.4-.8,3.4-.9,3.6-.4,1.6,1,1-.9.5,1.3.8,2,.9,3.4,0,1.1-.9,1.6-2.5,2.2-.4.1-2.5.4-2.6.7-.3.6,1.5-.3,1.6.3,0,.6-.8-1.1-.8-1.1-.5-4.7-2.6,5.7-.8,3.2-1.4,1.4-2.8,2.8-4.1,4.1,2.4-1.8-2.1-.2-.2-.2s-6.6,1.5-3.9-7c-1.9,5.9,2.2,12.6,8,14.1,6.2,1.7,12.2-2.1,14.1-8,7.2-22.3-31.1-31.4-36.1-9.4-2.1,8.9,4.1,18.4,11.1,23.3,7.6,5.4,17.2,3.9,25.1-.1,15.5-7.6,19.2-29.7,6.4-41.8-6.7-6.3-16.8-7.2-25.3-4.7-7.3,2.1-17,7.8-18.3,16.1-1,6.1,1.6,12.4,8,14.1,5.4,1.6,13.1-1.8,14.1-7.9h0Z"/>
            </g>
          </g>
          <g id="g192">
            <g id="g190">
              <path id="path188" class="cls-25" d="M540.2,360.5c10.2,7,24.8,6.9,34.9-.4,11.9-8.7,16.2-28.1,2-37.3-12.4-7.9-24.8-1.3-35.1,6.4-6.6,4.8-12.3,10.5-10.3,19.5.7,3.1,2.4,6.2,4.7,8.5s2.9,2.4,4.5,3.2c1,.5,6.2,3.2,2.6.3,4.9,3.9,11.5,4.7,16.3,0,4-4,4.9-12.4,0-16.3-1.6-1.2-6.5-5.5-8.7-4.7,2.3,1,2.8,2.9,1.3,5.7-1.4,4.5-1.1,5.7,1.1,3.6.9-.5,1.8-1.4,2.7-2,2.1-1.6,4.4-3.7,6.9-4.6,0,0,2.2-.4,1.1-.2,1.4-.3,1,.5.8.1,0,0-3.2-2.5-1.8-2.5s-3.3,2.5-3.3,2.5c-2.5,1-5.3.3-8.2-1.7-5.1-3.5-12.8-1-15.7,4.1-3.3,5.8-1,12.3,4.2,15.8h0Z"/>
            </g>
          </g>
          <g id="g198">
            <g id="g196">
              <path id="path194" class="cls-25" d="M533.8,443.1c6.5,8,15.9,18.2,27.4,15.6,10.2-2.4,18.2-15.1,17.6-25.2-.7-12.4-12.1-18.6-23.4-19-12.8-.4-24,7.8-24.7,21-.3,6.2,5.5,11.5,11.5,11.5s11.2-5.3,11.5-11.5c0,1.6-.9,1.3,0,2,.3.3,2.8,0,3.5,0-1.1-.2,1,.9.8.4,0,.2-2.8-3.5-2.1-3.4,0,0-1.5,2.2-1.6,2.4,0,.2.3-.4.2-.3h6.1c-4.2-.8-7.8-6.5-10.4-9.7-3.9-4.8-12.2-4.1-16.3,0-4.7,4.6-3.9,11.2,0,16.1h0l-.1.1Z"/>
            </g>
          </g>
          <g id="g204">
            <g id="g202">
              <path id="path200" class="cls-25" d="M154.2,216.5c6-5.7,11.3-12.3,15.2-19.6s9.7-18,3.1-25.4c-3.2-3.6-8-4.8-12.6-3.3-5.2,1.7-8.2,6.6-11,11-4.9,7.8-8.7,16.3-11.6,25.1-4,12.2,15.3,17.5,19.3,5.3,1.5-4.6,3.3-9,5.5-13.3,1.9-3.7,4.1-8.8,7.4-11.4-1.5.9-2.9,1.7-4.4,2.6.4-.1.8-.3,1.2-.4h-5.3c.4.1.7.2,1.1.3-1.5-.9-2.9-1.7-4.4-2.6.2.3.4.5.6.8-.9-1.5-1.7-2.9-2.6-4.4-.7-3.6-.3-1.8-1,0-.4.9-.8,1.8-1.2,2.8-1.1,2.4-2.4,4.7-3.9,7-2.7,4.3-6,8-9.7,11.5-9.2,8.7,5,22.8,14.3,14h0Z"/>
            </g>
          </g>
        </g>
        <g id="sketch" class="cls-35">
          <g id="g293">
            <path id="path207" class="cls-60" d="M167.3,149c-.1-.6,0-1.1.5-1.5,1.2-.4,1.8-1.2,2-2.4.8-5.6,1.1-11.1-.7-16.5-.8-2.6-1.6-5.2-3.2-7.4-2.9-4.2-3.7-9.3-5.3-14-.9-2.5.1-4.8.8-7.1.4-1.4,1.7-1.3,2.8-1,2,.9,4.2,1.5,6,2.9,4,6.3,6.4,13.3,8.9,20.2.5,1.2.9,2.5.5,3.8-.8.7-.8,1.6-.4,2.3,2,3.7,2.7,7.8,2.9,11.9.9,5.6,2,11.3,1.9,17,0,3.3,0,6.7-.7,9.9-1.4,6-2.6,12.1-5.5,17.7-1.2,2.3-1.9,4.8-2.9,7.2-1.7,4-3.8,7.8-6.2,11.4-1.1,1.3-1.8,2.9-3,4.2-3.6,6.6-8.8,11.8-14.2,16.8-3.5,3.3-7.1,6.6-11.5,8.4-4.3,1.7-8.5,3.8-12.8,5.4-3.1,1.1-6.2,2.1-9.4,2.9-.3.3-.7.6-1,.9-2,1.7-4.3,2.8-6.2,4.5-2.8,1.4-5.4,3.3-8.1,4.9-4.9,2.7-10,3.9-15.5,2.1-.5-.2-.9-.4-1.4-.6-1.3,0-2.3-.9-3.6-1-1.4-.1-2.1-1.8-2.3-3.2-.2-1.3.5-2.1,1.9-2.7,1.7-.7,3.6-.7,5.1-1.6,2.1-.5,3.5-2.1,5.3-3,5.4-2.8,11.1-4.5,17.2-4.9.6,0,1.3-.4,1.9-.5,1.5-.5,3.4.1,4.5-1.7,3.4-1.3,6.1-3.4,8.5-6,.3-.4.7-.7,1.3-.8,2.3-.5,3.8-2.2,5.3-3.8,3-.2,3.2-2.4,3.4-4.6,1.1-2.2,1.4-4.7,2.4-7,.9-2.1,1.7-4.2,1.6-6.6-.2-3.1,1.6-5.5,2.5-8.3,1-3.1,1.9-6.2,3-9.2.9-2.4,1.5-5,3.2-7.1.4-.4.9-.8,1.1-1.2,1.9-6.2,7.3-10.1,10.6-15.4,3-5,6.1-10,8.8-15.3h0Z"/>
            <path id="path209" class="cls-49" d="M51.1,99.5c-1.2.5-2.5.9-3.7,1.4-3.9,3.6-7.6,7.3-11.7,10.6-3.1,2-6.4,3.1-10.2,2.7-3.3-.3-4-1.5-2.9-4.6,1.2-3.5,4-5.6,6.6-7.8,6.8-5.7,13.3-11.7,19.8-17.7,2.6-2.5,5.6-4.6,9.2-5.7,4.6-1.6,9.4-1.4,14.1-.9,1.7.1,3.4.1,4.4,1.8,1.2,4.2-2.1,5.7-4.6,7.6-3.1,2.3-6.9,3-10.3,4.6-.8.4-1.6.6-1.7,1.6-1.3.8-2.3,2.3-4.1,2.4-2.3.4-3.5,2.3-4.9,4h0Z"/>
            <path id="path211" class="cls-49" d="M135.9,93.2c-1.8-.3-3.7.5-5.4-.6-4.3-2.6-9.3-2.8-14.1-3.5-5.7-.8-11.6-1.6-17.4-1.3-4.1.1-7.4-1.4-9.9-4.6-1.5-1.9-1.1-3.5,1-4.8s4.5-1.2,6.8-1.3c1.8-.1,3.6.1,5.3-.2,4.3.8,8.5,1.4,12.8,2,5.8.8,11.7.4,17.5-.1h0c3.5.2,6.9.6,9.8,2.8,2.5,2.2,5.6,3.9,7.1,7.3,1.1,2.5,1,4.4-1.5,5.8-2.4,1.4-4.8,1-7.3.1-1.6-.7-2.9-2.1-4.7-1.6h0Z"/>
            <path id="path213" class="cls-57" d="M26.1,223.9c-4-1.4-6.8-4.1-8.8-7.8-1.8-3.3-1.5-6.9,0-9.9.6-1.3,1.8-2.8,2.6-4.2.5-.8,1.3-1,2.2-1.1,6-.8,10.2,1.8,12.7,7.2,1.6,3.6,3.8,6.8,6.6,9.6,1.4,1.5,2.3,3.3,2.7,5.1s1.1,3.3,1.9,4.9c0,.4,0,.8-.2,1.2-1.3.9-2.5.4-3-.9-2.7-7.6-8.8-13.2-12.3-20.4-1.2-2.5-4.6-4-7.1-3.4-1.6.4-4,4-3.9,6.1.2,3.8.8,7.3,5.2,8.6,1.7.5,3.4,1.8,2.8,4.2-.3.7-.9.8-1.4.8h0Z"/>
            <path id="path215" class="cls-20" d="M168,203.1c2.5-4.2,5-8.3,6.9-12.8,3-7,5.7-14.1,7.4-21.4,1-4.3,1.2-8.9.9-13.4-.2-5.2-1.3-10.4-2-15.6.7-1.2,1.1-.6,1.6.2,1.6,3.2.7,6.8,1.5,10.1,1.1,5.2.6,10.5.1,15.7-.5,4.5-1.8,8.9-3.4,13.2-2.6,7-5.6,13.9-8.9,20.6-.6,1.2-1.5,2.3-2.3,3.5-.7.2-1.3.6-1.8-.1Z"/>
            <path id="path217" class="cls-47" d="M18.6,123.2c2.4.8,3.3,2.3,2.6,4.6-2.2,7.5-3,15.3-4.3,23-.7,4.1-1.7,8.2-.9,12.5.2,1.1.8,3.4-1.1,3.4s-1-2.2-1.1-3.4c-.5-7.1,1.2-13.9,2.3-20.8.6-3.8.7-7.7,2.7-11.3,1.2-2.2,1.3-5.3-.2-8h0Z"/>
            <path id="path219" class="cls-43" d="M11.9,190.6c-4.6.5-8.4-2.4-8.6-6.8-.2-5-.8-10-1.3-15.1-.7-7.4-1.8-14.8-.6-22.3.9-.2.7-2.2,2.2-1.5-1.2,3.6-.4,7.3-.9,11-.5,3.3,1.2,6.5,1.2,9.9,0,5.9,1.3,11.8,1.3,17.7s2.4,5.6,6.9,6.4c.2.3,0,.5-.2.7h0Z"/>
            <path id="path221" class="cls-42" d="M58.5,78.7c-6.2,2.5-10.5,7.4-15.3,11.8-5.4,5-11.1,9.7-16.7,14.5-1.7,1.4-2.9,3.2-3.6,5.3s0,3.2,2.3,3.4c3.1.2,6-.2,8.5-2,.5-.4,1-.9,1.7-.6,0,.9-.9,1.3-1.4,1.7-3.3,2.7-7.1,2.1-10.7,1.4-2.4-.5-2.2-2.4-1.5-4.4,1.4-4,4.6-6.4,7.6-9,4.6-4,9-8.3,13.7-12.2,4.9-4.1,9.1-9.3,15.8-10.8.2.3,0,.6-.4.9h0Z"/>
            <path id="path223" class="cls-32" d="M102.4,77.2c-1.9,1-3.9.4-5.8.5-1.6.1-3.2,0-4.7.6-3.3,1.3-3.6,3.3-1.1,5.9,2.7,2.7,6.1,2.6,9.4,2.8,8.7.5,17.3,1.3,25.8,3.2,1.5.3,3,1,4.5,1.5.9.3.4.6,0,.9-3.9-1.1-7.9-1.9-12-2.5-6.6-1.1-13.1-1.8-19.8-1.5-4.6.2-8.3-2.2-10.9-5.9-2-2.8,1.4-5.7,4.5-6,3.4-.4,6.9-.7,10.3-.2.1.3.1.5-.2.7Z"/>
            <path id="path225" class="cls-53" d="M26.1,223.9c.3-.3.7-.5,1-.8,1.5-.9,2.4-.1,3.2,1.1,3.5,5.5,8.5,9.7,12.5,14.7,2.5,3.2,6.3,5,10.1,6.4,3.4,1.3,5.4.5,7.3-2.5.8-.6,1.6-1,2.5-.3,2,3.9-.2,4.4-3.5,5.8-1.5.7-3.4.6-5,.1-6.8-2.2-13-5.4-17.3-11.5-1.3-1.9-3.1-3.4-4.8-5-2.3-2.2-4.1-5.1-6-8h0Z"/>
            <path id="path227" class="cls-8" d="M126.6,237.8c3.6-1.6,7.2-3.4,10.9-4.8,7.1-2.7,12.2-8.1,17.4-13.3,3.8-3.8,7.4-7.7,9.9-12.4.7-.2,1.2,0,1.4.7-4.3,7.7-10.5,13.7-16.9,19.5-4,3.6-8.7,6.2-13.8,7.9-3.1,1-5.7,3-8.9,3.7-.8-.4-.6-.8,0-1.3h0Z"/>
            <path id="path229" class="cls-28" d="M163.5,99.2c-2.2,1.7-3.2,4.8-2.3,7.7,1.7,5.1,3.4,10.2,5.9,15,3.6,6.7,5.8,14.1,3.4,22-.1.4-.1.9-.1,1.4.2,2-.7,2.7-2.6,2.1,2.5-3.2,1.8-7.1,1.7-10.6-.1-6.5-2.3-12.6-5.6-18.3-2.6-4.4-3.7-9.4-4.1-14.4-.2-1.9.9-3.8,1.7-5.6.6-1.5,1.5-.3,2.3-.1.1.2.1.3,0,.5-.2.3-.3.4-.3.3h0Z"/>
            <path id="path231" class="cls-73" d="M137,212.8c-.5,2.2-1.1,4.4-1.6,6.7-2,1.2-1.8,4.1-4,5.1-1.5,1.6-3.1,3-5.3,4-1.8.9-3,3.1-4.9,4.1-1.6.9-3.1,2.1-5.1,2.2-1.8.7-1.9.6-2-.8,3.3-1.5,6.4-3.4,8.9-6.1.3-.3.7-.7,1.1-.9,6.1-2.4,8.3-8.1,11.3-13.1.1-1,0-2.4,1.6-1.2h0Z"/>
            <path id="path233" class="cls-18" d="M167.3,149c.2,2.7-1.4,4.7-2.6,6.8-2.6,4.6-5.4,9.1-8.6,13.3-1.1,1.4-2.1,2.8-3.3,4.1-1.7,1.8-3.7,3.5-4,6.2-.1.8-.7,1.5-1.5,1.9-1.3-.5-.1-1.2-.2-1.8,2.3-6.3,7.3-10.9,11.1-16.1,2.4-3.2,3.5-7,5.9-10.1,1.1-1.4,1.8-3.1,3.2-4.3h0Z"/>
            <path id="path235" class="cls-71" d="M147,179.6c.1.6.1,1.2.2,1.8-2.3,4.7-4,9.6-5.4,14.5-1,3.4-2.9,6.6-2.7,10.2.2,2.6-.9,4.6-2.1,6.7-.8,0-1.3.5-1.6,1.1,1.6-6,2-12.2,4.8-18,1.9-3.8,2.9-8.1,4.3-12.1.5-1.5,1.1-3.2,2.5-4.2h0Z"/>
            <path id="path237" class="cls-29" d="M178.8,125.8c.5-1.2,0-2.3-.4-3.5-2.3-6.8-5.9-12.9-8.5-19.6.4-.4.8-.3,1.3-.1,3.6,3,4.7,7.4,6.1,11.6,1,3.2,2.1,6.3,3.1,9.5.3,1.1,1,2.4-.5,3.2-.9.2-1.4,0-1.1-1.1h0Z"/>
            <path id="path239" class="cls-66" d="M135.9,93.2c.3-2,1.5-.8,2.2-.4,1.8.9,3.6,2,5.7,2.1,2,.1,3.7-.6,4.9-2.2.3-.3,2.3-2-.6-1.8-1.2.1-.6-1.1-.5-1.8.4-1.9-1-4.1-1.8-3.9-3.3.8-2.4-2.3-3.7-3.3-.1-.3,0-.5.3-.6,3.2,1.4,5.3,4,7.3,6.7,1.1,1.4,1.8,3,.8,4.8-1.1,2.1-2.9,3.1-5.1,3.3-3.4,0-6.4-1.5-9.5-2.9h0Z"/>
            <path id="path241" class="cls-7" d="M60.1,93c-.5-.1-.9-.1-1.7-.2,1.6-1.7,3.6-2.5,5.5-3.1,3-.9,5.9-2.1,8.2-4.1,1.8-1.5,3.9-3.2,4-6.1.3-.5.3-1.3,1.1-1.3,1.1,1.9.4,4,.3,6,0,.7-.6,1-1.2,1.3-5.3,2.8-10.7,5.3-16.2,7.5h0Z"/>
            <path id="path243" class="cls-75" d="M102.4,77.2c.1-.2.2-.5.2-.7,4,.7,8.1.5,12.2,1.7,4.6,1.3,9.8.5,14.7.3,1,0,2-.4,3,.3-.3.8-.9.8-1.6.9-8.9.7-17.8,0-26.6-1.3-.7-.3-1.3-.9-1.9-1.2h0Z"/>
            <path id="path245" class="cls-22" d="M111.2,236.6c-5.1.4-10,1.9-14.9,3.4-3.3,1-6.2,3.2-9.3,4.9-.8.1-1.2-.2-.8-1,3.1-.5,5.1-3.2,8-4.3,4.5-1.6,8.9-3.3,13.6-3.6,1.9-.1,3.5-1.1,5.4-1.3.3,1.6-1,1.6-2,1.9h0Z"/>
            <path id="path247" class="cls-67" d="M3.6,145c-.8.4-1.1,1.5-2.2,1.5.8-4.5,2.8-8.6,5.2-12.4,0-.6.2-1.4.8-1.5.7-.2,1,.5,1.3,1.1-2.6,3.3-2.8,7.7-5.1,11.3h0Z"/>
            <path id="path249" class="cls-54" d="M45.4,228.9c.2-.4.3-.7.5-1.1,3.7,4.3,8.3,7.5,13.5,9.8,1,.4,2.3.6,2.2,2.2,0,.5,0,.9-.5,1.2-3.6.1-5.9-2.6-8.7-4.1-1.8-1-3.4-2.3-5.2-3.4-1.5-1-2.9-2.4-1.8-4.6h0Z"/>
            <path id="path251" class="cls-14" d="M86.2,243.8c.3.3.6.7.8,1-1.3.9-1.9,2.5-3.5,3.1-.4-1.2,1.3-1.2.9-2.3-1.4-.1-2,1.4-3.3,1.6-.6.1-.7,1-.4,1.1,1.6.5,0,2.8,1.7,2.9,1.4,0,2.2.8,3.2,1.5-1.4.3-2.8-.3-4-.7-1.4-.5-3.4-1.5-3.1-3.1.3-1.7,1-3.8,3.6-3.9,1.3,0,2.7-.7,4.1-1.2h0Z"/>
            <path id="path253" class="cls-87" d="M178.8,125.8c.3.4.7.8,1.1,1.2,0,2.6,1.6,4.4,2.6,6.6.7,1.5,2.7,2.9.2,4.6-.3.2.1,1.2.1,1.9-.5-.2-1-.4-1.6-.2-.8-4.1-.8-8.5-3.1-12.3-.3-.7-.8-1.7.7-1.8Z"/>
            <path id="path255" class="cls-65" d="M11.9,190.6c0-.3.2-.5.3-.8,2.9-1,2-3.3,1.8-5.3-.2-1.7-.6-3.3-.3-5h0c3.3,1.8,2.6,5,2.5,7.8,0,2.9-1.3,3.6-4.3,3.3Z"/>
            <path id="path257" class="cls-73" d="M102,250.1c2.6-1.6,5.2-3.3,8.1-4.1.3,0,.5.1.6.4-.5,1.5-1.9,2.2-2.8,3.4-2.9,1.1-5.4,3.2-8.6,3.6-.3-2.2,2.3-1.8,2.7-3.3h0Z"/>
            <path id="path259" class="cls-87" d="M34,112.7c.3-.7.8-1.3,1.4-1.7,3.7-3.7,7.4-7.3,11.9-10.1-3.9,4.5-7.7,9.1-13.3,11.8Z"/>
            <path id="path261" class="cls-71" d="M8.7,133.6c-.9-.7-1.6-.6-2.1.4,1.2-5.7,4.4-8.8,9.7-9-3.7,1.9-7.7,3.5-7.6,8.6Z"/>
            <path id="path263" class="cls-77" d="M102,250.1c-.4,1.5-2.1,1.9-2.7,3.3-4.1,1.9-8.2,2.6-12.4.1.4-.4,1-.7,1.5-.5,5.2,2.1,9.5,0,13.6-2.9h0Z"/>
            <path id="path265" class="cls-39" d="M58.5,78.7c0-.3.2-.7.3-1,4-1.7,8.1-1.3,12.2-.8.5.3,1.2.3,1.3,1.1-4.6-.6-9.2-.5-13.8.7Z"/>
            <path id="path267" class="cls-66" d="M126.6,237.8c0,.4,0,.8.1,1.2-3,.9-5.6,3-9,2.1,2.6-2.1,6-2.2,8.9-3.3h0Z"/>
            <path id="path269" class="cls-30" d="M13.7,179.6c-2-2.2-2.2-5.4-.5-8.7-.3,3,1.5,5.7.5,8.7h0Z"/>
            <path id="path271" class="cls-65" d="M142.5,81.2c-.1.2-.2.4-.3.6-3-1.9-6.6-1.8-9.7-3.1,3.8-1,7,.3,10,2.5Z"/>
            <path id="path273" class="cls-15" d="M110.6,246.1c-.1-.1-.3-.1-.5-.2,1.7-2,4.1-3.1,6.5-3.9-1,1.9-2.8,2.9-4.4,4.1-.5.8-1,.9-1.6,0h0Z"/>
            <path id="path275" class="cls-85" d="M171.2,102.7c-.4,0-.8,0-1.3.1-1.7-2-4.4-2.2-6.5-3.5.1-.2.1-.4.2-.6,2.9.7,6,1,7.6,4Z"/>
            <path id="path277" class="cls-50" d="M166.3,208c-.5-.2-.9-.4-1.4-.7,1.1-1.4,1.7-3.1,3.1-4.2.6,0,1.1.1,1.7.1-.7,1.8-2.1,3.3-3.4,4.8h0Z"/>
            <path id="path279" class="cls-39" d="M51.1,99.5c.5-2.7,2.8-3.7,4.7-5,.6-.4.3.6.3.9-1.7,1.3-3.4,2.7-5,4.1Z"/>
            <path id="path281" class="cls-13" d="M111.2,236.6c.7-.6,1.3-1.3,2-1.9.3-.2.6-.4.9-.6.4,1,1.3.6,2,.8-1.2,1.9-2.9,2.2-4.9,1.7Z"/>
            <path id="path283" class="cls-18" d="M72.4,78c-.4-.4-.9-.7-1.3-1.1,2.2-.2,4.2.1,6.1,1.3-.4.4-.7.9-1.1,1.3-.9-1.3-2.2-1.8-3.7-1.5Z"/>
            <path id="path285" class="cls-49" d="M110.6,246.1c.6,0,1.1,0,1.7.1-.6,2.3-3,2.3-4.4,3.6.6-1.5,1.6-2.6,2.7-3.7h0Z"/>
            <path id="path287" class="cls-36" d="M61.1,240.7c.2-.3.4-.6.6-1,.9.8,1.1,1.9,1.1,3-.8.1-1.3.5-1.7,1.1-1.7-1.2-1.7-1.5,0-3.1Z"/>
            <path id="path289" class="cls-40" d="M131.4,224.6c.7-2.2.8-4.9,4-5.1-.8,2.1-.5,5.1-4,5.1Z"/>
            <path id="path291" class="cls-60" d="M61.1,240.7c0,1-.5,2.1,0,3.1.6,1.8-.4,2.6-1.9,3.1-4.5,1.6-8.2-.8-11.9-2.6-4.6-2.3-7.2-6.8-10.8-10.3-3.4-3.4-5.9-7.6-9.5-10.8-1.1-1.7-2-3.1-4.6-3.4-2.3-.2-3.2-3-3.8-5.1-.8-3.4-1.5-6.7,1.6-9.7.9-.8.8-3,2.7-2.4,2.8.9,6.6-.4,8.3,3.4,2.4,5.5,6.5,10,9.6,15,.8,1.3,1.6,2.4,2,3.9s.7,3.4,2.7,4c1.7,4.2,6,5.2,9.2,7.7,1.9,1.6,4.5,2.3,6.4,4.1h0Z"/>
          </g>
          <g id="g313">
            <path id="path295" class="cls-44" d="M117.5,144.5c3.6-.2,7.1.3,8.8,4.4,1.9,4.5,1.6,8.8-1.2,12.9-.5.8-1.4,1.3-2.1,2-6.2,5.6-9,4.7-10.7-3.4-.9-4-1.6-8.1-6.2-9.7-.9-.3-1.7-.9-1.7-2.1.1-1.4,1.1-2,2.3-2.3,3.6-.9,7-1.9,10.8-1.8h0Z"/>
            <path id="path297" class="cls-57" d="M68.3,187.3c8.8,1.2,17.5,2.3,26.3-.2,4.9-1.4,9.5-3.3,13.9-5.5,7.9-3.9,15.7-8,21.7-14.9,6.6-7.6,11.2-16.4-.2-26.7-.3-.3-.3-.9-.4-1.3,8.9,2.9,12.8,10.8,9.5,19.2-2.3,5.9-5.5,11.3-10.5,15.2-10.4,8.1-21.4,15.2-34.7,17.9-6.4,1.3-12.8,1.2-19.3.9-2.9-.1-5.6-1.2-7.9-3-.2-1.3.2-2,1.6-1.6h0Z"/>
            <path id="path299" class="cls-44" d="M89,154.3c-1.4,2.2-3.2,1.5-4.8,1.7-8.5,1.1-11.8,8.8-6.7,15.7,1.4,1.9,3.2,3.6,4.5,5.5s1.3,3.5-1.6,4.1c-7.2,1.5-15.9-5.3-16.2-12.6,0-1.8.5-3.3,1.5-4.7,3.4-4.8,8.5-7.7,13.1-10.9,2.7-1.7,6.8-.5,10.2,1.2h0Z"/>
            <path id="path301" class="cls-48" d="M56.3,165.8c.7-9.7,2.9-16.4,16.7-19.9,5.3-1.3,10.5-3.3,15.9-3.9,7.8-.8,14.4-4.8,21.5-7.5,5.1-2,10.1-2.6,15,.8-.9,1.9-2.1.9-2.9.6-3.9-1.4-7.6-.7-11,1.4-6.4,4-13.6,5.8-20.9,7-5.4.9-10.7,2.3-16,3.8-7.7,2.2-13.2,6.5-15.6,14.3-.4,1.3-1.3,2.5-2,3.8-.3-.1-.5-.2-.7-.4h0Z"/>
            <path id="path303" class="cls-44" d="M91.3,199.6c-1.1,2.4-3,2.1-3.9,3.1-3.9,4.4-7.5,2.3-11.2-.2-1-.7-2.3-1.3-1.7-2.7s1.4-1.5,2.2-1.5c4.9-.5,9.8-1.8,14.6,1.3h0Z"/>
            <path id="path305" class="cls-48" d="M68.3,187.3c-.5.5-1,1.1-1.6,1.6-10.6-4.1-14.6-12.9-10.5-23,.2.1.4.3.6.4.2.9.6,1.8.6,2.7,0,8.4,3.9,14.2,10.9,18.3Z"/>
            <path id="path307" class="cls-29" d="M82.9,165.5c3.4-1.5,7.4-.8,10.8-2.5,3.3-1.6,6.1-4.3,11-5-5.1,5.9-10.8,8.7-17.3,10.2-1.8.5-3.8.3-4.5-2.7Z"/>
            <path id="path309" class="cls-44" d="M101.3,175.3c-1.3-.1-2-.6-2.2-1.7-.3-2.3,1.8-4.3,4.5-4.4,1.4,0,3.3.4,2.9,2.2-.6,2.5-3.1,3.3-5.2,3.9Z"/>
            <path id="path311" class="cls-44" d="M98.2,153.2c.2.1.5.1.6.2.1.2,0,.5-.1.6-.5.5-.9.3-.9-.4,0,0,.3-.2.4-.4h0Z"/>
          </g>
          <g id="g547">
            <path id="path315" class="cls-44" d="M291.3,288.8c5.9-3.2,6-3.3,3-8.9-1.2-2.3-1.1-4,.6-5.8,3.1-3.1,6.3-5.9,11.2-5.5,4.1.3,7-1.7,10.2-4.2,5.5-4.5,11.6-8.4,17.8-12,6.1-3.5,9-9.8,13.6-14.6,1.2-1.3.1-3.2-.2-4.8.5-3.5-.1-7.1,1.5-10.5h-.1c4.1,0,6,4,9.6,5.2,2.7.9,5.1,2.3,8,.9,8.7-2.3,17.9-3.2,26.2-6.9,6.4-2.8,11.8-2.1,15.9,4,1.1.8,2.4,1.4,3.4,2.4,3.3,3.3,4.9,8,7.8,9.9-2.8-1.7-4.4-6.2-7.5-9.5-1.9-2-4.7-2.9-6.5-5.1-2.7-2.8-2.6-5.6-1.9-9.5,2.9-16.8,11-31.3,19.3-45.8,2.6-4.6,5.8-8.8,7.7-13.8.8-3.8,3.8-3.7,6.8-3.7,10.1,0,18.9,4.7,27.8,8.4,12.5,5.3,24.9,11,36.1,18.8,7.8,5.4,15.6,11,20.4,19.5.8,4.5-.8,7.5-4.5,10.3-12,9-23.2,18.8-32.7,30.6-3.4,4.3-9.4,6.5-13.3,10.8-4.3,2-6,6.9-10.1,9.1-2.8-.7-4.9-2.6-7.3-3.6.1.1.1,0,.2.1,3.5,2.3,8.1,3,9.2,7.9-2.3,19.3,7.7,32.8,21.1,44.6,3.5,2.6,7.7,3.9,11.6,5.7,2.7,1.2,5.2,1,8.2-.3,16.8-7.1,34.1-12.8,51.6-17.8,7.6-2.2,15.7.9,23.6.5,6.4-.1,10.3,3.2,11.6,9.3,1.9,9.2,5.1,18.2,6.6,27.5,0,11.8,1.2,23.6.8,35.4v4.6c.3,5.5-2.4,10.5-4.3,15-3.5,8.2-.9,15.8-1.2,23.6,0,2.2.7,4,1.8,5.8,1.4,2.3,2.2,4.8,1.2,7.5-6.8,16.2-11.5,33.3-20.4,48.6-1.5,4.2-3.1,8.3-4.9,12.4-1.5,2.7-3.6,4.9-4.9,7.7-1.1,2.6-3.6,3.7-6.5,3.1-12.6-11.6-25.1-23.3-39-33.3-2.7-1.9-5.7-3.5-8.3-5.6-5.7-4.9-13.2-6.7-19.4-10.8-5.3-3.1-2.9-6.5-.5-10,4.5-10.9,2.7-22.7,4.6-34,.6-3.5,1.3-7,2-10.5,1.1-5.7,5.6-8,11-8.5,3.6-.3,7.2-.4,10.7-1.2.7-.1,1.5-.2,2.2-.1,2,.6,4,1.4,6.2,1.2,9.7.7,19.3,1.7,28.5,4.7-10.3-3.3-21-4.5-31.8-5-4.6-2-9.4-1.2-14.2-1.1s-7-1.4-9.1-6.2c-5.1-11.5-6.8-23.6-8.5-35.8-.8-3,0-6.2-.7-9.3-.2-.5-.3-1-.3-1.3,1.2,4.2.2,8.5,1.3,12.5,1.7,11,2.5,22.2,7.9,32.4,1.7,3.3,1.8,6.9,0,10.2-6.7,12-5.7,25.4-6.9,38.3-.4,3.8-1.8,7.3-1.8,11.1-.3,3.9-6.7,6.3-2.7,11.2,4.3,3.6,9.5,5.5,14.6,7.6,2.8,1.2,4.9,3.3,7.4,4.8,13.8,9.1,26.4,19.7,38.4,30.9,2.6,2.4,5.4,4.8,6.7,8.3-.2,3-1.2,5.8-1.7,8.7-5.5,10.9-14,19.6-22.1,28.5-4.8,5.3-10.1,10.2-15,15.4-8.7,9.2-20.4,13.1-30.9,19.2-2.8,1.6-4.5-.2-6.3-1.7-2.3-3.3-2.9-8-7.4-9.7-.6-.4-1.1-.8-1.6-1.3-3.6-7.5-7.5-14.7-11.8-21.8-6.9-11.2-12-23.3-18.3-34.8-2.9-5.4.2-11.2,1.9-16.6,6.2-8.1,13.9-14.8,19.6-21.4-5.5,4.7-10.4,12.2-17.3,17.7-2.1,1.7-2.9,4.7-3.4,7.5-2.467,8.2-7.967,12.167-16.5,11.9-3.6,0-7.1-.3-10.6-.8-11.9,0-20.7,5.9-28,14.7-1.2,1.4-1.4,3.5-3.1,4.7-.7.3-1.4.4-2.2.3-2-1-3.5-2.7-5.1-4.1-1.3-2.3-2.5-4.6-3.8-6.9-4.3-8.2-10.1-11.4-19.1-10-3.8.6-7.6.5-11.4.6-6.9,0-13.3,2.3-19.7,4.6-2.4.4-4.5,2.8-7.2,1.2-1.9-6.1-5.1-11.3-9.4-15.9-3.7-6.5-9.6-10.7-16.2-13.4-7.3-2.9-14-6.8-19.6-9.6,8,6.5,20.5,7.8,29.5,15.9,2.7,2.4,5.2,4.8,6.9,8.1,6.9,7,8.9,14.1,5.3,24.4-3.8,10.9-8.8,21.6-10.2,33.3-2.8,10.1-7.2,19.4-12.6,28.4-2,3.4-4.2,6.2-8,7.5-6.3-.6-12.3-2.9-18.4-4.5-14.3-3-26.1-11.4-38.8-17.9-7.4-5-14.8-10-22.3-15-5.2-3.4-4.4-6.9,1.8-12.7-5.1,1.9-10.4,3.4-15.1-1.6-3.2-4-6.8-7.4-11.6-9.4-3.7-4.5-7-9.2-9.4-14.5-4.7-15.4-10.2-30.7-10.1-47.2,0-6.3,2.2-10.2,8.5-12.1,5.7-1.8,11.2-4,16.6-6.5,7.2-3.1,14.8-4.8,22.6-5.4-7.8.7-15.3,2.3-22.5,5.4-6.9,3.2-14.3,5.2-21.1,8.5-3.4,1.6-4.6,0-4.7-2.8-.1-3.1-1.1-6.1-.8-9.2-1.4-7.1.8-14,.8-21.1s-.3-9.1-2-13.5c-.3-1.6-.2-3.2-.2-4.8,1-6.6,3.5-12.9,3.9-19.6.3-4.9,3.2-6.1,7.8-5.7,5.3.4,9.6,5.4,15.4,3.1,2.3-.1,4.6,0,6.9-.3,2.7,0,5,1.1,7.4,2,4.3,5,10.8,4.3,16.3,6.1,9.5,3,18.2,7.5,26.9,12.2,1.5.8,2.6,1.8,3.2,3.6,2.7,9,4.4,18.1,1.7,27.4-1,3.5-2,8-7.3,6,1.8,1.3,4,0,6.2.1,8,3.6,8.6,11.9,11.7,18.5,1.9,3.9,2.6,7.6-.3,11.1.1-.2,0,0,.1,0,2.2-3.1,2.4-6,.9-9.4-3.3-7.6-4.9-16-12.4-21,2.9-9.6,3.3-19.2.6-28.9-1-3.5-2-6.8-6.1-8.1-4.5-1.4-3-4-.3-5.4,8.4-4.1,10.9-11.5,12-19.9,1.4-10.8,4.8-21.6-.6-32.4-1.7-3.4.2-5.7,3.9-5.8,4.3-.1,7.2-2.5,9.7-5.5,6.6-8.1,13.9-15.6,18.3-25.5,2.1-3.9,3.9-9.2,9.7-10.2v-.1h0Z"/>
            <path id="path317" class="cls-44" d="M363.3,228.2c-.3-.6-.5-1.4-1.1-1.9-6.1-4.9-9.3-12.3-14.9-17.7-3.9-3.8-7.8-7.4-9.2-13.2-1.2-4.8-6.5-6.7-10.4-9.3-2.8-1.9-5.6-3.6-7.3-6.6-2.4-4.3-1.8-6.8,2.4-9.5,4.4-2.8,8.8-5.4,14.4-5.6,4.4-.1,7.6-2.7,8.8-7.2.1-.5.1-1.2.5-1.3,9-4,18.3-6.3,28.2-4,5,3.9,10.3,5.9,16.5,2.6,1.1-.6,2.8-.4,4.2-.2,4.8.8,9.5.6,14.3-.5,1.2-.3,2.4-.3,3.6-.3,5,.2,6.5,2.4,5,6.9-.5,1.6-1.3,3.1-2.4,4.4-3.7,4.6-4.4,9.4-2,14.8,1.7,2.3.2,4.1-.5,6.2-3.3,9.6-7.2,19-9.3,28.9-.9,4.4-3.9,6.2-7.6,7.3-9.5,2.8-19,5.7-28.8,7.5-1.7.2-3.3.2-4.4-1.3h0Z"/>
            <path id="path319" class="cls-78" d="M243.8,432.7c-4.5,1.9-9.3-.3-13.9,1-.6.2-1.4-.6-1.2-1.4.1-.6.5-1.5,1.1-1.7,2.5-1.2,5.2-1,7.7-.5,3.6.6,5.5-1.1,6.5-4.2,2.8-9.3,1.7-18.4-1.6-27.4-.8-2.3-2.9-3.1-4.9-3.9-8.1-2.9-15.7-6.9-24.3-8.4-6.1-1.1-12.1-2.8-17.3-6.6.2-.7.6-1.4,1.1-1.9,3-2.3,5.9-.7,8.8.3,8.8,3.2,18.1,4.8,27.4,5.2,7.8.3,10.9-2.1,12.7-9.7,2.1-8.6,3.2-17.4,2.8-26.3-.5-10.7-6.6-17.5-17-20.3-11-3-22-6.4-30.4-14.9-.3-2.7-.5-5.3.9-7.8,3.6-3.1,6.8-.7,9.8,1,11,6.3,22.5,11.5,33.9,16.8,11.7,5.5,14.2,4.7,22.2-5.7,6.6-8.6,10-19,15.7-28.1,1.5-2.4,2.4-5.4,6.2-4.7,1.1.5,1.8,1.3,1.2,2.6-.1.9-.1,1.8-.2,2.7-5,7-8.1,15.1-12.7,22.3-4,6.4-7.8,13.1-13.8,18.1-3.7,3.1-7.1,5.7-13.1,2.9,6.8,16.7,2.1,31.9-.5,47.3-.7,4.4-2.7,7.5-7.2,8.9-1.8.6-3.4,1.6-5.3,2.6,10.3,8,9.4,19.1,8.9,29.9-.2,3.5-1.5,7-2.3,10.5.2.8-.7.9-1.2,1.4h0Z"/>
            <path id="path321" class="cls-23" d="M596.3,331.9c-3.7-5.5-3.4-12.2-5.4-18.3-1-3.1-1.7-6.4-2.8-9.6-1.5-4.2-4.1-6.9-8.8-6.9-1.5-1.2-4.6.6-5-2.7,7-6.2,4.9-13.5,1.2-20-10.9-19.4-22.4-38.4-36.4-55.8-1.2-1.5-2.6-2.8-4.2-3.9-2.1-1.8-2.9-4.4-4-6.8-1.5-3.1-5-4.8-5.4-8.6.2-1.1.8-2,1.7-2.6,8.6,6.1,14.3,15.3,23,21.4,1.8,3.4,4.1,6.4,7.3,8.6,4.4,13.1,14.2,23.1,20.4,35.2,8.2,16.1,14.1,32.9,17.8,50.5.7,3.5,1.5,7,2.3,10.5h0c1.3,2.4,1.3,4.9,1,7.5-.5,1.3-1,2.6-2.7,1.5h0Z"/>
            <path id="path323" class="cls-6" d="M482.7,565.1c3.4,2.3,6.4,1.2,9.8-.3,20.7-8.9,35.3-24.8,48.5-42.2,4.4-5.7,9.6-10.6,13.7-16.5,1.7-1.2.6-7.7,5.5-3-4,4-5.5,9.4-8.6,13.9-4.8,7-11.4,12.2-16.8,18.6-6.7,7.8-14.4,14.6-22.4,21.1-1.9,1.5-3.8,2.8-5.9,3.9-13.8,7-27.6,14.1-41.5,21.1-.8.4-1.7.9-2.7,1-12.8,2-24.6,8.1-37.7,8.7-1.2,0-2.3.5-3.5.8-2.4-3.4.1-5,2.3-6.7,13.7-2,26.8-6.3,39.8-10.8,5.9-2.1,11.5-4.7,14.9-10.4,2-1.6,3.5-1.4,4.6.8h0Z"/>
            <path id="path325" class="cls-71" d="M184.9,440c-5.2,3.4-11.3,5.1-17,7.4-5.4,2.1-7.3,5.8-7.7,10.8-.5,6.7.2,13.3,2.4,19.7,3.1,9.3,6.2,18.5,7.7,28.2-1.6.8-2.1-.8-3-1.5-3.5-5-6.4-10-4.9-16.5.4-1.9-.7-4.2-1.3-6.2-3-8.9-4.3-18.1-3.7-27.5.2-3.8.1-7.7-.5-11.4-3.9-24.5-3.3-49,.3-73.5.8-5.4-.8-11,1.5-16.3,4,2.7,2.7,7.5,4.5,11.1-2.6,10.7-4.3,21.6-5.7,32.6,0,1.4.1,2.8.1,4.2,2.4,8.2-.2,16.5.8,24.8.5,3.7-.6,7.5.6,11.2.1,3.3-.1,6.6,1.2,9.9,8-3,16-4.8,23.4-8.4.3.5,1.3.5,1.3,1.4h0Z"/>
            <path id="path327" class="cls-85" d="M574.9,473c2.1-9.7,8.4-17.8,10.9-27.3,1.9-7.1,5.4-13.8,6.4-21.2-.5-8,2.7-16.2-1-24.1-.7-1.4-.2-2.8.6-4,4.8-7.6,3.5-16.3,4.7-24.6,0-1.3.2-2.6.3-3.8,1-1.5,2.4-2.2,4.2-2.1,1.6,11.4,1.4,22.8-.2,34.2-.4,3.1-.9,6-.6,9.2.8,8,0,15.6-5.1,22.4-4.6,6-4.4,14.1-7.5,20.8-1.7,3.7-3.1,7.3-5.8,10.5-2.4,2.9-3.7,6.6-5.5,10-.5.7-.9.7-1.4,0h0Z"/>
            <path id="path329" class="cls-54" d="M160.2,365c-1.9-3.7-1-7.9-1.6-11.8-.1-12.1,3.7-23.3,7.4-34.7,4.5-13.9,11.8-26.5,17.4-39.8.5-.5,1.1-.7,1.8-.5,1.4.7,2.6,1.9,2.4,3.3-1.2,8.6,5.5,12.1,10.8,16.4,2.4,2,5.4,3.3,5,7.2.1,1.7.2,3.5.3,5.2-2.9,2.6-5.5.8-7.6-1-2.4-2-4.9-3.9-7.4-5.6-5.8-4-8.1-3.5-10.5,3.3-5.7,16.2-10.6,32.7-11.8,50-1.4,2-2.7,4.1-3.5,6.4-.7.8-1.5,1.4-2.7,1.6h0Z"/>
            <path id="path331" class="cls-73" d="M367.6,228.7c8.2-2.7,16.5-4.6,24.8-6.9,6.3-1.8,8.9-5.3,10.5-11,2.2-8,5-16,7.6-23.9.8-2.5,2.2-4.8,3.2-7.2,4.3-4.7,6.9-10.5,10-16,1.7-3,3-6.3,5.4-9,1-.3,2.1-.9,3.1.2-.7,5.2-4.5,8.9-7,13.2-7.3,12.9-13.9,26-17.6,40.4-1.2,4.6-4.1,9.5-.1,14.3,1.6,1.8,3.6,3.6.1,5.5-6.5-6.5-6.8-7.1-16.3-3.4-8.3,3.3-17,4.2-25.5,6.4-.6-1.7.6-2.2,1.8-2.6Z"/>
            <path id="path333" class="cls-38" d="M432.3,154.9c-1,.3-2.1.5-3.1-.2v-3.8c-.8-1.1-.6-2.1.4-3,7-.4,13.7,1.1,20.1,3.3,17.1,5.8,33.5,13.4,49,22.8,5.1,3.1,9.7,6.7,14.4,10.4,5,4,9.6,8.1,14.2,12.5v3.4c-2.3,1.8-4,.3-5.8-1-.5-.4-.9-.9-1.3-1.3-5.1-8.3-12.6-14.3-20.4-19.6-11.6-7.9-24.5-13.6-37.5-18.9-5.9-2.4-11.8-5.1-18-6.7-4.2-1.1-8.5-1.6-12,2.1h0Z"/>
            <path id="path335" class="cls-72" d="M383.4,516.2c.4,0,.8,0,1.2-.2,1.5-1.1,2-3.1,3.4-4.4,3-2.6,4.9-2.1,6,1.7-8.6,12.5-9.1,27.3-11.7,41.4-1.5,8.2-3.9,16.2-4.3,24.6-.3,5.9,1.7,9.2,8,9,2.4.2,3.7,2.1,5.4,3.5.5.5.9,1.1,1.1,1.7.2,2.5-2,2.2-3.4,2.8-1.9.2-3.7.4-5.6.6-5.7-.5-10.9-1.8-14.3-7-.4-.6-.6-1.2-.8-1.8-.1-.6-.2-1.3-.3-2-.2-.6-.3-1.3-.5-1.9-.6-1.9-1.1-3.8-1.5-5.8-.1-1.4-.2-2.9.4-4.2,7.5-16.8,8.4-35,10.9-52.8.8-3.2,2.8-4.8,6-5.2h0Z"/>
            <path id="path337" class="cls-28" d="M192,527.6c2,3.3,4.9,3.2,8.2,2.2,4.9-1.4,9.1-4.1,13.8-8,0,5-2.7,7.2-5.2,9.4-8.2,7.2-8.4,8.3.8,14.6,5.3,3.7,10.3,7.8,15.6,11.5,1,.7,1,1.3-.1,1.9-.9-.3-2-.3-2.7-.9-4.5-4.3-9.9-7.2-15.5-9.8-4.2-2-7.4-4.9-9.6-9.1-1.3-2.5-2.8-5-5.6-6.3-1.3-.6-2.5-1.3-3.1-2.7-.4-2.7.1-4.4,3.4-2.8h0Z"/>
            <path id="path339" class="cls-26" d="M374.6,152c-9.7,1.1-19.4,2-28.7,5.3-6.2,1.7-12.6,2.6-18.7,6.4-.4-3,1.4-3.5,2.7-4.2,8.6-4.5,17.7-7.4,27.2-8.8,11.6-1.7,23-4.6,34.9-4.2.7,1.5-.7,1.9-1.4,2.6-2.7,1.2-5.5,1.1-8.4,1.4-2.6.3-5.3,0-7.6,1.5Z"/>
            <path id="path341" class="cls-14" d="M350.4,598c-5,.7-10,0-14.9-1-11.8-2.6-24-3.8-35.7-7-2.5-.7-5.1-1.4-7.2-3.1,1.5-6.1,6.4-4.2,10.4-4.3,11.9,6.2,25.2,5.8,38,7.7,3.7.5,7.6.5,10,4.2.5,1.3.3,2.5-.6,3.5h0Z"/>
            <path id="path343" class="cls-56" d="M191.9,258.5c11.6-14.8,22.5-30.2,35.8-43.7,4.9-4.9,10.2-9.3,16.2-12.7.6.4,1,1,1.3,1.7.4,2.4-.8,4.1-2.6,5.5-15.3,11.8-26.3,27.3-37.6,42.7-2.9,4-5.1,9.6-11.7,9.1-1.2-.6-1.9-1.3-1.4-2.6h0Z"/>
            <path id="path345" class="cls-36" d="M348.9,222.6c0,3.6.7,7.2-1.5,10.5-.1-.2-.3-.4-.3-.6.3-10.8-5.1-18.8-12.2-26.3-6-6.4-11.3-13.4-17.9-19.3.7-.8,1.5-.9,2.4-.2,7.3,3.8,13.9,8.4,17.1,16.5,1,2.5,3.1,4.2,4.9,6.1,3.5,3.7,6.7,7.8,7.5,13.3Z"/>
            <path id="path347" class="cls-31" d="M297.1,259.9c4.9,2.8,9.7,1.9,14.4-.3,5.8-2.6,10.6-6.7,14.7-11.3,5.3-5.8,11.5-9.9,18.7-12.9,1.2,1.8-.1,2.9-1.3,3.4-8.8,3.8-15,11-21.8,17.4-3.6,3.3-7.8,5.6-12.3,7.3-5.5,2.1-10.8,2.2-15.4-2.1,0-2.4,1.3-2.5,3-1.5h0Z"/>
            <path id="path349" class="cls-11" d="M255.1,193.6c4-3.4,7.9-6.9,12-10.1,7.1-5.4,15.2-8.3,24.4-8.4-11.4,6.2-23.3,11.5-33.3,20-1.9,1.2-3,.9-3.1-1.5Z"/>
            <path id="path351" class="cls-55" d="M297.1,259.9l-3,1.5c-3.1-.4-2.9,1.8-2.6,3.7.8,5.8-.9,11.7.6,17.6.2,1-.4,2.3-.6,3.4-.6-.6-1.2-1.1-1.8-1.7-2.2-1.1-2.9-3-3.1-5.2-1.2-13.5-3.4-26.8-9-39.2-.7-1.6-.7-3.2.5-4.7.8-.4,1.5-.4,2.1.2,3.3,3.5,5.4,7.9,7.4,12.1,2.4,4.8,5.5,8.8,9.5,12.3h0Z"/>
            <path id="path353" class="cls-52" d="M601.1,365.8c-.2,1.6-.4,3.2-.6,4.9-2-.1-1.9-2.5-3.6-2.8-1-12-.7-24-.7-36,.9-.5,1.9-.9,2.8-1.4.8,11.8,1.5,23.6,2.1,35.3Z"/>
            <path id="path355" class="cls-37" d="M255.1,193.6l3,1.5c-.8,3.1-.6,5.8,1.7,8.5,2.1,2.5,3.5,5.5,4.4,8.7l-.8.8c-6.3-3.2-14.7-2.2-19.4-8.9-.1-.7-.1-1.4-.2-2,2.3-2.3,4.7-4.5,6.9-6.9,1.3-1.6,2.7-1.7,4.4-1.7h0Z"/>
            <path id="path357" class="cls-54" d="M225.1,559.3c0-.6,0-1.3.1-1.9,7.1,2.4,13.2,6.6,19.7,10.1,6.2,3.3,12.4,5.8,19.1,7.6.8.9.8,1.8,0,2.7-14.7-2.6-26.6-10.9-38.9-18.5h0Z"/>
            <path id="path359" class="cls-53" d="M264,577.8v-2.7c6.2,1.5,12.5,3,18.7,4.5,3.2-.6,6.4,0,9.5-.7,4,1.9,10.8,0,10.5,7.7-3.3,0-6.8-3.1-10,.3-9.6-3-19.2-6-28.7-9.1Z"/>
            <path id="path361" class="cls-82" d="M560.2,503c-3.1-1.3-3.8,1.8-5.5,3,0-3.4.2-6.8.3-10.3.4-3.2,2.1-4,4.9-2.7,2.1-.3,4-.5,5.3-2.7s3.1-4,4.8-6c.6-1.2,1.3-1.2,1.9,0-2.3,5.3-4.8,10.6-8.1,15.4-1,1.5-1.9,2.8-3.6,3.3h0Z"/>
            <path id="path363" class="cls-9" d="M370.3,588.2c3.7,4.1,9,5.6,13.3,8.7-9.1,1.3-18.3,1.3-27.5,1.2-.8-3.4,1.6-4.9,3.9-6.5,3.1-1.9,6.2-4.2,10.3-3.4h0Z"/>
            <path id="path365" class="cls-81" d="M425.4,588.3c-1.5,1.1-3.7,1.5-4.2,3.8-5.6,2.3-11.4,3.5-17.4,3.2-3.9-.7-8,1.2-11.6-1.5h0c1.4-7.6,8.2-5.9,13.1-7.6,4.3-.3,8.6-.2,12.9-.8,2.8-.3,5.7-.5,7.2,2.9h0Z"/>
            <path id="path367" class="cls-62" d="M319.4,186.5c-.8.1-1.6.1-2.4.2-4.8-1.3-8.5-4.1-11-8.4-2.6-4.6-.3-12.2,4.6-14.4,1.3-.6,2.8-1,3.7.7.7,1.4-.4,2.1-1.3,2.9-5.6,5-5.2,11.6.9,15.8,1.8,1.1,3.7,2.1,5.5,3.2h0Z"/>
            <path id="path369" class="cls-63" d="M190.6,531c.4.7.8,1.5,1.2,2.2-4.2.7-6.7-2.2-8.9-4.9-5.9-7.4-11.8-14.8-15.6-23.6l3,1.5c2.7,4.4,5.3,9,8.9,12.8,4.7,3.1,8.1,7.5,11.4,12h0Z"/>
            <path id="path371" class="cls-7" d="M429.6,148c-.1,1-.3,2-.4,3-6.4-1.5-13-1.5-20.1-2,7.1-3.2,13.8-3.2,20.5-1Z"/>
            <path id="path373" class="cls-84" d="M191.9,258.5c.5.5,1,.9,1.5,1.4,2.6,6.2-4.2,9.8-4.3,15.4,0,2.2-2,3.6-4.4,3.5-.4,0-.9-.1-1.3-.1,0-.2.1-.5.1-.7-.9-11,1.6-10.2,6.5-17.3.5-.8,1.2-1.5,1.9-2.2h0Z"/>
            <path id="path375" class="cls-36" d="M367.6,228.7c-.5.8-1,1.7-1.5,2.5-6.9-.7-12.1-4.6-17.3-8.7,1-1.4,2-1.5,3.5-.3,3.3,2.6,6.6,5.2,10.9,5.9,1.5.2,3,.4,4.4.6Z"/>
            <path id="path377" class="cls-58" d="M390.6,149.2c.5-.9,1-1.8,1.4-2.6,3.1-.3,6.2-.7,9.2-.8.9-.1,1.9.6,1.9,1.7.1,1.2-.9,1.5-1.9,1.6-3.5.3-7,.6-10.6.1Z"/>
            <path id="path379" class="cls-82" d="M557.6,226.9c-5.4-.9-6.6-2.3-7.3-8.6,3.5,1.9,6.2,4.6,7.3,8.6Z"/>
            <path id="path381" class="cls-9" d="M392.1,593.8c3.9.2,8-.7,11.6,1.5-4.7,2-9.6,1.4-14.5,1,1-.8,1.9-1.6,2.9-2.5Z"/>
            <path id="path383" class="cls-34" d="M264.2,212.3c4.3,4.2,7.6,9,10,14.4-.3.2-.6.5-.9.7-7.2-1.2-11.8-8.3-9.5-14.8l.4-.3h0Z"/>
            <path id="path385" class="cls-52" d="M361.7,594.9c-.5,3.5-4.1,1.4-5.6,3.2h-5.6v-2.6c3.5-4.6,7.3-3.8,11.2-.5v-.1h0Z"/>
            <path id="path387" class="cls-15" d="M571.8,484.4h-1.9c1.8-3.8,2.6-8,5-11.4h1.4c-1.1,3.9-2.6,7.7-4.5,11.4Z"/>
            <path id="path389" class="cls-10" d="M274.2,226.7c1.5,1,2.7,2.3,3.1,4.2-.3.2-.6.4-.9.6-2.7-.6-4-1.9-2.5-4.7h.3v-.1Z"/>
            <path id="path391" class="cls-10" d="M280.3,235.4h-1.7c-2.2-.6-3-1.9-1.9-4.1.2-.2.4-.3.6-.5,1.4,1.4,2.2,3,3,4.6Z"/>
            <path id="path393" class="cls-44" d="M302.8,277.2c1.2-1.8,2.6-3.8,4.8-3.8,5.6-.2,9.7-3.3,13.9-6.3,1.6-1.6,4.1.2,5.8-1.4,3.9-4.9,7.9-9.5,14.2-11.6,3.2-1.1,4.1-4.4,5.5-7.2,3.6-7.1,8.8-9.8,15-7.9,1.6.5,3,1.5,4.4,2.3,1.5.9,3.5,1.9,4.7.8,4.8-3.9,11.4-3.3,16.2-7.2,4.6-3.6,10.6-3.2,15.2.4,2.6,2.1,5.3,4.2,7.6,6.6,3.9,4.3,8,7.2,14,8.9,8.5,2.4,16,7.9,20.6,15.8,4,6.8,9.4,13.1,9.6,22,.2,6,5.6,9.8,9.6,13.8,3.9,3.8,8.1,7.8,11.1,12,3.7,5.1,7.6,11.1,7.6,18.2v11.5c0,3.9.3,7.7,2.5,11,1.9,2.9,1.9,5.7.2,8.8-3,5.5-3,11,1.1,16.1,1.6,2,2,4.3,2,6.8,0,8.4.7,16.9-.2,25.1-.9,8.3-5.9,15.7-7.5,24.1-.6,3.3-4.7,5.2-8.2,6.4-4.8,1.7-9.1,4.3-12.5,8.2-1.3,1.5-2.8,2.6-4.7,3.3-.4.2-.9.4-1.3.5-5.3,1.2-4.3,8.1-8.8,9.8-4.4,1.8-8.4,3.6-9,9.1-.2,2.1-1.9,3.3-4,3.7-3.6.6-6.1,2.5-7.8,5.7-1.8,3.3-4.8,4.5-8.4,4.5s-4.3.3-6.5,0c-5.9-.6-10.8,1.2-14.7,5.8-1.6,1.6-4.1-.2-5.8,1.4-6.6,4-6.7,4.1-11.5-1.6-2.6-3.1-5.5-5.2-9.6-5.5-2.5-.2-4.7-.8-6.2-2.9-1.9-1.1-3.8-1.1-5.8,0-4.9,2.8-10.2,3.5-15.9,3-4.8-.4-9.6,0-14.4,0-1.9,1.1-3.8,1.1-5.8,0-3.4-3.6-6.5-7.2-8.7-12-2-4.3-5.7-8.5-10.8-9.9-4.2-1.2-7.2-3.5-9.9-6.7-2.4-2.8-5.3-4.4-9.4-4.2-10.2.6-14.4-2.1-18.1-11.5-1.6-4-2.4-8.3-5.1-11.8-1.1-1.4-1.2-3.2-.8-4.8,2.1-8.5-.3-16.7-1.3-25-.9-7.2-.6-13.8,3.4-20,1.9-2.9,2.8-6.5,2.4-9.6-.7-6,.7-11.9-.2-17.8-.6-3.9.5-7.7,1.8-11.3,1.3-3.5,3.7-6.1,7.7-6.8,7.2-1.3,10.9-5.4,12.3-12.9,1.8-9.4,6.5-17.8,12-25.7,2.5-3.5,4.5-7.4,5.9-11.5,2.2-2.6,0-5.9,1.8-8.6v-.1h0Z"/>
            <path id="path395" class="cls-44" d="M586.4,346.8c.4,7.2-.6,15.5,2.1,23.9,1.7,5.2-2.2,10.6-2.9,16-.2,1.2-1.8,1.6-3,.8-3.9-2.6-8.8-3-12.4-6.7-4.1-4.2-10.7-3.8-16.2-4.7-3.5-.5-6.4-1.4-9.2-3.3-3.9-2.8-8-4.4-12.6-1.6-.8.5-1.8.7-2.7.8-14,.8-17.4.8-16.5-12.8.3-4.1-1.7-7.6-4.2-10.4-4.5-5-5-11.2-5.7-17.4-.4-3.5,1-5.5,4.6-7,5.5-2.2,10.7-5.1,15.7-8.3,3-1.9,5.9-2.9,9.4-3,1.9-.1,3.9-.3,5.6-1,9.4-3.9,19.4-4.6,29.2-6.3,8.8-1.6,11.4.7,13.1,9.7.2,1.2.2,2.6.9,3.4,6.4,7.6,4.6,16.7,4.8,25.4v2.5h0Z"/>
            <path id="path397" class="cls-44" d="M468.4,474.4c4.7-4,9.5-8,14.2-12.1,4.8-4.2,5.7-4.4,11.3-1.4,1.9,1.1,3.9,1.8,6.1,1.9,1.6,1.6,4.1-.2,5.8,1.4,1.1,1.8,2.5,3.2,4.3,4.3,1.8,2.7,0,4.9-1.5,7.3,1.8,0,2.8-1.8,4.4-1.5,5.8.2,10.9,1.6,13.8,7.3,1,2,2.8,3.2,4.9,4,3.5,1.3,6.2,3.8,8.1,6.9,2,3.3,7,5.4,3.2,11-2.4,3.5-3.3,7.8-8.4,8.8-3.4.6-5.2,3.4-5.6,6.7-.5,4.3-2.7,7.6-5.4,10.7-3.6,4.1-7.4,8.1-11.2,12.1-2.6,2.8-6,3.9-9.7,4.3-2.7.3-5.3.6-7,3.1-4-.4-.9-4.4-2.9-5.8-3.6-4.8-7.5-1.8-11.1,0-1.5-2.6.7-3.4,1.3-4.8,1.8-4.1.9-6.5-3.5-7.4-2.7-.5-3.9-1.9-5.4-3.9-5.4-6.7-7.4-15.5-13.9-21.4-1.3-1.2-1.6-2.9-1.9-4.6-.2-1.6-.5-3.4-1.1-4.9-3.1-6.9-2.7-8.4,4.3-12,2.2-1.1,4.1-2.4,5.4-4.5,1.6-1.5,0-3.9,1.5-5.6v.1h0Z"/>
            <path id="path399" class="cls-44" d="M298.5,519c-.3.9-.3,2-.9,2.7-3.9,5.2-5.6,11-5,17.4.2,2.2-.7,4.3-2.3,5.9-2.7,2.8-3.6,6.2-3.3,9.9.3,4.9-1.3,7.9-6.6,9.3-4.3,1.1-7.9,4.5-12.8,3.7-1.6-.3-3.8,0-4.8-.9-4.2-3.9-9.6-5.6-14.5-7.6-7.3-2.9-12.8-8.9-20.5-11-3.9-1.1-6.7-4.5-9.5-7.4-1.3-1.3-1.6-3.1-.6-4.6,2.6-4,3.2-9.1,7-12.4.9-.8,1.8-1.8,2-2.9,1.9-9.4,9.3-14.9,15.5-21,5.9-5.6,11.7-11.1,16.5-17.7,1.5-2,2.8-3.8,2.8-6.4-.1-3,1.2-3.9,4-2.9,4.2,1.5,9,1.6,11.7,6.2,1.2,2.1,3.9,2.8,6.3,3.2,5.7.9,9.2,4.9,12.7,8.9,1.9,2.1.9,4-2,4.4-2.2.3-4.2-.7-6.3-1.3-5.8-1.8-7.6-1.1-11,4.5-1.1,1.9-1.1,3.8,0,5.8,1.3,1.8,3,3.6,5.1,3.1,6.4-1.5,10.6,2.1,15,5.5,1.7,1.5-.1,4,1.5,5.6h0Z"/>
            <path id="path401" class="cls-44" d="M586.2,414.8c.4,5.1.4,10.1-3.4,14.2-1.3,1.4-1.9,3.4-2,5.3,0,3.7-1.1,7-3.9,9.7-1.4,1.4-1.9,3.3-2,5.3,0,5.1-3.5,8.8-5,13.4-.7,2-2.5,2.8-4.4,3.3-4.6,1.2-6.8,3.8-6.2,8.9.5,4.1-.6,4.6-4.4,3.4-5.3-1.8-5.7-2.8-3.1-8,.5-1.1,1-2.2,1.1-3.3.3-3.6-2.2-5.3-5.5-4.1-7.8,3-7.6,2.8-13-3.2-4.9-5.4-10.5-10.1-17.6-13-5.8-2.4-11-5.9-12.6-12.8-.6-2.7-.4-5,2.3-6.9,6.7-4.6,8.3-8.3,5.1-15.5-2.4-5.5-.2-9.7,1.6-14.3.8-2,2.4-3.2,4.4-3.1,8.1.3,16.1-1.2,24.3-.8,6.9.4,12.3,3.1,17.3,7.4,4.7,4,6.6,3.9,11.4.6,7.8-5.4,13.4-3.2,15.2,6.3.8,2.3.4,4.8.4,7.2h0Z"/>
            <path id="path403" class="cls-44" d="M432.4,234.1c-2.2-.2-4.2-.8-5.8-2.4-1.9-1.9-2.5-3.6-1-6.3,3.7-6.7,3.1-8.1-3.6-11.4-3.7-1.8-5.5-5.1-3.3-9.5,4.4-9.3,5.5-19.8,11.1-28.5,4.5-6.9,9.2-13.8,19.2-12.3,1.2.2,2.6,0,3.5.7,8.2,6.3,19.1,7.5,26.9,14.4,1.2,1,2.9,1.6,4.5,2,3.2.7,5.7,2.4,8,4.6,3.4,3.3,7,6.1,11.6,8.1,6.4,2.7,6.6,7.8,0,10.4-5.9,2.4-9.5,8.1-15.9,9.2-.7.1-1.7.6-1.8,1.1-1.4,8.6-11.8,9.9-14.4,17.6-.4,1.2-1.8,2.3-3,3-3.5,1.8-6.2,4.3-8,7.9-1.3,2.4-3.1,2.2-4.2-.2-1.2-2.6-2.4-5.2-5.1-6.7-2.1-1.8-5.1.3-7.2-1.4h-1.4c-3.5.8-6.9.8-10.2-.3h.1,0Z"/>
            <path id="path405" class="cls-44" d="M170.5,469.1c-.2-1.9-.5-4-.7-6.2-.4-5.6,3.6-8.5,8.7-6.3.7.3,1.2.8,1.8,1.1,7.2,4.3,14.7,1.4,17.3-6.6,2.4-7.7,9.9-10.1,16.1-5.2,1.5,1.2,2.9,2.5,4.7,3.2,5.6,2,9.6.4,12.4-4.8,2.3-4.3,2.7-4.5,7.2-2.6,1.6.6,3.1,1.3,4.6,2s3.3,1.6,3.2,3.5c-.2,2.5-2.5,1.4-4,1.7-5.6,1.2-8.7,6.6-5.2,11.4,5.3,7.5,1.9,13-3.1,17.5-7.8,7.1-11.4,17.2-18.8,24.3-.8.8-1.2,2.1-1.5,3.2-1.1,3.9-3.3,6.2-7.5,6.6-2.4.3-4.5,1.6-6.4,3.2-2.7,2.2-5.2,2-7.7-.4-1.8-1.7-3.9-2.8-6.1-3.8-1.6-.7-2.8-1.8-3.6-3.4-3.1-6.4-6.8-12.6-7-20-.1-3.6-1.1-7.1-3.3-10.1-1.8-2.2-1.8-5.1-1.1-8.3h0Z"/>
            <path id="path407" class="cls-71" d="M521.9,384c-3.1,1.6-6.5,1.1-9.9,1.3-8.3.6-10.3,2.7-12.4,10.9-3.2,12.6-2.4,25.5-3.6,38.3-.2,2.3.2,4.8-1.6,6.8-.6-2.6-3.4-4.2-3.1-7.1,3-9.2,3.3-18.8,4-28.3.6-7.2,1.7-14.3,4.2-21.1,1.7-4.8,1.2-9.2-.5-13.8-3.6-9.7-6.5-19.6-6.2-30.1-.7-1.1-.8-2.4.3-3,1.2-.7,2.1.3,2.6,1.4.3,3.6.9,7.1,2.5,10.3,2.1,4.5-.6,9.6,1.8,14.2,1,1.8,1,4.2,1.8,6.1,3.5,8.4,5,9.1,14.2,8.9,3.5-.1,7.1.5,10.4,2-.6,1.4-1.7,1.7-3,1.7s-.9.1-1.2.4c-.4.2-.4.6-.3,1.1h0Z"/>
            <path id="path409" class="cls-47" d="M482.7,565.1c-1.1-.3-2.2-.4-3.1.4-7.3.8-10.2-5-12.3-9.7-6.6-15.6-15.1-30.2-23.8-44.7-3-4.9-6.3-8.2-12.1-8.7-4.6-.6-9.3,0-13.9-1-.7-.3-1.3-.8-1.9-1.3-1.3-1.8-1.6-3.6-.5-5.5,6.6.5,13.3.9,19.9,1.7,2.6.3,4-.3,4.7-2.9.8-3,1.9-5.9,2.8-8.8.9-1.9,2-3.1,4.2-1.5-3.8,5.8-3.6,11.9-.3,17.7,6.3,10.9,11.1,22.7,18.4,33.2,3.8,5.4,6.1,11.9,9,17.9.5,1.1,1.1,2.1,1.7,3.1.2.4.5.7.7,1-.2-.3-.5-.7-.8-1,1.1-1.6,2.4-2.5,3.6-.2,1.8,3.2,3.7,6.4,3.7,10.3h0Z"/>
            <path id="path411" class="cls-46" d="M574.9,294.5c1.1,1.5,3,1.7,4.4,2.7-3.6,0-7.3.7-10.7,0-10-2-18.7,1.7-27.6,5-9.8,3.6-20.2,5.8-29.8,10-1.9.8-4.1,1.1-5.7,2.9-2.6,2.9-7,2.6-9.1,1.3-4.4-2.8-10.1-3.2-13.7-7.3,0-1.3.7-2.2,1.8-2.9.9-.4,1.9-.8,2.8-.4,10.3,5,19.7.8,28.8-3.3,16.3-7.3,33.8-10,51.2-13.3,4.2-.9,7.8-.4,7.6,5.3h0Z"/>
            <path id="path413" class="cls-31" d="M520.3,198c.5,0,1,.1,1.5.1,3.8,2.9,7.2,6.4,11.5,8.6,2.7.8,3.6,3,4.2,5.3-1.6,2.6-3.6,1.2-5.7.8-5.9-1.2-11.3-.5-16.1,3.5-11.5,9.5-23.2,19-34.3,29-3.1,2.8-5.9,5.6-10.6,4.3-.9-.6-1.6-1.4-1.1-2.6,9.3-7.6,18.3-15.4,26.4-24.3,4.6-5,9.6-9.3,15.2-13.1,4.4-2.8,8.3-6,9-11.6h0Z"/>
            <path id="path415" class="cls-60" d="M596.6,371.8c2.6,7.3,1.6,15.1,2.4,22.6.3,3.5-1.7,5.8-7.7,4.6,5.4,4.4,5.1,8.2,3.7,12.3-1.5,4.3-.7,9.1-2.7,13.3-.3-6.4-2-12.8-1.7-19.3,0-2.3-1-4.1-2.8-5.6-2.8-2.4-2.9-4.8,0-7.1,2.8-2.2,4.2-5.2,4.3-8.7.2-4.7,4.6-7.6,4.5-12.1h0Z"/>
            <path id="path417" class="cls-60" d="M160.2,365c.1-.9.2-1.7.4-2.6.6-3.2,2.7-5.3,5.2-2.6,4.9,5.3,11.4,8.2,16.5,13,1.1,1,2,2,1.2,3.6-5.3,3.1-10.1-.9-15.2-1.1-5.7-.2-5.7-.8-6.5,5-.8,5.6-1.4,11.3-4.4,16.4-1.8-5.9,0-11.9.3-17.7.2-4.7,1.6-9.3,2.5-14h0Z"/>
            <path id="path419" class="cls-20" d="M559.9,493.1c-2.1.2-3.6,1.3-4.9,2.7-3-6.2-8.6-10-13.5-14.4-9.3-8.5-19.2-16.2-29.8-23-1.2-1.8-.9-2.9,1.5-2.9,13.1,9.6,26.1,19.2,37.8,30.5,2.7,2.6,5.9,4.7,8.9,7.1h0Z"/>
            <path id="path421" class="cls-65" d="M521.9,384c-3-.4-6.1.3-8.9-1.4,2.4-2.3,5.7.2,8.2-1.6,1.7-.1,3.4-.2,5-.3,14.7,0,28.4,4.5,42.1,9.1-6.8.8-13.1-1.8-19.6-2.7-6.6-1-13.2-1.4-19.8-2-1.7-1.9-4.2.3-6-1.1h-1Z"/>
            <path id="path423" class="cls-85" d="M308.4,486.2c4.2,4.5,8.4,9,9,15.5,1.4,2.4,1.3,5,.8,7.6-1.1,11.8-8.8,21.4-10.8,32.9-.4,2.2-2.1,3.7-4.6,3.8-.8,0-1.5-.4-2-1-.7-6.2,2.5-11.6,4.6-17,2.9-7.3,4.2-15,7.3-22.2,2.4-5.5,1.2-10.1-2.7-14.4-1.1-1.2-2.1-2.6-3.1-3.9-.4-1.5.2-1.8,1.5-1.3h0Z"/>
            <path id="path425" class="cls-69" d="M415.2,494.6c.5,1.4.9,2.8,1.4,4.2.8,3-1.2,3.9-3.4,4.1-7,.8-12.6,3.7-16.9,9.3-1.1,1.4-2.6,2.1-4.3.9-.7-1.7-1.7-1.3-2.7-.4-1.4,1.3-2.5,2.9-4.6,3.1,1.4-8.7,8.5-12.3,15-16.3,4.6-2.7,9.8-4.6,15.5-4.9h0Z"/>
            <path id="path427" class="cls-47" d="M484.2,307.5l-1.5,1.5c-8.2-6.4-14.9-14.4-18.8-23.6-2.8-6.6-5.7-14.5-2.6-22.4h1c3.8,1.2,4,4.8,4.4,7.6,1.5,11.5,7.9,20.4,15,28.9,1.8,2.2,4.9,4.3,2.5,8Z"/>
            <path id="path429" class="cls-79" d="M446.8,483c-1.4.5-2.8,1-4.2,1.5.3-4.8,2.2-7.8,6.9-10.4,4.6-2.5,7.7-7.6,11.4-11.6,3.5-3.7,7-7.5,12.3-8.8-9,9.6-18.7,18.6-26.4,29.3h0Z"/>
            <path id="path431" class="cls-61" d="M513.2,455.5c-.5,1-1,1.9-1.5,2.9-8.5-3.6-16.2-9-25.7-9.9-2.3-.2-3-1.5-.3-2.8s5.9-.3,8.7-1.4c4.3,1.8,7.8,5,12.7,5.7,2.5.4,4.5,3,6.1,5.5h0Z"/>
            <path id="path433" class="cls-29" d="M308.4,486.2c-.5.4-1,.9-1.4,1.3-3.9-6.1-9.6-10.2-15.9-12.9-9.5-4-17.8-10.2-27.5-13.8,2.4-1.3,4.7-.3,6.7.8,7.9,4.5,16.4,7.7,24.5,11.6,5.6,2.9,11.2,6.4,13.6,13h0Z"/>
            <path id="path435" class="cls-69" d="M344.6,494.5c4.5-.5,8.9-1,13.4-1.3,9.5-.7,21.5,7.3,22.6,18.7-.3.2-.6.4-.9.5-2.8.5-4.2-1.3-5.6-3.4-4.4-6.6-10.2-9.5-18.7-8.6-5,.5-11.4,2.9-15.7-2.9.2-3.4,3.7-1.3,4.9-3h0Z"/>
            <path id="path437" class="cls-21" d="M300.8,545h1.9c3.2,1.6,2.5,4.3,1.7,6.8-3.2,9.7-8.2,18.6-11.6,28.2-.2.6-1.1.8-1.8,1.1-3.2,2.1-5.9,1-8.3-1.4,7.4-8.4,12.1-18.3,15.7-28.7.7-2.1.9-4.3,2.4-5.9v-.1h0Z"/>
            <path id="path439" class="cls-44" d="M513,474.4c-.3,1.9-.4,3.8-1,5.5-.7,2.1-2.4,3.6-4.8,3.6s-3.9-1.5-4.8-3.6c-.9-2.2-.3-4.2,1.3-5.9,1.9-2.1,5.3-2.4,6.4-5.4,1.6,1.7,2.5,3.6,2.9,5.8h0Z"/>
            <path id="path441" class="cls-60" d="M158.9,437c-2.8-11.9-3.9-23.9-1.4-36,2.8,2.2,2.8,5.3,2.9,8.4.1,9.3-.6,18.4-1.5,27.6Z"/>
            <path id="path443" class="cls-71" d="M183.5,376.5c-2.9-2-5.8-4.1-8.8-6-3.6-2.3-7.3-4.3-9.7-8.1-1.4-2.2-3-1.9-4.5,0-.3-2.7,1.3-4.5,2.9-6.2.9-.4,2-.8,2.7-.1,7,6.4,15.1,11.4,23.4,16,1.3.7,1.7,2.2,1.5,3.8-.2.3-.4.6-.6.9-2.3-.2-4.6-.2-6.9-.3h0Z"/>
            <path id="path445" class="cls-29" d="M243.8,432.7c.5-.5,1.1-1,1.6-1.6,3,.7,4.9,2.9,6.2,5.5,2.6,5.3,5,10.7,7.2,16.2,2.1,5.2-1.9,8.3-4.5,11.9-.4.2-.7.3-1.1.5.1-.4.2-.8.3-1.2,1.6-4.1,4.2-8.1,1.7-12.8-3.4-6.4-3.2-15-11.4-18.5h0Z"/>
            <path id="path447" class="cls-80" d="M494.3,444.2c-2.3,3.9-5.4,3.2-8.7,1.4,1.9-3.9,3.7-7.7,5.6-11.6,2.3,1.8,3.1,4.3,3.1,7.1-.7-.3-1.4-1.3-2.2-.5s0,1.3.3,1.7c.5.8,1.3,1.4,1.9,1.9h0Z"/>
            <path id="path449" class="cls-16" d="M469.8,247c.6.6,1.2,1.2,1.8,1.8,3.1,1.8,2.6,4.2.8,6.4-2.5,2.9-4.7,6.7-9.7,4.7-1-.7-1.9-1.4-1.5-2.8.1-5.7,5.2-7.2,8.6-10.1h0Z"/>
            <path id="path451" class="cls-80" d="M412.3,228.2c.4.2,1,.3,1.3.6,4.7,5.7,10,10.6,16.6,14.2-9.4-.8-15.2-5.8-18-14.6v-.2h.1Z"/>
            <path id="path453" class="cls-64" d="M190.6,531c-5.8-2.1-8.7-6.9-11.4-12,5.8.7,9.4,4.5,12.8,8.7-2,.4-1.6,1.9-1.4,3.3h0Z"/>
            <path id="path455" class="cls-46" d="M495.6,339.1c-1.6-.5-2.5.2-2.9,1.6-1.8-6.7-2.5-13.2,1.9-20.2,1.7,3.4,0,5.9-.3,8.4-.3.3-.5.7-.6,1.1,0-.4.3-.7.6-1,1.8,3.2,1.3,6.7,1.3,10.1Z"/>
            <path id="path457" class="cls-24" d="M315.6,508.8c.2-2.5.1-5,1.8-7.1,1.9-.9,3.7-1.9,5.6-2.8,1.2,1,3.4.4,3.8,2.5-1.9,9.3-4.9,11.3-11.2,7.4h0Z"/>
            <path id="path459" class="cls-74" d="M233.3,494c.5-1.4,1.4-2.5,2.6-3.4,5.3-3.7,9.8-8.3,13.9-14.5-.9,6.6-5.3,11.7-15.7,18.8-.4,0-.8.2-1.3.3.2-.3.4-.7.5-1.2h0Z"/>
            <path id="path461" class="cls-59" d="M184.9,440c-.5-.5-1-.9-1.4-1.4,13.9-4.8,21.2-6.1,29.5-5.1-10.3,2.1-19.4,3.4-28.1,6.5Z"/>
            <path id="path463" class="cls-41" d="M326,500.5c-1.2-.2-2.2-.7-3-1.7,6.9-3.1,14-5.1,21.6-4.4-1.5.9-3,1.9-4.4,2.8-3.7,5.7-8.6,6-14.2,3.3h0Z"/>
            <path id="path465" class="cls-47" d="M461.2,257.1c.6.5,1.1.9,1.7,1.4.9,2,1.6,4-1.7,4.3h.1c-2-5.5-8-6.4-11.7-9.9-.2-1.3.3-2,1.6-1.7,3.2,2.1,7.3,2.7,10,5.9h0Z"/>
            <path id="path467" class="cls-78" d="M229.3,500.3c-2.3,2.9-4.5,5.7-6.8,8.6-.2-4.1,2.3-6.3,4.7-8.7.7-1.2,1.4-1.2,2.1.1h0Z"/>
            <path id="path469" class="cls-80" d="M451.1,251.2c-.5.6-1.1,1.1-1.6,1.7-.7-.1-1.4-.2-2-.3-.9-.2-1.9-.7-1.7-1.7.2-1.4,1.5-1.8,2.6-1.4,1,.2,1.8,1,2.7,1.7h0Z"/>
            <path id="path471" class="cls-69" d="M383.4,516.2c-.9,1.9-1.9,3.9-2.8,5.8-4.2-3.4-3.9-6.8-.1-10.2h-.1c1.8,1,2.7,2.5,3,4.4Z"/>
            <path id="path473" class="cls-44" d="M494.3,552.1c-.5,1.1-1.3,2.7-2.5,1.8-1.8-1.4,0-2.3,1-3.3,1.4-.3,2,0,1.5,1.5Z"/>
            <path id="path475" class="cls-80" d="M407.9,228.3c1-1.9.3-3.7-.1-5.5,2.4,1.1,4,2.9,4.6,5.5l-.2.2c-1.5-.1-2.9-.2-4.3-.2Z"/>
            <path id="path477" class="cls-29" d="M198.1,379.2c-.7.1-1.4.2-2.1.3-2.2-.3-4.3-.8-5.5-2.9v-.2c4-2.7,6.5-1.8,7.6,2.8h0Z"/>
            <path id="path479" class="cls-21" d="M229.3,500.3h-2.1c1.5-2.6,3.5-4.7,6.1-6.1.3.3.5.6.8.9-1.6,1.7-3.2,3.5-4.8,5.3v-.1h0Z"/>
            <path id="path481" class="cls-44" d="M432.4,234.1h10.1c-3.4,1.9-6.8,1.9-10.1,0Z"/>
            <path id="path483" class="cls-44" d="M494.3,552.1l-1.4-1.4v-7.2c1,1.9,1.9,3.8,2.9,5.8-.6.9-1,1.9-1.5,2.8h0Z"/>
            <path id="path485" class="cls-68" d="M254.3,464.7c-.8,1.8-1.2,3.9-3.8,5.3,0-2.8,1.5-4.4,3-6,.2.3.5.5.8.7Z"/>
            <path id="path487" class="cls-44" d="M302.8,277.2c-.1,2.9.3,6-1.4,8.6.1-2.9-.3-5.9,1.4-8.6Z"/>
            <path id="path489" class="cls-71" d="M522.8,383.9c2.1-.4,4.5-1.9,6,1.1-2,.2-4.1,0-6-1.1Z"/>
            <path id="path491" class="cls-44" d="M443.9,234.1c2.5,0,5,0,7.2,1.4-2.5,0-5,.1-7.2-1.4Z"/>
            <path id="path493" class="cls-44" d="M276.9,504.6c-1.4-1.9-1.4-3.8,0-5.8v5.8Z"/>
            <path id="path495" class="cls-44" d="M389.2,494.6c1.7-1.2,3.7-1.4,5.8-1.4-1.8,1.1-3.8,1.4-5.8,1.4Z"/>
            <path id="path497" class="cls-44" d="M320.1,487.4h5.8c-2,1.3-3.9,1.3-5.8,0Z"/>
            <path id="path499" class="cls-44" d="M356.1,484.5c1.9-1.4,3.8-1.4,5.8,0h-5.8Z"/>
            <path id="path501" class="cls-44" d="M468.4,474.4c0,2-.2,4-1.4,5.8,0-2.1.2-4.1,1.4-5.8Z"/>
            <path id="path503" class="cls-44" d="M505.8,464.3c-2,0-4-.2-5.8-1.4,2.1,0,4.1.2,5.8,1.4Z"/>
            <path id="path505" class="cls-44" d="M327.3,265.7c-1.7,1.2-3.7,1.4-5.8,1.4,1.8-1.1,3.8-1.4,5.8-1.4Z"/>
            <path id="path507" class="cls-80" d="M437.4,246.3c.2.4.4.7.6,1.1-.2.1-.6.3-.6.2-.2-.3-.4-.7-.6-1l.6-.3h0Z"/>
            <path id="path509" class="cls-44" d="M298.5,519c-1.2-1.7-1.4-3.7-1.4-5.8,1.2,1.8,1.4,3.8,1.4,5.8Z"/>
            <path id="path511" class="cls-60" d="M276.7,231.4c.6,1.4,1.3,2.7,1.9,4.1,9.8,14.9,11.2,31.8,11.1,48.9-5.7,10.7-10.2,22.1-17.1,32.1-1.1,1.6-2.2,3.1-3.4,4.6-7.9,9.9-10.9,10.7-22.3,5.3-13.4-6.3-26.8-12.5-39.5-19.9-1.2-.7-2.7-1-4-1.5-7.4-3.1-12.7-9-18.9-13.7-1.8-1.4-2.1-3-1.2-5,1.1-2.4,1.8-4.9,1.4-7.6.3-.7.8-1.3.8-2,.2-6.8,3.7-12,7.9-16.9,9.1-11.3,18-22.8,27.3-33.9,6.8-8.3,14-16.3,23.4-21.9,1.9.4,3.8,1.5,5.6,1.2,6.7-1.2,10.9,2.1,14.1,7.4,2.6,5.3,5.5,10.4,10.1,14.2.3,1.9,1.2,3.4,2.8,4.6h0Z"/>
            <path id="path513" class="cls-44" d="M198.1,379.2c-2.3-1.5-4.6-2.9-7.5-2.7-3.9-2.2-7.9-4.4-11.8-6.6-6.1-3.4-11.4-7.8-15.3-13.7-1.1-8.5,1.5-16.6,3.5-24.7,2.3-9.7,5-19.4,8.9-28.7.6-1.3,1-2.7,1.7-3.9,3.1-6.1,4.5-6.5,9.3-1.9,5.2,4.9,11.1,9,16.8,13.3,9.4,6.4,19.3,11.2,30.6,13.3,8.4,1.5,18.5,11.9,18.3,21.4-.2,10.6-1,21-3.4,31.3-1.8,7.7-6.3,11.6-14.1,11.1-10.7-.7-21.3-2.7-31.4-6.5-1.9-.7-3.6-1.7-5.6-1.7h0Z"/>
            <path id="path515" class="cls-44" d="M461.1,262.8c1.2-1.2,1.3-2.8,1.7-4.3,4.7-1.6,8.1-4.4,8.7-9.7,6.8-4.5,11.9-11.1,18.6-15.7,8.9-6.1,15.7-14.5,24.8-20.5,9.3-6.1,13.1-6.6,22.6-.6,6.1,5.2,11,11.5,15,18.2,4.5,7.6,10.3,14.5,14.4,22.3,5.3,10.1,12.4,19.3,15.6,30.6,2.7,9.4,2,11-7.6,11.4-1.6-1.5-3.1-2.7-5.7-2.2-17.4,3.4-34.9,6.5-51.3,13.4-4.9,2-9.8,3.8-14.8,5.7-4.5,1.7-8.9,1.5-13.1-1.1-1.8-1.1-3.9-1.9-5.8-2.8-2.7-3-5.3-6.1-8.1-9-8.7-9-11.5-20.5-14.1-32.2-.3-1.2-.6-2.3-.9-3.5h0Z"/>
            <path id="path517" class="cls-12" d="M533.3,206.8c-5.6-.4-9.3-3.6-11.5-8.6,3-2.1,3.6,1.7,5.5,2.2,2,2.1,4,4.2,6,6.4h0Z"/>
            <path id="path519" class="cls-86" d="M586.2,294.1c.3.5.8,1.1.8,1.6,0,.8-.8.9-1.4.6-.6-.3-1-1-.6-1.6.1-.3.7-.4,1.2-.6Z"/>
            <path id="path521" class="cls-52" d="M598.1,323.1c-.4.5-.8,1.1-1.2,1.6-.8-1.4.8-1.1,1.2-1.6h0Z"/>
            <path id="path523" class="cls-44" d="M392,513.2c5.2-9.9,13.8-14.1,24.6-14.4h1.4c4.8-.9,9.7-.8,14.5,0,7.2,1,12.7,3.9,14.5,11.7.3,1.3,1.3,2.5,2.1,3.7,8.3,11.8,14.6,24.6,20.3,37.8,2.3,5.3,6.3,9.6,10.3,13.7,1.3,2.7,1.4,4.9-1.8,6.4-16.8,7.6-33.8,14.4-52.4,16.4-6.8.5-13.7,1-20.5,1.5-5.9,3.7-12.6,1.2-18.8,2.3-1.7,0-3.4.3-5,0-5.8-.8-8.3-4.2-7.2-10.1,2.5-14.1,5.3-28.1,7.6-42.3,1.1-7.1,1.4-14.3,5.7-20.5,1.3-2.1,2.5-4.5,4.7-6.1v-.1h0Z"/>
            <path id="path525" class="cls-52" d="M600.7,379.3c0,.7,0,1.4-.7,1.7-.2-.6-.5-1.2-.5-1.8s.2-1.1.4-1.1c1-.1.6.8.8,1.2h0Z"/>
            <path id="path527" class="cls-44" d="M380.6,511.8c0,3.4,0,6.8.1,10.2-.6,8.5-1.5,16.9-3.5,25.3-1.6,6.6-1.9,13.6-3.5,20.3-1,4.3-5.1,7.1-4.5,11.8,1.2,1.8,3,3.4,1.2,5.8h0c-.9.9-.9,2,0,3h0c-.4.8-1.3,1.7-1.2,2.4.5,4.2-.4,5.5-4.2,2.4-1.4-1.1-2.3.9-3.2,1.9-3.8.2-7.5.3-11.3.5-8.4-1.5-16.9-2.2-25.3-3.3-7.6-1-15.5-1.2-22.4-5.5-1-1.9-2.8-2.3-4.6-2.7-2.5-.5-5-1.2-7-2.9-1.2-3.2-.9-5.9.8-9.3,4.3-8.6,9.1-17.2,10.9-26.9,1.7-3.5,3-7,3.1-10.9,0-1.2.3-2.5.8-3.5,3.9-6.8,6.2-14.4,9-21.7,2.8.2,5-.4,6.4-3.2.9-1.9,2.6-3.4,3.9-5,4.5-2.2,9.3-2.7,14.2-3.2,5,0,10-.9,15,0,6.7-4.6,11.4.7,16.6,3.5,2.4,1.3,3.9,3.5,5.1,5.9.9,2,1.6,4,3.6,5.2v-.1h0Z"/>
            <path id="path529" class="cls-9" d="M386,592.1c6.1-2.1,12.7-.4,18.8-2.3-1.3,2.6-3.7,2.6-6,2.7-2.3,0-4.7,0-6.8,1.4-1.9-.6-3.9-1.2-6-1.8h0Z"/>
            <path id="path531" class="cls-9" d="M370.4,585.2c-.4-1.9-.8-3.9-1.2-5.8,1-.7,2.2-1.5,2.6.5.4,1.9-.1,3.7-1.4,5.3Z"/>
            <path id="path533" class="cls-9" d="M370.4,588.2c-2-1-2.2-2.1,0-3.1v3.1Z"/>
            <path id="path535" class="cls-44" d="M198.1,532.5c.4.2.8.3,1.2.5-.2.3-.4.9-.7,1s-.7-.3-1.1-.4c.1-.5.4-.8.6-1.1Z"/>
            <path id="path537" class="cls-19" d="M505.9,381.4c.6,0,1.4.2,1.4.9,0,1.5-1.2,1.8-2.3,2-.8.1-1.4-.5-1.2-1.3.2-1,1-1.5,2.1-1.6Z"/>
            <path id="path539" class="cls-76" d="M521.2,380.9c-2.4,2.1-5.5.8-8.2,1.6,2.3-2.8,5.5-.8,8.2-1.6Z"/>
            <path id="path541" class="cls-69" d="M432.4,498.6h-14.5c4.9-1.8,9.7-1.7,14.5,0Z"/>
            <path id="path543" class="cls-44" d="M475.5,555c1.1.3,2.1,1,2.7,2.1.5.9,1.3,1.9.6,3.5-2.1-1.5-2.8-3.5-3.1-5.7l-.2.1h0Z"/>
            <path id="path545" class="cls-71" d="M494.3,329c0,1.5-.2,2.9-.4,5.1-1.5-2.5-.3-3.8.4-5.1h0Z"/>
          </g>
        </g>
        <g id="labels">
          <line id="line550" class="cls-2" x1="568.3" y1="344.2" x2="640.2" y2="344.2"/>
          <line id="line552" class="cls-4" x1="568.3" y1="343.2" x2="640.2" y2="343.2"/>
          <g id="g618">
            <path id="path554" d="M653,347.3h-1.4v-11.6h1.4v11.6Z"/>
            <path id="path556" d="M657,347.3h-1.3v-8.7h1.3v1.4h0c.4-.9,1.2-1.5,2.5-1.5s3,1.1,3,3.3v5.5h-1.3v-5.4c0-1.4-.8-2.2-2-2.2s-2.2.9-2.2,2.4v5.2h0Z"/>
            <path id="path558" d="M666.4,347.3h-1.3v-8.7h1.3v1.4h0c.4-.9,1.2-1.5,2.5-1.5s3,1.1,3,3.3v5.5h-1.3v-5.4c0-1.4-.8-2.2-2-2.2s-2.2.9-2.2,2.4v5.2h0Z"/>
            <path id="path560" d="M674,343c0-2.7,1.6-4.5,3.9-4.5s3.7,1.1,3.7,4.4v.6h-6.3c0,1.9,1.1,2.9,2.7,2.9s1.8-.5,2.2-1.4l1.3.4c-.4,1.3-1.7,2.2-3.5,2.2-2.5-.2-4-2-4-4.6h0ZM680.3,342.2c0-1.5-.9-2.6-2.4-2.6s-2.5,1.2-2.6,2.6h5Z"/>
            <path id="path562" d="M683.7,338.5h1.3v1.3h0c.3-.9,1.2-1.5,2.3-1.5h.7v1.4s-.5-.1-.8-.1c-1.3,0-2.2.9-2.2,2v5.5h-1.3v-8.6h0Z"/>
            <path id="path564" d="M694.2,338.5h1.3v1.4h0c.4-.9,1.2-1.5,2.3-1.5s1.9.5,2.3,1.5h0c.4-.9,1.4-1.5,2.6-1.5s2.7.9,2.7,3v5.8h-1.3v-5.8c0-1.3-.8-1.8-1.8-1.8s-1.9.8-1.9,2v5.7h-1.4v-6c0-1-.7-1.7-1.7-1.7s-2,.9-2,2.2v5.4h-1.3v-8.7h.2Z"/>
            <path id="path566" d="M707.7,343c0-2.7,1.6-4.5,3.9-4.5s3.7,1.1,3.7,4.4v.6h-6.3c0,1.9,1.1,2.9,2.7,2.9s1.8-.5,2.2-1.4l1.3.4c-.4,1.3-1.7,2.2-3.5,2.2-2.5-.2-4-2-4-4.6h0ZM714,342.2c0-1.5-.9-2.6-2.4-2.6s-2.5,1.2-2.6,2.6h5Z"/>
            <path id="path568" d="M717,342.9c0-2.7,1.5-4.5,3.7-4.5s2.2,1,2.5,1.5h0v-4.3h1.3v11.6h-1.3v-1.3h-.2c-.3.5-.9,1.5-2.5,1.5-2.1,0-3.6-1.7-3.6-4.5h.1ZM723.4,342.9c0-2-.9-3.3-2.5-3.3s-2.5,1.4-2.5,3.3.9,3.3,2.5,3.3,2.5-1.3,2.5-3.3Z"/>
            <path id="path570" d="M732.8,338.5h1.3v8.7h-1.3v-1.5h0c-.4.9-1.3,1.6-2.6,1.6s-2.8-1.1-2.8-3.3v-5.5h1.3v5.4c0,1.3.8,2.1,1.9,2.1s2.2-.7,2.2-2.4v-5.1h0Z"/>
            <path id="path572" d="M738,347.3h-1.3v-11.6h1.3v11.6Z"/>
            <path id="path574" d="M741.8,347.3h-1.3v-11.6h1.3v11.6Z"/>
            <path id="path576" d="M743.8,344.8c0-2,1.8-2.4,3.4-2.6,1.6-.2,2.2-.1,2.2-.8h0c0-1.1-.6-1.8-1.8-1.8s-2,.7-2.3,1.3l-1.3-.5c.7-1.6,2.2-2,3.5-2s3.2.3,3.2,3.1v5.7h-1.3v-1.1h0c-.3.6-1.1,1.4-2.6,1.4s-2.9-1-2.9-2.7h-.1ZM749.4,344.1v-1.2c-.2.3-1.7.4-2.3.5-1,.1-2,.5-2,1.5s.8,1.4,1.8,1.4c1.7,0,2.5-1.1,2.5-2.2h0Z"/>
            <path id="path578" d="M753.2,338.5h1.3v1.3h0c.3-.9,1.2-1.5,2.3-1.5h.7v1.4s-.5-.1-.8-.1c-1.3,0-2.2.9-2.2,2v5.5h-1.3v-8.6h0Z"/>
            <path id="path580" d="M759.3,350.4l.3-1.2c1,.2,1.6.1,2.1-1.2l.2-.7-3.2-8.8h1.5l2.4,6.9h0l2.4-6.9h1.5l-3.7,10c-.5,1.4-1.4,2-2.6,2h-1l.1-.1h0Z"/>
            <path id="path582" d="M651,362.1c0-2.7,1.6-4.5,3.9-4.5s3.2,1.1,3.5,2.7h-1.3c-.2-.8-.9-1.5-2.1-1.5s-2.6,1.3-2.6,3.3,1,3.3,2.6,3.3,1.8-.6,2.1-1.5h1.3c-.2,1.5-1.5,2.7-3.4,2.7s-4-1.8-4-4.5Z"/>
            <path id="path584" d="M660,362.1c0-2.7,1.6-4.5,4-4.5s4,1.8,4,4.5-1.6,4.5-4,4.5-4-1.8-4-4.5ZM666.5,362.1c0-1.7-.8-3.3-2.6-3.3s-2.6,1.6-2.6,3.3.8,3.3,2.6,3.3,2.6-1.5,2.6-3.3Z"/>
            <path id="path586" d="M671.3,366.5h-1.4v-11.6h1.3v11.6h.1Z"/>
            <path id="path588" d="M675,366.5h-1.3v-11.6h1.3v11.6Z"/>
            <path id="path590" d="M677.1,362.2c0-2.7,1.6-4.5,3.9-4.5s3.7,1.1,3.7,4.4v.6h-6.3c0,1.9,1.1,2.9,2.7,2.9s1.8-.5,2.2-1.4l1.3.4c-.4,1.3-1.7,2.2-3.5,2.2-2.5-.2-4-2-4-4.6h0ZM683.4,361.4c0-1.5-.9-2.6-2.4-2.6s-2.5,1.2-2.6,2.6h5Z"/>
            <path id="path592" d="M686.4,362.1c0-2.7,1.6-4.5,3.9-4.5s3.2,1.1,3.5,2.7h-1.3c-.2-.8-.9-1.5-2.1-1.5s-2.6,1.3-2.6,3.3,1,3.3,2.6,3.3,1.8-.6,2.1-1.5h1.3c-.2,1.5-1.5,2.7-3.4,2.7s-4-1.8-4-4.5Z"/>
            <path id="path594" d="M699.5,358.9h-1.9v5.1c0,1.1.6,1.3,1.2,1.3s.5,0,.6-.1l.3,1.2c-.2.1-.5.2-1,.2-1.1,0-2.4-.7-2.4-2.2v-5.4h-1.3v-1.1h1.3v-2.1h1.3v2.1h1.9v1h0Z"/>
            <path id="path596" d="M701.3,355.4c0-.5.4-.9,1-.9s1,.4,1,.9-.4.9-1,.9-1-.4-1-.9ZM701.6,357.7h1.3v8.7h-1.3v-8.7Z"/>
            <path id="path598" d="M706.7,366.5h-1.3v-8.7h1.3v1.4h0c.4-.9,1.2-1.5,2.5-1.5s3,1.1,3,3.3v5.5h-1.4v-5.4c0-1.4-.8-2.2-2-2.2s-2.2.9-2.2,2.4v5.2h.1Z"/>
            <path id="path600" d="M714.7,368.2l1.1-.7c.4.5.9,1.3,2.5,1.3s2.4-.7,2.4-2.1v-1.8h0c-.3.5-.8,1.5-2.5,1.5s-3.7-1.5-3.7-4.3,1.5-4.4,3.7-4.4,2.2,1,2.5,1.5h0v-1.4h1.3v9c0,2.2-1.7,3.2-3.8,3.2-1.9-.1-3-.9-3.5-1.8h0ZM720.7,362c0-1.9-.9-3.2-2.5-3.2s-2.5,1.4-2.5,3.2.9,3.1,2.5,3.1,2.5-1.1,2.5-3.1Z"/>
            <path id="path602" d="M728.6,362.1c0-2.7,1.5-4.5,3.7-4.5s2.2,1,2.5,1.5h0v-4.3h1.3v11.6h-1.3v-1.3h-.2c-.3.5-.9,1.5-2.5,1.5s-3.6-1.7-3.6-4.5h.1ZM734.9,362.1c0-2-.9-3.3-2.5-3.3s-2.5,1.4-2.5,3.3.9,3.3,2.5,3.3,2.5-1.3,2.5-3.3Z"/>
            <path id="path604" d="M744.4,357.7h1.3v8.7h-1.3v-1.5h0c-.4.9-1.3,1.6-2.6,1.6s-2.8-1.1-2.8-3.3v-5.5h1.3v5.4c0,1.3.8,2.1,1.9,2.1s2.2-.7,2.2-2.4v-5.1h0Z"/>
            <path id="path606" d="M747.8,362.1c0-2.7,1.6-4.5,3.9-4.5s3.2,1.1,3.5,2.7h-1.3c-.2-.8-.9-1.5-2.1-1.5s-2.6,1.3-2.6,3.3,1,3.3,2.6,3.3,1.8-.6,2.1-1.5h1.3c-.2,1.5-1.5,2.7-3.4,2.7s-4-1.8-4-4.5Z"/>
            <path id="path608" d="M760.9,358.9h-1.9v5.1c0,1.1.6,1.3,1.2,1.3s.5,0,.6-.1l.3,1.2c-.2.1-.5.2-1,.2-1.1,0-2.4-.7-2.4-2.2v-5.4h-1.3v-1.1h1.3v-2.1h1.3v2.1h1.9v1h0Z"/>
            <path id="path610" d="M767,362.1c0-2.7,1.6-4.5,3.9-4.5s3.2,1.1,3.5,2.7h-1.3c-.2-.8-.9-1.5-2.1-1.5s-2.6,1.3-2.6,3.3,1,3.3,2.6,3.3,1.8-.6,2.1-1.5h1.3c-.2,1.5-1.5,2.7-3.4,2.7s-4-1.8-4-4.5Z"/>
            <path id="path612" d="M776,362.2c0-2.7,1.6-4.5,3.9-4.5s3.7,1.1,3.7,4.4v.6h-6.3c0,1.9,1.1,2.9,2.7,2.9s1.8-.5,2.2-1.4l1.3.4c-.4,1.3-1.7,2.2-3.5,2.2-2.5-.2-4-2-4-4.6h0ZM782.3,361.4c0-1.5-.9-2.6-2.4-2.6s-2.5,1.2-2.6,2.6h5Z"/>
            <path id="path614" d="M787,366.5h-1.3v-11.6h1.3v11.6Z"/>
            <path id="path616" d="M790.8,366.5h-1.3v-11.6h1.3v11.6Z"/>
          </g>
          <g id="g628">
            <path id="path620" d="M611.2,613.6h-1.4v-10.1h0l-2.8,1.9v-1.4l2.9-1.9h1.4v11.5h-.1Z"/>
            <path id="path622" d="M614.3,607.8c0-3.8,1.5-6,4-6s4,2.2,4,6-1.5,6-4,6-4-2.2-4-6ZM621,607.8c0-3-1-4.7-2.7-4.7s-2.7,1.7-2.7,4.7,1,4.7,2.7,4.7,2.7-1.7,2.7-4.7Z"/>
            <path id="path624" d="M629.1,604.9h1.3v5.2c0,1.4,1,2.4,2.4,2.4s2.4-1,2.4-2.4v-5.2h1.3v8.7h-1.3v-1.3h0c-.5.9-1.4,1.4-2.3,1.4s-1.9-.5-2.3-1.4h0v4.6h-1.3v-12h-.2Z"/>
            <path id="path626" d="M639,604.9h1.3v1.4h0c.4-.9,1.2-1.5,2.3-1.5s1.9.5,2.3,1.5h0c.4-.9,1.4-1.5,2.6-1.5s2.7.9,2.7,3v5.8h-1.3v-5.8c0-1.3-.8-1.8-1.8-1.8s-1.9.8-1.9,2v5.7h-1.4v-6c0-1-.7-1.7-1.7-1.7s-2,.9-2,2.2v5.4h-1.3v-8.7h.2Z"/>
          </g>
          <line id="line630" class="cls-3" x1="686.1" y1="575.9" x2="686.1" y2="596.6"/>
          <line id="line823" class="cls-3" x1="572.2" y1="575.9" x2="572.2" y2="596.6"/>
          <line id="line825" class="cls-3" x1="571.8" y1="586.2" x2="685.8" y2="586.2"/>
          <line id="line827" class="cls-2" x1="56.6" y1="87.6" x2="56.6" y2="45.7"/>
          <line id="line829" class="cls-4" x1="55.6" y1="87.6" x2="55.6" y2="45.7"/>
          <g id="g897">
            <path id="path831" d="M55.1.5h7v1.2h-5.6v3.9h5.2v1.2h-5.2v4h5.7v1.3h-7.1s0-11.6,0-11.6Z"/>
            <path id="path833" d="M65.8,12.1h-1.3V3.4h1.3v1.4h0c.4-.9,1.2-1.5,2.5-1.5s3,1.1,3,3.3v5.5h-1.3v-5.4c0-1.4-.8-2.2-2-2.2s-2.2.9-2.2,2.4v5.2h0Z"/>
            <path id="path835" d="M73.4,7.8c0-2.7,1.5-4.5,3.7-4.5s2.2,1,2.5,1.5h0V.5h1.3v11.6h-1.3v-1.3h-.2c-.3.5-.9,1.5-2.5,1.5s-3.6-1.7-3.6-4.5h.1ZM79.8,7.8c0-2-.9-3.3-2.5-3.3s-2.5,1.4-2.5,3.3.9,3.3,2.5,3.3,2.5-1.4,2.5-3.3Z"/>
            <path id="path837" d="M83.3,7.8c0-2.7,1.6-4.5,4-4.5s4,1.8,4,4.5-1.6,4.5-4,4.5-4-1.8-4-4.5ZM89.9,7.8c0-1.7-.8-3.3-2.6-3.3s-2.6,1.6-2.6,3.3.8,3.3,2.6,3.3,2.6-1.5,2.6-3.3Z"/>
            <path id="path839" d="M97.1,4.5h-1.9v5.1c0,1.1.6,1.3,1.2,1.3h.6l.3,1.2c-.2,0-.5.2-1,.2-1.1,0-2.4-.7-2.4-2.2v-5.4h-1.3v-1.1h1.3V1.5h1.3v2.1h1.9v1h0v-.1Z"/>
            <path id="path841" d="M100.6,12.1h-1.3V.5h1.3v4.3h.1c.4-.9,1.2-1.5,2.6-1.5s3,1,3,3.3v5.5h-1.4v-5.4c0-1.4-.8-2.2-2-2.2s-2.3.9-2.3,2.4v5.2h0Z"/>
            <path id="path843" d="M108.3,7.8c0-2.7,1.6-4.5,3.9-4.5s3.7,1.1,3.7,4.4v.6h-6.3c.1,1.9,1.1,2.9,2.7,2.9s1.8-.5,2.2-1.4l1.4.3c-.4,1.3-1.7,2.2-3.5,2.2s-4.1-1.8-4.1-4.5h0ZM114.6,7.1c0-1.5-.9-2.6-2.4-2.6s-2.5,1.2-2.6,2.6h5Z"/>
            <path id="path845" d="M119.4,12.1h-1.3V.5h1.3v11.6Z"/>
            <path id="path847" d="M121.6,1c0-.5.4-.9,1-.9s1,.4,1,.9-.4.9-1,.9-1-.4-1-.9ZM121.9,3.4h1.3v8.7h-1.3V3.4Z"/>
            <path id="path849" d="M131.1,3.4h1.3v8.7h-1.3v-1.5h-.1c-.4.9-1.3,1.6-2.6,1.6s-2.8-1.1-2.8-3.3V3.4h1.3v5.4c0,1.3.8,2.1,1.9,2.1s2.2-.7,2.2-2.4V3.4h.1Z"/>
            <path id="path851" d="M134.9,3.4h1.3v1.4h.1c.4-.9,1.2-1.5,2.3-1.5s1.9.5,2.3,1.5h.1c.4-.9,1.4-1.5,2.6-1.5s2.7.9,2.7,3v5.8h-1.3v-5.8c0-1.3-.8-1.8-1.8-1.8s-1.9.8-1.9,2v5.6h-1.4v-6c0-1-.7-1.7-1.7-1.7s-2,.9-2,2.2v5.5h-1.3V3.4h0Z"/>
            <path id="path853" d="M152.9,7.8c0-2.7,1.6-4.5,4-4.5s4,1.8,4,4.5-1.6,4.5-4,4.5-4-1.8-4-4.5ZM159.5,7.8c0-1.7-.8-3.3-2.6-3.3s-2.6,1.6-2.6,3.3.8,3.3,2.6,3.3,2.6-1.5,2.6-3.3Z"/>
            <path id="path855" d="M166.8,4.5h-2v7.6h-1.3v-7.6h-1.4v-1.1h1.4v-1.2c0-1.5,1.2-2.2,2.5-2.2s1.1,0,1.3.2l-.4,1.2h-.8c-.9,0-1.2.5-1.2,1.3v.9h2v1h-.1v-.1Z"/>
            <path id="path857" d="M54.9,22.6h1.3v1.4h.2c.3-.5.8-1.5,2.5-1.5s3.7,1.7,3.7,4.5-1.5,4.5-3.7,4.5-2.2-1-2.5-1.5h0v4.6h-1.4v-12s-.1,0-.1,0ZM58.7,30.3c1.7,0,2.5-1.5,2.5-3.3s-.8-3.3-2.5-3.3-2.5,1.3-2.5,3.3.9,3.3,2.5,3.3Z"/>
            <path id="path859" d="M64.2,27c0-2.7,1.6-4.5,3.9-4.5s3.7,1.1,3.7,4.4v.6h-6.3c0,1.9,1.1,2.9,2.7,2.9s1.8-.5,2.2-1.4l1.3.4c-.4,1.3-1.7,2.2-3.5,2.2-2.4,0-4-1.9-4-4.6ZM70.5,26.3c0-1.5-.9-2.6-2.4-2.6s-2.5,1.2-2.6,2.6h5Z"/>
            <path id="path861" d="M73.9,22.6h1.3v1.3h0c.3-.9,1.2-1.5,2.3-1.5h.7v1.4h-.8c-1.3,0-2.2.9-2.2,2v5.5h-1.4v-8.6s.1-.1.1-.1Z"/>
            <path id="path863" d="M79.6,20.2c0-.5.4-.9,1-.9s1,.4,1,.9-.4.9-1,.9c-.5,0-1-.4-1-.9ZM79.9,22.6h1.3v8.7h-1.3s0-8.7,0-8.7Z"/>
            <path id="path865" d="M87.5,23.7h-1.9v5.1c0,1.1.6,1.3,1.2,1.3h.6l.3,1.2c-.2,0-.5.2-1,.2-1.1,0-2.4-.7-2.4-2.2v-5.4h-1.3v-1.1h1.3v-2.1h1.3v2.1h1.9v1h0v-.1Z"/>
            <path id="path867" d="M95,22.6h1.3v8.7h-1.3v-1.5h-.1c-.4.9-1.3,1.6-2.6,1.6s-2.8-1.1-2.8-3.3v-5.5h1.3v5.4c0,1.3.8,2.1,1.9,2.1s2.2-.7,2.2-2.4v-5.1h.1Z"/>
            <path id="path869" d="M99,19.7h1.3v4.3h.1c.3-.5.8-1.5,2.5-1.5s3.7,1.7,3.7,4.5-1.5,4.5-3.7,4.5-2.2-1-2.5-1.5h-.2v1.3h-1.3v-11.6s.1,0,.1,0ZM102.8,30.3c1.7,0,2.5-1.5,2.5-3.3s-.8-3.3-2.5-3.3-2.5,1.3-2.5,3.3.9,3.3,2.5,3.3Z"/>
            <path id="path871" d="M114.2,22.6h1.3v8.7h-1.3v-1.5h-.1c-.4.9-1.3,1.6-2.6,1.6s-2.8-1.1-2.8-3.3v-5.5h1.3v5.4c0,1.3.8,2.1,1.9,2.1s2.2-.7,2.2-2.4v-5.1h.1Z"/>
            <path id="path873" d="M119.4,31.3h-1.3v-11.6h1.3v11.6Z"/>
            <path id="path875" d="M121.4,28.9c0-2,1.8-2.4,3.4-2.6s2.2,0,2.2-.8h0c0-1.1-.6-1.8-1.8-1.8s-2,.7-2.3,1.3l-1.3-.5c.7-1.6,2.2-2,3.5-2s3.2.3,3.2,3.1v5.7h-1.3v-1.2h-.1c-.3.6-1.1,1.4-2.6,1.4s-2.9-.9-2.9-2.6h0ZM127.1,28.2v-1.2c-.2.3-1.7.4-2.3.5-1,0-2,.5-2,1.5s.8,1.4,1.8,1.4c1.6-.1,2.5-1.1,2.5-2.2Z"/>
            <path id="path877" d="M130.9,22.6h1.3v1.3h.1c.3-.9,1.2-1.5,2.3-1.5h.7v1.4h-.8c-1.3,0-2.2.9-2.2,2v5.5h-1.4v-8.7h0Z"/>
            <path id="path879" d="M140.9,27c0-2.7,1.6-4.5,3.9-4.5s3.2,1.1,3.5,2.7h-1.4c-.2-.8-.9-1.5-2.1-1.5s-2.6,1.3-2.6,3.3,1,3.3,2.6,3.3,1.8-.6,2.1-1.5h1.3c-.2,1.5-1.5,2.7-3.4,2.7s-3.9-1.9-3.9-4.5h0Z"/>
            <path id="path881" d="M149.8,28.9c0-2,1.8-2.4,3.4-2.6,1.6-.2,2.2,0,2.2-.8h0c0-1.1-.6-1.8-1.8-1.8s-2,.7-2.3,1.3l-1.3-.5c.7-1.6,2.2-2,3.5-2s3.2.3,3.2,3.1v5.7h-1.3v-1.2h-.1c-.3.6-1.1,1.4-2.6,1.4s-2.9-.9-2.9-2.6h0ZM155.5,28.2v-1.2c-.2.3-1.7.4-2.3.5-1,0-2,.5-2,1.5s.8,1.4,1.8,1.4c1.6-.1,2.5-1.1,2.5-2.2Z"/>
            <path id="path883" d="M159.3,22.6h1.3v1.4h.2c.3-.5.8-1.5,2.5-1.5s3.7,1.7,3.7,4.5-1.5,4.5-3.7,4.5-2.2-1-2.5-1.5h-.1v4.6h-1.3v-12h-.1,0ZM163.1,30.3c1.7,0,2.5-1.5,2.5-3.3s-.8-3.3-2.5-3.3-2.5,1.3-2.5,3.3.9,3.3,2.5,3.3Z"/>
            <path id="path885" d="M168.7,20.2c0-.5.4-.9,1-.9s1,.4,1,.9-.4.9-1,.9c-.5,0-1-.4-1-.9ZM169,22.6h1.3v8.7h-1.3s0-8.7,0-8.7Z"/>
            <path id="path887" d="M174.1,31.3h-1.3v-11.6h1.3v11.6Z"/>
            <path id="path889" d="M177.9,31.3h-1.3v-11.6h1.3v11.6Z"/>
            <path id="path891" d="M180,28.9c0-2,1.8-2.4,3.4-2.6,1.6-.2,2.2,0,2.2-.8h0c0-1.1-.6-1.8-1.8-1.8s-2,.7-2.3,1.3l-1.3-.5c.7-1.6,2.2-2,3.5-2s3.2.3,3.2,3.1v5.7h-1.3v-1.2h-.1c-.3.6-1.1,1.4-2.6,1.4s-2.9-.9-2.9-2.6h0ZM185.6,28.2v-1.2c-.2.3-1.7.4-2.3.5-1,0-2,.5-2,1.5s.8,1.4,1.8,1.4c1.7-.1,2.5-1.1,2.5-2.2Z"/>
            <path id="path893" d="M189.4,22.6h1.3v1.3h.1c.3-.9,1.2-1.5,2.3-1.5h.7v1.4h-.8c-1.3,0-2.2.9-2.2,2v5.5h-1.3v-8.6h-.1s0-.1,0-.1Z"/>
            <path id="path895" d="M195.5,34.4l.3-1.2c1,.2,1.6,0,2.1-1.2l.2-.7-3.2-8.8h1.5l2.4,6.9h.1l2.4-6.9h1.5l-3.7,10c-.5,1.4-1.4,2-2.6,2-.4,0-.8,0-1-.1Z"/>
          </g>
          <g class="cls-83">
            <g>
              <path class="cls-70" d="M724.3,613.4c13.2,0,24-10.8,24-24s-10.8-24-24-24-24,10.8-24,24,10.8,24,24,24Z"/>
              <path class="cls-27" d="M724.3,568.8c-11.4,0-20.6,9.2-20.6,20.6s9.2,20.6,20.6,20.6,20.6-9.2,20.6-20.6-9.2-20.6-20.6-20.6ZM743,589h-5c0-2.7-1-5.2-2.4-7.3l3.7-2.5c.1,0,.2-.3,0-.4,0-.1-.3-.2-.4,0l-3.7,2.5c-1.1-1.4-2.4-2.6-3.9-3.5l2.2-3.9c0-.1,0-.3-.1-.4s-.3,0-.4.1l-2.2,3.9c-1.8-1-3.9-1.6-6.2-1.6v-4.5c0-.2-.2-.4-.4-.4h0c-.2,0-.4.2-.4.4v4.5c-3,0-5.8,1.2-8.1,3l-3.3-3.9c3.2-2.6,7.3-4.2,11.8-4.2,10.2,0,18.5,8.2,18.7,18.3h0l.1-.1h0ZM733.1,598.7l-2.8-3.3c.6-.6,1.1-1.2,1.5-1.9l3.9,2c-.7,1.2-1.5,2.3-2.5,3.3h0l-.1-.1h0ZM712.8,594.9l3.9-1.9c.4.9,1,1.7,1.7,2.3l-2.9,3.2c-1.1-1.1-2-2.3-2.7-3.7h0v.1h0ZM705.6,589.8h5c0,1.8.5,3.6,1.2,5.1l-4.6,2.2c-1-2.2-1.6-4.7-1.7-7.3h.1ZM715.8,579.9l2.8,3.3c-1.6,1.5-2.6,3.5-2.7,5.8h-4.4c.1-3.6,1.7-6.8,4.2-9.1h.1ZM724.3,596.4h-1.1l.7-4.1h.4c.7,0,1.3-.2,1.8-.6l1,1.2c-.8.6-1.8,1-2.9,1s-.2.1-.2.2.1.2.2.2c1.2,0,2.3-.4,3.2-1.2l1.3,1.5c-1.2,1-2.8,1.6-4.5,1.6h0l.1.2h0ZM718,592.4l3.7-1.8c.4.7,1,1.3,1.8,1.5l-.7,4.1c-2.1-.5-3.9-1.9-4.8-3.8h0ZM719.5,584.3l1.2,1.5c-.7.7-1.3,1.6-1.5,2.7,0,.1,0,.3.2.3.1,0,.3,0,.3-.2.2-.9.7-1.8,1.3-2.4l1.1,1.3c-.4.4-.6,1-.7,1.5h-4.2c0-1.9.9-3.5,2.2-4.7h.1ZM727.7,592.4l-1.1-1.2c.3-.4.5-.8.5-1.3h1.6c0,1-.5,1.9-1.1,2.6h0l.1-.1ZM722.6,589.4c0-1,.8-1.7,1.7-1.7s1.7.8,1.7,1.7-.8,1.7-1.7,1.7-1.7-.8-1.7-1.7ZM727.2,589c-.2-1.4-1.4-2.5-2.9-2.5s-1.1.2-1.6.5l-1.1-1.3c.7-.5,1.6-.8,2.6-.8,2.4,0,4.4,1.8,4.6,4.2h-1.6v-.1h0ZM721.4,589.8c0,.2,0,.3.1.5l-3.8,1.8c-.3-.7-.5-1.5-.5-2.3h4.2ZM728,592.8c.2-.3.5-.6.6-.9l1.8.9c-.3.5-.7,1.1-1.1,1.5l-1.3-1.6h0v.1ZM728.9,591.3c.2-.5.3-1,.4-1.5h2.1c0,.9-.3,1.7-.6,2.5l-1.8-.9h0l-.1-.1h0ZM729.3,589c-.2-2.6-2.4-4.7-5-4.7s-2.1.3-2.9.9l-1.2-1.5c1.2-.9,2.7-1.4,4.2-1.4,2.3,0,4.3,1.1,5.6,2.8h0c.8,1.1,1.2,2.4,1.3,3.7h-2.1l.1.2h0ZM728.7,582.2l2.2-3.8c1.4.9,2.6,2,3.6,3.2l-3.6,2.5c-.6-.8-1.3-1.4-2.2-1.9h0ZM728.2,581.9c-1.1-.6-2.2-.9-3.5-1v-4.4c2,0,4,.6,5.7,1.5l-2.2,3.8h0v.1h0ZM723.9,581c-1.8,0-3.4.7-4.7,1.7l-2.8-3.3c2.1-1.7,4.7-2.7,7.5-2.8v4.4h0ZM711.5,589.8h4.4c0,1,.3,2,.7,2.9l-3.9,1.9c-.7-1.5-1-3.1-1.1-4.8h-.1ZM718.8,595.8c1.1.9,2.3,1.6,3.8,1.9l-.8,4.3c-2.2-.5-4.3-1.5-5.9-2.9l2.9-3.2h0v-.1ZM723,597.7c.4,0,.9.1,1.3.1s.9,0,1.3-.1l.8,4.3c-.7.1-1.4.2-2.1.2s-1.4,0-2.1-.2l.8-4.3h0ZM726,597.6c1.4-.3,2.6-.9,3.6-1.7l2.8,3.3c-1.6,1.3-3.5,2.3-5.7,2.7l-.8-4.3h.1ZM732,592.9c.4-1,.7-2,.8-3.1h4.4c0,1.8-.5,3.6-1.2,5.1l-3.9-2h-.1ZM732.7,589c0-1.6-.6-3.1-1.5-4.4l3.6-2.5c1.3,2,2.2,4.3,2.2,6.8h-4.4l.1.1h0ZM711.9,575.4l3.3,3.9c-2.7,2.4-4.4,5.9-4.5,9.8h-5c.1-5.4,2.5-10.3,6.3-13.6h0l-.1-.1h0ZM707.4,597.5l4.6-2.2c.7,1.5,1.7,2.8,2.9,4l-3.1,3.4c-.1.1,0,.3,0,.4h.2c.1,0,.2,0,.2-.1l3.1-3.4c1.8,1.6,4,2.7,6.4,3.1l-.9,5c-5.9-1.1-10.8-5-13.3-10.3h0l-.1.1h0ZM721.2,607.8l.9-5c.7.1,1.5.2,2.3.2s1.5,0,2.2-.2l.9,5c-1,.2-2.1.3-3.2.3s-2.1,0-3.2-.3h.1ZM727.8,607.8l-.9-5c2.3-.5,4.4-1.5,6.1-2.9l2,2.3s.2.1.3.1h.2c.2-.1.2-.4,0-.6l-2-2.3c1.1-1,2-2.2,2.7-3.5l1.4.7h.1c.1,0,.2,0,.3-.2,0-.1,0-.3-.1-.4l-1.4-.7c.8-1.7,1.3-3.5,1.3-5.5h5c-.2,8.9-6.7,16.4-15.2,18h.2Z"/>
            </g>
          </g>
        </g>
      </g>
    </g>
  </g>
</svg>