<svg aria-roledescription="er" role="graphics-document document" viewBox="0 0 1005.6625366210938 1134" style="max-width: 1005.66px; background-color: transparent;" xmlns:xlink="http://www.w3.org/1999/xlink" xmlns="http://www.w3.org/2000/svg" width="100%" id="my-svg"><style>#my-svg{font-family:"trebuchet ms",verdana,arial,sans-serif;font-size:16px;fill:#333;}#my-svg .error-icon{fill:#552222;}#my-svg .error-text{fill:#552222;stroke:#552222;}#my-svg .edge-thickness-normal{stroke-width:1px;}#my-svg .edge-thickness-thick{stroke-width:3.5px;}#my-svg .edge-pattern-solid{stroke-dasharray:0;}#my-svg .edge-thickness-invisible{stroke-width:0;fill:none;}#my-svg .edge-pattern-dashed{stroke-dasharray:3;}#my-svg .edge-pattern-dotted{stroke-dasharray:2;}#my-svg .marker{fill:#333333;stroke:#333333;}#my-svg .marker.cross{stroke:#333333;}#my-svg svg{font-family:"trebuchet ms",verdana,arial,sans-serif;font-size:16px;}#my-svg p{margin:0;}#my-svg .entityBox{fill:#ECECFF;stroke:#9370DB;}#my-svg .attributeBoxOdd{fill:#ffffff;stroke:#9370DB;}#my-svg .attributeBoxEven{fill:#f2f2f2;stroke:#9370DB;}#my-svg .relationshipLabelBox{fill:hsl(80, 100%, 96.2745098039%);opacity:0.7;background-color:hsl(80, 100%, 96.2745098039%);}#my-svg .relationshipLabelBox rect{opacity:0.5;}#my-svg .relationshipLine{stroke:#333333;}#my-svg .entityTitleText{text-anchor:middle;font-size:18px;fill:#333;}#my-svg #MD_PARENT_START{fill:#f5f5f5!important;stroke:#333333!important;stroke-width:1;}#my-svg #MD_PARENT_END{fill:#f5f5f5!important;stroke:#333333!important;stroke-width:1;}#my-svg :root{--mermaid-font-family:"trebuchet ms",verdana,arial,sans-serif;}</style><g/><defs><marker orient="auto" markerHeight="240" markerWidth="190" refY="7" refX="0" id="MD_PARENT_START"><path d="M 18,7 L9,13 L1,7 L9,1 Z"/></marker></defs><defs><marker orient="auto" markerHeight="28" markerWidth="20" refY="7" refX="19" id="MD_PARENT_END"><path d="M 18,7 L9,13 L1,7 L9,1 Z"/></marker></defs><defs><marker orient="auto" markerHeight="18" markerWidth="18" refY="9" refX="0" id="ONLY_ONE_START"><path d="M9,0 L9,18 M15,0 L15,18" fill="none" stroke="gray"/></marker></defs><defs><marker orient="auto" markerHeight="18" markerWidth="18" refY="9" refX="18" id="ONLY_ONE_END"><path d="M3,0 L3,18 M9,0 L9,18" fill="none" stroke="gray"/></marker></defs><defs><marker orient="auto" markerHeight="18" markerWidth="30" refY="9" refX="0" id="ZERO_OR_ONE_START"><circle r="6" cy="9" cx="21" fill="white" stroke="gray"/><path d="M9,0 L9,18" fill="none" stroke="gray"/></marker></defs><defs><marker orient="auto" markerHeight="18" markerWidth="30" refY="9" refX="30" id="ZERO_OR_ONE_END"><circle r="6" cy="9" cx="9" fill="white" stroke="gray"/><path d="M21,0 L21,18" fill="none" stroke="gray"/></marker></defs><defs><marker orient="auto" markerHeight="36" markerWidth="45" refY="18" refX="18" id="ONE_OR_MORE_START"><path d="M0,18 Q 18,0 36,18 Q 18,36 0,18 M42,9 L42,27" fill="none" stroke="gray"/></marker></defs><defs><marker orient="auto" markerHeight="36" markerWidth="45" refY="18" refX="27" id="ONE_OR_MORE_END"><path d="M3,9 L3,27 M9,18 Q27,0 45,18 Q27,36 9,18" fill="none" stroke="gray"/></marker></defs><defs><marker orient="auto" markerHeight="36" markerWidth="57" refY="18" refX="18" id="ZERO_OR_MORE_START"><circle r="6" cy="18" cx="48" fill="white" stroke="gray"/><path d="M0,18 Q18,0 36,18 Q18,36 0,18" fill="none" stroke="gray"/></marker></defs><defs><marker orient="auto" markerHeight="36" markerWidth="57" refY="18" refX="39" id="ZERO_OR_MORE_END"><circle r="6" cy="18" cx="9" fill="white" stroke="gray"/><path d="M21,18 Q39,0 57,18 Q39,36 21,18" fill="none" stroke="gray"/></marker></defs><path style="stroke: gray; fill: none;" marker-start="url(#ONLY_ONE_START)" marker-end="url(#ONE_OR_MORE_END)" d="M515.387,180.199L568.911,204.665C622.435,229.132,729.483,278.066,783.006,335.783C836.53,393.5,836.53,460,836.53,526.5C836.53,593,836.53,659.5,845.92,708.083C855.309,756.667,874.088,787.333,883.478,802.667L892.867,818" class="er relationshipLine"/><path style="stroke: gray; fill: none;" marker-start="url(#ONLY_ONE_START)" marker-end="url(#ONE_OR_MORE_END)" d="M376.7,182.308L327.237,206.423C277.774,230.539,178.848,278.769,129.385,336.135C79.922,393.5,79.922,460,79.922,526.5C79.922,593,79.922,659.5,80.406,702.917C80.889,746.333,81.857,766.667,82.34,776.833L82.824,787" class="er relationshipLine"/><path style="stroke: gray; fill: none;" marker-start="url(#ONLY_ONE_START)" marker-end="url(#ZERO_OR_ONE_END)" d="M446.043,277L446.043,285.333C446.043,293.667,446.043,310.333,446.043,327C446.043,343.667,446.043,360.333,446.043,368.667L446.043,377" class="er relationshipLine"/><path style="stroke: gray; fill: none;" marker-start="url(#ONLY_ONE_START)" marker-end="url(#ZERO_OR_MORE_END)" d="M517.856,555.709L587.635,584.091C657.414,612.473,796.972,669.236,864.866,712.951C932.76,756.667,928.99,787.333,927.105,802.667L925.22,818" class="er relationshipLine"/><path style="stroke: gray; fill: none;" marker-start="url(#ONLY_ONE_START)" marker-end="url(#ZERO_OR_MORE_END)" d="M374.231,622.011L361.2,639.342C348.168,656.674,322.106,691.337,314.735,717.002C307.364,742.667,318.684,759.333,324.344,767.667L330.005,776" class="er relationshipLine"/><path style="stroke: gray; fill: none;" marker-start="url(#ONLY_ONE_START)" marker-end="url(#ZERO_OR_MORE_END)" d="M517.856,598.348L539.121,619.623C560.386,640.899,602.916,683.449,624.18,721.891C645.445,760.333,645.445,794.667,645.445,811.833L645.445,829" class="er relationshipLine"/><path style="stroke: gray; fill: none;" marker-start="url(#ONLY_ONE_START)" marker-end="url(#ZERO_OR_MORE_END)" d="M408.575,676L406.486,684.333C404.398,692.667,400.221,709.333,397.665,726C395.109,742.667,394.174,759.333,393.707,767.667L393.24,776" class="er relationshipLine"/><path style="stroke: gray; fill: none;" marker-start="url(#ONLY_ONE_START)" marker-end="url(#ZERO_OR_MORE_END)" d="M483.512,676L485.601,684.333C487.689,692.667,491.866,709.333,486.993,726.465C482.119,743.596,468.194,761.192,461.232,769.989L454.27,778.787" class="er relationshipLine"/><path style="stroke: gray; fill: none;" marker-start="url(#ONLY_ONE_START)" marker-end="url(#ZERO_OR_MORE_END)" d="M374.231,583.806L344.533,607.505C314.835,631.204,255.439,678.602,217.544,712.468C179.649,746.333,163.255,766.667,155.058,776.833L146.861,787" class="er relationshipLine"/><path style="stroke: gray; fill: none;" marker-start="url(#ONLY_ONE_START)" marker-end="url(#ZERO_OR_ONE_END)" d="M517.856,476.393L541.598,459.828C565.339,443.262,612.822,410.131,642.499,393.566C672.176,377,684.047,377,695.918,401.917C707.789,426.833,719.659,476.667,719.659,526.5C719.659,576.333,707.789,626.167,695.918,651.083C684.047,676,672.176,676,642.499,659.434C612.822,642.869,565.339,609.738,541.598,593.172L517.856,576.607" class="er relationshipLine"/><path style="stroke: gray; fill: none;" marker-start="url(#ONLY_ONE_START)" marker-end="url(#ZERO_OR_MORE_END)" d="M388.418,948L388.418,956.333C388.418,964.667,388.418,981.333,388.418,998C388.418,1014.667,388.418,1031.333,388.418,1039.667L388.418,1048" class="er relationshipLine"/><g transform="translate(376.6997299194336,20 )" id="entity-Container-bc34fb32-8a75-5b81-936b-92374bf40296"><rect height="257" width="138.6875" y="0" x="0" class="er entityBox"/><text style="dominant-baseline: middle; text-anchor: middle; font-size: 12px;" transform="translate(69.34375,12)" y="0" x="0" id="text-entity-Container-bc34fb32-8a75-5b81-936b-92374bf40296" class="er entityLabel">Container</text><rect height="21" width="59.03125" y="24" x="0" class="er attributeBoxOdd"/><text style="dominant-baseline: middle; font-size: 10.2px;" transform="translate(5,34.5)" y="0" x="0" id="text-entity-Container-bc34fb32-8a75-5b81-936b-92374bf40296-attr-1-type" class="er entityLabel">string</text><rect height="21" width="79.65625" y="24" x="59.03125" class="er attributeBoxOdd"/><text style="dominant-baseline: middle; font-size: 10.2px;" transform="translate(64.03125,34.5)" y="0" x="0" id="text-entity-Container-bc34fb32-8a75-5b81-936b-92374bf40296-attr-1-name" class="er entityLabel">name</text><rect height="21" width="59.03125" y="45" x="0" class="er attributeBoxEven"/><text style="dominant-baseline: middle; font-size: 10.2px;" transform="translate(5,55.5)" y="0" x="0" id="text-entity-Container-bc34fb32-8a75-5b81-936b-92374bf40296-attr-2-type" class="er entityLabel">string</text><rect height="21" width="79.65625" y="45" x="59.03125" class="er attributeBoxEven"/><text style="dominant-baseline: middle; font-size: 10.2px;" transform="translate(64.03125,55.5)" y="0" x="0" id="text-entity-Container-bc34fb32-8a75-5b81-936b-92374bf40296-attr-2-name" class="er entityLabel">type</text><rect height="21" width="59.03125" y="66" x="0" class="er attributeBoxOdd"/><text style="dominant-baseline: middle; font-size: 10.2px;" transform="translate(5,76.5)" y="0" x="0" id="text-entity-Container-bc34fb32-8a75-5b81-936b-92374bf40296-attr-3-type" class="er entityLabel">string</text><rect height="21" width="79.65625" y="66" x="59.03125" class="er attributeBoxOdd"/><text style="dominant-baseline: middle; font-size: 10.2px;" transform="translate(64.03125,76.5)" y="0" x="0" id="text-entity-Container-bc34fb32-8a75-5b81-936b-92374bf40296-attr-3-name" class="er entityLabel">title</text><rect height="21" width="59.03125" y="87" x="0" class="er attributeBoxEven"/><text style="dominant-baseline: middle; font-size: 10.2px;" transform="translate(5,97.5)" y="0" x="0" id="text-entity-Container-bc34fb32-8a75-5b81-936b-92374bf40296-attr-4-type" class="er entityLabel">string</text><rect height="21" width="79.65625" y="87" x="59.03125" class="er attributeBoxEven"/><text style="dominant-baseline: middle; font-size: 10.2px;" transform="translate(64.03125,97.5)" y="0" x="0" id="text-entity-Container-bc34fb32-8a75-5b81-936b-92374bf40296-attr-4-name" class="er entityLabel">description</text><rect height="21" width="59.03125" y="108" x="0" class="er attributeBoxOdd"/><text style="dominant-baseline: middle; font-size: 10.2px;" transform="translate(5,118.5)" y="0" x="0" id="text-entity-Container-bc34fb32-8a75-5b81-936b-92374bf40296-attr-5-type" class="er entityLabel">string</text><rect height="21" width="79.65625" y="108" x="59.03125" class="er attributeBoxOdd"/><text style="dominant-baseline: middle; font-size: 10.2px;" transform="translate(64.03125,118.5)" y="0" x="0" id="text-entity-Container-bc34fb32-8a75-5b81-936b-92374bf40296-attr-5-name" class="er entityLabel">version</text><rect height="22" width="59.03125" y="129" x="0" class="er attributeBoxEven"/><text style="dominant-baseline: middle; font-size: 10.2px;" transform="translate(5,140)" y="0" x="0" id="text-entity-Container-bc34fb32-8a75-5b81-936b-92374bf40296-attr-6-type" class="er entityLabel">string</text><rect height="22" width="79.65625" y="129" x="59.03125" class="er attributeBoxEven"/><text style="dominant-baseline: middle; font-size: 10.2px;" transform="translate(64.03125,140)" y="0" x="0" id="text-entity-Container-bc34fb32-8a75-5b81-936b-92374bf40296-attr-6-name" class="er entityLabel">creation_date</text><rect height="21" width="59.03125" y="151" x="0" class="er attributeBoxOdd"/><text style="dominant-baseline: middle; font-size: 10.2px;" transform="translate(5,161.5)" y="0" x="0" id="text-entity-Container-bc34fb32-8a75-5b81-936b-92374bf40296-attr-7-type" class="er entityLabel">string</text><rect height="21" width="79.65625" y="151" x="59.03125" class="er attributeBoxOdd"/><text style="dominant-baseline: middle; font-size: 10.2px;" transform="translate(64.03125,161.5)" y="0" x="0" id="text-entity-Container-bc34fb32-8a75-5b81-936b-92374bf40296-attr-7-name" class="er entityLabel">publisher</text><rect height="21" width="59.03125" y="172" x="0" class="er attributeBoxEven"/><text style="dominant-baseline: middle; font-size: 10.2px;" transform="translate(5,182.5)" y="0" x="0" id="text-entity-Container-bc34fb32-8a75-5b81-936b-92374bf40296-attr-8-type" class="er entityLabel">string</text><rect height="21" width="79.65625" y="172" x="59.03125" class="er attributeBoxEven"/><text style="dominant-baseline: middle; font-size: 10.2px;" transform="translate(64.03125,182.5)" y="0" x="0" id="text-entity-Container-bc34fb32-8a75-5b81-936b-92374bf40296-attr-8-name" class="er entityLabel">license</text><rect height="22" width="59.03125" y="193" x="0" class="er attributeBoxOdd"/><text style="dominant-baseline: middle; font-size: 10.2px;" transform="translate(5,204)" y="0" x="0" id="text-entity-Container-bc34fb32-8a75-5b81-936b-92374bf40296-attr-9-type" class="er entityLabel">uriorcurie</text><rect height="22" width="79.65625" y="193" x="59.03125" class="er attributeBoxOdd"/><text style="dominant-baseline: middle; font-size: 10.2px;" transform="translate(64.03125,204)" y="0" x="0" id="text-entity-Container-bc34fb32-8a75-5b81-936b-92374bf40296-attr-9-name" class="er entityLabel">see_also</text><rect height="21" width="59.03125" y="215" x="0" class="er attributeBoxEven"/><text style="dominant-baseline: middle; font-size: 10.2px;" transform="translate(5,225.5)" y="0" x="0" id="text-entity-Container-bc34fb32-8a75-5b81-936b-92374bf40296-attr-10-type" class="er entityLabel">uriorcurie</text><rect height="21" width="79.65625" y="215" x="59.03125" class="er attributeBoxEven"/><text style="dominant-baseline: middle; font-size: 10.2px;" transform="translate(64.03125,225.5)" y="0" x="0" id="text-entity-Container-bc34fb32-8a75-5b81-936b-92374bf40296-attr-10-name" class="er entityLabel">id</text><rect height="21" width="59.03125" y="236" x="0" class="er attributeBoxOdd"/><text style="dominant-baseline: middle; font-size: 10.2px;" transform="translate(5,246.5)" y="0" x="0" id="text-entity-Container-bc34fb32-8a75-5b81-936b-92374bf40296-attr-11-type" class="er entityLabel">string</text><rect height="21" width="79.65625" y="236" x="59.03125" class="er attributeBoxOdd"/><text style="dominant-baseline: middle; font-size: 10.2px;" transform="translate(64.03125,246.5)" y="0" x="0" id="text-entity-Container-bc34fb32-8a75-5b81-936b-92374bf40296-attr-11-name" class="er entityLabel">label</text></g><g transform="translate(374.2309799194336,377 )" id="entity-Dataset-ea18c94d-808e-5959-ac2f-1bcc27afd155"><rect height="299" width="143.625" y="0" x="0" class="er entityBox"/><text style="dominant-baseline: middle; text-anchor: middle; font-size: 12px;" transform="translate(71.8125,12)" y="0" x="0" id="text-entity-Dataset-ea18c94d-808e-5959-ac2f-1bcc27afd155" class="er entityLabel">Dataset</text><rect height="21" width="59.03125" y="24" x="0" class="er attributeBoxOdd"/><text style="dominant-baseline: middle; font-size: 10.2px;" transform="translate(5,34.5)" y="0" x="0" id="text-entity-Dataset-ea18c94d-808e-5959-ac2f-1bcc27afd155-attr-1-type" class="er entityLabel">string</text><rect height="21" width="84.59375" y="24" x="59.03125" class="er attributeBoxOdd"/><text style="dominant-baseline: middle; font-size: 10.2px;" transform="translate(64.03125,34.5)" y="0" x="0" id="text-entity-Dataset-ea18c94d-808e-5959-ac2f-1bcc27afd155-attr-1-name" class="er entityLabel">title</text><rect height="21" width="59.03125" y="45" x="0" class="er attributeBoxEven"/><text style="dominant-baseline: middle; font-size: 10.2px;" transform="translate(5,55.5)" y="0" x="0" id="text-entity-Dataset-ea18c94d-808e-5959-ac2f-1bcc27afd155-attr-2-type" class="er entityLabel">string</text><rect height="21" width="84.59375" y="45" x="59.03125" class="er attributeBoxEven"/><text style="dominant-baseline: middle; font-size: 10.2px;" transform="translate(64.03125,55.5)" y="0" x="0" id="text-entity-Dataset-ea18c94d-808e-5959-ac2f-1bcc27afd155-attr-2-name" class="er entityLabel">description</text><rect height="22" width="59.03125" y="66" x="0" class="er attributeBoxOdd"/><text style="dominant-baseline: middle; font-size: 10.2px;" transform="translate(5,77)" y="0" x="0" id="text-entity-Dataset-ea18c94d-808e-5959-ac2f-1bcc27afd155-attr-3-type" class="er entityLabel">string</text><rect height="22" width="84.59375" y="66" x="59.03125" class="er attributeBoxOdd"/><text style="dominant-baseline: middle; font-size: 10.2px;" transform="translate(64.03125,77)" y="0" x="0" id="text-entity-Dataset-ea18c94d-808e-5959-ac2f-1bcc27afd155-attr-3-name" class="er entityLabel">creation_date</text><rect height="21" width="59.03125" y="88" x="0" class="er attributeBoxEven"/><text style="dominant-baseline: middle; font-size: 10.2px;" transform="translate(5,98.5)" y="0" x="0" id="text-entity-Dataset-ea18c94d-808e-5959-ac2f-1bcc27afd155-attr-4-type" class="er entityLabel">string</text><rect height="21" width="84.59375" y="88" x="59.03125" class="er attributeBoxEven"/><text style="dominant-baseline: middle; font-size: 10.2px;" transform="translate(64.03125,98.5)" y="0" x="0" id="text-entity-Dataset-ea18c94d-808e-5959-ac2f-1bcc27afd155-attr-4-name" class="er entityLabel">version</text><rect height="21" width="59.03125" y="109" x="0" class="er attributeBoxOdd"/><text style="dominant-baseline: middle; font-size: 10.2px;" transform="translate(5,119.5)" y="0" x="0" id="text-entity-Dataset-ea18c94d-808e-5959-ac2f-1bcc27afd155-attr-5-type" class="er entityLabel">string</text><rect height="21" width="84.59375" y="109" x="59.03125" class="er attributeBoxOdd"/><text style="dominant-baseline: middle; font-size: 10.2px;" transform="translate(64.03125,119.5)" y="0" x="0" id="text-entity-Dataset-ea18c94d-808e-5959-ac2f-1bcc27afd155-attr-5-name" class="er entityLabel">license</text><rect height="22" width="59.03125" y="130" x="0" class="er attributeBoxEven"/><text style="dominant-baseline: middle; font-size: 10.2px;" transform="translate(5,141)" y="0" x="0" id="text-entity-Dataset-ea18c94d-808e-5959-ac2f-1bcc27afd155-attr-6-type" class="er entityLabel">uriorcurie</text><rect height="22" width="84.59375" y="130" x="59.03125" class="er attributeBoxEven"/><text style="dominant-baseline: middle; font-size: 10.2px;" transform="translate(64.03125,141)" y="0" x="0" id="text-entity-Dataset-ea18c94d-808e-5959-ac2f-1bcc27afd155-attr-6-name" class="er entityLabel">see_also</text><rect height="21" width="59.03125" y="152" x="0" class="er attributeBoxOdd"/><text style="dominant-baseline: middle; font-size: 10.2px;" transform="translate(5,162.5)" y="0" x="0" id="text-entity-Dataset-ea18c94d-808e-5959-ac2f-1bcc27afd155-attr-7-type" class="er entityLabel">string</text><rect height="21" width="84.59375" y="152" x="59.03125" class="er attributeBoxOdd"/><text style="dominant-baseline: middle; font-size: 10.2px;" transform="translate(64.03125,162.5)" y="0" x="0" id="text-entity-Dataset-ea18c94d-808e-5959-ac2f-1bcc27afd155-attr-7-name" class="er entityLabel">publisher</text><rect height="21" width="59.03125" y="173" x="0" class="er attributeBoxEven"/><text style="dominant-baseline: middle; font-size: 10.2px;" transform="translate(5,183.5)" y="0" x="0" id="text-entity-Dataset-ea18c94d-808e-5959-ac2f-1bcc27afd155-attr-8-type" class="er entityLabel">string</text><rect height="21" width="84.59375" y="173" x="59.03125" class="er attributeBoxEven"/><text style="dominant-baseline: middle; font-size: 10.2px;" transform="translate(64.03125,183.5)" y="0" x="0" id="text-entity-Dataset-ea18c94d-808e-5959-ac2f-1bcc27afd155-attr-8-name" class="er entityLabel">citation</text><rect height="21" width="59.03125" y="194" x="0" class="er attributeBoxOdd"/><text style="dominant-baseline: middle; font-size: 10.2px;" transform="translate(5,204.5)" y="0" x="0" id="text-entity-Dataset-ea18c94d-808e-5959-ac2f-1bcc27afd155-attr-9-type" class="er entityLabel">string</text><rect height="21" width="84.59375" y="194" x="59.03125" class="er attributeBoxOdd"/><text style="dominant-baseline: middle; font-size: 10.2px;" transform="translate(64.03125,204.5)" y="0" x="0" id="text-entity-Dataset-ea18c94d-808e-5959-ac2f-1bcc27afd155-attr-9-name" class="er entityLabel">citationOverall</text><rect height="21" width="59.03125" y="215" x="0" class="er attributeBoxEven"/><text style="dominant-baseline: middle; font-size: 10.2px;" transform="translate(5,225.5)" y="0" x="0" id="text-entity-Dataset-ea18c94d-808e-5959-ac2f-1bcc27afd155-attr-10-type" class="er entityLabel">uriorcurie</text><rect height="21" width="84.59375" y="215" x="59.03125" class="er attributeBoxEven"/><text style="dominant-baseline: middle; font-size: 10.2px;" transform="translate(64.03125,225.5)" y="0" x="0" id="text-entity-Dataset-ea18c94d-808e-5959-ac2f-1bcc27afd155-attr-10-name" class="er entityLabel">doi</text><rect height="21" width="59.03125" y="236" x="0" class="er attributeBoxOdd"/><text style="dominant-baseline: middle; font-size: 10.2px;" transform="translate(5,246.5)" y="0" x="0" id="text-entity-Dataset-ea18c94d-808e-5959-ac2f-1bcc27afd155-attr-11-type" class="er entityLabel">string</text><rect height="21" width="84.59375" y="236" x="59.03125" class="er attributeBoxOdd"/><text style="dominant-baseline: middle; font-size: 10.2px;" transform="translate(64.03125,246.5)" y="0" x="0" id="text-entity-Dataset-ea18c94d-808e-5959-ac2f-1bcc27afd155-attr-11-name" class="er entityLabel">hubmapId</text><rect height="21" width="59.03125" y="257" x="0" class="er attributeBoxEven"/><text style="dominant-baseline: middle; font-size: 10.2px;" transform="translate(5,267.5)" y="0" x="0" id="text-entity-Dataset-ea18c94d-808e-5959-ac2f-1bcc27afd155-attr-12-type" class="er entityLabel">uriorcurie</text><rect height="21" width="84.59375" y="257" x="59.03125" class="er attributeBoxEven"/><text style="dominant-baseline: middle; font-size: 10.2px;" transform="translate(64.03125,267.5)" y="0" x="0" id="text-entity-Dataset-ea18c94d-808e-5959-ac2f-1bcc27afd155-attr-12-name" class="er entityLabel">id</text><rect height="21" width="59.03125" y="278" x="0" class="er attributeBoxOdd"/><text style="dominant-baseline: middle; font-size: 10.2px;" transform="translate(5,288.5)" y="0" x="0" id="text-entity-Dataset-ea18c94d-808e-5959-ac2f-1bcc27afd155-attr-13-type" class="er entityLabel">string</text><rect height="21" width="84.59375" y="278" x="59.03125" class="er attributeBoxOdd"/><text style="dominant-baseline: middle; font-size: 10.2px;" transform="translate(64.03125,288.5)" y="0" x="0" id="text-entity-Dataset-ea18c94d-808e-5959-ac2f-1bcc27afd155-attr-13-name" class="er entityLabel">label</text></g><g transform="translate(20,787 )" id="entity-Distribution-f9898466-f9b2-5f40-b605-9060bbc75b7d"><rect height="150" width="132.78125" y="0" x="0" class="er entityBox"/><text style="dominant-baseline: middle; text-anchor: middle; font-size: 12px;" transform="translate(66.390625,12)" y="0" x="0" id="text-entity-Distribution-f9898466-f9b2-5f40-b605-9060bbc75b7d" class="er entityLabel">Distribution</text><rect height="21" width="59.03125" y="24" x="0" class="er attributeBoxOdd"/><text style="dominant-baseline: middle; font-size: 10.2px;" transform="translate(5,34.5)" y="0" x="0" id="text-entity-Distribution-f9898466-f9b2-5f40-b605-9060bbc75b7d-attr-1-type" class="er entityLabel">string</text><rect height="21" width="73.75" y="24" x="59.03125" class="er attributeBoxOdd"/><text style="dominant-baseline: middle; font-size: 10.2px;" transform="translate(64.03125,34.5)" y="0" x="0" id="text-entity-Distribution-f9898466-f9b2-5f40-b605-9060bbc75b7d-attr-1-name" class="er entityLabel">title</text><rect height="21" width="59.03125" y="45" x="0" class="er attributeBoxEven"/><text style="dominant-baseline: middle; font-size: 10.2px;" transform="translate(5,55.5)" y="0" x="0" id="text-entity-Distribution-f9898466-f9b2-5f40-b605-9060bbc75b7d-attr-2-type" class="er entityLabel">uri</text><rect height="21" width="73.75" y="45" x="59.03125" class="er attributeBoxEven"/><text style="dominant-baseline: middle; font-size: 10.2px;" transform="translate(64.03125,55.5)" y="0" x="0" id="text-entity-Distribution-f9898466-f9b2-5f40-b605-9060bbc75b7d-attr-2-name" class="er entityLabel">downloadUrl</text><rect height="21" width="59.03125" y="66" x="0" class="er attributeBoxOdd"/><text style="dominant-baseline: middle; font-size: 10.2px;" transform="translate(5,76.5)" y="0" x="0" id="text-entity-Distribution-f9898466-f9b2-5f40-b605-9060bbc75b7d-attr-3-type" class="er entityLabel">uri</text><rect height="21" width="73.75" y="66" x="59.03125" class="er attributeBoxOdd"/><text style="dominant-baseline: middle; font-size: 10.2px;" transform="translate(64.03125,76.5)" y="0" x="0" id="text-entity-Distribution-f9898466-f9b2-5f40-b605-9060bbc75b7d-attr-3-name" class="er entityLabel">accessUrl</text><rect height="21" width="59.03125" y="87" x="0" class="er attributeBoxEven"/><text style="dominant-baseline: middle; font-size: 10.2px;" transform="translate(5,97.5)" y="0" x="0" id="text-entity-Distribution-f9898466-f9b2-5f40-b605-9060bbc75b7d-attr-4-type" class="er entityLabel">string</text><rect height="21" width="73.75" y="87" x="59.03125" class="er attributeBoxEven"/><text style="dominant-baseline: middle; font-size: 10.2px;" transform="translate(64.03125,97.5)" y="0" x="0" id="text-entity-Distribution-f9898466-f9b2-5f40-b605-9060bbc75b7d-attr-4-name" class="er entityLabel">mediaType</text><rect height="21" width="59.03125" y="108" x="0" class="er attributeBoxOdd"/><text style="dominant-baseline: middle; font-size: 10.2px;" transform="translate(5,118.5)" y="0" x="0" id="text-entity-Distribution-f9898466-f9b2-5f40-b605-9060bbc75b7d-attr-5-type" class="er entityLabel">uriorcurie</text><rect height="21" width="73.75" y="108" x="59.03125" class="er attributeBoxOdd"/><text style="dominant-baseline: middle; font-size: 10.2px;" transform="translate(64.03125,118.5)" y="0" x="0" id="text-entity-Distribution-f9898466-f9b2-5f40-b605-9060bbc75b7d-attr-5-name" class="er entityLabel">id</text><rect height="21" width="59.03125" y="129" x="0" class="er attributeBoxEven"/><text style="dominant-baseline: middle; font-size: 10.2px;" transform="translate(5,139.5)" y="0" x="0" id="text-entity-Distribution-f9898466-f9b2-5f40-b605-9060bbc75b7d-attr-6-type" class="er entityLabel">string</text><rect height="21" width="73.75" y="129" x="59.03125" class="er attributeBoxEven"/><text style="dominant-baseline: middle; font-size: 10.2px;" transform="translate(64.03125,139.5)" y="0" x="0" id="text-entity-Distribution-f9898466-f9b2-5f40-b605-9060bbc75b7d-attr-6-name" class="er entityLabel">label</text></g><g transform="translate(322.56640625,776 )" id="entity-Person-84ee9ab5-8d8f-5582-81c6-bfa2c33a578d"><rect height="172" width="131.703125" y="0" x="0" class="er entityBox"/><text style="dominant-baseline: middle; text-anchor: middle; font-size: 12px;" transform="translate(65.8515625,12)" y="0" x="0" id="text-entity-Person-84ee9ab5-8d8f-5582-81c6-bfa2c33a578d" class="er entityLabel">Person</text><rect height="21" width="59.03125" y="24" x="0" class="er attributeBoxOdd"/><text style="dominant-baseline: middle; font-size: 10.2px;" transform="translate(5,34.5)" y="0" x="0" id="text-entity-Person-84ee9ab5-8d8f-5582-81c6-bfa2c33a578d-attr-1-type" class="er entityLabel">string</text><rect height="21" width="72.671875" y="24" x="59.03125" class="er attributeBoxOdd"/><text style="dominant-baseline: middle; font-size: 10.2px;" transform="translate(64.03125,34.5)" y="0" x="0" id="text-entity-Person-84ee9ab5-8d8f-5582-81c6-bfa2c33a578d-attr-1-name" class="er entityLabel">fullName</text><rect height="21" width="59.03125" y="45" x="0" class="er attributeBoxEven"/><text style="dominant-baseline: middle; font-size: 10.2px;" transform="translate(5,55.5)" y="0" x="0" id="text-entity-Person-84ee9ab5-8d8f-5582-81c6-bfa2c33a578d-attr-2-type" class="er entityLabel">string</text><rect height="21" width="72.671875" y="45" x="59.03125" class="er attributeBoxEven"/><text style="dominant-baseline: middle; font-size: 10.2px;" transform="translate(64.03125,55.5)" y="0" x="0" id="text-entity-Person-84ee9ab5-8d8f-5582-81c6-bfa2c33a578d-attr-2-name" class="er entityLabel">firstName</text><rect height="21" width="59.03125" y="66" x="0" class="er attributeBoxOdd"/><text style="dominant-baseline: middle; font-size: 10.2px;" transform="translate(5,76.5)" y="0" x="0" id="text-entity-Person-84ee9ab5-8d8f-5582-81c6-bfa2c33a578d-attr-3-type" class="er entityLabel">string</text><rect height="21" width="72.671875" y="66" x="59.03125" class="er attributeBoxOdd"/><text style="dominant-baseline: middle; font-size: 10.2px;" transform="translate(64.03125,76.5)" y="0" x="0" id="text-entity-Person-84ee9ab5-8d8f-5582-81c6-bfa2c33a578d-attr-3-name" class="er entityLabel">lastName</text><rect height="21" width="59.03125" y="87" x="0" class="er attributeBoxEven"/><text style="dominant-baseline: middle; font-size: 10.2px;" transform="translate(5,97.5)" y="0" x="0" id="text-entity-Person-84ee9ab5-8d8f-5582-81c6-bfa2c33a578d-attr-4-type" class="er entityLabel">string</text><rect height="21" width="72.671875" y="87" x="59.03125" class="er attributeBoxEven"/><text style="dominant-baseline: middle; font-size: 10.2px;" transform="translate(64.03125,97.5)" y="0" x="0" id="text-entity-Person-84ee9ab5-8d8f-5582-81c6-bfa2c33a578d-attr-4-name" class="er entityLabel">orcid</text><rect height="22" width="59.03125" y="108" x="0" class="er attributeBoxOdd"/><text style="dominant-baseline: middle; font-size: 10.2px;" transform="translate(5,119)" y="0" x="0" id="text-entity-Person-84ee9ab5-8d8f-5582-81c6-bfa2c33a578d-attr-5-type" class="er entityLabel">string</text><rect height="22" width="72.671875" y="108" x="59.03125" class="er attributeBoxOdd"/><text style="dominant-baseline: middle; font-size: 10.2px;" transform="translate(64.03125,119)" y="0" x="0" id="text-entity-Person-84ee9ab5-8d8f-5582-81c6-bfa2c33a578d-attr-5-name" class="er entityLabel">conforms_to</text><rect height="21" width="59.03125" y="130" x="0" class="er attributeBoxEven"/><text style="dominant-baseline: middle; font-size: 10.2px;" transform="translate(5,140.5)" y="0" x="0" id="text-entity-Person-84ee9ab5-8d8f-5582-81c6-bfa2c33a578d-attr-6-type" class="er entityLabel">uriorcurie</text><rect height="21" width="72.671875" y="130" x="59.03125" class="er attributeBoxEven"/><text style="dominant-baseline: middle; font-size: 10.2px;" transform="translate(64.03125,140.5)" y="0" x="0" id="text-entity-Person-84ee9ab5-8d8f-5582-81c6-bfa2c33a578d-attr-6-name" class="er entityLabel">id</text><rect height="21" width="59.03125" y="151" x="0" class="er attributeBoxOdd"/><text style="dominant-baseline: middle; font-size: 10.2px;" transform="translate(5,161.5)" y="0" x="0" id="text-entity-Person-84ee9ab5-8d8f-5582-81c6-bfa2c33a578d-attr-7-type" class="er entityLabel">string</text><rect height="21" width="72.671875" y="151" x="59.03125" class="er attributeBoxOdd"/><text style="dominant-baseline: middle; font-size: 10.2px;" transform="translate(64.03125,161.5)" y="0" x="0" id="text-entity-Person-84ee9ab5-8d8f-5582-81c6-bfa2c33a578d-attr-7-name" class="er entityLabel">label</text></g><g transform="translate(338.41796875,1048 )" id="entity-Named-527792da-945b-57c2-aece-6a504f46f916"><rect height="66" width="100" y="0" x="0" class="er entityBox"/><text style="dominant-baseline: middle; text-anchor: middle; font-size: 12px;" transform="translate(50,12)" y="0" x="0" id="text-entity-Named-527792da-945b-57c2-aece-6a504f46f916" class="er entityLabel">Named</text><rect height="21" width="62.1953125" y="24" x="0" class="er attributeBoxOdd"/><text style="dominant-baseline: middle; font-size: 10.2px;" transform="translate(5,34.5)" y="0" x="0" id="text-entity-Named-527792da-945b-57c2-aece-6a504f46f916-attr-1-type" class="er entityLabel">uriorcurie</text><rect height="21" width="37.8046875" y="24" x="62.1953125" class="er attributeBoxOdd"/><text style="dominant-baseline: middle; font-size: 10.2px;" transform="translate(67.1953125,34.5)" y="0" x="0" id="text-entity-Named-527792da-945b-57c2-aece-6a504f46f916-attr-1-name" class="er entityLabel">id</text><rect height="21" width="62.1953125" y="45" x="0" class="er attributeBoxEven"/><text style="dominant-baseline: middle; font-size: 10.2px;" transform="translate(5,55.5)" y="0" x="0" id="text-entity-Named-527792da-945b-57c2-aece-6a504f46f916-attr-2-type" class="er entityLabel">string</text><rect height="21" width="37.8046875" y="45" x="62.1953125" class="er attributeBoxEven"/><text style="dominant-baseline: middle; font-size: 10.2px;" transform="translate(67.1953125,55.5)" y="0" x="0" id="text-entity-Named-527792da-945b-57c2-aece-6a504f46f916-attr-2-name" class="er entityLabel">label</text></g><g transform="translate(584.3057098388672,829 )" id="entity-Grant-291daf2c-8722-576f-890e-1045bc6484c0"><rect height="66" width="122.27920532226562" y="0" x="0" class="er entityBox"/><text style="dominant-baseline: middle; text-anchor: middle; font-size: 12px;" transform="translate(61.13960266113281,12)" y="0" x="0" id="text-entity-Grant-291daf2c-8722-576f-890e-1045bc6484c0" class="er entityLabel">Grant</text><rect height="21" width="39.25" y="24" x="0" class="er attributeBoxOdd"/><text style="dominant-baseline: middle; font-size: 10.2px;" transform="translate(5,34.5)" y="0" x="0" id="text-entity-Grant-291daf2c-8722-576f-890e-1045bc6484c0-attr-1-type" class="er entityLabel">string</text><rect height="21" width="83.02920532226562" y="24" x="39.25" class="er attributeBoxOdd"/><text style="dominant-baseline: middle; font-size: 10.2px;" transform="translate(44.25,34.5)" y="0" x="0" id="text-entity-Grant-291daf2c-8722-576f-890e-1045bc6484c0-attr-1-name" class="er entityLabel">funder</text><rect height="21" width="39.25" y="45" x="0" class="er attributeBoxEven"/><text style="dominant-baseline: middle; font-size: 10.2px;" transform="translate(5,55.5)" y="0" x="0" id="text-entity-Grant-291daf2c-8722-576f-890e-1045bc6484c0-attr-2-type" class="er entityLabel">string</text><rect height="21" width="83.02920532226562" y="45" x="39.25" class="er attributeBoxEven"/><text style="dominant-baseline: middle; font-size: 10.2px;" transform="translate(44.25,55.5)" y="0" x="0" id="text-entity-Grant-291daf2c-8722-576f-890e-1045bc6484c0-attr-2-name" class="er entityLabel">awardNumber</text></g><g transform="translate(853.9594039916992,818 )" id="entity-Creator-22c37820-830e-5050-9ef7-2120deecbdf9"><rect height="88" width="131.703125" y="0" x="0" class="er entityBox"/><text style="dominant-baseline: middle; text-anchor: middle; font-size: 12px;" transform="translate(65.8515625,12)" y="0" x="0" id="text-entity-Creator-22c37820-830e-5050-9ef7-2120deecbdf9" class="er entityLabel">Creator</text><rect height="22" width="59.03125" y="24" x="0" class="er attributeBoxOdd"/><text style="dominant-baseline: middle; font-size: 10.2px;" transform="translate(5,35)" y="0" x="0" id="text-entity-Creator-22c37820-830e-5050-9ef7-2120deecbdf9-attr-1-type" class="er entityLabel">string</text><rect height="22" width="72.671875" y="24" x="59.03125" class="er attributeBoxOdd"/><text style="dominant-baseline: middle; font-size: 10.2px;" transform="translate(64.03125,35)" y="0" x="0" id="text-entity-Creator-22c37820-830e-5050-9ef7-2120deecbdf9-attr-1-name" class="er entityLabel">conforms_to</text><rect height="21" width="59.03125" y="46" x="0" class="er attributeBoxEven"/><text style="dominant-baseline: middle; font-size: 10.2px;" transform="translate(5,56.5)" y="0" x="0" id="text-entity-Creator-22c37820-830e-5050-9ef7-2120deecbdf9-attr-2-type" class="er entityLabel">uriorcurie</text><rect height="21" width="72.671875" y="46" x="59.03125" class="er attributeBoxEven"/><text style="dominant-baseline: middle; font-size: 10.2px;" transform="translate(64.03125,56.5)" y="0" x="0" id="text-entity-Creator-22c37820-830e-5050-9ef7-2120deecbdf9-attr-2-name" class="er entityLabel">id</text><rect height="21" width="59.03125" y="67" x="0" class="er attributeBoxOdd"/><text style="dominant-baseline: middle; font-size: 10.2px;" transform="translate(5,77.5)" y="0" x="0" id="text-entity-Creator-22c37820-830e-5050-9ef7-2120deecbdf9-attr-3-type" class="er entityLabel">string</text><rect height="21" width="72.671875" y="67" x="59.03125" class="er attributeBoxOdd"/><text style="dominant-baseline: middle; font-size: 10.2px;" transform="translate(64.03125,77.5)" y="0" x="0" id="text-entity-Creator-22c37820-830e-5050-9ef7-2120deecbdf9-attr-3-name" class="er entityLabel">label</text></g><rect height="14" width="49.25" y="413.7785339355469" x="803.6282958984375" class="er relationshipLabelBox"/><text style="text-anchor: middle; dominant-baseline: middle; font-size: 12px;" y="420.7785339355469" x="828.2532958984375" id="rel1" class="er relationshipLabel">creators</text><rect height="14" width="74.640625" y="403.2467346191406" x="52.876548767089844" class="er relationshipLabelBox"/><text style="text-anchor: middle; dominant-baseline: middle; font-size: 12px;" y="410.2467346191406" x="90.19686126708984" id="rel2" class="er relationshipLabel">distributions</text><rect height="14" width="108.71875" y="320" x="391.6836242675781" class="er relationshipLabelBox"/><text style="text-anchor: middle; dominant-baseline: middle; font-size: 12px;" y="327" x="446.0429992675781" id="rel3" class="er relationshipLabel">was_derived_from</text><rect height="14" width="49.25" y="648.069091796875" x="729.4947509765625" class="er relationshipLabelBox"/><text style="text-anchor: middle; dominant-baseline: middle; font-size: 12px;" y="655.069091796875" x="754.1197509765625" id="rel4" class="er relationshipLabel">creators</text><rect height="14" width="58.265625" y="687.5123901367188" x="295.16949462890625" class="er relationshipLabelBox"/><text style="text-anchor: middle; dominant-baseline: middle; font-size: 12px;" y="694.5123901367188" x="324.30230712890625" id="rel5" class="er relationshipLabel">reviewers</text><rect height="14" width="45.625" y="692.6390991210938" x="587.185791015625" class="er relationshipLabelBox"/><text style="text-anchor: middle; dominant-baseline: middle; font-size: 12px;" y="699.6390991210938" x="609.998291015625" id="rel6" class="er relationshipLabel">funders</text><rect height="14" width="79.59375" y="718.515869140625" x="357.943115234375" class="er relationshipLabelBox"/><text style="text-anchor: middle; dominant-baseline: middle; font-size: 12px;" y="725.515869140625" x="397.739990234375" id="rel7" class="er relationshipLabel">project_leads</text><rect height="14" width="110.765625" y="724.6065063476562" x="429.8931579589844" class="er relationshipLabelBox"/><text style="text-anchor: middle; dominant-baseline: middle; font-size: 12px;" y="731.6065063476562" x="485.2759704589844" id="rel8" class="er relationshipLabel">externalReviewers</text><rect height="14" width="74.640625" y="672.8989868164062" x="218.08676147460938" class="er relationshipLabelBox"/><text style="text-anchor: middle; dominant-baseline: middle; font-size: 12px;" y="679.8989868164062" x="255.40707397460938" id="rel9" class="er relationshipLabel">distributions</text><rect height="14" width="108.71875" y="519.5" x="665.2996215820312" class="er relationshipLabelBox"/><text style="text-anchor: middle; dominant-baseline: middle; font-size: 12px;" y="526.5" x="719.6589965820312" id="rel10" class="er relationshipLabel">was_derived_from</text><rect height="14" width="45.1484375" y="991" x="365.8437805175781" class="er relationshipLabelBox"/><text style="text-anchor: middle; dominant-baseline: middle; font-size: 12px;" y="998" x="388.4179992675781" id="rel11" class="er relationshipLabel">type_of</text></svg>