<svg aria-roledescription="er" role="graphics-document document" viewBox="0 0 205.9090576171875 841" style="max-width: 205.909px; background-color: transparent;" xmlns:xlink="http://www.w3.org/1999/xlink" xmlns="http://www.w3.org/2000/svg" width="100%" id="my-svg"><style>#my-svg{font-family:"trebuchet ms",verdana,arial,sans-serif;font-size:16px;fill:#333;}#my-svg .error-icon{fill:#552222;}#my-svg .error-text{fill:#552222;stroke:#552222;}#my-svg .edge-thickness-normal{stroke-width:1px;}#my-svg .edge-thickness-thick{stroke-width:3.5px;}#my-svg .edge-pattern-solid{stroke-dasharray:0;}#my-svg .edge-thickness-invisible{stroke-width:0;fill:none;}#my-svg .edge-pattern-dashed{stroke-dasharray:3;}#my-svg .edge-pattern-dotted{stroke-dasharray:2;}#my-svg .marker{fill:#333333;stroke:#333333;}#my-svg .marker.cross{stroke:#333333;}#my-svg svg{font-family:"trebuchet ms",verdana,arial,sans-serif;font-size:16px;}#my-svg p{margin:0;}#my-svg .entityBox{fill:#ECECFF;stroke:#9370DB;}#my-svg .attributeBoxOdd{fill:#ffffff;stroke:#9370DB;}#my-svg .attributeBoxEven{fill:#f2f2f2;stroke:#9370DB;}#my-svg .relationshipLabelBox{fill:hsl(80, 100%, 96.2745098039%);opacity:0.7;background-color:hsl(80, 100%, 96.2745098039%);}#my-svg .relationshipLabelBox rect{opacity:0.5;}#my-svg .relationshipLine{stroke:#333333;}#my-svg .entityTitleText{text-anchor:middle;font-size:18px;fill:#333;}#my-svg #MD_PARENT_START{fill:#f5f5f5!important;stroke:#333333!important;stroke-width:1;}#my-svg #MD_PARENT_END{fill:#f5f5f5!important;stroke:#333333!important;stroke-width:1;}#my-svg :root{--mermaid-font-family:"trebuchet ms",verdana,arial,sans-serif;}</style><g/><defs><marker orient="auto" markerHeight="240" markerWidth="190" refY="7" refX="0" id="MD_PARENT_START"><path d="M 18,7 L9,13 L1,7 L9,1 Z"/></marker></defs><defs><marker orient="auto" markerHeight="28" markerWidth="20" refY="7" refX="19" id="MD_PARENT_END"><path d="M 18,7 L9,13 L1,7 L9,1 Z"/></marker></defs><defs><marker orient="auto" markerHeight="18" markerWidth="18" refY="9" refX="0" id="ONLY_ONE_START"><path d="M9,0 L9,18 M15,0 L15,18" fill="none" stroke="gray"/></marker></defs><defs><marker orient="auto" markerHeight="18" markerWidth="18" refY="9" refX="18" id="ONLY_ONE_END"><path d="M3,0 L3,18 M9,0 L9,18" fill="none" stroke="gray"/></marker></defs><defs><marker orient="auto" markerHeight="18" markerWidth="30" refY="9" refX="0" id="ZERO_OR_ONE_START"><circle r="6" cy="9" cx="21" fill="white" stroke="gray"/><path d="M9,0 L9,18" fill="none" stroke="gray"/></marker></defs><defs><marker orient="auto" markerHeight="18" markerWidth="30" refY="9" refX="30" id="ZERO_OR_ONE_END"><circle r="6" cy="9" cx="9" fill="white" stroke="gray"/><path d="M21,0 L21,18" fill="none" stroke="gray"/></marker></defs><defs><marker orient="auto" markerHeight="36" markerWidth="45" refY="18" refX="18" id="ONE_OR_MORE_START"><path d="M0,18 Q 18,0 36,18 Q 18,36 0,18 M42,9 L42,27" fill="none" stroke="gray"/></marker></defs><defs><marker orient="auto" markerHeight="36" markerWidth="45" refY="18" refX="27" id="ONE_OR_MORE_END"><path d="M3,9 L3,27 M9,18 Q27,0 45,18 Q27,36 9,18" fill="none" stroke="gray"/></marker></defs><defs><marker orient="auto" markerHeight="36" markerWidth="57" refY="18" refX="18" id="ZERO_OR_MORE_START"><circle r="6" cy="18" cx="48" fill="white" stroke="gray"/><path d="M0,18 Q18,0 36,18 Q18,36 0,18" fill="none" stroke="gray"/></marker></defs><defs><marker orient="auto" markerHeight="36" markerWidth="57" refY="18" refX="39" id="ZERO_OR_MORE_END"><circle r="6" cy="18" cx="9" fill="white" stroke="gray"/><path d="M21,18 Q39,0 57,18 Q39,36 21,18" fill="none" stroke="gray"/></marker></defs><path style="stroke: gray; fill: none;" marker-start="url(#ONLY_ONE_START)" marker-end="url(#ZERO_OR_ONE_END)" d="M102.955,86L102.955,94.333C102.955,102.667,102.955,119.333,102.955,136C102.955,152.667,102.955,169.333,102.955,177.667L102.955,186" class="er relationshipLine"/><path style="stroke: gray; fill: none;" marker-start="url(#ONLY_ONE_START)" marker-end="url(#ZERO_OR_MORE_END)" d="M102.955,338L102.955,346.333C102.955,354.667,102.955,371.333,102.955,388C102.955,404.667,102.955,421.333,102.955,429.667L102.955,438" class="er relationshipLine"/><path style="stroke: gray; fill: none;" marker-start="url(#ONLY_ONE_START)" marker-end="url(#ZERO_OR_MORE_END)" d="M102.955,655L102.955,663.333C102.955,671.667,102.955,688.333,102.955,705C102.955,721.667,102.955,738.333,102.955,746.667L102.955,755" class="er relationshipLine"/><g transform="translate(52.95452880859375,20 )" id="entity-Container-bc34fb32-8a75-5b81-936b-92374bf40296"><rect height="66" width="100" y="0" x="0" class="er entityBox"/><text style="dominant-baseline: middle; text-anchor: middle; font-size: 12px;" transform="translate(50,12)" y="0" x="0" id="text-entity-Container-bc34fb32-8a75-5b81-936b-92374bf40296" class="er entityLabel">Container</text><rect height="21" width="39.9296875" y="24" x="0" class="er attributeBoxOdd"/><text style="dominant-baseline: middle; font-size: 10.2px;" transform="translate(5,34.5)" y="0" x="0" id="text-entity-Container-bc34fb32-8a75-5b81-936b-92374bf40296-attr-1-type" class="er entityLabel">string</text><rect height="21" width="60.0703125" y="24" x="39.9296875" class="er attributeBoxOdd"/><text style="dominant-baseline: middle; font-size: 10.2px;" transform="translate(44.9296875,34.5)" y="0" x="0" id="text-entity-Container-bc34fb32-8a75-5b81-936b-92374bf40296-attr-1-name" class="er entityLabel">iri</text><rect height="21" width="39.9296875" y="45" x="0" class="er attributeBoxEven"/><text style="dominant-baseline: middle; font-size: 10.2px;" transform="translate(5,55.5)" y="0" x="0" id="text-entity-Container-bc34fb32-8a75-5b81-936b-92374bf40296-attr-2-type" class="er entityLabel">string</text><rect height="21" width="60.0703125" y="45" x="39.9296875" class="er attributeBoxEven"/><text style="dominant-baseline: middle; font-size: 10.2px;" transform="translate(44.9296875,55.5)" y="0" x="0" id="text-entity-Container-bc34fb32-8a75-5b81-936b-92374bf40296-attr-2-name" class="er entityLabel">metadata</text></g><g transform="translate(32.54827880859375,186 )" id="entity-AssayDatasetData-3941e4dc-3f5c-5382-92d5-ed9710e66eb9"><rect height="152" width="140.8125" y="0" x="0" class="er entityBox"/><text style="dominant-baseline: middle; text-anchor: middle; font-size: 12px;" transform="translate(70.40625,12)" y="0" x="0" id="text-entity-AssayDatasetData-3941e4dc-3f5c-5382-92d5-ed9710e66eb9" class="er entityLabel">AssayDatasetData</text><rect height="21" width="49.6796875" y="24" x="0" class="er attributeBoxOdd"/><text style="dominant-baseline: middle; font-size: 10.2px;" transform="translate(5,34.5)" y="0" x="0" id="text-entity-AssayDatasetData-3941e4dc-3f5c-5382-92d5-ed9710e66eb9-attr-1-type" class="er entityLabel">string</text><rect height="21" width="91.1328125" y="24" x="49.6796875" class="er attributeBoxOdd"/><text style="dominant-baseline: middle; font-size: 10.2px;" transform="translate(54.6796875,34.5)" y="0" x="0" id="text-entity-AssayDatasetData-3941e4dc-3f5c-5382-92d5-ed9710e66eb9-attr-1-name" class="er entityLabel">donor</text><rect height="21" width="49.6796875" y="45" x="0" class="er attributeBoxEven"/><text style="dominant-baseline: middle; font-size: 10.2px;" transform="translate(5,55.5)" y="0" x="0" id="text-entity-AssayDatasetData-3941e4dc-3f5c-5382-92d5-ed9710e66eb9-attr-2-type" class="er entityLabel">string</text><rect height="21" width="91.1328125" y="45" x="49.6796875" class="er attributeBoxEven"/><text style="dominant-baseline: middle; font-size: 10.2px;" transform="translate(54.6796875,55.5)" y="0" x="0" id="text-entity-AssayDatasetData-3941e4dc-3f5c-5382-92d5-ed9710e66eb9-attr-2-name" class="er entityLabel">sample</text><rect height="22" width="49.6796875" y="66" x="0" class="er attributeBoxOdd"/><text style="dominant-baseline: middle; font-size: 10.2px;" transform="translate(5,77)" y="0" x="0" id="text-entity-AssayDatasetData-3941e4dc-3f5c-5382-92d5-ed9710e66eb9-attr-3-type" class="er entityLabel">string</text><rect height="22" width="91.1328125" y="66" x="49.6796875" class="er attributeBoxOdd"/><text style="dominant-baseline: middle; font-size: 10.2px;" transform="translate(54.6796875,77)" y="0" x="0" id="text-entity-AssayDatasetData-3941e4dc-3f5c-5382-92d5-ed9710e66eb9-attr-3-name" class="er entityLabel">spatial_entity</text><rect height="22" width="49.6796875" y="88" x="0" class="er attributeBoxEven"/><text style="dominant-baseline: middle; font-size: 10.2px;" transform="translate(5,99)" y="0" x="0" id="text-entity-AssayDatasetData-3941e4dc-3f5c-5382-92d5-ed9710e66eb9-attr-4-type" class="er entityLabel">string</text><rect height="22" width="91.1328125" y="88" x="49.6796875" class="er attributeBoxEven"/><text style="dominant-baseline: middle; font-size: 10.2px;" transform="translate(54.6796875,99)" y="0" x="0" id="text-entity-AssayDatasetData-3941e4dc-3f5c-5382-92d5-ed9710e66eb9-attr-4-name" class="er entityLabel">cell_summary</text><rect height="21" width="49.6796875" y="110" x="0" class="er attributeBoxOdd"/><text style="dominant-baseline: middle; font-size: 10.2px;" transform="translate(5,120.5)" y="0" x="0" id="text-entity-AssayDatasetData-3941e4dc-3f5c-5382-92d5-ed9710e66eb9-attr-5-type" class="er entityLabel">string</text><rect height="21" width="91.1328125" y="110" x="49.6796875" class="er attributeBoxOdd"/><text style="dominant-baseline: middle; font-size: 10.2px;" transform="translate(54.6796875,120.5)" y="0" x="0" id="text-entity-AssayDatasetData-3941e4dc-3f5c-5382-92d5-ed9710e66eb9-attr-5-name" class="er entityLabel">collision</text><rect height="21" width="49.6796875" y="131" x="0" class="er attributeBoxEven"/><text style="dominant-baseline: middle; font-size: 10.2px;" transform="translate(5,141.5)" y="0" x="0" id="text-entity-AssayDatasetData-3941e4dc-3f5c-5382-92d5-ed9710e66eb9-attr-6-type" class="er entityLabel">string</text><rect height="21" width="91.1328125" y="131" x="49.6796875" class="er attributeBoxEven"/><text style="dominant-baseline: middle; font-size: 10.2px;" transform="translate(54.6796875,141.5)" y="0" x="0" id="text-entity-AssayDatasetData-3941e4dc-3f5c-5382-92d5-ed9710e66eb9-attr-6-name" class="er entityLabel">corridor</text></g><g transform="translate(20,438 )" id="entity-AssayDataset-120c984f-7c2a-504e-a848-d48bcd9654fc"><rect height="217" width="165.9090576171875" y="0" x="0" class="er entityBox"/><text style="dominant-baseline: middle; text-anchor: middle; font-size: 12px;" transform="translate(82.95452880859375,12)" y="0" x="0" id="text-entity-AssayDataset-120c984f-7c2a-504e-a848-d48bcd9654fc" class="er entityLabel">AssayDataset</text><rect height="22" width="76.8309326171875" y="24" x="0" class="er attributeBoxOdd"/><text style="dominant-baseline: middle; font-size: 10.2px;" transform="translate(5,35)" y="0" x="0" id="text-entity-AssayDataset-120c984f-7c2a-504e-a848-d48bcd9654fc-attr-1-type" class="er entityLabel">string</text><rect height="22" width="89.078125" y="24" x="76.8309326171875" class="er attributeBoxOdd"/><text style="dominant-baseline: middle; font-size: 10.2px;" transform="translate(81.8309326171875,35)" y="0" x="0" id="text-entity-AssayDataset-120c984f-7c2a-504e-a848-d48bcd9654fc-attr-1-name" class="er entityLabel">pref_label</text><rect height="21" width="76.8309326171875" y="46" x="0" class="er attributeBoxEven"/><text style="dominant-baseline: middle; font-size: 10.2px;" transform="translate(5,56.5)" y="0" x="0" id="text-entity-AssayDataset-120c984f-7c2a-504e-a848-d48bcd9654fc-attr-2-type" class="er entityLabel">string</text><rect height="21" width="89.078125" y="46" x="76.8309326171875" class="er attributeBoxEven"/><text style="dominant-baseline: middle; font-size: 10.2px;" transform="translate(81.8309326171875,56.5)" y="0" x="0" id="text-entity-AssayDataset-120c984f-7c2a-504e-a848-d48bcd9654fc-attr-2-name" class="er entityLabel">description</text><rect height="22" width="76.8309326171875" y="67" x="0" class="er attributeBoxOdd"/><text style="dominant-baseline: middle; font-size: 10.2px;" transform="translate(5,78)" y="0" x="0" id="text-entity-AssayDataset-120c984f-7c2a-504e-a848-d48bcd9654fc-attr-3-type" class="er entityLabel">string</text><rect height="22" width="89.078125" y="67" x="76.8309326171875" class="er attributeBoxOdd"/><text style="dominant-baseline: middle; font-size: 10.2px;" transform="translate(81.8309326171875,78)" y="0" x="0" id="text-entity-AssayDataset-120c984f-7c2a-504e-a848-d48bcd9654fc-attr-3-name" class="er entityLabel">external_link</text><rect height="21" width="76.8309326171875" y="89" x="0" class="er attributeBoxEven"/><text style="dominant-baseline: middle; font-size: 10.2px;" transform="translate(5,99.5)" y="0" x="0" id="text-entity-AssayDataset-120c984f-7c2a-504e-a848-d48bcd9654fc-attr-4-type" class="er entityLabel">string</text><rect height="21" width="89.078125" y="89" x="76.8309326171875" class="er attributeBoxEven"/><text style="dominant-baseline: middle; font-size: 10.2px;" transform="translate(81.8309326171875,99.5)" y="0" x="0" id="text-entity-AssayDataset-120c984f-7c2a-504e-a848-d48bcd9654fc-attr-4-name" class="er entityLabel">technology</text><rect height="21" width="76.8309326171875" y="110" x="0" class="er attributeBoxOdd"/><text style="dominant-baseline: middle; font-size: 10.2px;" transform="translate(5,120.5)" y="0" x="0" id="text-entity-AssayDataset-120c984f-7c2a-504e-a848-d48bcd9654fc-attr-5-type" class="er entityLabel">string</text><rect height="21" width="89.078125" y="110" x="76.8309326171875" class="er attributeBoxOdd"/><text style="dominant-baseline: middle; font-size: 10.2px;" transform="translate(81.8309326171875,120.5)" y="0" x="0" id="text-entity-AssayDataset-120c984f-7c2a-504e-a848-d48bcd9654fc-attr-5-name" class="er entityLabel">thumbnail</text><rect height="22" width="76.8309326171875" y="131" x="0" class="er attributeBoxEven"/><text style="dominant-baseline: middle; font-size: 10.2px;" transform="translate(5,142)" y="0" x="0" id="text-entity-AssayDataset-120c984f-7c2a-504e-a848-d48bcd9654fc-attr-6-type" class="er entityLabel">uriorcurieList</text><rect height="22" width="89.078125" y="131" x="76.8309326171875" class="er attributeBoxEven"/><text style="dominant-baseline: middle; font-size: 10.2px;" transform="translate(81.8309326171875,142)" y="0" x="0" id="text-entity-AssayDataset-120c984f-7c2a-504e-a848-d48bcd9654fc-attr-6-name" class="er entityLabel">cell_summaries</text><rect height="22" width="76.8309326171875" y="153" x="0" class="er attributeBoxOdd"/><text style="dominant-baseline: middle; font-size: 10.2px;" transform="translate(5,164)" y="0" x="0" id="text-entity-AssayDataset-120c984f-7c2a-504e-a848-d48bcd9654fc-attr-7-type" class="er entityLabel">uriorcurie</text><rect height="22" width="89.078125" y="153" x="76.8309326171875" class="er attributeBoxOdd"/><text style="dominant-baseline: middle; font-size: 10.2px;" transform="translate(81.8309326171875,164)" y="0" x="0" id="text-entity-AssayDataset-120c984f-7c2a-504e-a848-d48bcd9654fc-attr-7-name" class="er entityLabel">links_back_to</text><rect height="21" width="76.8309326171875" y="175" x="0" class="er attributeBoxEven"/><text style="dominant-baseline: middle; font-size: 10.2px;" transform="translate(5,185.5)" y="0" x="0" id="text-entity-AssayDataset-120c984f-7c2a-504e-a848-d48bcd9654fc-attr-8-type" class="er entityLabel">uriorcurie</text><rect height="21" width="89.078125" y="175" x="76.8309326171875" class="er attributeBoxEven"/><text style="dominant-baseline: middle; font-size: 10.2px;" transform="translate(81.8309326171875,185.5)" y="0" x="0" id="text-entity-AssayDataset-120c984f-7c2a-504e-a848-d48bcd9654fc-attr-8-name" class="er entityLabel">id</text><rect height="21" width="76.8309326171875" y="196" x="0" class="er attributeBoxOdd"/><text style="dominant-baseline: middle; font-size: 10.2px;" transform="translate(5,206.5)" y="0" x="0" id="text-entity-AssayDataset-120c984f-7c2a-504e-a848-d48bcd9654fc-attr-9-type" class="er entityLabel">string</text><rect height="21" width="89.078125" y="196" x="76.8309326171875" class="er attributeBoxOdd"/><text style="dominant-baseline: middle; font-size: 10.2px;" transform="translate(81.8309326171875,206.5)" y="0" x="0" id="text-entity-AssayDataset-120c984f-7c2a-504e-a848-d48bcd9654fc-attr-9-name" class="er entityLabel">label</text></g><g transform="translate(52.95452880859375,755 )" id="entity-Named-527792da-945b-57c2-aece-6a504f46f916"><rect height="66" width="100" y="0" x="0" class="er entityBox"/><text style="dominant-baseline: middle; text-anchor: middle; font-size: 12px;" transform="translate(50,12)" y="0" x="0" id="text-entity-Named-527792da-945b-57c2-aece-6a504f46f916" class="er entityLabel">Named</text><rect height="21" width="62.1953125" y="24" x="0" class="er attributeBoxOdd"/><text style="dominant-baseline: middle; font-size: 10.2px;" transform="translate(5,34.5)" y="0" x="0" id="text-entity-Named-527792da-945b-57c2-aece-6a504f46f916-attr-1-type" class="er entityLabel">uriorcurie</text><rect height="21" width="37.8046875" y="24" x="62.1953125" class="er attributeBoxOdd"/><text style="dominant-baseline: middle; font-size: 10.2px;" transform="translate(67.1953125,34.5)" y="0" x="0" id="text-entity-Named-527792da-945b-57c2-aece-6a504f46f916-attr-1-name" class="er entityLabel">id</text><rect height="21" width="62.1953125" y="45" x="0" class="er attributeBoxEven"/><text style="dominant-baseline: middle; font-size: 10.2px;" transform="translate(5,55.5)" y="0" x="0" id="text-entity-Named-527792da-945b-57c2-aece-6a504f46f916-attr-2-type" class="er entityLabel">string</text><rect height="21" width="37.8046875" y="45" x="62.1953125" class="er attributeBoxEven"/><text style="dominant-baseline: middle; font-size: 10.2px;" transform="translate(67.1953125,55.5)" y="0" x="0" id="text-entity-Named-527792da-945b-57c2-aece-6a504f46f916-attr-2-name" class="er entityLabel">label</text></g><rect height="14" width="27.03125" y="129" x="89.43937683105469" class="er relationshipLabelBox"/><text style="text-anchor: middle; dominant-baseline: middle; font-size: 12px;" y="136" x="102.95500183105469" id="rel1" class="er relationshipLabel">data</text><rect height="14" width="45.6640625" y="381" x="80.12297058105469" class="er relationshipLabelBox"/><text style="text-anchor: middle; dominant-baseline: middle; font-size: 12px;" y="388" x="102.95500183105469" id="rel2" class="er relationshipLabel">dataset</text><rect height="14" width="45.1484375" y="698" x="80.38078308105469" class="er relationshipLabelBox"/><text style="text-anchor: middle; dominant-baseline: middle; font-size: 12px;" y="705" x="102.95500183105469" id="rel3" class="er relationshipLabel">type_of</text></svg>