<svg aria-roledescription="er" role="graphics-document document" viewBox="-61.544776916503906 0 559.598388671875 778" style="max-width: 559.598px; background-color: transparent;" xmlns:xlink="http://www.w3.org/1999/xlink" xmlns="http://www.w3.org/2000/svg" width="100%" id="my-svg"><style>#my-svg{font-family:"trebuchet ms",verdana,arial,sans-serif;font-size:16px;fill:#333;}#my-svg .error-icon{fill:#552222;}#my-svg .error-text{fill:#552222;stroke:#552222;}#my-svg .edge-thickness-normal{stroke-width:1px;}#my-svg .edge-thickness-thick{stroke-width:3.5px;}#my-svg .edge-pattern-solid{stroke-dasharray:0;}#my-svg .edge-thickness-invisible{stroke-width:0;fill:none;}#my-svg .edge-pattern-dashed{stroke-dasharray:3;}#my-svg .edge-pattern-dotted{stroke-dasharray:2;}#my-svg .marker{fill:#333333;stroke:#333333;}#my-svg .marker.cross{stroke:#333333;}#my-svg svg{font-family:"trebuchet ms",verdana,arial,sans-serif;font-size:16px;}#my-svg p{margin:0;}#my-svg .entityBox{fill:#ECECFF;stroke:#9370DB;}#my-svg .attributeBoxOdd{fill:#ffffff;stroke:#9370DB;}#my-svg .attributeBoxEven{fill:#f2f2f2;stroke:#9370DB;}#my-svg .relationshipLabelBox{fill:hsl(80, 100%, 96.2745098039%);opacity:0.7;background-color:hsl(80, 100%, 96.2745098039%);}#my-svg .relationshipLabelBox rect{opacity:0.5;}#my-svg .relationshipLine{stroke:#333333;}#my-svg .entityTitleText{text-anchor:middle;font-size:18px;fill:#333;}#my-svg #MD_PARENT_START{fill:#f5f5f5!important;stroke:#333333!important;stroke-width:1;}#my-svg #MD_PARENT_END{fill:#f5f5f5!important;stroke:#333333!important;stroke-width:1;}#my-svg :root{--mermaid-font-family:"trebuchet ms",verdana,arial,sans-serif;}</style><g/><defs><marker orient="auto" markerHeight="240" markerWidth="190" refY="7" refX="0" id="MD_PARENT_START"><path d="M 18,7 L9,13 L1,7 L9,1 Z"/></marker></defs><defs><marker orient="auto" markerHeight="28" markerWidth="20" refY="7" refX="19" id="MD_PARENT_END"><path d="M 18,7 L9,13 L1,7 L9,1 Z"/></marker></defs><defs><marker orient="auto" markerHeight="18" markerWidth="18" refY="9" refX="0" id="ONLY_ONE_START"><path d="M9,0 L9,18 M15,0 L15,18" fill="none" stroke="gray"/></marker></defs><defs><marker orient="auto" markerHeight="18" markerWidth="18" refY="9" refX="18" id="ONLY_ONE_END"><path d="M3,0 L3,18 M9,0 L9,18" fill="none" stroke="gray"/></marker></defs><defs><marker orient="auto" markerHeight="18" markerWidth="30" refY="9" refX="0" id="ZERO_OR_ONE_START"><circle r="6" cy="9" cx="21" fill="white" stroke="gray"/><path d="M9,0 L9,18" fill="none" stroke="gray"/></marker></defs><defs><marker orient="auto" markerHeight="18" markerWidth="30" refY="9" refX="30" id="ZERO_OR_ONE_END"><circle r="6" cy="9" cx="9" fill="white" stroke="gray"/><path d="M21,0 L21,18" fill="none" stroke="gray"/></marker></defs><defs><marker orient="auto" markerHeight="36" markerWidth="45" refY="18" refX="18" id="ONE_OR_MORE_START"><path d="M0,18 Q 18,0 36,18 Q 18,36 0,18 M42,9 L42,27" fill="none" stroke="gray"/></marker></defs><defs><marker orient="auto" markerHeight="36" markerWidth="45" refY="18" refX="27" id="ONE_OR_MORE_END"><path d="M3,9 L3,27 M9,18 Q27,0 45,18 Q27,36 9,18" fill="none" stroke="gray"/></marker></defs><defs><marker orient="auto" markerHeight="36" markerWidth="57" refY="18" refX="18" id="ZERO_OR_MORE_START"><circle r="6" cy="18" cx="48" fill="white" stroke="gray"/><path d="M0,18 Q18,0 36,18 Q18,36 0,18" fill="none" stroke="gray"/></marker></defs><defs><marker orient="auto" markerHeight="36" markerWidth="57" refY="18" refX="39" id="ZERO_OR_MORE_END"><circle r="6" cy="18" cx="9" fill="white" stroke="gray"/><path d="M21,18 Q39,0 57,18 Q39,36 21,18" fill="none" stroke="gray"/></marker></defs><path style="stroke: gray; fill: none;" marker-start="url(#ONLY_ONE_START)" marker-end="url(#ZERO_OR_ONE_END)" d="M317.474,65L331.197,73.333C344.919,81.667,372.365,98.333,386.087,115C399.81,131.667,399.81,148.333,399.81,156.667L399.81,165" class="er relationshipLine"/><path style="stroke: gray; fill: none;" marker-start="url(#ONLY_ONE_START)" marker-end="url(#ZERO_OR_MORE_END)" d="M243.371,65L229.649,73.333C215.926,81.667,188.481,98.333,174.758,125.75C161.035,153.167,161.035,191.333,161.035,210.417L161.035,229.5" class="er relationshipLine"/><path style="stroke: gray; fill: none;" marker-start="url(#ONLY_ONE_START)" marker-end="url(#ZERO_OR_MORE_END)" d="M221.566,312.071L252.935,332.059C284.303,352.047,347.04,392.024,378.409,420.345C409.777,448.667,409.777,465.333,409.777,473.667L409.777,482" class="er relationshipLine"/><path style="stroke: gray; fill: none;" marker-start="url(#ONLY_ONE_START)" marker-end="url(#ZERO_OR_MORE_END)" d="M161.035,317.5L161.035,336.583C161.035,355.667,161.035,393.833,161.035,421.25C161.035,448.667,161.035,465.333,161.035,473.667L161.035,482" class="er relationshipLine"/><path style="stroke: gray; fill: none;" marker-start="url(#ONLY_ONE_START)" marker-end="url(#ZERO_OR_MORE_END)" d="M110.492,317.5L88.571,336.583C66.65,355.667,22.807,393.833,0.886,430.417C-21.035,467,-21.035,502,-21.035,537C-21.035,572,-21.035,607,-11.895,632.833C-2.755,658.667,15.525,675.333,24.665,683.667L33.805,692" class="er relationshipLine"/><path style="stroke: gray; fill: none;" marker-start="url(#ONLY_ONE_START)" marker-end="url(#ZERO_OR_MORE_END)" d="M161.035,592L161.035,600.333C161.035,608.667,161.035,625.333,151.895,642C142.755,658.667,124.475,675.333,115.335,683.667L106.195,692" class="er relationshipLine"/><path style="stroke: gray; fill: none;" marker-start="url(#ONLY_ONE_START)" marker-end="url(#ZERO_OR_MORE_END)" d="M409.777,592L409.777,600.333C409.777,608.667,409.777,625.333,361.481,645.464C313.185,665.595,216.592,689.191,168.296,700.988L120,712.786" class="er relationshipLine"/><g transform="translate(230.42257690429688,20 )" id="entity-Container-bc34fb32-8a75-5b81-936b-92374bf40296"><rect height="45" width="100" y="0" x="0" class="er entityBox"/><text style="dominant-baseline: middle; text-anchor: middle; font-size: 12px;" transform="translate(50,12)" y="0" x="0" id="text-entity-Container-bc34fb32-8a75-5b81-936b-92374bf40296" class="er entityLabel">Container</text><rect height="21" width="69.5859375" y="24" x="0" class="er attributeBoxOdd"/><text style="dominant-baseline: middle; font-size: 10.2px;" transform="translate(5,34.5)" y="0" x="0" id="text-entity-Container-bc34fb32-8a75-5b81-936b-92374bf40296-attr-1-type" class="er entityLabel">uriorcurie</text><rect height="21" width="30.4140625" y="24" x="69.5859375" class="er attributeBoxOdd"/><text style="dominant-baseline: middle; font-size: 10.2px;" transform="translate(74.5859375,34.5)" y="0" x="0" id="text-entity-Container-bc34fb32-8a75-5b81-936b-92374bf40296-attr-1-name" class="er entityLabel">iri</text></g><g transform="translate(100.50390625,229.5 )" id="entity-FtuIllustration-34be1589-3c86-5e2a-8723-bbcddc02f58a"><rect height="88" width="121.0625" y="0" x="0" class="er entityBox"/><text style="dominant-baseline: middle; text-anchor: middle; font-size: 12px;" transform="translate(60.53125,12)" y="0" x="0" id="text-entity-FtuIllustration-34be1589-3c86-5e2a-8723-bbcddc02f58a" class="er entityLabel">FtuIllustration</text><rect height="22" width="59.03125" y="24" x="0" class="er attributeBoxOdd"/><text style="dominant-baseline: middle; font-size: 10.2px;" transform="translate(5,35)" y="0" x="0" id="text-entity-FtuIllustration-34be1589-3c86-5e2a-8723-bbcddc02f58a-attr-1-type" class="er entityLabel">uriorcurie</text><rect height="22" width="62.03125" y="24" x="59.03125" class="er attributeBoxOdd"/><text style="dominant-baseline: middle; font-size: 10.2px;" transform="translate(64.03125,35)" y="0" x="0" id="text-entity-FtuIllustration-34be1589-3c86-5e2a-8723-bbcddc02f58a-attr-1-name" class="er entityLabel">located_in</text><rect height="21" width="59.03125" y="46" x="0" class="er attributeBoxEven"/><text style="dominant-baseline: middle; font-size: 10.2px;" transform="translate(5,56.5)" y="0" x="0" id="text-entity-FtuIllustration-34be1589-3c86-5e2a-8723-bbcddc02f58a-attr-2-type" class="er entityLabel">uriorcurie</text><rect height="21" width="62.03125" y="46" x="59.03125" class="er attributeBoxEven"/><text style="dominant-baseline: middle; font-size: 10.2px;" transform="translate(64.03125,56.5)" y="0" x="0" id="text-entity-FtuIllustration-34be1589-3c86-5e2a-8723-bbcddc02f58a-attr-2-name" class="er entityLabel">id</text><rect height="21" width="59.03125" y="67" x="0" class="er attributeBoxOdd"/><text style="dominant-baseline: middle; font-size: 10.2px;" transform="translate(5,77.5)" y="0" x="0" id="text-entity-FtuIllustration-34be1589-3c86-5e2a-8723-bbcddc02f58a-attr-3-type" class="er entityLabel">string</text><rect height="21" width="62.03125" y="67" x="59.03125" class="er attributeBoxOdd"/><text style="dominant-baseline: middle; font-size: 10.2px;" transform="translate(64.03125,77.5)" y="0" x="0" id="text-entity-FtuIllustration-34be1589-3c86-5e2a-8723-bbcddc02f58a-attr-3-name" class="er entityLabel">label</text></g><g transform="translate(20,692 )" id="entity-Named-527792da-945b-57c2-aece-6a504f46f916"><rect height="66" width="100" y="0" x="0" class="er entityBox"/><text style="dominant-baseline: middle; text-anchor: middle; font-size: 12px;" transform="translate(50,12)" y="0" x="0" id="text-entity-Named-527792da-945b-57c2-aece-6a504f46f916" class="er entityLabel">Named</text><rect height="21" width="62.1953125" y="24" x="0" class="er attributeBoxOdd"/><text style="dominant-baseline: middle; font-size: 10.2px;" transform="translate(5,34.5)" y="0" x="0" id="text-entity-Named-527792da-945b-57c2-aece-6a504f46f916-attr-1-type" class="er entityLabel">uriorcurie</text><rect height="21" width="37.8046875" y="24" x="62.1953125" class="er attributeBoxOdd"/><text style="dominant-baseline: middle; font-size: 10.2px;" transform="translate(67.1953125,34.5)" y="0" x="0" id="text-entity-Named-527792da-945b-57c2-aece-6a504f46f916-attr-1-name" class="er entityLabel">id</text><rect height="21" width="62.1953125" y="45" x="0" class="er attributeBoxEven"/><text style="dominant-baseline: middle; font-size: 10.2px;" transform="translate(5,55.5)" y="0" x="0" id="text-entity-Named-527792da-945b-57c2-aece-6a504f46f916-attr-2-type" class="er entityLabel">string</text><rect height="21" width="37.8046875" y="45" x="62.1953125" class="er attributeBoxEven"/><text style="dominant-baseline: middle; font-size: 10.2px;" transform="translate(67.1953125,55.5)" y="0" x="0" id="text-entity-Named-527792da-945b-57c2-aece-6a504f46f916-attr-2-name" class="er entityLabel">label</text></g><g transform="translate(78.96484375,482 )" id="entity-FtuIllustrationNode-06e03507-7f6b-5f00-b53f-e37ac626315d"><rect height="110" width="164.140625" y="0" x="0" class="er entityBox"/><text style="dominant-baseline: middle; text-anchor: middle; font-size: 12px;" transform="translate(82.0703125,12)" y="0" x="0" id="text-entity-FtuIllustrationNode-06e03507-7f6b-5f00-b53f-e37ac626315d" class="er entityLabel">FtuIllustrationNode</text><rect height="22" width="59.03125" y="24" x="0" class="er attributeBoxOdd"/><text style="dominant-baseline: middle; font-size: 10.2px;" transform="translate(5,35)" y="0" x="0" id="text-entity-FtuIllustrationNode-06e03507-7f6b-5f00-b53f-e37ac626315d-attr-1-type" class="er entityLabel">string</text><rect height="22" width="105.109375" y="24" x="59.03125" class="er attributeBoxOdd"/><text style="dominant-baseline: middle; font-size: 10.2px;" transform="translate(64.03125,35)" y="0" x="0" id="text-entity-FtuIllustrationNode-06e03507-7f6b-5f00-b53f-e37ac626315d-attr-1-name" class="er entityLabel">node_name</text><rect height="22" width="59.03125" y="46" x="0" class="er attributeBoxEven"/><text style="dominant-baseline: middle; font-size: 10.2px;" transform="translate(5,57)" y="0" x="0" id="text-entity-FtuIllustrationNode-06e03507-7f6b-5f00-b53f-e37ac626315d-attr-2-type" class="er entityLabel">string</text><rect height="22" width="105.109375" y="46" x="59.03125" class="er attributeBoxEven"/><text style="dominant-baseline: middle; font-size: 10.2px;" transform="translate(64.03125,57)" y="0" x="0" id="text-entity-FtuIllustrationNode-06e03507-7f6b-5f00-b53f-e37ac626315d-attr-2-name" class="er entityLabel">part_of_illustration</text><rect height="21" width="59.03125" y="68" x="0" class="er attributeBoxOdd"/><text style="dominant-baseline: middle; font-size: 10.2px;" transform="translate(5,78.5)" y="0" x="0" id="text-entity-FtuIllustrationNode-06e03507-7f6b-5f00-b53f-e37ac626315d-attr-3-type" class="er entityLabel">uriorcurie</text><rect height="21" width="105.109375" y="68" x="59.03125" class="er attributeBoxOdd"/><text style="dominant-baseline: middle; font-size: 10.2px;" transform="translate(64.03125,78.5)" y="0" x="0" id="text-entity-FtuIllustrationNode-06e03507-7f6b-5f00-b53f-e37ac626315d-attr-3-name" class="er entityLabel">id</text><rect height="21" width="59.03125" y="89" x="0" class="er attributeBoxEven"/><text style="dominant-baseline: middle; font-size: 10.2px;" transform="translate(5,99.5)" y="0" x="0" id="text-entity-FtuIllustrationNode-06e03507-7f6b-5f00-b53f-e37ac626315d-attr-4-type" class="er entityLabel">string</text><rect height="21" width="105.109375" y="89" x="59.03125" class="er attributeBoxEven"/><text style="dominant-baseline: middle; font-size: 10.2px;" transform="translate(64.03125,99.5)" y="0" x="0" id="text-entity-FtuIllustrationNode-06e03507-7f6b-5f00-b53f-e37ac626315d-attr-4-name" class="er entityLabel">label</text></g><g transform="translate(343.10546875,482 )" id="entity-FtuIllustrationFile-1f8fa152-fa14-5892-8686-63f30b69f575"><rect height="110" width="133.34375" y="0" x="0" class="er entityBox"/><text style="dominant-baseline: middle; text-anchor: middle; font-size: 12px;" transform="translate(66.671875,12)" y="0" x="0" id="text-entity-FtuIllustrationFile-1f8fa152-fa14-5892-8686-63f30b69f575" class="er entityLabel">FtuIllustrationFile</text><rect height="22" width="63.8828125" y="24" x="0" class="er attributeBoxOdd"/><text style="dominant-baseline: middle; font-size: 10.2px;" transform="translate(5,35)" y="0" x="0" id="text-entity-FtuIllustrationFile-1f8fa152-fa14-5892-8686-63f30b69f575-attr-1-type" class="er entityLabel">uri</text><rect height="22" width="69.4609375" y="24" x="63.8828125" class="er attributeBoxOdd"/><text style="dominant-baseline: middle; font-size: 10.2px;" transform="translate(68.8828125,35)" y="0" x="0" id="text-entity-FtuIllustrationFile-1f8fa152-fa14-5892-8686-63f30b69f575-attr-1-name" class="er entityLabel">file_url</text><rect height="22" width="63.8828125" y="46" x="0" class="er attributeBoxEven"/><text style="dominant-baseline: middle; font-size: 10.2px;" transform="translate(5,57)" y="0" x="0" id="text-entity-FtuIllustrationFile-1f8fa152-fa14-5892-8686-63f30b69f575-attr-2-type" class="er entityLabel">string</text><rect height="22" width="69.4609375" y="46" x="63.8828125" class="er attributeBoxEven"/><text style="dominant-baseline: middle; font-size: 10.2px;" transform="translate(68.8828125,57)" y="0" x="0" id="text-entity-FtuIllustrationFile-1f8fa152-fa14-5892-8686-63f30b69f575-attr-2-name" class="er entityLabel">file_format</text><rect height="21" width="63.8828125" y="68" x="0" class="er attributeBoxOdd"/><text style="dominant-baseline: middle; font-size: 10.2px;" transform="translate(5,78.5)" y="0" x="0" id="text-entity-FtuIllustrationFile-1f8fa152-fa14-5892-8686-63f30b69f575-attr-3-type" class="er entityLabel">uriorcurie</text><rect height="21" width="69.4609375" y="68" x="63.8828125" class="er attributeBoxOdd"/><text style="dominant-baseline: middle; font-size: 10.2px;" transform="translate(68.8828125,78.5)" y="0" x="0" id="text-entity-FtuIllustrationFile-1f8fa152-fa14-5892-8686-63f30b69f575-attr-3-name" class="er entityLabel">id</text><rect height="21" width="63.8828125" y="89" x="0" class="er attributeBoxEven"/><text style="dominant-baseline: middle; font-size: 10.2px;" transform="translate(5,99.5)" y="0" x="0" id="text-entity-FtuIllustrationFile-1f8fa152-fa14-5892-8686-63f30b69f575-attr-4-type" class="er entityLabel">string</text><rect height="21" width="69.4609375" y="89" x="63.8828125" class="er attributeBoxEven"/><text style="dominant-baseline: middle; font-size: 10.2px;" transform="translate(68.8828125,99.5)" y="0" x="0" id="text-entity-FtuIllustrationFile-1f8fa152-fa14-5892-8686-63f30b69f575-attr-4-name" class="er entityLabel">label</text></g><g transform="translate(321.56640625,165 )" id="entity-FtuMetadata-05f03653-eeef-5522-8ffe-39db23941fa9"><rect height="217" width="156.4871826171875" y="0" x="0" class="er entityBox"/><text style="dominant-baseline: middle; text-anchor: middle; font-size: 12px;" transform="translate(78.24359130859375,12)" y="0" x="0" id="text-entity-FtuMetadata-05f03653-eeef-5522-8ffe-39db23941fa9" class="er entityLabel">FtuMetadata</text><rect height="21" width="76.8309326171875" y="24" x="0" class="er attributeBoxOdd"/><text style="dominant-baseline: middle; font-size: 10.2px;" transform="translate(5,34.5)" y="0" x="0" id="text-entity-FtuMetadata-05f03653-eeef-5522-8ffe-39db23941fa9-attr-1-type" class="er entityLabel">string</text><rect height="21" width="79.65625" y="24" x="76.8309326171875" class="er attributeBoxOdd"/><text style="dominant-baseline: middle; font-size: 10.2px;" transform="translate(81.8309326171875,34.5)" y="0" x="0" id="text-entity-FtuMetadata-05f03653-eeef-5522-8ffe-39db23941fa9-attr-1-name" class="er entityLabel">title</text><rect height="21" width="76.8309326171875" y="45" x="0" class="er attributeBoxEven"/><text style="dominant-baseline: middle; font-size: 10.2px;" transform="translate(5,55.5)" y="0" x="0" id="text-entity-FtuMetadata-05f03653-eeef-5522-8ffe-39db23941fa9-attr-2-type" class="er entityLabel">string</text><rect height="21" width="79.65625" y="45" x="76.8309326171875" class="er attributeBoxEven"/><text style="dominant-baseline: middle; font-size: 10.2px;" transform="translate(81.8309326171875,55.5)" y="0" x="0" id="text-entity-FtuMetadata-05f03653-eeef-5522-8ffe-39db23941fa9-attr-2-name" class="er entityLabel">description</text><rect height="22" width="76.8309326171875" y="66" x="0" class="er attributeBoxOdd"/><text style="dominant-baseline: middle; font-size: 10.2px;" transform="translate(5,77)" y="0" x="0" id="text-entity-FtuMetadata-05f03653-eeef-5522-8ffe-39db23941fa9-attr-3-type" class="er entityLabel">uriorcurieList</text><rect height="22" width="79.65625" y="66" x="76.8309326171875" class="er attributeBoxOdd"/><text style="dominant-baseline: middle; font-size: 10.2px;" transform="translate(81.8309326171875,77)" y="0" x="0" id="text-entity-FtuMetadata-05f03653-eeef-5522-8ffe-39db23941fa9-attr-3-name" class="er entityLabel">created_by</text><rect height="22" width="76.8309326171875" y="88" x="0" class="er attributeBoxEven"/><text style="dominant-baseline: middle; font-size: 10.2px;" transform="translate(5,99)" y="0" x="0" id="text-entity-FtuMetadata-05f03653-eeef-5522-8ffe-39db23941fa9-attr-4-type" class="er entityLabel">string</text><rect height="22" width="79.65625" y="88" x="76.8309326171875" class="er attributeBoxEven"/><text style="dominant-baseline: middle; font-size: 10.2px;" transform="translate(81.8309326171875,99)" y="0" x="0" id="text-entity-FtuMetadata-05f03653-eeef-5522-8ffe-39db23941fa9-attr-4-name" class="er entityLabel">creation_date</text><rect height="21" width="76.8309326171875" y="110" x="0" class="er attributeBoxOdd"/><text style="dominant-baseline: middle; font-size: 10.2px;" transform="translate(5,120.5)" y="0" x="0" id="text-entity-FtuMetadata-05f03653-eeef-5522-8ffe-39db23941fa9-attr-5-type" class="er entityLabel">string</text><rect height="21" width="79.65625" y="110" x="76.8309326171875" class="er attributeBoxOdd"/><text style="dominant-baseline: middle; font-size: 10.2px;" transform="translate(81.8309326171875,120.5)" y="0" x="0" id="text-entity-FtuMetadata-05f03653-eeef-5522-8ffe-39db23941fa9-attr-5-name" class="er entityLabel">version</text><rect height="21" width="76.8309326171875" y="131" x="0" class="er attributeBoxEven"/><text style="dominant-baseline: middle; font-size: 10.2px;" transform="translate(5,141.5)" y="0" x="0" id="text-entity-FtuMetadata-05f03653-eeef-5522-8ffe-39db23941fa9-attr-6-type" class="er entityLabel">string</text><rect height="21" width="79.65625" y="131" x="76.8309326171875" class="er attributeBoxEven"/><text style="dominant-baseline: middle; font-size: 10.2px;" transform="translate(81.8309326171875,141.5)" y="0" x="0" id="text-entity-FtuMetadata-05f03653-eeef-5522-8ffe-39db23941fa9-attr-6-name" class="er entityLabel">license</text><rect height="21" width="76.8309326171875" y="152" x="0" class="er attributeBoxOdd"/><text style="dominant-baseline: middle; font-size: 10.2px;" transform="translate(5,162.5)" y="0" x="0" id="text-entity-FtuMetadata-05f03653-eeef-5522-8ffe-39db23941fa9-attr-7-type" class="er entityLabel">string</text><rect height="21" width="79.65625" y="152" x="76.8309326171875" class="er attributeBoxOdd"/><text style="dominant-baseline: middle; font-size: 10.2px;" transform="translate(81.8309326171875,162.5)" y="0" x="0" id="text-entity-FtuMetadata-05f03653-eeef-5522-8ffe-39db23941fa9-attr-7-name" class="er entityLabel">publisher</text><rect height="22" width="76.8309326171875" y="173" x="0" class="er attributeBoxEven"/><text style="dominant-baseline: middle; font-size: 10.2px;" transform="translate(5,184)" y="0" x="0" id="text-entity-FtuMetadata-05f03653-eeef-5522-8ffe-39db23941fa9-attr-8-type" class="er entityLabel">uriorcurie</text><rect height="22" width="79.65625" y="173" x="76.8309326171875" class="er attributeBoxEven"/><text style="dominant-baseline: middle; font-size: 10.2px;" transform="translate(81.8309326171875,184)" y="0" x="0" id="text-entity-FtuMetadata-05f03653-eeef-5522-8ffe-39db23941fa9-attr-8-name" class="er entityLabel">see_also</text><rect height="22" width="76.8309326171875" y="195" x="0" class="er attributeBoxOdd"/><text style="dominant-baseline: middle; font-size: 10.2px;" transform="translate(5,206)" y="0" x="0" id="text-entity-FtuMetadata-05f03653-eeef-5522-8ffe-39db23941fa9-attr-9-type" class="er entityLabel">uriorcurie</text><rect height="22" width="79.65625" y="195" x="76.8309326171875" class="er attributeBoxOdd"/><text style="dominant-baseline: middle; font-size: 10.2px;" transform="translate(81.8309326171875,206)" y="0" x="0" id="text-entity-FtuMetadata-05f03653-eeef-5522-8ffe-39db23941fa9-attr-9-name" class="er entityLabel">derived_from</text></g><rect height="14" width="58.171875" y="96.63663482666016" x="345.7289123535156" class="er relationshipLabelBox"/><text style="text-anchor: middle; dominant-baseline: middle; font-size: 12px;" y="103.63663482666016" x="374.8148498535156" id="rel1" class="er relationshipLabel">metadata</text><rect height="14" width="27.03125" y="124.48191833496094" x="158.6294708251953" class="er relationshipLabelBox"/><text style="text-anchor: middle; dominant-baseline: middle; font-size: 12px;" y="131.48191833496094" x="172.1450958251953" id="rel2" class="er relationshipLabel">data</text><rect height="14" width="61.65625" y="377.0754089355469" x="300.72271728515625" class="er relationshipLabelBox"/><text style="text-anchor: middle; dominant-baseline: middle; font-size: 12px;" y="384.0754089355469" x="331.55084228515625" id="rel3" class="er relationshipLabel">image_file</text><rect height="14" width="99.796875" y="392.75" x="111.13656616210938" class="er relationshipLabelBox"/><text style="text-anchor: middle; dominant-baseline: middle; font-size: 12px;" y="399.75" x="161.03500366210938" id="rel4" class="er relationshipLabel">illustration_node</text><rect height="14" width="45.1484375" y="482.0818176269531" x="-41.54477882385254" class="er relationshipLabelBox"/><text style="text-anchor: middle; dominant-baseline: middle; font-size: 12px;" y="489.0818176269531" x="-18.97056007385254" id="rel5" class="er relationshipLabel">type_of</text><rect height="14" width="45.1484375" y="642.0302734375" x="124.95816040039062" class="er relationshipLabelBox"/><text style="text-anchor: middle; dominant-baseline: middle; font-size: 12px;" y="649.0302734375" x="147.53237915039062" id="rel6" class="er relationshipLabel">type_of</text><rect height="14" width="45.1484375" y="665.2662963867188" x="257.0481872558594" class="er relationshipLabelBox"/><text style="text-anchor: middle; dominant-baseline: middle; font-size: 12px;" y="672.2662963867188" x="279.6224060058594" id="rel7" class="er relationshipLabel">type_of</text></svg>