<svg aria-roledescription="er" role="graphics-document document" viewBox="-54.73318862915039 0 526.4238891601562 772" style="max-width: 526.424px; background-color: transparent;" xmlns:xlink="http://www.w3.org/1999/xlink" xmlns="http://www.w3.org/2000/svg" width="100%" id="my-svg"><style>#my-svg{font-family:"trebuchet ms",verdana,arial,sans-serif;font-size:16px;fill:#333;}#my-svg .error-icon{fill:#552222;}#my-svg .error-text{fill:#552222;stroke:#552222;}#my-svg .edge-thickness-normal{stroke-width:1px;}#my-svg .edge-thickness-thick{stroke-width:3.5px;}#my-svg .edge-pattern-solid{stroke-dasharray:0;}#my-svg .edge-thickness-invisible{stroke-width:0;fill:none;}#my-svg .edge-pattern-dashed{stroke-dasharray:3;}#my-svg .edge-pattern-dotted{stroke-dasharray:2;}#my-svg .marker{fill:#333333;stroke:#333333;}#my-svg .marker.cross{stroke:#333333;}#my-svg svg{font-family:"trebuchet ms",verdana,arial,sans-serif;font-size:16px;}#my-svg p{margin:0;}#my-svg .entityBox{fill:#ECECFF;stroke:#9370DB;}#my-svg .attributeBoxOdd{fill:#ffffff;stroke:#9370DB;}#my-svg .attributeBoxEven{fill:#f2f2f2;stroke:#9370DB;}#my-svg .relationshipLabelBox{fill:hsl(80, 100%, 96.2745098039%);opacity:0.7;background-color:hsl(80, 100%, 96.2745098039%);}#my-svg .relationshipLabelBox rect{opacity:0.5;}#my-svg .relationshipLine{stroke:#333333;}#my-svg .entityTitleText{text-anchor:middle;font-size:18px;fill:#333;}#my-svg #MD_PARENT_START{fill:#f5f5f5!important;stroke:#333333!important;stroke-width:1;}#my-svg #MD_PARENT_END{fill:#f5f5f5!important;stroke:#333333!important;stroke-width:1;}#my-svg :root{--mermaid-font-family:"trebuchet ms",verdana,arial,sans-serif;}</style><g/><defs><marker orient="auto" markerHeight="240" markerWidth="190" refY="7" refX="0" id="MD_PARENT_START"><path d="M 18,7 L9,13 L1,7 L9,1 Z"/></marker></defs><defs><marker orient="auto" markerHeight="28" markerWidth="20" refY="7" refX="19" id="MD_PARENT_END"><path d="M 18,7 L9,13 L1,7 L9,1 Z"/></marker></defs><defs><marker orient="auto" markerHeight="18" markerWidth="18" refY="9" refX="0" id="ONLY_ONE_START"><path d="M9,0 L9,18 M15,0 L15,18" fill="none" stroke="gray"/></marker></defs><defs><marker orient="auto" markerHeight="18" markerWidth="18" refY="9" refX="18" id="ONLY_ONE_END"><path d="M3,0 L3,18 M9,0 L9,18" fill="none" stroke="gray"/></marker></defs><defs><marker orient="auto" markerHeight="18" markerWidth="30" refY="9" refX="0" id="ZERO_OR_ONE_START"><circle r="6" cy="9" cx="21" fill="white" stroke="gray"/><path d="M9,0 L9,18" fill="none" stroke="gray"/></marker></defs><defs><marker orient="auto" markerHeight="18" markerWidth="30" refY="9" refX="30" id="ZERO_OR_ONE_END"><circle r="6" cy="9" cx="9" fill="white" stroke="gray"/><path d="M21,0 L21,18" fill="none" stroke="gray"/></marker></defs><defs><marker orient="auto" markerHeight="36" markerWidth="45" refY="18" refX="18" id="ONE_OR_MORE_START"><path d="M0,18 Q 18,0 36,18 Q 18,36 0,18 M42,9 L42,27" fill="none" stroke="gray"/></marker></defs><defs><marker orient="auto" markerHeight="36" markerWidth="45" refY="18" refX="27" id="ONE_OR_MORE_END"><path d="M3,9 L3,27 M9,18 Q27,0 45,18 Q27,36 9,18" fill="none" stroke="gray"/></marker></defs><defs><marker orient="auto" markerHeight="36" markerWidth="57" refY="18" refX="18" id="ZERO_OR_MORE_START"><circle r="6" cy="18" cx="48" fill="white" stroke="gray"/><path d="M0,18 Q18,0 36,18 Q18,36 0,18" fill="none" stroke="gray"/></marker></defs><defs><marker orient="auto" markerHeight="36" markerWidth="57" refY="18" refX="39" id="ZERO_OR_MORE_END"><circle r="6" cy="18" cx="9" fill="white" stroke="gray"/><path d="M21,18 Q39,0 57,18 Q39,36 21,18" fill="none" stroke="gray"/></marker></defs><path style="stroke: gray; fill: none;" marker-start="url(#ONLY_ONE_START)" marker-end="url(#ZERO_OR_ONE_END)" d="M303.861,65L316.786,73.333C329.712,81.667,355.562,98.333,368.488,115C381.413,131.667,381.413,148.333,381.413,156.667L381.413,165" class="er relationshipLine"/><path style="stroke: gray; fill: none;" marker-start="url(#ONLY_ONE_START)" marker-end="url(#ZERO_OR_MORE_END)" d="M234.064,65L221.138,73.333C208.213,81.667,182.362,98.333,169.437,125.5C156.511,152.667,156.511,190.333,156.511,209.167L156.511,228" class="er relationshipLine"/><path style="stroke: gray; fill: none;" marker-start="url(#ONLY_ONE_START)" marker-end="url(#ZERO_OR_MORE_END)" d="M211.136,308.053L241.01,328.045C270.884,348.036,330.632,388.018,360.506,416.342C390.38,444.667,390.38,461.333,390.38,469.667L390.38,478" class="er relationshipLine"/><path style="stroke: gray; fill: none;" marker-start="url(#ONLY_ONE_START)" marker-end="url(#ZERO_OR_MORE_END)" d="M156.511,315L156.511,333.833C156.511,352.667,156.511,390.333,156.511,417.5C156.511,444.667,156.511,461.333,156.511,469.667L156.511,478" class="er relationshipLine"/><path style="stroke: gray; fill: none;" marker-start="url(#ONLY_ONE_START)" marker-end="url(#ZERO_OR_MORE_END)" d="M108.419,315L87.597,333.833C66.775,352.667,25.132,390.333,4.31,426.5C-16.511,462.667,-16.511,497.333,-16.511,532C-16.511,566.667,-16.511,601.333,-7.825,627C0.86,652.667,18.232,669.333,26.918,677.667L35.604,686" class="er relationshipLine"/><path style="stroke: gray; fill: none;" marker-start="url(#ONLY_ONE_START)" marker-end="url(#ZERO_OR_MORE_END)" d="M156.511,586L156.511,594.333C156.511,602.667,156.511,619.333,147.825,636C139.14,652.667,121.768,669.333,113.082,677.667L104.396,686" class="er relationshipLine"/><path style="stroke: gray; fill: none;" marker-start="url(#ONLY_ONE_START)" marker-end="url(#ZERO_OR_MORE_END)" d="M390.38,586L390.38,594.333C390.38,602.667,390.38,619.333,345.316,639.341C300.253,659.349,210.127,682.698,165.063,694.372L120,706.047" class="er relationshipLine"/><g transform="translate(218.96224975585938,20 )" id="entity-Container-bc34fb32-8a75-5b81-936b-92374bf40296"><rect height="45" width="100" y="0" x="0" class="er entityBox"/><text style="dominant-baseline: middle; text-anchor: middle; font-size: 12px;" transform="translate(50,12)" y="0" x="0" id="text-entity-Container-bc34fb32-8a75-5b81-936b-92374bf40296" class="er entityLabel">Container</text><rect height="21" width="67.43675231933594" y="24" x="0" class="er attributeBoxOdd"/><text style="dominant-baseline: middle; font-size: 10.2px;" transform="translate(5,34.5)" y="0" x="0" id="text-entity-Container-bc34fb32-8a75-5b81-936b-92374bf40296-attr-1-type" class="er entityLabel">uriorcurie</text><rect height="21" width="32.56324768066406" y="24" x="67.43675231933594" class="er attributeBoxOdd"/><text style="dominant-baseline: middle; font-size: 10.2px;" transform="translate(72.43675231933594,34.5)" y="0" x="0" id="text-entity-Container-bc34fb32-8a75-5b81-936b-92374bf40296-attr-1-name" class="er entityLabel">iri</text></g><g transform="translate(101.88709259033203,228 )" id="entity-FtuIllustration-34be1589-3c86-5e2a-8723-bbcddc02f58a"><rect height="87" width="109.24850463867188" y="0" x="0" class="er entityBox"/><text style="dominant-baseline: middle; text-anchor: middle; font-size: 12px;" transform="translate(54.62425231933594,12)" y="0" x="0" id="text-entity-FtuIllustration-34be1589-3c86-5e2a-8723-bbcddc02f58a" class="er entityLabel">FtuIllustration</text><rect height="21" width="52.795379638671875" y="24" x="0" class="er attributeBoxOdd"/><text style="dominant-baseline: middle; font-size: 10.2px;" transform="translate(5,34.5)" y="0" x="0" id="text-entity-FtuIllustration-34be1589-3c86-5e2a-8723-bbcddc02f58a-attr-1-type" class="er entityLabel">uriorcurie</text><rect height="21" width="56.453125" y="24" x="52.795379638671875" class="er attributeBoxOdd"/><text style="dominant-baseline: middle; font-size: 10.2px;" transform="translate(57.795379638671875,34.5)" y="0" x="0" id="text-entity-FtuIllustration-34be1589-3c86-5e2a-8723-bbcddc02f58a-attr-1-name" class="er entityLabel">located_in</text><rect height="21" width="52.795379638671875" y="45" x="0" class="er attributeBoxEven"/><text style="dominant-baseline: middle; font-size: 10.2px;" transform="translate(5,55.5)" y="0" x="0" id="text-entity-FtuIllustration-34be1589-3c86-5e2a-8723-bbcddc02f58a-attr-2-type" class="er entityLabel">uriorcurie</text><rect height="21" width="56.453125" y="45" x="52.795379638671875" class="er attributeBoxEven"/><text style="dominant-baseline: middle; font-size: 10.2px;" transform="translate(57.795379638671875,55.5)" y="0" x="0" id="text-entity-FtuIllustration-34be1589-3c86-5e2a-8723-bbcddc02f58a-attr-2-name" class="er entityLabel">id</text><rect height="21" width="52.795379638671875" y="66" x="0" class="er attributeBoxOdd"/><text style="dominant-baseline: middle; font-size: 10.2px;" transform="translate(5,76.5)" y="0" x="0" id="text-entity-FtuIllustration-34be1589-3c86-5e2a-8723-bbcddc02f58a-attr-3-type" class="er entityLabel">string</text><rect height="21" width="56.453125" y="66" x="52.795379638671875" class="er attributeBoxOdd"/><text style="dominant-baseline: middle; font-size: 10.2px;" transform="translate(57.795379638671875,76.5)" y="0" x="0" id="text-entity-FtuIllustration-34be1589-3c86-5e2a-8723-bbcddc02f58a-attr-3-name" class="er entityLabel">label</text></g><g transform="translate(20,686 )" id="entity-Named-527792da-945b-57c2-aece-6a504f46f916"><rect height="66" width="100" y="0" x="0" class="er entityBox"/><text style="dominant-baseline: middle; text-anchor: middle; font-size: 12px;" transform="translate(50,12)" y="0" x="0" id="text-entity-Named-527792da-945b-57c2-aece-6a504f46f916" class="er entityLabel">Named</text><rect height="21" width="60.63206481933594" y="24" x="0" class="er attributeBoxOdd"/><text style="dominant-baseline: middle; font-size: 10.2px;" transform="translate(5,34.5)" y="0" x="0" id="text-entity-Named-527792da-945b-57c2-aece-6a504f46f916-attr-1-type" class="er entityLabel">uriorcurie</text><rect height="21" width="39.36793518066406" y="24" x="60.63206481933594" class="er attributeBoxOdd"/><text style="dominant-baseline: middle; font-size: 10.2px;" transform="translate(65.63206481933594,34.5)" y="0" x="0" id="text-entity-Named-527792da-945b-57c2-aece-6a504f46f916-attr-1-name" class="er entityLabel">id</text><rect height="21" width="60.63206481933594" y="45" x="0" class="er attributeBoxEven"/><text style="dominant-baseline: middle; font-size: 10.2px;" transform="translate(5,55.5)" y="0" x="0" id="text-entity-Named-527792da-945b-57c2-aece-6a504f46f916-attr-2-type" class="er entityLabel">string</text><rect height="21" width="39.36793518066406" y="45" x="60.63206481933594" class="er attributeBoxEven"/><text style="dominant-baseline: middle; font-size: 10.2px;" transform="translate(65.63206481933594,55.5)" y="0" x="0" id="text-entity-Named-527792da-945b-57c2-aece-6a504f46f916-attr-2-name" class="er entityLabel">label</text></g><g transform="translate(83.48865509033203,478 )" id="entity-FtuIllustrationNode-06e03507-7f6b-5f00-b53f-e37ac626315d"><rect height="108" width="146.04537963867188" y="0" x="0" class="er entityBox"/><text style="dominant-baseline: middle; text-anchor: middle; font-size: 12px;" transform="translate(73.02268981933594,12)" y="0" x="0" id="text-entity-FtuIllustrationNode-06e03507-7f6b-5f00-b53f-e37ac626315d" class="er entityLabel">FtuIllustrationNode</text><rect height="21" width="52.795379638671875" y="24" x="0" class="er attributeBoxOdd"/><text style="dominant-baseline: middle; font-size: 10.2px;" transform="translate(5,34.5)" y="0" x="0" id="text-entity-FtuIllustrationNode-06e03507-7f6b-5f00-b53f-e37ac626315d-attr-1-type" class="er entityLabel">string</text><rect height="21" width="93.25" y="24" x="52.795379638671875" class="er attributeBoxOdd"/><text style="dominant-baseline: middle; font-size: 10.2px;" transform="translate(57.795379638671875,34.5)" y="0" x="0" id="text-entity-FtuIllustrationNode-06e03507-7f6b-5f00-b53f-e37ac626315d-attr-1-name" class="er entityLabel">node_name</text><rect height="21" width="52.795379638671875" y="45" x="0" class="er attributeBoxEven"/><text style="dominant-baseline: middle; font-size: 10.2px;" transform="translate(5,55.5)" y="0" x="0" id="text-entity-FtuIllustrationNode-06e03507-7f6b-5f00-b53f-e37ac626315d-attr-2-type" class="er entityLabel">string</text><rect height="21" width="93.25" y="45" x="52.795379638671875" class="er attributeBoxEven"/><text style="dominant-baseline: middle; font-size: 10.2px;" transform="translate(57.795379638671875,55.5)" y="0" x="0" id="text-entity-FtuIllustrationNode-06e03507-7f6b-5f00-b53f-e37ac626315d-attr-2-name" class="er entityLabel">part_of_illustration</text><rect height="21" width="52.795379638671875" y="66" x="0" class="er attributeBoxOdd"/><text style="dominant-baseline: middle; font-size: 10.2px;" transform="translate(5,76.5)" y="0" x="0" id="text-entity-FtuIllustrationNode-06e03507-7f6b-5f00-b53f-e37ac626315d-attr-3-type" class="er entityLabel">uriorcurie</text><rect height="21" width="93.25" y="66" x="52.795379638671875" class="er attributeBoxOdd"/><text style="dominant-baseline: middle; font-size: 10.2px;" transform="translate(57.795379638671875,76.5)" y="0" x="0" id="text-entity-FtuIllustrationNode-06e03507-7f6b-5f00-b53f-e37ac626315d-attr-3-name" class="er entityLabel">id</text><rect height="21" width="52.795379638671875" y="87" x="0" class="er attributeBoxEven"/><text style="dominant-baseline: middle; font-size: 10.2px;" transform="translate(5,97.5)" y="0" x="0" id="text-entity-FtuIllustrationNode-06e03507-7f6b-5f00-b53f-e37ac626315d-attr-4-type" class="er entityLabel">string</text><rect height="21" width="93.25" y="87" x="52.795379638671875" class="er attributeBoxEven"/><text style="dominant-baseline: middle; font-size: 10.2px;" transform="translate(57.795379638671875,97.5)" y="0" x="0" id="text-entity-FtuIllustrationNode-06e03507-7f6b-5f00-b53f-e37ac626315d-attr-4-name" class="er entityLabel">label</text></g><g transform="translate(329.5340347290039,478 )" id="entity-FtuIllustrationFile-1f8fa152-fa14-5892-8686-63f30b69f575"><rect height="108" width="121.69140625" y="0" x="0" class="er entityBox"/><text style="dominant-baseline: middle; text-anchor: middle; font-size: 12px;" transform="translate(60.845703125,12)" y="0" x="0" id="text-entity-FtuIllustrationFile-1f8fa152-fa14-5892-8686-63f30b69f575" class="er entityLabel">FtuIllustrationFile</text><rect height="21" width="58.37864685058594" y="24" x="0" class="er attributeBoxOdd"/><text style="dominant-baseline: middle; font-size: 10.2px;" transform="translate(5,34.5)" y="0" x="0" id="text-entity-FtuIllustrationFile-1f8fa152-fa14-5892-8686-63f30b69f575-attr-1-type" class="er entityLabel">uri</text><rect height="21" width="63.31275939941406" y="24" x="58.37864685058594" class="er attributeBoxOdd"/><text style="dominant-baseline: middle; font-size: 10.2px;" transform="translate(63.37864685058594,34.5)" y="0" x="0" id="text-entity-FtuIllustrationFile-1f8fa152-fa14-5892-8686-63f30b69f575-attr-1-name" class="er entityLabel">file_url</text><rect height="21" width="58.37864685058594" y="45" x="0" class="er attributeBoxEven"/><text style="dominant-baseline: middle; font-size: 10.2px;" transform="translate(5,55.5)" y="0" x="0" id="text-entity-FtuIllustrationFile-1f8fa152-fa14-5892-8686-63f30b69f575-attr-2-type" class="er entityLabel">string</text><rect height="21" width="63.31275939941406" y="45" x="58.37864685058594" class="er attributeBoxEven"/><text style="dominant-baseline: middle; font-size: 10.2px;" transform="translate(63.37864685058594,55.5)" y="0" x="0" id="text-entity-FtuIllustrationFile-1f8fa152-fa14-5892-8686-63f30b69f575-attr-2-name" class="er entityLabel">file_format</text><rect height="21" width="58.37864685058594" y="66" x="0" class="er attributeBoxOdd"/><text style="dominant-baseline: middle; font-size: 10.2px;" transform="translate(5,76.5)" y="0" x="0" id="text-entity-FtuIllustrationFile-1f8fa152-fa14-5892-8686-63f30b69f575-attr-3-type" class="er entityLabel">uriorcurie</text><rect height="21" width="63.31275939941406" y="66" x="58.37864685058594" class="er attributeBoxOdd"/><text style="dominant-baseline: middle; font-size: 10.2px;" transform="translate(63.37864685058594,76.5)" y="0" x="0" id="text-entity-FtuIllustrationFile-1f8fa152-fa14-5892-8686-63f30b69f575-attr-3-name" class="er entityLabel">id</text><rect height="21" width="58.37864685058594" y="87" x="0" class="er attributeBoxEven"/><text style="dominant-baseline: middle; font-size: 10.2px;" transform="translate(5,97.5)" y="0" x="0" id="text-entity-FtuIllustrationFile-1f8fa152-fa14-5892-8686-63f30b69f575-attr-4-type" class="er entityLabel">string</text><rect height="21" width="63.31275939941406" y="87" x="58.37864685058594" class="er attributeBoxEven"/><text style="dominant-baseline: middle; font-size: 10.2px;" transform="translate(63.37864685058594,97.5)" y="0" x="0" id="text-entity-FtuIllustrationFile-1f8fa152-fa14-5892-8686-63f30b69f575-attr-4-name" class="er entityLabel">label</text></g><g transform="translate(311.1355972290039,165 )" id="entity-FtuMetadata-05f03653-eeef-5522-8ffe-39db23941fa9"><rect height="213" width="140.55511474609375" y="0" x="0" class="er entityBox"/><text style="dominant-baseline: middle; text-anchor: middle; font-size: 12px;" transform="translate(70.27755737304688,12)" y="0" x="0" id="text-entity-FtuMetadata-05f03653-eeef-5522-8ffe-39db23941fa9" class="er entityLabel">FtuMetadata</text><rect height="21" width="68.48406982421875" y="24" x="0" class="er attributeBoxOdd"/><text style="dominant-baseline: middle; font-size: 10.2px;" transform="translate(5,34.5)" y="0" x="0" id="text-entity-FtuMetadata-05f03653-eeef-5522-8ffe-39db23941fa9-attr-1-type" class="er entityLabel">string</text><rect height="21" width="72.071044921875" y="24" x="68.48406982421875" class="er attributeBoxOdd"/><text style="dominant-baseline: middle; font-size: 10.2px;" transform="translate(73.48406982421875,34.5)" y="0" x="0" id="text-entity-FtuMetadata-05f03653-eeef-5522-8ffe-39db23941fa9-attr-1-name" class="er entityLabel">title</text><rect height="21" width="68.48406982421875" y="45" x="0" class="er attributeBoxEven"/><text style="dominant-baseline: middle; font-size: 10.2px;" transform="translate(5,55.5)" y="0" x="0" id="text-entity-FtuMetadata-05f03653-eeef-5522-8ffe-39db23941fa9-attr-2-type" class="er entityLabel">string</text><rect height="21" width="72.071044921875" y="45" x="68.48406982421875" class="er attributeBoxEven"/><text style="dominant-baseline: middle; font-size: 10.2px;" transform="translate(73.48406982421875,55.5)" y="0" x="0" id="text-entity-FtuMetadata-05f03653-eeef-5522-8ffe-39db23941fa9-attr-2-name" class="er entityLabel">description</text><rect height="21" width="68.48406982421875" y="66" x="0" class="er attributeBoxOdd"/><text style="dominant-baseline: middle; font-size: 10.2px;" transform="translate(5,76.5)" y="0" x="0" id="text-entity-FtuMetadata-05f03653-eeef-5522-8ffe-39db23941fa9-attr-3-type" class="er entityLabel">uriorcurieList</text><rect height="21" width="72.071044921875" y="66" x="68.48406982421875" class="er attributeBoxOdd"/><text style="dominant-baseline: middle; font-size: 10.2px;" transform="translate(73.48406982421875,76.5)" y="0" x="0" id="text-entity-FtuMetadata-05f03653-eeef-5522-8ffe-39db23941fa9-attr-3-name" class="er entityLabel">created_by</text><rect height="21" width="68.48406982421875" y="87" x="0" class="er attributeBoxEven"/><text style="dominant-baseline: middle; font-size: 10.2px;" transform="translate(5,97.5)" y="0" x="0" id="text-entity-FtuMetadata-05f03653-eeef-5522-8ffe-39db23941fa9-attr-4-type" class="er entityLabel">string</text><rect height="21" width="72.071044921875" y="87" x="68.48406982421875" class="er attributeBoxEven"/><text style="dominant-baseline: middle; font-size: 10.2px;" transform="translate(73.48406982421875,97.5)" y="0" x="0" id="text-entity-FtuMetadata-05f03653-eeef-5522-8ffe-39db23941fa9-attr-4-name" class="er entityLabel">creation_date</text><rect height="21" width="68.48406982421875" y="108" x="0" class="er attributeBoxOdd"/><text style="dominant-baseline: middle; font-size: 10.2px;" transform="translate(5,118.5)" y="0" x="0" id="text-entity-FtuMetadata-05f03653-eeef-5522-8ffe-39db23941fa9-attr-5-type" class="er entityLabel">string</text><rect height="21" width="72.071044921875" y="108" x="68.48406982421875" class="er attributeBoxOdd"/><text style="dominant-baseline: middle; font-size: 10.2px;" transform="translate(73.48406982421875,118.5)" y="0" x="0" id="text-entity-FtuMetadata-05f03653-eeef-5522-8ffe-39db23941fa9-attr-5-name" class="er entityLabel">version</text><rect height="21" width="68.48406982421875" y="129" x="0" class="er attributeBoxEven"/><text style="dominant-baseline: middle; font-size: 10.2px;" transform="translate(5,139.5)" y="0" x="0" id="text-entity-FtuMetadata-05f03653-eeef-5522-8ffe-39db23941fa9-attr-6-type" class="er entityLabel">string</text><rect height="21" width="72.071044921875" y="129" x="68.48406982421875" class="er attributeBoxEven"/><text style="dominant-baseline: middle; font-size: 10.2px;" transform="translate(73.48406982421875,139.5)" y="0" x="0" id="text-entity-FtuMetadata-05f03653-eeef-5522-8ffe-39db23941fa9-attr-6-name" class="er entityLabel">license</text><rect height="21" width="68.48406982421875" y="150" x="0" class="er attributeBoxOdd"/><text style="dominant-baseline: middle; font-size: 10.2px;" transform="translate(5,160.5)" y="0" x="0" id="text-entity-FtuMetadata-05f03653-eeef-5522-8ffe-39db23941fa9-attr-7-type" class="er entityLabel">string</text><rect height="21" width="72.071044921875" y="150" x="68.48406982421875" class="er attributeBoxOdd"/><text style="dominant-baseline: middle; font-size: 10.2px;" transform="translate(73.48406982421875,160.5)" y="0" x="0" id="text-entity-FtuMetadata-05f03653-eeef-5522-8ffe-39db23941fa9-attr-7-name" class="er entityLabel">publisher</text><rect height="21" width="68.48406982421875" y="171" x="0" class="er attributeBoxEven"/><text style="dominant-baseline: middle; font-size: 10.2px;" transform="translate(5,181.5)" y="0" x="0" id="text-entity-FtuMetadata-05f03653-eeef-5522-8ffe-39db23941fa9-attr-8-type" class="er entityLabel">uriorcurie</text><rect height="21" width="72.071044921875" y="171" x="68.48406982421875" class="er attributeBoxEven"/><text style="dominant-baseline: middle; font-size: 10.2px;" transform="translate(73.48406982421875,181.5)" y="0" x="0" id="text-entity-FtuMetadata-05f03653-eeef-5522-8ffe-39db23941fa9-attr-8-name" class="er entityLabel">see_also</text><rect height="21" width="68.48406982421875" y="192" x="0" class="er attributeBoxOdd"/><text style="dominant-baseline: middle; font-size: 10.2px;" transform="translate(5,202.5)" y="0" x="0" id="text-entity-FtuMetadata-05f03653-eeef-5522-8ffe-39db23941fa9-attr-9-type" class="er entityLabel">uriorcurie</text><rect height="21" width="72.071044921875" y="192" x="68.48406982421875" class="er attributeBoxOdd"/><text style="dominant-baseline: middle; font-size: 10.2px;" transform="translate(73.48406982421875,202.5)" y="0" x="0" id="text-entity-FtuMetadata-05f03653-eeef-5522-8ffe-39db23941fa9-attr-9-name" class="er entityLabel">derived_from</text></g><rect height="14" width="50.359375" y="97.29985046386719" x="333.40045166015625" class="er relationshipLabelBox"/><text style="text-anchor: middle; dominant-baseline: middle; font-size: 12px;" y="104.29985046386719" x="358.58013916015625" id="rel1" class="er relationshipLabel">metadata</text><rect height="14" width="23.681640625" y="125.09272766113281" x="154.77914428710938" class="er relationshipLabelBox"/><text style="text-anchor: middle; dominant-baseline: middle; font-size: 12px;" y="132.0927276611328" x="166.61996459960938" id="rel2" class="er relationshipLabel">data</text><rect height="14" width="55.0234375" y="373.5832824707031" x="289.06365966796875" class="er relationshipLabelBox"/><text style="text-anchor: middle; dominant-baseline: middle; font-size: 12px;" y="380.5832824707031" x="316.57537841796875" id="rel3" class="er relationshipLabel">image_file</text><rect height="14" width="87.71875" y="389.5" x="112.65162658691406" class="er relationshipLabelBox"/><text style="text-anchor: middle; dominant-baseline: middle; font-size: 12px;" y="396.5" x="156.51100158691406" id="rel4" class="er relationshipLabel">illustration_node</text><rect height="14" width="40.029296875" y="478.95294189453125" x="-34.73318958282471" class="er relationshipLabelBox"/><text style="text-anchor: middle; dominant-baseline: middle; font-size: 12px;" y="485.95294189453125" x="-14.718541145324707" id="rel5" class="er relationshipLabel">type_of</text><rect height="14" width="40.029296875" y="635.5447387695312" x="123.98013305664062" class="er relationshipLabelBox"/><text style="text-anchor: middle; dominant-baseline: middle; font-size: 12px;" y="642.5447387695312" x="143.99478149414062" id="rel6" class="er relationshipLabel">type_of</text><rect height="14" width="40.029296875" y="658.5645141601562" x="250.15847778320312" class="er relationshipLabelBox"/><text style="text-anchor: middle; dominant-baseline: middle; font-size: 12px;" y="665.5645141601562" x="270.1731262207031" id="rel7" class="er relationshipLabel">type_of</text></svg>