<svg aria-roledescription="er" role="graphics-document document" viewBox="0 0 218.0496826171875 971" style="max-width: 218.05px; background-color: transparent;" xmlns:xlink="http://www.w3.org/1999/xlink" xmlns="http://www.w3.org/2000/svg" width="100%" id="my-svg"><style>#my-svg{font-family:"trebuchet ms",verdana,arial,sans-serif;font-size:16px;fill:#333;}#my-svg .error-icon{fill:#552222;}#my-svg .error-text{fill:#552222;stroke:#552222;}#my-svg .edge-thickness-normal{stroke-width:1px;}#my-svg .edge-thickness-thick{stroke-width:3.5px;}#my-svg .edge-pattern-solid{stroke-dasharray:0;}#my-svg .edge-thickness-invisible{stroke-width:0;fill:none;}#my-svg .edge-pattern-dashed{stroke-dasharray:3;}#my-svg .edge-pattern-dotted{stroke-dasharray:2;}#my-svg .marker{fill:#333333;stroke:#333333;}#my-svg .marker.cross{stroke:#333333;}#my-svg svg{font-family:"trebuchet ms",verdana,arial,sans-serif;font-size:16px;}#my-svg p{margin:0;}#my-svg .entityBox{fill:#ECECFF;stroke:#9370DB;}#my-svg .attributeBoxOdd{fill:#ffffff;stroke:#9370DB;}#my-svg .attributeBoxEven{fill:#f2f2f2;stroke:#9370DB;}#my-svg .relationshipLabelBox{fill:hsl(80, 100%, 96.2745098039%);opacity:0.7;background-color:hsl(80, 100%, 96.2745098039%);}#my-svg .relationshipLabelBox rect{opacity:0.5;}#my-svg .relationshipLine{stroke:#333333;}#my-svg .entityTitleText{text-anchor:middle;font-size:18px;fill:#333;}#my-svg #MD_PARENT_START{fill:#f5f5f5!important;stroke:#333333!important;stroke-width:1;}#my-svg #MD_PARENT_END{fill:#f5f5f5!important;stroke:#333333!important;stroke-width:1;}#my-svg :root{--mermaid-font-family:"trebuchet ms",verdana,arial,sans-serif;}</style><g/><defs><marker orient="auto" markerHeight="240" markerWidth="190" refY="7" refX="0" id="MD_PARENT_START"><path d="M 18,7 L9,13 L1,7 L9,1 Z"/></marker></defs><defs><marker orient="auto" markerHeight="28" markerWidth="20" refY="7" refX="19" id="MD_PARENT_END"><path d="M 18,7 L9,13 L1,7 L9,1 Z"/></marker></defs><defs><marker orient="auto" markerHeight="18" markerWidth="18" refY="9" refX="0" id="ONLY_ONE_START"><path d="M9,0 L9,18 M15,0 L15,18" fill="none" stroke="gray"/></marker></defs><defs><marker orient="auto" markerHeight="18" markerWidth="18" refY="9" refX="18" id="ONLY_ONE_END"><path d="M3,0 L3,18 M9,0 L9,18" fill="none" stroke="gray"/></marker></defs><defs><marker orient="auto" markerHeight="18" markerWidth="30" refY="9" refX="0" id="ZERO_OR_ONE_START"><circle r="6" cy="9" cx="21" fill="white" stroke="gray"/><path d="M9,0 L9,18" fill="none" stroke="gray"/></marker></defs><defs><marker orient="auto" markerHeight="18" markerWidth="30" refY="9" refX="30" id="ZERO_OR_ONE_END"><circle r="6" cy="9" cx="9" fill="white" stroke="gray"/><path d="M21,0 L21,18" fill="none" stroke="gray"/></marker></defs><defs><marker orient="auto" markerHeight="36" markerWidth="45" refY="18" refX="18" id="ONE_OR_MORE_START"><path d="M0,18 Q 18,0 36,18 Q 18,36 0,18 M42,9 L42,27" fill="none" stroke="gray"/></marker></defs><defs><marker orient="auto" markerHeight="36" markerWidth="45" refY="18" refX="27" id="ONE_OR_MORE_END"><path d="M3,9 L3,27 M9,18 Q27,0 45,18 Q27,36 9,18" fill="none" stroke="gray"/></marker></defs><defs><marker orient="auto" markerHeight="36" markerWidth="57" refY="18" refX="18" id="ZERO_OR_MORE_START"><circle r="6" cy="18" cx="48" fill="white" stroke="gray"/><path d="M0,18 Q18,0 36,18 Q18,36 0,18" fill="none" stroke="gray"/></marker></defs><defs><marker orient="auto" markerHeight="36" markerWidth="57" refY="18" refX="39" id="ZERO_OR_MORE_END"><circle r="6" cy="18" cx="9" fill="white" stroke="gray"/><path d="M21,18 Q39,0 57,18 Q39,36 21,18" fill="none" stroke="gray"/></marker></defs><path style="stroke: gray; fill: none;" marker-start="url(#ONLY_ONE_START)" marker-end="url(#ZERO_OR_ONE_END)" d="M109.025,86L109.025,94.333C109.025,102.667,109.025,119.333,109.025,136C109.025,152.667,109.025,169.333,109.025,177.667L109.025,186" class="er relationshipLine"/><path style="stroke: gray; fill: none;" marker-start="url(#ONLY_ONE_START)" marker-end="url(#ZERO_OR_MORE_END)" d="M109.025,338L109.025,346.333C109.025,354.667,109.025,371.333,109.025,388C109.025,404.667,109.025,421.333,109.025,429.667L109.025,438" class="er relationshipLine"/><path style="stroke: gray; fill: none;" marker-start="url(#ONLY_ONE_START)" marker-end="url(#ZERO_OR_MORE_END)" d="M109.025,785L109.025,793.333C109.025,801.667,109.025,818.333,109.025,835C109.025,851.667,109.025,868.333,109.025,876.667L109.025,885" class="er relationshipLine"/><g transform="translate(59.02484130859375,20 )" id="entity-Container-bc34fb32-8a75-5b81-936b-92374bf40296"><rect height="66" width="100" y="0" x="0" class="er entityBox"/><text style="dominant-baseline: middle; text-anchor: middle; font-size: 12px;" transform="translate(50,12)" y="0" x="0" id="text-entity-Container-bc34fb32-8a75-5b81-936b-92374bf40296" class="er entityLabel">Container</text><rect height="21" width="39.9296875" y="24" x="0" class="er attributeBoxOdd"/><text style="dominant-baseline: middle; font-size: 10.2px;" transform="translate(5,34.5)" y="0" x="0" id="text-entity-Container-bc34fb32-8a75-5b81-936b-92374bf40296-attr-1-type" class="er entityLabel">string</text><rect height="21" width="60.0703125" y="24" x="39.9296875" class="er attributeBoxOdd"/><text style="dominant-baseline: middle; font-size: 10.2px;" transform="translate(44.9296875,34.5)" y="0" x="0" id="text-entity-Container-bc34fb32-8a75-5b81-936b-92374bf40296-attr-1-name" class="er entityLabel">iri</text><rect height="21" width="39.9296875" y="45" x="0" class="er attributeBoxEven"/><text style="dominant-baseline: middle; font-size: 10.2px;" transform="translate(5,55.5)" y="0" x="0" id="text-entity-Container-bc34fb32-8a75-5b81-936b-92374bf40296-attr-2-type" class="er entityLabel">string</text><rect height="21" width="60.0703125" y="45" x="39.9296875" class="er attributeBoxEven"/><text style="dominant-baseline: middle; font-size: 10.2px;" transform="translate(44.9296875,55.5)" y="0" x="0" id="text-entity-Container-bc34fb32-8a75-5b81-936b-92374bf40296-attr-2-name" class="er entityLabel">metadata</text></g><g transform="translate(49.04827880859375,186 )" id="entity-DonorData-0d23467d-362f-5298-bedd-39dfe035d40c"><rect height="152" width="119.953125" y="0" x="0" class="er entityBox"/><text style="dominant-baseline: middle; text-anchor: middle; font-size: 12px;" transform="translate(59.9765625,12)" y="0" x="0" id="text-entity-DonorData-0d23467d-362f-5298-bedd-39dfe035d40c" class="er entityLabel">DonorData</text><rect height="21" width="39.25" y="24" x="0" class="er attributeBoxOdd"/><text style="dominant-baseline: middle; font-size: 10.2px;" transform="translate(5,34.5)" y="0" x="0" id="text-entity-DonorData-0d23467d-362f-5298-bedd-39dfe035d40c-attr-1-type" class="er entityLabel">string</text><rect height="21" width="80.703125" y="24" x="39.25" class="er attributeBoxOdd"/><text style="dominant-baseline: middle; font-size: 10.2px;" transform="translate(44.25,34.5)" y="0" x="0" id="text-entity-DonorData-0d23467d-362f-5298-bedd-39dfe035d40c-attr-1-name" class="er entityLabel">sample</text><rect height="21" width="39.25" y="45" x="0" class="er attributeBoxEven"/><text style="dominant-baseline: middle; font-size: 10.2px;" transform="translate(5,55.5)" y="0" x="0" id="text-entity-DonorData-0d23467d-362f-5298-bedd-39dfe035d40c-attr-2-type" class="er entityLabel">string</text><rect height="21" width="80.703125" y="45" x="39.25" class="er attributeBoxEven"/><text style="dominant-baseline: middle; font-size: 10.2px;" transform="translate(44.25,55.5)" y="0" x="0" id="text-entity-DonorData-0d23467d-362f-5298-bedd-39dfe035d40c-attr-2-name" class="er entityLabel">dataset</text><rect height="22" width="39.25" y="66" x="0" class="er attributeBoxOdd"/><text style="dominant-baseline: middle; font-size: 10.2px;" transform="translate(5,77)" y="0" x="0" id="text-entity-DonorData-0d23467d-362f-5298-bedd-39dfe035d40c-attr-3-type" class="er entityLabel">string</text><rect height="22" width="80.703125" y="66" x="39.25" class="er attributeBoxOdd"/><text style="dominant-baseline: middle; font-size: 10.2px;" transform="translate(44.25,77)" y="0" x="0" id="text-entity-DonorData-0d23467d-362f-5298-bedd-39dfe035d40c-attr-3-name" class="er entityLabel">spatial_entity</text><rect height="22" width="39.25" y="88" x="0" class="er attributeBoxEven"/><text style="dominant-baseline: middle; font-size: 10.2px;" transform="translate(5,99)" y="0" x="0" id="text-entity-DonorData-0d23467d-362f-5298-bedd-39dfe035d40c-attr-4-type" class="er entityLabel">string</text><rect height="22" width="80.703125" y="88" x="39.25" class="er attributeBoxEven"/><text style="dominant-baseline: middle; font-size: 10.2px;" transform="translate(44.25,99)" y="0" x="0" id="text-entity-DonorData-0d23467d-362f-5298-bedd-39dfe035d40c-attr-4-name" class="er entityLabel">cell_summary</text><rect height="21" width="39.25" y="110" x="0" class="er attributeBoxOdd"/><text style="dominant-baseline: middle; font-size: 10.2px;" transform="translate(5,120.5)" y="0" x="0" id="text-entity-DonorData-0d23467d-362f-5298-bedd-39dfe035d40c-attr-5-type" class="er entityLabel">string</text><rect height="21" width="80.703125" y="110" x="39.25" class="er attributeBoxOdd"/><text style="dominant-baseline: middle; font-size: 10.2px;" transform="translate(44.25,120.5)" y="0" x="0" id="text-entity-DonorData-0d23467d-362f-5298-bedd-39dfe035d40c-attr-5-name" class="er entityLabel">collision</text><rect height="21" width="39.25" y="131" x="0" class="er attributeBoxEven"/><text style="dominant-baseline: middle; font-size: 10.2px;" transform="translate(5,141.5)" y="0" x="0" id="text-entity-DonorData-0d23467d-362f-5298-bedd-39dfe035d40c-attr-6-type" class="er entityLabel">string</text><rect height="21" width="80.703125" y="131" x="39.25" class="er attributeBoxEven"/><text style="dominant-baseline: middle; font-size: 10.2px;" transform="translate(44.25,141.5)" y="0" x="0" id="text-entity-DonorData-0d23467d-362f-5298-bedd-39dfe035d40c-attr-6-name" class="er entityLabel">corridor</text></g><g transform="translate(20,438 )" id="entity-Donor-154b7bca-042d-506b-8666-2d01b6e0a138"><rect height="347" width="178.0496826171875" y="0" x="0" class="er entityBox"/><text style="dominant-baseline: middle; text-anchor: middle; font-size: 12px;" transform="translate(89.02484130859375,12)" y="0" x="0" id="text-entity-Donor-154b7bca-042d-506b-8666-2d01b6e0a138" class="er entityLabel">Donor</text><rect height="22" width="76.8309326171875" y="24" x="0" class="er attributeBoxOdd"/><text style="dominant-baseline: middle; font-size: 10.2px;" transform="translate(5,35)" y="0" x="0" id="text-entity-Donor-154b7bca-042d-506b-8666-2d01b6e0a138-attr-1-type" class="er entityLabel">string</text><rect height="22" width="101.21875" y="24" x="76.8309326171875" class="er attributeBoxOdd"/><text style="dominant-baseline: middle; font-size: 10.2px;" transform="translate(81.8309326171875,35)" y="0" x="0" id="text-entity-Donor-154b7bca-042d-506b-8666-2d01b6e0a138-attr-1-name" class="er entityLabel">pref_label</text><rect height="21" width="76.8309326171875" y="46" x="0" class="er attributeBoxEven"/><text style="dominant-baseline: middle; font-size: 10.2px;" transform="translate(5,56.5)" y="0" x="0" id="text-entity-Donor-154b7bca-042d-506b-8666-2d01b6e0a138-attr-2-type" class="er entityLabel">string</text><rect height="21" width="101.21875" y="46" x="76.8309326171875" class="er attributeBoxEven"/><text style="dominant-baseline: middle; font-size: 10.2px;" transform="translate(81.8309326171875,56.5)" y="0" x="0" id="text-entity-Donor-154b7bca-042d-506b-8666-2d01b6e0a138-attr-2-name" class="er entityLabel">description</text><rect height="22" width="76.8309326171875" y="67" x="0" class="er attributeBoxOdd"/><text style="dominant-baseline: middle; font-size: 10.2px;" transform="translate(5,78)" y="0" x="0" id="text-entity-Donor-154b7bca-042d-506b-8666-2d01b6e0a138-attr-3-type" class="er entityLabel">string</text><rect height="22" width="101.21875" y="67" x="76.8309326171875" class="er attributeBoxOdd"/><text style="dominant-baseline: middle; font-size: 10.2px;" transform="translate(81.8309326171875,78)" y="0" x="0" id="text-entity-Donor-154b7bca-042d-506b-8666-2d01b6e0a138-attr-3-name" class="er entityLabel">external_link</text><rect height="21" width="76.8309326171875" y="89" x="0" class="er attributeBoxEven"/><text style="dominant-baseline: middle; font-size: 10.2px;" transform="translate(5,99.5)" y="0" x="0" id="text-entity-Donor-154b7bca-042d-506b-8666-2d01b6e0a138-attr-4-type" class="er entityLabel">integer</text><rect height="21" width="101.21875" y="89" x="76.8309326171875" class="er attributeBoxEven"/><text style="dominant-baseline: middle; font-size: 10.2px;" transform="translate(81.8309326171875,99.5)" y="0" x="0" id="text-entity-Donor-154b7bca-042d-506b-8666-2d01b6e0a138-attr-4-name" class="er entityLabel">age</text><rect height="21" width="76.8309326171875" y="110" x="0" class="er attributeBoxOdd"/><text style="dominant-baseline: middle; font-size: 10.2px;" transform="translate(5,120.5)" y="0" x="0" id="text-entity-Donor-154b7bca-042d-506b-8666-2d01b6e0a138-attr-5-type" class="er entityLabel">float</text><rect height="21" width="101.21875" y="110" x="76.8309326171875" class="er attributeBoxOdd"/><text style="dominant-baseline: middle; font-size: 10.2px;" transform="translate(81.8309326171875,120.5)" y="0" x="0" id="text-entity-Donor-154b7bca-042d-506b-8666-2d01b6e0a138-attr-5-name" class="er entityLabel">bmi</text><rect height="21" width="76.8309326171875" y="131" x="0" class="er attributeBoxEven"/><text style="dominant-baseline: middle; font-size: 10.2px;" transform="translate(5,141.5)" y="0" x="0" id="text-entity-Donor-154b7bca-042d-506b-8666-2d01b6e0a138-attr-6-type" class="er entityLabel">string</text><rect height="21" width="101.21875" y="131" x="76.8309326171875" class="er attributeBoxEven"/><text style="dominant-baseline: middle; font-size: 10.2px;" transform="translate(81.8309326171875,141.5)" y="0" x="0" id="text-entity-Donor-154b7bca-042d-506b-8666-2d01b6e0a138-attr-6-name" class="er entityLabel">sex</text><rect height="22" width="76.8309326171875" y="152" x="0" class="er attributeBoxOdd"/><text style="dominant-baseline: middle; font-size: 10.2px;" transform="translate(5,163)" y="0" x="0" id="text-entity-Donor-154b7bca-042d-506b-8666-2d01b6e0a138-attr-7-type" class="er entityLabel">string</text><rect height="22" width="101.21875" y="152" x="76.8309326171875" class="er attributeBoxOdd"/><text style="dominant-baseline: middle; font-size: 10.2px;" transform="translate(81.8309326171875,163)" y="0" x="0" id="text-entity-Donor-154b7bca-042d-506b-8666-2d01b6e0a138-attr-7-name" class="er entityLabel">sex_id</text><rect height="21" width="76.8309326171875" y="174" x="0" class="er attributeBoxEven"/><text style="dominant-baseline: middle; font-size: 10.2px;" transform="translate(5,184.5)" y="0" x="0" id="text-entity-Donor-154b7bca-042d-506b-8666-2d01b6e0a138-attr-8-type" class="er entityLabel">string</text><rect height="21" width="101.21875" y="174" x="76.8309326171875" class="er attributeBoxEven"/><text style="dominant-baseline: middle; font-size: 10.2px;" transform="translate(81.8309326171875,184.5)" y="0" x="0" id="text-entity-Donor-154b7bca-042d-506b-8666-2d01b6e0a138-attr-8-name" class="er entityLabel">race</text><rect height="22" width="76.8309326171875" y="195" x="0" class="er attributeBoxOdd"/><text style="dominant-baseline: middle; font-size: 10.2px;" transform="translate(5,206)" y="0" x="0" id="text-entity-Donor-154b7bca-042d-506b-8666-2d01b6e0a138-attr-9-type" class="er entityLabel">string</text><rect height="22" width="101.21875" y="195" x="76.8309326171875" class="er attributeBoxOdd"/><text style="dominant-baseline: middle; font-size: 10.2px;" transform="translate(81.8309326171875,206)" y="0" x="0" id="text-entity-Donor-154b7bca-042d-506b-8666-2d01b6e0a138-attr-9-name" class="er entityLabel">race_id</text><rect height="22" width="76.8309326171875" y="217" x="0" class="er attributeBoxEven"/><text style="dominant-baseline: middle; font-size: 10.2px;" transform="translate(5,228)" y="0" x="0" id="text-entity-Donor-154b7bca-042d-506b-8666-2d01b6e0a138-attr-10-type" class="er entityLabel">string</text><rect height="22" width="101.21875" y="217" x="76.8309326171875" class="er attributeBoxEven"/><text style="dominant-baseline: middle; font-size: 10.2px;" transform="translate(81.8309326171875,228)" y="0" x="0" id="text-entity-Donor-154b7bca-042d-506b-8666-2d01b6e0a138-attr-10-name" class="er entityLabel">consortium_name</text><rect height="22" width="76.8309326171875" y="239" x="0" class="er attributeBoxOdd"/><text style="dominant-baseline: middle; font-size: 10.2px;" transform="translate(5,250)" y="0" x="0" id="text-entity-Donor-154b7bca-042d-506b-8666-2d01b6e0a138-attr-11-type" class="er entityLabel">string</text><rect height="22" width="101.21875" y="239" x="76.8309326171875" class="er attributeBoxOdd"/><text style="dominant-baseline: middle; font-size: 10.2px;" transform="translate(81.8309326171875,250)" y="0" x="0" id="text-entity-Donor-154b7bca-042d-506b-8666-2d01b6e0a138-attr-11-name" class="er entityLabel">provider_name</text><rect height="22" width="76.8309326171875" y="261" x="0" class="er attributeBoxEven"/><text style="dominant-baseline: middle; font-size: 10.2px;" transform="translate(5,272)" y="0" x="0" id="text-entity-Donor-154b7bca-042d-506b-8666-2d01b6e0a138-attr-12-type" class="er entityLabel">string</text><rect height="22" width="101.21875" y="261" x="76.8309326171875" class="er attributeBoxEven"/><text style="dominant-baseline: middle; font-size: 10.2px;" transform="translate(81.8309326171875,272)" y="0" x="0" id="text-entity-Donor-154b7bca-042d-506b-8666-2d01b6e0a138-attr-12-name" class="er entityLabel">provider_uuid</text><rect height="22" width="76.8309326171875" y="283" x="0" class="er attributeBoxOdd"/><text style="dominant-baseline: middle; font-size: 10.2px;" transform="translate(5,294)" y="0" x="0" id="text-entity-Donor-154b7bca-042d-506b-8666-2d01b6e0a138-attr-13-type" class="er entityLabel">uriorcurieList</text><rect height="22" width="101.21875" y="283" x="76.8309326171875" class="er attributeBoxOdd"/><text style="dominant-baseline: middle; font-size: 10.2px;" transform="translate(81.8309326171875,294)" y="0" x="0" id="text-entity-Donor-154b7bca-042d-506b-8666-2d01b6e0a138-attr-13-name" class="er entityLabel">provides_samples</text><rect height="21" width="76.8309326171875" y="305" x="0" class="er attributeBoxEven"/><text style="dominant-baseline: middle; font-size: 10.2px;" transform="translate(5,315.5)" y="0" x="0" id="text-entity-Donor-154b7bca-042d-506b-8666-2d01b6e0a138-attr-14-type" class="er entityLabel">uriorcurie</text><rect height="21" width="101.21875" y="305" x="76.8309326171875" class="er attributeBoxEven"/><text style="dominant-baseline: middle; font-size: 10.2px;" transform="translate(81.8309326171875,315.5)" y="0" x="0" id="text-entity-Donor-154b7bca-042d-506b-8666-2d01b6e0a138-attr-14-name" class="er entityLabel">id</text><rect height="21" width="76.8309326171875" y="326" x="0" class="er attributeBoxOdd"/><text style="dominant-baseline: middle; font-size: 10.2px;" transform="translate(5,336.5)" y="0" x="0" id="text-entity-Donor-154b7bca-042d-506b-8666-2d01b6e0a138-attr-15-type" class="er entityLabel">string</text><rect height="21" width="101.21875" y="326" x="76.8309326171875" class="er attributeBoxOdd"/><text style="dominant-baseline: middle; font-size: 10.2px;" transform="translate(81.8309326171875,336.5)" y="0" x="0" id="text-entity-Donor-154b7bca-042d-506b-8666-2d01b6e0a138-attr-15-name" class="er entityLabel">label</text></g><g transform="translate(59.02484130859375,885 )" id="entity-Named-527792da-945b-57c2-aece-6a504f46f916"><rect height="66" width="100" y="0" x="0" class="er entityBox"/><text style="dominant-baseline: middle; text-anchor: middle; font-size: 12px;" transform="translate(50,12)" y="0" x="0" id="text-entity-Named-527792da-945b-57c2-aece-6a504f46f916" class="er entityLabel">Named</text><rect height="21" width="62.1953125" y="24" x="0" class="er attributeBoxOdd"/><text style="dominant-baseline: middle; font-size: 10.2px;" transform="translate(5,34.5)" y="0" x="0" id="text-entity-Named-527792da-945b-57c2-aece-6a504f46f916-attr-1-type" class="er entityLabel">uriorcurie</text><rect height="21" width="37.8046875" y="24" x="62.1953125" class="er attributeBoxOdd"/><text style="dominant-baseline: middle; font-size: 10.2px;" transform="translate(67.1953125,34.5)" y="0" x="0" id="text-entity-Named-527792da-945b-57c2-aece-6a504f46f916-attr-1-name" class="er entityLabel">id</text><rect height="21" width="62.1953125" y="45" x="0" class="er attributeBoxEven"/><text style="dominant-baseline: middle; font-size: 10.2px;" transform="translate(5,55.5)" y="0" x="0" id="text-entity-Named-527792da-945b-57c2-aece-6a504f46f916-attr-2-type" class="er entityLabel">string</text><rect height="21" width="37.8046875" y="45" x="62.1953125" class="er attributeBoxEven"/><text style="dominant-baseline: middle; font-size: 10.2px;" transform="translate(67.1953125,55.5)" y="0" x="0" id="text-entity-Named-527792da-945b-57c2-aece-6a504f46f916-attr-2-name" class="er entityLabel">label</text></g><rect height="14" width="27.03125" y="129" x="95.5093765258789" class="er relationshipLabelBox"/><text style="text-anchor: middle; dominant-baseline: middle; font-size: 12px;" y="136" x="109.0250015258789" id="rel1" class="er relationshipLabel">data</text><rect height="14" width="34.90625" y="381" x="91.5718765258789" class="er relationshipLabelBox"/><text style="text-anchor: middle; dominant-baseline: middle; font-size: 12px;" y="388" x="109.0250015258789" id="rel2" class="er relationshipLabel">donor</text><rect height="14" width="45.1484375" y="828" x="86.4507827758789" class="er relationshipLabelBox"/><text style="text-anchor: middle; dominant-baseline: middle; font-size: 12px;" y="835" x="109.0250015258789" id="rel3" class="er relationshipLabel">type_of</text></svg>