<?xml version="1.0" encoding="UTF-8"?>
<svg id="Layer_1" xmlns="http://www.w3.org/2000/svg" xmlns:xlink="http://www.w3.org/1999/xlink" version="1.1" viewBox="0 0 604.9 350.6">
  <!-- Generator: Adobe Illustrator 29.0.1, SVG Export Plug-In . SVG Version: 2.1.0 Build 192)  -->
  <defs>
    <clipPath id="clippath">
      <rect x="556.9" y="298.3" width="48" height="48" fill="none"/>
    </clipPath>
    <linearGradient id="linear-gradient" x1="563.1" y1="-1364.6" x2="598.7" y2="-1344" gradientTransform="translate(0 -1032) scale(1 -1)" gradientUnits="userSpaceOnUse">
      <stop offset=".1" stop-color="#fff" stop-opacity="0"/>
      <stop offset=".4" stop-color="#fff"/>
    </linearGradient>
  </defs>
  <g isolation="isolate">
    <g id="Crosswalk">
      <g id="Ascending_Vasa_Recta">
        <polyline id="Descending_Vasa_Recta_1" points="47.9 37 62.3 22.2 75.4 16.6 90.1 16.6 113.3 27.5 132.2 38.7 139.9 49.4 144.9 62 141.2 86.3 140.2 101.9 139.3 115 141 126.1 141.2 135.6 152.2 103.6 159.9 78.7 162.6 57.1 156.9 33.6 143.7 14.9 128.1 4.4 103.2 .1 78.6 2.9 59.1 13.9 46.9 23.8 39.9 35.1 47.9 37" fill="none"/>
        <polyline id="Descending_Vasa_Recta_2" points="36.3 39 25 63.3 19 91.1 14.3 122.2 6.6 164.7 2.1 200.9 0 219.5 5.3 234.7 18.2 247.5 20.6 237.4 12.3 208.5 16.4 183.5 30.7 159.9 42.8 130.1 43.3 99 41 82.6 42.8 61 46.1 40.4 36.3 39" fill="none"/>
        <polyline id="Descending_Vasa_Recta_3" points="25.3 251.8 39.9 266.1 62.3 272.4 87.3 268.3 109.9 253.8 120.7 236.8 128.4 216 132 199.9 134 187.4 137.6 163.8 139.1 151 139.1 141.6 134.8 138.1 131.1 147.6 129.6 162.7 122.2 178.9 103.5 195.6 87 211.5 78.9 220.9 77.8 232.6 70.2 247.5 58.4 257.6 39.9 254.3 25.3 251.8" fill="none"/>
      </g>
      <g id="Descending_Thin_Limb_Cell">
        <polyline id="Descending_Thin_Limb_Cell_1" points="280.2 97.9 253.2 115.5 232.9 141.1 220 162.7 211.5 190.7 208.6 215.2 211 245.3 216.4 270 227.3 284.9 234.8 288 245.7 275.4 249.1 266 238.7 236.3 238.8 220.5 251.7 199.1 259.4 178.5 264.7 157.5 273.5 139.9 282.3 128.9 285.1 120.2 286.4 104.7 280.2 97.9" fill="none"/>
        <polyline id="Descending_Thin_Limb_Cell_2" points="261.8 274.5 248.9 274.5 240.4 282.7 237.7 294 251 303.9 287.8 315.4 329.5 316.9 355.6 310.1 388.7 296.6 409.1 282 420.8 269.1 427.1 250.8 430 245.7 402.2 242.3 390.9 238.6 386.2 247.5 368.2 259.1 349.8 263.1 329.5 268.1 313.4 275 300.1 282.1 276.8 279.1 261.8 274.5" fill="none"/>
        <polyline id="Descending_Thin_Limb_Cell_3" points="289 123.2 301.1 127.1 313.1 125.7 323.3 125.1 342.4 140.6 355.9 157.8 372.1 167.9 384.1 174.8 397.3 197.5 399.9 208.5 395.8 226.6 396.3 233.8 409.1 239.6 425.3 243.4 433.7 238.6 437.9 212.4 437.9 190.8 427.1 156.7 409.1 130.7 381 108.6 346.6 97.9 317.7 93 294 93 289 100.8 286.4 111.9 289 123.2" fill="none"/>
      </g>
    </g>
    <g id="labels">
      <g>
        <path d="M61.7,19.2c-17,18.5-28.7,41.8-33.3,66.5-2.1,11.4-2.8,23-5.5,34.3-2.1,8.8-5.5,17.3-7.9,26.1-6.3,22.1-7,45.5-4.4,68.3.6,5.2,1.4,10.5,3.4,15.4,1.9,4.6,4.9,8.6,7.9,12.6,4.5,6,9,12.1,15.2,16.3,5.7,3.9,12.4,5.9,19.1,7.7,3.5,1,7,1.9,10.5,1.8,4.4-.2,8.7-2,12.4-4.5,11.7-7.8,18.3-20.9,24.4-33.5,10.9-22.5,22-45.2,28.5-69.4,6.5-24.3,8.4-49.7,15.4-73.8,2.8-9.8,6.4-19.7,5.2-29.8-1.5-12.3-10.1-22.6-19.5-30.6-7.5-6.4-16-12-25.7-13.5-8.2-1.3-16.6.4-24.8,2.1-7.3,1.5-14.6,3.1-21.9,4.7" fill="#f4e4ea"/>
        <path d="M60.3,17.7c-13.4,14.6-23.5,32-29.6,50.9-3.2,10.1-5,20.4-6.4,30.8-.7,5.6-1.5,11.1-2.6,16.6-1.1,5.6-2.8,11-4.6,16.4-1.8,5.4-3.5,10.6-4.9,16s-2.5,10.8-3.3,16.3c-1.6,11.1-2.1,22.3-1.6,33.5.2,5.5.7,11.1,1.3,16.6.6,5.4,1.5,10.9,3.7,15.9,2.1,4.9,5.3,9.1,8.4,13.3,3,4,6,8,9.6,11.5,3.6,3.5,7.8,6.4,12.5,8.4,4.9,2.1,10.1,3.6,15.2,5s10.7,1.7,15.9-.3c4.6-1.8,8.7-4.7,12.2-8,6.9-6.5,11.7-14.8,15.9-23.1,4.8-9.5,9.4-19.2,13.9-28.9,4.6-10.1,9-20.3,12.7-30.7,3.7-10.5,6.6-21.3,8.9-32.3,2.2-11,3.9-22.1,6-33.1,1-5.6,2.2-11.2,3.5-16.7,1.3-5.4,2.9-10.7,4.5-16.1,2.9-10.2,4.9-20.8,1.1-31-3.3-8.9-9.7-16.3-16.7-22.6-7.3-6.5-15.8-12.5-25.5-14.7-11.1-2.6-22.4.4-33.3,2.7-5.6,1.2-11.3,2.4-16.9,3.6-2.5.5-1.5,4.4,1.1,3.9,5.6-1.2,11.3-2.4,16.9-3.6,5.4-1.1,10.8-2.4,16.3-3.1,5.2-.6,10.6-.7,15.7.6,4.7,1.2,9,3.3,13,5.9,7.6,4.9,14.9,11.3,20.2,18.7,2.6,3.6,4.8,7.5,6.1,11.8,1.4,4.7,1.7,9.7,1,14.6-.7,5.4-2.3,10.6-3.8,15.7s-3,10.4-4.2,15.7c-2.4,10.7-4.2,21.5-6.1,32.3-1.9,10.7-3.9,21.4-6.8,31.9-2.9,10.3-6.6,20.3-10.7,30.2-4.2,9.9-8.8,19.7-13.4,29.4-4.2,8.6-8.1,17.4-13.3,25.4-4.8,7.4-11.3,14.9-19.9,18-5.2,1.9-10.1,1-15.3-.5-4.8-1.4-9.7-2.7-14.2-4.9-9-4.4-14.9-12.4-20.6-20.2-3-4.1-5.8-8.3-7.4-13.2-1.6-5.1-2.1-10.4-2.7-15.6-2.1-21.4-1.2-43.2,4.7-64,3-10.6,7.1-20.8,9.1-31.6,2-10.7,2.7-21.5,5-32.1,4-18.6,12-36.2,23.2-51.5,2.8-3.8,5.7-7.3,8.9-10.8,1.7-1.9-1.1-4.7-2.8-2.8h0l.1-.2Z" fill="#f4e4ea"/>
      </g>
      <g>
        <path d="M55.6,159.1c-15.4,11.7-24.5,32.8-18.3,51.1.8,2.5,2,5,3.6,7.1,5.1,6.6,10.7,8.7,18.5,6,7.8-2.6,17.9-9.4,21-17.1s4.5-16.2,3.7-24.5c-.7-6.7-3.4-13.7-7.9-18.7s-12.6-7.3-18.3-3.6" fill="#cd5257"/>
        <path d="M52.8,156.3c-10.4,8.1-18.2,20-20.6,33.1-2.3,12.4,0,28.1,11.1,35.8,10.8,7.5,25,0,33.6-7.7,10.8-9.8,13.5-27.8,10.2-41.5-3.2-13.4-16.4-28.5-31.3-20.1-4.5,2.6-.5,9.5,4,6.9,6.3-3.6,12.8,1.2,16.1,6.6,3.8,6.4,4.8,13.8,4.2,21.2-.6,6.9-2.4,14.5-7.3,19.7-4.3,4.5-10.5,8.4-16.6,9.8-14,3.1-17.8-16.7-16.5-26.7,1.6-12.6,9-23.7,18.8-31.3,4-3.2-1.7-8.8-5.7-5.7h0v-.1Z" fill="#cd5257"/>
      </g>
      <g>
        <path d="M83.1,125c-4.6-5.5-10.8-9.6-17.7-11.8-2-.6-4.2-1.1-6.2-.6s-4,2.2-4,4.3c0,1.3-.3,2.4.2,3.6,7.8,18.9,18.1,26.5,29.7,37.2,2.5,2.3,6.1,3.5,9.2,4.7s5.9,2.2,8.6.1c2.3-1.7,3.4-4.6,4.4-7.3,2.3-6.1,4.4-13.8,0-18.6-1.3-1.5-3.1-2.5-4.9-3.4-5.7-3-11.4-5.8-17.3-8.4" fill="#cd5257"/>
        <path d="M85.9,122.2c-6.2-7-21.9-19.1-31.4-11.6-9.7,7.7,3.2,24.3,8.4,30.9,3.4,4.3,7.3,8.2,11.3,11.9,4.3,3.9,8.4,8.5,13.8,10.9,5.1,2.3,11.6,5.3,16.8,1.8,4.5-3,6.5-9.5,7.9-14.5,1.6-5.9,1.9-12.9-2.6-17.7-2.7-2.9-6.5-4.5-10-6.3-4.3-2.2-8.7-4.2-13.1-6.2-4.7-2.1-8.7,4.8-4,6.9,5.9,2.6,11.7,5.3,17.3,8.4,6.1,3.4,6.1,7.9,4.2,14.1-.7,2.2-1.4,5.4-3,7.2-2.4,2.7-5.6.9-8.4-.2-5-2-8.5-5.7-12.4-9.2-6.8-6.2-13.1-12.9-17.7-21-1.3-2.3-2.9-4.8-3.7-7.4-1.7-5.4,4.5-3.4,7.3-2.3,5.3,2.1,9.8,5.6,13.5,9.9,3.4,3.9,9-1.8,5.7-5.7h0l.1.1Z" fill="#cd5257"/>
      </g>
      <g>
        <path d="M77.8,35.1c-9.8,2.1-16.5,12.3-17,22.3-.5,10.1,4.2,19.7,10.2,27.8,3.8,5,8.2,9.6,13.4,13,2.4,1.5,5.1,2.8,8,3.3,7.1,1.1,14.4-3.3,17.9-9.7s3.7-14.1,1.9-21.1-5.3-13.4-9-19.6c-2.4-4.2-5.1-8.4-8.8-11.4-3.7-3-8.9-4.8-13.5-3.3" fill="#cd5257"/>
        <path d="M76.7,31.2c-11.8,3-19.3,14.4-19.9,26.2-.7,14.3,8,28.7,18.1,38.3,9.8,9.3,23.1,13.9,34.2,3.9,11-9.9,9.3-26.3,4-38.6-5.7-13-15.9-32.7-33.1-28.6-5,1.2-2.9,8.9,2.1,7.7,7.7-1.8,13,5.1,16.5,10.8s7,11.7,9.1,18.2c2.1,6.6,2.7,14.3-.8,20.6-2.9,5.2-9,9-15.1,7.4-11.9-3.1-22.2-18.2-25.6-29.4-3.4-11.2-.1-25.7,12.6-28.9,5-1.3,2.9-9-2.1-7.7h0v.1Z" fill="#cd5257"/>
      </g>
      <g>
        <path d="M39.9,39.5c-11,17.3-15,38-18.8,58.2-1,5.4-2,10.7-3,16.1-3.5,18.4-6.9,36.8-9,55.4-.5,4.9-1,9.9-2.3,14.6-.8,3.1-2.1,6.1-2.8,9.2-2.2,9.1-2.5,18.6-.7,27.8,1.9,9.5,6.8,20.1,15.3,24.8,2-16.3-11.8-31.5-9.9-47.8.6-5.5,3-10.6,5.4-15.5,6.7-13.4,14.4-26.2,20.3-39.9,5.9-13.7,10-28.6,9-43.5-.4-6.7-1.9-13.2-2.5-19.9-1.2-13.3,1-26.7,3.2-40-1-1-2.9-.6-3.5.7" fill="#f9c7dc"/>
        <path d="M38.2,38.5c-7.4,11.7-11.8,25.1-14.9,38.5-3.4,14.4-5.8,29.1-8.5,43.6-2.9,15.4-5.6,30.7-7.4,46.3-.4,3.8-.8,7.6-1.4,11.4s-1.8,7.2-2.9,10.8c-2.3,7-3.2,14.6-3,22,.5,13.2,5,29.5,17.4,36.4,1.4.8,2.8-.2,3-1.7,1.4-12.3-5.4-23.4-8.6-34.9-1.7-6-2.1-12-.2-18.1,2.1-6.8,5.9-13.2,9.2-19.4,6.8-12.9,14-25.6,18.8-39.4,2.4-6.9,4.2-13.9,5.1-21.2.9-7.4.6-14.7-.5-22.1-.6-4.2-1.3-8.3-1.6-12.6-.3-4.2-.3-8.5,0-12.7.5-8.7,1.9-17.2,3.3-25.7.1-.7,0-1.5-.5-2-2.1-1.7-5.3-1.4-6.7,1.1-1.2,2.3,2.2,4.3,3.5,2,.2-.3.5-.2.4-.3l-.5-2c-1.3,7.6-2.5,15.2-3.2,22.9-.7,7.7-.5,15.3.5,23,1,7.4,2.3,14.8,1.9,22.3-.3,7.2-1.8,14.3-3.9,21.2-4.3,14.1-11.3,27.1-18.2,40-3.4,6.4-7,12.8-9.9,19.6-2.6,6.2-3.6,12.5-2.5,19.2,2.1,13.2,11.2,25.2,9.6,39l3-1.7c-10.3-5.7-14.4-19.1-15.2-30.1-.6-7.2,0-14.6,2-21.5,1-3.5,2.3-6.9,3.1-10.5.8-3.7,1.2-7.4,1.6-11.2,1.6-15,4.1-29.9,6.9-44.7,2.7-14.4,5.2-28.9,8.3-43.2,3.2-14.7,7.4-29.4,15.6-42.2,1.4-2.2-2.1-4.2-3.5-2h0l-.1-.1Z" fill="#f9c7dc"/>
      </g>
      <g>
        <path d="M48.2,26.2c-1.4,2-2.6,4-3.7,6.2-.6,1.1-1.1,2.4-.6,3.5.7,1.4,2.7,1.7,4.1,1s2.3-2,3.2-3.3c5.4-7.4,12.5-13.7,21-17.1,8.5-3.4,18.3-3.9,26.8-.4,4.4,1.8,8.4,4.7,12.3,7.5,7,5,13.9,10,20.9,15,2.8,2,5.1,4.4,7.2,7.1,13.4,17.5,3.8,43.9.9,61.4-1.3,8.1-2,16.7,1.1,24.3.2.6-.5.2,0,.5,1.4.8.9,0,1.5-1.5,4.8-11.3,7.7-23.3,10.6-35.3,4.3-17.8,8.7-36.5,4.7-54.4-1-4.5-2.6-9-5.1-12.9-2.9-4.5-7.1-8.2-11.5-11.3-12.6-8.8-28.1-13.5-43.5-13.1s-30.6,5.7-42.8,15.1c-2.9,2.2-5.7,4.7-7.8,7.8" fill="#f9c7dc"/>
        <path d="M46.4,25.2c-1.1,1.6-2.2,3.3-3.1,5s-2,3.5-1.6,5.5c.6,3.5,5,4.5,7.7,2.7,1.5-1,2.5-2.5,3.6-3.9s2.1-2.7,3.2-4c2.3-2.5,4.8-4.9,7.5-6.9,5.8-4.3,12.7-7.2,19.9-7.7,3.7-.3,7.3,0,10.9.9,3.7,1,7.1,2.8,10.4,4.9,6.9,4.5,13.6,9.6,20.3,14.5,3.2,2.3,6.7,4.5,9.5,7.3,2.3,2.3,4.3,4.9,5.9,7.8,5.8,11,4.1,24.5,1.8,36.2-2.5,12.8-6.9,26.3-4.3,39.4.4,1.8,1.1,3.5,1.6,5.3l.2-1.5h0c0,.1,1.2-.8,1.2-.8h-.1c-1.6.3-1.8,2.3-.9,3.3s2.9,1.5,4,.4c.5-.4.6-1,.8-1.6.2-.9.6-1.7,1-2.6,1.6-3.8,2.9-7.7,4.1-11.6,2.5-8,4.4-16.2,6.4-24.3,3.9-16.3,7.6-33.3,4.8-50.1-1.3-7.7-4-15-9.2-20.9-4.9-5.5-11.4-9.8-17.9-13.1-14-6.7-29.5-9.4-44.6-7.2-7.4,1-14.6,3.2-21.3,6.3-6.7,3.1-13.4,7.3-18.7,12.5-1.3,1.3-2.5,2.8-3.6,4.3-.6.9-.2,2.2.7,2.7,1,.6,2.1.2,2.7-.7,4-5.5,10.1-9.6,16-12.8,6-3.4,12.5-5.8,19.2-7.3,13.7-3.1,28-1.9,41.1,3.1,6.4,2.5,12.7,5.9,18.1,10.2s9.4,9.6,11.5,16.2c4.8,14.8,2.6,30.9-.6,45.8-1.8,8.6-3.9,17.1-6.2,25.5-1.1,4.1-2.3,8.2-3.6,12.2-.7,2.1-1.4,4.2-2.2,6.2-.4,1-.8,2-1.2,3-.2.4-.3.7-.4,1.1,0,.2,0,.4-.1.5-.1.5,0,.3.6-.6l1-.3c.5.2.6.2.3,0q-.2-.1,0,.1c-.3,1.1-.6,2.2-.9,3.3.6-.1,1.1-.6,1.4-1.1.6-1.1,0-2-.3-3-.6-1.8-1.1-3.7-1.3-5.6-.5-3.8-.3-7.7,0-11.6.7-6.1,2.1-12,3.3-18,2.6-12.2,5.2-25.3,2-37.6-1.7-6.4-5.1-12.2-9.9-16.8-2.9-2.8-6.4-5-9.7-7.4l-10.5-7.5c-6.4-4.6-12.8-9.8-20.5-12.1-7.2-2.1-15.2-1.8-22.3.6-6.8,2.2-12.9,6.2-18,11.2-2.5,2.5-4.8,5.2-6.9,8.1-.7,1-1.7,2.5-3.1,2.3-.5,0-.5-.1-.4-.7,0-.8.7-1.7,1.1-2.4.9-1.7,2-3.4,3.1-5,1.5-2.1-2-4.1-3.5-2h0v.3Z" fill="#f9c7dc"/>
      </g>
      <g>
        <path d="M37.8,256.2c-4.5-2.9-9.4-5.3-14.5-6.9,7.1,9.8,17.2,17.4,28.7,21s24.4,3.1,35.3-2c13.6-6.4,23.1-19.1,31-31.9,4-6.5,7.8-13.1,10.1-20.4,7.3-22.3.9-47.5,9.5-69.4.6-1.6,1.4-3.3,1.2-5-.1-1.7-1.6-3.5-3.3-3.3-1.8.2-2.8,2.2-3.2,4-1,4.8-.3,9.9-.7,14.8-1.2,13.3-10.7,24.3-20.8,33.2-10,8.9-21.2,17-27.8,28.6-3.9,6.9-5.9,14.7-9.2,21.9s-8.3,14.2-15.8,16.8c-6.3,2.3-13.3,1.1-20,0" fill="#f9c7dc"/>
        <path d="M38.8,254.5c-4.7-3-9.7-5.4-15-7.1-1.6-.5-3.3,1.5-2.3,2.9,7.4,10.1,17.6,18,29.5,21.8,12.7,4.1,27.1,3.2,39-3,11-5.8,19.2-15.5,26-25.7,7.6-11.4,14.4-23.4,16.7-37.1,2.2-13.4,1.4-26.9,2.8-40.4.7-6.8,2.1-13.3,4.6-19.7,1.1-3,1.6-6.6-1.1-8.9-2.5-2.1-5.9-1.1-7.4,1.6-1.6,2.9-1.6,6.6-1.6,9.8,0,3.4.2,6.9-.4,10.4-1.1,6-3.8,11.5-7.4,16.4-7.4,10.2-17.9,17.4-27.1,25.9-4.6,4.3-8.9,8.9-12.2,14.2-3.7,5.9-5.9,12.6-8.4,19.1-2.2,5.6-4.8,11.2-8.9,15.6-1.9,2-4.2,3.8-6.8,4.9-3,1.3-6.3,1.7-9.6,1.6-3.5-.1-6.8-.7-10.2-1.3-1.1-.2-2.2.3-2.5,1.4-.3,1,.3,2.3,1.4,2.5,6.6,1.2,13.6,2.4,20.2.4,5.6-1.8,10.1-5.7,13.5-10.5,3.7-5.1,5.9-11,8-16.8,2.3-6.1,4.7-12.1,8.5-17.4,7.1-9.9,17.3-16.9,26.2-25,8.7-7.9,17-17.8,19.1-29.7.6-3.3.6-6.6.6-10,0-1.8,0-3.5.2-5.3.1-1.4.3-3.1,1.1-4.3.5-.7,1.1-.6,1.5.1.7,1.2,0,2.7-.4,3.9-1.2,3.1-2.3,6.2-3,9.5-3,12.7-2.4,25.9-3.2,38.9-.4,6.5-1.1,13-2.8,19.3s-4.8,12.6-8.2,18.5c-6.1,10.4-13,20.9-22.3,28.7-9.6,8-21.8,11.8-34.2,10.7-12.1-1.1-23.4-7.1-31.9-15.6-2-2-3.9-4.2-5.6-6.6-.8,1-1.5,2-2.3,2.9,5,1.6,9.6,3.9,14,6.7,2.2,1.4,4.2-2.1,2-3.4h0l-.1.1Z" fill="#f9c7dc"/>
      </g>
      <g>
        <path d="M275.1,100.5c-15.8,6.5-23.5,20.9-33.3,35-9.7,14.1-18,25.2-23.8,41.3-2.2,6-8,14.7-8.7,21.1-.8,6.6,0,13.2.4,19.8,1.1,16.7.5,33.9,6.8,49.4,7.8,19,25.4,32.8,44.7,40s40.2,8.5,60.8,8.4c11.3,0,22.7-2.4,33.6-5.3,10.5-2.8,20.3-7.7,29.5-13.6,18.6-11.9,35.1-25.8,45.4-45.4,10.2-19.6,13.8-43.1,7.4-64.3-3.5-11.4-9.7-21.9-13-33.3-1.2-4-2-8.2-4.2-11.9-3.8-6.4-10.9-10-16.6-14.8-4.4-3.7-8-8.2-12.6-11.8-6.9-5.4-15.5-8.1-23.9-10.7-15.1-4.7-30.3-9.4-46-11.1-15.7-1.8-32.1-.4-46.3,6.6,8.8,4.2,6.2,18.8,13.9,24.8,6.4,4.9,15.6,1,23.7,1,10.5,0,19.8,6.8,27,14.5s13.3,16.6,21.9,22.7c4.9,3.5,10.5,5.9,15.1,9.7,5.2,4.2,12,9.8,15.2,15.6,4.7,8.4,5.2,17.7,5.5,27.3.4,14.3-7,30.6-18.9,38.5-13,8.6-29.6,7.5-44.1,13.1-15,5.7-29,16.8-45,15.5-6-.5-11.7-1.7-17.3-3.9-8.5-3.3-17.3-5.9-23.4-12.7-7.2-8.2-9.3-21.6-11-32.3-.5-2.9-.9-5.9-.5-8.9.6-3.9,2.6-7.3,4.5-10.7,10.6-18.5,16.5-42.6,22.6-63,2.2-7.4,6.9-10.6,11.8-16.5,2.7-3.3,6.4-6.2,6.8-10.5.2-2.1-.4-4.2-1.1-6.2-1.3-3.9-2.5-7.8-3.8-11.7-.7-2-1.4-4.2-3.2-5.4s-4.8-.6-5.2,1.5" fill="#ba9bc9"/>
        <path d="M274.6,98.6c-10.1,4.2-17.6,11.8-23.9,20.5-3.2,4.4-6.1,9-9.2,13.5-3.3,4.8-6.7,9.6-9.9,14.4-3.2,4.8-6.2,9.6-8.9,14.7-1.4,2.6-2.7,5.2-3.8,8-1.1,2.6-2.1,5.3-3.2,7.9-2.1,4.9-4.9,9.5-6.8,14.5-2.1,5.5-1.9,11.5-1.6,17.4.4,6.5.9,13,1.1,19.6s.6,12.7,1.4,19c1.5,11.6,5,22.7,11.8,32.2,13.1,18.4,34.3,29,56.1,33.5,12.8,2.7,25.9,3.5,38.9,3.7,6.7,0,13.3-.2,19.9-1.1s12.9-2.4,19.3-4.1c12.1-3.2,23.1-9,33.5-15.9,9.2-6.1,18.1-12.8,25.8-20.8,16.4-16.7,26.8-38.9,28-62.4.6-12.4-1.7-24.3-6.4-35.8-2.4-5.9-5.2-11.6-7.5-17.5-1.1-2.9-2.1-5.8-2.9-8.7s-1.6-5.8-2.8-8.5c-2.4-5.1-6.7-8.8-11.1-12-2.2-1.6-4.4-3.1-6.5-4.8-2.4-2-4.5-4.2-6.7-6.4-4.4-4.4-9-8.2-14.6-10.9-5.4-2.6-11.1-4.4-16.8-6.1-24.6-7.6-50.5-15.3-76.4-9.9-5.9,1.2-11.6,3.1-16.9,5.8-1.3.6-1.3,2.8,0,3.4,2.6,1.3,4.1,3.8,5.1,6.5,1.2,3.2,1.9,6.4,3,9.6,1.2,3.2,2.8,6.4,5.6,8.5,3.6,2.7,8.1,3.2,12.4,2.8s8.9-1.5,13.5-1.4c4.4.2,8.6,1.7,12.4,3.9,8.2,4.7,14.2,12.2,20.3,19.3,3.1,3.6,6.3,7.2,9.9,10.3s7.9,5.8,12.2,8.3c4.1,2.4,7.8,5.2,11.5,8.3,3.5,3,7,6.2,9.6,10.1,5.3,8.2,5.8,18.5,6,28,.1,8.3-2.2,16.6-6.4,23.7-4.4,7.5-10.7,13.3-18.8,16.4-8.7,3.4-18,4.2-27.1,6.3-9.3,2.1-17.7,6.4-26.2,10.6-8.2,4-16.9,8-26.3,7.6-5.1-.2-10.2-1.2-15-2.8-4.4-1.5-8.9-3.2-13.1-5-4.1-1.8-8.1-3.9-11.2-7.1-2.9-2.9-5-6.6-6.5-10.4-1.6-4.1-2.6-8.4-3.5-12.7s-1.8-8.8-2.2-13.2c-.2-2.6,0-5,.8-7.5.8-2.3,2.1-4.4,3.3-6.5,2.3-4.1,4.4-8.2,6.2-12.5,3.9-9,7-18.4,9.9-27.8,1.4-4.6,2.7-9.3,4.1-13.9.6-2.2,1.3-4.5,2-6.8.6-2.1,1.2-4.3,2.2-6.3,1.9-3.7,4.9-6.6,7.7-9.6,1.5-1.6,2.9-3.4,4.5-5,1.5-1.6,3-3.3,4-5.3,1.1-2.2,1.5-4.5,1.1-6.9-.4-2.6-1.4-5.2-2.2-7.7-.9-2.7-1.7-5.3-2.6-8-.7-2.1-1.5-4.3-3.1-5.8-2.7-2.5-8.1-2.2-9.1,1.9-.6,2.5,3.3,3.6,3.9,1.1.2-1,1.8-.7,2.4-.2,1.7,1.4,2.1,4.2,2.8,6.2.9,2.7,1.7,5.3,2.6,8,.8,2.3,1.9,5,1.5,7.5-.3,2-1.6,3.7-2.9,5.1-1.5,1.7-2.9,3.3-4.4,5-2.9,3.2-6,6.2-8.4,9.9-2.5,3.9-3.6,8.5-4.9,12.9-1.4,4.6-2.7,9.2-4,13.8-2.8,9.5-5.8,18.9-9.6,28.1-1.8,4.3-3.8,8.5-6,12.6-2.4,4.3-5.1,8.6-5.7,13.6-.5,4.8.8,9.8,1.6,14.6.8,4.4,1.6,8.8,3,13,1.3,4.1,2.9,8.1,5.4,11.6,2.6,3.8,6,6.8,9.9,9.1,4,2.4,8.4,4,12.8,5.6,4.7,1.8,9.4,3.5,14.3,4.5,4.9.9,9.9,1.4,14.9.7,4.6-.6,9.1-2.1,13.4-3.9,8.8-3.7,16.9-8.8,25.9-11.9,8.9-3.1,18.4-4,27.5-6.2,8.8-2.2,17-6,23.1-12.9,5.7-6.4,9.7-14.5,11.5-22.9.9-4.3,1.2-8.6,1-13-.2-5-.5-10.1-1.5-15-1-4.6-2.6-9.4-5.4-13.3-2.7-4-6.3-7.3-9.9-10.4-3.7-3.2-7.5-6.1-11.7-8.6s-8.4-4.9-12.1-8.2c-13.6-12.1-23.2-32.1-43.3-34.2-4.6-.5-9.1.5-13.7,1.1-4,.5-8.5.8-11.8-2-2.4-2-3.6-5-4.5-7.9-1-3.3-1.8-6.7-3.2-9.8-1.3-2.9-3.3-5.5-6.2-7v3.4c22.6-11,48.8-7.2,72.1-.8,6.2,1.7,12.4,3.6,18.6,5.5,5.5,1.7,11.1,3.4,16.3,6,2.6,1.3,5.1,2.8,7.4,4.7,2.3,1.9,4.4,4,6.4,6.1s4.1,4.1,6.3,5.9c2.1,1.7,4.3,3.2,6.5,4.8,4.2,3.1,8.2,6.5,10.2,11.4,1.1,2.7,1.7,5.6,2.5,8.3.9,3,2,6,3.1,9,4.5,11.2,10.2,21.9,12.2,34,3.8,22.5-3,46.4-16.3,64.8-6.2,8.6-14,16.1-22.3,22.6-8.9,7-18.5,13.4-28.6,18.3-5.4,2.6-11.1,4.7-16.9,6.2-6.3,1.6-12.6,3.1-19.1,4-6.4.9-12.7,1-19.1.9-6.3,0-12.6-.3-18.8-.9-22.4-2-45.2-8.2-62.2-23.6-7.6-6.8-13.8-15.3-17.2-25-4.1-11.5-4.7-23.8-5.2-35.9-.3-6.4-.8-12.8-1.1-19.1-.2-3.2-.2-6.5,0-9.7.2-2.4.9-4.6,1.7-6.8,1.9-4.8,4.6-9.2,6.6-14,2.1-5.2,4.1-10.4,6.8-15.4,5.4-10,12.1-19.1,18.4-28.4,5.7-8.4,11.1-17.4,18.6-24.3,3.6-3.3,7.7-6.1,12.2-7.9,1-.4,1.7-1.3,1.4-2.5-.3-.9-1.5-1.8-2.5-1.4h0l-.2.1Z" fill="#ba9bc9"/>
      </g>
      <path d="M246.1,116.9c-13.5,18.3-34.4,46.7-36.4,60.6s-7.1,28.3-3.9,55.2c3.2,26.9,3.2,40.6,21.8,59.9,16.6,17.3,34.9,16.9,56.1,23.3s36.1,6.1,64.5,0,47.6-21.2,63.5-32.8c15.9-11.6,19.7-31.1,25.9-52.1s6.2-50.8-4-68.9-16.2-29.4-42.1-47c-19.5-13.2-53.9-30.3-101-23.8-20.7,2.8-35.9,14.2-44.4,25.6h0Z" fill="none" stroke="#f5a59a" stroke-miterlimit="10" stroke-width="8"/>
      <g mix-blend-mode="multiply">
        <path d="M243.2,207.9c5.1-9.1,9.6-18.4,13.6-28,1.8-4.2,3.7-8.3,3.5-12.9-.3-5.8-3.9-11-9.6-12.5-10.8-2.9-18.3,8.9-22.5,17.1-4.5,8.7-6.8,18.1-7.3,27.9-.3,6.2,5.5,11.5,11.5,11.5s11.2-5.3,11.5-11.5c.4-9.1,3.8-19.1,10.5-25.5-1.7,1-3.4,2-5.1,3l1-.4h-6.1l.8.2c-1.7-1-3.4-2-5.1-3l.5.6-3-5.1c-.4-1.3.7-2.9-.4-1.6-.9,1.1-1.2,3-1.7,4.4-1.1,2.6-2.2,5.1-3.4,7.6-2.6,5.7-5.6,11.2-8.6,16.7-7.3,12.9,12.6,24.5,19.9,11.6h0v-.1Z" fill="#e2a489"/>
      </g>
      <g mix-blend-mode="multiply">
        <path d="M347.4,144.6c6.7,9.6,15.4,17.9,26.1,22.9,6.1,2.8,12.6,5,19.2,2.2,7.5-3.2,10.7-11.1,9.3-18.8-1.9-10.6-10.9-20.3-20.5-24.8-5.7-2.7-12.1-4.6-18.4-3.6-7.7,1.3-14.3,8.1-13.6,16.2.6,6.2,4.9,11.5,11.5,11.5s12.1-5.3,11.5-11.5v.4c-.1,0-3.1,5.1-3.1,5.1-2.9,3.7-4.5,0-2.2.9.2,0,2,.6,2.7.8,1.5.6,3.6,1.7,5,2.9.9.8,2.2,2.2,2.9,3.2,2.5,3.5.4,4.9,5.6,0,7.5-7.1,4.6-2.6,2.4-4-.8-.6-1.9-.9-2.9-1.4-2.3-1.2-4.6-2.6-6.7-4.1-3.4-2.6-6.5-5.9-9-9.4-3.5-5.1-10.1-7.4-15.7-4.1-5,2.9-7.7,10.6-4.1,15.7h0v-.1Z" fill="#e2a489"/>
      </g>
      <g mix-blend-mode="multiply">
        <path d="M316.8,303.7c13.4,3.3,27.1,1.8,39.5-4.4,6.6-3.3,13.9-8.3,14.2-16.5.3-7.6-5.5-13.5-12.5-15.6-11.6-3.5-25.8-.5-35.9,5.7-5.3,3.3-12.1,8.4-14,14.7-3,9.6,5.8,19.5,15.7,16.3,14.1-4.4,8.1-26.6-6.1-22.2l-.7.2,8.9,1.2-.7-.4,4.1,4.1-.4-.8,1.2,8.9c-1.3,2-1.2,2.2.2.6l1.1-1c.7-.6,1.6-1.2,2.5-1.8,2.2-1.4,4.4-2.3,6.8-3,2.5-.7,4.5-1,7.3-.9.9,0,2.3.3,2.9.2-.4.2,0,.3,1.1.3-2.2-1.6-2.6-1.8-1.4-.5-1-1.7-2-3.4-3-5.1v-1.1c.4-1.9,1-3.9,1.5-5.8,0-.1,3.1-1.8-.8.5-1.2.7-2.3,1.4-3.5,2-2.3,1.1-4.7,1.8-7.1,2.3-4.8,1.1-9.8.9-14.6-.3-14.4-3.5-20.5,18.7-6.1,22.2h0l-.2.2Z" fill="#e2a489"/>
      </g>
      <g mix-blend-mode="multiply">
        <path d="M90.8,258.8c15.4-6.1,26-20.4,25.5-37.3-.1-4.3-3-8.6-7.3-9.6-19.1-4.7-27.4,20.5-27.9,35-.5,12.9,19.5,12.9,20,0,.1-3.4.7-6.6,1.9-9.8.5-1.3,1.1-2.5,1.8-3.8.4-.7.8-1.5,1.3-2.2,1.2-1,.4-1-2.5,0-2.4-3.2-4.9-6.4-7.3-9.6.2,7.3-3.7,15.2-10.8,18-5,2-8.5,6.7-7,12.3,1.3,4.8,7.2,9,12.3,7h0Z" fill="#e2a489"/>
      </g>
      <g mix-blend-mode="multiply">
        <path d="M107.1,23.7c8.9.6,16.9,4.6,23.2,10.8,9.1,9.1,23.3-5,14.1-14.1-10.1-10.1-23.1-15.7-37.3-16.7-5.4-.4-10,4.9-10,10s4.6,9.6,10,10h0Z" fill="#e2a489"/>
      </g>
      <g mix-blend-mode="multiply">
        <path d="M19.2,106.6c.6,11.3-.5,22.3-3.6,33.2-3.5,12.4,15.8,17.7,19.3,5.3,3.5-12.5,5-25.6,4.3-38.6-.7-12.8-20.7-12.9-20,0h0v.1Z" fill="#e2a489"/>
      </g>
      <g mix-blend-mode="multiply">
        <path d="M277.7,101.5c-12.1,5.8-22.1,14.1-29.6,25.2-6.6,9.7-14,18.8-19.8,29.1-7.2,12.8-13.4,25.9-15.5,40.6-1.9,1.1-3.1.9-3-1.6,2.1-20.3,12.4-37.1,23.2-53.6,8.1-12.4,17.3-23.9,27.6-34.5,2.5-2.6,5.8-4.3,8.8-6.2,10.9-6.8,22.4-10.9,35.6-10.7,12.7.2,25.2,1.3,37.5,4.7.3.4.4.7.3,1.1-.1.3-.2.5-.4.5-4.6.2-9-1-13.4-1.8-11.6-2.1-23.3-1.1-34.9-1.2-.9,1-1,2.5-2.1,3.3-2.5,1.6-5.5,1.6-8.1,2.9-2.1.5-4.4.7-6.1,2.3h0l-.1-.1Z" fill="#a9a9a9"/>
        <path d="M378.3,106.1c4,1.2,7.3,3.7,10.5,6.1,14.2,10.6,27.6,21.8,37.2,37.2,4.6,7.4,8.1,15.2,11.5,23,3,6.8,3.1,14.4,4,21.8.2,1.3.1,3.2-1.8,3.3-1.8,0-2-1.7-2.2-3.1-.6-3.5-1.1-7.1-1.8-10.6-2.9-16.9-10.9-31.3-21.5-44.5-7.1-8.8-16.5-15-24.2-23.2-3.5-3.8-9.4-4.7-13.1-8.6,0-.9.7-1.2,1.5-1.3h0l-.1-.1Z" fill="#a7a7a7"/>
        <path d="M297.8,281.3c7.3-.2,13.9-2.1,19.7-7.1,5.7-5,13.4-5.1,20.4-5.6,6.1-.5,11.8-1.4,17.3-3.9,2.5-1.1,5.1-1.2,7.7-1.5-4.7,5.7-11.9,8.9-21.2,8.4-7.4-.5-13.6,2-19.6,5.6-2.7,1.6-5,3.5-8.3,4-3.5.5-5.1,3.9-7.7,5.8-2.8-.7-5.6,0-8.4-.3-1.8-.2-4.2-.3-4.3-2.7-.1-2.9,3.2-1,4.3-2.5h0l.1-.2Z" fill="#c2c2c2"/>
        <path d="M297.8,281.3c-.8.8-2,1.6-2.1,2.5-.1,1.4,1.4,1.5,2.5,1.7,2.7.3,5.5,0,8.1,1.4-3.5,1.3-7,1.3-10.5.5-8.1-1.8-16.2-3.7-24.3-5.5-4-.9-7.3-3.4-10.9-5.2-5.4-2.6-10-2.4-14.3,1.9-1.4.3-2.1-.1-1.7-1.7.4-.5.8-1,1.2-1.5,2.6-3.8,5.7-6.4,10.7-4.3,3,0,5.5,1.5,8,2.9,10.5,5.8,21.7,7.9,33.5,7.4h0l-.2-.1Z" fill="#a9a9a9"/>
        <path d="M398.5,231.1c5,7.8,13,9.5,21.4,9.7,3.6,0,7.1-.4,10.3,1.6,1.2,3.2.1,4.1-3,3-5-.3-10.1,2.1-15-.5-4.8-2.6-9.9-2.7-15.1-2.6-1.8-.2-4,0-4.2-2.7,1.3-2.8,2.2-5.9,5.7-6.8-.4-.4-.5-.8-.4-1.1.1-.4.3-.6.4-.6h-.1Z" fill="#bdbdbd"/>
        <path d="M209.7,194.7c1,.5,2,1.1,3.1,1.6-4,15.3-2.8,30.7-1,46.1.4,1.2.7,2.6-.7,2.9-2,.4-1.4-2-2.4-2.9-.3-.9-1-1.8-1-2.6.5-9.3-3.7-18.5-.7-28,.9-2.8-.1-6.1.2-9.2.3-2.7.3-5.8,2.6-7.9h-.1Z" fill="#b8b8b8"/>
        <path d="M289,123.2c8.5,0,16.7,3.2,25.6-.5,5.1-2.1,10.8,1.9,14.8,6.1-.2.6-.6,1.1-1.3,1.3-11.5-1.8-23-2.5-34.6-2.8-2,0-4.3,1-5.8-1.4-.8-1.5,0-2.2,1.3-2.7h0Z" fill="#d3d3d3"/>
        <path d="M244.4,276.9c.6.6,1.1,1.1,1.7,1.7-.2,2.7-1.3,5.2-3,7.1-3.3,3.9-3.7,8-2.2,12.6.3,1,1.1,2.1.6,3.4-1.1.5-2.2-.2-2.4-.9-1.4-5.3-5.8-7.6-10-10-2.1-1.2-4.1-2.5-5.3-4.6-.5-.8-.5-1.9.2-2.7.8-.9,1.7-.6,2.4.2.3.4.6.8.9,1.1,5.8,4.9,8.8,4.4,13.1-2.1,1.3-2,2.7-3.9,4-5.9h0v.1Z" fill="#bebebe"/>
        <path d="M401.3,286.9c-7,6.2-14.4,11.5-23.1,15.2-6.2,2.6-12.3,5.2-18.5,7.9-.8-.7-2.2-1.1-1.3-2.6,14.8-5.5,28.9-12.5,41.5-22.1,1.4-.3,1.8.4,1.4,1.6h0Z" fill="#9d9d9d"/>
        <path d="M248.9,301.5c1.9.4,3.8.6,5.6,1.2,7.2,2.5,14.3,5.3,21.7,7.3,7.1,1.9,14.2,3.8,21.5,5-4.7,1.5-9.4,1.2-13.9-.1-9.8-3-19.5-6.2-29.3-9.3-2.4-.8-4.3-2-5.5-4.2h0l-.1.1Z" fill="#c8c8c8"/>
        <path d="M277.7,101.5c1.1-1.9,2.6-3.4,4.6-4.2,3.6,1.4,6.3.2,8.2-2.9,1.2-.4,2.3-.9,3.5-1.3,1.9,3,2.4,5.9-1.2,8-3,1.8-3.7,4.9-5.1,7.6-2.8,3.4,2.1,8.7-2.7,11.6-.1-3.8-.1-7.6-.5-11.4-.4-4.9-1.6-5.9-6.9-7.3h0l.1-.1Z" fill="#bbb"/>
        <path d="M427.2,245.4c1.6-.4,2.6-1.4,3-3,1.9-6.3,2.8-12.9,5.5-18.9,1.9-.1,1.6-4.2,4.5-2.5-.9,8.3-4.4,15.9-6.7,23.8-.5,1.6-1.3,3.1-.6,4.8-3.3,1.7-6.2,2.6-5.7-2.9v-1.2h0v-.1Z" fill="#a3a3a3"/>
        <path d="M358.4,307.4c.5.9.9,1.7,1.3,2.6-13.3,5-27,7.4-41.2,6.8,13.3-3.1,27.1-4.1,39.9-9.4h0Z" fill="#a6a6a6"/>
        <path d="M208.6,242.5c1.1.8,2.1,2,3.2,0,3.8,9,5.6,20.1,4.6,27.5-2.8-3.9-7.5-20.3-7.8-27.5h0Z" fill="#dedede"/>
        <path d="M256.3,271.1c-3.6,1.5-7.1,2.9-10.7,4.3,2.4-7.3.1-13.5-4.3-19.3-2.6-3.5-2.4-3.6-2.6-10,3.6,5.9,7.1,10.8,9.7,16.2,1.9,3.9,4.5,6.6,7.9,8.9h0v-.1Z" fill="#bebebe"/>
        <path d="M355.9,151.7c1.4-.8,2.9-1.1,3.8.4,4.1,6.9,11.2,10.7,16.4,16.5.2.4.3.8.5,1.2-.4,0-.9-.1-1.3-.2-7.5-3.8-14.7-8.1-21.3-13.3q0-4.1,2-4.5h0l-.1-.1Z" fill="#cbcbcb"/>
        <path d="M355.9,151.7c-1.4,1.2-.4,3.4-2,4.5-4.1-3.6-6.9-8.4-10.4-12.5-4.4-5.3-9.7-9.7-15.4-13.5.4-.4.9-.9,1.3-1.3,7.2,2.1,11.6,7.9,16.2,13.2,3.1,3.6,5.7,7.6,10.2,9.6h.1Z" fill="#a1a1a1"/>
        <path d="M427.2,246.6c1.1,2.6,3.2,3.1,5.7,2.9-3.3,6.4-6.2,13-12.1,19.6-.8-5.5,1.4-8.6,2.8-11.8,1.6-3.5,1.3-7.5,3.6-10.7h0Z" fill="#bdbdbd"/>
        <path d="M289,123.2c-.4.9-.9,1.8-1.3,2.7-4,3.2-5.6,8.3-9.2,11.8-.9.8-1.5,1.9-2.4,2.6-.8.6-1.9.4-2.6-.4-.6-.6-.4-1.4,0-2,1-1.3,2.2-2.5,3.2-3.9,3-4,6.3-7.9,8.3-12.5.8-.7,1.6-.7,2.5,0,.5.6,1,1.2,1.6,1.8h0l-.1-.1Z" fill="#bbb"/>
        <path d="M396.9,216.3c0-.5-.3-1.1-.1-1.4,4.3-8.9.4-16.6-3.4-24.4-.4-.9-.7-1.8-1.1-2.7.2-.1.4-.3.6-.4,5,5.1,6.6,11.9,8.8,18.3,1.5,4.3-.7,8.3-1.9,12.3-1.8.9-3.1.9-2.9-1.7h0Z" fill="#ababab"/>
        <path d="M392.4,187.8c-5.3-6.5-11.3-12.4-17.2-18.3.3-.3.5-.7.8-1,2.4,0,4.9,0,6.3,2.3,3.5,5.6,8.4,10.2,10.6,16.6-.1.2-.3.3-.6.4h.1Z" fill="#cbcbcb"/>
        <path d="M261.9,164.8c1.4,5-1.3,9.2-2.5,13.7-1.6,5.7-3.1,11.4-6.2,16.5h0c1.7-10.4,4.1-20.6,8.6-30.2h.1Z" fill="#ccc"/>
        <path d="M247.8,206.6c-1.1,3.4-2.5,6.8-4.6,9.7-2.7,3.7-4.9,7.6-4.5,12.5-4.3-1-3.8-3.5-2.3-5.9,3.5-5.7,7.2-11.2,10.9-16.8l.5.4h0v.1Z" fill="#b6b6b6"/>
        <path d="M440.2,220.9c-1.6.7-2.2,3.1-4.5,2.5.9-4.6-.7-9.8,3.1-14.9,1.2,4.7,1.4,8.5,1.4,12.4h0Z" fill="#9f9f9f"/>
        <path d="M401.3,286.9c-.5-.5-1-1.1-1.4-1.6,2.7-3.1,5.4-6.5,11.2-5.9-2.8,4.1-5.7,6.6-9.8,7.5h0Z" fill="#c1c1c1"/>
        <path d="M342.4,96v-1.6c6,1.2,11.8,2.6,17.4,5.1,1.1.6,1.1,1.2,0,1.8-5.9-1.4-12-2.4-17.4-5.3h0Z" fill="#a8a8a8"/>
        <path d="M392.8,239.6c1.4.9,2.8,1.8,4.2,2.7-2.5,1.7-4.3,4.6-8.3,5-.1-3.5,1.9-5.7,4.1-7.7h0Z" fill="#b2b2b2"/>
        <path d="M267.6,147.5c-1.5,5.9-2.8,11.9-5.7,17.3h0c.4-6.3,1-12.5,5.9-17.3h-.2Z" fill="#bbb"/>
        <path d="M378.3,106.1c-.5.4-1,.8-1.5,1.3-3.1-1.9-7.2-1.2-10-3.8-1.1-.7-1.1-1.2.1-1.7,3.9,1,7.9,2,11.4,4.2h0Z" fill="#939393"/>
        <path d="M398.5,231.1v1.7c-4.2-.6-3-3.6-2.7-6.2,1-.9,0-2.9,1.8-3.3,1,2.5.8,5.2.9,7.8h0Z" fill="#aeaeae"/>
        <path d="M287.5,121.4h-2.5v-1.3c2.5-3.5-.1-8.2,2.7-11.6-.1,4.3-.2,8.5-.3,12.8h0l.1.1Z" fill="#858585"/>
        <path d="M396.9,216.3c1,.6,1.9,1.1,2.9,1.7l-1,3.2c-1.4,0-2.2,1.3-3.5,1.6-.5-2.4-1.3-4.9,1.6-6.5h0Z" fill="#aeaeae"/>
        <path d="M247.3,206.2c.7-2.9,2.1-5.3,4.4-7.1.8.5.8,1.1.1,1.8-.5,2.5-2,4.3-4,5.7l-.5-.4h0Z" fill="#c9c9c9"/>
        <path d="M366.9,101.9c0,.6-.1,1.1-.1,1.7-2.3-.8-4.6-1.6-7-2.3v-1.8c2.5.4,5,.8,7.1,2.4h0Z" fill="#8e8e8e"/>
        <path d="M395.3,222.8c.9-1.2,1.7-2.4,3.5-1.6-.4.7-.8,1.4-1.2,2.1-.6,1.1-1.2,2.2-1.8,3.3-.2-1.2-.3-2.5-.5-3.8h0Z" fill="#ababab"/>
        <path d="M267.7,147.6c.1-1.5-.5-3.2,1.7-4,.7,1.9-.8,2.8-1.8,3.9h0l.1.1Z" fill="#bbb"/>
        <path d="M248.9,301.5c-.9-.1-1.9-.1-2.8-.3-.6-.2-1.4-.6-.8-1.4.1-.2.9,0,1.3.2.8.5,1.5,1.1,2.3,1.6h0v-.1Z" fill="#c8c8c8"/>
        <path d="M251.8,200.9c0-.6,0-1.2-.1-1.8,0-1.5.6-2.9,1.5-4.1h0c.1,2.1-.1,4.1-1.4,5.9h0Z" fill="#ccc"/>
        <path d="M290.5,94.3c-.4,2.8-2.3,4.6-4.3,6.5-2-.4-2.8-2.2-4-3.5,2.8-1,5.5-2,8.2-2.9h0l.1-.1Z" fill="#eee"/>
        <path d="M398.5,237.7c-.3.7-.8,1.1-1.5.8s-.9-1-.5-1.6c.2-.3.7-.6,1.1-.6.7,0,1,.7,1,1.4h-.1Z" fill="#fff"/>
      </g>
      <g mix-blend-mode="multiply">
        <path d="M132,199.9c-1.5,16.1-7.9,30.5-15.2,44.5-3.1,6-8,10.7-13.2,15-14.9,12.2-32.2,15.5-50.6,11.2-9.2-2.1-18.1-6-25.2-12.9-3.8-3.6-8-6.8-12-10.2-1.2-1.1-.7-2.5-.6-3.8,2.2-3.9-1.3-6.4-2.4-9.5-.3-4.4-2.3-9.4,4.4-10.9,4.8,1.8,3.7,6.7,5.1,10.2,6.5,15.3,15.4,20.8,32.2,19,1.9-.2,3.7-1,5.7-.8,1.5.4,2.8,1.3,3.6,2.7.3.7.4,1.5.3,2.3-.8,2.7-2.5,4.5-5.1,5.6-4.8,1.7-10.8.9-17.7-2.4,24.3,12.1,53.1,4.3,67.1-14.5,8.1-10.9,12.8-23.4,16.4-36.4,1.1-3.8-.2-9.1,5.1-11,1.3,0,1.8.9,2.1,1.9h0Z" fill="#777"/>
        <path d="M2.9,233.1c-3.2-9.9-3.4-19.9-2.3-30.1,3.1-28.8,10.4-56.9,14.4-85.6,1.9-13.7,3.9-27.5,6.6-41.1,3.8-19.8,13.1-36.9,25.3-52.5,5.6-7.2,13.8-11.8,22-15.7,4.2-2,8-5.5,13.2-5.2,2,.7,4.3-.4,6.1,1.4.2,4.6-3.5,4.2-6.3,5.1-13.7,4.5-26.9,9.8-34.4,23.4-2,2.9-2,7-5.4,9-11.5,16.7-15.3,36.1-18.1,55.5-3.7,25.8-8.2,51.5-13.2,77.2-3.4,17.7-6.5,35.5-2.9,53.7.3,1.4.3,2.9-.6,4.2-1.2,1.4-2.5,2.2-4.2.8h0l-.2-.1Z" fill="#6c6c6c"/>
        <path d="M88.1,4.4c-2.1-.2-4.2-.3-6-1.5,6.9-1.8,14.1-2.4,21.2-2.8,39.6-2.3,60.6,34.8,59.3,60.3-.9,18-5.9,34.7-10.2,51.8-.8.4-1.5.4-2.1-.2-2.3-2.8-.6-6-.7-9,1.6-8.5,4.4-16.7,5.6-25.2,2.4-17.3,2.7-34.2-8.5-49.5-11.9-16.2-28-22.3-47.4-21.2-3.9.2-8.2,1.8-11-2.6h0l-.2-.1Z" fill="#5f5f5f"/>
        <path d="M150.8,112.2h1.6c-2.1,5.8-4.4,11.6-6.4,17.5-.7,2.1-7.8,29-9.1,37.9-1.2,8.5-1.4,17.2-4.7,25.3-.8.4-1.6.3-2.4-.2-1-.9-1.6-2-1.8-3.3,1.5-14,5.8-27.6,6.9-41.7.2-2.5.8-4.8-.6-7.1-.6-1.1-1.2-2.3-1.1-3.6,1.2-3,1.7-6,1.7-9.3,0-12.1,2.6-24.1,1.3-36.3-.3-2.9,1.7-5.4,1.8-8.3v-2.5c-1.3-5.9,3.4-10.4,3.6-15.9,0-3.6-.4-7.5,4.1-9.1.9,0,1.6.2,2.3.7,1.4,1.4,2.8,2.9,2.9,5.1-2.1,10-3.1,20.3-5.1,30.4-2,9.8-1.2,19.9-2.2,29.8.4-2.5.5-5.2,2.2-7.3,1.5-1.2,2.8-2.6,5-1.9h0v-.2Z" fill="#777"/>
        <path d="M2.9,233.1c1-.5,1.9-.9,2.9-1.4,8.3.3,9.6,6.8,11.5,12.8l-1.5,3c-1.6-2-3.1-4.1-4.8-6.1-1.5-1.8-2.5-4-5.3-4.2-2.5-.2-2.6-2.3-2.8-4.2h0v.1Z" fill="#b7b7b7"/>
        <path d="M131.3,192.9h.9c.3,2.4.3,4.7-.2,7-.4-.6-.9-1.1-1.3-1.7-1.4-2-1.6-3.8.6-5.3h0Z" fill="#666"/>
        <path d="M17.3,244.5c-4.5-3.7-7.3-8.9-11.5-12.8-3.9-6.8-3.7-14.4-3.2-21.7,1-14.8,3.2-29.5,6.1-44,4.5-22.2,8.4-44.6,11.3-67.1,1.4-10.7,3.8-21.2,6.3-31.7,2-8.2,5.6-15.7,9.7-23.1,1.3-2.2,2.3-4.9,5.5-5,5,.2,7.4-3.2,10-6.7,8.5-11.9,20.2-20,34.8-16.7,13.7,3.1,27.4,7.9,38.8,16.9,3.7,2.9,7.5,5.8,10.9,9.2,6.6,6.5,11.1,13.4,8,23.2-1,5.4-2,10.8-3,16.2-5.2-2.7-4.6-8-5.1-12.5-1.5-12.2-9.1-21.8-20.2-24.4.5,3.6,3.2,5.1,5.3,7.2,5.7,5.9,4,16.8-3.2,20.5-4.7-1.5-6-6.1-7.4-9.7-3.4-8.4-9-15-14.9-21.5-5-5.5-17.7-8.3-23.9-4.4-6.2,3.8-13.4,7.9-12.2,17.5.5,3.7-2.1,6.7-3.7,9.8-1.1.8-2.3,1.2-3.4,2.1.9-.6,1.7-1.2,2.8-1.4,6,1.7,4.6,8.1,7.4,11.8,3.5,6.2,7.5,12,12.5,17.3,5.5,5.9,12.9,7.1,19.2,10.6,4.2,2.4,14.1-3.8,17.3-9.3,1.1-1.9,1.3-4.1,2.1-6.1,3.1-4.5.7-10.3,3.3-14.9,4.1-1.5,5.2,1.2,5.5,4.2.5,5.7,1.3,11.4,2.6,17,1.8,7.8-9.5,16.8-16.3,19.5-2.7,1-5.5,1.6-9.5,1.2,2.3,1.9,4.1,2.6,6,3.2,15.9,4.6,18.5,8.9,18.7,25.2.1,12-5,21-12.7,29.2-2,2.2-4.4,3.8-7.3,4.3-4.3.7-7.6,2.5-9.4,6.7-.8,1.9-2.7,2.5-4.8,2.4-4-.7-3.9-4.3-4.9-7.1-2.4-6.8-4.6-13.6-10.3-18.6-9-7.9-17.1-7.1-24.6,2.2-7.2,8.9-12.5,18.6-15.1,29.7-2,8.7-.5,16.6,5,23.7.6.8-.2-.1.5.5,2.7,2.9,2.5,8.3,7.1,9.4,5.2,1.2,9.7-2.1,14.3-3.8,2.4-.9,5-1.6,7.2-3.1,10.5-5.6,15.7-14.9,17.9-26.2.4-2.1-.1-4.4,1.7-6.1,15.9-1.9,24.5-12.1,31.3-25.7,3.8-7.6,3.4-15.2,4.7-22.9,1.2-7.1,4.3-13.8,4.7-21.4.3-7.9,1.3-15.6,0-23.5-.5-2.8.2-5.7,1.3-8.4,2.3-5.4,4.8-6.2,10.5-3.1-2.1,16.5-2.7,33.1-2.6,49.7,0,3.1-1.3,4.8-3.5,6.4,2,19-4.7,34.9-17.5,48.7-4.8,5.7-11.2,9.7-17,14.2-10.8,8.5-19.2,18.4-22.4,32.3-1.4,6.3-4.3,12.1-9.2,16.8-2.5,2.4-5.2,3.9-8.5,4.6-13.8,4.5-25.4-2.2-37.2-7.6-1.5-.7-1.8-2.1-1.9-3.6-.3-6.5-2.3-12.7-4.1-18.9-7-11.5-6.5-23.7-4-36.2,1.7-8.5,7.2-14.9,11.8-21.9,8-14.9,15.1-30,16.9-47.3,1.1-10.2,1.9-20.3,0-30.5,5.4-4.3,9.2-4,11.4,2.3,2.3,6.7,5.6,10.8,12.4,10.3-3.4-3.1-7.4-6.5-10.3-10.9-3.4-5.3-7.7-6.8-13.3-3.6-3.8-3.6-1.2-8.1-1.8-12.2-.5-2.6,1-5.2.7-7.3-1.3,9.1-.7,18.4,1.7,27.9,2.6,10.3.6,21.3-1.7,31.2-3.1,13.8-8,27.4-15.8,39.6-13.4,16.2-16.8,34.1-10.9,54.4,1.3,4.4.9,9.6,2.8,14.2.8,3.2,3,6.4.2,9.8h0l.1-.2Z" fill="#fff"/>
        <path d="M131.3,192.9c-.2,1.8-.4,3.6-.6,5.3-2.4,11-5.4,21.7-9.7,32.2-6,14.8-15.4,26.9-29.8,33.5-13.3,6-27.7,7.6-41.9,2.3-6.4-2.4-12.8-4.9-17.5-10.2,5.2.5,10.3,1.5,15,3.7,3.8,1.7,7.3,2.1,10.8-.6,1.9-1,4.2-1.1,5.6-2.9h0c7.7-8.6,12.5-18.5,15.4-29.8,1.9-7.3,5.9-14.5,13.5-18.2,7.9.7,11.7-5.3,16.2-10s9.8-8.7,13.7-14c1.7-2.2,3.4-4.2,6.5-3,3,1.1,3.1,3.8,3.1,6.5s0,1.9-.6,2.7c0,.9.2,1.7.3,2.6h0v-.1Z" fill="#fff"/>
        <path d="M91.5,209.9c-7.2,5.9-11.6,13.6-13.7,22.7-2.1,9.6-6.1,18-14.6,23.5-.9-.5-1.9-.9-2.8-1.4,9.1-7.1,13.8-16.4,16.5-27.7,2-8.5,7.5-16,14.5-21.7,7.9-6.5,16.3-12.6,23.8-19.6,1.3-.4,2,.4,2.4,1.5-6.7,9.9-14.3,18.7-26.1,22.7h0Z" fill="#8b8b8b"/>
        <path d="M17.1,234.7c-3.1-4.2-4.3-9.1-4.9-14.1-1.1-9.2-2.8-18.4-1.3-27.9,1.6-10.7,6.8-19.2,13.6-27.2.9.1,1.5.7,1.6,1.6-7.8,10.2-13.4,21.2-13.1,34.5.1,5.7.7,11.4,3.1,16.7.9,2,.9,4.1,1,6.3-2,.9-1.4,2.6-1.1,4.1.4,2,.7,4,1.1,6h0Z" fill="#a9a9a9"/>
        <path d="M63.2,256.1c-1.3,2-3.1,3.2-5.6,2.9,1.6-1.5,3.5-2.4,5.6-2.9Z" fill="#8b8b8b"/>
        <path d="M148.3,115.5c-1.9,5.3-3.8,10.7-5.7,16h-1.2c-.1-1.7-.4-3.5-.4-5.2-.9-21.7,2.1-42.9,6.1-64.1.6-2,.9-4-.2-6h0c-11.7-18.5-28.2-30.4-49.2-36.2-1.1-.3-2.2-.7-3.3-1.1-14.6-6-29.8-1.9-39,10.7-1.5,2.1-3.1,4.2-4.8,6.2-1.3,1.5-3,2.6-5,1.5-2.3-1.3-2.3-3.3-.8-5.4,3.6-6.7,9-11.5,15.3-15.5,8.7-5.4,17.8-9.9,28-11.8,2.6-.1,5.3,0,7.8-.4,15.1-2.4,29.3.3,41.4,9.6,13.9,10.7,21.8,24.9,22.6,42.9.7,16.3-2.6,31.8-7.7,47.1-4,3.1-2.6,7.9-3.9,11.8h0v-.1Z" fill="#fefefe"/>
        <path d="M44.7,31.7c.3,1.4.2,3,2,3.5,1.3.4,2.4-.3,3.2-1.2,1.3-1.4,2.6-2.8,3.6-4.5,6.1-10.3,16.9-12.8,27-16.2.8-.3,1.9-.2,2.8,0,21.3,5.1,41.2,12.9,56.3,29.6,3.3,3.7,7,7.4,7.2,12.9-2.2,2.5-.6,6.3-2.7,8.8,1.1-8.2-2.7-14.3-8-19.9-9.4-10-20.7-17-33.5-21.6-4.1-1.4-8.1-2.9-12.2-4.4-6.9-2.5-13.4-2.1-20.2,1-7.2,3.4-13,7.9-17.2,14.6-1.7,2.7-3.8,4.9-7.1,5.7-1.8.5-3.3.2-4.5-1.3-.2-3,1-5.3,3.1-7.3h0l.2.3Z" fill="#b5b5b5"/>
        <path d="M148.3,115.5c-1.7-8-1.4-8.9,3.9-11.8-.5,2.9-1,5.7-1.4,8.6-.8,1.1-1.6,2.2-2.4,3.2h-.1Z" fill="#fdfdfd"/>
        <path d="M140.9,82c-6.6,1.7-9.6,4.7-8.2,11,2.5,11.8-1,23.3-.4,35,.1,2.5-.7,4.7-2.4,6.6-3.2,3.6-3.8,7.4-1.7,11.9,2.2,4.6,1.9,8.8-3.1,11.8-.9.6-2,1.8-2.1,2.8-.4,6.1-6.5,9.5-7,15.5,0,.2-.1.5-.3.7-6.3,5.9-13.6,10.3-21.6,13.4-2.5,1-3.6-1.8-4.7-3.5-.4-.3-.5-.6-.4-.9,0-.3.2-.5.3-.5,2.1-1.6,2.6-3.9,2.9-6.3.4-3.5,2.5-4.9,5.8-5.1,9.8-.5,14.8-6.5,19-14.9,3.1-6.3,4.2-12.5,4.2-19.2s-5.3-16-14.5-17.5c-4.2-.7-7.9-1.3-10.5-5.1-1.7-2.5-5-2.3-7.7-2.9.5-2.7,2.2-1.8,3.5-1.8,4.5-.1,9-.7,13.5-1.4,6.4-1.1,10.1-6,14.4-10,1.4-1.3,1.8-3.4,1.6-5.4-1-7.6-2.1-15.1-3.1-22.6-1.1-.7-1.1-1.6-.4-2.7.8-1.8,1.8-3.4,2.2-5.3,1.2-5.1,1.5-10-3.7-13.5-1.7-1.2-3-3.1-4.5-4.6-1.8-1.8-2.6-4-2.5-6.5,0-1.8-.5-4.1,1.8-5,1.8-.7,3.2.6,4.4,1.8,2.2,2.4,4.9,3.7,8.1,4.2,1.7.3,3.2,1.2,4.3,2.5,5.6,6.8,10.3,14.1,11.6,23.1.6,4.5,1.1,9,1.6,13.5,0,.4,0,.7-.2,1h0l-.2-.1Z" fill="#fff"/>
        <path d="M91.5,209.9c5.8-4.9,11.6-9.6,17.3-14.6,2.8-2.5,5.8-4.9,7.9-8.1,1.2-4.4,5.2-6.8,7.2-10.6,4.5-8.9,9-17.8,7.9-28.4-.4-3.6-.2-7.8,4.9-8.7,1.8,2.3,1.6,5.1,1.1,7.6-2.9,13.4-3.6,27-5.9,40.5-.2.9-.5,1.8-.8,2.7-.1-1.2,0-2.4-.5-3.5-1.4-3.7-3.5-4.4-6.3-1.6-5.7,5.7-11.5,11.3-16.7,17.5-4.4,5.2-9.2,8.1-16.1,7.3h0v-.1Z" fill="#fdfdfd"/>
        <path d="M136.7,139.5c-3.6,2.8-4.3,6.6-4.3,10.8.2,14.6-5.2,26.9-15.8,36.9l-1.5-1.5c2.4-4.2,6.4-7.1,8.6-11.5,4.2-8.4,8.1-16.8,7.3-26.6-.3-3.6.2-7.3,3.8-9.5.6.5,1.2.9,1.9,1.4h0Z" fill="#a1a1a1"/>
        <path d="M146.9,56.1c1.2,2,1.2,3.9.2,6,0-2-.1-4-.2-6Z" fill="#b5b5b5"/>
        <path d="M45.9,248.9c-6.5,1-12.6-.1-15.3-6.5-3.5-8.2-9.9-15.6-7.8-25.8,1.1-5.4-1.3-10.1-5.2-14.2-4.2-4.4-4-6.9.5-10.8,2.7-2.3,4.7-4.6,5.3-8.1.2-1.4,1.2-2.9,3-2.2s1.6,2.4.7,3.5c-2.9,3.6-2.7,8.1-3.6,12.2-1,4.4-.7,8.6,3.5,11.5,2,1.4,2.5,3.3,2.2,5.6-.5,4.9,1.5,8.8,4.9,12.2,3.1,3,6.2,5.8,6.1,10.8,0,3.3,3.2,3.6,5.4,2.6,5.4-2.5,11.7-2.7,16.7-6.2.8-.5,1.7-.9,2.6-1.2,1.2-.4,2.4,0,3.1,1.1.7,1.2.5,2.6-.5,3.2-4.5,2.9-7.5,7.3-11.2,10.9-2.7,2.6-6.9,1-10.4,1.2h0v.2Z" fill="#fff"/>
        <path d="M103.5,149.6c-.1,6-3.4,8.6-8.4,6.2-4.5-2.1-9.4-3.6-13.5-6-4.9-2.9-9.2-7.7-11.8-13.1-1.7-3.4-2.7-7.1-5.7-9.7-.9-.8-1.5-2.1-.7-3.2.9-1.4,2.5-1.4,3.8-.9s2.7,1.2,3.7,2.1c7.1,7,15.9,11.3,24.8,15.3,1.5.7,2.9,1.7,4.3,2.5,2.9,1.6,3.8,4.1,3.6,6.8h-.1Z" fill="#fff"/>
        <path d="M110,161.6c-2.2,3.4-4.7,5.2-8.4,5-3.1-.1-6.2-.4-9.1-1.7-9.4-4.4-17.8-10.1-24.9-17.8-6.9-7.5-12.9-15.4-16.2-25.1-.8-2.4-1.2-4.6-.2-6.9,1.9-4.4,4.2-5.8,9-5.3,4.1.5,7.8,2.1,11.4,4.2,9.1,5.3,18.1,10.8,28.9,12.4,3.3.5,6.2,2.6,9,4.4,4.3,2.9,6.5,7.1,5.6,12.3-.8,4.5-1.2,9.3-5.1,13.9-.6-4.1,1-6.7,1.6-9.4,2.7-11.2-2.8-15.6-12.5-17.5-.6-.1-1.9,0-1.9.2-1.8,6.7-4.8,1.5-6.4.3-6.5-4.9-14.1-8.2-20-14-2.3-2.2-5.6-2.7-8.7-3.1-6.9-.9-9.6,2.1-7.7,8.6,1.1,3.7,2.8,7.2,4.9,10.4,8.1,11.9,17.9,21.8,31.1,28,7.6,3.6,10.9,3.8,19.6,1.1h0Z" fill="#b7b7b7"/>
        <path d="M89.3,185.7c0,.5,0,1,.1,1.4-.1,2.4-.3,4.7-.4,7-4,.3-5.3-2.3-5.9-5.6-1.1-9-4-17.2-10.6-23.7-6.9-6.8-13.3-7-19.8,0-11.6,12.3-17.5,26.7-13.2,43.9,3.2,12.4,10,15.7,21.9,11.1,2.6-1,5.1-3.1,8.1-1,.9.8,1.4,1.6.9,2.8-4.4,2.9-9.4,4.8-14.3,6.7-6.7,2.5-10.4,1.1-14.9-4-11-12.8-11.8-27-6.2-42.3,3.2-9,8.5-16.5,14.8-23.4,7.5-8.2,16.9-8.3,25.3-.9,6.8,5.9,10.4,13.6,12.7,22,.6,2.1,1.1,4.2,1.6,6.2h0l-.1-.2Z" fill="#848484"/>
        <path d="M43.1,86.6c.2-.7.3-1.4.7-2,4.4-7.6,6.2-7.8,11.2-.6,4.3,6.1,9.3,11.4,14.6,16.6,2,2,4.4,3.6,5.9,7.3-5.7-2.8-11.1-3.6-16.7-3.2-4.5.3-5.7-.9-6.8-5.5-.3-1.2-.3-2.4-.5-3.5-1-4.3-3.2-7.4-8-7.8-.4-.2-.6-.4-.5-.7,0-.3,0-.5.2-.5h0l-.1-.1Z" fill="#fff"/>
        <path d="M117.9,70.7c.2.9.3,1.8.4,2.7-.3,5.8,1.3,11.8-1.9,17.2-.7.5-1.4.6-2.2.2-1.4-.9-2-2.3-2.2-3.9-.5-4.2-.1-8.4-.5-12.6-1.8-13.7-9.9-23.8-19.7-32.2-10.8-9.3-25.1-4.2-29.5,9.6-1.8,5.7-1.3,11.3.6,16.9.9,2.6,2.7,5.3.6,8.1-.8.8-1.7,1.3-2.8.8-3.5-3.7-3.2-9.1-5.8-13.1-.5-.2-.7-.4-.5-.7.1-.3.3-.4.4-.4.4-3.1.8-6.1,1.1-9.2,1.1-10.4,6.1-18,16.1-21.5,9.9-3.5,18.8-.9,26.2,6.4,9,9,16.1,19.4,19.8,31.8h0l-.1-.1Z" fill="#7e7e7e"/>
        <path d="M43.1,86.6c0,.4.2.8.3,1.2,3.2,12.4.1,24.7-.4,37.1-.1,2.8-1.1,5.6-2.1,8.3-3.3,9-6.8,17.9-10.2,26.8-1,2.7-2.7,5.1-4.6,7.2-.5-.5-1.1-1.1-1.6-1.6,6.3-11.9,12.1-24.2,14.8-37.2,2.6-12.9,4.5-26.2.7-39.7-3-10.5-.7-21.2,2.2-31.6.1,9.9-2,19.8.9,29.5h0Z" fill="#8f8f8f"/>
        <path d="M53.5,144.4c0,2.9-6.3,11.3-9.1,12.2-1.3.4-2.6.1-3-1.1-1.3-3.4-2.7-6.9,0-10.2,2.3-2.9,4.2-5.8,4.9-9.4.3-1.5,1.2-2.7,2.9-2.6,1.5,0,2.8.9,3.1,2.5.5,2.8.9,5.7,1.3,8.6h-.1Z" fill="#fff"/>
        <path d="M114.5,90.7h2c-1.8,6.3-5.9,10.8-11.7,13.8-4.2,2.2-8.5,2.3-13.1.9-14.7-4.5-24.3-14.5-31-27.8.4-.4.9-.9,1.3-1.3,3.7-1.7,5.2,1.4,6.9,3.5,4.3,5.2,8.5,10.4,14.1,14.3,10,7.2,17.2,6.8,26-1.6,1.7-1.6,3.2-2.9,5.6-1.8h-.1Z" fill="#a3a3a3"/>
        <path d="M86.4,187.1c.9,2.4,1.7,4.7,2.6,7.1-1,12.7-7.8,21.4-18.7,27.3-.5-.4-.9-.9-1.4-1.3-1.5-3.2.9-5,2.8-6.6,6.7-5.7,10.9-12.5,11.3-21.6,0-2.2.7-4.3,3.4-4.9h0Z" fill="#a4a4a4"/>
        <path d="M54.7,63.3c.1.4.2.7,0,1.1-.7,3.1-3.2,4.6-5.3,6.5-1.7,1.5-3.4,1.7-4.9-.2-1.7-2.1-1.3-4.8,1-6.2,2.8-1.7,6-1.2,9.1-1.3h0l.1.1Z" fill="#fff"/>
        <path d="M92.6,27c-.2,0-.5.2-.6.2-.2,0-.4-.4-.4-.5,0-.7.4-.8.9-.3.1.1,0,.4,0,.7h0l.1-.1Z" fill="#fff"/>
        <path d="M86.4,187.1c.6,8.5-.4,16.7-6.3,23.3-3.3,3.7-7.4,6.5-11.2,9.8-3.3,1.4-6.6,2.8-9.9,4.2-8.4,3.3-14.9,1.2-19.6-6.6-6.5-10.8-6.6-22.2-2.5-33.9,3.1-8.7,7.7-16.4,14.3-23,6.5-6.5,13-7,20.5-1.4,9.2,7,13.6,16.5,14.8,27.7h0l-.1-.1Z" fill="#fff"/>
        <path d="M114.5,90.7c-.7.9-1.5,1.8-2.1,2.8-6.2,10.4-14.7,12.4-27.7,5.9-7.8-3.9-13.4-10.5-18.5-17.5-1.4-1.9-2.8-3.8-4.2-5.8-4-8.2-5.7-16.7-3-25.6,2.2-7.6,6.7-13,14.3-15.7,8.4-3,15.6-.4,21.8,5,6.9,6,12.1,13.4,16.5,21.3,2.1,3.8,2.6,8.2,3.9,12.2.7,4.3.6,8.6,0,12.9-.3,1.4-.7,2.9-1,4.3v.2Z" fill="#fff"/>
        <path d="M115.5,86.3v-12.9c1.6,4.3,1.6,8.6,0,12.9Z" fill="#a3a3a3"/>
        <path d="M52.7,212.4c.4-3.9,5.3-5,4.5-8.8-.7-3.3-1.7-6.5-2.4-9.7-.5-2.3-.9-4.7-1.2-7.1-.1-1,.4-1.9,1.4-2.2,1.1-.4,1.9.3,2.3,1.2,3.1,7.5,4.3,15.2,1.7,23.1-.9,2.7-3,4-6.4,3.6l.1-.1Z" fill="#a7a7a7"/>
        <path d="M91.8,85.3c-1.4-1.3-2-1.6-2.1-1.9-1-8.4-3.9-15.7-11.4-20.5-.8-.5-1.3-1.6-.8-2.5.9-1.5,2.2-.7,3.1,0,8.3,5.9,11.7,14,11.2,25v-.1Z" fill="#a0a0a0"/>
      </g>
      <line x1="407" y1="177.1" x2="478.9" y2="177.1" fill="none" stroke="#fff" stroke-miterlimit="10"/>
      <line x1="407" y1="176.1" x2="478.9" y2="176.1" fill="none" stroke="#000" stroke-miterlimit="10"/>
      <line x1="132.4" y1="22.2" x2="194.4" y2="22.2" fill="none" stroke="#fff" stroke-miterlimit="10"/>
      <line x1="132.4" y1="21.2" x2="194.4" y2="21.2" fill="none" stroke="#000" stroke-miterlimit="10"/>
      <g isolation="isolate">
        <g isolation="isolate">
          <g isolation="isolate">
            <path d="M463.4,348.2h-1.1v-6.7c-.3.2-.6.5-1,.7s-.8.4-1.1.5v-1c.6-.3,1.1-.6,1.5-1s.8-.8.9-1.1h.7v8.6h.1Z"/>
            <path d="M466.1,344c0-1,.1-1.8.3-2.5s.5-1.1.9-1.4.9-.5,1.6-.5.9,0,1.2.3.6.5.9.8.4.8.5,1.3.2,1.2.2,2-.1,1.8-.3,2.4-.5,1.1-.9,1.4-.9.5-1.6.5-1.5-.3-2-.9c-.6-.7-.9-1.9-.9-3.5h0l.1.1ZM467.2,344c0,1.4.2,2.3.5,2.8s.7.7,1.2.7.9-.2,1.2-.7.5-1.4.5-2.8-.2-2.4-.5-2.8-.7-.7-1.2-.7-.9.2-1.2.6c-.4.5-.5,1.5-.5,2.9h0Z"/>
            <path d="M481.6,342v6.2h-.9v-.7c-.2.3-.4.5-.6.6-.3.2-.6.2-1,.2s-.6,0-.9-.2c-.2,0-.4-.3-.6-.6v3h-1v-8.6h1v2.6c0,1,0,1.6.2,1.9s.3.5.5.7.5.2.8.2.6,0,.8-.3.4-.4.5-.7.2-.9.2-1.8v-2.7h1v.2Z"/>
            <path d="M483.3,348.2v-6.2h.9v.9c.2-.3.5-.5.8-.7s.7-.3,1.1-.3.8,0,1.1.3.5.5.6.8c.5-.7,1.1-1.1,1.9-1.1s1.1.2,1.4.5.5.9.5,1.6v4.3h-1v-3.9c0-.4,0-.7-.1-.9s-.2-.3-.4-.4-.4-.2-.6-.2c-.4,0-.8.1-1.1.4s-.4.8-.4,1.4v3.6h-1.1v-4c0-.5,0-.8-.3-1.1s-.5-.4-.8-.4-.6,0-.8.2-.4.4-.5.7-.2.7-.2,1.3v3.2h-1.1.1Z"/>
          </g>
        </g>
      </g>
      <line x1="539.2" y1="310.5" x2="539.2" y2="331.2" fill="none" stroke="#000" stroke-miterlimit="10" stroke-width="1.5"/>
      <line x1="425.3" y1="310.5" x2="425.3" y2="331.2" fill="none" stroke="#000" stroke-miterlimit="10" stroke-width="1.5"/>
      <line x1="424.9" y1="320.9" x2="538.9" y2="320.9" fill="none" stroke="#000" stroke-miterlimit="10" stroke-width="1.5"/>
      <g>
        <path d="M493.9,180.2h-3.6v-11.6h3.8c1.1,0,2.1.2,2.9.7s1.4,1.1,1.9,2c.4.9.6,1.9.6,3.1s-.2,2.2-.6,3.1c-.4.9-1.1,1.5-1.9,2s-1.8.7-3,.7h-.1ZM491.8,178.9h2.1c1,0,1.8-.2,2.4-.6s1.1-.9,1.4-1.6.5-1.5.5-2.4-.1-1.8-.5-2.4-.8-1.2-1.4-1.6c-.6-.4-1.4-.6-2.3-.6h-2.2v9.1h0v.1Z"/>
        <path d="M505.3,180.4c-.8,0-1.6-.2-2.2-.6-.6-.4-1.1-.9-1.4-1.6-.3-.7-.5-1.5-.5-2.4s.2-1.7.5-2.4.8-1.2,1.4-1.6,1.3-.6,2.1-.6.9,0,1.4.2.9.4,1.2.7c.4.3.6.8.9,1.3s.3,1.2.3,2.1v.6h-6.7v-1.2h5.4c0-.5-.1-.9-.3-1.3-.2-.4-.5-.7-.8-.9s-.8-.3-1.3-.3-1,.1-1.4.4c-.4.3-.7.6-.9,1-.2.4-.3.9-.3,1.4v.8c0,.7.1,1.2.3,1.7.2.5.5.8,1,1,.4.2.9.4,1.4.4s.7,0,1-.1.5-.2.7-.5c.2-.2.4-.5.5-.8l1.3.4c-.1.4-.4.8-.7,1.2-.3.3-.7.6-1.2.8s-1,.3-1.6.3h-.1Z"/>
        <path d="M517.2,173.4l-1.2.3c0-.2-.2-.4-.3-.6-.2-.2-.3-.4-.6-.5s-.6-.2-1-.2-1,.1-1.3.4-.5.6-.5.9.1.6.4.8c.2.2.6.4,1.1.5l1.3.3c.8.2,1.4.5,1.7.9s.6.9.6,1.5-.1.9-.4,1.3-.7.7-1.2.9-1.1.3-1.8.3-1.6-.2-2.2-.6-1-.9-1.1-1.7l1.3-.3c.1.5.3.8.7,1.1.3.2.8.4,1.3.4s1.1-.1,1.5-.4c.4-.3.5-.6.5-1s-.1-.6-.3-.8-.5-.4-1-.5l-1.5-.3c-.8-.2-1.4-.5-1.8-.9s-.6-.9-.6-1.5.1-.9.4-1.3.7-.7,1.1-.9c.5-.2,1-.3,1.7-.3s1.5.2,2,.6.8.9,1,1.5h0l.2.1Z"/>
        <path d="M522.9,180.4c-.8,0-1.5-.2-2.1-.6-.6-.4-1-.9-1.4-1.6s-.5-1.4-.5-2.3.2-1.7.5-2.4.8-1.2,1.4-1.6c.6-.4,1.3-.6,2.1-.6s1.2.1,1.7.3.9.6,1.2.9c.3.4.5.9.6,1.4h-1.3c0-.4-.3-.8-.7-1.1s-.8-.5-1.4-.5-1,.1-1.4.4-.7.6-.9,1.1-.3,1.1-.3,1.7.1,1.3.3,1.8.5.9.9,1.2.8.4,1.4.4.7,0,1-.2c.3-.1.5-.3.7-.5s.3-.5.4-.8h1.3c0,.5-.3,1-.6,1.4s-.7.7-1.2,1c-.5.2-1,.4-1.7.4h0v.2Z"/>
        <path d="M531.9,180.4c-.8,0-1.6-.2-2.2-.6-.6-.4-1.1-.9-1.4-1.6-.3-.7-.5-1.5-.5-2.4s.2-1.7.5-2.4.8-1.2,1.4-1.6,1.3-.6,2.1-.6.9,0,1.3.2.8.4,1.2.7.7.8.9,1.3.3,1.2.3,2.1v.6h-6.7v-1.2h5.4c0-.5,0-.9-.3-1.3-.2-.4-.5-.7-.8-.9-.4-.2-.8-.3-1.3-.3s-1,.1-1.4.4c-.4.3-.7.6-.9,1s-.3.9-.3,1.4v.8c0,.7.1,1.2.3,1.7s.5.8,1,1c.4.2.9.4,1.4.4s.7,0,1-.1.5-.2.7-.5c.2-.2.4-.5.5-.8l1.3.4c-.1.4-.4.8-.7,1.2-.3.3-.7.6-1.2.8s-1,.3-1.6.3h0Z"/>
        <path d="M538.9,174.9v5.2h-1.3v-8.7h1.3v1.4h.1c.2-.4.5-.8.9-1.1s1-.4,1.6-.4,1.1.1,1.5.4.8.6,1,1.1.4,1.1.4,1.8v5.6h-1.3v-5.4c0-.7-.2-1.2-.5-1.6-.4-.4-.8-.6-1.5-.6s-.8,0-1.1.3-.6.5-.8.8c-.2.4-.3.8-.3,1.3h0v-.1Z"/>
        <path d="M550.3,180.4c-.7,0-1.4-.2-1.9-.6s-1-.9-1.3-1.6-.5-1.5-.5-2.4.2-1.7.5-2.4.8-1.2,1.3-1.6,1.2-.6,1.9-.6,1,0,1.3.3c.3.2.6.4.8.6s.3.4.4.6h.1v-4.3h1.3v11.6h-1.3v-1.3h-.2c0,.2-.2.4-.4.6s-.4.4-.8.6-.8.3-1.3.3h0l.1.2ZM550.4,179.2c.5,0,1-.1,1.4-.4s.7-.7.8-1.2.3-1.1.3-1.7,0-1.2-.3-1.7-.5-.9-.8-1.1-.8-.4-1.4-.4-1,.1-1.4.4c-.4.3-.7.7-.8,1.2s-.3,1.1-.3,1.7,0,1.2.3,1.7c.2.5.5.9.8,1.2.4.3.8.4,1.4.4h0v-.1Z"/>
        <path d="M557.6,170c-.3,0-.5,0-.7-.3-.2-.2-.3-.4-.3-.6s0-.5.3-.6.4-.3.7-.3.5,0,.7.3c.2.2.3.4.3.6s0,.5-.3.6-.4.3-.7.3ZM556.9,180.2v-8.7h1.3v8.7h-1.3Z"/>
        <path d="M562,174.9v5.2h-1.3v-8.7h1.3v1.4h.1c.2-.4.5-.8.9-1.1s1-.4,1.6-.4,1.1.1,1.5.4.8.6,1,1.1.4,1.1.4,1.8v5.6h-1.3v-5.4c0-.7-.2-1.2-.5-1.6-.4-.4-.8-.6-1.5-.6s-.8,0-1.1.3-.6.5-.8.8c-.2.4-.3.8-.3,1.3h0v-.1Z"/>
        <path d="M573.6,183.6c-.7,0-1.2,0-1.7-.2s-.8-.4-1.2-.6c-.3-.3-.5-.6-.7-.9l1.1-.8c.1.2.3.3.5.6s.4.4.8.5.8.2,1.3.2,1.3-.2,1.7-.5.7-.9.7-1.6v-1.8h-.1c0,.2-.2.4-.4.6-.2.2-.4.4-.8.6-.3.2-.8.3-1.4.3s-1.3-.2-1.9-.5c-.6-.3-1-.8-1.3-1.4s-.5-1.4-.5-2.3.2-1.7.5-2.3.8-1.2,1.3-1.6c.6-.4,1.2-.6,1.9-.6s1,0,1.4.3.6.4.8.6.3.4.4.6h.1v-1.4h1.3v9c0,.8-.2,1.4-.5,1.8s-.8.8-1.4,1-1.2.3-1.9.3h0v.1ZM573.5,178.9c.5,0,1-.1,1.4-.4s.7-.6.8-1.1c.2-.5.3-1,.3-1.7s0-1.2-.3-1.7c-.2-.5-.5-.9-.8-1.1-.4-.3-.8-.4-1.4-.4s-1,.1-1.4.4-.7.7-.8,1.2-.3,1-.3,1.6,0,1.1.3,1.6.5.8.8,1.1c.4.3.8.4,1.4.4h0v.1Z"/>
        <path d="M494,190.7v1.1h-4.5v-1.1h4.5ZM490.8,188.6h1.3v8.3c0,.4,0,.7.2.9s.3.3.4.4.4,0,.6,0h.6l.3,1.2s-.2,0-.4.1-.4,0-.6,0c-.4,0-.8,0-1.1-.2s-.7-.4-.9-.7-.4-.8-.4-1.3v-8.7h0Z"/>
        <path d="M497.3,194.1v5.2h-1.3v-11.6h1.3v4.3h.1c.2-.4.5-.8.9-1.1s1-.4,1.6-.4,1.1.1,1.6.4c.5.2.8.6,1,1.1s.4,1.1.4,1.9v5.6h-1.3v-5.4c0-.7-.2-1.2-.5-1.6s-.9-.6-1.5-.6-.8,0-1.2.3-.6.5-.8.8c-.2.4-.3.8-.3,1.3h0v-.2Z"/>
        <path d="M506.1,189.2c-.3,0-.5,0-.7-.3-.2-.2-.3-.4-.3-.6s0-.5.3-.6.4-.3.7-.3.5,0,.7.3c.2.2.3.4.3.6s0,.5-.3.6-.4.3-.7.3ZM505.4,199.4v-8.7h1.3v8.7h-1.3Z"/>
        <path d="M510.6,194.1v5.2h-1.3v-8.7h1.3v1.4h.1c.2-.4.5-.8.9-1.1s1-.4,1.6-.4,1.1.1,1.5.4.8.6,1,1.1.4,1.1.4,1.8v5.6h-1.3v-5.4c0-.7-.2-1.2-.5-1.6-.4-.4-.8-.6-1.5-.6s-.8,0-1.1.3-.6.5-.8.8c-.2.4-.3.8-.3,1.3h0v-.1Z"/>
        <path d="M524.4,187.8v11.6h-1.3v-11.6h1.3Z"/>
        <path d="M527.6,189.2c-.3,0-.5,0-.7-.3-.2-.2-.3-.4-.3-.6s0-.5.3-.6.4-.3.7-.3.5,0,.7.3c.2.2.3.4.3.6s0,.5-.3.6-.4.3-.7.3ZM526.9,199.4v-8.7h1.3v8.7h-1.3Z"/>
        <path d="M530.7,199.4v-8.7h1.3v1.4h.1c.2-.5.5-.8.9-1.1s.9-.4,1.5-.4,1.1.1,1.4.4.7.6.9,1.1h0c.2-.4.6-.8,1-1.1.5-.3,1-.4,1.6-.4s1.4.2,1.9.7.7,1.2.7,2.3v5.8h-1.3v-5.8c0-.6-.2-1.1-.5-1.4-.3-.3-.8-.4-1.2-.4s-1.1.2-1.4.6c-.3.4-.5.8-.5,1.4v5.7h-1.4v-6c0-.5-.2-.9-.5-1.2s-.7-.5-1.2-.5-.7,0-1,.3-.5.4-.7.8c-.2.3-.3.7-.3,1.1v5.4h-1.3Z"/>
        <path d="M544.8,199.4v-11.6h1.3v4.3h.1c0-.1.2-.4.4-.6.2-.2.4-.4.8-.6s.8-.3,1.3-.3,1.4.2,1.9.6c.6.4,1,.9,1.3,1.6s.5,1.5.5,2.4-.2,1.7-.5,2.4-.8,1.2-1.3,1.6-1.2.6-1.9.6-1,0-1.3-.3c-.3-.2-.6-.4-.8-.6-.2-.2-.3-.4-.4-.6h-.2v1.3h-1.3l.1-.2ZM546.1,195c0,.7,0,1.2.3,1.7s.5.9.8,1.2.8.4,1.4.4,1-.1,1.4-.4c.4-.3.7-.7.8-1.2.2-.5.3-1.1.3-1.7s0-1.2-.3-1.7-.5-.9-.8-1.2-.8-.4-1.4-.4-1,.1-1.4.4c-.4.3-.7.7-.8,1.1-.2.5-.3,1.1-.3,1.7h0v.1Z"/>
        <path d="M562.6,199.6c-.8,0-1.5-.2-2.1-.6-.6-.4-1-.9-1.4-1.6s-.5-1.4-.5-2.3.2-1.7.5-2.4.8-1.2,1.4-1.6c.6-.4,1.3-.6,2.1-.6s1.2.1,1.7.3.9.6,1.2.9c.3.4.5.9.6,1.4h-1.3c0-.4-.3-.8-.7-1.1s-.8-.5-1.4-.5-1,.1-1.4.4-.7.6-.9,1.1-.3,1.1-.3,1.7.1,1.3.3,1.8.5.9.9,1.2.8.4,1.4.4.7,0,1-.2.5-.3.7-.5.3-.5.4-.8h1.3c0,.5-.3,1-.6,1.4s-.7.7-1.2,1c-.5.2-1,.4-1.7.4h0v.2Z"/>
        <path d="M571.6,199.6c-.8,0-1.6-.2-2.2-.6-.6-.4-1.1-.9-1.4-1.6-.3-.7-.5-1.5-.5-2.4s.2-1.7.5-2.4.8-1.2,1.4-1.6,1.3-.6,2.1-.6.9,0,1.3.2c.4.1.8.4,1.2.7s.7.8.9,1.3.3,1.2.3,2.1v.6h-6.7v-1.2h5.4c0-.5,0-.9-.3-1.3-.2-.4-.5-.7-.8-.9-.4-.2-.8-.3-1.3-.3s-1,.1-1.4.4c-.4.3-.7.6-.9,1s-.3.9-.3,1.4v.8c0,.7.1,1.2.3,1.7s.5.8,1,1c.4.2.9.4,1.4.4s.7,0,1-.1.5-.2.7-.5c.2-.2.4-.5.5-.8l1.3.4c-.1.4-.4.8-.7,1.2-.3.3-.7.6-1.2.8s-1,.3-1.6.3h0Z"/>
        <path d="M578.6,187.8v11.6h-1.3v-11.6h1.3Z"/>
        <path d="M582.4,187.8v11.6h-1.3v-11.6h1.3Z"/>
      </g>
      <g>
        <path d="M306.9,16.5l-3.2,8.7h-1.4l-3.2-8.7h1.5l2.4,7h0l2.4-7h1.5Z"/>
        <path d="M311.2,25.4c-.5,0-1-.1-1.5-.3-.5-.2-.8-.5-1.1-.9s-.4-.9-.4-1.5.1-.9.3-1.2c.2-.3.5-.6.8-.7.3-.2.7-.3,1.1-.4s.8-.2,1.2-.2c.5,0,1-.1,1.3-.2.3,0,.6-.1.7-.2.1,0,.2-.2.2-.5h0c0-.6-.1-1-.5-1.4-.3-.3-.8-.5-1.4-.5s-1.1.1-1.5.4-.6.6-.8.9l-1.3-.5c.2-.5.5-.9.9-1.2s.8-.5,1.2-.6c.5-.1.9-.2,1.3-.2s.6,0,1,.1.7.2,1.1.4c.3.2.6.5.9.9.2.4.3,1,.3,1.7v5.8h-1.3v-1.2h0c0,.2-.2.4-.5.6-.2.2-.5.4-.9.5s-.8.2-1.3.2h0l.2.2ZM311.4,24.2c.5,0,1-.1,1.3-.3.4-.2.6-.5.8-.8.2-.3.3-.7.3-1v-1.2s-.2.1-.4.2c-.2,0-.4.1-.7.1s-.5,0-.7.1-.4,0-.6,0c-.4,0-.7.1-1,.2s-.5.2-.7.5-.3.5-.3.8.2.8.5,1c.4.2.8.4,1.3.4h.2Z"/>
        <path d="M323.9,18.5l-1.2.3c0-.2-.2-.4-.3-.6-.1-.2-.3-.4-.6-.5s-.6-.2-1-.2-1,.1-1.3.4c-.4.2-.5.5-.5.9s.1.6.4.8.6.4,1.1.5l1.3.3c.8.2,1.4.5,1.7.9s.6.9.6,1.5-.1,1-.4,1.3c-.3.4-.7.7-1.2.9s-1.1.3-1.8.3-1.6-.2-2.2-.6-1-1-1.1-1.7l1.3-.3c.1.5.4.8.7,1.1s.8.4,1.3.4,1.1-.1,1.5-.4.5-.6.5-1-.1-.6-.3-.8c-.2-.2-.5-.4-1-.5l-1.5-.3c-.8-.2-1.4-.5-1.8-.9s-.6-.9-.6-1.5.1-.9.4-1.3.7-.7,1.1-.9c.5-.2,1-.3,1.6-.3s1.5.2,2,.6.8.9,1,1.5h0l.3.1Z"/>
        <path d="M328.6,25.4c-.5,0-1.1-.1-1.5-.3s-.8-.5-1.1-.9-.4-.9-.4-1.5.1-.9.3-1.2c.2-.3.5-.6.8-.7.3-.2.7-.3,1.1-.4s.8-.2,1.2-.2c.5,0,1-.1,1.3-.2.3,0,.6-.1.7-.2.1,0,.2-.2.2-.5h0c0-.6-.1-1-.5-1.4s-.8-.5-1.4-.5-1.1.1-1.5.4-.6.6-.8.9l-1.3-.5c.2-.5.5-.9.9-1.2s.8-.5,1.2-.6c.5-.1.9-.2,1.3-.2s.6,0,1,.1.7.2,1.1.4c.3.2.6.5.9.9.2.4.3,1,.3,1.7v5.8h-1.3v-1.2h0c0,.2-.2.4-.5.6s-.5.4-.9.5-.8.2-1.3.2h0l.2.2ZM328.8,24.2c.5,0,1-.1,1.3-.3s.6-.5.8-.8c.2-.3.3-.7.3-1v-1.2s-.2.1-.4.2c-.2,0-.4.1-.7.1s-.5,0-.7.1-.4,0-.6,0c-.4,0-.7.1-1,.2s-.5.2-.7.5-.3.5-.3.8.2.8.5,1c.4.2.8.4,1.3.4h.2Z"/>
        <path d="M339.6,25.2v-8.7h1.3v1.3h0c.2-.4.5-.8.9-1,.4-.3.9-.4,1.4-.4h.7v1.4h-.8c-.4,0-.8,0-1.1.3-.3.2-.6.4-.8.7s-.3.7-.3,1v5.5h-1.3v-.1Z"/>
        <path d="M349.2,25.4c-.8,0-1.6-.2-2.2-.6s-1.1-.9-1.4-1.6-.5-1.5-.5-2.4.2-1.7.5-2.4c.3-.7.8-1.2,1.4-1.6s1.3-.6,2.1-.6.9,0,1.4.2.9.4,1.2.7.6.8.9,1.3.3,1.2.3,2.1v.6h-6.7v-1.2h5.4c0-.5-.1-.9-.3-1.3-.2-.4-.5-.7-.8-.9s-.8-.3-1.3-.3-1,.1-1.4.4-.7.6-.9,1c-.2.4-.3.9-.3,1.4v.8c0,.7.1,1.2.3,1.7.2.5.5.8,1,1s.9.4,1.4.4.7,0,1-.1.5-.2.7-.5c.2-.2.4-.5.5-.8l1.3.4c-.1.4-.4.8-.7,1.2-.3.3-.7.6-1.2.8s-1,.3-1.6.3h-.1Z"/>
        <path d="M358.4,25.4c-.8,0-1.5-.2-2.1-.6s-1-.9-1.4-1.6c-.3-.7-.5-1.5-.5-2.3s.2-1.7.5-2.4.8-1.2,1.4-1.6,1.3-.6,2.1-.6,1.2.1,1.7.3.9.5,1.2,1c.3.4.5.9.6,1.4h-1.3c-.1-.4-.3-.8-.7-1.1s-.8-.5-1.4-.5-1,.1-1.4.4-.7.6-.9,1.1-.3,1.1-.3,1.7.1,1.3.3,1.8c.2.5.5.9.9,1.2s.9.4,1.4.4.7,0,1-.2.5-.3.7-.5.3-.5.4-.8h1.3c0,.5-.3,1-.6,1.4s-.7.7-1.2,1-1,.4-1.7.4h0v.1Z"/>
        <path d="M367.6,16.5v1.1h-4.5v-1.1h4.5ZM364.4,14.4h1.3v8.3c0,.4,0,.7.2.9.1.2.2.3.4.4h1.2l.3,1.2s-.2,0-.4.1-.4,0-.6,0c-.4,0-.8,0-1.1-.2s-.7-.4-.9-.7-.4-.8-.4-1.3v-8.7Z"/>
        <path d="M372.2,25.4c-.5,0-1.1-.1-1.5-.3s-.8-.5-1.1-.9-.4-.9-.4-1.5.1-.9.3-1.2c.2-.3.5-.6.8-.7.3-.2.7-.3,1.1-.4s.8-.2,1.2-.2c.5,0,1-.1,1.3-.2.3,0,.6-.1.7-.2.1,0,.2-.2.2-.5h0c0-.6-.1-1-.5-1.4s-.8-.5-1.4-.5-1.1.1-1.5.4-.6.6-.8.9l-1.3-.5c.2-.5.5-.9.9-1.2s.8-.5,1.2-.6c.5-.1.9-.2,1.3-.2s.6,0,1,.1.7.2,1.1.4c.3.2.6.5.9.9.2.4.3,1,.3,1.7v5.8h-1.3v-1.2h0c0,.2-.2.4-.5.6s-.5.4-.9.5-.8.2-1.3.2h0l.2.2ZM372.4,24.2c.5,0,1-.1,1.3-.3s.6-.5.8-.8c.2-.3.3-.7.3-1v-1.2s-.2.1-.4.2c-.2,0-.4.1-.7.1s-.5,0-.7.1-.4,0-.6,0c-.4,0-.7.1-1,.2s-.5.2-.7.5-.3.5-.3.8.2.8.5,1c.4.2.8.4,1.3.4h.2Z"/>
        <g>
          <path d="M213.2,25.5l4.2-11.6h1.7l4.3,11.6h-1.6l-2.5-6.9c-.2-.4-.3-1-.5-1.6s-.4-1.5-.7-2.4h.3c-.3,1-.5,1.8-.7,2.5-.2.6-.4,1.2-.5,1.6l-2.4,6.9h-1.6v-.1ZM215.3,22.2v-1.3h6v1.3h-6Z"/>
          <path d="M228,25.6c-.6,0-1.1,0-1.6-.3-.5-.2-.9-.4-1.2-.8-.3-.3-.5-.8-.6-1.3l1.3-.3c.1.5.4.8.7,1.1.3.2.8.3,1.3.3s1.1-.1,1.5-.4.5-.6.5-.9-.1-.6-.3-.8c-.2-.2-.5-.4-1-.4l-1.5-.3c-.8-.2-1.4-.5-1.8-.9-.4-.4-.6-.9-.6-1.5s.1-.9.4-1.3.7-.7,1.2-.9c.5-.2,1-.3,1.7-.3s1.1,0,1.5.3c.4.2.8.4,1,.7.3.3.5.7.6,1.1l-1.3.3c-.1-.3-.3-.6-.6-.9s-.7-.4-1.3-.4-1,.1-1.3.4c-.3.2-.5.5-.5.9s.1.6.4.8.6.4,1.1.5l1.3.3c.8.2,1.4.5,1.8.9.4.4.6.9.6,1.5s-.1,1-.4,1.4-.7.7-1.2.9c-.5.2-1.1.3-1.8.3h.1Z"/>
          <path d="M237.1,25.6c-.8,0-1.5-.2-2.1-.6s-1.1-.9-1.4-1.6c-.3-.7-.5-1.5-.5-2.4s.2-1.7.5-2.4c.3-.7.8-1.2,1.4-1.6.6-.4,1.3-.6,2.1-.6s.8,0,1.2.2.7.3,1,.5.6.5.8.8.4.6.5,1l-1.4.4c0-.2-.2-.4-.3-.6s-.3-.4-.5-.5-.4-.2-.6-.3c-.2,0-.5-.1-.8-.1-.6,0-1.1.2-1.4.5s-.7.7-.8,1.2c-.2.5-.3,1-.3,1.6s0,1.1.3,1.6c.2.5.5.9.8,1.2.4.3.9.5,1.4.5s.6,0,.8-.1c.2,0,.5-.2.7-.3.2-.1.4-.3.5-.5s.2-.4.3-.6l1.3.4c-.1.4-.3.7-.5,1s-.5.6-.8.8c-.3.2-.7.4-1,.5-.4.1-.8.2-1.2.2v-.2Z"/>
          <path d="M246.3,25.6c-.8,0-1.6-.2-2.2-.6-.6-.4-1.1-.9-1.4-1.6-.3-.7-.5-1.5-.5-2.4s.2-1.7.5-2.4c.3-.7.8-1.2,1.4-1.6.6-.4,1.3-.6,2.1-.6s.9,0,1.4.2.9.4,1.2.7c.4.3.7.8.9,1.3.2.6.3,1.2.3,2v.6h-6.8v-1.2h6l-.7.4c0-.6,0-1.1-.3-1.5s-.4-.8-.8-1c-.4-.3-.8-.4-1.3-.4s-1,.1-1.4.4-.7.6-.9,1-.3.9-.3,1.3v.8c0,.6.1,1.2.3,1.6.2.5.5.8.9,1s.9.3,1.4.3.7,0,.9-.1c.3,0,.5-.2.7-.4.2-.2.4-.4.5-.7l1.4.4c-.1.4-.4.8-.7,1.2-.3.3-.7.6-1.2.8s-1,.3-1.6.3l.2.2Z"/>
          <path d="M253.4,20.2v5.2h-1.4v-8.7h1.4v2.1h-.2c.3-.8.6-1.4,1.1-1.7.5-.3,1.1-.5,1.7-.5s1.1.1,1.5.4c.4.2.8.6,1,1.1s.4,1.1.4,1.8v5.5h-1.4v-5.4c0-.7-.2-1.2-.5-1.6-.4-.4-.8-.6-1.4-.6s-.8,0-1.1.3c-.3.2-.6.4-.8.8-.2.3-.3.8-.3,1.3Z"/>
          <path d="M264.7,25.6c-.7,0-1.4-.2-1.9-.6-.6-.4-1-.9-1.3-1.6s-.5-1.5-.5-2.4.2-1.7.5-2.4c.3-.7.8-1.2,1.3-1.6.6-.4,1.2-.5,1.9-.5s1,0,1.4.3c.3.2.6.4.8.6.2.2.3.4.4.6h.1v-4.3h1.4v11.6h-1.4v-1.4h-.2c0,.2-.2.4-.4.6-.2.2-.4.5-.8.6s-.8.3-1.3.3v.2ZM264.9,24.4c.5,0,1-.1,1.3-.4.4-.3.6-.7.8-1.2.2-.5.3-1.1.3-1.7s0-1.2-.3-1.7c-.2-.5-.5-.9-.8-1.1-.4-.3-.8-.4-1.4-.4s-1,.1-1.4.4-.6.7-.8,1.2c-.2.5-.3,1-.3,1.6s0,1.2.3,1.7c.2.5.5.9.8,1.2.4.3.8.4,1.4.4h.1Z"/>
          <path d="M271.9,15.3c-.3,0-.5,0-.7-.3-.2-.2-.3-.4-.3-.7s0-.5.3-.7c.2-.2.4-.3.7-.3s.5,0,.7.3c.2.2.3.4.3.7s0,.5-.3.7c-.2.2-.4.3-.7.3ZM271.2,25.5v-8.7h1.4v8.7h-1.4Z"/>
          <path d="M276.5,20.2v5.2h-1.4v-8.7h1.4v2.1h-.2c.3-.8.6-1.4,1.1-1.7.5-.3,1.1-.5,1.7-.5s1.1.1,1.5.4c.4.2.8.6,1,1.1s.4,1.1.4,1.8v5.5h-1.4v-5.4c0-.7-.2-1.2-.5-1.6-.4-.4-.8-.6-1.4-.6s-.8,0-1.1.3c-.3.2-.6.4-.8.8-.2.3-.3.8-.3,1.3h0Z"/>
          <path d="M288.1,28.9c-.6,0-1.2,0-1.7-.2s-.9-.4-1.2-.7c-.3-.3-.6-.6-.7-.9l1.1-.7c.1.2.3.4.5.6s.4.4.8.5c.3.1.7.2,1.2.2s1.3-.2,1.7-.5c.5-.3.7-.9.7-1.6v-1.8h-.1c0,.2-.2.4-.4.6-.2.2-.4.4-.8.6-.3.2-.8.3-1.3.3s-1.3-.2-1.9-.5-1-.8-1.3-1.4-.5-1.4-.5-2.3.2-1.7.5-2.3c.3-.7.8-1.2,1.3-1.5.6-.4,1.2-.5,1.9-.5s1,0,1.3.3c.3.2.6.4.8.6.2.2.3.4.4.6h.1v-1.4h1.4v9c0,.8-.2,1.4-.5,1.8-.3.5-.8.8-1.4,1.1-.6.2-1.2.3-1.9.3v-.2ZM288.1,24.1c.5,0,1-.1,1.3-.4.4-.2.6-.6.8-1,.2-.5.3-1,.3-1.6s0-1.2-.3-1.6c-.2-.5-.5-.8-.8-1.1-.4-.3-.8-.4-1.4-.4s-1,.1-1.4.4-.6.7-.8,1.1c-.2.5-.3,1-.3,1.6s0,1.1.3,1.6c.2.5.5.8.8,1.1.4.3.8.4,1.4.4l.1-.1Z"/>
        </g>
      </g>
    </g>
  </g>
  <g clip-path="url(#clippath)">
    <g>
      <path d="M580.9,346.3c13.2,0,24-10.8,24-24s-10.8-24-24-24-24,10.8-24,24,10.8,24,24,24Z" fill="#ff0043"/>
      <path d="M580.9,301.7c-11.4,0-20.6,9.2-20.6,20.6s9.2,20.6,20.6,20.6,20.6-9.2,20.6-20.6-9.2-20.6-20.6-20.6ZM599.6,321.9h-5c0-2.7-1-5.2-2.4-7.3l3.7-2.5c.1,0,.2-.3,0-.4,0-.1-.3-.2-.4,0l-3.7,2.5c-1.1-1.4-2.4-2.6-3.9-3.5l2.2-3.9c0-.1,0-.3-.1-.4s-.3,0-.4.1l-2.2,3.9c-1.8-1-3.9-1.6-6.2-1.6v-4.5c0-.2-.2-.4-.4-.4h0c-.2,0-.4.2-.4.4v4.5c-3,0-5.8,1.2-8.1,3l-3.3-3.9c3.2-2.6,7.3-4.2,11.8-4.2,10.2,0,18.5,8.2,18.7,18.3h0l.1-.1ZM589.7,331.6l-2.8-3.3c.6-.6,1.1-1.2,1.5-1.9l3.9,2c-.7,1.2-1.5,2.3-2.5,3.3h0l-.1-.1ZM569.4,327.8l3.9-1.9c.4.9,1,1.7,1.7,2.3l-2.9,3.2c-1.1-1.1-2-2.3-2.7-3.7h0v.1ZM562.2,322.7h5c0,1.8.5,3.6,1.2,5.1l-4.6,2.2c-1-2.2-1.6-4.7-1.7-7.3h.1ZM572.4,312.8l2.8,3.3c-1.6,1.5-2.6,3.5-2.7,5.8h-4.4c.1-3.6,1.7-6.8,4.2-9.1h.1ZM580.9,329.3h-1.1l.7-4.1h.4c.7,0,1.3-.2,1.8-.6l1,1.2c-.8.6-1.8,1-2.9,1s-.2.1-.2.2.1.2.2.2c1.2,0,2.3-.4,3.2-1.2l1.3,1.5c-1.2,1-2.8,1.6-4.5,1.6h0l.1.2ZM574.6,325.3l3.7-1.8c.4.7,1,1.3,1.8,1.5l-.7,4.1c-2.1-.5-3.9-1.9-4.8-3.8h0ZM576.1,317.1l1.2,1.5c-.7.7-1.3,1.6-1.5,2.7,0,.1,0,.3.2.3.1,0,.3,0,.3-.2.2-.9.7-1.8,1.3-2.4l1.1,1.3c-.4.4-.6,1-.7,1.5h-4.2c0-1.9.9-3.5,2.2-4.7h.1ZM584.3,325.2l-1.1-1.2c.3-.4.5-.8.5-1.3h1.6c0,1-.5,1.9-1.1,2.6h0l.1-.1ZM579.2,322.3c0-1,.8-1.7,1.7-1.7s1.7.8,1.7,1.7-.8,1.7-1.7,1.7-1.7-.8-1.7-1.7ZM583.8,321.9c-.2-1.4-1.4-2.5-2.9-2.5s-1.1.2-1.6.5l-1.1-1.3c.7-.5,1.6-.8,2.6-.8,2.4,0,4.4,1.8,4.6,4.2h-1.6v-.1ZM578,322.7c0,.2,0,.3.1.5l-3.8,1.8c-.3-.7-.5-1.5-.5-2.3h4.2ZM584.6,325.6c.2-.3.5-.6.6-.9l1.8.9c-.3.5-.7,1.1-1.1,1.5l-1.3-1.6h0v.1ZM585.5,324.2c.2-.5.3-1,.4-1.5h2.1c0,.9-.3,1.7-.6,2.5l-1.8-.9h0l-.1-.1ZM585.9,321.9c-.2-2.6-2.4-4.7-5-4.7s-2.1.3-2.9.9l-1.2-1.5c1.2-.9,2.7-1.4,4.2-1.4,2.3,0,4.3,1.1,5.6,2.8h0c.8,1.1,1.2,2.4,1.3,3.7h-2.1l.1.2ZM585.3,315.1l2.2-3.8c1.4.9,2.6,2,3.6,3.2l-3.6,2.5c-.6-.8-1.3-1.4-2.2-1.9h0ZM584.8,314.8c-1.1-.6-2.2-.9-3.5-1v-4.4c2,0,4,.6,5.7,1.5l-2.2,3.8h0v.1ZM580.5,313.8c-1.8,0-3.4.7-4.7,1.7l-2.8-3.3c2.1-1.7,4.7-2.7,7.5-2.8v4.4h0ZM568.1,322.7h4.4c0,1,.3,2,.7,2.9l-3.9,1.9c-.7-1.5-1-3.1-1.1-4.8h-.1ZM575.4,328.6c1.1.9,2.3,1.6,3.8,1.9l-.8,4.3c-2.2-.5-4.3-1.5-5.9-2.9l2.9-3.2h0v-.1ZM579.6,330.6c.4,0,.9.1,1.3.1s.9,0,1.3-.1l.8,4.3c-.7.1-1.4.2-2.1.2s-1.4,0-2.1-.2l.8-4.3h0ZM582.6,330.5c1.4-.3,2.6-.9,3.6-1.7l2.8,3.3c-1.6,1.3-3.5,2.3-5.7,2.7l-.8-4.3h.1ZM588.6,325.8c.4-1,.7-2,.8-3.1h4.4c0,1.8-.5,3.6-1.2,5.1l-3.9-2h-.1ZM589.3,321.9c0-1.6-.6-3.1-1.5-4.4l3.6-2.5c1.3,2,2.2,4.3,2.2,6.8h-4.4l.1.1ZM568.5,308.2l3.3,3.9c-2.7,2.4-4.4,5.9-4.5,9.8h-5c.1-5.4,2.5-10.3,6.3-13.6h0l-.1-.1ZM564,330.3l4.6-2.2c.7,1.5,1.7,2.8,2.9,4l-3.1,3.4c-.1.1,0,.3,0,.4h.2c.1,0,.2,0,.2-.1l3.1-3.4c1.8,1.6,4,2.7,6.4,3.1l-.9,5c-5.9-1.1-10.8-5-13.3-10.3h0l-.1.1ZM577.8,340.7l.9-5c.7.1,1.5.2,2.3.2s1.5,0,2.2-.2l.9,5c-1,.2-2.1.3-3.2.3s-2.1,0-3.2-.3h.1ZM584.4,340.6l-.9-5c2.3-.5,4.4-1.5,6.1-2.9l2,2.3s.2.1.3.1h.2c.2-.1.2-.4,0-.6l-2-2.3c1.1-1,2-2.2,2.7-3.5l1.4.7h.1c.1,0,.2,0,.3-.2,0-.1,0-.3-.1-.4l-1.4-.7c.8-1.7,1.3-3.5,1.3-5.5h5c-.2,8.9-6.7,16.4-15.2,18h.2Z" fill="url(#linear-gradient)"/>
    </g>
  </g>
</svg>