<?xml version="1.0" encoding="UTF-8"?>
<svg id="Layer_1" data-name="Layer 1" xmlns="http://www.w3.org/2000/svg" xmlns:xlink="http://www.w3.org/1999/xlink" viewBox="0 0 604.903 350.626">
  <defs>
    <style>
      .cls-1, .cls-2, .cls-3, .cls-4, .cls-5, .cls-6 {
        fill: none;
      }

      .cls-7 {
        fill: #a7a7a7;
      }

      .cls-8 {
        fill: #6c6c6c;
      }

      .cls-9 {
        fill: #bdbdbd;
      }

      .cls-10 {
        fill: #a9a9a9;
      }

      .cls-11 {
        fill: #939393;
      }

      .cls-12 {
        fill: #8f8f8f;
      }

      .cls-13 {
        fill: #5f5f5f;
      }

      .cls-14 {
        fill: #777;
      }

      .cls-15 {
        fill: #b5b5b5;
      }

      .cls-2 {
        stroke: #fff;
      }

      .cls-2, .cls-3, .cls-4, .cls-5, .cls-6 {
        stroke-miterlimit: 10;
      }

      .cls-16 {
        fill: #8e8e8e;
      }

      .cls-17 {
        fill: #a1a1a1;
      }

      .cls-18 {
        fill: #e2a489;
      }

      .cls-19 {
        fill: #c1c1c1;
      }

      .cls-20 {
        fill: url(#linear-gradient);
      }

      .cls-21 {
        fill: #ccc;
      }

      .cls-3 {
        stroke-width: 1.49px;
      }

      .cls-3, .cls-4, .cls-5 {
        stroke: #000;
      }

      .cls-4 {
        stroke-width: 1.5px;
      }

      .cls-22 {
        fill: #9d9d9d;
      }

      .cls-23 {
        isolation: isolate;
      }

      .cls-24 {
        fill: #dedede;
      }

      .cls-25 {
        fill: #a0a0a0;
      }

      .cls-26 {
        mix-blend-mode: multiply;
      }

      .cls-27 {
        fill: #bebebe;
      }

      .cls-28 {
        fill: #a6a6a6;
      }

      .cls-29 {
        fill: #c9c9c9;
      }

      .cls-30 {
        fill: #b7b7b7;
      }

      .cls-31 {
        fill: #848484;
      }

      .cls-32 {
        fill: #fff;
      }

      .cls-33 {
        fill: #f9c7dc;
      }

      .cls-34 {
        fill: #666;
      }

      .cls-35 {
        fill: #9f9f9f;
      }

      .cls-36 {
        fill: #bbb;
      }

      .cls-37 {
        fill: #cd5257;
      }

      .cls-38 {
        fill: #7e7e7e;
      }

      .cls-39 {
        fill: #b8b8b8;
      }

      .cls-40 {
        fill: #a3a3a3;
      }

      .cls-41 {
        fill: #858585;
      }

      .cls-42 {
        fill: #8b8b8b;
      }

      .cls-43 {
        fill: #fefefe;
      }

      .cls-44 {
        fill: #ba9bc9;
      }

      .cls-45 {
        fill: #ababab;
      }

      .cls-6 {
        stroke: #f5a59a;
        stroke-width: 8px;
      }

      .cls-46 {
        fill: #c2c2c2;
      }

      .cls-47 {
        fill: #cbcbcb;
      }

      .cls-48 {
        fill: #ff0043;
      }

      .cls-49 {
        fill: #aeaeae;
      }

      .cls-50 {
        fill: #a8a8a8;
      }

      .cls-51 {
        fill: #a4a4a4;
      }

      .cls-52 {
        fill: #c8c8c8;
      }

      .cls-53 {
        fill: #d3d3d3;
      }

      .cls-54 {
        fill: #eee;
      }

      .cls-55 {
        fill: #b6b6b6;
      }

      .cls-56 {
        clip-path: url(#clippath);
      }

      .cls-57 {
        fill: #b2b2b2;
      }

      .cls-58 {
        fill: #f4e4ea;
      }

      .cls-59 {
        fill: #fdfdfd;
      }
    </style>
    <clipPath id="clippath">
      <rect class="cls-1" x="556.903" y="298.259" width="48" height="48"/>
    </clipPath>
    <linearGradient id="linear-gradient" x1="563.066" y1="-636.567" x2="598.739" y2="-615.97" gradientTransform="translate(0 -303.999) scale(1 -1)" gradientUnits="userSpaceOnUse">
      <stop offset=".12" stop-color="#fff" stop-opacity="0"/>
      <stop offset=".44" stop-color="#fff"/>
    </linearGradient>
  </defs>
  <g class="cls-23">
    <g id="Crosswalk">
      <g id="Descending_Vasa_Recta" data-name="Descending Vasa Recta">
        <polyline id="Descending_Vasa_Recta_1" data-name="Descending Vasa Recta 1" class="cls-1" points="47.934 36.989 62.344 22.179 75.414 16.559 90.114 16.559 113.323 27.469 132.173 38.729 139.914 49.409 144.884 62.009 141.194 86.309 140.203 101.919 139.343 115.049 140.983 126.139 141.194 135.569 152.203 103.619 159.864 78.709 162.584 57.059 156.873 33.619 143.683 14.919 128.103 4.389 103.234 .109 78.574 2.929 59.134 13.889 46.874 23.779 39.854 35.059 47.934 36.989"/>
        <polyline id="Descending_Vasa_Recta_2" data-name="Descending Vasa Recta 2" class="cls-1" points="36.314 39.029 24.984 63.309 18.974 91.059 14.344 122.159 6.584 164.739 2.054 200.879 .004 219.549 5.254 234.729 18.164 247.519 20.574 237.449 12.334 208.529 16.384 183.539 30.654 159.909 42.844 130.149 43.304 98.959 41.034 82.599 42.844 61.039 46.084 40.369 36.314 39.029"/>
        <polyline id="Descending_Vasa_Recta_3" data-name="Descending Vasa Recta 3" class="cls-1" points="25.254 251.789 39.854 266.089 62.284 272.429 87.284 268.289 109.884 253.829 120.664 236.829 128.364 216.029 132.024 199.929 133.974 187.379 137.573 163.769 139.093 151.049 139.073 141.649 134.834 138.109 131.054 147.639 129.644 162.689 122.213 178.859 103.543 195.639 87.043 211.529 78.924 220.909 77.824 232.609 70.214 247.519 58.404 257.609 39.854 254.279 25.254 251.789"/>
      </g>
      <g id="Descending_Thin_Limb_Cell" data-name="Descending Thin Limb Cell">
        <polyline id="Descending_Thin_Limb_Cell_1" data-name="Descending Thin Limb Cell 1" class="cls-1" points="280.153 97.859 253.233 115.459 232.923 141.149 219.983 162.689 211.524 190.659 208.593 215.159 211.043 245.339 216.434 269.959 227.304 284.889 234.783 288.049 245.654 275.409 249.114 265.959 238.723 236.299 238.753 220.509 251.703 199.109 259.364 178.479 264.722 157.529 273.502 139.869 282.293 128.859 285.063 120.199 286.403 104.659 280.153 97.859"/>
        <polyline id="Descending_Thin_Limb_Cell_2" data-name="Descending Thin Limb Cell 2" class="cls-1" points="261.782 274.479 248.894 274.479 240.382 282.739 237.714 293.999 250.983 303.939 287.793 315.409 329.463 316.909 355.644 310.129 388.692 296.599 409.114 281.959 420.764 269.129 427.132 250.849 429.954 245.729 402.243 242.349 390.853 238.599 386.243 247.519 368.192 259.059 349.782 263.149 329.463 268.149 313.433 275.029 300.132 282.089 276.834 279.129 261.782 274.479"/>
        <polyline id="Descending_Thin_Limb_Cell_3" data-name="Descending Thin Limb Cell 3" class="cls-1" points="289.043 123.219 301.053 127.079 313.053 125.689 323.334 125.149 342.394 140.619 355.873 157.799 372.093 167.939 384.073 174.799 397.334 197.499 399.853 208.529 395.834 226.569 396.334 233.819 409.114 239.599 425.264 243.419 433.662 238.599 437.942 212.439 437.942 190.839 427.132 156.739 409.114 130.739 381.043 108.599 346.573 97.859 317.674 92.999 294.023 92.999 289.043 100.809 286.412 111.939 289.043 123.219"/>
      </g>
    </g>
    <g id="labels">
      <g>
        <path class="cls-58" d="M61.704,19.159c-17,18.49-28.69,41.81-33.31,66.5-2.13,11.39-2.79,23.04-5.49,34.31-2.12,8.84-5.46,17.33-7.94,26.08-6.28,22.09-7,45.51-4.4,68.33.6,5.24,1.38,10.52,3.44,15.38,1.94,4.58,4.94,8.62,7.91,12.61,4.46,5.98,9.04,12.08,15.22,16.27,5.7,3.86,12.43,5.85,19.06,7.72,3.45.97,6.97,1.93,10.54,1.8,4.45-.17,8.69-2.03,12.4-4.5,11.65-7.76,18.28-20.94,24.4-33.53,10.95-22.52,21.96-45.2,28.47-69.38,6.54-24.29,8.43-49.67,15.35-73.85,2.8-9.77,6.45-19.72,5.21-29.8-1.51-12.3-10.06-22.59-19.48-30.63-7.46-6.37-16.04-11.97-25.73-13.51-8.23-1.31-16.6.39-24.76,2.1-7.3,1.54-14.59,3.1-21.88,4.68"/>
        <path class="cls-58" d="M60.284,17.749c-13.39,14.6-23.54,32.05-29.63,50.9-3.25,10.06-4.97,20.36-6.35,30.82-.73,5.56-1.46,11.13-2.59,16.63-1.15,5.58-2.81,11.01-4.57,16.42-1.76,5.41-3.52,10.61-4.93,16.02-1.39,5.35-2.47,10.79-3.26,16.26-1.6,11.08-2.09,22.28-1.64,33.46.22,5.54.66,11.07,1.31,16.57.63,5.44,1.49,10.86,3.66,15.92,2.08,4.86,5.29,9.09,8.43,13.3,2.98,3.99,6,7.99,9.57,11.48,3.57,3.49,7.85,6.39,12.54,8.41,4.9,2.12,10.06,3.62,15.21,4.97s10.69,1.74,15.93-.32c4.57-1.79,8.66-4.67,12.22-8.03,6.86-6.46,11.7-14.75,15.94-23.08,4.84-9.51,9.43-19.17,13.89-28.85,4.64-10.07,9.02-20.29,12.73-30.74,3.74-10.54,6.63-21.32,8.86-32.28,2.23-10.98,3.94-22.06,5.99-33.08,1.04-5.58,2.17-11.15,3.5-16.67,1.3-5.41,2.91-10.72,4.46-16.06,2.95-10.18,4.89-20.78,1.06-31.01-3.34-8.9-9.66-16.35-16.7-22.58-7.34-6.51-15.79-12.46-25.48-14.73-11.08-2.6-22.44.36-33.3,2.66-5.64,1.2-11.27,2.41-16.91,3.63-2.51.55-1.45,4.4,1.06,3.86,5.63-1.22,11.27-2.43,16.91-3.63,5.4-1.15,10.82-2.44,16.31-3.11,5.23-.64,10.55-.68,15.69.65,4.65,1.21,8.98,3.33,13.01,5.92,7.64,4.9,14.89,11.32,20.21,18.7,2.59,3.59,4.75,7.52,6.06,11.76,1.45,4.73,1.68,9.66,1.04,14.55-.7,5.36-2.29,10.56-3.83,15.73s-2.96,10.4-4.16,15.68c-2.43,10.69-4.19,21.51-6.09,32.3-1.88,10.69-3.9,21.38-6.83,31.85-2.87,10.28-6.56,20.32-10.67,30.16-4.15,9.93-8.76,19.67-13.44,29.36-4.16,8.6-8.12,17.41-13.34,25.44-4.8,7.38-11.35,14.9-19.86,17.98-5.21,1.89-10.12.96-15.31-.5-4.81-1.35-9.67-2.72-14.17-4.92-8.98-4.38-14.87-12.36-20.64-20.22-2.99-4.08-5.82-8.31-7.35-13.18-1.59-5.06-2.15-10.38-2.66-15.63-2.08-21.37-1.16-43.23,4.74-63.96,3-10.56,7.08-20.75,9.11-31.58,2-10.66,2.73-21.53,5-32.14,3.97-18.58,11.97-36.23,23.24-51.52,2.76-3.75,5.74-7.33,8.88-10.76,1.74-1.89-1.08-4.73-2.83-2.83h0l-.02.02h0Z"/>
      </g>
      <g>
        <path class="cls-37" d="M55.584,159.109c-15.38,11.68-24.47,32.76-18.33,51.06.84,2.51,1.96,4.96,3.58,7.06,5.06,6.57,10.65,8.69,18.51,6.04,7.85-2.65,17.89-9.41,20.98-17.1s4.51-16.23,3.66-24.48c-.69-6.73-3.36-13.7-7.9-18.72s-12.62-7.32-18.28-3.61"/>
        <path class="cls-37" d="M52.754,156.279c-10.39,8.13-18.2,20.04-20.59,33.11-2.27,12.4-.03,28.05,11.08,35.76,10.83,7.51,25,.05,33.55-7.68,10.8-9.78,13.53-27.83,10.25-41.51-3.21-13.42-16.43-28.51-31.26-20.05-4.47,2.55-.45,9.46,4.04,6.91,6.35-3.62,12.81,1.18,16.06,6.62,3.81,6.38,4.79,13.84,4.17,21.16-.58,6.89-2.41,14.53-7.28,19.66-4.26,4.5-10.54,8.44-16.64,9.77-14.04,3.07-17.79-16.7-16.53-26.74,1.58-12.56,9-23.66,18.81-31.34,4.05-3.17-1.65-8.8-5.66-5.66h0v-.01h0Z"/>
      </g>
      <g>
        <path class="cls-37" d="M83.104,125.019c-4.61-5.5-10.82-9.64-17.66-11.78-2.02-.63-4.19-1.1-6.25-.59s-3.95,2.23-4.01,4.34c-.04,1.28-.33,2.44.16,3.62,7.83,18.92,18.11,26.51,29.67,37.16,2.47,2.28,6.1,3.51,9.24,4.69,3.14,1.19,5.94,2.16,8.62.14,2.3-1.73,3.42-4.57,4.44-7.26,2.32-6.12,4.39-13.76,0-18.61-1.34-1.48-3.13-2.47-4.89-3.41-5.67-3.02-11.45-5.84-17.33-8.43"/>
        <path class="cls-37" d="M85.933,122.189c-6.15-7.04-21.92-19.1-31.44-11.55-9.71,7.71,3.2,24.25,8.43,30.87,3.41,4.31,7.29,8.17,11.32,11.89,4.28,3.94,8.44,8.46,13.8,10.89,5.14,2.32,11.58,5.27,16.84,1.77,4.54-3.03,6.51-9.46,7.87-14.46,1.6-5.93,1.88-12.91-2.62-17.7-2.69-2.86-6.54-4.51-9.97-6.26-4.3-2.19-8.65-4.24-13.06-6.2-4.66-2.08-8.74,4.81-4.04,6.91,5.86,2.61,11.7,5.34,17.33,8.43,6.11,3.35,6.14,7.92,4.23,14.1-.68,2.21-1.45,5.43-3.02,7.19-2.42,2.71-5.57.87-8.37-.24-4.96-1.98-8.49-5.66-12.37-9.2-6.85-6.25-13.13-12.86-17.71-21-1.3-2.32-2.87-4.84-3.67-7.4-1.7-5.42,4.45-3.42,7.29-2.27,5.31,2.14,9.75,5.6,13.5,9.89,3.4,3.88,9.04-1.79,5.66-5.66h0Z"/>
      </g>
      <g>
        <path class="cls-37" d="M77.764,35.059c-9.84,2.1-16.51,12.3-16.97,22.35-.46,10.05,4.15,19.73,10.18,27.79,3.75,5.01,8.15,9.62,13.45,12.96,2.45,1.54,5.13,2.81,7.99,3.26,7.13,1.11,14.4-3.34,17.9-9.65s3.68-14.06,1.92-21.06-5.3-13.41-8.97-19.63c-2.45-4.16-5.05-8.36-8.8-11.42-3.74-3.05-8.89-4.8-13.49-3.35"/>
        <path class="cls-37" d="M76.694,31.209c-11.82,3.01-19.31,14.36-19.9,26.21-.72,14.35,8.03,28.74,18.11,38.32,9.78,9.29,23.08,13.89,34.16,3.93,11-9.89,9.32-26.33,3.96-38.62-5.67-13-15.92-32.67-33.12-28.59-5.01,1.19-2.89,8.9,2.13,7.71,7.69-1.83,12.99,5.1,16.53,10.85,3.52,5.73,7.02,11.71,9.06,18.15,2.08,6.58,2.74,14.32-.77,20.57-2.93,5.22-9,9.03-15.08,7.45-11.92-3.1-22.21-18.24-25.58-29.36-3.39-11.18-.11-25.68,12.62-28.92,4.99-1.27,2.87-8.99-2.13-7.71h0s.01.01.01.01Z"/>
      </g>
      <g>
        <path class="cls-33" d="M39.884,39.549c-11.01,17.32-15.02,38.05-18.81,58.23-1.01,5.37-2.02,10.74-3.03,16.1-3.46,18.4-6.92,36.83-8.96,55.44-.54,4.91-.98,9.85-2.29,14.61-.85,3.11-2.07,6.12-2.84,9.25-2.22,9.08-2.55,18.61-.72,27.77,1.89,9.5,6.76,20.12,15.26,24.76,1.99-16.34-11.82-31.49-9.95-47.84.62-5.48,2.99-10.59,5.45-15.53,6.68-13.36,14.37-26.23,20.27-39.95s10.02-28.55,9.03-43.46c-.44-6.66-1.89-13.22-2.5-19.88-1.21-13.34,1-26.73,3.2-39.95-1.02-.95-2.93-.56-3.51.7"/>
        <path class="cls-33" d="M38.154,38.539c-7.42,11.73-11.76,25.06-14.9,38.49-3.36,14.4-5.79,29.05-8.5,43.58-2.86,15.35-5.59,30.74-7.39,46.26-.44,3.8-.75,7.63-1.38,11.4s-1.76,7.25-2.92,10.84c-2.26,7.03-3.22,14.58-2.96,21.96.46,13.23,5,29.46,17.4,36.38,1.43.8,2.84-.25,3.01-1.73,1.41-12.34-5.4-23.42-8.61-34.91-1.68-6.03-2.07-12.01-.19-18.05,2.13-6.81,5.9-13.18,9.23-19.45,6.83-12.86,13.97-25.65,18.81-39.43,2.41-6.87,4.2-13.93,5.1-21.15.93-7.41.57-14.7-.49-22.07-.6-4.18-1.31-8.34-1.64-12.55-.33-4.22-.33-8.47-.1-12.7.47-8.65,1.89-17.21,3.31-25.74.11-.66.07-1.48-.51-1.95-2.11-1.68-5.27-1.39-6.65,1.11-1.24,2.26,2.21,4.28,3.45,2.02.16-.28.54-.16.36-.3l-.51-1.95c-1.27,7.6-2.53,15.22-3.18,22.9-.65,7.69-.5,15.32.55,22.97,1.02,7.45,2.28,14.76,1.92,22.31-.34,7.2-1.79,14.31-3.89,21.2-4.28,14.08-11.32,27.06-18.22,39.99-3.43,6.42-7.04,12.83-9.85,19.55-2.6,6.21-3.59,12.51-2.53,19.18,2.12,13.22,11.2,25.25,9.62,39.04l3.01-1.73c-10.27-5.73-14.37-19.1-15.25-30.09-.58-7.19.02-14.58,1.98-21.53.99-3.51,2.34-6.89,3.1-10.47.79-3.68,1.18-7.43,1.59-11.17,1.62-15,4.13-29.88,6.87-44.71,2.66-14.42,5.18-28.89,8.26-43.23,3.17-14.73,7.44-29.42,15.55-42.25,1.38-2.18-2.08-4.19-3.45-2.02h0Z"/>
      </g>
      <g>
        <path class="cls-33" d="M48.154,26.249c-1.39,1.97-2.63,4.05-3.72,6.2-.56,1.11-1.08,2.42-.56,3.54.65,1.41,2.67,1.69,4.06.99s2.31-2.04,3.22-3.3c5.36-7.43,12.54-13.68,21.02-17.11s18.32-3.88,26.78-.39c4.45,1.84,8.4,4.67,12.3,7.48,6.97,5.02,13.95,10.04,20.92,15.05,2.77,1.99,5.12,4.42,7.21,7.13,13.44,17.46,3.76,43.94.93,61.36-1.32,8.1-2,16.68,1.06,24.29.23.58-.47.19.08.5,1.43.8.89,0,1.54-1.5,4.82-11.32,7.73-23.34,10.63-35.29,4.33-17.85,8.67-36.47,4.67-54.4-1.01-4.55-2.58-9.03-5.11-12.94-2.94-4.55-7.09-8.2-11.53-11.3-12.62-8.8-28.08-13.46-43.46-13.11s-30.61,5.73-42.81,15.11c-2.92,2.25-5.7,4.74-7.83,7.75"/>
        <path class="cls-33" d="M46.434,25.239c-1.12,1.61-2.16,3.27-3.09,5s-1.95,3.54-1.59,5.51c.63,3.54,4.96,4.47,7.69,2.67,1.51-.99,2.51-2.46,3.56-3.89s2.09-2.72,3.24-4.01c2.26-2.53,4.75-4.89,7.49-6.9,5.81-4.27,12.65-7.19,19.89-7.74,3.66-.28,7.34-.02,10.9.92,3.74.99,7.13,2.76,10.36,4.86,6.95,4.51,13.55,9.62,20.27,14.45,3.23,2.33,6.66,4.5,9.49,7.33,2.32,2.32,4.33,4.93,5.86,7.84,5.81,11.03,4.05,24.49,1.79,36.23-2.47,12.81-6.92,26.3-4.33,39.42.36,1.83,1.15,3.53,1.55,5.33l.2-1.54-.05.1,1.2-.92s-.09.04-.14.04c-1.55.28-1.84,2.33-.88,3.34s2.91,1.46,4,.4c.46-.44.62-1.02.77-1.61.23-.89.61-1.72.96-2.57,1.55-3.79,2.9-7.66,4.11-11.57,2.49-8,4.43-16.15,6.39-24.29,3.93-16.32,7.62-33.27,4.81-50.08-1.28-7.66-3.97-15.02-9.16-20.91-4.88-5.54-11.37-9.81-17.93-13.1C120.124,2.689,104.603.079,89.454,2.199c-7.38,1.03-14.56,3.21-21.32,6.34-6.74,3.12-13.36,7.26-18.66,12.5-1.33,1.32-2.53,2.75-3.62,4.27-.63.88-.15,2.23.72,2.74,1.01.59,2.1.16,2.74-.72,3.96-5.5,10.09-9.58,15.95-12.84,6.02-3.36,12.51-5.81,19.23-7.33,13.66-3.08,28.01-1.9,41.07,3.1,6.44,2.46,12.68,5.9,18.06,10.23s9.38,9.61,11.53,16.22c4.82,14.8,2.64,30.89-.57,45.77-1.84,8.55-3.93,17.08-6.18,25.53-1.1,4.11-2.28,8.21-3.63,12.24-.7,2.09-1.44,4.17-2.24,6.22-.39,1.01-.8,2.02-1.22,3.03-.16.37-.31.73-.43,1.12-.05.17-.09.35-.13.52-.15.51.05.33.59-.55l1.01-.27c.49.17.59.18.3.04-.22-.13-.2-.1.05.1-.29,1.11-.59,2.23-.88,3.34.59-.11,1.1-.56,1.38-1.06.57-1.05.03-2.01-.31-3.01-.62-1.81-1.07-3.7-1.33-5.6-.51-3.82-.34-7.73.07-11.55.66-6.08,2.06-12.04,3.33-18,2.6-12.19,5.18-25.26,2-37.59-1.66-6.44-5.12-12.2-9.9-16.81-2.91-2.8-6.38-5.01-9.65-7.36-3.49-2.51-6.97-5.02-10.46-7.53-6.41-4.61-12.78-9.83-20.48-12.09-7.23-2.12-15.17-1.77-22.31.57-6.79,2.23-12.92,6.2-18.03,11.17-2.54,2.47-4.79,5.2-6.87,8.07-.71.97-1.71,2.54-3.11,2.35-.48-.06-.45-.14-.39-.66.09-.83.71-1.71,1.09-2.43.93-1.73,1.97-3.39,3.09-5,1.47-2.12-1.99-4.12-3.45-2.02h-.06v-.01h0Z"/>
      </g>
      <g>
        <path class="cls-33" d="M37.824,256.199c-4.5-2.93-9.39-5.26-14.5-6.9,7.09,9.75,17.17,17.41,28.67,21.05,11.5,3.63,24.37,3.09,35.28-2.05,13.6-6.42,23.07-19.11,30.97-31.91,3.99-6.46,7.75-13.14,10.12-20.35,7.34-22.26.91-47.54,9.49-69.36.64-1.62,1.36-3.29,1.21-5.02-.15-1.73-1.57-3.49-3.3-3.32-1.81.18-2.78,2.2-3.17,3.98-1.04,4.83-.29,9.87-.72,14.8-1.16,13.32-10.74,24.31-20.76,33.17-10.02,8.86-21.25,16.96-27.8,28.62-3.87,6.89-5.87,14.66-9.16,21.85s-8.34,14.16-15.77,16.85c-6.34,2.29-13.34,1.12-19.97-.09"/>
        <path class="cls-33" d="M38.834,254.469c-4.66-3.02-9.7-5.39-14.98-7.1-1.57-.51-3.3,1.52-2.26,2.94,7.37,10.06,17.57,17.98,29.49,21.84,12.73,4.13,27.09,3.23,38.98-3.02,10.97-5.77,19.2-15.52,26-25.66,7.63-11.37,14.39-23.4,16.69-37.05,2.25-13.35,1.4-26.93,2.75-40.36.68-6.78,2.14-13.32,4.6-19.68,1.14-2.96,1.65-6.57-1.06-8.87-2.5-2.13-5.85-1.09-7.38,1.62-1.63,2.87-1.63,6.62-1.65,9.83-.02,3.45.18,6.94-.42,10.36-1.06,6-3.85,11.46-7.42,16.35-7.42,10.18-17.93,17.42-27.07,25.9-4.59,4.27-8.9,8.91-12.25,14.23-3.73,5.91-5.88,12.58-8.38,19.06-2.16,5.59-4.75,11.19-8.94,15.58-1.94,2.03-4.19,3.76-6.76,4.89-3.01,1.32-6.32,1.68-9.58,1.58-3.45-.1-6.85-.69-10.24-1.31-1.06-.19-2.16.29-2.46,1.4-.27.97.33,2.27,1.4,2.46,6.6,1.19,13.62,2.42,20.19.37,5.64-1.76,10.09-5.74,13.48-10.47,3.65-5.08,5.86-10.98,8.03-16.8,2.28-6.12,4.68-12.11,8.53-17.44,7.13-9.85,17.32-16.9,26.19-25.03,8.67-7.94,17.03-17.78,19.14-29.71.58-3.31.58-6.63.56-9.98,0-1.75,0-3.51.16-5.26.13-1.36.28-3.11,1.11-4.27.52-.72,1.06-.65,1.51.12.7,1.19.04,2.74-.39,3.92-1.17,3.13-2.27,6.24-3.04,9.5-2.98,12.73-2.44,25.91-3.21,38.87-.39,6.5-1.11,12.99-2.85,19.28s-4.81,12.64-8.22,18.5c-6.09,10.45-12.97,20.91-22.32,28.73-9.61,8.05-21.76,11.81-34.24,10.66-12.1-1.11-23.38-7.06-31.88-15.62-2.03-2.04-3.91-4.23-5.61-6.56-.75.98-1.51,1.96-2.26,2.94,4.96,1.61,9.64,3.87,14.02,6.7,2.17,1.4,4.17-2.06,2.02-3.45h.02s0,.01,0,.01Z"/>
      </g>
      <g>
        <path class="cls-44" d="M275.103,100.489c-15.83,6.47-23.54,20.9-33.26,34.97-9.72,14.07-17.96,25.21-23.78,41.28-2.18,6.03-8,14.7-8.73,21.07-.75,6.58-.03,13.23.41,19.84,1.1,16.66.48,33.9,6.8,49.36,7.78,19.04,25.42,32.8,44.71,39.96s40.23,8.46,60.8,8.43c11.28-.01,22.67-2.42,33.57-5.28,10.52-2.76,20.34-7.73,29.51-13.58,18.65-11.88,35.13-25.77,45.37-45.38,10.24-19.6,13.83-43.11,7.39-64.27-3.47-11.42-9.69-21.88-13.05-33.33-1.19-4.04-2.04-8.25-4.17-11.88-3.78-6.42-10.88-9.97-16.58-14.78-4.39-3.7-8.03-8.25-12.56-11.77-6.92-5.38-15.49-8.07-23.86-10.67-15.09-4.67-30.29-9.37-45.99-11.12-15.7-1.75-32.11-.39-46.28,6.58,8.76,4.25,6.21,18.84,13.93,24.77,6.43,4.94,15.58,1.02,23.69.98,10.53-.05,19.84,6.84,27.04,14.53s13.3,16.59,21.89,22.69c4.88,3.47,10.45,5.93,15.11,9.69,5.18,4.18,12.03,9.8,15.25,15.63,4.66,8.43,5.21,17.71,5.48,27.34.4,14.28-6.99,30.55-18.89,38.46-13,8.65-29.57,7.47-44.15,13.06-14.98,5.74-28.98,16.75-44.97,15.49-6.01-.48-11.72-1.7-17.33-3.9-8.49-3.33-17.31-5.89-23.36-12.71-7.24-8.17-9.28-21.56-11.03-32.33-.48-2.93-.95-5.91-.53-8.85.55-3.86,2.6-7.32,4.54-10.7,10.6-18.5,16.45-42.61,22.63-63.02,2.22-7.35,6.92-10.63,11.83-16.53,2.72-3.26,6.41-6.24,6.84-10.46.21-2.09-.44-4.15-1.09-6.15-1.26-3.91-2.52-7.81-3.79-11.72-.66-2.03-1.42-4.22-3.19-5.41s-4.81-.6-5.18,1.5"/>
        <path class="cls-44" d="M274.573,98.559c-10.1,4.18-17.57,11.76-23.92,20.46-3.2,4.39-6.14,8.97-9.19,13.46-3.28,4.83-6.67,9.58-9.92,14.43-3.19,4.77-6.25,9.63-8.93,14.71-1.38,2.6-2.66,5.25-3.83,7.96-1.13,2.62-2.05,5.32-3.16,7.95-2.09,4.93-4.91,9.52-6.82,14.54-2.1,5.53-1.95,11.54-1.62,17.35.37,6.52.85,13.03,1.15,19.55s.61,12.68,1.44,18.97c1.52,11.56,4.96,22.66,11.78,32.22,13.15,18.42,34.33,29.02,56.07,33.55,12.77,2.66,25.85,3.51,38.87,3.67,6.7.08,13.3-.16,19.94-1.12s12.92-2.41,19.28-4.07c12.09-3.16,23.13-9.05,33.51-15.88,9.23-6.08,18.09-12.84,25.84-20.75,16.36-16.71,26.81-38.86,27.97-62.35.61-12.37-1.74-24.34-6.43-35.76-2.41-5.88-5.17-11.61-7.46-17.54-1.11-2.87-2.06-5.78-2.88-8.74s-1.58-5.8-2.84-8.54c-2.35-5.14-6.69-8.76-11.15-12.04-2.16-1.59-4.38-3.11-6.45-4.82-2.37-1.96-4.51-4.18-6.68-6.36-4.37-4.4-9.01-8.17-14.62-10.87-5.37-2.58-11.07-4.36-16.75-6.12-24.61-7.62-50.51-15.27-76.41-9.95-5.87,1.21-11.56,3.13-16.94,5.75-1.32.64-1.29,2.8,0,3.45,2.65,1.33,4.14,3.79,5.14,6.5,1.17,3.15,1.86,6.45,3,9.6,1.17,3.24,2.8,6.36,5.58,8.5,3.57,2.74,8.08,3.18,12.43,2.79s8.94-1.53,13.47-1.36c4.4.16,8.63,1.69,12.42,3.87,8.22,4.73,14.19,12.2,20.27,19.29,3.1,3.62,6.28,7.19,9.88,10.33s7.92,5.78,12.18,8.29c4.12,2.43,7.84,5.21,11.47,8.32,3.5,3,7.05,6.23,9.57,10.14,5.27,8.18,5.82,18.54,5.99,27.98.15,8.28-2.25,16.6-6.41,23.74-4.35,7.46-10.69,13.27-18.79,16.42-8.68,3.38-18.05,4.24-27.07,6.32-9.34,2.15-17.7,6.43-26.24,10.64-8.19,4.04-16.93,7.98-26.28,7.6-5.08-.2-10.18-1.23-15-2.81-4.43-1.45-8.87-3.18-13.14-5.03-4.08-1.77-8.07-3.92-11.25-7.08-2.92-2.9-4.99-6.57-6.47-10.38-1.59-4.09-2.64-8.37-3.49-12.66s-1.77-8.82-2.18-13.24c-.24-2.57-.05-5.02.82-7.47.82-2.29,2.07-4.41,3.28-6.52,2.32-4.06,4.39-8.25,6.25-12.54,3.91-9.03,7.01-18.37,9.86-27.77,1.4-4.62,2.74-9.26,4.09-13.9.65-2.25,1.31-4.5,1.98-6.75.64-2.14,1.21-4.31,2.23-6.31,1.91-3.7,4.88-6.59,7.66-9.63,1.51-1.65,2.94-3.38,4.45-5.03,1.49-1.64,3.05-3.34,4.05-5.33,1.1-2.19,1.45-4.47,1.09-6.89-.39-2.62-1.42-5.16-2.23-7.67-.86-2.66-1.71-5.31-2.57-7.97-.68-2.09-1.47-4.3-3.12-5.83-2.71-2.52-8.13-2.2-9.11,1.92-.6,2.5,3.26,3.57,3.86,1.06.24-1.03,1.81-.67,2.42-.16,1.67,1.39,2.14,4.23,2.77,6.18.86,2.66,1.72,5.31,2.57,7.97.75,2.33,1.93,4.96,1.51,7.46-.34,1.98-1.63,3.67-2.91,5.15-1.45,1.67-2.94,3.31-4.4,4.97-2.85,3.24-6.04,6.22-8.39,9.87-2.51,3.91-3.56,8.52-4.85,12.93-1.35,4.6-2.67,9.21-4.04,13.81-2.82,9.47-5.81,18.92-9.6,28.06-1.78,4.3-3.77,8.53-6.02,12.61-2.39,4.33-5.13,8.55-5.66,13.58-.51,4.8.78,9.84,1.6,14.55.76,4.38,1.65,8.75,2.97,13,1.26,4.07,2.92,8.12,5.35,11.64,2.59,3.77,6.01,6.77,9.95,9.08,4.02,2.35,8.42,3.99,12.77,5.64,4.72,1.78,9.35,3.54,14.33,4.47,4.92.92,9.89,1.38,14.86.71,4.64-.63,9.1-2.06,13.42-3.86,8.78-3.66,16.94-8.77,25.93-11.94,8.9-3.14,18.37-3.96,27.49-6.23,8.78-2.19,16.95-6.04,23.07-12.86,5.74-6.4,9.7-14.46,11.5-22.86.92-4.3,1.17-8.61,1.02-13-.17-5.01-.5-10.05-1.54-14.97-.98-4.65-2.65-9.38-5.35-13.32-2.73-3.98-6.28-7.33-9.93-10.44-3.72-3.18-7.53-6.1-11.74-8.59-4.2-2.49-8.39-4.9-12.06-8.16-13.61-12.08-23.25-32.05-43.31-34.25-4.6-.5-9.13.52-13.67,1.07-3.96.48-8.54.77-11.81-1.96-2.39-2-3.57-5.02-4.48-7.91-1.04-3.3-1.82-6.67-3.22-9.84-1.29-2.92-3.3-5.52-6.2-6.97v3.45c22.62-11.02,48.79-7.22,72.13-.8,6.24,1.72,12.42,3.63,18.6,5.54,5.53,1.71,11.11,3.43,16.3,6.04,2.59,1.31,5.11,2.82,7.37,4.66,2.28,1.86,4.35,3.97,6.42,6.05,2.04,2.05,4.09,4.09,6.34,5.9,2.11,1.69,4.32,3.25,6.5,4.84,4.2,3.08,8.17,6.5,10.18,11.44,1.09,2.7,1.74,5.55,2.54,8.34.88,3.04,1.95,6.02,3.13,8.96,4.51,11.23,10.17,21.92,12.19,33.99,3.78,22.54-3.03,46.41-16.3,64.77-6.22,8.61-13.96,16.07-22.3,22.62-8.86,6.97-18.49,13.35-28.64,18.26-5.44,2.64-11.09,4.7-16.94,6.21-6.28,1.62-12.63,3.06-19.06,3.96-6.35.89-12.7.99-19.1.9-6.28-.09-12.57-.34-18.83-.89-22.4-1.96-45.19-8.21-62.23-23.57-7.59-6.84-13.76-15.29-17.21-24.95-4.11-11.5-4.67-23.81-5.22-35.89-.29-6.38-.8-12.75-1.14-19.13-.17-3.22-.22-6.46.04-9.68.2-2.38.85-4.61,1.74-6.82,1.92-4.79,4.65-9.21,6.6-13.98,2.13-5.22,4.15-10.38,6.82-15.36,5.35-9.98,12.1-19.08,18.45-28.42,5.73-8.43,11.06-17.36,18.62-24.33,3.58-3.3,7.7-6.06,12.21-7.93,1-.41,1.71-1.33,1.4-2.46-.26-.94-1.46-1.81-2.46-1.4h-.02,0Z"/>
      </g>
      <path class="cls-6" d="M246.144,116.939c-13.49,18.27-34.36,46.69-36.4,60.59s-7.13,28.31-3.92,55.25c3.21,26.94,3.21,40.55,21.83,59.92,16.65,17.32,34.93,16.9,56.11,23.28s36.11,6.15,64.49-.07,47.62-21.18,63.47-32.78c15.85-11.59,19.7-31.05,25.91-52.06s6.23-50.81-3.97-68.91-16.2-29.42-42.11-47.02c-19.47-13.23-53.94-30.3-101.02-23.84-20.7,2.84-35.93,14.16-44.4,25.63h0l.01.01h0Z"/>
      <g class="cls-26">
        <path class="cls-18" d="M243.233,207.949c5.12-9.07,9.6-18.41,13.6-28.02,1.75-4.19,3.74-8.26,3.51-12.92-.29-5.8-3.88-10.99-9.61-12.53-10.8-2.91-18.34,8.92-22.53,17.1-4.49,8.74-6.84,18.07-7.26,27.87-.27,6.21,5.48,11.5,11.5,11.5,6.45,0,11.23-5.27,11.5-11.5.39-9.06,3.8-19.1,10.52-25.47-1.69.99-3.38,1.97-5.07,2.96l.96-.37h-6.11l.77.18c-1.69-.99-3.38-1.97-5.07-2.96l.51.55-2.96-5.07c-.44-1.3.7-2.95-.37-1.55-.86,1.12-1.18,3.03-1.74,4.37-1.06,2.55-2.2,5.08-3.37,7.58-2.65,5.68-5.56,11.23-8.64,16.69-7.29,12.91,12.57,24.51,19.86,11.61h0v-.02h0Z"/>
      </g>
      <g class="cls-26">
        <path class="cls-18" d="M347.364,144.569c6.68,9.63,15.37,17.9,26.09,22.89,6.09,2.83,12.59,5.04,19.16,2.23,7.51-3.21,10.7-11.08,9.28-18.84-1.94-10.64-10.93-20.28-20.5-24.83-5.67-2.69-12.09-4.64-18.4-3.59-7.7,1.28-14.31,8.05-13.56,16.22.57,6.19,4.88,11.5,11.5,11.5,5.78,0,12.07-5.28,11.5-11.5l-.1.45-2.96,5.07c-2.86,3.7-4.49-.02-2.22.95.16.07,2.04.57,2.68.82,1.46.57,3.57,1.73,4.97,2.88.91.75,2.2,2.17,2.93,3.2,2.48,3.51.4,4.92,5.62-.09,7.45-7.15,4.56-2.59,2.42-4.03-.84-.57-1.94-.91-2.85-1.38-2.32-1.21-4.64-2.56-6.72-4.15-3.43-2.63-6.53-5.89-8.99-9.44-3.53-5.1-10.08-7.43-15.73-4.13-5.05,2.95-7.68,10.6-4.13,15.73h0v.04h.01Z"/>
      </g>
      <g class="cls-26">
        <path class="cls-18" d="M316.752,303.679c13.39,3.27,27.11,1.77,39.46-4.36,6.64-3.29,13.88-8.33,14.17-16.5.27-7.62-5.54-13.46-12.48-15.58-11.58-3.54-25.8-.53-35.89,5.72-5.34,3.3-12.11,8.4-14.05,14.68-2.95,9.56,5.77,19.45,15.71,16.31,14.06-4.44,8.06-26.65-6.11-22.18l-.73.23,8.86,1.16-.74-.4,4.13,4.13-.38-.77,1.16,8.86c-1.26,2-1.2,2.2.18.6l1.1-1.01c.74-.61,1.63-1.23,2.48-1.75,2.2-1.35,4.37-2.32,6.84-3.01,2.53-.7,4.55-.96,7.31-.91.88.02,2.27.26,2.94.21-.4.16-.05.26,1.07.31-2.16-1.65-2.62-1.8-1.39-.45-.99-1.69-1.97-3.38-2.96-5.07l-.07-1.08c.52-1.93,1.05-3.87,1.57-5.8.06-.14,3.08-1.76-.83.5-1.16.67-2.31,1.37-3.52,1.95-2.26,1.07-4.67,1.79-7.1,2.34-4.84,1.09-9.84.87-14.64-.3-14.38-3.51-20.51,18.66-6.11,22.18h.02v-.01h0Z"/>
      </g>
      <g class="cls-26">
        <path class="cls-18" d="M90.754,258.809c15.38-6.11,26.04-20.41,25.54-37.33-.13-4.31-3.01-8.57-7.34-9.64-19.08-4.71-27.37,20.48-27.9,35.03-.47,12.87,19.53,12.85,20,0,.12-3.4.69-6.58,1.91-9.79.5-1.31,1.12-2.54,1.81-3.76.41-.74.85-1.47,1.32-2.17,1.25-1.02.43-1.03-2.46-.02-2.45-3.21-4.89-6.43-7.34-9.64.22,7.32-3.68,15.19-10.85,18.04-5.02,1.99-8.53,6.69-6.98,12.3,1.31,4.77,7.25,8.99,12.3,6.98,0,0-.01,0-.01,0Z"/>
      </g>
      <g class="cls-26">
        <path class="cls-18" d="M107.094,23.699c8.86.63,16.91,4.61,23.17,10.83,9.13,9.09,23.28-5.05,14.14-14.14-10.14-10.09-23.11-15.68-37.31-16.69-5.39-.39-10,4.87-10,10,0,5.73,4.59,9.61,10,10h0Z"/>
      </g>
      <g class="cls-26">
        <path class="cls-18" d="M19.224,106.589c.62,11.35-.53,22.3-3.61,33.24-3.5,12.41,15.8,17.71,19.29,5.32,3.53-12.52,5.03-25.57,4.32-38.56-.7-12.8-20.7-12.88-20,0h0Z"/>
      </g>
      <g class="cls-26">
        <path class="cls-10" d="M277.683,101.519c-12.08,5.82-22.07,14.1-29.64,25.19-6.61,9.67-13.98,18.78-19.78,29.05-7.24,12.81-13.35,25.91-15.47,40.61-1.87,1.05-3.07.85-3.04-1.63,2.08-20.31,12.4-37.07,23.18-53.59,8.08-12.39,17.32-23.88,27.64-34.49,2.54-2.61,5.75-4.28,8.79-6.19,10.88-6.84,22.41-10.92,35.63-10.73,12.74.18,25.21,1.32,37.48,4.68.32.36.42.72.29,1.07-.13.34-.25.51-.36.51-4.58.21-8.98-1.01-13.42-1.81-11.6-2.09-23.29-1.11-34.94-1.2-.88,1-1.01,2.49-2.13,3.33-2.51,1.55-5.54,1.62-8.15,2.92-2.13.48-4.35.71-6.06,2.28h-.02Z"/>
        <path class="cls-7" d="M378.252,106.119c3.98,1.22,7.29,3.65,10.53,6.07,14.2,10.58,27.58,21.79,37.18,37.23,4.59,7.39,8.06,15.17,11.48,22.97,2.97,6.77,3.07,14.44,3.96,21.78.16,1.34.11,3.24-1.83,3.32-1.84.08-1.99-1.67-2.22-3.09-.58-3.54-1.15-7.09-1.76-10.62-2.91-16.91-10.87-31.29-21.55-44.52-7.11-8.81-16.55-15.04-24.19-23.24-3.55-3.81-9.42-4.67-13.09-8.63.05-.94.73-1.16,1.49-1.28h0v.01h0Z"/>
        <path class="cls-46" d="M297.813,281.349c7.34-.24,13.93-2.09,19.71-7.14,5.71-4.99,13.36-5.12,20.4-5.65,6.07-.46,11.82-1.4,17.32-3.88,2.47-1.11,5.06-1.25,7.73-1.54-4.73,5.72-11.87,8.93-21.18,8.36-7.36-.46-13.57,2.04-19.58,5.58-2.66,1.57-5.02,3.5-8.26,4-3.5.54-5.11,3.89-7.69,5.83-2.79-.74-5.64.06-8.43-.32-1.82-.25-4.25-.32-4.34-2.74-.11-2.89,3.2-1.03,4.32-2.49h0v-.01h0Z"/>
        <path class="cls-10" d="M297.813,281.349c-.75.82-2.03,1.59-2.13,2.49-.15,1.38,1.4,1.53,2.51,1.66,2.72.3,5.55-.05,8.07,1.42-3.46,1.28-6.99,1.27-10.53.47-8.12-1.82-16.22-3.71-24.34-5.52-4.04-.9-7.29-3.44-10.92-5.17-5.38-2.58-10.03-2.4-14.33,1.89-1.41.27-2.13-.15-1.73-1.71.41-.49.83-.97,1.24-1.46,2.58-3.84,5.68-6.42,10.67-4.34,2.99.05,5.48,1.55,7.95,2.92,10.46,5.81,21.71,7.88,33.55,7.37v-.02h-.01Z"/>
        <path class="cls-9" d="M398.543,231.079c5.05,7.82,13,9.5,21.41,9.69,3.56.08,7.06-.4,10.26,1.61,1.17,3.21.1,4.15-3.04,3.02-5.02-.3-10.15,2.09-15.05-.53-4.77-2.56-9.92-2.67-15.12-2.6-1.84-.24-3.97-.01-4.23-2.71,1.27-2.81,2.24-5.86,5.74-6.78-.41-.39-.54-.77-.39-1.14.14-.37.29-.56.43-.56h-.01,0Z"/>
        <path class="cls-39" d="M209.744,194.749c1.02.54,2.03,1.09,3.05,1.63-4.01,15.27-2.77,30.66-1.01,46.06.42,1.16.7,2.62-.74,2.9-1.97.39-1.45-2.02-2.45-2.86-.34-.89-1.02-1.79-.97-2.65.49-9.33-3.7-18.48-.72-27.97.88-2.81-.13-6.15.24-9.19.33-2.74.28-5.77,2.6-7.92h0Z"/>
        <path class="cls-53" d="M289.043,123.219c8.49-.02,16.71,3.17,25.58-.49,5.1-2.1,10.75,1.86,14.84,6.12-.22.64-.64,1.08-1.28,1.3-11.47-1.81-23.03-2.48-34.63-2.81-2.03-.06-4.34.97-5.79-1.43-.83-1.5.07-2.17,1.28-2.69h0Z"/>
        <path class="cls-27" d="M244.412,276.869c.58.57,1.15,1.14,1.73,1.71-.16,2.73-1.3,5.17-2.98,7.14-3.27,3.86-3.72,7.97-2.22,12.61.34,1.05,1.13,2.14.55,3.38-1.12.51-2.17-.17-2.37-.92-1.45-5.28-5.77-7.58-10.03-9.95-2.11-1.17-4.05-2.5-5.32-4.58-.51-.83-.49-1.88.19-2.66.82-.94,1.67-.58,2.4.23.32.35.59.76.95,1.07,5.77,4.93,8.82,4.42,13.08-2.15,1.29-1.99,2.68-3.92,4.02-5.87h0v-.01Z"/>
        <path class="cls-22" d="M401.293,286.929c-6.96,6.2-14.37,11.54-23.14,15.19-6.16,2.56-12.34,5.16-18.45,7.89-.82-.68-2.17-1.08-1.34-2.6,14.82-5.51,28.87-12.45,41.47-22.11,1.39-.26,1.79.36,1.44,1.63h.02Z"/>
        <path class="cls-52" d="M248.894,301.489c1.86.4,3.77.63,5.56,1.23,7.24,2.45,14.32,5.34,21.73,7.34,7.1,1.92,14.19,3.82,21.49,5.05-4.69,1.5-9.38,1.24-13.91-.13-9.82-2.96-19.55-6.2-29.33-9.28-2.38-.75-4.33-1.98-5.51-4.24l-.02.03h-.01,0Z"/>
        <path class="cls-36" d="M277.683,101.519c1.12-1.87,2.58-3.37,4.61-4.25,3.6,1.4,6.26.16,8.24-2.95,1.16-.44,2.32-.89,3.49-1.33,1.85,2.99,2.37,5.9-1.17,7.99-2.99,1.76-3.66,4.89-5.06,7.62-2.78,3.43,2.07,8.65-2.73,11.6-.15-3.79-.14-7.6-.49-11.37-.44-4.87-1.59-5.95-6.89-7.31h0Z"/>
        <path class="cls-40" d="M427.174,245.399c1.57-.45,2.63-1.41,3.04-3.02,1.87-6.3,2.81-12.87,5.48-18.94,1.91-.11,1.58-4.23,4.51-2.51-.89,8.32-4.38,15.91-6.67,23.84-.46,1.59-1.28,3.07-.65,4.78-3.3,1.72-6.16,2.59-5.7-2.95-.03-.4-.03-.8,0-1.2h-.01Z"/>
        <path class="cls-28" d="M358.373,307.409c.45.87.89,1.73,1.34,2.6-13.28,4.95-27,7.35-41.25,6.83,13.32-3.13,27.15-4.1,39.92-9.43h-.01,0Z"/>
        <path class="cls-24" d="M208.593,242.479c1.07.76,2.15,1.98,3.19-.04,3.76,8.97,5.64,20.11,4.65,27.52-2.82-3.92-7.48-20.26-7.84-27.48h0Z"/>
        <path class="cls-27" d="M256.313,271.069c-3.56,1.45-7.11,2.9-10.67,4.34,2.38-7.29.1-13.48-4.29-19.32-2.62-3.48-2.45-3.61-2.64-10.04,3.57,5.86,7.1,10.77,9.66,16.15,1.86,3.91,4.5,6.62,7.93,8.87h.01,0Z"/>
        <path class="cls-47" d="M355.873,151.699c1.35-.8,2.93-1.07,3.77.35,4.08,6.88,11.18,10.7,16.35,16.47.16.4.31.8.47,1.2-.43-.07-.85-.13-1.28-.2-7.51-3.76-14.69-8.06-21.27-13.31.07-4.08.08-4.1,1.95-4.52h0l.01.01h0Z"/>
        <path class="cls-17" d="M355.873,151.699c-1.39,1.19-.41,3.4-1.95,4.52-4.1-3.65-6.89-8.36-10.35-12.53-4.4-5.29-9.66-9.7-15.38-13.54.43-.43.86-.86,1.28-1.3,7.25,2.15,11.6,7.88,16.21,13.25,3.06,3.57,5.67,7.59,10.2,9.59h0l-.01.01h0Z"/>
        <path class="cls-9" d="M427.174,246.599c1.09,2.56,3.21,3.12,5.7,2.95-3.29,6.42-6.25,13.04-12.11,19.58-.8-5.45,1.36-8.62,2.82-11.82,1.59-3.47,1.29-7.52,3.59-10.71h0Z"/>
        <path class="cls-36" d="M289.043,123.219c-.43.9-.85,1.8-1.28,2.69-3.99,3.21-5.56,8.32-9.24,11.78-.86.81-1.5,1.88-2.43,2.57-.82.62-1.87.36-2.59-.4-.57-.6-.36-1.41.07-1.97,1-1.33,2.17-2.53,3.17-3.87,3-4.02,6.27-7.86,8.29-12.53.8-.7,1.62-.71,2.46-.07.52.6,1.04,1.2,1.56,1.8h-.01Z"/>
        <path class="cls-45" d="M396.942,216.289c-.04-.48-.28-1.05-.1-1.42,4.27-8.89.44-16.64-3.36-24.41-.42-.86-.73-1.77-1.09-2.66.19-.14.39-.29.58-.43,5.03,5.07,6.56,11.86,8.78,18.27,1.49,4.3-.71,8.3-1.91,12.34-1.83.91-3.1.88-2.9-1.69Z"/>
        <path class="cls-47" d="M392.394,187.809c-5.33-6.47-11.27-12.38-17.21-18.28.27-.33.54-.66.8-1,2.39-.03,4.87-.09,6.33,2.26,3.47,5.58,8.42,10.22,10.65,16.59-.15.2-.34.34-.58.43h.01Z"/>
        <path class="cls-21" d="M261.873,164.819c1.41,4.97-1.27,9.16-2.51,13.66-1.56,5.7-3.14,11.35-6.18,16.48l.05.04c1.7-10.41,4.1-20.62,8.55-30.25l.09.08h0v-.01Z"/>
        <path class="cls-55" d="M247.793,206.579c-1.14,3.42-2.5,6.79-4.62,9.69-2.74,3.74-4.85,7.61-4.5,12.54-4.34-.97-3.75-3.47-2.26-5.86,3.51-5.66,7.23-11.2,10.87-16.78l.51.42h0v-.01Z"/>
        <path class="cls-35" d="M440.192,220.929c-1.59.68-2.2,3.11-4.51,2.51.9-4.64-.73-9.79,3.07-14.91,1.24,4.68,1.44,8.53,1.44,12.41h0v-.01Z"/>
        <path class="cls-19" d="M401.293,286.929c-.48-.54-.96-1.09-1.44-1.63,2.74-3.13,5.37-6.45,11.19-5.91-2.76,4.15-5.67,6.57-9.75,7.54Z"/>
        <path class="cls-50" d="M342.394,95.999c.02-.53.04-1.05.07-1.58,5.95,1.16,11.82,2.57,17.36,5.11,1.14.6,1.13,1.19-.03,1.75-5.89-1.44-11.95-2.37-17.39-5.29h-.01v.01h0Z"/>
        <path class="cls-57" d="M392.773,239.559c1.41.9,2.82,1.8,4.23,2.71-2.51,1.72-4.29,4.59-8.3,5.01-.15-3.53,1.88-5.66,4.07-7.72h0Z"/>
        <path class="cls-36" d="M267.584,147.489c-1.55,5.89-2.77,11.89-5.71,17.33l-.09-.08c.43-6.25,1-12.45,5.88-17.18l-.09-.07h.01,0Z"/>
        <path class="cls-11" d="M378.252,106.119c-.5.43-.99.85-1.49,1.28-3.11-1.88-7.2-1.17-10.03-3.78-1.14-.67-1.08-1.24.15-1.7,3.93,1,7.86,2.03,11.36,4.2h.01Z"/>
        <path class="cls-49" d="M398.543,231.079c-.01.57-.02,1.13-.03,1.7-4.18-.65-3.04-3.6-2.68-6.21,1.05-.86-.09-2.9,1.79-3.31,1.03,2.52.79,5.19.93,7.82h-.01Z"/>
        <path class="cls-41" d="M287.484,121.419c-.82.02-1.64.05-2.46.07-.03-.43-.02-.86.04-1.29,2.55-3.48-.15-8.2,2.73-11.6-.1,4.27-.2,8.54-.31,12.82h0Z"/>
        <path class="cls-49" d="M396.942,216.289c.97.56,1.93,1.13,2.9,1.69l-1.02,3.18c-1.4.03-2.22,1.31-3.48,1.64-.52-2.43-1.34-4.94,1.61-6.52h0l-.01.01h0Z"/>
        <path class="cls-29" d="M247.283,206.169c.68-2.85,2.06-5.26,4.42-7.06.77.54.81,1.13.13,1.77-.5,2.5-1.99,4.3-4.04,5.7l-.51-.41h0Z"/>
        <path class="cls-16" d="M366.894,101.919c-.05.57-.1,1.13-.15,1.7-2.32-.77-4.64-1.55-6.95-2.33,0-.58.02-1.17.03-1.75,2.49.41,4.99.78,7.08,2.38h-.01,0Z"/>
        <path class="cls-45" d="M395.334,222.809c.85-1.2,1.68-2.44,3.48-1.64-.4.7-.8,1.39-1.2,2.09-.59,1.1-1.19,2.21-1.78,3.31-.16-1.25-.33-2.5-.49-3.75h-.01v-.01Z"/>
        <path class="cls-36" d="M267.662,147.559c.1-1.46-.55-3.22,1.67-3.98.72,1.95-.84,2.79-1.75,3.91l.09.07h-.01Z"/>
        <path class="cls-52" d="M248.912,301.459c-.93-.1-1.88-.12-2.79-.34-.65-.16-1.35-.61-.79-1.44.11-.17.93-.05,1.28.16.8.47,1.52,1.09,2.27,1.65l.02-.03h.01,0Z"/>
        <path class="cls-21" d="M251.834,200.879c-.04-.59-.09-1.18-.13-1.77.09-1.53.58-2.91,1.53-4.12l-.05-.04c.1,2.1-.12,4.13-1.35,5.92h0v.01h0Z"/>
        <path class="cls-54" d="M290.532,94.329c-.42,2.77-2.29,4.58-4.28,6.48-2.03-.37-2.76-2.24-3.97-3.53,2.75-.98,5.5-1.97,8.24-2.95,0,0,.01,0,.01,0Z"/>
        <path class="cls-32" d="M398.532,237.719c-.27.7-.8,1.07-1.49.79-.7-.29-.88-1-.53-1.63.17-.31.72-.61,1.06-.57.74.09,1.03.67.97,1.41h-.01Z"/>
      </g>
      <g class="cls-26">
        <path class="cls-14" d="M132.024,199.929c-1.52,16.05-7.93,30.47-15.18,44.54-3.1,6.01-8,10.71-13.21,14.97-14.95,12.2-32.16,15.47-50.56,11.22-9.25-2.13-18.12-5.98-25.24-12.91-3.75-3.65-7.97-6.84-11.97-10.23-1.24-1.11-.67-2.52-.63-3.84,2.17-3.89-1.27-6.38-2.4-9.46-.32-4.35-2.27-9.4,4.43-10.9,4.77,1.79,3.67,6.73,5.13,10.17,6.46,15.31,15.4,20.81,32.15,19.01,1.89-.2,3.7-1.04,5.66-.75,1.53.45,2.75,1.33,3.59,2.71.32.72.39,1.48.26,2.26-.83,2.67-2.54,4.55-5.11,5.63-4.84,1.68-10.75.88-17.72-2.39,24.26,12.08,53.11,4.3,67.14-14.52,8.12-10.89,12.83-23.41,16.4-36.45,1.05-3.84-.24-9.07,5.13-10.98,1.27.02,1.8.85,2.1,1.92h.03Z"/>
        <path class="cls-8" d="M2.924,233.089c-3.25-9.86-3.41-19.85-2.31-30.15,3.06-28.84,10.41-56.94,14.44-85.6,1.93-13.74,3.9-27.45,6.55-41.09,3.84-19.8,13.12-36.87,25.28-52.48,5.64-7.25,13.76-11.78,22-15.67,4.25-2,7.98-5.53,13.18-5.15,1.97.69,4.33-.38,6.07,1.37.24,4.6-3.52,4.22-6.3,5.13-13.74,4.46-26.9,9.78-34.43,23.38-1.97,2.88-1.98,6.96-5.43,8.95-11.52,16.72-15.3,36.08-18.07,55.53-3.69,25.85-8.21,51.53-13.2,77.16-3.44,17.67-6.48,35.53-2.95,53.65.28,1.44.29,2.86-.55,4.16-1.2,1.41-2.52,2.2-4.25.8h-.03v.01h0Z"/>
        <path class="cls-13" d="M88.054,4.439c-2.07-.23-4.17-.29-6-1.49,6.94-1.84,14.11-2.44,21.19-2.85,39.64-2.27,60.62,34.82,59.3,60.34-.93,17.98-5.92,34.7-10.23,51.76-.76.44-1.48.37-2.14-.21-2.32-2.85-.61-6.01-.7-9.03,1.59-8.46,4.42-16.68,5.58-25.2,2.37-17.32,2.7-34.25-8.54-49.48-11.95-16.2-28.02-22.26-47.45-21.22-3.95.21-8.2,1.84-11.01-2.63h0v.01h0Z"/>
        <path class="cls-14" d="M150.754,112.219h1.56c-2.13,5.83-4.36,11.63-6.35,17.51-.71,2.09-7.77,29.02-9.07,37.9-1.24,8.48-1.42,17.17-4.68,25.28-.83.41-1.62.33-2.36-.23-1.01-.86-1.59-1.96-1.75-3.28,1.53-14.02,5.75-27.6,6.88-41.71.2-2.48.8-4.78-.55-7.06-.59-1.13-1.16-2.27-1.06-3.61,1.19-2.99,1.67-5.97,1.69-9.32.06-12.1,2.56-24.12,1.28-36.29-.31-2.95,1.73-5.43,1.79-8.31-.02-.83-.03-1.67-.06-2.49-1.33-5.89,3.45-10.39,3.63-15.94.02-3.64-.42-7.49,4.09-9.12.86-.06,1.62.18,2.3.7,1.43,1.43,2.83,2.89,2.87,5.09-2.07,10.05-3.06,20.31-5.15,30.36-2.04,9.85-1.22,19.87-2.23,29.77.42-2.51.52-5.16,2.16-7.32,1.47-1.16,2.82-2.61,4.99-1.94h.02v.01h0Z"/>
        <path class="cls-30" d="M2.924,233.089c.97-.47,1.94-.94,2.91-1.41,8.27.29,9.6,6.81,11.5,12.81-.49,1.01-.98,2.02-1.47,3.03-1.58-2.03-3.1-4.11-4.76-6.08-1.47-1.75-2.54-3.97-5.34-4.18-2.49-.19-2.59-2.3-2.85-4.17h.01Z"/>
        <path class="cls-34" d="M131.313,192.909c.3.02.6,0,.9,0,.31,2.35.33,4.7-.19,7.03-.44-.56-.88-1.13-1.31-1.69-1.45-1.96-1.58-3.78.6-5.33v-.01Z"/>
        <path class="cls-32" d="M17.334,244.489c-4.5-3.67-7.31-8.87-11.5-12.81-3.87-6.81-3.71-14.35-3.22-21.69.99-14.8,3.16-29.47,6.11-44.02,4.51-22.25,8.45-44.6,11.3-67.14,1.35-10.69,3.8-21.19,6.3-31.66,1.96-8.2,5.64-15.74,9.74-23.06,1.26-2.24,2.35-4.86,5.55-5.04,5.01.23,7.43-3.17,9.98-6.73,8.54-11.88,20.16-19.98,34.77-16.67,13.65,3.09,27.36,7.93,38.85,16.86,3.75,2.92,7.5,5.82,10.94,9.17,6.65,6.48,11.13,13.42,8.01,23.16-1,5.39-1.99,10.77-2.99,16.16-5.21-2.74-4.55-7.97-5.1-12.54-1.47-12.22-9.05-21.76-20.21-24.44.54,3.57,3.24,5.13,5.27,7.22,5.7,5.89,3.96,16.82-3.16,20.48-4.73-1.48-5.98-6.12-7.44-9.72-3.41-8.37-8.99-15.05-14.88-21.5-5.02-5.51-17.67-8.3-23.88-4.43-6.17,3.85-13.39,7.86-12.21,17.46.46,3.71-2.09,6.71-3.7,9.85-1.08.77-2.35,1.24-3.37,2.12.86-.59,1.74-1.15,2.78-1.38,6.05,1.67,4.59,8.05,7.39,11.75,3.54,6.23,7.53,11.98,12.5,17.35,5.46,5.89,12.87,7.08,19.23,10.62,4.25,2.36,14.12-3.78,17.31-9.33,1.11-1.93,1.27-4.1,2.07-6.1,3.13-4.53.7-10.3,3.3-14.93,4.05-1.52,5.21,1.15,5.49,4.2.52,5.73,1.33,11.41,2.58,16.99,1.76,7.83-9.46,16.84-16.33,19.5-2.65,1.03-5.51,1.6-9.47,1.22,2.26,1.95,4.09,2.61,6,3.16,15.9,4.61,18.48,8.86,18.66,25.19.13,11.97-4.96,20.96-12.68,29.18-2.03,2.17-4.4,3.83-7.27,4.3-4.33.7-7.61,2.48-9.44,6.68-.85,1.95-2.73,2.54-4.81,2.4-4-.74-3.95-4.32-4.93-7.14-2.37-6.8-4.63-13.64-10.31-18.62-9-7.9-17.13-7.07-24.64,2.19-7.19,8.86-12.47,18.6-15.08,29.74-2.03,8.68-.48,16.62,4.97,23.74.58.76-.18-.15.47.54,2.74,2.87,2.46,8.3,7.07,9.37,5.22,1.22,9.69-2.05,14.29-3.78,2.4-.9,5.03-1.56,7.22-3.07,10.53-5.63,15.7-14.9,17.91-26.22.42-2.07-.11-4.41,1.73-6.07,15.95-1.88,24.48-12.07,31.3-25.7,3.83-7.65,3.42-15.16,4.74-22.85,1.22-7.11,4.35-13.76,4.66-21.37.32-7.87,1.27-15.64-.09-23.5-.49-2.84.16-5.7,1.31-8.4,2.31-5.43,4.83-6.19,10.5-3.12-2.07,16.49-2.74,33.06-2.6,49.66.03,3.09-1.33,4.83-3.5,6.43,2.01,19.03-4.68,34.94-17.46,48.66-4.83,5.71-11.15,9.67-16.97,14.21-10.85,8.46-19.19,18.44-22.36,32.31-1.44,6.28-4.27,12.12-9.15,16.81-2.51,2.41-5.23,3.94-8.53,4.64-13.83,4.48-25.38-2.23-37.17-7.63-1.46-.67-1.81-2.11-1.89-3.63-.32-6.53-2.28-12.71-4.12-18.91-6.98-11.46-6.49-23.73-4.02-36.25,1.68-8.52,7.25-14.91,11.82-21.85,7.96-14.92,15.11-30.03,16.89-47.28,1.06-10.23,1.94-20.3.04-30.46,5.4-4.27,9.2-3.99,11.41,2.31,2.35,6.68,5.61,10.82,12.44,10.28-3.38-3.06-7.42-6.49-10.31-10.95-3.42-5.28-7.69-6.76-13.29-3.55-3.8-3.56-1.16-8.12-1.85-12.17-.45-2.62.97-5.16.72-7.31-1.26,9.08-.69,18.39,1.72,27.93,2.6,10.28.57,21.28-1.67,31.19-3.11,13.76-8.01,27.44-15.82,39.64-13.41,16.19-16.79,34.15-10.94,54.45,1.28,4.43.86,9.62,2.81,14.18.82,3.23,2.97,6.44.23,9.75l-.02-.03h0Z"/>
        <path class="cls-32" d="M131.313,192.909c-.2,1.78-.4,3.55-.6,5.33-2.4,10.97-5.4,21.72-9.66,32.18-6.04,14.81-15.36,26.91-29.84,33.46-13.29,6.02-27.68,7.65-41.93,2.29-6.36-2.39-12.77-4.89-17.54-10.25,5.22.55,10.28,1.53,15.01,3.68,3.77,1.72,7.32,2.07,10.79-.58,1.87-.96,4.15-1.14,5.63-2.87l.02-.02c7.71-8.62,12.54-18.47,15.44-29.82,1.86-7.29,5.91-14.46,13.51-18.23,7.92.74,11.73-5.33,16.19-10.03,4.5-4.73,9.76-8.71,13.72-13.96,1.65-2.19,3.42-4.18,6.47-3.02,2.97,1.13,3.14,3.84,3.14,6.53,0,.96-.09,1.89-.62,2.72.09.86.18,1.72.27,2.59h0Z"/>
        <path class="cls-42" d="M91.484,209.949c-7.22,5.94-11.64,13.6-13.66,22.66-2.14,9.56-6.09,17.96-14.63,23.52-.94-.46-1.89-.92-2.83-1.38,9.1-7.08,13.84-16.35,16.45-27.66,1.97-8.54,7.51-15.98,14.54-21.74,7.95-6.52,16.3-12.57,23.84-19.6,1.35-.38,1.96.41,2.39,1.51-6.71,9.86-14.32,18.67-26.1,22.7h0v-.01h0Z"/>
        <path class="cls-10" d="M17.114,234.729c-3.1-4.2-4.28-9.15-4.89-14.12-1.14-9.23-2.78-18.36-1.33-27.85,1.63-10.69,6.84-19.23,13.58-27.18.92.13,1.46.66,1.61,1.58-7.77,10.21-13.41,21.2-13.06,34.5.15,5.73.72,11.38,3.12,16.66.93,2.04.87,4.15,1.05,6.26-1.99.93-1.42,2.57-1.14,4.13.36,2.01.71,4.02,1.07,6.02h-.01Z"/>
        <path class="cls-42" d="M63.174,256.149c-1.35,1.99-3.12,3.16-5.63,2.87,1.61-1.48,3.49-2.42,5.63-2.87Z"/>
        <path class="cls-43" d="M148.343,115.459c-1.91,5.33-3.81,10.66-5.72,15.99-.4-.03-.81-.05-1.21-.08-.15-1.74-.36-3.48-.43-5.23-.87-21.65,2.05-42.94,6.05-64.13.61-2,.86-4-.17-5.95l-.02-.07c-11.68-18.47-28.24-30.31-49.19-36.12-1.12-.31-2.23-.66-3.27-1.09-14.58-6.02-29.78-1.89-39,10.69-1.55,2.12-3.11,4.24-4.85,6.21-1.35,1.53-3.05,2.61-5.04,1.47-2.35-1.35-2.28-3.34-.79-5.41,3.57-6.7,9.03-11.55,15.34-15.51,8.69-5.45,17.8-9.94,28.01-11.79,2.62-.12,5.28.02,7.85-.39,15.13-2.41,29.31.3,41.41,9.61,13.86,10.66,21.79,24.87,22.58,42.85.72,16.31-2.61,31.82-7.69,47.1-4.02,3.06-2.61,7.88-3.86,11.84h0s0,.01,0,.01Z"/>
        <path class="cls-15" d="M44.704,31.739c.26,1.39.24,2.99,1.98,3.48,1.29.37,2.39-.26,3.21-1.15,1.29-1.4,2.64-2.82,3.6-4.45,6.08-10.3,16.86-12.75,26.99-16.25.84-.29,1.93-.16,2.84.05,21.3,5.07,41.2,12.9,56.31,29.64,3.32,3.68,6.96,7.42,7.21,12.92-2.22,2.55-.57,6.27-2.67,8.85,1.14-8.15-2.71-14.27-7.96-19.89-9.37-10.04-20.67-17.01-33.54-21.59-4.06-1.44-8.1-2.92-12.15-4.37-6.87-2.45-13.36-2.12-20.17,1.04-7.23,3.35-13.03,7.85-17.17,14.61-1.66,2.71-3.81,4.89-7.09,5.71-1.83.46-3.3.25-4.47-1.31-.18-2.95.95-5.35,3.08-7.33v.04h0Z"/>
        <path class="cls-59" d="M148.343,115.459c-1.73-8.01-1.45-8.89,3.86-11.84-.48,2.87-.96,5.73-1.44,8.6-.8,1.08-1.61,2.16-2.41,3.24h-.01Z"/>
        <path class="cls-32" d="M140.944,82.029c-6.59,1.69-9.55,4.65-8.18,11,2.54,11.82-1.04,23.35-.44,35.01.13,2.48-.71,4.67-2.42,6.55-3.22,3.56-3.81,7.45-1.72,11.91,2.16,4.61,1.93,8.79-3.05,11.75-.94.56-2.01,1.79-2.08,2.78-.42,6.06-6.53,9.51-6.97,15.5-.02.23-.11.51-.27.66-6.34,5.88-13.62,10.32-21.63,13.45-2.53.99-3.56-1.77-4.74-3.52-.37-.29-.52-.6-.43-.93.09-.34.19-.51.3-.51,2.06-1.61,2.6-3.9,2.87-6.33.38-3.46,2.54-4.93,5.83-5.1,9.84-.49,14.84-6.47,18.95-14.86,3.09-6.3,4.24-12.53,4.24-19.23,0-9.38-5.28-15.99-14.5-17.47-4.18-.67-7.86-1.33-10.47-5.09-1.74-2.52-5.04-2.28-7.74-2.89.54-2.7,2.23-1.81,3.48-1.85,4.54-.14,9.03-.67,13.51-1.44,6.39-1.11,10.14-5.98,14.43-10.01,1.38-1.29,1.8-3.44,1.55-5.38-.97-7.55-2.07-15.09-3.12-22.64-1.09-.73-1.14-1.63-.44-2.66.76-1.76,1.79-3.45,2.23-5.28,1.24-5.09,1.48-9.95-3.68-13.46-1.74-1.18-2.97-3.1-4.51-4.61-1.83-1.8-2.61-3.99-2.53-6.49.06-1.85-.46-4.12,1.83-4.98,1.79-.67,3.25.58,4.38,1.82,2.21,2.43,4.92,3.7,8.11,4.18,1.71.26,3.18,1.16,4.26,2.49,5.56,6.83,10.34,14.07,11.57,23.06.62,4.5,1.08,9.02,1.61,13.53.04.37-.04.71-.25,1.03h.02v.01h0Z"/>
        <path class="cls-59" d="M91.484,209.949c5.78-4.85,11.64-9.6,17.31-14.58,2.83-2.48,5.78-4.9,7.9-8.1,1.17-4.36,5.23-6.75,7.18-10.57,4.54-8.94,9.03-17.83,7.9-28.45-.39-3.63-.23-7.83,4.95-8.72,1.8,2.33,1.61,5.05,1.05,7.59-2.92,13.36-3.65,27.02-5.92,40.46-.16.93-.54,1.83-.81,2.74-.14-1.18-.07-2.44-.46-3.53-1.35-3.74-3.53-4.38-6.3-1.61-5.71,5.7-11.53,11.32-16.72,17.47-4.36,5.16-9.25,8.07-16.07,7.31h0l-.01-.01h0Z"/>
        <path class="cls-17" d="M136.713,139.529c-3.59,2.76-4.33,6.6-4.26,10.83.24,14.64-5.21,26.87-15.76,36.91-.5-.51-1-1.01-1.5-1.52,2.4-4.17,6.42-7.08,8.6-11.46,4.19-8.42,8.11-16.8,7.26-26.65-.31-3.58.25-7.26,3.78-9.53.63.47,1.25.94,1.88,1.41h0v.01Z"/>
        <path class="cls-15" d="M146.864,56.059c1.24,1.95,1.2,3.94.17,5.95-.06-1.98-.11-3.97-.17-5.95Z"/>
        <path class="cls-32" d="M45.934,248.929c-6.47.96-12.62-.14-15.3-6.5-3.47-8.23-9.86-15.62-7.78-25.77,1.11-5.43-1.28-10.11-5.23-14.21-4.21-4.36-4.02-6.95.49-10.83,2.66-2.28,4.73-4.58,5.3-8.14.23-1.44,1.24-2.86,2.99-2.23,1.82.66,1.62,2.36.67,3.53-2.92,3.61-2.68,8.09-3.59,12.24-.97,4.42-.72,8.62,3.52,11.54,2.01,1.38,2.45,3.29,2.2,5.64-.52,4.88,1.51,8.8,4.93,12.16,3.06,3,6.16,5.78,6.07,10.84-.06,3.27,3.23,3.62,5.41,2.59,5.42-2.54,11.7-2.66,16.73-6.19.76-.54,1.68-.92,2.58-1.18,1.25-.36,2.39,0,3.1,1.15.73,1.18.48,2.64-.49,3.25-4.54,2.85-7.49,7.26-11.22,10.88-2.67,2.59-6.89,1.03-10.37,1.24h0l-.01-.01Z"/>
        <path class="cls-32" d="M103.524,149.629c-.11,6.04-3.44,8.6-8.44,6.2-4.49-2.15-9.44-3.6-13.5-6.01-4.89-2.9-9.19-7.69-11.85-13.06-1.69-3.41-2.71-7.07-5.68-9.74-.87-.78-1.47-2.06-.71-3.24.91-1.41,2.46-1.45,3.84-.93,1.31.5,2.68,1.17,3.66,2.13,7.1,7,15.86,11.26,24.76,15.33,1.51.69,2.87,1.71,4.33,2.52,2.86,1.6,3.77,4.15,3.6,6.79h-.01v.01Z"/>
        <path class="cls-30" d="M110.034,161.639c-2.2,3.42-4.66,5.18-8.4,5-3.13-.15-6.25-.42-9.12-1.74-9.42-4.36-17.81-10.05-24.91-17.81-6.87-7.51-12.9-15.37-16.22-25.12-.81-2.38-1.18-4.55-.16-6.94,1.87-4.39,4.2-5.83,8.97-5.29,4.14.47,7.84,2.14,11.39,4.19,9.14,5.27,18.14,10.76,28.86,12.42,3.33.52,6.19,2.57,8.97,4.42,4.35,2.89,6.49,7.07,5.57,12.34-.79,4.54-1.19,9.3-5.08,13.91-.58-4.1.97-6.66,1.62-9.35,2.73-11.24-2.84-15.56-12.5-17.5-.64-.13-1.89-.04-1.95.19-1.79,6.66-4.81,1.47-6.39.29-6.52-4.86-14.06-8.23-19.99-13.97-2.26-2.18-5.56-2.69-8.68-3.12-6.89-.95-9.56,2.05-7.67,8.64,1.07,3.72,2.78,7.19,4.93,10.36,8.06,11.89,17.93,21.81,31.13,28.02,7.56,3.56,10.89,3.8,19.63,1.06h0Z"/>
        <path class="cls-31" d="M89.323,185.679c.04.48.09.96.13,1.44-.14,2.35-.28,4.69-.42,7.04-4.03.29-5.3-2.34-5.94-5.61-1.14-8.97-4.01-17.22-10.58-23.74-6.86-6.81-13.28-7.02-19.85-.07-11.63,12.33-17.55,26.7-13.22,43.85,3.15,12.44,9.99,15.7,21.88,11.07,2.58-1,5.07-3.06,8.06-1.02.86.76,1.4,1.63.91,2.82-4.43,2.91-9.36,4.82-14.26,6.66-6.65,2.5-10.41,1.15-14.87-4.02-11.04-12.83-11.75-26.96-6.21-42.29,3.24-8.97,8.47-16.52,14.79-23.42,7.46-8.16,16.88-8.28,25.25-.95,6.79,5.95,10.36,13.57,12.69,22,.57,2.07,1.09,4.16,1.63,6.24h.01Z"/>
        <path class="cls-32" d="M43.054,86.579c.23-.68.35-1.41.7-2.02,4.41-7.61,6.15-7.75,11.19-.63,4.29,6.06,9.3,11.45,14.58,16.63,2,1.96,4.44,3.61,5.89,7.27-5.69-2.81-11.05-3.63-16.7-3.2-4.51.34-5.71-.87-6.75-5.49-.26-1.16-.27-2.38-.54-3.53-1.02-4.28-3.18-7.44-8.02-7.83-.4-.18-.58-.41-.55-.71.03-.33.1-.49.21-.49,0,0-.01,0-.01,0Z"/>
        <path class="cls-38" d="M117.903,70.729c.15.89.29,1.77.44,2.66-.33,5.78,1.35,11.78-1.86,17.24-.71.51-1.45.56-2.23.15-1.41-.92-1.99-2.31-2.2-3.9-.46-4.17-.11-8.38-.53-12.56-1.77-13.69-9.9-23.79-19.74-32.24-10.83-9.3-25.14-4.23-29.52,9.59-1.81,5.72-1.28,11.31.61,16.9.89,2.63,2.71,5.27.56,8.14-.79.83-1.67,1.33-2.84.82-3.49-3.69-3.16-9.05-5.78-13.12-.48-.21-.65-.44-.51-.7.14-.26.28-.4.44-.4.36-3.07.75-6.14,1.07-9.21,1.1-10.37,6.07-18.03,16.08-21.54,9.94-3.49,18.85-.94,26.19,6.39,9.04,9.02,16.08,19.39,19.81,31.78,0,0,.01,0,.01,0Z"/>
        <path class="cls-12" d="M43.054,86.579c.05.42.16.82.35,1.2,3.19,12.38.13,24.71-.4,37.06-.12,2.79-1.12,5.62-2.11,8.29-3.31,8.96-6.76,17.88-10.23,26.78-1.05,2.69-2.69,5.05-4.58,7.24-.54-.53-1.08-1.05-1.61-1.58,6.29-11.86,12.14-24.22,14.76-37.19,2.6-12.87,4.53-26.25.72-39.73-2.96-10.51-.65-21.19,2.19-31.59.14,9.86-1.98,19.76.91,29.51h0s0,.01,0,.01Z"/>
        <path class="cls-32" d="M53.524,144.369c-.08,2.85-6.27,11.27-9.08,12.19-1.29.43-2.59.12-3.05-1.09-1.28-3.36-2.66-6.95-.07-10.21,2.28-2.87,4.2-5.78,4.87-9.44.28-1.53,1.22-2.68,2.92-2.58,1.54.09,2.78.92,3.08,2.53.51,2.82.88,5.66,1.33,8.6Z"/>
        <path class="cls-40" d="M114.454,90.659c.68,0,1.35-.02,2.03-.02-1.85,6.33-5.91,10.81-11.7,13.78-4.23,2.17-8.46,2.35-13.14.91-14.69-4.52-24.29-14.5-31.03-27.79.44-.45.88-.9,1.32-1.35,3.74-1.69,5.16,1.41,6.9,3.51,4.29,5.17,8.53,10.39,14.05,14.35,10.04,7.2,17.16,6.81,25.98-1.59,1.68-1.6,3.17-2.95,5.61-1.79h-.02v-.01h0Z"/>
        <path class="cls-51" d="M86.433,187.069c.87,2.36,1.74,4.72,2.61,7.08-1.02,12.68-7.78,21.44-18.73,27.31-.46-.44-.91-.88-1.37-1.32-1.52-3.24.92-5,2.82-6.62,6.68-5.7,10.95-12.53,11.32-21.55.09-2.16.71-4.32,3.36-4.91h0l-.01.01h0Z"/>
        <path class="cls-32" d="M54.744,63.309c.13.36.16.72.08,1.09-.65,3.07-3.15,4.63-5.26,6.53-1.72,1.54-3.36,1.73-4.9-.16-1.68-2.05-1.26-4.78,1.02-6.15,2.8-1.69,5.99-1.21,9.06-1.31h0Z"/>
        <path class="cls-32" d="M92.573,26.969c-.21.06-.46.22-.62.16-.18-.07-.42-.35-.4-.52.06-.67.43-.79.91-.3.13.13.07.44.1.67h0l.01-.01Z"/>
        <path class="cls-32" d="M86.433,187.069c.56,8.5-.37,16.74-6.29,23.33-3.28,3.66-7.44,6.52-11.21,9.75-3.3,1.39-6.58,2.84-9.92,4.16-8.36,3.3-14.93,1.18-19.64-6.65-6.51-10.82-6.57-22.25-2.48-33.88,3.06-8.7,7.71-16.42,14.27-22.99,6.5-6.51,13.04-6.99,20.45-1.36,9.17,6.97,13.55,16.47,14.81,27.66v-.02s.01,0,.01,0Z"/>
        <path class="cls-32" d="M114.454,90.659c-.71.95-1.52,1.84-2.12,2.85-6.17,10.41-14.7,12.36-27.72,5.89-7.81-3.88-13.41-10.5-18.51-17.46-1.4-1.91-2.79-3.84-4.18-5.76-3.95-8.2-5.65-16.66-3.04-25.64,2.21-7.58,6.72-12.98,14.34-15.67,8.38-2.96,15.56-.41,21.78,5.01,6.86,5.97,12.05,13.42,16.52,21.33,2.13,3.77,2.55,8.16,3.9,12.21.68,4.29.57,8.59.06,12.89-.34,1.45-.69,2.9-1.03,4.35Z"/>
        <path class="cls-40" d="M115.484,86.309c-.02-4.3-.04-8.59-.06-12.89,1.56,4.29,1.58,8.59.06,12.89Z"/>
        <path class="cls-7" d="M52.734,212.369c.43-3.85,5.29-5.02,4.54-8.81-.65-3.27-1.66-6.47-2.37-9.74-.51-2.33-.86-4.71-1.15-7.08-.12-.99.41-1.91,1.42-2.24,1.07-.35,1.9.27,2.28,1.19,3.11,7.5,4.35,15.19,1.65,23.07-.91,2.66-3.02,3.99-6.37,3.61Z"/>
        <path class="cls-25" d="M91.784,85.309c-1.41-1.27-2.01-1.55-2.05-1.89-.98-8.43-3.92-15.72-11.42-20.54-.81-.52-1.34-1.61-.82-2.51.86-1.49,2.16-.69,3.06-.05,8.27,5.88,11.68,13.99,11.23,24.99Z"/>
      </g>
      <line class="cls-2" x1="406.984" y1="177.129" x2="478.893" y2="177.129"/>
      <line class="cls-5" x1="406.984" y1="176.129" x2="478.893" y2="176.129"/>
      <line class="cls-2" x1="132.444" y1="22.179" x2="194.353" y2="22.179"/>
      <line class="cls-5" x1="132.444" y1="21.179" x2="194.353" y2="21.179"/>
      <g class="cls-23">
        <g class="cls-23">
          <g class="cls-23">
            <path d="M463.424,348.24h-1.055v-6.721c-.254.242-.587.484-.999.727s-.782.424-1.11.545v-1.02c.59-.277,1.105-.613,1.547-1.008s.754-.777.938-1.148h.68v8.625h-.001Z"/>
            <path d="M466.126,344.003c0-1.016.104-1.833.313-2.452s.52-1.097.932-1.433.931-.504,1.556-.504c.461,0,.865.093,1.213.278s.635.453.861.803.404.775.533,1.277.193,1.179.193,2.03c0,1.008-.104,1.821-.311,2.44s-.517,1.098-.929,1.436-.933.507-1.562.507c-.828,0-1.479-.297-1.951-.891-.566-.715-.85-1.879-.85-3.492h.002ZM467.209,344.003c0,1.41.165,2.349.495,2.815s.737.7,1.222.7.892-.234,1.222-.703.495-1.406.495-2.812c0-1.414-.165-2.354-.495-2.818s-.741-.697-1.233-.697c-.484,0-.871.205-1.16.615-.363.523-.545,1.49-.545,2.9h0Z"/>
            <path d="M481.6,342.017v6.223h-.943v-.738c-.203.312-.404.527-.604.645-.273.16-.592.24-.955.24-.324,0-.611-.064-.861-.193-.188-.098-.395-.291-.621-.58v3.012h-1.043v-8.607h1.043v2.637c0,.957.051,1.577.152,1.86s.267.507.495.671.491.246.788.246c.312,0,.592-.086.838-.258s.42-.394.521-.665.152-.884.152-1.837v-2.654h1.037v-.002Z"/>
            <path d="M483.34,348.24v-6.223h.943v.873c.195-.305.455-.55.779-.735s.693-.278,1.107-.278c.461,0,.839.096,1.134.287s.503.459.624.803c.492-.727,1.133-1.09,1.922-1.09.617,0,1.092.171,1.424.513s.498.868.498,1.579v4.271h-1.049v-3.92c0-.422-.034-.726-.103-.911s-.192-.335-.372-.448-.391-.17-.633-.17c-.438,0-.801.146-1.09.437s-.434.757-.434,1.397v3.615h-1.055v-4.043c0-.469-.086-.82-.258-1.055s-.453-.352-.844-.352c-.297,0-.571.078-.823.234s-.435.385-.548.686-.17.734-.17,1.301v3.229h-1.055.003Z"/>
          </g>
        </g>
      </g>
      <line class="cls-4" x1="539.174" y1="310.549" x2="539.174" y2="331.239"/>
      <line class="cls-4" x1="425.264" y1="310.549" x2="425.264" y2="331.239"/>
      <line class="cls-3" x1="424.853" y1="320.899" x2="538.853" y2="320.899"/>
      <g>
        <path d="M493.944,180.199h-3.59v-11.64h3.75c1.13,0,2.09.23,2.9.7.8.46,1.42,1.13,1.85,1.99.43.87.64,1.9.64,3.11s-.22,2.25-.65,3.13c-.43.87-1.06,1.54-1.89,2.01s-1.83.7-3.01.7h0ZM491.764,178.949h2.09c.96,0,1.76-.19,2.39-.56s1.1-.9,1.41-1.58.47-1.5.47-2.45-.15-1.75-.46-2.43-.76-1.2-1.38-1.57c-.61-.37-1.37-.55-2.28-.55h-2.25v9.14h.01,0Z"/>
        <path d="M505.324,180.379c-.84,0-1.57-.19-2.17-.56-.61-.37-1.08-.9-1.4-1.57-.33-.67-.49-1.46-.49-2.35s.16-1.68.49-2.37c.33-.68.79-1.22,1.38-1.6s1.28-.58,2.07-.58c.46,0,.9.08,1.35.23s.85.4,1.21.74c.36.34.65.79.87,1.34s.32,1.24.32,2.06v.57h-6.73v-1.16h5.36c0-.49-.1-.93-.29-1.32-.2-.39-.47-.69-.83-.91s-.78-.34-1.26-.34c-.53,0-1,.13-1.38.4-.39.26-.69.6-.9,1.03-.21.42-.31.87-.31,1.35v.77c0,.66.11,1.22.34,1.67.23.46.55.8.96,1.04.41.24.88.36,1.43.36.35,0,.67-.05.96-.15.29-.1.53-.25.74-.46.21-.2.37-.46.48-.76l1.3.36c-.14.44-.37.82-.69,1.16-.32.33-.72.59-1.19.77s-1.01.28-1.6.28h-.02,0Z"/>
        <path d="M517.174,173.429l-1.21.34c-.08-.2-.19-.4-.33-.59-.15-.19-.34-.35-.59-.47s-.57-.19-.96-.19c-.53,0-.98.12-1.33.37s-.53.55-.53.93c0,.33.12.6.36.79.24.19.62.35,1.14.48l1.3.32c.78.19,1.36.48,1.74.87s.57.89.57,1.5c0,.5-.14.95-.43,1.34s-.68.7-1.2.93c-.51.23-1.11.34-1.78.34-.89,0-1.63-.19-2.21-.58s-.95-.95-1.11-1.69l1.27-.32c.12.47.35.82.69,1.06.34.24.78.35,1.33.35.62,0,1.12-.13,1.49-.4.37-.27.55-.59.55-.96,0-.3-.11-.56-.32-.76-.21-.21-.54-.36-.98-.46l-1.45-.34c-.8-.19-1.39-.48-1.76-.88s-.56-.9-.56-1.5c0-.49.14-.93.42-1.31s.66-.68,1.14-.89c.48-.22,1.03-.32,1.65-.32.86,0,1.54.19,2.04.57s.85.88,1.05,1.5l.01-.03h0Z"/>
        <path d="M522.893,180.379c-.82,0-1.52-.19-2.11-.58-.59-.39-1.04-.92-1.36-1.6s-.48-1.45-.48-2.32.16-1.67.49-2.35c.33-.68.79-1.21,1.38-1.6.59-.38,1.28-.58,2.07-.58.61,0,1.17.11,1.66.34s.9.55,1.21.95c.31.41.51.89.59,1.43h-1.34c-.1-.4-.33-.75-.68-1.06s-.82-.46-1.41-.46c-.52,0-.98.14-1.37.41s-.7.65-.91,1.14-.33,1.07-.33,1.72.11,1.26.32,1.76.52.89.91,1.17c.39.28.85.42,1.38.42.35,0,.66-.06.95-.18.28-.12.52-.3.72-.52.2-.23.34-.5.42-.82h1.34c-.08.52-.26.98-.56,1.39s-.69.74-1.18.98c-.49.24-1.05.36-1.7.36h-.01Z"/>
        <path d="M531.943,180.379c-.84,0-1.57-.19-2.17-.56-.61-.37-1.08-.9-1.4-1.57-.33-.67-.49-1.46-.49-2.35s.16-1.68.49-2.37c.33-.68.79-1.22,1.38-1.6s1.28-.58,2.07-.58c.46,0,.9.08,1.35.23s.85.4,1.21.74c.36.34.65.79.87,1.34s.32,1.24.32,2.06v.57h-6.73v-1.16h5.36c0-.49-.1-.93-.29-1.32-.2-.39-.47-.69-.83-.91-.36-.22-.78-.34-1.26-.34-.53,0-1,.13-1.38.4-.39.26-.69.6-.9,1.03-.21.42-.31.87-.31,1.35v.77c0,.66.11,1.22.34,1.67.23.46.55.8.96,1.04.41.24.88.36,1.43.36.35,0,.67-.05.96-.15.29-.1.53-.25.74-.46.21-.2.37-.46.48-.76l1.3.36c-.14.44-.37.82-.69,1.16-.32.33-.72.59-1.19.77s-1.01.28-1.6.28h-.02Z"/>
        <path d="M538.943,174.949v5.25h-1.34v-8.73h1.3v1.36h.11c.21-.44.52-.8.93-1.07.42-.27.95-.41,1.61-.41.59,0,1.11.12,1.55.36s.79.6,1.03,1.09c.25.49.37,1.1.37,1.84v5.55h-1.34v-5.45c0-.69-.18-1.22-.53-1.61-.36-.38-.84-.58-1.47-.58-.43,0-.81.09-1.14.28s-.6.46-.79.81c-.19.36-.29.79-.29,1.3v.01h0Z"/>
        <path d="M550.263,180.379c-.73,0-1.37-.18-1.93-.55s-.99-.89-1.31-1.57-.47-1.48-.47-2.4.16-1.71.47-2.39c.31-.67.75-1.19,1.31-1.56s1.21-.55,1.94-.55c.57,0,1.02.09,1.35.28.33.19.58.4.76.64s.31.43.41.58h.11v-4.3h1.34v11.64h-1.3v-1.34h-.16c-.1.16-.24.36-.42.6s-.44.45-.78.64-.79.28-1.35.28h.03,0ZM550.443,179.179c.54,0,.99-.14,1.36-.42s.65-.67.85-1.18.29-1.08.29-1.74-.09-1.22-.28-1.71-.47-.87-.84-1.15-.83-.41-1.38-.41-1.04.15-1.42.43c-.38.29-.66.68-.85,1.18s-.28,1.05-.28,1.66.1,1.18.29,1.69c.19.5.48.91.85,1.2.38.3.85.45,1.41.45h0Z"/>
        <path d="M557.573,170.019c-.26,0-.49-.09-.67-.27-.19-.18-.28-.39-.28-.64s.09-.46.28-.64.41-.27.67-.27.49.09.67.27c.19.18.28.39.28.64s-.09.46-.28.64-.41.27-.67.27ZM556.893,180.199v-8.73h1.34v8.73h-1.34Z"/>
        <path d="M562.033,174.949v5.25h-1.34v-8.73h1.3v1.36h.11c.21-.44.52-.8.93-1.07.42-.27.95-.41,1.61-.41.59,0,1.11.12,1.55.36s.79.6,1.03,1.09c.25.49.37,1.1.37,1.84v5.55h-1.34v-5.45c0-.69-.18-1.22-.53-1.61-.36-.38-.84-.58-1.47-.58-.43,0-.81.09-1.14.28s-.6.46-.79.81c-.19.36-.29.79-.29,1.3v.01h0Z"/>
        <path d="M573.573,183.649c-.65,0-1.21-.08-1.67-.25-.47-.16-.85-.38-1.16-.65-.31-.27-.55-.55-.74-.86l1.07-.75c.12.16.27.34.46.55s.44.39.76.54.75.23,1.28.23c.7,0,1.29-.17,1.74-.51s.69-.88.69-1.6v-1.77h-.11c-.1.16-.24.35-.42.59-.18.23-.44.44-.77.62-.34.18-.79.27-1.36.27-.7,0-1.34-.17-1.89-.5-.56-.33-1-.82-1.32-1.45s-.49-1.41-.49-2.32.16-1.67.47-2.34.75-1.18,1.31-1.55c.56-.37,1.21-.55,1.94-.55.57,0,1.02.09,1.36.28s.59.4.77.64.32.43.42.58h.14v-1.39h1.3v8.98c0,.75-.17,1.36-.51,1.83s-.79.82-1.36,1.04-1.2.33-1.9.33l-.01.01h0ZM573.533,178.859c.54,0,.99-.12,1.36-.37s.65-.6.85-1.06c.19-.46.29-1.02.29-1.66s-.09-1.18-.28-1.67c-.19-.48-.47-.86-.84-1.13-.37-.27-.83-.41-1.38-.41s-1.04.14-1.42.43-.66.67-.85,1.16-.28,1.02-.28,1.61.1,1.14.29,1.6.48.83.85,1.09c.38.26.85.39,1.41.39v.02h0Z"/>
        <path d="M493.963,190.669v1.14h-4.52v-1.14h4.52ZM490.764,188.579h1.34v8.32c0,.38.06.66.17.85s.26.31.43.38.36.09.56.09c.15,0,.27,0,.36-.03.09-.02.17-.03.23-.04l.27,1.2c-.09.03-.22.07-.38.11s-.37.05-.62.05c-.38,0-.75-.08-1.11-.24s-.66-.41-.9-.74-.36-.75-.36-1.26v-8.68l.01-.01h0Z"/>
        <path d="M497.324,194.149v5.25h-1.34v-11.64h1.34v4.27h.11c.2-.45.51-.81.92-1.08s.96-.4,1.65-.4c.59,0,1.12.12,1.56.36.45.24.79.6,1.04,1.08.25.49.37,1.1.37,1.85v5.55h-1.34v-5.45c0-.69-.18-1.23-.54-1.61s-.85-.57-1.49-.57c-.44,0-.83.09-1.18.28s-.62.46-.82.81c-.2.36-.3.79-.3,1.3h.02Z"/>
        <path d="M506.123,189.219c-.26,0-.49-.09-.67-.27-.19-.18-.28-.39-.28-.64s.09-.46.28-.64.41-.27.67-.27.49.09.67.27c.19.18.28.39.28.64s-.09.46-.28.64-.41.27-.67.27ZM505.444,199.399v-8.73h1.34v8.73h-1.34Z"/>
        <path d="M510.574,194.149v5.25h-1.34v-8.73h1.3v1.36h.11c.21-.44.52-.8.93-1.07.42-.27.95-.41,1.61-.41.59,0,1.11.12,1.55.36s.79.6,1.03,1.09c.25.49.37,1.1.37,1.84v5.55h-1.34v-5.45c0-.69-.18-1.22-.53-1.61-.36-.38-.84-.58-1.47-.58-.43,0-.81.09-1.14.28s-.6.46-.79.81c-.19.36-.29.79-.29,1.3v.01h0Z"/>
        <path d="M524.443,187.759v11.64h-1.34v-11.64h1.34Z"/>
        <path d="M527.573,189.219c-.26,0-.49-.09-.67-.27-.19-.18-.28-.39-.28-.64s.09-.46.28-.64.41-.27.67-.27.49.09.67.27c.19.18.28.39.28.64s-.09.46-.28.64-.41.27-.67.27ZM526.893,199.399v-8.73h1.34v8.73h-1.34Z"/>
        <path d="M530.693,199.399v-8.73h1.3v1.36h.11c.18-.47.48-.83.88-1.09.41-.26.89-.39,1.46-.39s1.06.13,1.44.39.68.62.9,1.09h.09c.22-.45.56-.81,1-1.08.45-.27.98-.4,1.61-.4.78,0,1.42.24,1.92.73.5.49.74,1.24.74,2.27v5.84h-1.34v-5.84c0-.64-.18-1.1-.53-1.38-.35-.28-.77-.42-1.24-.42-.61,0-1.09.18-1.43.55-.34.37-.51.84-.51,1.4v5.68h-1.36v-5.98c0-.5-.16-.9-.48-1.2s-.74-.46-1.24-.46c-.35,0-.67.09-.97.28s-.54.44-.73.77c-.18.33-.28.71-.28,1.13v5.45h-1.34v.03Z"/>
        <path d="M544.783,199.399v-11.64h1.34v4.3h.11c.1-.15.24-.35.41-.58.18-.24.43-.45.76-.64s.78-.28,1.35-.28c.74,0,1.38.18,1.94.55.56.37,1,.89,1.31,1.56s.47,1.47.47,2.39-.16,1.72-.47,2.4-.75,1.2-1.31,1.57-1.2.55-1.93.55c-.56,0-1.01-.09-1.35-.28-.34-.19-.6-.4-.78-.64-.18-.24-.32-.44-.42-.6h-.16v1.34h-1.29.02,0ZM546.103,195.039c0,.66.1,1.24.29,1.74s.48.89.85,1.18.83.42,1.36.42,1.03-.15,1.41-.45c.38-.3.66-.7.85-1.2.19-.51.29-1.07.29-1.69s-.09-1.17-.28-1.66-.47-.89-.85-1.18-.85-.43-1.42-.43-1,.14-1.38.41c-.37.27-.65.66-.84,1.15-.19.49-.28,1.06-.28,1.71h0Z"/>
        <path d="M562.573,199.579c-.82,0-1.52-.19-2.11-.58-.59-.39-1.05-.92-1.36-1.6s-.48-1.45-.48-2.32.16-1.67.49-2.35c.33-.68.79-1.21,1.38-1.6.59-.38,1.28-.58,2.07-.58.61,0,1.17.11,1.66.34s.9.55,1.21.95c.31.41.51.89.58,1.43h-1.34c-.1-.4-.33-.75-.68-1.06s-.82-.46-1.41-.46c-.52,0-.98.14-1.37.41s-.7.65-.92,1.14-.33,1.07-.33,1.72.11,1.26.32,1.76.52.89.91,1.17c.39.28.85.42,1.38.42.35,0,.67-.06.95-.18s.52-.3.72-.52c.2-.23.34-.5.42-.82h1.34c-.08.52-.26.98-.56,1.39s-.69.74-1.18.98c-.49.24-1.05.36-1.7.36h.01,0Z"/>
        <path d="M571.624,199.579c-.84,0-1.57-.19-2.17-.56-.61-.37-1.08-.9-1.4-1.57-.33-.67-.49-1.46-.49-2.35s.16-1.68.49-2.37c.33-.68.79-1.22,1.38-1.6s1.28-.58,2.07-.58c.45,0,.9.08,1.35.23.44.15.85.4,1.21.74s.65.79.87,1.34.32,1.24.32,2.06v.57h-6.73v-1.16h5.36c0-.49-.1-.93-.29-1.32-.2-.39-.47-.69-.83-.91-.36-.22-.78-.34-1.26-.34-.53,0-1,.13-1.38.4-.39.26-.69.6-.89,1.03-.21.42-.31.87-.31,1.35v.77c0,.66.11,1.22.34,1.67.23.46.55.8.96,1.04.41.24.88.36,1.43.36.35,0,.67-.05.96-.15.29-.1.53-.25.74-.46.21-.2.37-.46.48-.76l1.29.36c-.14.44-.37.82-.69,1.16-.32.33-.72.59-1.19.77s-1.01.28-1.6.28h-.02Z"/>
        <path d="M578.624,187.759v11.64h-1.34v-11.64h1.34Z"/>
        <path d="M582.413,187.759v11.64h-1.34v-11.64h1.34Z"/>
      </g>
      <g>
        <path d="M209.394,25.249h-3.59v-11.64h3.75c1.13,0,2.09.23,2.9.7s1.42,1.13,1.85,1.99c.43.87.64,1.9.64,3.11s-.22,2.25-.65,3.13-1.06,1.54-1.89,2.01-1.83.7-3.01.7h0ZM207.213,23.999h2.09c.96,0,1.76-.19,2.39-.56s1.1-.9,1.42-1.58.47-1.5.47-2.45-.15-1.75-.46-2.43c-.31-.68-.77-1.2-1.38-1.57s-1.37-.55-2.28-.55h-2.25v9.14h0Z"/>
        <path d="M220.783,25.429c-.84,0-1.57-.19-2.17-.56-.61-.37-1.08-.9-1.4-1.57-.33-.67-.49-1.46-.49-2.35s.16-1.68.49-2.37c.33-.68.79-1.22,1.38-1.6.59-.38,1.28-.58,2.07-.58.45,0,.9.08,1.35.23.44.15.85.4,1.21.74s.65.79.87,1.34.32,1.24.32,2.06v.57h-6.73v-1.16h5.36c0-.49-.1-.93-.29-1.32-.2-.39-.47-.69-.83-.91s-.78-.34-1.26-.34c-.53,0-1,.13-1.38.4-.39.26-.69.6-.89,1.03-.21.42-.31.87-.31,1.35v.77c0,.66.11,1.22.34,1.67.23.46.55.8.96,1.04s.88.36,1.43.36c.35,0,.67-.05.96-.15.29-.1.53-.25.74-.46.21-.2.37-.46.48-.76l1.29.36c-.14.44-.37.82-.69,1.16-.32.33-.72.59-1.19.77s-1.01.28-1.6.28h-.02Z"/>
        <path d="M232.623,18.479l-1.2.34c-.08-.2-.19-.4-.33-.59-.15-.19-.34-.35-.59-.47s-.57-.19-.96-.19c-.53,0-.98.12-1.33.37-.35.24-.53.55-.53.93,0,.33.12.6.36.79s.62.35,1.14.48l1.29.32c.78.19,1.36.48,1.74.87s.57.89.57,1.5c0,.5-.14.95-.43,1.34s-.68.7-1.2.93-1.11.34-1.78.34c-.89,0-1.63-.19-2.21-.58s-.95-.95-1.11-1.69l1.27-.32c.12.47.35.82.69,1.06s.78.35,1.33.35c.62,0,1.12-.13,1.49-.4s.55-.59.55-.96c0-.3-.11-.56-.32-.76-.21-.21-.54-.36-.98-.46l-1.46-.34c-.8-.19-1.38-.48-1.76-.88s-.56-.9-.56-1.5c0-.49.14-.93.42-1.31s.66-.68,1.14-.89c.48-.22,1.03-.32,1.64-.32.86,0,1.54.19,2.04.57s.85.88,1.05,1.5l.03-.03h0Z"/>
        <path d="M238.353,25.429c-.82,0-1.52-.19-2.11-.58s-1.05-.92-1.36-1.6-.48-1.45-.48-2.32.16-1.67.49-2.35.79-1.21,1.38-1.6c.59-.38,1.28-.58,2.07-.58.61,0,1.17.11,1.66.34s.9.55,1.21.95c.31.41.51.89.58,1.43h-1.34c-.1-.4-.33-.75-.68-1.06s-.82-.46-1.41-.46c-.52,0-.98.14-1.37.41s-.7.65-.92,1.14-.33,1.07-.33,1.72.11,1.26.32,1.76.52.89.91,1.17.85.42,1.38.42c.35,0,.67-.06.95-.18s.52-.3.72-.52c.2-.23.34-.5.42-.82h1.34c-.08.52-.26.98-.56,1.39s-.69.74-1.18.98c-.49.24-1.05.36-1.7.36h.01,0Z"/>
        <path d="M247.394,25.429c-.84,0-1.57-.19-2.17-.56-.61-.37-1.08-.9-1.4-1.57-.33-.67-.49-1.46-.49-2.35s.16-1.68.49-2.37c.33-.68.79-1.22,1.38-1.6.59-.38,1.28-.58,2.07-.58.45,0,.9.08,1.35.23.44.15.85.4,1.21.74s.65.79.87,1.34.32,1.24.32,2.06v.57h-6.73v-1.16h5.36c0-.49-.1-.93-.29-1.32-.2-.39-.47-.69-.83-.91s-.78-.34-1.26-.34c-.53,0-1,.13-1.38.4-.39.26-.69.6-.89,1.03-.21.42-.31.87-.31,1.35v.77c0,.66.11,1.22.34,1.67.23.46.55.8.96,1.04s.88.36,1.43.36c.35,0,.67-.05.96-.15.29-.1.53-.25.74-.46.21-.2.37-.46.48-.76l1.29.36c-.14.44-.37.82-.69,1.16-.32.33-.72.59-1.19.77s-1.01.28-1.6.28h-.02Z"/>
        <path d="M254.394,19.999v5.25h-1.34v-8.73h1.3v1.36h.11c.2-.44.51-.8.93-1.07s.96-.41,1.61-.41c.59,0,1.11.12,1.55.36s.79.6,1.03,1.09c.25.49.37,1.1.37,1.84v5.55h-1.34v-5.45c0-.69-.18-1.22-.53-1.61-.36-.38-.84-.58-1.47-.58-.43,0-.81.09-1.15.28-.33.19-.6.46-.79.81-.19.36-.29.79-.29,1.3l.01.01Z"/>
        <path d="M265.713,25.429c-.73,0-1.37-.18-1.93-.55s-.99-.89-1.31-1.57-.47-1.48-.47-2.4.16-1.71.47-2.39c.31-.67.75-1.19,1.31-1.56.56-.37,1.21-.55,1.94-.55.57,0,1.02.09,1.35.28s.58.4.76.64c.18.24.31.43.41.58h.11v-4.3h1.34v11.64h-1.3v-1.34h-.16c-.1.16-.24.36-.42.6-.18.24-.44.45-.78.64s-.79.28-1.35.28c0,0,.03,0,.03,0ZM265.894,24.229c.54,0,.99-.14,1.36-.42s.65-.67.85-1.18c.19-.5.29-1.08.29-1.74s-.09-1.22-.28-1.71-.47-.87-.84-1.15-.83-.41-1.38-.41-1.04.15-1.42.43c-.38.29-.66.68-.85,1.18s-.28,1.05-.28,1.66.1,1.18.29,1.69c.19.5.48.91.85,1.2.38.3.85.45,1.41.45Z"/>
        <path d="M273.032,15.069c-.26,0-.49-.09-.67-.27-.19-.18-.28-.39-.28-.64s.09-.46.28-.64.41-.27.67-.27.49.09.67.27c.19.18.28.39.28.64s-.09.46-.28.64-.41.27-.67.27ZM272.353,25.249v-8.73h1.34v8.73h-1.34Z"/>
        <path d="M277.484,19.999v5.25h-1.34v-8.73h1.3v1.36h.11c.2-.44.51-.8.93-1.07s.96-.41,1.61-.41c.59,0,1.11.12,1.55.36s.79.6,1.03,1.09c.25.49.37,1.1.37,1.84v5.55h-1.34v-5.45c0-.69-.18-1.22-.53-1.61-.36-.38-.84-.58-1.47-.58-.43,0-.81.09-1.15.28-.33.19-.6.46-.79.81-.19.36-.29.79-.29,1.3l.01.01h0Z"/>
        <path d="M289.032,28.699c-.65,0-1.2-.08-1.67-.25-.47-.16-.85-.38-1.16-.65s-.55-.55-.74-.86l1.07-.75c.12.16.27.34.46.55s.44.39.76.54.75.23,1.28.23c.71,0,1.29-.17,1.74-.51.46-.34.69-.88.69-1.6v-1.77h-.11c-.1.16-.24.35-.42.59-.18.23-.44.44-.77.62s-.79.27-1.35.27c-.71,0-1.34-.17-1.9-.5s-1-.82-1.32-1.45c-.32-.64-.49-1.41-.49-2.32s.16-1.67.47-2.34.75-1.18,1.31-1.55,1.21-.55,1.94-.55c.57,0,1.02.09,1.35.28.34.19.59.4.77.64s.32.43.42.58h.14v-1.39h1.3v8.98c0,.75-.17,1.36-.51,1.83s-.79.82-1.36,1.04c-.57.22-1.2.33-1.9.33v.01h0ZM288.984,23.909c.54,0,.99-.12,1.36-.37s.65-.6.85-1.06.29-1.02.29-1.66-.09-1.18-.28-1.67c-.19-.48-.47-.86-.84-1.13s-.83-.41-1.38-.41-1.04.14-1.42.43-.66.67-.85,1.16-.28,1.02-.28,1.61.1,1.14.29,1.6.48.83.85,1.09c.38.26.85.39,1.41.39,0,0,0,.02,0,.02Z"/>
        <path d="M306.894,16.519l-3.23,8.73h-1.36l-3.23-8.73h1.45l2.41,6.96h.09l2.41-6.96s1.46,0,1.46,0Z"/>
        <path d="M311.234,25.449c-.55,0-1.05-.1-1.51-.31-.45-.21-.81-.52-1.07-.92s-.4-.88-.4-1.45c0-.5.1-.91.3-1.22.2-.31.46-.56.79-.74.33-.18.69-.31,1.09-.4s.8-.16,1.21-.21c.53-.07.96-.12,1.29-.16.33-.04.57-.1.73-.18.15-.09.23-.24.23-.45v-.05c0-.56-.15-1-.46-1.31-.3-.31-.77-.47-1.38-.47s-1.14.14-1.51.42c-.36.28-.62.58-.77.9l-1.27-.46c.23-.53.53-.94.91-1.24s.8-.51,1.25-.62c.45-.12.9-.18,1.34-.18.28,0,.6.03.97.1s.72.2,1.06.41c.34.2.63.51.86.93.23.41.34.97.34,1.66v5.75h-1.34v-1.18h-.07c-.09.19-.24.39-.46.61-.21.22-.49.4-.85.55-.35.15-.78.23-1.29.23,0,0,.01-.01.01-.01ZM311.442,24.249c.53,0,.98-.1,1.34-.31.37-.21.64-.48.83-.81.19-.33.28-.68.28-1.04v-1.23c-.06.07-.18.13-.37.18-.19.06-.41.1-.66.14s-.49.07-.72.1-.42.05-.57.07c-.35.05-.67.12-.97.22-.3.1-.54.25-.73.45s-.28.47-.28.81c0,.47.17.82.52,1.05.35.24.79.36,1.32.36l.01.01h0Z"/>
        <path d="M323.873,18.479l-1.2.34c-.08-.2-.19-.4-.33-.59-.15-.19-.34-.35-.59-.47s-.57-.19-.96-.19c-.53,0-.98.12-1.33.37-.35.24-.53.55-.53.93,0,.33.12.6.36.79s.62.35,1.14.48l1.29.32c.78.19,1.36.48,1.74.87s.57.89.57,1.5c0,.5-.14.95-.43,1.34-.29.39-.68.7-1.2.93s-1.11.34-1.78.34c-.89,0-1.63-.19-2.21-.58s-.95-.95-1.11-1.69l1.27-.32c.12.47.35.82.69,1.06s.78.35,1.33.35c.62,0,1.12-.13,1.49-.4s.55-.59.55-.96c0-.3-.11-.56-.32-.76-.21-.21-.54-.36-.98-.46l-1.46-.34c-.8-.19-1.38-.48-1.76-.88s-.56-.9-.56-1.5c0-.49.14-.93.42-1.31s.66-.68,1.14-.89c.48-.22,1.03-.32,1.64-.32.86,0,1.54.19,2.04.57s.84.88,1.05,1.5l.03-.03h0Z"/>
        <path d="M328.623,25.449c-.55,0-1.06-.1-1.51-.31s-.81-.52-1.07-.92-.4-.88-.4-1.45c0-.5.1-.91.29-1.22.2-.31.46-.56.79-.74.33-.18.69-.31,1.09-.4s.8-.16,1.21-.21c.53-.07.96-.12,1.29-.16.33-.04.57-.1.73-.18.15-.09.23-.24.23-.45v-.05c0-.56-.15-1-.46-1.31s-.77-.47-1.38-.47-1.14.14-1.5.42-.62.58-.77.9l-1.27-.46c.23-.53.53-.94.91-1.24s.8-.51,1.25-.62c.45-.12.9-.18,1.34-.18.28,0,.6.03.97.1s.72.2,1.06.41c.34.2.63.51.85.93.23.41.34.97.34,1.66v5.75h-1.34v-1.18h-.07c-.09.19-.24.39-.46.61s-.49.4-.85.55c-.35.15-.78.23-1.29.23l.02-.01h0ZM328.834,24.249c.53,0,.98-.1,1.34-.31s.64-.48.83-.81c.19-.33.28-.68.28-1.04v-1.23c-.06.07-.18.13-.37.18-.19.06-.41.1-.66.14s-.49.07-.72.1-.42.05-.57.07c-.35.05-.67.12-.97.22-.3.1-.54.25-.73.45s-.28.47-.28.81c0,.47.17.82.52,1.05.35.24.79.36,1.32.36l.01.01h0Z"/>
        <path d="M339.584,25.249v-8.73h1.29v1.32h.09c.16-.43.45-.78.86-1.05.42-.27.89-.4,1.41-.4h.37c.15,0,.26,0,.33.02v1.36s-.15-.03-.31-.05-.33-.04-.51-.04c-.42,0-.8.09-1.13.26-.33.18-.59.42-.78.73s-.29.66-.29,1.05v5.52h-1.34l.01.01h0Z"/>
        <path d="M349.192,25.429c-.84,0-1.57-.19-2.17-.56-.61-.37-1.08-.9-1.4-1.57-.33-.67-.49-1.46-.49-2.35s.16-1.68.49-2.37c.33-.68.79-1.22,1.38-1.6.59-.38,1.28-.58,2.07-.58.45,0,.9.08,1.35.23s.85.4,1.21.74.65.79.87,1.34.32,1.24.32,2.06v.57h-6.73v-1.16h5.36c0-.49-.1-.93-.29-1.32-.2-.39-.47-.69-.83-.91s-.78-.34-1.26-.34c-.53,0-1,.13-1.38.4-.39.26-.69.6-.89,1.03-.21.42-.31.87-.31,1.35v.77c0,.66.11,1.22.34,1.67.23.46.55.8.96,1.04s.88.36,1.43.36c.35,0,.67-.05.96-.15.29-.1.53-.25.74-.46.21-.2.37-.46.48-.76l1.29.36c-.14.44-.37.82-.69,1.16-.32.33-.72.59-1.19.77s-1.01.28-1.6.28h-.02,0Z"/>
        <path d="M358.394,25.429c-.82,0-1.52-.19-2.11-.58s-1.05-.92-1.36-1.6c-.32-.68-.48-1.45-.48-2.32s.16-1.67.49-2.35.79-1.21,1.38-1.6c.59-.38,1.28-.58,2.07-.58.61,0,1.17.11,1.66.34s.9.55,1.21.95c.31.41.51.89.58,1.43h-1.34c-.1-.4-.33-.75-.68-1.06s-.82-.46-1.41-.46c-.52,0-.98.14-1.37.41-.39.27-.7.65-.92,1.14s-.33,1.07-.33,1.72.11,1.26.32,1.76c.21.5.52.89.91,1.17s.85.42,1.38.42c.35,0,.67-.06.95-.18s.52-.3.72-.52c.2-.23.34-.5.42-.82h1.34c-.08.52-.26.98-.56,1.39s-.69.74-1.18.98-1.05.36-1.7.36h.01,0Z"/>
        <path d="M367.573,16.519v1.14h-4.52v-1.14h4.52ZM364.373,14.429h1.34v8.32c0,.38.06.66.17.85.11.19.25.31.43.38.18.06.36.09.56.09.15,0,.27,0,.36-.03.09-.02.17-.03.23-.04l.27,1.2c-.09.03-.22.07-.38.11s-.37.05-.62.05c-.38,0-.75-.08-1.11-.24s-.66-.41-.9-.74-.35-.75-.35-1.26v-8.69Z"/>
        <path d="M372.174,25.449c-.55,0-1.06-.1-1.51-.31s-.81-.52-1.07-.92-.4-.88-.4-1.45c0-.5.1-.91.29-1.22.2-.31.46-.56.79-.74.33-.18.69-.31,1.09-.4s.8-.16,1.21-.21c.53-.07.96-.12,1.29-.16.33-.04.57-.1.73-.18.15-.09.23-.24.23-.45v-.05c0-.56-.15-1-.46-1.31s-.77-.47-1.38-.47-1.14.14-1.5.42-.62.58-.77.9l-1.27-.46c.23-.53.53-.94.91-1.24s.8-.51,1.25-.62c.45-.12.9-.18,1.34-.18.28,0,.6.03.97.1s.72.2,1.06.41c.34.2.63.51.85.93.23.41.34.97.34,1.66v5.75h-1.34v-1.18h-.07c-.09.19-.24.39-.46.61s-.49.4-.85.55c-.35.15-.78.23-1.29.23l.02-.01h0ZM372.373,24.249c.53,0,.98-.1,1.34-.31s.64-.48.83-.81c.19-.33.28-.68.28-1.04v-1.23c-.06.07-.18.13-.37.18-.19.06-.41.1-.66.14s-.49.07-.72.1-.42.05-.57.07c-.35.05-.67.12-.97.22-.3.1-.54.25-.73.45s-.28.47-.28.81c0,.47.17.82.52,1.05.35.24.79.36,1.32.36l.01.01h0Z"/>
      </g>
    </g>
  </g>
  <g class="cls-56">
    <g>
      <path class="cls-48" d="M580.903,346.259c13.25,0,24-10.75,24-24s-10.75-24-24-24-24,10.75-24,24,10.75,24,24,24Z"/>
      <path class="cls-20" d="M580.903,301.669c-11.36,0-20.6,9.24-20.6,20.6s9.24,20.6,20.6,20.6,20.6-9.24,20.6-20.6-9.24-20.6-20.6-20.6ZM599.624,321.869h-5.05c-.08-2.71-.95-5.22-2.39-7.32l3.67-2.52c.14-.09.17-.28.08-.41-.09-.14-.28-.17-.41-.08l-3.68,2.53c-1.06-1.41-2.38-2.61-3.9-3.52l2.21-3.86c.08-.14.03-.32-.11-.4s-.32-.03-.4.11l-2.21,3.86c-1.84-1-3.93-1.59-6.15-1.65l-.02-4.48c0-.22-.18-.39-.39-.39h0c-.22,0-.39.18-.39.4l.02,4.48c-3.06.09-5.87,1.2-8.11,2.99l-3.27-3.85c3.22-2.62,7.33-4.19,11.79-4.19,10.19,0,18.5,8.18,18.72,18.33h0l-.01-.03h0ZM589.663,331.569l-2.82-3.33c.57-.57,1.06-1.22,1.45-1.93l3.87,1.99c-.66,1.22-1.51,2.32-2.51,3.26h0l.01.01h0ZM569.374,327.779l3.93-1.87c.42.87.98,1.66,1.66,2.33l-2.92,3.24c-1.1-1.06-2.01-2.3-2.67-3.69h0v-.01h0ZM562.193,322.659h5.05c.05,1.83.46,3.56,1.17,5.14l-4.56,2.17c-1.02-2.24-1.6-4.71-1.66-7.31h0ZM572.353,312.779l2.82,3.32c-1.56,1.46-2.57,3.5-2.68,5.77h-4.36c.11-3.6,1.72-6.83,4.22-9.09ZM580.903,329.309c-.38,0-.75-.03-1.11-.09l.72-4.08c.13.02.26.03.39.03.67,0,1.29-.23,1.78-.61l1.05,1.24c-.79.65-1.81,1.05-2.91,1.05-.14,0-.25.11-.25.25s.11.25.25.25c1.23,0,2.35-.44,3.23-1.16l1.31,1.55c-1.21.99-2.77,1.59-4.45,1.59h0l-.01-.02ZM574.554,325.309l3.74-1.78c.36.74,1.03,1.31,1.84,1.53l-.72,4.08c-2.14-.47-3.92-1.91-4.85-3.83h-.01ZM576.064,317.149l1.24,1.46c-.73.7-1.26,1.63-1.46,2.68-.03.13.06.26.2.29.13.03.26-.06.29-.2.18-.94.65-1.77,1.29-2.4l1.13,1.33c-.38.42-.64.96-.72,1.55h-4.15c.1-1.85.92-3.51,2.19-4.71h-.01,0ZM584.293,325.239l-1.06-1.25c.29-.38.48-.84.55-1.34h1.6c-.08.98-.48,1.87-1.09,2.58h0v.01h0ZM579.184,322.259c0-.95.77-1.72,1.72-1.72s1.72.77,1.72,1.72-.77,1.72-1.72,1.72-1.72-.77-1.72-1.72ZM583.783,321.869c-.19-1.42-1.41-2.51-2.88-2.51-.57,0-1.11.17-1.56.45l-1.12-1.32c.74-.51,1.64-.81,2.59-.81,2.39,0,4.36,1.84,4.56,4.18h-1.6l.01.01h0ZM578.023,322.659c.02.17.06.34.12.51l-3.75,1.78c-.3-.71-.48-1.48-.52-2.29h4.15ZM584.614,325.619c.24-.27.45-.56.63-.88l1.82.94c-.31.55-.68,1.06-1.12,1.5l-1.32-1.56h-.01ZM585.504,324.209c.2-.48.33-1.01.37-1.55h2.06c-.05.88-.26,1.72-.61,2.49l-1.83-.94h.01ZM585.874,321.869c-.2-2.61-2.39-4.68-5.05-4.68-1.07,0-2.08.34-2.91.92l-1.25-1.47c1.18-.89,2.65-1.42,4.24-1.42,2.28,0,4.32,1.09,5.6,2.78,0,.02.02.05.03.07.02.03.04.05.06.07.77,1.06,1.25,2.35,1.33,3.74h-2.06l.01-.01h0ZM585.333,315.099l2.16-3.78c1.4.85,2.63,1.95,3.61,3.25l-3.59,2.47c-.61-.77-1.34-1.43-2.18-1.94h0ZM584.814,314.799c-1.06-.56-2.25-.9-3.52-.96l-.02-4.36c2.06.06,4,.61,5.7,1.53l-2.17,3.78h0l.01.01h0ZM580.504,313.849c-1.78.08-3.41.72-4.74,1.74l-2.82-3.32c2.08-1.66,4.69-2.68,7.54-2.78l.02,4.36h0ZM568.133,322.659h4.36c.05,1.02.28,1.99.66,2.89l-3.93,1.87c-.65-1.46-1.03-3.07-1.08-4.76h-.01,0ZM575.403,328.629c1.06.92,2.35,1.57,3.76,1.87l-.76,4.29c-2.24-.45-4.27-1.48-5.92-2.93l2.92-3.24h0v.01h0ZM579.554,330.579c.44.07.89.11,1.35.11s.89-.04,1.32-.1l.77,4.29c-.68.11-1.38.17-2.1.17s-1.43-.06-2.12-.18l.76-4.29h.02,0ZM582.614,330.509c1.36-.28,2.6-.89,3.64-1.74l2.81,3.32c-1.61,1.34-3.55,2.29-5.68,2.71l-.77-4.29ZM588.554,325.779c.44-.96.71-2.01.76-3.12h4.36c-.06,1.83-.5,3.56-1.25,5.12l-3.88-2h.01ZM589.323,321.869c-.07-1.61-.6-3.1-1.46-4.35l3.59-2.47c1.34,1.95,2.15,4.29,2.23,6.82h-4.36ZM568.513,308.249l3.27,3.85c-2.69,2.42-4.42,5.9-4.53,9.77h-5.05c.11-5.42,2.54-10.27,6.32-13.62h-.01ZM564.013,330.329l4.56-2.17c.72,1.49,1.7,2.84,2.88,3.97l-3.1,3.44c-.11.12-.1.31.02.42.06.05.13.08.2.08.08,0,.16-.03.22-.1l3.1-3.44c1.77,1.56,3.95,2.67,6.36,3.14l-.88,4.98c-5.9-1.13-10.82-5.05-13.35-10.32h-.01ZM577.754,340.719l.88-4.98c.74.12,1.5.19,2.27.19s1.52-.06,2.25-.19l.9,4.97c-1.02.17-2.08.27-3.15.27s-2.13-.09-3.15-.27h0v.01ZM584.443,340.649l-.9-4.97c2.29-.45,4.37-1.47,6.09-2.91l1.95,2.3c.08.09.19.14.3.14.09,0,.18-.03.25-.09.17-.14.19-.39.05-.56l-1.96-2.31c1.09-1.02,2.01-2.21,2.72-3.53l1.38.71s.09.03.14.03c.11,0,.21-.06.26-.16.07-.15.02-.32-.13-.4l-1.39-.71c.81-1.68,1.29-3.55,1.35-5.53h5.05c-.19,8.94-6.67,16.35-15.18,17.99h.02Z"/>
    </g>
  </g>
</svg>