<svg aria-roledescription="er" role="graphics-document document" viewBox="-43.10058403015137 0 476.8768310546875 986" style="max-width: 476.877px; background-color: transparent;" xmlns:xlink="http://www.w3.org/1999/xlink" xmlns="http://www.w3.org/2000/svg" width="100%" id="my-svg"><style>#my-svg{font-family:"trebuchet ms",verdana,arial,sans-serif;font-size:16px;fill:#333;}#my-svg .error-icon{fill:#552222;}#my-svg .error-text{fill:#552222;stroke:#552222;}#my-svg .edge-thickness-normal{stroke-width:1px;}#my-svg .edge-thickness-thick{stroke-width:3.5px;}#my-svg .edge-pattern-solid{stroke-dasharray:0;}#my-svg .edge-thickness-invisible{stroke-width:0;fill:none;}#my-svg .edge-pattern-dashed{stroke-dasharray:3;}#my-svg .edge-pattern-dotted{stroke-dasharray:2;}#my-svg .marker{fill:#333333;stroke:#333333;}#my-svg .marker.cross{stroke:#333333;}#my-svg svg{font-family:"trebuchet ms",verdana,arial,sans-serif;font-size:16px;}#my-svg p{margin:0;}#my-svg .entityBox{fill:#ECECFF;stroke:#9370DB;}#my-svg .attributeBoxOdd{fill:#ffffff;stroke:#9370DB;}#my-svg .attributeBoxEven{fill:#f2f2f2;stroke:#9370DB;}#my-svg .relationshipLabelBox{fill:hsl(80, 100%, 96.2745098039%);opacity:0.7;background-color:hsl(80, 100%, 96.2745098039%);}#my-svg .relationshipLabelBox rect{opacity:0.5;}#my-svg .relationshipLine{stroke:#333333;}#my-svg .entityTitleText{text-anchor:middle;font-size:18px;fill:#333;}#my-svg #MD_PARENT_START{fill:#f5f5f5!important;stroke:#333333!important;stroke-width:1;}#my-svg #MD_PARENT_END{fill:#f5f5f5!important;stroke:#333333!important;stroke-width:1;}#my-svg :root{--mermaid-font-family:"trebuchet ms",verdana,arial,sans-serif;}</style><g/><defs><marker orient="auto" markerHeight="240" markerWidth="190" refY="7" refX="0" id="MD_PARENT_START"><path d="M 18,7 L9,13 L1,7 L9,1 Z"/></marker></defs><defs><marker orient="auto" markerHeight="28" markerWidth="20" refY="7" refX="19" id="MD_PARENT_END"><path d="M 18,7 L9,13 L1,7 L9,1 Z"/></marker></defs><defs><marker orient="auto" markerHeight="18" markerWidth="18" refY="9" refX="0" id="ONLY_ONE_START"><path d="M9,0 L9,18 M15,0 L15,18" fill="none" stroke="gray"/></marker></defs><defs><marker orient="auto" markerHeight="18" markerWidth="18" refY="9" refX="18" id="ONLY_ONE_END"><path d="M3,0 L3,18 M9,0 L9,18" fill="none" stroke="gray"/></marker></defs><defs><marker orient="auto" markerHeight="18" markerWidth="30" refY="9" refX="0" id="ZERO_OR_ONE_START"><circle r="6" cy="9" cx="21" fill="white" stroke="gray"/><path d="M9,0 L9,18" fill="none" stroke="gray"/></marker></defs><defs><marker orient="auto" markerHeight="18" markerWidth="30" refY="9" refX="30" id="ZERO_OR_ONE_END"><circle r="6" cy="9" cx="9" fill="white" stroke="gray"/><path d="M21,0 L21,18" fill="none" stroke="gray"/></marker></defs><defs><marker orient="auto" markerHeight="36" markerWidth="45" refY="18" refX="18" id="ONE_OR_MORE_START"><path d="M0,18 Q 18,0 36,18 Q 18,36 0,18 M42,9 L42,27" fill="none" stroke="gray"/></marker></defs><defs><marker orient="auto" markerHeight="36" markerWidth="45" refY="18" refX="27" id="ONE_OR_MORE_END"><path d="M3,9 L3,27 M9,18 Q27,0 45,18 Q27,36 9,18" fill="none" stroke="gray"/></marker></defs><defs><marker orient="auto" markerHeight="36" markerWidth="57" refY="18" refX="18" id="ZERO_OR_MORE_START"><circle r="6" cy="18" cx="48" fill="white" stroke="gray"/><path d="M0,18 Q18,0 36,18 Q18,36 0,18" fill="none" stroke="gray"/></marker></defs><defs><marker orient="auto" markerHeight="36" markerWidth="57" refY="18" refX="39" id="ZERO_OR_MORE_END"><circle r="6" cy="18" cx="9" fill="white" stroke="gray"/><path d="M21,18 Q39,0 57,18 Q39,36 21,18" fill="none" stroke="gray"/></marker></defs><path style="stroke: gray; fill: none;" marker-start="url(#ONLY_ONE_START)" marker-end="url(#ZERO_OR_ONE_END)" d="M253.388,65L267.079,73.333C280.769,81.667,308.151,98.333,321.842,115C335.533,131.667,335.533,148.333,335.533,156.667L335.533,165" class="er relationshipLine"/><path style="stroke: gray; fill: none;" marker-start="url(#ONLY_ONE_START)" marker-end="url(#ZERO_OR_ONE_END)" d="M179.457,65L165.767,73.333C152.076,81.667,124.694,98.333,111.003,120.417C97.313,142.5,97.313,170,97.313,183.75L97.313,197.5" class="er relationshipLine"/><path style="stroke: gray; fill: none;" marker-start="url(#ONLY_ONE_START)" marker-end="url(#ZERO_OR_MORE_END)" d="M97.313,349.5L97.313,363.25C97.313,377,97.313,404.5,97.313,426.583C97.313,448.667,97.313,465.333,97.313,473.667L97.313,482" class="er relationshipLine"/><path style="stroke: gray; fill: none;" marker-start="url(#ONLY_ONE_START)" marker-end="url(#ONE_OR_MORE_END)" d="M143.11,570L151.784,578.333C160.457,586.667,177.805,603.333,186.479,620C195.152,636.667,195.152,653.333,195.152,661.667L195.152,670" class="er relationshipLine"/><path style="stroke: gray; fill: none;" marker-start="url(#ONLY_ONE_START)" marker-end="url(#ZERO_OR_MORE_END)" d="M51.515,570L42.841,578.333C34.168,586.667,16.82,603.333,8.146,630.833C-0.527,658.333,-0.527,696.667,-0.527,735C-0.527,773.333,-0.527,811.667,9.296,839.167C19.119,866.667,38.766,883.333,48.589,891.667L58.412,900" class="er relationshipLine"/><path style="stroke: gray; fill: none;" marker-start="url(#ONLY_ONE_START)" marker-end="url(#ZERO_OR_MORE_END)" d="M195.152,800L195.152,808.333C195.152,816.667,195.152,833.333,185.329,850C175.506,866.667,155.859,883.333,146.036,891.667L136.213,900" class="er relationshipLine"/><g transform="translate(166.42257690429688,20 )" id="entity-Container-bc34fb32-8a75-5b81-936b-92374bf40296"><rect height="45" width="100" y="0" x="0" class="er entityBox"/><text style="dominant-baseline: middle; text-anchor: middle; font-size: 12px;" transform="translate(50,12)" y="0" x="0" id="text-entity-Container-bc34fb32-8a75-5b81-936b-92374bf40296" class="er entityLabel">Container</text><rect height="21" width="69.5859375" y="24" x="0" class="er attributeBoxOdd"/><text style="dominant-baseline: middle; font-size: 10.2px;" transform="translate(5,34.5)" y="0" x="0" id="text-entity-Container-bc34fb32-8a75-5b81-936b-92374bf40296-attr-1-type" class="er entityLabel">uriorcurie</text><rect height="21" width="30.4140625" y="24" x="69.5859375" class="er attributeBoxOdd"/><text style="dominant-baseline: middle; font-size: 10.2px;" transform="translate(74.5859375,34.5)" y="0" x="0" id="text-entity-Container-bc34fb32-8a75-5b81-936b-92374bf40296-attr-1-name" class="er entityLabel">iri</text></g><g transform="translate(37.3359375,197.5 )" id="entity-CollisionData-e070b5c2-3fc7-5ea4-9d87-8dc5bef8fa08"><rect height="152" width="119.953125" y="0" x="0" class="er entityBox"/><text style="dominant-baseline: middle; text-anchor: middle; font-size: 12px;" transform="translate(59.9765625,12)" y="0" x="0" id="text-entity-CollisionData-e070b5c2-3fc7-5ea4-9d87-8dc5bef8fa08" class="er entityLabel">CollisionData</text><rect height="21" width="39.25" y="24" x="0" class="er attributeBoxOdd"/><text style="dominant-baseline: middle; font-size: 10.2px;" transform="translate(5,34.5)" y="0" x="0" id="text-entity-CollisionData-e070b5c2-3fc7-5ea4-9d87-8dc5bef8fa08-attr-1-type" class="er entityLabel">string</text><rect height="21" width="80.703125" y="24" x="39.25" class="er attributeBoxOdd"/><text style="dominant-baseline: middle; font-size: 10.2px;" transform="translate(44.25,34.5)" y="0" x="0" id="text-entity-CollisionData-e070b5c2-3fc7-5ea4-9d87-8dc5bef8fa08-attr-1-name" class="er entityLabel">donor</text><rect height="21" width="39.25" y="45" x="0" class="er attributeBoxEven"/><text style="dominant-baseline: middle; font-size: 10.2px;" transform="translate(5,55.5)" y="0" x="0" id="text-entity-CollisionData-e070b5c2-3fc7-5ea4-9d87-8dc5bef8fa08-attr-2-type" class="er entityLabel">string</text><rect height="21" width="80.703125" y="45" x="39.25" class="er attributeBoxEven"/><text style="dominant-baseline: middle; font-size: 10.2px;" transform="translate(44.25,55.5)" y="0" x="0" id="text-entity-CollisionData-e070b5c2-3fc7-5ea4-9d87-8dc5bef8fa08-attr-2-name" class="er entityLabel">sample</text><rect height="21" width="39.25" y="66" x="0" class="er attributeBoxOdd"/><text style="dominant-baseline: middle; font-size: 10.2px;" transform="translate(5,76.5)" y="0" x="0" id="text-entity-CollisionData-e070b5c2-3fc7-5ea4-9d87-8dc5bef8fa08-attr-3-type" class="er entityLabel">string</text><rect height="21" width="80.703125" y="66" x="39.25" class="er attributeBoxOdd"/><text style="dominant-baseline: middle; font-size: 10.2px;" transform="translate(44.25,76.5)" y="0" x="0" id="text-entity-CollisionData-e070b5c2-3fc7-5ea4-9d87-8dc5bef8fa08-attr-3-name" class="er entityLabel">dataset</text><rect height="22" width="39.25" y="87" x="0" class="er attributeBoxEven"/><text style="dominant-baseline: middle; font-size: 10.2px;" transform="translate(5,98)" y="0" x="0" id="text-entity-CollisionData-e070b5c2-3fc7-5ea4-9d87-8dc5bef8fa08-attr-4-type" class="er entityLabel">string</text><rect height="22" width="80.703125" y="87" x="39.25" class="er attributeBoxEven"/><text style="dominant-baseline: middle; font-size: 10.2px;" transform="translate(44.25,98)" y="0" x="0" id="text-entity-CollisionData-e070b5c2-3fc7-5ea4-9d87-8dc5bef8fa08-attr-4-name" class="er entityLabel">spatial_entity</text><rect height="22" width="39.25" y="109" x="0" class="er attributeBoxOdd"/><text style="dominant-baseline: middle; font-size: 10.2px;" transform="translate(5,120)" y="0" x="0" id="text-entity-CollisionData-e070b5c2-3fc7-5ea4-9d87-8dc5bef8fa08-attr-5-type" class="er entityLabel">string</text><rect height="22" width="80.703125" y="109" x="39.25" class="er attributeBoxOdd"/><text style="dominant-baseline: middle; font-size: 10.2px;" transform="translate(44.25,120)" y="0" x="0" id="text-entity-CollisionData-e070b5c2-3fc7-5ea4-9d87-8dc5bef8fa08-attr-5-name" class="er entityLabel">cell_summary</text><rect height="21" width="39.25" y="131" x="0" class="er attributeBoxEven"/><text style="dominant-baseline: middle; font-size: 10.2px;" transform="translate(5,141.5)" y="0" x="0" id="text-entity-CollisionData-e070b5c2-3fc7-5ea4-9d87-8dc5bef8fa08-attr-6-type" class="er entityLabel">string</text><rect height="21" width="80.703125" y="131" x="39.25" class="er attributeBoxEven"/><text style="dominant-baseline: middle; font-size: 10.2px;" transform="translate(44.25,141.5)" y="0" x="0" id="text-entity-CollisionData-e070b5c2-3fc7-5ea4-9d87-8dc5bef8fa08-attr-6-name" class="er entityLabel">corridor</text></g><g transform="translate(20,482 )" id="entity-CollisionSummary-007ff99f-bcd8-55d2-b030-cf6c36577bce"><rect height="88" width="154.625" y="0" x="0" class="er entityBox"/><text style="dominant-baseline: middle; text-anchor: middle; font-size: 12px;" transform="translate(77.3125,12)" y="0" x="0" id="text-entity-CollisionSummary-007ff99f-bcd8-55d2-b030-cf6c36577bce" class="er entityLabel">CollisionSummary</text><rect height="22" width="59.03125" y="24" x="0" class="er attributeBoxOdd"/><text style="dominant-baseline: middle; font-size: 10.2px;" transform="translate(5,35)" y="0" x="0" id="text-entity-CollisionSummary-007ff99f-bcd8-55d2-b030-cf6c36577bce-attr-1-type" class="er entityLabel">string</text><rect height="22" width="95.59375" y="24" x="59.03125" class="er attributeBoxOdd"/><text style="dominant-baseline: middle; font-size: 10.2px;" transform="translate(64.03125,35)" y="0" x="0" id="text-entity-CollisionSummary-007ff99f-bcd8-55d2-b030-cf6c36577bce-attr-1-name" class="er entityLabel">collision_method</text><rect height="21" width="59.03125" y="46" x="0" class="er attributeBoxEven"/><text style="dominant-baseline: middle; font-size: 10.2px;" transform="translate(5,56.5)" y="0" x="0" id="text-entity-CollisionSummary-007ff99f-bcd8-55d2-b030-cf6c36577bce-attr-2-type" class="er entityLabel">uriorcurie</text><rect height="21" width="95.59375" y="46" x="59.03125" class="er attributeBoxEven"/><text style="dominant-baseline: middle; font-size: 10.2px;" transform="translate(64.03125,56.5)" y="0" x="0" id="text-entity-CollisionSummary-007ff99f-bcd8-55d2-b030-cf6c36577bce-attr-2-name" class="er entityLabel">id</text><rect height="21" width="59.03125" y="67" x="0" class="er attributeBoxOdd"/><text style="dominant-baseline: middle; font-size: 10.2px;" transform="translate(5,77.5)" y="0" x="0" id="text-entity-CollisionSummary-007ff99f-bcd8-55d2-b030-cf6c36577bce-attr-3-type" class="er entityLabel">string</text><rect height="21" width="95.59375" y="67" x="59.03125" class="er attributeBoxOdd"/><text style="dominant-baseline: middle; font-size: 10.2px;" transform="translate(64.03125,77.5)" y="0" x="0" id="text-entity-CollisionSummary-007ff99f-bcd8-55d2-b030-cf6c36577bce-attr-3-name" class="er entityLabel">label</text></g><g transform="translate(47.3125,900 )" id="entity-Named-527792da-945b-57c2-aece-6a504f46f916"><rect height="66" width="100" y="0" x="0" class="er entityBox"/><text style="dominant-baseline: middle; text-anchor: middle; font-size: 12px;" transform="translate(50,12)" y="0" x="0" id="text-entity-Named-527792da-945b-57c2-aece-6a504f46f916" class="er entityLabel">Named</text><rect height="21" width="62.1953125" y="24" x="0" class="er attributeBoxOdd"/><text style="dominant-baseline: middle; font-size: 10.2px;" transform="translate(5,34.5)" y="0" x="0" id="text-entity-Named-527792da-945b-57c2-aece-6a504f46f916-attr-1-type" class="er entityLabel">uriorcurie</text><rect height="21" width="37.8046875" y="24" x="62.1953125" class="er attributeBoxOdd"/><text style="dominant-baseline: middle; font-size: 10.2px;" transform="translate(67.1953125,34.5)" y="0" x="0" id="text-entity-Named-527792da-945b-57c2-aece-6a504f46f916-attr-1-name" class="er entityLabel">id</text><rect height="21" width="62.1953125" y="45" x="0" class="er attributeBoxEven"/><text style="dominant-baseline: middle; font-size: 10.2px;" transform="translate(5,55.5)" y="0" x="0" id="text-entity-Named-527792da-945b-57c2-aece-6a504f46f916-attr-2-type" class="er entityLabel">string</text><rect height="21" width="37.8046875" y="45" x="62.1953125" class="er attributeBoxEven"/><text style="dominant-baseline: middle; font-size: 10.2px;" transform="translate(67.1953125,55.5)" y="0" x="0" id="text-entity-Named-527792da-945b-57c2-aece-6a504f46f916-attr-2-name" class="er entityLabel">label</text></g><g transform="translate(99.47265625,670 )" id="entity-CollisionItem-f4ad6f77-f333-5bb1-be13-50ddcb433810"><rect height="130" width="191.359375" y="0" x="0" class="er entityBox"/><text style="dominant-baseline: middle; text-anchor: middle; font-size: 12px;" transform="translate(95.6796875,12)" y="0" x="0" id="text-entity-CollisionItem-f4ad6f77-f333-5bb1-be13-50ddcb433810" class="er entityLabel">CollisionItem</text><rect height="22" width="59.03125" y="24" x="0" class="er attributeBoxOdd"/><text style="dominant-baseline: middle; font-size: 10.2px;" transform="translate(5,35)" y="0" x="0" id="text-entity-CollisionItem-f4ad6f77-f333-5bb1-be13-50ddcb433810-attr-1-type" class="er entityLabel">uriorcurie</text><rect height="22" width="132.328125" y="24" x="59.03125" class="er attributeBoxOdd"/><text style="dominant-baseline: middle; font-size: 10.2px;" transform="translate(64.03125,35)" y="0" x="0" id="text-entity-CollisionItem-f4ad6f77-f333-5bb1-be13-50ddcb433810-attr-1-name" class="er entityLabel">spatial_entity_reference</text><rect height="21" width="59.03125" y="46" x="0" class="er attributeBoxEven"/><text style="dominant-baseline: middle; font-size: 10.2px;" transform="translate(5,56.5)" y="0" x="0" id="text-entity-CollisionItem-f4ad6f77-f333-5bb1-be13-50ddcb433810-attr-2-type" class="er entityLabel">float</text><rect height="21" width="132.328125" y="46" x="59.03125" class="er attributeBoxEven"/><text style="dominant-baseline: middle; font-size: 10.2px;" transform="translate(64.03125,56.5)" y="0" x="0" id="text-entity-CollisionItem-f4ad6f77-f333-5bb1-be13-50ddcb433810-attr-2-name" class="er entityLabel">volume</text><rect height="21" width="59.03125" y="67" x="0" class="er attributeBoxOdd"/><text style="dominant-baseline: middle; font-size: 10.2px;" transform="translate(5,77.5)" y="0" x="0" id="text-entity-CollisionItem-f4ad6f77-f333-5bb1-be13-50ddcb433810-attr-3-type" class="er entityLabel">float</text><rect height="21" width="132.328125" y="67" x="59.03125" class="er attributeBoxOdd"/><text style="dominant-baseline: middle; font-size: 10.2px;" transform="translate(64.03125,77.5)" y="0" x="0" id="text-entity-CollisionItem-f4ad6f77-f333-5bb1-be13-50ddcb433810-attr-3-name" class="er entityLabel">percentage</text><rect height="21" width="59.03125" y="88" x="0" class="er attributeBoxEven"/><text style="dominant-baseline: middle; font-size: 10.2px;" transform="translate(5,98.5)" y="0" x="0" id="text-entity-CollisionItem-f4ad6f77-f333-5bb1-be13-50ddcb433810-attr-4-type" class="er entityLabel">uriorcurie</text><rect height="21" width="132.328125" y="88" x="59.03125" class="er attributeBoxEven"/><text style="dominant-baseline: middle; font-size: 10.2px;" transform="translate(64.03125,98.5)" y="0" x="0" id="text-entity-CollisionItem-f4ad6f77-f333-5bb1-be13-50ddcb433810-attr-4-name" class="er entityLabel">id</text><rect height="21" width="59.03125" y="109" x="0" class="er attributeBoxOdd"/><text style="dominant-baseline: middle; font-size: 10.2px;" transform="translate(5,119.5)" y="0" x="0" id="text-entity-CollisionItem-f4ad6f77-f333-5bb1-be13-50ddcb433810-attr-5-type" class="er entityLabel">string</text><rect height="21" width="132.328125" y="109" x="59.03125" class="er attributeBoxOdd"/><text style="dominant-baseline: middle; font-size: 10.2px;" transform="translate(64.03125,119.5)" y="0" x="0" id="text-entity-CollisionItem-f4ad6f77-f333-5bb1-be13-50ddcb433810-attr-5-name" class="er entityLabel">label</text></g><g transform="translate(257.2890625,165 )" id="entity-CollisionMetadata-d90580f9-2b30-53f3-a639-3e29e8b1cfe1"><rect height="217" width="156.4871826171875" y="0" x="0" class="er entityBox"/><text style="dominant-baseline: middle; text-anchor: middle; font-size: 12px;" transform="translate(78.24359130859375,12)" y="0" x="0" id="text-entity-CollisionMetadata-d90580f9-2b30-53f3-a639-3e29e8b1cfe1" class="er entityLabel">CollisionMetadata</text><rect height="21" width="76.8309326171875" y="24" x="0" class="er attributeBoxOdd"/><text style="dominant-baseline: middle; font-size: 10.2px;" transform="translate(5,34.5)" y="0" x="0" id="text-entity-CollisionMetadata-d90580f9-2b30-53f3-a639-3e29e8b1cfe1-attr-1-type" class="er entityLabel">string</text><rect height="21" width="79.65625" y="24" x="76.8309326171875" class="er attributeBoxOdd"/><text style="dominant-baseline: middle; font-size: 10.2px;" transform="translate(81.8309326171875,34.5)" y="0" x="0" id="text-entity-CollisionMetadata-d90580f9-2b30-53f3-a639-3e29e8b1cfe1-attr-1-name" class="er entityLabel">title</text><rect height="21" width="76.8309326171875" y="45" x="0" class="er attributeBoxEven"/><text style="dominant-baseline: middle; font-size: 10.2px;" transform="translate(5,55.5)" y="0" x="0" id="text-entity-CollisionMetadata-d90580f9-2b30-53f3-a639-3e29e8b1cfe1-attr-2-type" class="er entityLabel">string</text><rect height="21" width="79.65625" y="45" x="76.8309326171875" class="er attributeBoxEven"/><text style="dominant-baseline: middle; font-size: 10.2px;" transform="translate(81.8309326171875,55.5)" y="0" x="0" id="text-entity-CollisionMetadata-d90580f9-2b30-53f3-a639-3e29e8b1cfe1-attr-2-name" class="er entityLabel">description</text><rect height="22" width="76.8309326171875" y="66" x="0" class="er attributeBoxOdd"/><text style="dominant-baseline: middle; font-size: 10.2px;" transform="translate(5,77)" y="0" x="0" id="text-entity-CollisionMetadata-d90580f9-2b30-53f3-a639-3e29e8b1cfe1-attr-3-type" class="er entityLabel">uriorcurieList</text><rect height="22" width="79.65625" y="66" x="76.8309326171875" class="er attributeBoxOdd"/><text style="dominant-baseline: middle; font-size: 10.2px;" transform="translate(81.8309326171875,77)" y="0" x="0" id="text-entity-CollisionMetadata-d90580f9-2b30-53f3-a639-3e29e8b1cfe1-attr-3-name" class="er entityLabel">created_by</text><rect height="22" width="76.8309326171875" y="88" x="0" class="er attributeBoxEven"/><text style="dominant-baseline: middle; font-size: 10.2px;" transform="translate(5,99)" y="0" x="0" id="text-entity-CollisionMetadata-d90580f9-2b30-53f3-a639-3e29e8b1cfe1-attr-4-type" class="er entityLabel">string</text><rect height="22" width="79.65625" y="88" x="76.8309326171875" class="er attributeBoxEven"/><text style="dominant-baseline: middle; font-size: 10.2px;" transform="translate(81.8309326171875,99)" y="0" x="0" id="text-entity-CollisionMetadata-d90580f9-2b30-53f3-a639-3e29e8b1cfe1-attr-4-name" class="er entityLabel">creation_date</text><rect height="21" width="76.8309326171875" y="110" x="0" class="er attributeBoxOdd"/><text style="dominant-baseline: middle; font-size: 10.2px;" transform="translate(5,120.5)" y="0" x="0" id="text-entity-CollisionMetadata-d90580f9-2b30-53f3-a639-3e29e8b1cfe1-attr-5-type" class="er entityLabel">string</text><rect height="21" width="79.65625" y="110" x="76.8309326171875" class="er attributeBoxOdd"/><text style="dominant-baseline: middle; font-size: 10.2px;" transform="translate(81.8309326171875,120.5)" y="0" x="0" id="text-entity-CollisionMetadata-d90580f9-2b30-53f3-a639-3e29e8b1cfe1-attr-5-name" class="er entityLabel">version</text><rect height="21" width="76.8309326171875" y="131" x="0" class="er attributeBoxEven"/><text style="dominant-baseline: middle; font-size: 10.2px;" transform="translate(5,141.5)" y="0" x="0" id="text-entity-CollisionMetadata-d90580f9-2b30-53f3-a639-3e29e8b1cfe1-attr-6-type" class="er entityLabel">string</text><rect height="21" width="79.65625" y="131" x="76.8309326171875" class="er attributeBoxEven"/><text style="dominant-baseline: middle; font-size: 10.2px;" transform="translate(81.8309326171875,141.5)" y="0" x="0" id="text-entity-CollisionMetadata-d90580f9-2b30-53f3-a639-3e29e8b1cfe1-attr-6-name" class="er entityLabel">license</text><rect height="21" width="76.8309326171875" y="152" x="0" class="er attributeBoxOdd"/><text style="dominant-baseline: middle; font-size: 10.2px;" transform="translate(5,162.5)" y="0" x="0" id="text-entity-CollisionMetadata-d90580f9-2b30-53f3-a639-3e29e8b1cfe1-attr-7-type" class="er entityLabel">string</text><rect height="21" width="79.65625" y="152" x="76.8309326171875" class="er attributeBoxOdd"/><text style="dominant-baseline: middle; font-size: 10.2px;" transform="translate(81.8309326171875,162.5)" y="0" x="0" id="text-entity-CollisionMetadata-d90580f9-2b30-53f3-a639-3e29e8b1cfe1-attr-7-name" class="er entityLabel">publisher</text><rect height="22" width="76.8309326171875" y="173" x="0" class="er attributeBoxEven"/><text style="dominant-baseline: middle; font-size: 10.2px;" transform="translate(5,184)" y="0" x="0" id="text-entity-CollisionMetadata-d90580f9-2b30-53f3-a639-3e29e8b1cfe1-attr-8-type" class="er entityLabel">uriorcurie</text><rect height="22" width="79.65625" y="173" x="76.8309326171875" class="er attributeBoxEven"/><text style="dominant-baseline: middle; font-size: 10.2px;" transform="translate(81.8309326171875,184)" y="0" x="0" id="text-entity-CollisionMetadata-d90580f9-2b30-53f3-a639-3e29e8b1cfe1-attr-8-name" class="er entityLabel">see_also</text><rect height="22" width="76.8309326171875" y="195" x="0" class="er attributeBoxOdd"/><text style="dominant-baseline: middle; font-size: 10.2px;" transform="translate(5,206)" y="0" x="0" id="text-entity-CollisionMetadata-d90580f9-2b30-53f3-a639-3e29e8b1cfe1-attr-9-type" class="er entityLabel">uriorcurie</text><rect height="22" width="79.65625" y="195" x="76.8309326171875" class="er attributeBoxOdd"/><text style="dominant-baseline: middle; font-size: 10.2px;" transform="translate(81.8309326171875,206)" y="0" x="0" id="text-entity-CollisionMetadata-d90580f9-2b30-53f3-a639-3e29e8b1cfe1-attr-9-name" class="er entityLabel">derived_from</text></g><rect height="14" width="58.171875" y="96.66246032714844" x="281.5391845703125" class="er relationshipLabelBox"/><text style="text-anchor: middle; dominant-baseline: middle; font-size: 12px;" y="103.66246032714844" x="310.6251220703125" id="rel1" class="er relationshipLabel">metadata</text><rect height="14" width="27.03125" y="109.4737548828125" x="100.11328125" class="er relationshipLabelBox"/><text style="text-anchor: middle; dominant-baseline: middle; font-size: 12px;" y="116.4737548828125" x="113.62890625" id="rel2" class="er relationshipLabel">data</text><rect height="14" width="48.484375" y="408.75" x="73.07081604003906" class="er relationshipLabelBox"/><text style="text-anchor: middle; dominant-baseline: middle; font-size: 12px;" y="415.75" x="97.31300354003906" id="rel3" class="er relationshipLabel">collision</text><rect height="14" width="87.84375" y="606.4682006835938" x="138.74020385742188" class="er relationshipLabelBox"/><text style="text-anchor: middle; dominant-baseline: middle; font-size: 12px;" y="613.4682006835938" x="182.66207885742188" id="rel4" class="er relationshipLabel">collision_items</text><rect height="14" width="45.1484375" y="729.9022216796875" x="-23.100583612918854" class="er relationshipLabelBox"/><text style="text-anchor: middle; dominant-baseline: middle; font-size: 12px;" y="736.9022216796875" x="-0.5263648629188538" id="rel5" class="er relationshipLabel">type_of</text><rect height="14" width="45.1484375" y="850.7476806640625" x="157.53053283691406" class="er relationshipLabelBox"/><text style="text-anchor: middle; dominant-baseline: middle; font-size: 12px;" y="857.7476806640625" x="180.10475158691406" id="rel6" class="er relationshipLabel">type_of</text></svg>