<svg aria-roledescription="er" role="graphics-document document" viewBox="0 0 959.40966796875 1171" style="max-width: 959.41px; background-color: transparent;" xmlns:xlink="http://www.w3.org/1999/xlink" xmlns="http://www.w3.org/2000/svg" width="100%" id="my-svg"><style>#my-svg{font-family:"trebuchet ms",verdana,arial,sans-serif;font-size:16px;fill:#333;}#my-svg .error-icon{fill:#552222;}#my-svg .error-text{fill:#552222;stroke:#552222;}#my-svg .edge-thickness-normal{stroke-width:1px;}#my-svg .edge-thickness-thick{stroke-width:3.5px;}#my-svg .edge-pattern-solid{stroke-dasharray:0;}#my-svg .edge-thickness-invisible{stroke-width:0;fill:none;}#my-svg .edge-pattern-dashed{stroke-dasharray:3;}#my-svg .edge-pattern-dotted{stroke-dasharray:2;}#my-svg .marker{fill:#333333;stroke:#333333;}#my-svg .marker.cross{stroke:#333333;}#my-svg svg{font-family:"trebuchet ms",verdana,arial,sans-serif;font-size:16px;}#my-svg p{margin:0;}#my-svg .entityBox{fill:#ECECFF;stroke:#9370DB;}#my-svg .attributeBoxOdd{fill:#ffffff;stroke:#9370DB;}#my-svg .attributeBoxEven{fill:#f2f2f2;stroke:#9370DB;}#my-svg .relationshipLabelBox{fill:hsl(80, 100%, 96.2745098039%);opacity:0.7;background-color:hsl(80, 100%, 96.2745098039%);}#my-svg .relationshipLabelBox rect{opacity:0.5;}#my-svg .relationshipLine{stroke:#333333;}#my-svg .entityTitleText{text-anchor:middle;font-size:18px;fill:#333;}#my-svg #MD_PARENT_START{fill:#f5f5f5!important;stroke:#333333!important;stroke-width:1;}#my-svg #MD_PARENT_END{fill:#f5f5f5!important;stroke:#333333!important;stroke-width:1;}#my-svg :root{--mermaid-font-family:"trebuchet ms",verdana,arial,sans-serif;}</style><g/><defs><marker orient="auto" markerHeight="240" markerWidth="190" refY="7" refX="0" id="MD_PARENT_START"><path d="M 18,7 L9,13 L1,7 L9,1 Z"/></marker></defs><defs><marker orient="auto" markerHeight="28" markerWidth="20" refY="7" refX="19" id="MD_PARENT_END"><path d="M 18,7 L9,13 L1,7 L9,1 Z"/></marker></defs><defs><marker orient="auto" markerHeight="18" markerWidth="18" refY="9" refX="0" id="ONLY_ONE_START"><path d="M9,0 L9,18 M15,0 L15,18" fill="none" stroke="gray"/></marker></defs><defs><marker orient="auto" markerHeight="18" markerWidth="18" refY="9" refX="18" id="ONLY_ONE_END"><path d="M3,0 L3,18 M9,0 L9,18" fill="none" stroke="gray"/></marker></defs><defs><marker orient="auto" markerHeight="18" markerWidth="30" refY="9" refX="0" id="ZERO_OR_ONE_START"><circle r="6" cy="9" cx="21" fill="white" stroke="gray"/><path d="M9,0 L9,18" fill="none" stroke="gray"/></marker></defs><defs><marker orient="auto" markerHeight="18" markerWidth="30" refY="9" refX="30" id="ZERO_OR_ONE_END"><circle r="6" cy="9" cx="9" fill="white" stroke="gray"/><path d="M21,0 L21,18" fill="none" stroke="gray"/></marker></defs><defs><marker orient="auto" markerHeight="36" markerWidth="45" refY="18" refX="18" id="ONE_OR_MORE_START"><path d="M0,18 Q 18,0 36,18 Q 18,36 0,18 M42,9 L42,27" fill="none" stroke="gray"/></marker></defs><defs><marker orient="auto" markerHeight="36" markerWidth="45" refY="18" refX="27" id="ONE_OR_MORE_END"><path d="M3,9 L3,27 M9,18 Q27,0 45,18 Q27,36 9,18" fill="none" stroke="gray"/></marker></defs><defs><marker orient="auto" markerHeight="36" markerWidth="57" refY="18" refX="18" id="ZERO_OR_MORE_START"><circle r="6" cy="18" cx="48" fill="white" stroke="gray"/><path d="M0,18 Q18,0 36,18 Q18,36 0,18" fill="none" stroke="gray"/></marker></defs><defs><marker orient="auto" markerHeight="36" markerWidth="57" refY="18" refX="39" id="ZERO_OR_MORE_END"><circle r="6" cy="18" cx="9" fill="white" stroke="gray"/><path d="M21,18 Q39,0 57,18 Q39,36 21,18" fill="none" stroke="gray"/></marker></defs><path style="stroke: gray; fill: none;" marker-start="url(#ONLY_ONE_START)" marker-end="url(#ONE_OR_MORE_END)" d="M498.891,206.024L549.139,232.853C599.387,259.683,699.882,313.341,750.13,373.254C800.378,433.167,800.378,499.333,800.378,565.5C800.378,631.667,800.378,697.833,809.367,746.25C818.357,794.667,836.336,825.333,845.325,840.667L854.314,856" class="er relationshipLine"/><path style="stroke: gray; fill: none;" marker-start="url(#ONLY_ONE_START)" marker-end="url(#ONE_OR_MORE_END)" d="M358.336,207.287L310.106,233.906C261.877,260.525,165.417,313.762,117.188,373.465C68.958,433.167,68.958,499.333,68.958,565.5C68.958,631.667,68.958,697.833,69.759,741C70.559,784.167,72.161,804.333,72.962,814.417L73.762,824.5" class="er relationshipLine"/><path style="stroke: gray; fill: none;" marker-start="url(#ONLY_ONE_START)" marker-end="url(#ZERO_OR_ONE_END)" d="M428.614,317L428.614,325.333C428.614,333.667,428.614,350.333,428.614,367C428.614,383.667,428.614,400.333,428.614,408.667L428.614,417" class="er relationshipLine"/><path style="stroke: gray; fill: none;" marker-start="url(#ONLY_ONE_START)" marker-end="url(#ZERO_OR_MORE_END)" d="M492.292,592.294L560.307,620.911C628.321,649.529,764.349,706.765,830.037,750.716C895.725,794.667,891.071,825.333,888.744,840.667L886.418,856" class="er relationshipLine"/><path style="stroke: gray; fill: none;" marker-start="url(#ONLY_ONE_START)" marker-end="url(#ZERO_OR_MORE_END)" d="M364.935,649.768L350.548,668.807C336.161,687.846,307.387,725.923,298.695,753.295C290.003,780.667,301.393,797.333,307.088,805.667L312.783,814" class="er relationshipLine"/><path style="stroke: gray; fill: none;" marker-start="url(#ONLY_ONE_START)" marker-end="url(#ZERO_OR_MORE_END)" d="M492.292,632.346L513.195,654.289C534.098,676.231,575.903,720.115,596.805,759.141C617.708,798.167,617.708,832.333,617.708,849.417L617.708,866.5" class="er relationshipLine"/><path style="stroke: gray; fill: none;" marker-start="url(#ONLY_ONE_START)" marker-end="url(#ZERO_OR_MORE_END)" d="M391.208,714L389.109,722.333C387.01,730.667,382.812,747.333,380.257,764C377.703,780.667,376.793,797.333,376.338,805.667L375.883,814" class="er relationshipLine"/><path style="stroke: gray; fill: none;" marker-start="url(#ONLY_ONE_START)" marker-end="url(#ZERO_OR_MORE_END)" d="M466.019,714L468.118,722.333C470.217,730.667,474.415,747.333,468.546,765.719C462.678,784.105,446.742,804.211,438.774,814.263L430.806,824.316" class="er relationshipLine"/><path style="stroke: gray; fill: none;" marker-start="url(#ONLY_ONE_START)" marker-end="url(#ZERO_OR_MORE_END)" d="M364.935,616.061L333.881,640.718C302.828,665.374,240.721,714.687,202.308,749.427C163.895,784.167,149.176,804.333,141.817,814.417L134.457,824.5" class="er relationshipLine"/><path style="stroke: gray; fill: none;" marker-start="url(#ONLY_ONE_START)" marker-end="url(#ZERO_OR_ONE_END)" d="M492.292,517.997L514.858,501.164C537.423,484.332,582.553,450.666,610.759,433.833C638.965,417,650.248,417,661.53,441.75C672.813,466.5,684.095,516,684.095,565.5C684.095,615,672.813,664.5,661.53,689.25C650.248,714,638.965,714,610.759,697.167C582.553,680.334,537.423,646.668,514.858,629.836L492.292,613.003" class="er relationshipLine"/><path style="stroke: gray; fill: none;" marker-start="url(#ONLY_ONE_START)" marker-end="url(#ZERO_OR_MORE_END)" d="M371.213,985L371.213,993.333C371.213,1001.667,371.213,1018.333,371.213,1035C371.213,1051.667,371.213,1068.333,371.213,1076.667L371.213,1085" class="er relationshipLine"/><g transform="translate(358.33594512939453,20 )" id="entity-Container-bc34fb32-8a75-5b81-936b-92374bf40296"><rect height="297" width="140.55511474609375" y="0" x="0" class="er entityBox"/><text style="dominant-baseline: middle; text-anchor: middle; font-size: 12px;" transform="translate(70.27755737304688,12)" y="0" x="0" id="text-entity-Container-bc34fb32-8a75-5b81-936b-92374bf40296" class="er entityLabel">Container</text><rect height="21" width="68.48406982421875" y="24" x="0" class="er attributeBoxOdd"/><text style="dominant-baseline: middle; font-size: 10.2px;" transform="translate(5,34.5)" y="0" x="0" id="text-entity-Container-bc34fb32-8a75-5b81-936b-92374bf40296-attr-1-type" class="er entityLabel">string</text><rect height="21" width="72.071044921875" y="24" x="68.48406982421875" class="er attributeBoxOdd"/><text style="dominant-baseline: middle; font-size: 10.2px;" transform="translate(73.48406982421875,34.5)" y="0" x="0" id="text-entity-Container-bc34fb32-8a75-5b81-936b-92374bf40296-attr-1-name" class="er entityLabel">name</text><rect height="21" width="68.48406982421875" y="45" x="0" class="er attributeBoxEven"/><text style="dominant-baseline: middle; font-size: 10.2px;" transform="translate(5,55.5)" y="0" x="0" id="text-entity-Container-bc34fb32-8a75-5b81-936b-92374bf40296-attr-2-type" class="er entityLabel">string</text><rect height="21" width="72.071044921875" y="45" x="68.48406982421875" class="er attributeBoxEven"/><text style="dominant-baseline: middle; font-size: 10.2px;" transform="translate(73.48406982421875,55.5)" y="0" x="0" id="text-entity-Container-bc34fb32-8a75-5b81-936b-92374bf40296-attr-2-name" class="er entityLabel">type</text><rect height="21" width="68.48406982421875" y="66" x="0" class="er attributeBoxOdd"/><text style="dominant-baseline: middle; font-size: 10.2px;" transform="translate(5,76.5)" y="0" x="0" id="text-entity-Container-bc34fb32-8a75-5b81-936b-92374bf40296-attr-3-type" class="er entityLabel">string</text><rect height="21" width="72.071044921875" y="66" x="68.48406982421875" class="er attributeBoxOdd"/><text style="dominant-baseline: middle; font-size: 10.2px;" transform="translate(73.48406982421875,76.5)" y="0" x="0" id="text-entity-Container-bc34fb32-8a75-5b81-936b-92374bf40296-attr-3-name" class="er entityLabel">title</text><rect height="21" width="68.48406982421875" y="87" x="0" class="er attributeBoxEven"/><text style="dominant-baseline: middle; font-size: 10.2px;" transform="translate(5,97.5)" y="0" x="0" id="text-entity-Container-bc34fb32-8a75-5b81-936b-92374bf40296-attr-4-type" class="er entityLabel">string</text><rect height="21" width="72.071044921875" y="87" x="68.48406982421875" class="er attributeBoxEven"/><text style="dominant-baseline: middle; font-size: 10.2px;" transform="translate(73.48406982421875,97.5)" y="0" x="0" id="text-entity-Container-bc34fb32-8a75-5b81-936b-92374bf40296-attr-4-name" class="er entityLabel">description</text><rect height="21" width="68.48406982421875" y="108" x="0" class="er attributeBoxOdd"/><text style="dominant-baseline: middle; font-size: 10.2px;" transform="translate(5,118.5)" y="0" x="0" id="text-entity-Container-bc34fb32-8a75-5b81-936b-92374bf40296-attr-5-type" class="er entityLabel">string</text><rect height="21" width="72.071044921875" y="108" x="68.48406982421875" class="er attributeBoxOdd"/><text style="dominant-baseline: middle; font-size: 10.2px;" transform="translate(73.48406982421875,118.5)" y="0" x="0" id="text-entity-Container-bc34fb32-8a75-5b81-936b-92374bf40296-attr-5-name" class="er entityLabel">version</text><rect height="21" width="68.48406982421875" y="129" x="0" class="er attributeBoxEven"/><text style="dominant-baseline: middle; font-size: 10.2px;" transform="translate(5,139.5)" y="0" x="0" id="text-entity-Container-bc34fb32-8a75-5b81-936b-92374bf40296-attr-6-type" class="er entityLabel">string</text><rect height="21" width="72.071044921875" y="129" x="68.48406982421875" class="er attributeBoxEven"/><text style="dominant-baseline: middle; font-size: 10.2px;" transform="translate(73.48406982421875,139.5)" y="0" x="0" id="text-entity-Container-bc34fb32-8a75-5b81-936b-92374bf40296-attr-6-name" class="er entityLabel">creation_date</text><rect height="21" width="68.48406982421875" y="150" x="0" class="er attributeBoxOdd"/><text style="dominant-baseline: middle; font-size: 10.2px;" transform="translate(5,160.5)" y="0" x="0" id="text-entity-Container-bc34fb32-8a75-5b81-936b-92374bf40296-attr-7-type" class="er entityLabel">string</text><rect height="21" width="72.071044921875" y="150" x="68.48406982421875" class="er attributeBoxOdd"/><text style="dominant-baseline: middle; font-size: 10.2px;" transform="translate(73.48406982421875,160.5)" y="0" x="0" id="text-entity-Container-bc34fb32-8a75-5b81-936b-92374bf40296-attr-7-name" class="er entityLabel">publisher</text><rect height="21" width="68.48406982421875" y="171" x="0" class="er attributeBoxEven"/><text style="dominant-baseline: middle; font-size: 10.2px;" transform="translate(5,181.5)" y="0" x="0" id="text-entity-Container-bc34fb32-8a75-5b81-936b-92374bf40296-attr-8-type" class="er entityLabel">string</text><rect height="21" width="72.071044921875" y="171" x="68.48406982421875" class="er attributeBoxEven"/><text style="dominant-baseline: middle; font-size: 10.2px;" transform="translate(73.48406982421875,181.5)" y="0" x="0" id="text-entity-Container-bc34fb32-8a75-5b81-936b-92374bf40296-attr-8-name" class="er entityLabel">license</text><rect height="21" width="68.48406982421875" y="192" x="0" class="er attributeBoxOdd"/><text style="dominant-baseline: middle; font-size: 10.2px;" transform="translate(5,202.5)" y="0" x="0" id="text-entity-Container-bc34fb32-8a75-5b81-936b-92374bf40296-attr-9-type" class="er entityLabel">uriorcurie</text><rect height="21" width="72.071044921875" y="192" x="68.48406982421875" class="er attributeBoxOdd"/><text style="dominant-baseline: middle; font-size: 10.2px;" transform="translate(73.48406982421875,202.5)" y="0" x="0" id="text-entity-Container-bc34fb32-8a75-5b81-936b-92374bf40296-attr-9-name" class="er entityLabel">see_also</text><rect height="21" width="68.48406982421875" y="213" x="0" class="er attributeBoxEven"/><text style="dominant-baseline: middle; font-size: 10.2px;" transform="translate(5,223.5)" y="0" x="0" id="text-entity-Container-bc34fb32-8a75-5b81-936b-92374bf40296-attr-10-type" class="er entityLabel">uriorcurieList</text><rect height="21" width="72.071044921875" y="213" x="68.48406982421875" class="er attributeBoxEven"/><text style="dominant-baseline: middle; font-size: 10.2px;" transform="translate(73.48406982421875,223.5)" y="0" x="0" id="text-entity-Container-bc34fb32-8a75-5b81-936b-92374bf40296-attr-10-name" class="er entityLabel">had_member</text><rect height="21" width="68.48406982421875" y="234" x="0" class="er attributeBoxOdd"/><text style="dominant-baseline: middle; font-size: 10.2px;" transform="translate(5,244.5)" y="0" x="0" id="text-entity-Container-bc34fb32-8a75-5b81-936b-92374bf40296-attr-11-type" class="er entityLabel">uriorcurieList</text><rect height="21" width="72.071044921875" y="234" x="68.48406982421875" class="er attributeBoxOdd"/><text style="dominant-baseline: middle; font-size: 10.2px;" transform="translate(73.48406982421875,244.5)" y="0" x="0" id="text-entity-Container-bc34fb32-8a75-5b81-936b-92374bf40296-attr-11-name" class="er entityLabel">ontology_root</text><rect height="21" width="68.48406982421875" y="255" x="0" class="er attributeBoxEven"/><text style="dominant-baseline: middle; font-size: 10.2px;" transform="translate(5,265.5)" y="0" x="0" id="text-entity-Container-bc34fb32-8a75-5b81-936b-92374bf40296-attr-12-type" class="er entityLabel">uriorcurie</text><rect height="21" width="72.071044921875" y="255" x="68.48406982421875" class="er attributeBoxEven"/><text style="dominant-baseline: middle; font-size: 10.2px;" transform="translate(73.48406982421875,265.5)" y="0" x="0" id="text-entity-Container-bc34fb32-8a75-5b81-936b-92374bf40296-attr-12-name" class="er entityLabel">id</text><rect height="21" width="68.48406982421875" y="276" x="0" class="er attributeBoxOdd"/><text style="dominant-baseline: middle; font-size: 10.2px;" transform="translate(5,286.5)" y="0" x="0" id="text-entity-Container-bc34fb32-8a75-5b81-936b-92374bf40296-attr-13-type" class="er entityLabel">string</text><rect height="21" width="72.071044921875" y="276" x="68.48406982421875" class="er attributeBoxOdd"/><text style="dominant-baseline: middle; font-size: 10.2px;" transform="translate(73.48406982421875,286.5)" y="0" x="0" id="text-entity-Container-bc34fb32-8a75-5b81-936b-92374bf40296-attr-13-name" class="er entityLabel">label</text></g><g transform="translate(364.93456268310547,417 )" id="entity-Dataset-ea18c94d-808e-5959-ac2f-1bcc27afd155"><rect height="297" width="127.35787963867188" y="0" x="0" class="er entityBox"/><text style="dominant-baseline: middle; text-anchor: middle; font-size: 12px;" transform="translate(63.67893981933594,12)" y="0" x="0" id="text-entity-Dataset-ea18c94d-808e-5959-ac2f-1bcc27afd155" class="er entityLabel">Dataset</text><rect height="21" width="52.795379638671875" y="24" x="0" class="er attributeBoxOdd"/><text style="dominant-baseline: middle; font-size: 10.2px;" transform="translate(5,34.5)" y="0" x="0" id="text-entity-Dataset-ea18c94d-808e-5959-ac2f-1bcc27afd155-attr-1-type" class="er entityLabel">string</text><rect height="21" width="74.5625" y="24" x="52.795379638671875" class="er attributeBoxOdd"/><text style="dominant-baseline: middle; font-size: 10.2px;" transform="translate(57.795379638671875,34.5)" y="0" x="0" id="text-entity-Dataset-ea18c94d-808e-5959-ac2f-1bcc27afd155-attr-1-name" class="er entityLabel">title</text><rect height="21" width="52.795379638671875" y="45" x="0" class="er attributeBoxEven"/><text style="dominant-baseline: middle; font-size: 10.2px;" transform="translate(5,55.5)" y="0" x="0" id="text-entity-Dataset-ea18c94d-808e-5959-ac2f-1bcc27afd155-attr-2-type" class="er entityLabel">string</text><rect height="21" width="74.5625" y="45" x="52.795379638671875" class="er attributeBoxEven"/><text style="dominant-baseline: middle; font-size: 10.2px;" transform="translate(57.795379638671875,55.5)" y="0" x="0" id="text-entity-Dataset-ea18c94d-808e-5959-ac2f-1bcc27afd155-attr-2-name" class="er entityLabel">description</text><rect height="21" width="52.795379638671875" y="66" x="0" class="er attributeBoxOdd"/><text style="dominant-baseline: middle; font-size: 10.2px;" transform="translate(5,76.5)" y="0" x="0" id="text-entity-Dataset-ea18c94d-808e-5959-ac2f-1bcc27afd155-attr-3-type" class="er entityLabel">string</text><rect height="21" width="74.5625" y="66" x="52.795379638671875" class="er attributeBoxOdd"/><text style="dominant-baseline: middle; font-size: 10.2px;" transform="translate(57.795379638671875,76.5)" y="0" x="0" id="text-entity-Dataset-ea18c94d-808e-5959-ac2f-1bcc27afd155-attr-3-name" class="er entityLabel">creation_date</text><rect height="21" width="52.795379638671875" y="87" x="0" class="er attributeBoxEven"/><text style="dominant-baseline: middle; font-size: 10.2px;" transform="translate(5,97.5)" y="0" x="0" id="text-entity-Dataset-ea18c94d-808e-5959-ac2f-1bcc27afd155-attr-4-type" class="er entityLabel">string</text><rect height="21" width="74.5625" y="87" x="52.795379638671875" class="er attributeBoxEven"/><text style="dominant-baseline: middle; font-size: 10.2px;" transform="translate(57.795379638671875,97.5)" y="0" x="0" id="text-entity-Dataset-ea18c94d-808e-5959-ac2f-1bcc27afd155-attr-4-name" class="er entityLabel">version</text><rect height="21" width="52.795379638671875" y="108" x="0" class="er attributeBoxOdd"/><text style="dominant-baseline: middle; font-size: 10.2px;" transform="translate(5,118.5)" y="0" x="0" id="text-entity-Dataset-ea18c94d-808e-5959-ac2f-1bcc27afd155-attr-5-type" class="er entityLabel">string</text><rect height="21" width="74.5625" y="108" x="52.795379638671875" class="er attributeBoxOdd"/><text style="dominant-baseline: middle; font-size: 10.2px;" transform="translate(57.795379638671875,118.5)" y="0" x="0" id="text-entity-Dataset-ea18c94d-808e-5959-ac2f-1bcc27afd155-attr-5-name" class="er entityLabel">license</text><rect height="21" width="52.795379638671875" y="129" x="0" class="er attributeBoxEven"/><text style="dominant-baseline: middle; font-size: 10.2px;" transform="translate(5,139.5)" y="0" x="0" id="text-entity-Dataset-ea18c94d-808e-5959-ac2f-1bcc27afd155-attr-6-type" class="er entityLabel">uriorcurie</text><rect height="21" width="74.5625" y="129" x="52.795379638671875" class="er attributeBoxEven"/><text style="dominant-baseline: middle; font-size: 10.2px;" transform="translate(57.795379638671875,139.5)" y="0" x="0" id="text-entity-Dataset-ea18c94d-808e-5959-ac2f-1bcc27afd155-attr-6-name" class="er entityLabel">see_also</text><rect height="21" width="52.795379638671875" y="150" x="0" class="er attributeBoxOdd"/><text style="dominant-baseline: middle; font-size: 10.2px;" transform="translate(5,160.5)" y="0" x="0" id="text-entity-Dataset-ea18c94d-808e-5959-ac2f-1bcc27afd155-attr-7-type" class="er entityLabel">string</text><rect height="21" width="74.5625" y="150" x="52.795379638671875" class="er attributeBoxOdd"/><text style="dominant-baseline: middle; font-size: 10.2px;" transform="translate(57.795379638671875,160.5)" y="0" x="0" id="text-entity-Dataset-ea18c94d-808e-5959-ac2f-1bcc27afd155-attr-7-name" class="er entityLabel">publisher</text><rect height="21" width="52.795379638671875" y="171" x="0" class="er attributeBoxEven"/><text style="dominant-baseline: middle; font-size: 10.2px;" transform="translate(5,181.5)" y="0" x="0" id="text-entity-Dataset-ea18c94d-808e-5959-ac2f-1bcc27afd155-attr-8-type" class="er entityLabel">string</text><rect height="21" width="74.5625" y="171" x="52.795379638671875" class="er attributeBoxEven"/><text style="dominant-baseline: middle; font-size: 10.2px;" transform="translate(57.795379638671875,181.5)" y="0" x="0" id="text-entity-Dataset-ea18c94d-808e-5959-ac2f-1bcc27afd155-attr-8-name" class="er entityLabel">citation</text><rect height="21" width="52.795379638671875" y="192" x="0" class="er attributeBoxOdd"/><text style="dominant-baseline: middle; font-size: 10.2px;" transform="translate(5,202.5)" y="0" x="0" id="text-entity-Dataset-ea18c94d-808e-5959-ac2f-1bcc27afd155-attr-9-type" class="er entityLabel">string</text><rect height="21" width="74.5625" y="192" x="52.795379638671875" class="er attributeBoxOdd"/><text style="dominant-baseline: middle; font-size: 10.2px;" transform="translate(57.795379638671875,202.5)" y="0" x="0" id="text-entity-Dataset-ea18c94d-808e-5959-ac2f-1bcc27afd155-attr-9-name" class="er entityLabel">citationOverall</text><rect height="21" width="52.795379638671875" y="213" x="0" class="er attributeBoxEven"/><text style="dominant-baseline: middle; font-size: 10.2px;" transform="translate(5,223.5)" y="0" x="0" id="text-entity-Dataset-ea18c94d-808e-5959-ac2f-1bcc27afd155-attr-10-type" class="er entityLabel">uriorcurie</text><rect height="21" width="74.5625" y="213" x="52.795379638671875" class="er attributeBoxEven"/><text style="dominant-baseline: middle; font-size: 10.2px;" transform="translate(57.795379638671875,223.5)" y="0" x="0" id="text-entity-Dataset-ea18c94d-808e-5959-ac2f-1bcc27afd155-attr-10-name" class="er entityLabel">doi</text><rect height="21" width="52.795379638671875" y="234" x="0" class="er attributeBoxOdd"/><text style="dominant-baseline: middle; font-size: 10.2px;" transform="translate(5,244.5)" y="0" x="0" id="text-entity-Dataset-ea18c94d-808e-5959-ac2f-1bcc27afd155-attr-11-type" class="er entityLabel">string</text><rect height="21" width="74.5625" y="234" x="52.795379638671875" class="er attributeBoxOdd"/><text style="dominant-baseline: middle; font-size: 10.2px;" transform="translate(57.795379638671875,244.5)" y="0" x="0" id="text-entity-Dataset-ea18c94d-808e-5959-ac2f-1bcc27afd155-attr-11-name" class="er entityLabel">hubmapId</text><rect height="21" width="52.795379638671875" y="255" x="0" class="er attributeBoxEven"/><text style="dominant-baseline: middle; font-size: 10.2px;" transform="translate(5,265.5)" y="0" x="0" id="text-entity-Dataset-ea18c94d-808e-5959-ac2f-1bcc27afd155-attr-12-type" class="er entityLabel">uriorcurie</text><rect height="21" width="74.5625" y="255" x="52.795379638671875" class="er attributeBoxEven"/><text style="dominant-baseline: middle; font-size: 10.2px;" transform="translate(57.795379638671875,265.5)" y="0" x="0" id="text-entity-Dataset-ea18c94d-808e-5959-ac2f-1bcc27afd155-attr-12-name" class="er entityLabel">id</text><rect height="21" width="52.795379638671875" y="276" x="0" class="er attributeBoxOdd"/><text style="dominant-baseline: middle; font-size: 10.2px;" transform="translate(5,286.5)" y="0" x="0" id="text-entity-Dataset-ea18c94d-808e-5959-ac2f-1bcc27afd155-attr-13-type" class="er entityLabel">string</text><rect height="21" width="74.5625" y="276" x="52.795379638671875" class="er attributeBoxOdd"/><text style="dominant-baseline: middle; font-size: 10.2px;" transform="translate(57.795379638671875,286.5)" y="0" x="0" id="text-entity-Dataset-ea18c94d-808e-5959-ac2f-1bcc27afd155-attr-13-name" class="er entityLabel">label</text></g><g transform="translate(20,824.5 )" id="entity-Distribution-f9898466-f9b2-5f40-b605-9060bbc75b7d"><rect height="150" width="119.43600463867188" y="0" x="0" class="er entityBox"/><text style="dominant-baseline: middle; text-anchor: middle; font-size: 12px;" transform="translate(59.71800231933594,12)" y="0" x="0" id="text-entity-Distribution-f9898466-f9b2-5f40-b605-9060bbc75b7d" class="er entityLabel">Distribution</text><rect height="21" width="52.795379638671875" y="24" x="0" class="er attributeBoxOdd"/><text style="dominant-baseline: middle; font-size: 10.2px;" transform="translate(5,34.5)" y="0" x="0" id="text-entity-Distribution-f9898466-f9b2-5f40-b605-9060bbc75b7d-attr-1-type" class="er entityLabel">string</text><rect height="21" width="66.640625" y="24" x="52.795379638671875" class="er attributeBoxOdd"/><text style="dominant-baseline: middle; font-size: 10.2px;" transform="translate(57.795379638671875,34.5)" y="0" x="0" id="text-entity-Distribution-f9898466-f9b2-5f40-b605-9060bbc75b7d-attr-1-name" class="er entityLabel">title</text><rect height="21" width="52.795379638671875" y="45" x="0" class="er attributeBoxEven"/><text style="dominant-baseline: middle; font-size: 10.2px;" transform="translate(5,55.5)" y="0" x="0" id="text-entity-Distribution-f9898466-f9b2-5f40-b605-9060bbc75b7d-attr-2-type" class="er entityLabel">uri</text><rect height="21" width="66.640625" y="45" x="52.795379638671875" class="er attributeBoxEven"/><text style="dominant-baseline: middle; font-size: 10.2px;" transform="translate(57.795379638671875,55.5)" y="0" x="0" id="text-entity-Distribution-f9898466-f9b2-5f40-b605-9060bbc75b7d-attr-2-name" class="er entityLabel">downloadUrl</text><rect height="21" width="52.795379638671875" y="66" x="0" class="er attributeBoxOdd"/><text style="dominant-baseline: middle; font-size: 10.2px;" transform="translate(5,76.5)" y="0" x="0" id="text-entity-Distribution-f9898466-f9b2-5f40-b605-9060bbc75b7d-attr-3-type" class="er entityLabel">uri</text><rect height="21" width="66.640625" y="66" x="52.795379638671875" class="er attributeBoxOdd"/><text style="dominant-baseline: middle; font-size: 10.2px;" transform="translate(57.795379638671875,76.5)" y="0" x="0" id="text-entity-Distribution-f9898466-f9b2-5f40-b605-9060bbc75b7d-attr-3-name" class="er entityLabel">accessUrl</text><rect height="21" width="52.795379638671875" y="87" x="0" class="er attributeBoxEven"/><text style="dominant-baseline: middle; font-size: 10.2px;" transform="translate(5,97.5)" y="0" x="0" id="text-entity-Distribution-f9898466-f9b2-5f40-b605-9060bbc75b7d-attr-4-type" class="er entityLabel">string</text><rect height="21" width="66.640625" y="87" x="52.795379638671875" class="er attributeBoxEven"/><text style="dominant-baseline: middle; font-size: 10.2px;" transform="translate(57.795379638671875,97.5)" y="0" x="0" id="text-entity-Distribution-f9898466-f9b2-5f40-b605-9060bbc75b7d-attr-4-name" class="er entityLabel">mediaType</text><rect height="21" width="52.795379638671875" y="108" x="0" class="er attributeBoxOdd"/><text style="dominant-baseline: middle; font-size: 10.2px;" transform="translate(5,118.5)" y="0" x="0" id="text-entity-Distribution-f9898466-f9b2-5f40-b605-9060bbc75b7d-attr-5-type" class="er entityLabel">uriorcurie</text><rect height="21" width="66.640625" y="108" x="52.795379638671875" class="er attributeBoxOdd"/><text style="dominant-baseline: middle; font-size: 10.2px;" transform="translate(57.795379638671875,118.5)" y="0" x="0" id="text-entity-Distribution-f9898466-f9b2-5f40-b605-9060bbc75b7d-attr-5-name" class="er entityLabel">id</text><rect height="21" width="52.795379638671875" y="129" x="0" class="er attributeBoxEven"/><text style="dominant-baseline: middle; font-size: 10.2px;" transform="translate(5,139.5)" y="0" x="0" id="text-entity-Distribution-f9898466-f9b2-5f40-b605-9060bbc75b7d-attr-6-type" class="er entityLabel">string</text><rect height="21" width="66.640625" y="129" x="52.795379638671875" class="er attributeBoxEven"/><text style="dominant-baseline: middle; font-size: 10.2px;" transform="translate(57.795379638671875,139.5)" y="0" x="0" id="text-entity-Distribution-f9898466-f9b2-5f40-b605-9060bbc75b7d-attr-6-name" class="er entityLabel">label</text></g><g transform="translate(311.6200485229492,814 )" id="entity-Person-84ee9ab5-8d8f-5582-81c6-bfa2c33a578d"><rect height="171" width="119.18569946289062" y="0" x="0" class="er entityBox"/><text style="dominant-baseline: middle; text-anchor: middle; font-size: 12px;" transform="translate(59.59284973144531,12)" y="0" x="0" id="text-entity-Person-84ee9ab5-8d8f-5582-81c6-bfa2c33a578d" class="er entityLabel">Person</text><rect height="21" width="52.795379638671875" y="24" x="0" class="er attributeBoxOdd"/><text style="dominant-baseline: middle; font-size: 10.2px;" transform="translate(5,34.5)" y="0" x="0" id="text-entity-Person-84ee9ab5-8d8f-5582-81c6-bfa2c33a578d-attr-1-type" class="er entityLabel">string</text><rect height="21" width="66.39031982421875" y="24" x="52.795379638671875" class="er attributeBoxOdd"/><text style="dominant-baseline: middle; font-size: 10.2px;" transform="translate(57.795379638671875,34.5)" y="0" x="0" id="text-entity-Person-84ee9ab5-8d8f-5582-81c6-bfa2c33a578d-attr-1-name" class="er entityLabel">fullName</text><rect height="21" width="52.795379638671875" y="45" x="0" class="er attributeBoxEven"/><text style="dominant-baseline: middle; font-size: 10.2px;" transform="translate(5,55.5)" y="0" x="0" id="text-entity-Person-84ee9ab5-8d8f-5582-81c6-bfa2c33a578d-attr-2-type" class="er entityLabel">string</text><rect height="21" width="66.39031982421875" y="45" x="52.795379638671875" class="er attributeBoxEven"/><text style="dominant-baseline: middle; font-size: 10.2px;" transform="translate(57.795379638671875,55.5)" y="0" x="0" id="text-entity-Person-84ee9ab5-8d8f-5582-81c6-bfa2c33a578d-attr-2-name" class="er entityLabel">firstName</text><rect height="21" width="52.795379638671875" y="66" x="0" class="er attributeBoxOdd"/><text style="dominant-baseline: middle; font-size: 10.2px;" transform="translate(5,76.5)" y="0" x="0" id="text-entity-Person-84ee9ab5-8d8f-5582-81c6-bfa2c33a578d-attr-3-type" class="er entityLabel">string</text><rect height="21" width="66.39031982421875" y="66" x="52.795379638671875" class="er attributeBoxOdd"/><text style="dominant-baseline: middle; font-size: 10.2px;" transform="translate(57.795379638671875,76.5)" y="0" x="0" id="text-entity-Person-84ee9ab5-8d8f-5582-81c6-bfa2c33a578d-attr-3-name" class="er entityLabel">lastName</text><rect height="21" width="52.795379638671875" y="87" x="0" class="er attributeBoxEven"/><text style="dominant-baseline: middle; font-size: 10.2px;" transform="translate(5,97.5)" y="0" x="0" id="text-entity-Person-84ee9ab5-8d8f-5582-81c6-bfa2c33a578d-attr-4-type" class="er entityLabel">string</text><rect height="21" width="66.39031982421875" y="87" x="52.795379638671875" class="er attributeBoxEven"/><text style="dominant-baseline: middle; font-size: 10.2px;" transform="translate(57.795379638671875,97.5)" y="0" x="0" id="text-entity-Person-84ee9ab5-8d8f-5582-81c6-bfa2c33a578d-attr-4-name" class="er entityLabel">orcid</text><rect height="21" width="52.795379638671875" y="108" x="0" class="er attributeBoxOdd"/><text style="dominant-baseline: middle; font-size: 10.2px;" transform="translate(5,118.5)" y="0" x="0" id="text-entity-Person-84ee9ab5-8d8f-5582-81c6-bfa2c33a578d-attr-5-type" class="er entityLabel">string</text><rect height="21" width="66.39031982421875" y="108" x="52.795379638671875" class="er attributeBoxOdd"/><text style="dominant-baseline: middle; font-size: 10.2px;" transform="translate(57.795379638671875,118.5)" y="0" x="0" id="text-entity-Person-84ee9ab5-8d8f-5582-81c6-bfa2c33a578d-attr-5-name" class="er entityLabel">conforms_to</text><rect height="21" width="52.795379638671875" y="129" x="0" class="er attributeBoxEven"/><text style="dominant-baseline: middle; font-size: 10.2px;" transform="translate(5,139.5)" y="0" x="0" id="text-entity-Person-84ee9ab5-8d8f-5582-81c6-bfa2c33a578d-attr-6-type" class="er entityLabel">uriorcurie</text><rect height="21" width="66.39031982421875" y="129" x="52.795379638671875" class="er attributeBoxEven"/><text style="dominant-baseline: middle; font-size: 10.2px;" transform="translate(57.795379638671875,139.5)" y="0" x="0" id="text-entity-Person-84ee9ab5-8d8f-5582-81c6-bfa2c33a578d-attr-6-name" class="er entityLabel">id</text><rect height="21" width="52.795379638671875" y="150" x="0" class="er attributeBoxOdd"/><text style="dominant-baseline: middle; font-size: 10.2px;" transform="translate(5,160.5)" y="0" x="0" id="text-entity-Person-84ee9ab5-8d8f-5582-81c6-bfa2c33a578d-attr-7-type" class="er entityLabel">string</text><rect height="21" width="66.39031982421875" y="150" x="52.795379638671875" class="er attributeBoxOdd"/><text style="dominant-baseline: middle; font-size: 10.2px;" transform="translate(57.795379638671875,160.5)" y="0" x="0" id="text-entity-Person-84ee9ab5-8d8f-5582-81c6-bfa2c33a578d-attr-7-name" class="er entityLabel">label</text></g><g transform="translate(321.21289825439453,1085 )" id="entity-Named-527792da-945b-57c2-aece-6a504f46f916"><rect height="66" width="100" y="0" x="0" class="er entityBox"/><text style="dominant-baseline: middle; text-anchor: middle; font-size: 12px;" transform="translate(50,12)" y="0" x="0" id="text-entity-Named-527792da-945b-57c2-aece-6a504f46f916" class="er entityLabel">Named</text><rect height="21" width="60.63206481933594" y="24" x="0" class="er attributeBoxOdd"/><text style="dominant-baseline: middle; font-size: 10.2px;" transform="translate(5,34.5)" y="0" x="0" id="text-entity-Named-527792da-945b-57c2-aece-6a504f46f916-attr-1-type" class="er entityLabel">uriorcurie</text><rect height="21" width="39.36793518066406" y="24" x="60.63206481933594" class="er attributeBoxOdd"/><text style="dominant-baseline: middle; font-size: 10.2px;" transform="translate(65.63206481933594,34.5)" y="0" x="0" id="text-entity-Named-527792da-945b-57c2-aece-6a504f46f916-attr-1-name" class="er entityLabel">id</text><rect height="21" width="60.63206481933594" y="45" x="0" class="er attributeBoxEven"/><text style="dominant-baseline: middle; font-size: 10.2px;" transform="translate(5,55.5)" y="0" x="0" id="text-entity-Named-527792da-945b-57c2-aece-6a504f46f916-attr-2-type" class="er entityLabel">string</text><rect height="21" width="39.36793518066406" y="45" x="60.63206481933594" class="er attributeBoxEven"/><text style="dominant-baseline: middle; font-size: 10.2px;" transform="translate(65.63206481933594,55.5)" y="0" x="0" id="text-entity-Named-527792da-945b-57c2-aece-6a504f46f916-attr-2-name" class="er entityLabel">label</text></g><g transform="translate(562.7910003662109,866.5 )" id="entity-Grant-291daf2c-8722-576f-890e-1045bc6484c0"><rect height="66" width="109.83358764648438" y="0" x="0" class="er entityBox"/><text style="dominant-baseline: middle; text-anchor: middle; font-size: 12px;" transform="translate(54.91679382324219,12)" y="0" x="0" id="text-entity-Grant-291daf2c-8722-576f-890e-1045bc6484c0" class="er entityLabel">Grant</text><rect height="21" width="35.245819091796875" y="24" x="0" class="er attributeBoxOdd"/><text style="dominant-baseline: middle; font-size: 10.2px;" transform="translate(5,34.5)" y="0" x="0" id="text-entity-Grant-291daf2c-8722-576f-890e-1045bc6484c0-attr-1-type" class="er entityLabel">string</text><rect height="21" width="74.5877685546875" y="24" x="35.245819091796875" class="er attributeBoxOdd"/><text style="dominant-baseline: middle; font-size: 10.2px;" transform="translate(40.245819091796875,34.5)" y="0" x="0" id="text-entity-Grant-291daf2c-8722-576f-890e-1045bc6484c0-attr-1-name" class="er entityLabel">funder</text><rect height="21" width="35.245819091796875" y="45" x="0" class="er attributeBoxEven"/><text style="dominant-baseline: middle; font-size: 10.2px;" transform="translate(5,55.5)" y="0" x="0" id="text-entity-Grant-291daf2c-8722-576f-890e-1045bc6484c0-attr-2-type" class="er entityLabel">string</text><rect height="21" width="74.5877685546875" y="45" x="35.245819091796875" class="er attributeBoxEven"/><text style="dominant-baseline: middle; font-size: 10.2px;" transform="translate(40.245819091796875,55.5)" y="0" x="0" id="text-entity-Grant-291daf2c-8722-576f-890e-1045bc6484c0-attr-2-name" class="er entityLabel">awardNumber</text></g><g transform="translate(820.2239837646484,856 )" id="entity-Creator-22c37820-830e-5050-9ef7-2120deecbdf9"><rect height="87" width="119.18569946289062" y="0" x="0" class="er entityBox"/><text style="dominant-baseline: middle; text-anchor: middle; font-size: 12px;" transform="translate(59.59284973144531,12)" y="0" x="0" id="text-entity-Creator-22c37820-830e-5050-9ef7-2120deecbdf9" class="er entityLabel">Creator</text><rect height="21" width="52.795379638671875" y="24" x="0" class="er attributeBoxOdd"/><text style="dominant-baseline: middle; font-size: 10.2px;" transform="translate(5,34.5)" y="0" x="0" id="text-entity-Creator-22c37820-830e-5050-9ef7-2120deecbdf9-attr-1-type" class="er entityLabel">string</text><rect height="21" width="66.39031982421875" y="24" x="52.795379638671875" class="er attributeBoxOdd"/><text style="dominant-baseline: middle; font-size: 10.2px;" transform="translate(57.795379638671875,34.5)" y="0" x="0" id="text-entity-Creator-22c37820-830e-5050-9ef7-2120deecbdf9-attr-1-name" class="er entityLabel">conforms_to</text><rect height="21" width="52.795379638671875" y="45" x="0" class="er attributeBoxEven"/><text style="dominant-baseline: middle; font-size: 10.2px;" transform="translate(5,55.5)" y="0" x="0" id="text-entity-Creator-22c37820-830e-5050-9ef7-2120deecbdf9-attr-2-type" class="er entityLabel">uriorcurie</text><rect height="21" width="66.39031982421875" y="45" x="52.795379638671875" class="er attributeBoxEven"/><text style="dominant-baseline: middle; font-size: 10.2px;" transform="translate(57.795379638671875,55.5)" y="0" x="0" id="text-entity-Creator-22c37820-830e-5050-9ef7-2120deecbdf9-attr-2-name" class="er entityLabel">id</text><rect height="21" width="52.795379638671875" y="66" x="0" class="er attributeBoxOdd"/><text style="dominant-baseline: middle; font-size: 10.2px;" transform="translate(5,76.5)" y="0" x="0" id="text-entity-Creator-22c37820-830e-5050-9ef7-2120deecbdf9-attr-3-type" class="er entityLabel">string</text><rect height="21" width="66.39031982421875" y="66" x="52.795379638671875" class="er attributeBoxOdd"/><text style="dominant-baseline: middle; font-size: 10.2px;" transform="translate(57.795379638671875,76.5)" y="0" x="0" id="text-entity-Creator-22c37820-830e-5050-9ef7-2120deecbdf9-attr-3-name" class="er entityLabel">label</text></g><rect height="14" width="43.359375" y="455.71380615234375" x="771.53857421875" class="er relationshipLabelBox"/><text style="text-anchor: middle; dominant-baseline: middle; font-size: 12px;" y="462.71380615234375" x="793.21826171875" id="rel1" class="er relationshipLabel">creators</text><rect height="14" width="64.03125" y="440.3639221191406" x="47.478370666503906" class="er relationshipLabelBox"/><text style="text-anchor: middle; dominant-baseline: middle; font-size: 12px;" y="447.3639221191406" x="79.4939956665039" id="rel2" class="er relationshipLabel">distributions</text><rect height="14" width="99.048828125" y="360" x="379.089599609375" class="er relationshipLabelBox"/><text style="text-anchor: middle; dominant-baseline: middle; font-size: 12px;" y="367" x="428.614013671875" id="rel3" class="er relationshipLabel">was_derived_from</text><rect height="14" width="43.359375" y="685.6749877929688" x="701.2651977539062" class="er relationshipLabelBox"/><text style="text-anchor: middle; dominant-baseline: middle; font-size: 12px;" y="692.6749877929688" x="722.9448852539062" id="rel4" class="er relationshipLabel">creators</text><rect height="14" width="51.359375" y="719.974609375" x="285.1025085449219" class="er relationshipLabelBox"/><text style="text-anchor: middle; dominant-baseline: middle; font-size: 12px;" y="726.974609375" x="310.7821960449219" id="rel5" class="er relationshipLabel">reviewers</text><rect height="14" width="40.03125" y="729.1719970703125" x="562.6356811523438" class="er relationshipLabelBox"/><text style="text-anchor: middle; dominant-baseline: middle; font-size: 12px;" y="736.1719970703125" x="582.6513061523438" id="rel6" class="er relationshipLabel">funders</text><rect height="14" width="71.390625" y="756.5093383789062" x="344.6376647949219" class="er relationshipLabelBox"/><text style="text-anchor: middle; dominant-baseline: middle; font-size: 12px;" y="763.5093383789062" x="380.3329772949219" id="rel7" class="er relationshipLabel">project_leads</text><rect height="14" width="98.71875" y="766.8538818359375" x="416.024658203125" class="er relationshipLabelBox"/><text style="text-anchor: middle; dominant-baseline: middle; font-size: 12px;" y="773.8538818359375" x="465.384033203125" id="rel8" class="er relationshipLabel">externalReviewers</text><rect height="14" width="64.03125" y="706.8413696289062" x="211.50933837890625" class="er relationshipLabelBox"/><text style="text-anchor: middle; dominant-baseline: middle; font-size: 12px;" y="713.8413696289062" x="243.52496337890625" id="rel9" class="er relationshipLabel">distributions</text><rect height="14" width="99.048828125" y="558.5" x="634.570556640625" class="er relationshipLabelBox"/><text style="text-anchor: middle; dominant-baseline: middle; font-size: 12px;" y="565.5" x="684.094970703125" id="rel10" class="er relationshipLabel">was_derived_from</text><rect height="14" width="40.029296875" y="1028" x="351.1983642578125" class="er relationshipLabelBox"/><text style="text-anchor: middle; dominant-baseline: middle; font-size: 12px;" y="1035" x="371.2130126953125" id="rel11" class="er relationshipLabel">type_of</text></svg>