<?xml version="1.0" encoding="UTF-8"?>
<svg xmlns="http://www.w3.org/2000/svg" version="1.1" xmlns:inkscape="http://www.inkscape.org/namespaces/inkscape" xmlns:sodipodi="http://sodipodi.sourceforge.net/DTD/sodipodi-0.dtd" xmlns:svg="http://www.w3.org/2000/svg" xmlns:xlink="http://www.w3.org/1999/xlink" viewBox="0 0 724.9 431.8">
  <!-- Generator: Adobe Illustrator 29.6.1, SVG Export Plug-In . SVG Version: 2.1.1 Build 9)  -->
  <defs>
    <style>
      .st0 {
        stroke: #f5a59a;
        stroke-width: 8px;
      }

      .st0, .st1, .st2, .st3, .st4, .st5 {
        fill: none;
      }

      .st0, .st1, .st2, .st3, .st5, .st6 {
        stroke-miterlimit: 10;
      }

      .st1, .st3, .st5 {
        stroke: #000;
      }

      .st7 {
        fill: #8b8b8b;
      }

      .st8 {
        fill: #9a9a9a;
      }

      .st9 {
        fill: #9f9f9f;
      }

      .st10 {
        fill: #bababa;
      }

      .st11 {
        fill: #fff;
      }

      .st12 {
        fill: #cecece;
      }

      .st2 {
        stroke: #fff;
      }

      .st3 {
        stroke-width: 1.49px;
      }

      .st13 {
        fill: #838bc5;
      }

      .st14 {
        fill: #e2a489;
      }

      .st15 {
        fill: #8e8e8e;
      }

      .st16 {
        fill: #8a8a8a;
      }

      .st17 {
        isolation: isolate;
      }

      .st18 {
        fill: #bfbfbf;
      }

      .st19 {
        fill: #b0b0b0;
      }

      .st20 {
        fill: #d8d8d8;
      }

      .st21 {
        fill: #c4c4c4;
      }

      .st22 {
        fill: #acacac;
      }

      .st23 {
        fill: #666;
      }

      .st24 {
        fill: #ff0043;
      }

      .st25 {
        fill: #cbcbcb;
      }

      .st26 {
        fill: #e2a489;
      }

      .st5 {
        stroke-width: 1.5px;
      }

      .st27 {
        fill: #efefef;
      }

      .st28 {
        fill: #f9c7dc;
      }

      .st29 {
        mix-blend-mode: multiply;
      }

      .st30 {
        fill: #a8a8a8;
      }

      .st31 {
        fill: #cd5257;
      }

      .st32 {
        fill: #9e9e9e;
      }

      .st33 {
        fill: #d6d6d6;
      }

      .st34 {
        fill: #b4b4b4;
      }

      .st35 {
        fill: #c7c7c7;
      }

      .st36 {
        fill: #cfcfcf;
      }

      .st37 {
        fill: #ccc;
      }

      .st38 {
        fill: #b3b3b3;
      }

      .st39 {
        fill: #a9a9a9;
      }

      .st40 {
        fill: #aeaeae;
      }

      .st41 {
        fill: #949494;
      }

      .st42 {
        fill: #ababab;
      }

      .st43 {
        fill: #e4e4e4;
      }

      .st44 {
        fill: #bcbcbc;
      }

      .st45 {
        fill: url(#linear-gradient);
      }

      .st6 {
        fill: #f4e4ea;
        stroke: #f4e4ea;
        stroke-width: 1.32px;
      }

      .st46 {
        fill: #9d9d9d;
      }

      .st47 {
        clip-path: url(#clippath);
      }

      .st48 {
        fill: #818181;
      }

      .st49 {
        fill: #b5b5b5;
      }
    </style>
    <clipPath id="clippath">
      <rect class="st4" x="642.3" y="362.35" width="48" height="48"/>
    </clipPath>
    <linearGradient id="linear-gradient" x1="648.46" y1="-308.65" x2="684.14" y2="-288.05" gradientTransform="translate(0 88) scale(1 -1)" gradientUnits="userSpaceOnUse">
      <stop offset=".12" stop-color="#fff" stop-opacity="0"/>
      <stop offset=".44" stop-color="#fff"/>
    </linearGradient>
  </defs>
  <g class="st17">
    <g id="Layer_1">
      <g class="st17">
        <g id="svg618" sodipodi:docname="ascending_thin_loop_of_henle.svg">
          <sodipodi:namedview id="namedview620" bordercolor="#666666" borderopacity="1.0" inkscape:current-layer="Ascending_Thin_Limb_Cell" inkscape:cx="297.77492" inkscape:cy="215.9205" inkscape:pagecheckerboard="0" inkscape:pageopacity="0.0" inkscape:pageshadow="2" inkscape:window-height="1082" inkscape:window-maximized="0" inkscape:window-width="1645" inkscape:window-x="880" inkscape:window-y="470" inkscape:zoom="1.4843426" pagecolor="#ffffff" showgrid="false"/>
          <g id="Crosswalk">
            <g id="Blood_Cell">
              <polyline id="Blood_Cell_2" class="st4" points="140.2 104.6 153 104.7 170 115.6 180.1 130.8 184.6 150 180.4 166 169.4 172.8 151.7 171 137.1 159.4 129.1 144.4 125.3 126.8 129 113 133.2 106.7 140.2 104.6"/>
              <polyline id="Blood_Cell_1" class="st4" points="100.2 158.3 88.8 170 90.2 183 96.2 203 103.2 217.4 108.7 231.3 118.1 237.5 136.7 232.1 143.1 213 138.6 195.5 127.8 177.8 114.2 166.7 100.2 158.3"/>
            </g>
            <g id="Ascending_Vasa_Recta">
              <polygon id="Ascending_Vasa_Recta_1" class="st4" points="77.4 87.1 91.1 82.3 109.4 77.3 124 81.9 144.7 94.8 162.6 101.8 178.3 102.6 189.7 105.3 200.4 111.5 214.2 125.7 222.9 140.1 232 154.6 238.9 159.4 244.4 156.1 234.5 130.8 222 107.5 203.3 86.5 183.2 75.2 154.6 61.7 145.4 59.8 119.3 61.3 93 66.4 74.4 73.5 67.3 79.8 67.6 86.5 77.4 87.1"/>
              <polygon id="Ascending_Vasa_Recta_2" class="st4" points="48 105.5 36 125.7 32.1 147.4 32.1 166 32.8 178 36.1 191.9 50.1 203 54.9 195.5 56 184.9 52.3 171.5 50.1 162.1 52.5 141.9 55.9 125 54.9 115.6 53.3 109.2 48 105.5"/>
              <polygon id="Ascending_Vasa_Recta_3" class="st4" points="52.3 208.8 48.4 213.2 49.2 221.4 56 235.2 68.3 243.8 78.9 250.3 90.2 251 94.1 246.8 89.5 236.2 75.5 225.6 66.1 215.9 60.2 211.1 52.3 208.8"/>
              <polygon id="Ascending_Vasa_Recta_4" class="st4" points="131.5 251.1 117.8 253.1 113.9 256.8 120.2 264.9 136 268.1 153.1 266.1 170.8 259.6 177.5 252 179.1 248.9 170 242.6 155.1 242.1 145.6 244.8 138.6 247.4 131.5 251.1"/>
              <polygon id="Ascending_Vasa_Recta_5" class="st4" points="232.8 175.2 223.8 184.8 219.4 194.9 214.8 202.8 207.7 213.9 199.6 223.5 196.2 232.1 196.2 241.6 204.7 245.1 216.8 238 224.8 225.6 232.8 210 238.9 197.9 242 189.1 239.8 181.9 232.8 175.2"/>
            </g>
            <g id="Ascending_Thin_Limb_Cell">
              <polyline id="Ascending_Thin_Limb_Cell_1" class="st4" points="344.8 199.5 334.8 205 331.1 222.1 328.9 251 339.7 290.5 358.9 322.9 381.1 347.2 407.7 359.3 429.8 361 439.3 356.7 445.1 338.8 445.4 330.3 433.1 326.9 411.5 319 397.2 295.4 392 282.6 372.9 260.2 360.6 244.5 358.3 229.9 356.9 215.2 356.7 203.5 344.8 199.5"/>
              <polyline id="Ascending_Thin_Limb_Cell_2" class="st4" points="356.9 198.6 377.6 183.2 393.6 175.2 408.4 168.7 423.4 168.4 439.9 175.9 460.1 184.9 480.2 202.7 493.7 215.9 504.1 224.1 528.4 225.6 543.9 219.5 532 194.3 510.9 169.9 478.5 147.3 455.1 137.8 427.4 136.6 392 141.9 355.2 160.2 341.2 176.3 339.8 189.1 344.8 199.5 356.9 198.6"/>
              <polyline id="Ascending_Thin_Limb_Cell_3" class="st4" points="503.5 230.6 506.8 250.9 507.8 266.1 499.6 282.4 487.5 296.7 476.5 308.6 465.1 320.1 449.4 326.1 444.4 335.5 441.9 351.6 441.9 359.7 467.8 358.2 504.2 343.8 529.1 324.4 546.5 303 550.9 273.5 547.8 248.2 545.9 226.3 526.4 224.4 510.7 226.7 503.5 230.6"/>
            </g>
          </g>
          <g id="art">
            <g id="g70">
              <path id="path28" class="st6" d="M243.6,181.1c3-17.1-2.8-34.5-17.4-53.3-14.5-18.8-95.5-58-111.3-57.6s-40.6,8.7-52,20.2-13.7,14.1-19.8,31.5c-6.1,17.4-.6,74.5,3.3,85.9,3.9,11.4,38.2,40.8,46.9,44.4,8.6,3.5,34.8,14.7,52.3,9.9,17.5-4.9,43-10.3,57.5-21.2s38.5-48.8,40.5-59.8Z"/>
            </g>
            <g id="g78">
              <path id="path72" class="st13" d="M333.7,199.2c-13.6,47,2.9,107.2,38.3,140.9,10.7,10.2,21.5,15.5,35.8,19.2,8.3,2.2,19,1.6,27.7,1.4,34.8-1,67.1-14,93.7-36.4,5.8-4.8,11.3-12.2,14.8-18.8,2.3-4.2,3.7-8.8,4.7-13.4,5.3-23.9,0-48.8-6.7-72.3-2.5-8.8-5.2-17.7-10-25.6-4-6.7-9.4-12.4-14.8-18-8.1-8.4-16.5-16.7-26.2-23.3-19.1-12.9-42.8-18.5-65.9-16.9-23,1.6-45.3,10-64.6,22.8-12.5,8.3-24.4,19.4-27.3,34.1-.2.9-.3,1.9.1,2.7s1.2,1.2,2,1.5c6.7,2.8,14.4,2,21.2-.7s12.6-7,18.6-11.2c8.6-6,17.4-11.8,27.4-15.1,9.9-3.3,21.1-3.9,30.6.4,5.6,2.6,10.4,6.7,15.7,9.9,7.9,4.9,17.1,7.8,24.1,14,4,3.5,7,8,10.5,12,4.9,5.7,10.8,10.5,17.2,14.3,1.4.8,2.9,1.7,3.4,3.2.4,1.1.1,2.3-.1,3.5-2.4,14.4,5,29.3,1.6,43.4-2.2,9-8.5,16.3-14.5,23.3-7.4,8.5-14.9,17-24,23.6s-20.1,11.1-31.3,10.6c-16-.8-30.2-12.5-36.4-27.3-2-4.8-3.2-9.9-5.4-14.7-8.1-17.5-28.1-27.8-34-46.1-2.6-8.1-2.1-16.7-3.1-25.1-.7-6-2.3-12.4-7-16.2s-13.1-3.2-15.4,2.4"/>
              <g id="g76">
                <path id="path74" class="st13" d="M331.7,198.7c-4.9,17.1-5.8,35.3-3.8,53,2.2,18.3,7.4,36.1,15.6,52.6,4,8,8.6,15.6,14,22.7,5.5,7.2,11.6,14,18.7,19.6,7.5,5.9,15.9,10.2,25,13,4.9,1.6,9.8,2.7,14.9,3.1,5.2.4,10.5.3,15.7.2,10.2-.3,20.3-1.2,30.3-3.3,9.9-2.1,19.6-5.2,28.9-9.3,9.3-4,18.1-9,26.4-14.7,4.3-2.9,8.4-6.1,12.4-9.4s7.4-7.3,10.5-11.4c3.2-4.4,5.9-9,7.8-14.1,2-5.4,3.1-11.1,3.8-16.9,1.4-11.5.6-23.2-1.2-34.6-1.9-11.4-4.8-22.7-8.1-33.8-1.6-5.4-3.4-10.7-5.7-15.8s-5.3-9.7-8.8-14.1c-3.5-4.3-7.3-8.3-11.2-12.3-3.8-3.9-7.7-7.8-11.8-11.5-8-7.2-16.7-13.5-26.5-18-19.2-8.9-40.8-11.7-61.7-8.8-21.3,2.9-41.8,11.3-59.4,23.5-7.9,5.4-15.3,11.9-20.5,20-2.5,3.9-4.5,8.3-5.5,12.8-.6,2.7-.8,5.5,1.8,7.1,2.1,1.3,4.8,1.9,7.3,2.3,11.2,1.5,21.5-4,30.4-10.1,9-6.2,17.8-12.8,28-17,9.8-4,21-5.7,31.1-2,5.1,1.8,9.5,5.2,13.9,8.3,4.3,3,9,5.4,13.7,7.7,4.5,2.2,9.2,4.5,13.1,7.8,4.1,3.5,7.2,8,10.7,12,3.4,4,7.3,7.6,11.6,10.8,2.2,1.6,4.5,3.1,6.8,4.5.7.4,1.7.9,2.1,1.7.5,1.1-.1,2.7-.2,3.8-1.5,10.9,2.1,21.5,2.6,32.4.2,5.2-.5,10.4-2.7,15.2-2.1,4.6-5.2,8.8-8.4,12.7-6.9,8.3-14.2,16.7-22.4,23.8-8,6.8-17.6,12.4-28.1,13.9-18.6,2.6-35.8-10.3-42.2-27.2-1.9-5.1-3.3-10.5-5.9-15.3-2.1-3.9-4.7-7.5-7.6-10.8-5.7-6.7-12.3-12.6-17.7-19.4-2.6-3.3-4.9-6.8-6.6-10.7-2.1-4.9-2.8-10.2-3.2-15.4-.7-9.5,0-21.6-7.6-28.9-5.2-5-16.1-5.5-19.4,2-.4,1-.3,2.1.7,2.7.8.5,2.3.3,2.7-.7,1.4-3.1,4.8-4.2,7.9-3.7,4,.6,6.8,3.7,8.4,7.2,2,4.3,2.4,9.2,2.7,13.9.4,5.6.5,11.1,1.6,16.6,3.6,18.2,19.8,28.4,30.2,42.4,2.7,3.7,5,7.6,6.6,11.9,1.8,4.9,3.2,10,5.6,14.6,4.1,7.9,10.5,14.8,18.2,19.3,8.2,4.8,17.5,6.6,26.9,5.1,10.4-1.6,19.9-6.9,27.9-13.5,8.3-6.8,15.4-15.1,22.4-23.3,6.8-7.9,12.8-16.4,13.7-27,.9-10.6-2.7-21-2.8-31.6,0-2.6.3-5.1.6-7.7.4-2.9-.7-5.1-3-6.7-2.1-1.4-4.3-2.6-6.3-4-2.2-1.5-4.2-3.2-6.2-4.9-3.9-3.5-7.2-7.6-10.5-11.7-3.3-4.1-7-7.6-11.4-10.4-4.3-2.7-9-4.8-13.5-7.1-4.7-2.4-9-5.4-13.4-8.4s-9-5.5-14.2-6.7c-5.1-1.2-10.4-1.3-15.7-.6-10.9,1.4-20.8,6.4-29.9,12.3-4.5,2.9-8.8,6.1-13.3,9.1-4.4,3-9,5.9-14.1,7.7-4.9,1.7-10.3,2.5-15.4,1.3-1.1-.3-2.3-.6-3.3-1.1-1.1-.6-.8-1.4-.6-2.5.5-2.2,1.2-4.3,2-6.4,3.7-8.6,10.4-15.5,17.7-21.2,8-6.3,17.1-11.4,26.3-15.7,19-8.7,40.2-13.1,61.1-11.2,20.8,1.8,40.4,9.8,56.3,23.2,8.3,7,16.1,14.9,23.3,23.1,3.6,4,6.8,8.3,9.4,13,2.6,4.7,4.5,9.8,6.1,14.9,3.5,10.9,6.4,22,8.5,33.3,2.1,11.2,3.2,22.6,2.3,34-.5,5.6-1.4,11.3-3,16.7-1.5,5.1-4,9.7-6.9,14-2.8,4.2-6.1,8.2-9.9,11.6-3.8,3.3-7.8,6.4-11.9,9.2-16.3,11.4-34.6,19.7-54,24-9.8,2.2-19.6,3.1-29.6,3.4-5.1.2-10.3.3-15.4,0-5-.3-9.8-1.4-14.6-2.9-8.7-2.7-17-6.7-24.1-12.4-6.9-5.5-13-12.2-18.3-19.2-10.7-14.2-18.4-30.5-23.4-47.5-5-17.1-7.1-35-5.8-52.8.6-8.2,2-16.4,4.3-24.3.8-2.5-3.1-3.5-3.8-1h0Z"/>
              </g>
            </g>
            <g id="g86">
              <path id="path80" class="st31" d="M100.8,162.3c-2.9-.4-6.4,4.2-7.1,7s-1,5.7-.3,8.5c3.2,12.6,8.7,25.2,12.4,37.8,1.2,4,2.4,8.1,4.6,11.7,2.2,3.6,5.6,6.6,9.7,7.5,6.7,1.5,13.6-3.4,16.4-9.7s2.3-13.5.8-20.3c-3.8-17.4-14.4-33.8-30.2-41.9-1.3-.7-3.7-1.7-3.5-.2"/>
              <g id="g84">
                <path id="path82" class="st31" d="M100.8,158.3c-5.7.3-9.9,5.5-11.2,10.8-1.9,7.9,1.5,15.9,4.1,23.3,3,8.7,6,17.2,8.7,26,2.1,6.6,4.8,13.4,10.7,17.5,12.9,9,27.1-3,29.1-16.3,2-13.7-3.9-29.4-11.5-40.6-3.1-4.6-26.6-30.7-30.9-17.3-1.6,4.9,6.2,7,7.7,2.1.1-.2.1-.4.2-.6-.9.9-1.9,1.9-2.8,2.8-1.3.3.9.7,1.6,1.1,1.3.7,2.6,1.5,3.8,2.3,2.6,1.7,4.9,3.7,7.1,5.9,4,4,7.2,8.5,9.9,13.4,5.4,10,11.9,27.6,3.8,37.7-4.5,5.6-11.6,5.9-16.2.3-4.5-5.5-5.6-13.7-7.8-20.3-2.3-6.9-4.9-13.7-7.2-20.7-1.1-3.6-2.8-7.6-2.9-11.4,0-2,.8-8,3.8-8.1,5.1-.2,5.1-8.2,0-7.9h0Z"/>
              </g>
            </g>
            <g id="g94">
              <path id="path88" class="st31" d="M145,106c-5.5.7-9.9,5-12.2,10-3,6.4-3.3,13.9-1.8,20.8,1.5,6.9,4.8,13.3,8.4,19.4,3,4.9,9.5,8.8,14.5,11.6,9.6,5.4,22.6,1.6,26.7-8.7,2.7-6.7,1.4-14.3-.1-21.3-1.2-5.4-4.7-10.9-8.2-15.2-2.1-2.5-4.8-4.5-7.6-6.3-5-3.3-10.2-6.2-15.6-8.8"/>
              <g id="g92">
                <path id="path90" class="st31" d="M143.9,102.1c-13.1,2.3-18.6,17.1-17.8,29,.9,12.8,7.2,27.3,17.7,35.1,9.3,6.8,20.6,11.2,31.4,4.8,11.6-7,11.9-20.8,9.4-32.7-3.8-17.6-18.5-26.9-33.6-34.3-4.6-2.2-8.7,4.7-4,6.9,12.5,6.1,25.8,13.3,29.6,27.9,2.9,11.4,1.8,27.6-13.4,27.4-5.4,0-10.4-3.4-14.6-6.5-5.5-4-8.6-10-11.2-16.1-4.3-10.3-6.3-31.1,8.7-33.8,5-.9,2.8-8.6-2.2-7.7h0Z"/>
              </g>
            </g>
          </g>
          <g id="membrane" class="st29">
            <path id="path97" class="st0" d="M323.9,233.3c1.2,14.6,2,36.6,12,62.3s24.5,41.5,34.5,50.8c20.3,19,45.4,18,66,18.1s31-1.3,53.9-10.6c22.9-9.3,39.5-22.9,49.2-36.6s14.9-35.9,15.2-53.2c.3-17.3-3.9-36.9-11.7-59.1-6.1-17.4-27.7-36.1-36.3-45.8s-42.1-28-59.4-28.4c-17.3-.3-35.2-2.7-61.9,8.7-21.6,9.2-27.1,14.3-40.9,27.6-10.1,9.8-13.7,17.1-15.6,29.3s-6.2,22.9-5,36.9h0Z"/>
          </g>
          <g id="nuclei" class="st29">
            <g id="g104">
              <g id="g102">
                <path id="path100" class="st14" d="M353.5,282.4c3.2,6.8,7.8,13.1,13.2,18.4,3.6,3.5,7.9,7.4,13.2,7.4,5.7,0,10.5-3.5,12.6-8.7,3.7-9-1.4-18.3-7.8-24.5-5.7-5.6-15.2-11.4-23.4-9.2-7,1.9-10.8,10.6-6.9,16.9,0,.1.1.1.1.2,3.3,5.3,10.2,7.3,15.7,4.1.1,0,.1-.1.2-.1,5.4-3,7.2-10.4,4.1-15.7-3.2-5.4-10.3-7.2-15.7-4.1-.1,0-.1.1-.2.1,5.2,1.4,10.5,2.8,15.7,4.1,0-.1-.1-.1-.1-.2-2.3,5.6-4.6,11.3-6.9,16.9.2,0,.4-.1.5-.1h-6.1c.6.1,4.1,1.4,3,.8.7.4,1.4.8,2.1,1.2-.6-.6-.4-.5.6.5.4.4,3,3.1,2.3,2.3.5.7,1,1.4,1.4,2.2-1.3-1.9-.9-4,1.4-6.4,1.7-1,3.4-2,5.1-3-.3,0-.6.1-.9.1,3,.4,5.9.8,8.9,1.2.9.5-.5-.2-.8-.5-.9-.7-1.6-1.5-2.4-2.2-1.4-1.4-2.8-2.8-4-4.4.6.8-.6-.8-.6-.8-.5-.7-1-1.5-1.5-2.2-1.2-1.9-2.2-3.8-3.1-5.8-2.7-5.6-10.7-7.1-15.7-4.1-5.6,3.2-6.6,10-4,15.6h0Z"/>
              </g>
            </g>
            <g id="g110">
              <g id="g108">
                <path id="path106" class="st14" d="M463.6,185.3c5,4.9,10.4,9.3,16.2,13.3,3.7,2.6,7.9,4.4,12.5,3.2,5.6-1.5,9.3-6.6,9.4-12.4.4-16.3-16.3-29.1-31.8-24.7-5.8,1.6-10,8.2-8,14.1,1.9,5.9,7.9,9.8,14.1,8,1.4-.3,1.5-.4.3-.2,1.4,0,1.5,0,.3,0,1.3.4,1.4.4.3.1-.7-.7-.8-.7-.2-.2.4.4.8.7,1.2,1.2-.7-1-.6-.8.3.4,1.3,2,.1.4.5-.8,1.8-2.3,3.5-4.6,5.3-6.9-.2.1-.4.2-.7.3,3-.4,5.9-.8,8.9-1.2,1.07.53,1.1.5.1-.1-.7-.5-1.4-1-2.1-1.5-1.6-1.1-1.7-1.2-2.8-2.1-2.7-2.2-5.2-4.5-7.7-6.8-4.5-4.3-11.8-4.4-16.3,0-4.2,4.4-4.3,11.9.2,16.3h0Z"/>
              </g>
            </g>
            <g id="g116">
              <g id="g114">
                <path id="path112" class="st14" d="M495.8,328.1c9.7-.7,19.1-4.3,25.8-11.5,7.3-7.8,11.2-21,2.6-29.6-9.9-10-21.5-.9-29.9,5.9-9.1,7.3-14.9,16.9-9.7,28.5,2.5,5.7,10.8,7,15.7,4.1,5.8-3.4,6.7-10,4.1-15.7,3.1,6.9-1.5,5.3,1.3,3.6,1.5-.9,2.8-2.6,4.2-3.7,1-.8,2.1-1.6,3.1-2.3.7-.5,1.4-1,2.1-1.4,2.1-1.1,1.9-1.3-.6-.5-1.9-.5-3.9-1-5.8-1.6-2.1-1.4-2.9-3-2.4-4.8.4-.6.2-.3-.5.9,1-1-2.4,2.4-1.9,2-2.4,1.9-5.4,3-8,3.2-6.2.5-11.5,5-11.5,11.5-.1,5.7,5.2,11.8,11.4,11.4h0Z"/>
              </g>
            </g>
          </g>
          <g id="sketch" class="st29">
            <g id="g241">
              <path id="path199" class="st42" d="M125.3,126.8v-4.6c2.4-2.6,1.5-6.5,3.6-9.2,1.3.3,2.3,1.1,3.2,2.2.3,7.9.8,15.8,2.3,23.6,2.9,14.7,13.3,25.8,27.7,28.5,6.8,1.3,11.7-2.1,15.6-7.3,1.4-1.9,1.9-4.9,5.2-4.8.6.2,1.2.5,1.6.9-.9,8.1-7.6,15.5-15.3,16.8-13.6,2.2-24-3.3-32.3-13.5-5.3-6.6-8.6-14.2-9.5-22.8-.2-3.3-.5-6.7-2.1-9.8h0Z"/>
              <path id="path201" class="st16" d="M130.3,115.6c-.4-.9-.9-1.8-1.3-2.6,4.5-11,15.3-12.4,24-8.3,7.1,3.3,13.6,7.3,19.2,12.8,4.8,4.7,7.8,10.4,10.1,16.4,2.4,6.2,4.2,12.7,3.7,19.6h0c-.4.8-.9,1.6-1.3,2.5h-1.4c-2.5-1.2-2.6-3.5-2.9-5.9-2.5-18.8-12.5-31.9-29.9-39.4-6.1-2.6-11.4-2.7-15.7,2.9-1.3,1.5-2.6,2.4-4.5,2h0Z"/>
              <path id="path203" class="st22" d="M122.8,237c-1.5,1.2-3.1,1.2-4.8.5-6.1-2.7-11.3-6.6-13.8-13-4.2-10.7-7.9-21.6-12.1-32.3-2.8-7.2-4.1-14.5-3.3-22.2,2.8-.5,4.3,1.2,5.4,3.4,2.5,13.1,7.3,25.4,11.6,37.9,2.9,8.6,6.7,16.3,14.6,21.4.9.6,1.4,1.5,1.8,2.5.4.6.5,1.2.6,1.8h0Z"/>
              <path id="path205" class="st9" d="M117.6,167.5c16.7,12.5,25,29.5,26.1,50,.3,5.7-1.8,11.1-7.1,14.6-1-.4-1.5-1.2-1.8-2.1-.2-.4-.4-.9-.3-1.2,7.3-20.4-1.1-36.2-14.7-50.6-2.4-2.6-6.5-4.4-5.5-9.2.7-1.4,2.2-1.1,3.3-1.5h0Z"/>
              <path id="path207" class="st7" d="M117.6,167.5c-.9.5-1.8.9-2.8,1.4-1.8,2.1-3.6,1.1-5.5.1-10.3-5.4-10.4-5.3-16.1,4.5-.4.7-1.2,1.1-1.9,1.6-1.5-1.3-1.5-3.5-2.5-5,.1-.4.1-.8.3-1.2,4.4-11.3,13.1-13.7,22.8-6.2,2,1.5,3.8,3.2,5.7,4.8h0Z"/>
              <path id="path209" class="st30" d="M136.6,229.3c0,.9,0,1.9.1,2.8-4,3.5-8.8,4.6-13.8,4.9-.5,0-1-.1-1.4-.1-.4-7.6,5.1-10.2,15.1-7.6h0Z"/>
              <path id="path211" class="st11" d="M120.2,95.4c1.1,5.1,1.5,10-.7,15.1-1.4,3.1.2,7-1.8,10.2-.1-8.5.5-17,2.5-25.3Z"/>
              <path id="path213" class="st11" d="M177.1,223.1c1.6-3.6,1.2-7.3,1.3-11.1.1-3.1-.5-6.3,1.3-9.2v14.3c-.1,2.4-.2,4.7-2.6,6Z"/>
              <path id="path215" class="st11" d="M160.7,245.8c.2-.6.6-1.1.7-1.7.7-3.8,2.9-3.8,5.7-2.1-2,1.7-3.9,3.2-6.4,3.8Z"/>
              <path id="path217" class="st11" d="M141.7,247.1c3.8-1.8,7.6-1.8,11.4,0h-11.4Z"/>
              <path id="path219" class="st11" d="M148,211.7c1.7,3.4,1.7,6.7,0,10.1v-10.1Z"/>
              <path id="path221" class="st11" d="M132.8,91.6h-10.1c3.4-1.7,6.8-1.7,10.1,0Z"/>
              <path id="path223" class="st11" d="M101.2,115.6c-1.4-2.1-1.4-4.2,0-6.3v6.3Z"/>
              <path id="path225" class="st11" d="M107.6,156.1c2.1-1.4,4.2-1.4,6.3,0h-6.3Z"/>
              <path id="path227" class="st11" d="M91.1,213c.8-1.1,1.2-2.4,1.3-3.8.8,1.6,2.4,3.6-1.3,3.8Z"/>
              <path id="path229" class="st11" d="M120.2,242c-.4,1.3-.8,2.5-1.3,3.8-1.1-1.8-.6-3,1.3-3.8Z"/>
              <path id="path231" class="st11" d="M113.9,125.7c0,1.8-.2,3.5-1.3,5.1,0-1.8.2-3.5,1.3-5.1Z"/>
              <path id="path233" class="st11" d="M130.3,115.6c4.6-10.1,10.7-12.5,20.7-7.9,5.7,2.6,11.2,5.4,16,9.7,11.6,10.4,16.6,23.4,16.2,38.7-2.3,5.8-5.3,10.6-11.6,13.4-3.2,1.4-6,1.7-9.1,1.3-14.9-2-28-14.7-30.8-29.6-.8-4.1-1.5-8.3-2.3-12.4-.7-4.5-.2-8.8.9-13.2h0Z"/>
              <path id="path235" class="st11" d="M136.6,229.3c-1.5,1.2-3.1,2-5,2.2-2.4.3-5.8-1.6-6.1,3.3-.1,1.1-3.1.6-4.2,2.1-9.5-5.2-15.2-13.3-18.1-23.7-1.8-6.2-4.3-12.2-6.7-18.2-2.6-6.4-3.3-13.3-5.2-20,0-1.7-.2-3.4,0-5,.8-6.6,6.5-9.8,12.8-7.6,4.1,1.4,6.7,4.8,10.6,6.5,4.9,4.9,9.7,9.9,14.2,15.1,3.2,3.7,6.2,7.5,7.4,12.3,1.8,7.5,5,14.7,4.3,22.7-.2,3.9-1.3,7.4-4,10.3h0Z"/>
              <path id="path237" class="st38" d="M160.6,138.1c4.6,3.8,6.1,8.8,6.3,14.3.1,1.7-.1,1.7-4.2,4.3,1.4-6.8-.4-12.6-2.1-18.6Z"/>
              <path id="path239" class="st20" d="M115.6,197.3c2.6,3.1,3.6,6.7,4.3,10.3.2,1-.1,2.2-1.3,2.5-1.4.3-1.8-.8-2-1.9-.4-3.6-.7-7.2-1-10.9h0Z"/>
            </g>
            <g id="g317">
              <path id="path243" class="st37" d="M331.1,222.1c.6,3.9-.9,7.6-1,11.4-.3,12.1,1.8,23.7,4.8,35.4,5.5,21.5,17,39.9,29.1,58,4.9,7.4,9.8,14.9,17,20.3,3.4,2.5,7,4.8,10.1,7.6-8.8-2.7-17.2-5.7-22.2-14.7-2.8-5.1-6.1-10.3-10.8-14.2-2.8-2.4-4.7-5.5-6.1-8.8-4-9.4-10.4-17.3-14.6-26.6-9.4-21.2-14.1-43.2-11.5-66.4.2-1.7.7-3.3,1.1-4.9,2.8-.9,3,1.6,4.1,2.9h0Z"/>
              <path id="path245" class="st25" d="M441.9,351.6v1.4c-.2,5.2.2,6,5.4,5.4,7.1-.9,14.4-1,21.2-3.4,17.7-6.2,34.6-13.8,49.9-24.8,6.7-4.8,11.9-11,17-17.4.7-.9,1.3-2,2-3,.6-.8,1.3-1.6,2.4-1,1.3.6,1.5,1.9,1,3.1-.6,1.5-1.4,3.1-2.3,4.4-6.1,8.5-14,15.1-22.7,20.7-17.5,11.2-36.4,19.4-56.8,23.2-13.1,2.4-26.6,2.6-40,1.6-2.8-.2-4.9-1.5-5.5-5.1,3.4.3,6.3,1.6,9.3,2,7.1.9,12.8-.4,16.5-6.9.8-.9,1.7-.9,2.6-.2h0Z"/>
              <path id="path247" class="st44" d="M541.1,218.1c-1.8-4.2-3.7-8.3-5.3-12.6-3-8.3-7.6-15.2-14.3-21.1-7.1-6.3-12.3-14.6-19.4-21-2.3-2.1-4.5-4.2-7.4-5.5-1.7-.8-3.5-1.7-4.9-3-7.5-7.2-16.9-10.5-26.6-13.4-1.5-.5-3.4-.4-4-2.4.6-1.6,1.8-1.3,3-1.1,9.9,2.2,19.2,5.6,27.4,11.9,6.3,4.7,13.5,8.3,19,14,3,3,6.8,5.4,7.7,10,.1.7.4,1.6.9,1.9,14.5,9.7,19.3,25.6,25.7,40.4-.2,1.1-.7,1.8-1.8,1.9h0Z"/>
              <path id="path249" class="st34" d="M370.3,259.3c5.1,4.3,9.1,9.6,14.7,13.5,4.3,3,5.1,9.1,6.3,14.1,1.5,6.3,4.4,12.1,6.4,18.2,1.3,3.9,4.2,6.9,7.5,9.4.8.6,1.7.9,2.4,1.5,10.3,8.9,22.5,11.8,35.7,11.4,1.3,1.3,1.4,2.6-.1,3.9-.4.1-.8.1-1.1.2-1.8-1.3-4.1.1-5.9-1.1-11.7,2.8-19.9-4.6-28.7-9.9-8.1-4.9-12.8-12.8-15.2-21.7-2.8-10.4-6.8-19.6-16-26.1-2.8-2-5.4-4.8-6.4-8.4-1.7-1.9-3.9-3.6.4-5h0Z"/>
              <path id="path251" class="st10" d="M332.6,191.9c.3-2.2,1.4-4.1,2.7-5.8,5.5-7.2,9.6-15.3,15.8-22,1.3-1.4,2.5-2.8,4.1-4,6.8-4.8,13.6-9.6,20.4-14.4,4.4-3.2,9.5-4.3,14.6-5.7.6.7,1.6.8,1.8,1.8-13.6,5.2-25.4,13.5-36,23.1-7.2,6.5-12.6,14.9-16.2,24.2-.7,1.5-.5,3.2-.9,4.8-.5,1.8-1.5,3.1-3.5,3.4-1.6,0-2.6-.9-3.3-2.4-.2-1-.3-2.1.5-3h0Z"/>
              <path id="path253" class="st40" d="M545.9,226.3c1.1,6.1,2,12.2,1.8,18.4,0,1.2-.4,2.5,0,3.5,3.3,8.2,3.2,16.8,3.2,25.3,0,10-1,20-4.4,29.5-.6,1.8-1.8,3.8-4.2,2.6-2.4-1.2-1.4-3.5-.3-5,4.9-7.1,4.9-15,4.6-23.1-.1-3.3-.6-6.8.3-10,1.4-5.2.4-9.8-1.3-14.6-1.6-4.4-1.7-8.9-.9-13.4.5-2.8,0-5.2-1.6-7.4,1.1-1.8.2-4.7,2.8-5.8h0Z"/>
              <path id="path255" class="st15" d="M505.5,278.4c-6.5,8.5-12.4,17.6-19.7,25.4-5.9,6.3-12.8,11.9-19.2,18-1.4.3-1.9-.3-1.5-1.6,13.7-13.2,26.4-27.3,38.2-42.2.4-.5.6-1.3.9-1.9,2.4-.5,2.2.7,1.3,2.3h0Z"/>
              <path id="path257" class="st35" d="M370.3,259.3c-1.2,1.5-.9,3.2-.3,4.8-2.5-.4-4.5-1.7-5.4-4-2-4.9-5.2-9-8.1-13.3-2-3-2.4-6.5-2.4-10.2,2.1.6,1.8,4,4.5,2.9h-.1c.9,8.4,5.9,14.4,11.8,19.8h0Z"/>
              <path id="path259" class="st48" d="M344.5,196c5.2.1,10.3,1,15.5.4l-.1-.1c-2.5,1.7-5,2.6-3.2,7.2,2.2,5.8,2.2,12.4,3.2,18.6-1.7,1.1-2-.5-2.7-1.4-.6-3.8-1.4-7.5-1.9-11.3-1.1-8.4-2-9.4-10.5-9.9-1.2-.1-2.4-.1-3.6-.2-.4-2.7.8-3.6,3.3-3.3h0Z"/>
              <path id="path261" class="st49" d="M392,141.9c-.6-.6-1.2-1.2-1.8-1.8,11.2-3.7,22.7-6.3,34.6-5.7,1,1.7-.4,2.1-1.4,2.7-10.8-.7-20.9,3.5-31.4,4.8h0Z"/>
              <path id="path263" class="st10" d="M423.4,137.1c.5-.9.9-1.8,1.4-2.7,9.4-1.4,18.6-.1,27.8,1.4,1.2.2,2.6.6,2.5,2-.2,2-1.9,1.8-3.3,1.5-4.4-1.1-8.9-1.7-13.5-2.2-4.9-.6-9.9-.9-14.9,0Z"/>
              <path id="path265" class="st36" d="M506.8,250.9v8.4c-4-9.4-2.9-19.1-3.3-28.8-.2-5,4.1-5.8,7.8-6.9,1.7,1.3,5-.3,5.7,2.9-2.1,1.1-4.2-.1-6.3,0-3.9.3-5.1,1.5-4,5.3.8,3.1.6,5.6-.7,8.7-1.4,3.4-.8,7.2.8,10.4h0Z"/>
              <path id="path267" class="st37" d="M332.6,191.9c0,1,.1,2,.1,3,.8,1.3,1.7,1.9,3.5,1.8,2.8-.1,4,1.2,2.3,4v-.1c-3.8,4.1-7.2,8.5-8.2,14.2-.3,1.5-.7,3.4-3,3.2-1.2-9.3,2.7-17.5,5.3-26.1h0Z"/>
              <path id="path269" class="st39" d="M499.6,219.4c-2.6-2.9-5.5-5.5-8.8-7.4-3.7-2.1-6.4-5-8.4-8.6l-.1.1c3.9.3,7,1.8,9.7,5,1.9,2.3,4.9,3.6,7.4,5.4,1.4,1,2.8,1.9,2,3.9.1,1.3-.3,2-1.8,1.6h0Z"/>
              <path id="path271" class="st43" d="M443.3,331.3c0-1.3.1-2.6.1-3.9,3.4-1.5,6.8-2.9,10.2-4.4.5.4,1.1.7,1.9.6,1.6-.2,3.8-.7,3.9,1.4.1,2.3-2.2,2.4-4.1,2.3-3.4-1.6-4.9.3-5.9,3.1-1,2.9-2.1,5.9-4.2,8.3-.7.8-1.2.7-1.7-.3.5-2.3,1.7-4.8-.2-7.1h0Z"/>
              <path id="path273" class="st18" d="M426.1,169.1c-7.9-2.6-15.7.8-24.4,1.4,4.5-5.5,9-6.8,14.7-5.3,3.4.9,7,1.5,10,3.6l-.3.3h0Z"/>
              <path id="path275" class="st41" d="M327.3,218c.8-1.7,2.2-3.4,2.3-5,.1-6.4,4.1-9.6,9-12.4-.3.9-.4,2-1,2.6-5,5.4-6.6,11.8-6.4,18.9-1.4-1-2.7-1.9-4.1-2.9,0-.4.1-.8.2-1.2h0Z"/>
              <path id="path277" class="st22" d="M482.4,203.5c-4.5-1.2-7.5-4.6-10.9-7.4-2.7-2.2-5.3-4.6-8-6.9-.2-1.3.3-2,1.7-1.7,5.4,5.6,13.2,8.8,17.2,16-.1,0,0,0,0,0h0Z"/>
              <path id="path279" class="st44" d="M455.2,327.4c5.8-3.8-1.6-2.7-1.6-4.4,3.7-1.6,7.9-1,11.5-2.9.5.5,1,1.1,1.5,1.6-2.9,3.6-5.3,8.4-11.4,5.7h0Z"/>
              <path id="path281" class="st19" d="M433.5,171.5c6.1,1.4,11.6,4.4,17.1,7.3,2.3,1.2,4.8,2.3,7.1,3.4-.6,3.1-2.6,1.7-4.3,1.3-6.8-3.8-13.6-7.6-20.4-11.4l.5-.6h0Z"/>
              <path id="path283" class="st8" d="M338.5,200.7c-.4-1.4-1.2-2.8-2.7-2.4-3.4.9-3.1-1.2-3-3.3,1,.4,2.1.8,3.1,1.1,1.6-1,2.9-2,1.2-4,.7-1.2,1.6-2.3,2.8-3,1.6,2.3,3.1,4.6,4.7,6.9-1.3.8-2.4,1.9-3.2,3.3-.9.8-1.8,1.3-2.9,1.4Z"/>
              <path id="path285" class="st33" d="M453.5,183.5c1.4-.4,2.8-.9,4.3-1.3.8-1.8,2-2.1,3.2-.5,1.5,1.9,2.8,3.8,4.2,5.8-.5.6-1.1,1.2-1.7,1.7-3.9-.9-7-3.3-10-5.7Z"/>
              <path id="path287" class="st32" d="M517,226.7c-1.9-1-3.8-2-5.7-2.9,5.9-1.2,11.3,1.3,17.1,1.8-3.6,2.7-7.4,2.4-11.4,1.1h0Z"/>
              <path id="path289" class="st15" d="M545.9,226.3c-.5,2.2-1.3,4.2-2.9,5.9-.5-3.6.2-7.4-2.2-10.7-.7-1,.1-2.2.3-3.3.6-.6,1.3-1.2,1.9-1.8.9,3.2,1.9,6.5,2.9,9.9h0Z"/>
              <path id="path291" class="st21" d="M380.2,181.9c4.3-4.4,9.6-7,15.3-9-3.8,5.5-10,7.3-15.4,10.4-.5-.3-.7-.6-.5-.9.2-.3.4-.5.6-.5Z"/>
              <path id="path293" class="st39" d="M360,196.4c3.7-3.9,8.4-6.5,12.7-9.5-1.8,4.9-5.1,7.2-12.7,9.5-.1-.1,0,0,0,0Z"/>
              <path id="path295" class="st35" d="M357.2,220.7c.9.5,1.8.9,2.7,1.4,1,5.9,1.4,11.8-1.3,17.4h.1c.4-6.3-.9-12.5-1.5-18.8h0Z"/>
              <path id="path297" class="st46" d="M443.4,338.5c.6.1,1.1.2,1.7.3-1.1,4.3-2.1,8.6-3.2,12.8-.9,0-1.8.1-2.7.1,1.4-4.4,2.8-8.8,4.2-13.2h0Z"/>
              <path id="path299" class="st37" d="M397.2,356.7c2.8.6,5.7.4,8.2,2.4-2.8.6-5.53-.2-8.2-2.4Z"/>
              <path id="path301" class="st12" d="M506.7,272.5c0-3,.4-5.9,2.9-9.5.9,4.6,0,7.4-2.5,9.8l-.4-.3Z"/>
              <path id="path303" class="st36" d="M506.9,251c-.1-1.9-.5-3.8.8-5.5,1.53,2.4,1.27,4.23-.8,5.5-.1-.1,0,0,0,0Z"/>
              <path id="path305" class="st36" d="M499.6,219.4c.6-.5,1.2-1.1,1.8-1.6,1.4,1.2,2.7,2.4,4.6,4.1-3.5.7-4.8-1.3-6.4-2.5Z"/>
              <path id="path307" class="st18" d="M433.1,172.1c-2.7-.2-5-1.1-7-3l.2-.3c2.7,0,5.1.9,7.2,2.7-.1.2-.2.4-.4.6h0Z"/>
              <path id="path309" class="st12" d="M505.5,278.4c-.4-.8-.9-1.6-1.3-2.5.4-1.4,1.3-2.6,2.5-3.4l.3.3c0,1.9-.1,3.9-1.5,5.6Z"/>
              <path id="path311" class="st22" d="M380.2,181.9v1.3c-.9.1-2.2,1.7-2.5-.1-.3-1.1,1.4-1.1,2.5-1.2Z"/>
              <path id="path313" class="st43" d="M436.3,330.3c2.1-.2,4.1,0,5.9,1.1-2.1.2-4.1,0-5.9-1.1Z"/>
              <path id="path315" class="st27" d="M337,192.1c1.4.7,3.2,1.7,2.6,3.4-.5,1.3-2.4.6-3.7.6.3-1.3.7-2.7,1.1-4Z"/>
            </g>
          </g>
          <g id="labels">
            <g id="g362">
              <path id="path320" d="M594.6,253.5l4.3-11.6h1.5l4.3,11.6h-1.5l-1.2-3.3h-4.7l-1.2,3.3h-1.5,0ZM601.5,248.9l-1.9-5.2h-.1l-1.9,5.2h3.9Z"/>
              <path id="path322" d="M611.2,247c-.2-.6-.7-1.2-1.9-1.2-1.1,0-1.9.5-1.9,1.3,0,.7.5,1,1.5,1.3l1.3.3c1.6.4,2.3,1.1,2.3,2.4,0,1.5-1.4,2.6-3.4,2.6-1.8,0-3-.8-3.3-2.3l1.3-.3c.2.9.9,1.4,2,1.4,1.2,0,2-.6,2-1.4,0-.6-.4-1-1.3-1.2l-1.5-.3c-1.6-.4-2.3-1.2-2.3-2.4,0-1.5,1.4-2.5,3.2-2.5,1.7,0,2.7.8,3.1,2.1l-1.1.2h0Z"/>
              <path id="path324" d="M614.2,249.1c0-2.7,1.6-4.5,3.9-4.5,1.8,0,3.2,1.1,3.5,2.7h-1.3c-.2-.8-.9-1.5-2.1-1.5-1.6,0-2.6,1.3-2.6,3.3s1,3.3,2.6,3.3c1,0,1.8-.6,2.1-1.5h1.3c-.2,1.5-1.5,2.7-3.4,2.7-2.5,0-4-1.9-4-4.5Z"/>
              <path id="path326" d="M623.2,249.2c0-2.7,1.6-4.5,3.9-4.5,1.8,0,3.7,1.1,3.7,4.4v.6h-6.3c.1,1.9,1.1,2.9,2.7,2.9,1.1,0,1.8-.5,2.2-1.4l1.3.4c-.4,1.3-1.7,2.2-3.5,2.2-2.5-.2-4-2-4-4.6h0ZM629.5,248.4c0-1.5-.9-2.6-2.4-2.6s-2.5,1.2-2.6,2.6h5Z"/>
              <path id="path328" d="M634.2,253.5h-1.3v-8.7h1.3v1.4h.1c.4-.9,1.2-1.5,2.5-1.5,1.8,0,3,1.1,3,3.3v5.5h-1.3v-5.5c0-1.4-.8-2.2-2-2.2-1.3,0-2.2.9-2.2,2.4v5.3h-.1Z"/>
              <path id="path330" d="M641.8,249.1c0-2.7,1.5-4.5,3.7-4.5,1.7,0,2.2,1,2.5,1.5h.1v-4.3h1.3v11.6h-1.3v-1.3h-.2c-.3.5-.9,1.5-2.5,1.5-2,0-3.6-1.7-3.6-4.5ZM648.2,249.1c0-2-.9-3.3-2.5-3.3-1.7,0-2.5,1.4-2.5,3.3s.9,3.3,2.5,3.3,2.5-1.3,2.5-3.3Z"/>
              <path id="path332" d="M651.9,242.4c0-.5.4-.9,1-.9s1,.4,1,.9-.4.9-1,.9-1-.4-1-.9ZM652.2,244.7h1.3v8.7h-1.3v-8.7Z"/>
              <path id="path334" d="M657.3,253.5h-1.3v-8.7h1.3v1.4h.1c.4-.9,1.2-1.5,2.5-1.5,1.8,0,3,1.1,3,3.3v5.5h-1.3v-5.5c0-1.4-.8-2.2-2-2.2-1.3,0-2.2.9-2.2,2.4v5.3h-.1Z"/>
              <path id="path336" d="M665.3,255.2l1.1-.8c.4.5.9,1.3,2.5,1.3,1.4,0,2.4-.7,2.4-2.1v-1.8h-.1c-.3.5-.8,1.5-2.5,1.5-2.1,0-3.7-1.5-3.7-4.3s1.5-4.4,3.7-4.4c1.7,0,2.2,1,2.5,1.5h.1v-1.4h1.3v9c0,2.2-1.7,3.2-3.8,3.2-1.9,0-3-.8-3.5-1.7ZM671.3,249c0-1.9-.9-3.2-2.5-3.2-1.7,0-2.5,1.4-2.5,3.2s.9,3.1,2.5,3.1,2.5-1.1,2.5-3.1Z"/>
              <path id="path338" d="M599.2,265.1h-1.9v5.1c0,1.1.6,1.3,1.2,1.3.3,0,.5,0,.6-.1l.3,1.2c-.2.1-.5.2-1,.2-1.1,0-2.4-.7-2.4-2.2v-5.4h-1.3v-1.1h1.3v-2.1h1.3v2.1h1.9v1h0Z"/>
              <path id="path340" d="M602.8,272.7h-1.3v-11.7h1.3v4.3h.1c.4-.9,1.2-1.5,2.6-1.5,1.8,0,3,1,3,3.3v5.5h-1.3v-5.4c0-1.4-.8-2.2-2-2.2-1.3,0-2.3.9-2.3,2.4v5.3h-.1Z"/>
              <path id="path342" d="M610.6,261.6c0-.5.4-.9,1-.9s1,.4,1,.9-.4.9-1,.9-1-.4-1-.9ZM610.9,263.9h1.3v8.7h-1.3v-8.7Z"/>
              <path id="path344" d="M616,272.7h-1.3v-8.7h1.3v1.4h.1c.4-.9,1.2-1.5,2.5-1.5,1.8,0,3,1.1,3,3.3v5.5h-1.3v-5.4c0-1.4-.8-2.2-2-2.2-1.3,0-2.2.9-2.2,2.4v5.2h-.1Z"/>
              <path id="path346" d="M629.9,272.7h-1.3v-11.7h1.3v11.7Z"/>
              <path id="path348" d="M632.1,261.6c0-.5.4-.9,1-.9s1,.4,1,.9-.4.9-1,.9-1-.4-1-.9ZM632.4,263.9h1.3v8.7h-1.3v-8.7Z"/>
              <path id="path350" d="M636.2,263.9h1.3v1.4h.1c.4-.9,1.2-1.5,2.3-1.5s1.9.5,2.3,1.5h.1c.4-.9,1.4-1.5,2.6-1.5,1.6,0,2.7.9,2.7,3v5.8h-1.3v-5.8c0-1.3-.8-1.8-1.8-1.8-1.2,0-1.9.8-1.9,2v5.7h-1.4v-6c0-1-.7-1.7-1.7-1.7s-2,.9-2,2.2v5.4h-1.3v-8.7h0Z"/>
              <path id="path352" d="M650.2,261h1.3v4.3h.1c.3-.5.8-1.5,2.5-1.5,2.2,0,3.7,1.7,3.7,4.5s-1.5,4.5-3.7,4.5c-1.7,0-2.2-1-2.5-1.5h-.2v1.3h-1.3v-11.6h.1ZM654.1,271.6c1.7,0,2.5-1.5,2.5-3.3s-.8-3.3-2.5-3.3c-1.6,0-2.5,1.3-2.5,3.3s.8,3.3,2.5,3.3Z"/>
              <path id="path354" d="M664.1,268.3c0-2.7,1.6-4.5,3.9-4.5,1.8,0,3.2,1.1,3.5,2.7h-1.3c-.2-.8-.9-1.5-2.1-1.5-1.6,0-2.6,1.3-2.6,3.3s1,3.3,2.6,3.3c1,0,1.8-.6,2.1-1.5h1.3c-.2,1.5-1.5,2.7-3.4,2.7-2.5,0-4-1.9-4-4.5Z"/>
              <path id="path356" d="M673,268.4c0-2.7,1.6-4.5,3.9-4.5,1.8,0,3.7,1.1,3.7,4.4v.6h-6.3c.1,1.9,1.1,2.9,2.7,2.9,1,0,1.8-.5,2.2-1.4l1.3.4c-.4,1.3-1.7,2.2-3.5,2.2-2.4-.2-4-2-4-4.6h0ZM679.3,267.6c0-1.5-.9-2.6-2.4-2.6s-2.5,1.2-2.6,2.6h5Z"/>
              <path id="path358" d="M684.1,272.7h-1.3v-11.7h1.3v11.7Z"/>
              <path id="path360" d="M687.9,272.7h-1.3v-11.7h1.3v11.7Z"/>
            </g>
            <line id="line364" class="st2" x1="197.7" y1="95.4" x2="259.6" y2="95.4"/>
            <line id="line366" class="st1" x1="197.7" y1="94.4" x2="259.6" y2="94.4"/>
            <g id="g404">
              <path id="path368" d="M270.1,98.5l4.3-11.6h1.5l4.3,11.6h-1.5l-1.2-3.3h-4.7l-1.2,3.3h-1.5,0ZM277,94l-1.9-5.2h-.1l-1.9,5.2h3.9Z"/>
              <path id="path370" d="M286.7,92.1c-.2-.6-.7-1.2-1.9-1.2-1.1,0-1.9.5-1.9,1.3,0,.7.5,1,1.5,1.3l1.3.3c1.6.4,2.3,1.1,2.3,2.4,0,1.5-1.4,2.6-3.4,2.6-1.8,0-3-.8-3.3-2.3l1.3-.3c.2.9.9,1.4,2,1.4,1.2,0,2-.6,2-1.4,0-.6-.4-1-1.3-1.2l-1.5-.3c-1.6-.4-2.3-1.2-2.3-2.4,0-1.5,1.4-2.5,3.2-2.5,1.7,0,2.7.8,3.1,2.1l-1.1.2h0Z"/>
              <path id="path372" d="M289.7,94.2c0-2.7,1.6-4.5,3.9-4.5,1.8,0,3.2,1.1,3.5,2.7h-1.3c-.2-.8-.9-1.5-2.1-1.5-1.6,0-2.6,1.3-2.6,3.3s1,3.3,2.6,3.3c1,0,1.8-.6,2.1-1.5h1.3c-.2,1.5-1.5,2.7-3.4,2.7-2.5,0-4-1.9-4-4.5Z"/>
              <path id="path374" d="M298.6,94.2c0-2.7,1.6-4.5,3.9-4.5,1.8,0,3.7,1.1,3.7,4.4v.6h-6.2c.1,1.9,1.1,2.9,2.7,2.9,1,0,1.8-.5,2.2-1.4l1.3.4c-.4,1.3-1.7,2.2-3.5,2.2-2.5-.1-4.1-1.9-4.1-4.6ZM304.9,93.4c0-1.5-.9-2.6-2.4-2.6s-2.5,1.2-2.6,2.6h5Z"/>
              <path id="path376" d="M309.7,98.5h-1.3v-8.7h1.3v1.4h.1c.4-.9,1.2-1.5,2.5-1.5,1.8,0,3,1.1,3,3.3v5.5h-1.3v-5.4c0-1.4-.8-2.2-2-2.2-1.3,0-2.2.9-2.2,2.4v5.2s-.1,0-.1,0Z"/>
              <path id="path378" d="M317.3,94.2c0-2.7,1.5-4.5,3.7-4.5,1.7,0,2.2,1,2.5,1.5h.1v-4.3h1.3v11.6h-1.3v-1.3h-.2c-.3.5-.9,1.5-2.5,1.5-2.1,0-3.6-1.8-3.6-4.5ZM323.7,94.1c0-2-.9-3.3-2.5-3.3-1.7,0-2.5,1.4-2.5,3.3s.9,3.3,2.5,3.3c1.6.1,2.5-1.3,2.5-3.3Z"/>
              <path id="path380" d="M327.4,87.4c0-.5.4-.9,1-.9s1,.4,1,.9-.4.9-1,.9-1-.4-1-.9ZM327.6,89.8h1.3v8.7h-1.3v-8.7Z"/>
              <path id="path382" d="M332.8,98.5h-1.3v-8.7h1.3v1.4h.1c.4-.9,1.2-1.5,2.5-1.5,1.8,0,3,1.1,3,3.3v5.5h-1.4v-5.4c0-1.4-.8-2.2-2-2.2-1.3,0-2.2.9-2.2,2.4,0,0,0,5.2,0,5.2Z"/>
              <path id="path384" d="M340.7,100.2l1.1-.8c.4.5.9,1.3,2.5,1.3,1.4,0,2.4-.7,2.4-2.1v-1.8h-.1c-.3.5-.8,1.5-2.5,1.5-2.1,0-3.7-1.5-3.7-4.3s1.5-4.4,3.7-4.4c1.7,0,2.2,1,2.5,1.5h.1v-1.4h1.3v9c0,2.2-1.7,3.2-3.8,3.2-1.8.1-2.9-.8-3.5-1.7ZM346.8,94.1c0-1.9-.9-3.2-2.5-3.2-1.7,0-2.5,1.4-2.5,3.2s.9,3.1,2.5,3.1,2.5-1.2,2.5-3.1Z"/>
              <path id="path386" d="M358.9,98.5h-1.4l-3.2-8.7h1.5l2.4,6.9h.1l2.4-6.9h1.5l-3.3,8.7Z"/>
              <path id="path388" d="M363.3,96c0-2,1.8-2.4,3.4-2.6s2.2-.1,2.2-.8h0c0-1.1-.6-1.8-1.8-1.8-1.3,0-2,.7-2.3,1.3l-1.3-.5c.7-1.6,2.2-2,3.5-2,1.1,0,3.2.3,3.2,3.1v5.7h-1.3v-1.2h-.1c-.3.6-1.1,1.4-2.6,1.4-1.6.1-2.9-.9-2.9-2.6h0ZM368.9,95.3v-1.2c-.2.3-1.7.4-2.3.5-1,.1-2,.5-2,1.5,0,.9.8,1.4,1.8,1.4,1.6,0,2.5-1.1,2.5-2.2Z"/>
              <path id="path390" d="M377.7,92.1c-.2-.6-.7-1.2-1.9-1.2-1.1,0-1.9.5-1.9,1.3,0,.7.5,1,1.5,1.3l1.3.3c1.6.4,2.3,1.1,2.3,2.4,0,1.5-1.4,2.6-3.4,2.6-1.8,0-3-.8-3.3-2.3l1.3-.3c.2.9.9,1.4,2,1.4,1.2,0,2-.6,2-1.4,0-.6-.4-1-1.3-1.2l-1.5-.3c-1.6-.4-2.3-1.2-2.3-2.4,0-1.5,1.4-2.5,3.2-2.5,1.7,0,2.7.8,3.1,2.1l-1.1.2h0Z"/>
              <path id="path392" d="M380.7,96c0-2,1.8-2.4,3.4-2.6s2.2-.1,2.2-.8h0c0-1.1-.6-1.8-1.8-1.8-1.3,0-2,.7-2.3,1.3l-1.3-.5c.7-1.6,2.2-2,3.5-2,1.1,0,3.2.3,3.2,3.1v5.7h-1.3v-1.2h-.1c-.3.6-1.1,1.4-2.6,1.4-1.6.1-2.9-.9-2.9-2.6h0ZM386.3,95.3v-1.2c-.2.3-1.7.4-2.3.5-1,.1-2,.5-2,1.5,0,.9.8,1.4,1.8,1.4,1.6,0,2.5-1.1,2.5-2.2Z"/>
              <path id="path394" d="M394.6,89.8h1.3v1.3h.1c.3-.9,1.2-1.5,2.3-1.5h.7v1.4c-.1,0-.5-.1-.8-.1-1.3,0-2.2.9-2.2,2v5.5h-1.3v-8.6s-.1,0-.1,0Z"/>
              <path id="path396" d="M399.9,94.2c0-2.7,1.6-4.5,3.9-4.5,1.8,0,3.7,1.1,3.7,4.4v.6h-6.3c.1,1.9,1.1,2.9,2.7,2.9,1,0,1.8-.5,2.2-1.4l1.3.4c-.4,1.3-1.7,2.2-3.5,2.2-2.5-.1-4-1.9-4-4.6h0ZM406.2,93.4c0-1.5-.9-2.6-2.4-2.6s-2.5,1.2-2.6,2.6h5Z"/>
              <path id="path398" d="M409.2,94.2c0-2.7,1.6-4.5,3.9-4.5,1.8,0,3.2,1.1,3.5,2.7h-1.3c-.2-.8-.9-1.5-2.1-1.5-1.6,0-2.6,1.3-2.6,3.3s1,3.3,2.6,3.3c1,0,1.8-.6,2.1-1.5h1.3c-.2,1.5-1.5,2.7-3.4,2.7-2.5,0-4-1.9-4-4.5Z"/>
              <path id="path400" d="M422.3,90.9h-1.9v5.1c0,1.1.6,1.3,1.2,1.3.3,0,.5,0,.6-.1l.3,1.2c-.2.1-.5.2-1,.2-1.1,0-2.4-.7-2.4-2.2v-5.4h-1.3v-1.1h1.3v-2.1h1.3v2.1h1.9v1Z"/>
              <path id="path402" d="M423.9,96c0-2,1.8-2.4,3.4-2.6s2.2-.1,2.2-.8h0c0-1.1-.6-1.8-1.8-1.8-1.3,0-2,.7-2.3,1.3l-1.3-.5c.7-1.6,2.2-2,3.5-2,1.1,0,3.2.3,3.2,3.1v5.7h-1.3v-1.2h-.1c-.3.6-1.1,1.4-2.6,1.4-1.6.1-2.9-.9-2.9-2.6h0ZM429.6,95.3v-1.2c-.2.3-1.7.4-2.3.5-1,.1-2,.5-2,1.5,0,.9.8,1.4,1.8,1.4,1.6,0,2.5-1.1,2.5-2.2Z"/>
            </g>
            <g id="g414">
              <path id="path406" d="M549.3,412.5h-1.4v-10.1h-.1l-2.8,1.9v-1.4l2.9-1.9h1.4v11.5h0Z"/>
              <path id="path408" d="M552.4,406.7c0-3.8,1.5-6,4-6s4,2.2,4,6-1.5,6-4,6-4-2.2-4-6ZM559.1,406.7c0-3-1-4.7-2.7-4.7s-2.7,1.7-2.7,4.7,1,4.7,2.7,4.7,2.7-1.7,2.7-4.7Z"/>
              <path id="path410" d="M567.2,403.8h1.3v5.2c0,1.4,1,2.4,2.4,2.4s2.4-1,2.4-2.4v-5.2h1.3v8.7h-1.3v-1.3h-.1c-.5.9-1.4,1.4-2.3,1.4s-1.9-.5-2.3-1.4h-.1v4.6h-1.3v-12h0Z"/>
              <path id="path412" d="M577.1,403.8h1.3v1.4h.1c.4-.9,1.2-1.5,2.3-1.5s1.9.5,2.3,1.5h.1c.4-.9,1.4-1.5,2.6-1.5,1.6,0,2.7.9,2.7,3v5.8h-1.3v-5.8c0-1.3-.8-1.8-1.8-1.8-1.2,0-1.9.8-1.9,2v5.7h-1.4v-6c0-1-.7-1.7-1.7-1.7s-2,.9-2,2.2v5.4h-1.3v-8.7h0Z"/>
            </g>
            <line id="line416" class="st5" x1="624.2" y1="374.8" x2="624.2" y2="395.5"/>
            <line id="line609" class="st5" x1="510.3" y1="374.8" x2="510.3" y2="395.5"/>
            <line id="line611" class="st3" x1="509.9" y1="385.2" x2="623.9" y2="385.2"/>
            <line id="line613" class="st2" x1="522.7" y1="249.4" x2="584.6" y2="249.4"/>
            <line id="line615" class="st1" x1="522.7" y1="248.4" x2="584.6" y2="248.4"/>
          </g>
          <g class="st47">
            <g>
              <path class="st24" d="M666.3,410.35c13.25,0,24-10.75,24-24s-10.75-24-24-24-24,10.75-24,24,10.75,24,24,24Z"/>
              <path class="st45" d="M666.3,365.75c-11.36,0-20.6,9.24-20.6,20.6s9.24,20.6,20.6,20.6,20.6-9.24,20.6-20.6-9.24-20.6-20.6-20.6ZM685.02,385.95h-5.05c-.08-2.71-.95-5.22-2.39-7.32l3.67-2.52c.14-.09.17-.28.08-.41-.09-.14-.28-.17-.41-.08l-3.68,2.53c-1.06-1.41-2.38-2.61-3.9-3.52l2.21-3.86c.08-.14.03-.32-.11-.4s-.32-.03-.4.11l-2.21,3.86c-1.84-1-3.93-1.59-6.15-1.65l-.02-4.48c0-.22-.18-.39-.39-.39h0c-.22,0-.39.18-.39.4l.02,4.48c-3.06.09-5.87,1.2-8.11,2.99l-3.27-3.85c3.22-2.62,7.33-4.19,11.79-4.19,10.19,0,18.5,8.18,18.72,18.33h0v-.03h0ZM675.05,395.65l-2.82-3.33c.57-.57,1.06-1.22,1.45-1.93l3.87,1.99c-.66,1.22-1.51,2.32-2.51,3.26h.01ZM654.77,391.86l3.93-1.87c.42.87.98,1.66,1.66,2.33l-2.92,3.24c-1.1-1.06-2.01-2.3-2.67-3.69h0ZM647.59,386.74h5.05c.05,1.83.46,3.56,1.17,5.14l-4.56,2.17c-1.02-2.24-1.6-4.71-1.66-7.31h0ZM657.75,376.86l2.82,3.32c-1.56,1.46-2.57,3.5-2.68,5.77h-4.36c.11-3.6,1.72-6.83,4.22-9.09ZM666.3,393.39c-.38,0-.75-.03-1.11-.09l.72-4.08c.13.02.26.03.39.03.67,0,1.29-.23,1.78-.61l1.05,1.24c-.79.65-1.81,1.05-2.91,1.05-.14,0-.25.11-.25.25s.11.25.25.25c1.23,0,2.35-.44,3.23-1.16l1.31,1.55c-1.21.99-2.77,1.59-4.45,1.59h0v-.02h-.01ZM659.95,389.4l3.74-1.78c.36.74,1.03,1.31,1.84,1.53l-.72,4.08c-2.14-.47-3.92-1.91-4.85-3.83h-.01ZM661.46,381.24l1.24,1.46c-.73.7-1.26,1.63-1.46,2.68-.03.13.06.26.2.29.13.03.26-.06.29-.2.18-.94.65-1.77,1.29-2.4l1.13,1.33c-.38.42-.64.96-.72,1.55h-4.15c.1-1.85.92-3.51,2.19-4.71h0ZM669.69,389.33l-1.06-1.25c.29-.38.48-.84.55-1.34h1.6c-.08.98-.48,1.87-1.09,2.58h0ZM664.58,386.35c0-.95.77-1.72,1.72-1.72s1.72.77,1.72,1.72-.77,1.72-1.72,1.72-1.72-.77-1.72-1.72ZM669.18,385.95c-.19-1.42-1.41-2.51-2.88-2.51-.57,0-1.11.17-1.56.45l-1.12-1.32c.74-.51,1.64-.81,2.59-.81,2.39,0,4.36,1.84,4.56,4.18h-1.6,0ZM663.42,386.74c.02.17.06.34.12.51l-3.75,1.78c-.3-.71-.48-1.48-.52-2.29h4.15ZM670.01,389.71c.24-.27.45-.56.63-.88l1.82.94c-.31.55-.68,1.06-1.12,1.5l-1.32-1.56h-.01ZM670.9,388.3c.2-.48.33-1.01.37-1.55h2.06c-.05.88-.26,1.72-.61,2.49l-1.83-.94h.01ZM671.27,385.95c-.2-2.61-2.39-4.68-5.05-4.68-1.07,0-2.08.34-2.91.92l-1.25-1.47c1.18-.89,2.65-1.42,4.24-1.42,2.28,0,4.32,1.09,5.6,2.78,0,.02.02.05.03.07.02.03.04.05.06.07.77,1.06,1.25,2.35,1.33,3.74h-2.06,0ZM670.73,379.18l2.16-3.78c1.4.85,2.63,1.95,3.61,3.25l-3.59,2.47c-.61-.77-1.34-1.43-2.18-1.94h0ZM670.21,378.89c-1.06-.56-2.25-.9-3.52-.96l-.02-4.36c2.06.06,4,.61,5.7,1.53l-2.17,3.78h.01ZM665.9,377.93c-1.78.08-3.41.72-4.74,1.74l-2.82-3.32c2.08-1.66,4.69-2.68,7.54-2.78l.02,4.36h0ZM653.53,386.74h4.36c.05,1.02.28,1.99.66,2.89l-3.93,1.87c-.65-1.46-1.03-3.07-1.08-4.76h0ZM660.8,392.72c1.06.92,2.35,1.57,3.76,1.87l-.76,4.29c-2.24-.45-4.27-1.48-5.92-2.93l2.92-3.24h0ZM664.95,394.66c.44.07.89.11,1.35.11s.89-.04,1.32-.1l.77,4.29c-.68.11-1.38.17-2.1.17s-1.43-.06-2.12-.18l.76-4.29h.02,0ZM668.01,394.6c1.36-.28,2.6-.89,3.64-1.74l2.81,3.32c-1.61,1.34-3.55,2.29-5.68,2.71l-.77-4.29h0ZM673.95,389.87c.44-.96.71-2.01.76-3.12h4.36c-.06,1.83-.5,3.56-1.25,5.12l-3.88-2h.01ZM674.72,385.95c-.07-1.61-.6-3.1-1.46-4.35l3.59-2.47c1.34,1.95,2.15,4.29,2.23,6.82h-4.36ZM653.91,372.33l3.27,3.85c-2.69,2.42-4.42,5.9-4.53,9.77h-5.05c.11-5.42,2.54-10.27,6.32-13.62h-.01ZM649.41,394.42l4.56-2.17c.72,1.49,1.7,2.84,2.88,3.97l-3.1,3.44c-.11.12-.1.31.02.42.06.05.13.08.2.08.08,0,.16-.03.22-.1l3.1-3.44c1.77,1.56,3.95,2.67,6.36,3.14l-.88,4.98c-5.9-1.13-10.82-5.05-13.35-10.32h-.01ZM663.15,404.8l.88-4.98c.74.12,1.5.19,2.27.19s1.52-.06,2.25-.19l.9,4.97c-1.02.17-2.08.27-3.15.27s-2.13-.09-3.15-.27h0ZM669.84,404.73l-.9-4.97c2.29-.45,4.37-1.47,6.09-2.91l1.95,2.3c.08.09.19.14.3.14.09,0,.18-.03.25-.09.17-.14.19-.39.05-.56l-1.96-2.31c1.09-1.02,2.01-2.21,2.72-3.53l1.38.71s.09.03.14.03c.11,0,.21-.06.26-.16.07-.15.02-.32-.13-.4l-1.39-.71c.81-1.68,1.29-3.55,1.35-5.53h5.05c-.19,8.94-6.67,16.35-15.18,17.99h.02Z"/>
            </g>
          </g>
        </g>
      </g>
    </g>
    <g id="Layer_2">
      <g>
        <g>
          <path class="st28" d="M63.22,84.98c-.36,1.48,1.6,2.63,3.1,2.93s3.03-.06,4.5-.44c16.08-4.11,32.66-11.09,48.68-6.76,11.94,3.23,21.36,12.26,32.45,17.75,10.25,5.07,21.73,7,33.03,8.78,5.19.81,10.5,1.65,15.09,4.19,7.62,4.22,9.52,12.78,14.56,19.89,7.06,9.97,15.23,29.41,27.4,30.47,3.91.34-.98-14-3.74-19.17-8.25-15.43-16.52-30.91-26.7-45.14-2.96-4.14-16.43-14.38-17.77-15.26-10.96-7.24-22.11-14.49-34.51-18.8-16.81-5.84-35.57-5.92-52.43-.22-5.99,2.02-11.71,4.74-17.42,7.44-4.95,2.35-9.9,4.7-14.85,7.04-3.11,1.48-10.28,2.74-11.39,7.3Z"/>
          <path class="st23" d="M62.83,84.87c-.46,1.7,1.36,2.89,2.71,3.4l-.24-.14c.19.17.45.23.69.29.26.06.53.11.8.14.54.07,1.09.06,1.64,0,.57-.06,1.14-.16,1.71-.28.03,0,.06-.01.09-.02,0,0,.1-.03.03-.01-.08.02.21-.04.26-.05.14-.03.27-.07.41-.1.25-.06.51-.13.76-.19,2.04-.52,4.07-1.07,6.09-1.64s4.08-1.15,6.13-1.73,4.09-1.12,6.15-1.63,4.11-.99,6.18-1.4c1.02-.2,2.04-.39,3.06-.55.51-.08,1.02-.16,1.53-.23.07,0,.13-.02.2-.03.03,0,.06,0,.08-.01,0,0-.16.02-.07,0,.13-.02.26-.03.4-.05.26-.03.53-.07.79-.1,2.03-.23,4.08-.37,6.12-.38s4.07.11,6.09.37c.1.01-.08-.01-.08-.01.03,0,.06,0,.08.01.07,0,.13.02.2.03.13.02.26.04.39.06.25.04.5.08.75.12.5.09,1.01.18,1.51.29.98.21,1.96.46,2.92.75.88.26,1.76.56,2.62.89.44.16.87.34,1.31.52.1.04.2.09.31.13,0,0-.17-.07-.08-.03.02.01.05.02.07.03.06.03.13.05.19.08.21.09.42.18.63.28,1.69.76,3.34,1.61,4.95,2.52s3.22,1.89,4.79,2.89,3.15,2.04,4.72,3.07,3.15,2.06,4.74,3.06,3.2,1.95,4.85,2.85c1.73.94,3.51,1.81,5.32,2.58,1.94.83,3.91,1.57,5.91,2.23s3.94,1.21,5.94,1.72,3.99.95,6,1.36,4.08.79,6.12,1.13,4.07.67,6.11.99,3.99.63,5.97,1.04,3.92.92,5.8,1.63c.23.09.46.18.7.27.05.02.1.04.15.06.03.01.07.04.1.04,0,0-.17-.07-.08-.03.12.05.24.1.36.15.46.2.91.42,1.35.65.78.4,1.53.86,2.25,1.37.08.06.16.12.24.17.04.03.08.06.13.09.02.01.04.03.05.04.09.06-.15-.12-.07-.05.16.12.32.25.47.38.31.26.6.52.89.8.58.55,1.12,1.14,1.63,1.75.13.15.25.3.37.46.03.04.06.08.09.12.06.07-.08-.1-.07-.09.01.02.03.03.04.05.06.08.12.16.19.24.24.32.47.65.7.98.45.66.87,1.33,1.28,2.02.84,1.41,1.6,2.85,2.36,4.3s1.57,2.96,2.42,4.4c.43.73.89,1.46,1.36,2.17.39.57.79,1.13,1.18,1.7.74,1.1,1.45,2.22,2.15,3.35.76,1.23,1.5,2.47,2.24,3.7s1.54,2.57,2.33,3.85,1.62,2.61,2.47,3.9,1.69,2.52,2.59,3.74,1.85,2.44,2.86,3.59c.91,1.05,1.88,2.05,2.92,2.98s2.1,1.76,3.25,2.48c1.09.68,2.26,1.25,3.49,1.67.57.19,1.15.35,1.74.46.36.07.72.12,1.09.16.2.02.39.05.59.03.48-.04.9-.21,1.26-.54.3-.28.49-.67.62-1.05s.18-.84.21-1.26.01-.88-.02-1.32c-.1-1.19-.32-2.36-.58-3.52-.3-1.28-.66-2.55-1.05-3.8s-.86-2.56-1.34-3.82-.95-2.39-1.49-3.55c-.6-1.3-1.29-2.54-1.96-3.8-1.01-1.88-2.01-3.76-3.02-5.64s-2.03-3.76-3.06-5.63-2.06-3.74-3.11-5.6-2.1-3.71-3.18-5.56-2.16-3.68-3.27-5.5-2.23-3.63-3.38-5.43-2.32-3.58-3.51-5.34c-.6-.89-1.21-1.77-1.82-2.65-.51-.72-1-1.46-1.55-2.16s-1.2-1.39-1.85-2.03c-.84-.84-1.71-1.64-2.59-2.43-.99-.88-2-1.75-3.02-2.6s-2.07-1.72-3.12-2.56c-.96-.77-1.93-1.54-2.91-2.3-.84-.65-1.67-1.3-2.52-1.93-.49-.37-.99-.74-1.49-1.1-.36-.26-.74-.49-1.11-.74-.87-.57-1.73-1.14-2.6-1.71-1.73-1.13-3.47-2.26-5.22-3.37s-3.51-2.2-5.29-3.25-3.57-2.08-5.38-3.07-3.64-1.93-5.5-2.82-3.85-1.78-5.82-2.57-3.84-1.48-5.8-2.11-3.92-1.18-5.91-1.65-4-.87-6.02-1.19-4.19-.59-6.29-.76-4.11-.26-6.16-.28-4.1.04-6.14.18-4.21.37-6.3.66-4.04.65-6.04,1.09-3.98.96-5.94,1.55-4.03,1.31-6.01,2.08c-2.08.8-4.14,1.67-6.17,2.58s-3.95,1.8-5.91,2.73-4.03,1.91-6.05,2.87-4.08,1.94-6.13,2.9c-.94.45-1.88.89-2.82,1.34-.74.35-1.48.73-2.24,1.05l.23-.1c-1.67.7-3.42,1.2-5.09,1.91-.88.38-1.74.79-2.56,1.29-.1.06-.2.12-.29.18-.05.03-.09.06-.14.09l-.18.14c.13-.09.16-.12.11-.08-.03.02-.06.04-.09.06-.25.17-.46.35-.66.57-.32.35-.61.73-.87,1.13s-.48.86-.64,1.32c-.08.23-.14.46-.19.69-.01.05-.02.11-.03.17-.01.08,0,.1.02.17.03.11-.05.27-.07.38,0,.01.02.02.02,0,.02-.08.04-.26.09-.33.04-.05.1-.05.14-.11s.07-.11.1-.17c.11-.18.24-.34.38-.5.15-.17.31-.33.48-.49.08-.07.17-.15.25-.22.02-.01.04-.03.05-.04.09-.07-.09.07,0,0,.05-.04.1-.07.14-.11.38-.27.78-.5,1.2-.7.1-.05.21-.09.3-.15.05-.03.1-.07.15-.1.03-.02.06-.04.09-.06l.03-.02c-.22.09-.19.08.07-.03.22-.12.43-.25.65-.37.51-.27,1.03-.52,1.57-.74l-.22.09c1.41-.59,2.87-1.07,4.31-1.59,1.85-.66,3.59-1.55,5.36-2.39,2.4-1.14,4.8-2.28,7.2-3.42s4.72-2.25,7.09-3.36,4.6-2.15,6.94-3.15c.29-.13.59-.25.88-.38l-.23.1c2.8-1.18,5.65-2.27,8.55-3.18s5.59-1.58,8.44-2.15c1.61-.32,3.23-.58,4.86-.8l-.25.03c2.83-.38,5.69-.61,8.54-.7s5.72-.02,8.57.2c1.6.12,3.2.29,4.78.5l-.25-.03c2.8.38,5.57.9,8.31,1.56s5.45,1.48,8.11,2.44c1.5.54,2.99,1.12,4.46,1.74l-.22-.09c2.36,1,4.68,2.09,6.96,3.26s4.54,2.41,6.76,3.7,4.41,2.63,6.58,4,4.32,2.77,6.47,4.18c1.08.71,2.17,1.4,3.21,2.16.84.62,1.67,1.25,2.5,1.89.06.05.12.1.19.14.11.08-.22-.17-.07-.05.04.03.08.06.12.09.13.1.27.21.4.31.28.22.57.44.85.67.61.48,1.23.97,1.84,1.46,1.31,1.05,2.6,2.11,3.88,3.19s2.44,2.09,3.62,3.18c.96.89,1.9,1.8,2.76,2.78.17.19.33.39.48.58.1.12-.14-.18-.08-.11.02.02.03.04.05.06.03.04.07.09.1.13.18.24.35.49.52.73.77,1.08,1.52,2.17,2.27,3.27,1.49,2.18,2.94,4.39,4.35,6.62s2.8,4.48,4.15,6.75,2.7,4.57,4.01,6.88,2.61,4.63,3.89,6.95,2.55,4.66,3.81,7,2.5,4.65,3.74,6.98c.29.54.56,1.1.82,1.66.15.32.29.64.43.96.03.08.07.16.1.24.02.05.04.09.06.14,0,.02.02.04.03.06.05.12-.09-.2-.05-.11.07.17.14.35.22.52.63,1.53,1.2,3.08,1.71,4.65s.96,3.12,1.31,4.71c.15.67.27,1.34.36,2.02l-.03-.24c.11.83.19,1.69.08,2.53l.03-.24c-.02.16-.05.32-.09.47-.02.07-.04.14-.06.2-.02.05-.08.19,0,0s.02-.05,0,0c-.03.06-.06.11-.09.16-.02.03-.04.05-.05.08-.05.08.17-.21.11-.14-.01.01-.02.02-.03.04-.04.04-.08.08-.12.12-.09.09.24-.17.1-.08-.02.02-.05.03-.07.05-.03.02-.06.03-.08.04-.07.04.26-.1.16-.07-.01,0-.03.01-.04.02-.07.02-.13.04-.2.05l.24-.03c-.29.04-.58-.02-.86-.06l.24.03c-.57-.08-1.14-.19-1.7-.35-.28-.08-.55-.16-.82-.26-.14-.05-.27-.1-.41-.15-.07-.03-.13-.05-.2-.08-.03-.01-.06-.03-.09-.04-.02,0-.03-.01-.05-.02-.13-.05.09.04.11.05-.53-.25-1.07-.49-1.58-.78s-1.05-.63-1.55-.98c-.26-.18-.51-.37-.76-.56-.11-.08.18.14.07.05-.03-.02-.06-.04-.09-.07-.07-.05-.13-.1-.2-.16-.12-.1-.25-.2-.37-.3-.5-.42-.98-.86-1.45-1.31-.98-.94-1.9-1.95-2.77-2.99-.23-.27-.45-.55-.68-.83-.11-.14-.22-.28-.33-.41-.05-.06-.1-.13-.15-.19-.03-.04-.06-.08-.09-.11-.01-.02-.03-.03-.04-.05-.06-.08.13.17.06.08-.44-.57-.87-1.15-1.3-1.74-.86-1.19-1.68-2.41-2.48-3.64s-1.59-2.5-2.36-3.76-1.5-2.47-2.24-3.71-1.43-2.37-2.16-3.54c-.67-1.08-1.36-2.16-2.08-3.22-.38-.56-.77-1.1-1.15-1.66-.46-.68-.89-1.38-1.31-2.09-.83-1.39-1.59-2.83-2.35-4.26s-1.47-2.79-2.27-4.15-1.7-2.73-2.69-3.99-2.02-2.32-3.22-3.27c-1.42-1.13-2.98-2.02-4.64-2.74-1.83-.79-3.72-1.39-5.66-1.85s-3.83-.8-5.76-1.11-3.9-.61-5.84-.93-3.94-.66-5.91-1.03-3.9-.77-5.84-1.21-3.87-.94-5.78-1.5-3.79-1.18-5.65-1.88c-.46-.17-.92-.35-1.37-.53-.23-.09-.46-.18-.68-.28-.11-.05-.23-.09-.34-.14-.09-.04.07.03.07.03-.03-.01-.05-.02-.08-.03-.06-.03-.12-.05-.18-.08-.91-.39-1.82-.8-2.71-1.24-1.64-.8-3.23-1.67-4.8-2.59s-3.09-1.88-4.61-2.85-3.05-1.99-4.57-2.98-3.03-1.96-4.57-2.91-3.09-1.85-4.69-2.69-3.29-1.64-4.99-2.33-3.4-1.27-5.15-1.72c-1.98-.51-4-.85-6.03-1.05s-3.92-.25-5.88-.19-3.96.24-5.93.5-4.06.62-6.07,1.05-3.97.9-5.94,1.42-3.94,1.09-5.9,1.66-3.94,1.16-5.91,1.74-3.89,1.13-5.85,1.66c-1,.27-2,.56-3.02.74-.13.02-.26.04-.39.06.1-.01-.05,0-.08,0-.07,0-.14.02-.21.02-.26.02-.52.04-.77.03-.13,0-.26,0-.39-.02-.06,0-.12,0-.18-.02-.03,0-.06,0-.09-.01-.04,0-.04,0,0,0h-.06c-.18-.04-.37-.08-.55-.13-.04-.01-.08-.03-.12-.04-.04-.01-.07-.02-.12-.02-.2-.03-.02,0,0,0-.04.02-.22-.07-.26-.08-.09-.03-.17-.06-.26-.1-.09-.04.06.03-.03-.01-.04-.02-.08-.04-.12-.05-.16-.08-.32-.16-.47-.25-.08-.05-.15-.1-.23-.15-.03-.02-.07-.05-.1-.07.07.05,0,0-.03-.03-.13-.11-.26-.23-.37-.36-.02-.02-.07-.09-.02-.03-.02-.03-.04-.06-.07-.09-.04-.07-.09-.13-.12-.2,0-.01-.05-.11-.03-.06s-.02-.05-.02-.07c-.02-.07-.04-.15-.06-.22s0,.05,0-.03c0-.04,0-.07,0-.11,0-.04,0-.09,0-.13,0-.05,0,0,0,.01,0-.03,0-.05.01-.08.04-.21-.06-.43-.28-.49-.21-.06-.43.07-.49.28Z"/>
        </g>
        <g>
          <path class="st28" d="M233.86,178.36c-4.52-.99-8.43,3.19-10.81,7.15-5.3,8.84-8.46,18.83-13.83,27.62-2.44,3.99-5.32,7.7-8.57,11.05-2.8,2.89-5.95,5.6-7.67,9.24s-1.53,8.6,1.68,11.02c2.22,1.68,5.36,1.73,7.97.78s4.82-2.77,6.89-4.63c13.13-11.77,23.41-26.71,29.7-43.19,1.63-4.27,3-9.03,1.47-13.34-1.53-4.31-6.83-5.72-6.83-5.72Z"/>
          <path class="st23" d="M233.98,177.93c-.65-.16-1.33-.24-2-.2-.35.02-.69.06-1.03.12-.08.01-.16.03-.24.05-.04,0-.19.07-.21.05h.07c-.05,0-.1,0-.15.02-.04,0-.08.03-.13.04-.08.03-.17.05-.25.08-.33.11-.66.24-.98.38-.07.03-.14.06-.21.1-.04.02-.08.04-.12.06-.15.08.2-.08-.05.02-.18.08-.35.19-.51.29-.6.37-1.17.8-1.7,1.26-2.23,1.92-3.83,4.43-5.26,6.97-1.59,2.83-3.01,5.74-4.36,8.69s-2.66,5.9-4.06,8.82-2.89,5.78-4.6,8.52c-.85,1.36-1.76,2.69-2.71,3.99-.25.34-.5.67-.75,1-.02.03-.04.06-.07.09.15-.18.03-.03,0,0-.06.07-.12.15-.17.22-.13.16-.26.33-.39.49-.51.64-1.03,1.26-1.56,1.88-1.04,1.2-2.13,2.36-3.25,3.48-1.06,1.06-2.14,2.1-3.16,3.2-2,2.14-3.87,4.57-4.68,7.42-.71,2.51-.65,5.33.53,7.69.61,1.21,1.53,2.24,2.66,2.98,1.27.82,2.81,1.19,4.31,1.23,3.16.08,6.07-1.35,8.53-3.22,1.27-.97,2.47-2.02,3.66-3.1,1.1-1,2.18-2.03,3.24-3.08,2.12-2.1,4.16-4.29,6.1-6.56s3.88-4.72,5.68-7.18,3.41-4.89,4.97-7.43,3.01-5.14,4.37-7.8,2.64-5.51,3.8-8.34,2.38-5.94,2.87-9.09c.14-.87.24-1.75.25-2.64s-.06-1.74-.21-2.6c-.23-1.38-.69-2.77-1.5-3.92-.36-.51-.75-.99-1.2-1.42s-.9-.76-1.4-1.07c-.1-.06-.19-.12-.29-.18-.05-.03-.1-.06-.15-.09l-.22-.09c.16.08.2.09.13.05-.03-.02-.06-.04-.09-.05-.25-.14-.57-.21-.84-.29-.38-.11-.76-.2-1.15-.28-.32-.06-.64-.12-.96-.16-.17-.02-.5-.12-.64,0l.11-.03s-.08-.03-.13-.04c-.15-.04-.21.19-.06.23.04.01.08.02.13.04l-.08-.08c.03.13.24.21.35.28.16.1.31.2.46.3.19.13.38.27.57.41.1.07-.08-.06-.01,0,.02.02.05.04.07.06.05.04.11.08.16.13.11.09.22.18.33.28.31.27.59.58.93.8l-.32-.32c.11.15.19.24.34.35.03.02.05.04.08.06.16.12-.18-.14-.02-.02.1.08.2.16.3.24.21.17.4.35.59.54.4.39.8.77,1.14,1.22l-.16-.2c.39.5.71,1.05.96,1.64l-.1-.24c.35.84.57,1.75.69,2.65l-.04-.28c.18,1.33.13,2.68-.04,4.01l.04-.28c-.39,2.88-1.4,5.63-2.47,8.32-.28.71-.57,1.42-.87,2.13l.11-.26c-.74,1.75-1.52,3.48-2.35,5.19s-1.69,3.4-2.6,5.07-1.85,3.3-2.84,4.91-2.03,3.21-3.1,4.78-2.19,3.11-3.34,4.62c-.14.19-.29.37-.43.56l.17-.22c-1.85,2.4-3.8,4.72-5.85,6.97s-4.16,4.37-6.36,6.43c-1.27,1.19-2.56,2.38-3.94,3.44l.21-.16c-1.19.92-2.46,1.74-3.85,2.33l.24-.1c-.88.37-1.8.63-2.75.76l.27-.04c-.81.11-1.63.12-2.45.01l.26.04c-.67-.09-1.33-.26-1.95-.52l.24.1c-.54-.23-1.06-.52-1.52-.88l.19.15c-.29-.22-.55-.47-.8-.73-.06-.06-.11-.12-.16-.18-.03-.03-.05-.06-.08-.09-.02-.02-.03-.04-.05-.06-.08-.1.06.09.07.09-.06-.03-.11-.14-.15-.2-.06-.08-.11-.16-.16-.24-.19-.3-.34-.61-.49-.92-.08-.17.07.18.02.05-.02-.04-.03-.08-.05-.11-.03-.08-.06-.17-.09-.25-.06-.17-.11-.34-.16-.52-.11-.4-.19-.81-.25-1.21l.03.24c-.12-.93-.11-1.86.01-2.79l-.03.24c.13-.98.39-1.92.76-2.84.05-.13-.04.1-.04.1.01-.02.02-.05.03-.08.02-.05.05-.1.07-.16.06-.13.12-.27.19-.4.13-.26.27-.52.42-.78.29-.51.61-1,.95-1.48.08-.11.16-.22.24-.34.05-.06.09-.12.14-.19.02-.03.04-.06.06-.08.08-.11.02-.02-.03.04.18-.23.37-.46.56-.69.38-.46.77-.9,1.18-1.33.81-.88,1.66-1.72,2.5-2.56,1.78-1.79,3.5-3.63,5.08-5.59s3.19-4.18,4.58-6.41,2.59-4.44,3.73-6.74,2.21-4.65,3.27-6.99,2.11-4.7,3.21-7.03,2.26-4.62,3.54-6.85c.57-.98,1.15-1.95,1.82-2.87.08-.11.15-.21.23-.31.02-.03.04-.05.06-.08.08-.1-.01.02-.02.03.05-.06.1-.13.15-.19.17-.22.35-.43.53-.64.36-.42.74-.82,1.14-1.2.2-.19.4-.37.6-.54.1-.08.19-.16.29-.24.02-.02.05-.04.07-.06-.12.08-.05.04-.02.02.06-.05.12-.09.19-.14.21-.15.43-.3.65-.44.05-.03.1-.06.16-.09.03-.02.05-.03.08-.05l.13-.1-.06.05s.32-.18.35-.2c.22-.12.45-.23.68-.33.03-.01.1-.05-.02,0,.03-.01.06-.02.08-.03.05-.02.11-.04.17-.06.09-.03.18-.06.26-.1-.14.05.07-.02.11-.03.24-.07.48-.13.72-.18.06-.01.11-.02.17-.03.04,0,.19-.03.08-.01.16-.02.33-.04.49-.05-.11,0,.06,0,.09,0,.06,0,.12,0,.18,0,.12,0,.24,0,.36,0,.13,0,.26.02.38.03.01,0,.11.01.05,0s.04,0,.05,0c.07.01.14.02.21.03.24.04.49-.07.55-.32.06-.23-.08-.5-.32-.55Z"/>
        </g>
        <g>
          <path class="st28" d="M49.23,160.79c.58-5.7,2.42-11.19,3.59-16.8,2.69-12.95,2.14-40.09-4.67-36.51-4.97,2.61-8.4,6.59-10.06,11.95s-2.13,11.01-2.6,16.6c-.9,10.9-1.8,21.88-.46,32.73,1.34,10.85,5.11,21.69,12.49,29.76,2.08,2.27,5.45,4.42,8.01,2.7,2.09-1.41,2.1-4.44,1.77-6.95-1.02-7.75-3.04-15.36-5.99-22.6,0,0-2.65-5.19-2.07-10.89Z"/>
          <path class="st23" d="M49.62,160.9c.1-.5.2-1,.32-1.5.01-.06.05-.14.05-.2,0-.04,0-.03-.01,0,.01-.06.05-.11.06-.17.03-.13.05-.27.07-.41.05-.25.1-.5.15-.76.22-1.02.45-2.03.7-3.04.51-2.03,1.05-4.05,1.58-6.07.46-1.77.9-3.54,1.24-5.33.22-1.18.4-2.37.56-3.56s.3-2.49.41-3.74c.12-1.32.21-2.65.27-3.97s.11-2.72.13-4.07,0-2.7-.03-4.05-.1-2.6-.19-3.9c-.09-1.2-.2-2.4-.36-3.6s-.33-2.28-.57-3.4c-.19-.9-.43-1.8-.73-2.67-.27-.76-.58-1.51-1.01-2.2-.37-.59-.83-1.13-1.42-1.51-.51-.33-1.15-.5-1.75-.44-.42.05-.77.15-1.16.32-.61.27-1.19.63-1.76.99-1.4.87-2.71,1.91-3.88,3.08s-2.15,2.45-2.98,3.84-1.5,3-2,4.61c-.62,1.98-1.07,4.01-1.42,6.05s-.62,4.23-.84,6.35-.38,4.18-.56,6.26-.36,4.31-.52,6.46-.29,4.31-.38,6.47-.15,4.31-.15,6.47.06,4.31.19,6.46.34,4.29.63,6.42c.25,1.81.56,3.62.95,5.41s.85,3.55,1.39,5.29,1.16,3.46,1.87,5.14,1.54,3.44,2.45,5.08,1.85,3.12,2.91,4.58c.57.79,1.17,1.56,1.79,2.31.56.68,1.14,1.36,1.78,1.97,1.3,1.25,2.89,2.4,4.67,2.82.88.21,1.82.24,2.7-.01s1.67-.76,2.24-1.44c1.11-1.34,1.45-3.07,1.45-4.77,0-.78-.07-1.56-.18-2.33-.14-1.09-.3-2.19-.48-3.28-.34-2.03-.74-4.06-1.22-6.06s-1.01-4-1.62-5.97-1.29-3.92-2.03-5.84c-.25-.64-.47-1.3-.77-1.91-.12-.24-.23-.49-.33-.73l.11.25c-.4-.95-.73-1.92-1.01-2.92-.09-.33-.16-.68-.25-1.01s-.24-.67-.35-1c-.24-.73-.44-1.47-.59-2.23-.09-.42-.16-.86-.21-1.26-.03-.24-.05-.48-.07-.73,0-.11-.02-.23-.02-.34,0-.06,0-.12-.01-.18-.02-.07-.01-.07,0-.16.03-.27-.4-.27-.42,0,0,.06-.01.11-.02.17l.06-.15c-.16.21-.18.54-.22.79-.05.29-.1.58-.14.87-.07.53-.12,1.06-.15,1.6-.05,1-.06,2.04.08,3.04.06.47.21.94.34,1.39.11.38.23.76.35,1.13.22.64.46,1.26.72,1.87.1.24.21.48.33.72l-.11-.25c1.15,2.83,2.16,5.71,3.03,8.64s1.59,5.88,2.16,8.87c.32,1.69.6,3.38.83,5.09l-.04-.28c.16,1.19.24,2.4.08,3.59l.04-.27c-.07.54-.2,1.07-.41,1.58l.1-.25c-.15.35-.33.68-.56.98l.16-.21c-.19.25-.41.47-.66.66l.21-.16c-.26.2-.54.37-.84.5l.24-.1c-.3.12-.6.2-.92.25l.27-.04c-.38.05-.75.04-1.13,0l.27.04c-.52-.07-1.01-.22-1.49-.43l.24.1c-.77-.33-1.48-.77-2.14-1.28l.2.16c-.75-.58-1.41-1.24-2.04-1.94s-1.29-1.49-1.89-2.27l.15.2c-1.9-2.46-3.53-5.13-4.88-7.92-.38-.8-.75-1.6-1.09-2.41l.1.23c-.84-2-1.57-4.06-2.18-6.14s-1.11-4.2-1.51-6.33c-.23-1.21-.42-2.42-.58-3.63l.03.24c-.37-2.75-.59-5.52-.7-8.29s-.11-5.6-.04-8.4.23-5.61.41-8.41.41-5.6.64-8.4c.11-1.36.22-2.71.35-4.07s.25-2.69.45-4.03c-.03.22,0-.03.01-.08.01-.08.02-.16.03-.24.02-.18.05-.35.08-.53.05-.33.1-.67.16-1,.11-.67.24-1.35.37-2.01.27-1.33.6-2.65.99-3.94.08-.28.17-.56.27-.84.02-.06.04-.12.06-.18s0-.12-.03.06c.02-.08.07-.16.1-.24.05-.13.1-.26.15-.4.05-.12.09-.23.14-.35.05-.13-.03.06-.03.07.01-.03.02-.06.04-.09.03-.07.06-.14.09-.21.11-.24.22-.48.33-.71.44-.93.95-1.82,1.53-2.67.15-.22.3-.43.45-.64.04-.05.07-.1.11-.14.02-.02.04-.05.05-.07.06-.08-.12.15-.05.07.08-.11.17-.21.25-.31.32-.39.65-.77,1-1.14s.73-.73,1.11-1.08c.19-.17.39-.34.58-.5.09-.08.19-.15.28-.23.05-.04.1-.08.14-.11.02-.02.05-.04.07-.06-.21.17-.07.06-.03.02.84-.64,1.73-1.22,2.65-1.73.2-.11.4-.22.61-.33.04-.02.08-.04.13-.06.16-.08-.24.1-.06.03.16-.06.33-.11.5-.14.2-.03-.26.03-.1.01.04,0,.08,0,.12,0,.08,0,.15,0,.23,0,.04,0,.08,0,.11.01,0,0-.29-.05-.16-.02.02,0,.04,0,.07.01.07.01.15.03.22.06.03.01.07.02.1.04.17.06-.24-.11-.08-.03.07.03.14.07.21.11s.13.09.2.13c.15.11-.19-.16-.07-.05.03.03.07.06.1.09.13.12.26.25.37.38.03.04.06.07.09.11.08.1-.16-.21-.08-.11.02.02.03.04.05.06.06.08.12.17.18.26.25.38.45.78.63,1.2.01.03.03.06.04.09.01.03-.1-.24-.06-.14,0,.01.01.03.02.04.03.06.05.12.08.19.05.12.09.24.14.37.09.26.18.52.26.79.18.58.33,1.18.46,1.77.15.67.28,1.34.39,2.02.06.36.11.73.16,1.09,0,.04.01.09.02.13.03.19-.02-.17,0-.06.01.1.03.2.04.3.02.19.05.38.07.57.19,1.61.31,3.24.39,4.86.08,1.74.11,3.48.1,5.22s-.06,3.53-.16,5.29-.23,3.39-.41,5.08c-.04.4-.09.8-.14,1.2-.02.2-.05.4-.08.61-.01.09-.02.18-.04.27-.02.17.03-.24,0-.04,0,.05-.01.1-.02.15-.1.74-.22,1.48-.35,2.22-.38,2.2-.92,4.37-1.44,6.54-.32,1.32-.66,2.63-.94,3.96-.14.67-.28,1.35-.41,2.02-.06.33-.13.67-.18,1-.07.37-.15.75-.19,1.12,0-.03.02-.13,0,0,0,.04-.01.08-.02.12-.01.08-.02.16-.03.24-.03.19-.05.39-.08.58-.02.17-.04.33-.06.5,0,.08-.02.16-.03.24,0,.03-.02.15,0,.05,0,.04-.01.08-.02.12v.08c-.03.08-.02.16,0,.24,0-.04,0-.08-.02.02-.01.08,0,.16-.01.24,0,.16-.01.32-.02.47-.01.34-.02.67-.03,1.01,0,.45.72.57.81.11Z"/>
        </g>
        <g>
          <path class="st28" d="M54.96,224.76c3.69,13.31,11.73,19.99,23.63,27.01,5.21,3.07,11.66,5.26,17.23,2.92,1.08-.45,2.13-1.11,2.73-2.11.55-.94.65-2.09.54-3.17-.32-3.36-2.37-6.36-4.89-8.61-2.52-2.25-5.52-3.87-8.41-5.63-8.54-5.2-16.29-11.69-22.89-19.2-1.17-1.33-2.34-2.72-3.87-3.6s-3.56-1.15-5.05-.19c-2.42,1.57.97,12.58.97,12.58Z"/>
          <path class="st23" d="M54.54,224.88c.06.38.15.75.21,1.13-.03-.17,0,.08.02.14.01.05.03.09.04.14.02.08.03.15.05.23.04.2.09.39.14.59,0,.03.05.22.06.22v-.09c-.01.08,0,.16.03.23.01.04.03.09.04.13.06.17.11.35.17.52.11.34.23.68.35,1.02.48,1.33,1.05,2.63,1.69,3.88,1.2,2.36,2.67,4.56,4.35,6.6s3.47,3.78,5.44,5.42c2.15,1.79,4.43,3.41,6.77,4.93,1.23.8,2.49,1.57,3.75,2.33,1.43.86,2.9,1.66,4.44,2.32,3.15,1.36,6.61,2.3,10.07,1.97,1.74-.16,3.5-.6,5.04-1.45.81-.44,1.51-1.03,2.05-1.77.57-.78.81-1.75.89-2.7.07-.88-.03-1.77-.21-2.63s-.46-1.65-.81-2.44c-.66-1.52-1.63-2.9-2.74-4.12-2.36-2.63-5.45-4.48-8.45-6.29s-5.86-3.66-8.65-5.71c-.68-.5-1.35-1.01-2.02-1.52l.22.17c-2.41-1.86-4.73-3.83-6.95-5.9s-4.37-4.25-6.4-6.53c-.98-1.1-1.92-2.26-3.06-3.21-.61-.5-1.26-.98-1.98-1.3-.78-.36-1.57-.58-2.43-.66-.73-.07-1.52.01-2.22.27-.52.19-1.09.45-1.46.88-.54.63-.73,1.41-.84,2.21-.1.76-.07,1.52-.01,2.28.04.51.11,1.03.18,1.54.03.22.06.45.1.67s.16.42.24.62c.13.31.23.67.45.91l-.19-.33c.09.47.25.94.39,1.4.13.42.26.85.39,1.27.21.65.43,1.29.66,1.93.08.24.17.63.38.77l-.17-.22s.02.08.04.12c.14.45.85.26.71-.2-.01-.04-.02-.08-.04-.12l-.04.28c.07-.17.04-.31,0-.48-.02-.1-.04-.2-.06-.3-.06-.28-.12-.56-.17-.84-.16-.8-.3-1.6-.43-2.4-.04-.26-.08-.52-.12-.79,0-.06-.02-.13-.03-.19,0-.03,0-.06-.01-.1-.02-.18.02.15,0,.03-.03-.19-.05-.39-.08-.58v.39c.08-.2.05-.46.06-.68,0-.17.01-.33.02-.5.02-.41-.07-.81-.12-1.22l.04.27c-.16-1.17-.28-2.38-.12-3.56l-.04.28c.05-.34.12-.68.25-1l-.1.25c.07-.15.14-.3.25-.43l-.16.21c.07-.09.15-.17.24-.24l-.21.16c.19-.14.42-.25.64-.35l-.25.11c.31-.13.64-.21.97-.26l-.28.04c.44-.06.88-.05,1.32,0l-.28-.04c.51.07,1.01.21,1.48.41l-.25-.11c.59.25,1.13.59,1.63.97l-.22-.17c1.07.83,1.95,1.86,2.84,2.87s1.85,2.07,2.81,3.08c1.92,2.01,3.93,3.95,6.01,5.79s4.36,3.7,6.65,5.4,4.52,3.21,6.88,4.67,4.9,2.83,7.19,4.47c.29.21.57.42.85.63l-.21-.16c1.31,1.01,2.52,2.15,3.53,3.46l-.16-.21c.73.94,1.35,1.96,1.82,3.05l-.1-.24c.37.89.64,1.82.77,2.77l-.04-.27c.08.64.11,1.29.03,1.94l.04-.27c-.06.4-.15.79-.31,1.16l.1-.24c-.13.3-.29.57-.49.83l.16-.2c-.23.3-.51.56-.8.79l.2-.16c-.5.38-1.06.68-1.64.93l.24-.1c-1.02.43-2.1.72-3.2.87l.26-.04c-1.35.18-2.72.16-4.08-.02l.26.03c-2.05-.28-4.04-.89-5.94-1.69l.23.1c-2.76-1.17-5.32-2.75-7.85-4.34-1.13-.71-2.24-1.44-3.33-2.21-.53-.37-1.05-.74-1.56-1.12-.26-.19-.51-.38-.77-.58-.03-.02-.06-.04-.08-.06-.13-.1.18.14.05.04-.06-.04-.11-.09-.17-.13-.13-.1-.27-.21-.4-.31-1.91-1.52-3.73-3.17-5.37-4.98-.4-.44-.78-.89-1.16-1.34-.2-.24-.39-.48-.58-.72-.02-.02-.03-.04-.05-.06.17.21.07.09.03.04-.04-.05-.08-.11-.12-.16-.1-.13-.2-.26-.29-.39-.72-.98-1.39-2-2.01-3.05s-1.23-2.24-1.75-3.4c-.06-.13-.12-.27-.18-.4-.04-.08-.07-.16-.1-.24.09.19.04.09.02.04-.04-.1-.08-.19-.12-.28-.07-.15-.13-.3-.2-.45-.03-.07-.06-.14-.09-.2-.06-.15.07.16,0,.01-.02-.04-.03-.08-.05-.12-.13-.32-.26-.65-.39-.97-.06-.14-.11-.29-.16-.43-.05-.13-.11-.25-.16-.37-.02-.03-.03-.07-.04-.1s-.09-.2-.02-.04c-.07-.16-.13-.32-.2-.48-.03-.07-.06-.15-.09-.22-.02-.04-.03-.09-.04-.13-.04-.12-.1-.19-.17-.29l.14.25c-.16-.37-.31-.74-.45-1.11-.09-.22-.29-.37-.54-.31s-.35.31-.31.54Z"/>
        </g>
        <g>
          <path class="st28" d="M169.17,243.48c-18.97,1.56-33.34,5.94-52.03,9.53-1.48.28-3.08.64-4.05,1.79-.75.9-.97,2.14-.95,3.31.09,4.78,3.84,8.93,8.26,10.75s9.4,1.72,14.15,1.16c16.95-2.02,33.16-9.8,45.34-21.75.53-.52,1.1-1.19.94-1.91-.12-.56-.64-.94-1.13-1.23-2.73-1.62-6.01-2.3-9.16-1.92l-1.37.28Z"/>
          <path class="st23" d="M169.17,242.97c-2.83.11-5.65.32-8.47.63s-5.45.72-8.16,1.18-5.16.93-7.73,1.44-5.13,1.06-7.68,1.62-5.18,1.14-7.78,1.71-5.39,1.17-8.1,1.72c-1.41.29-2.83.57-4.24.84-1.19.23-2.42.48-3.46,1.13-1.18.73-1.94,1.91-2.19,3.27-.22,1.24-.14,2.52.13,3.75.5,2.24,1.75,4.28,3.34,5.92,1.67,1.72,3.74,3,5.99,3.83,2.58.94,5.36,1.29,8.09,1.3s5.39-.28,8.06-.68c2.44-.36,4.86-.84,7.26-1.43s4.74-1.29,7.06-2.11,4.73-1.78,7.02-2.84,4.44-2.16,6.58-3.39,4.2-2.55,6.21-3.98,4.05-3.02,5.96-4.68c.93-.81,1.85-1.64,2.74-2.49,1.01-.96,2.42-2.16,1.95-3.73-.23-.76-.83-1.29-1.49-1.69-.55-.34-1.13-.63-1.72-.88-1.26-.53-2.55-.92-3.91-1.12-.69-.1-1.37-.17-2.07-.18-.38,0-.74.04-1.11.1s-.74.1-1.08.25l.41-.11c-.19.02-.34.04-.52.12-.04.02-.09.04-.13.07-.02.01-.04.02-.05.03l-.28.18-.37.24c-.14.09-.34.18-.41.33l.15-.12-.1.02c-.32.07-.19.56.14.5l.1-.02-.25-.07c.14.13.3.13.47.16l.4.06.31.05s.05,0,.07.01c.03,0,.07.02.1.02.09.02.17.04.26.04.07,0,.07,0,0-.02-.13-.03-.07-.02.16.02.04,0,.07,0,.11,0,.07,0,.14,0,.22,0,.14,0,.29.01.43.02.27.02.54.05.81.06.56.01,1.12.05,1.67.13l-.26-.04c1.31.18,2.59.52,3.8,1.03l-.24-.1c.78.33,1.59.7,2.26,1.21l-.2-.16c.15.12.28.24.4.39l-.16-.2c.07.1.14.2.19.31l-.1-.24c.04.1.07.2.09.31l-.04-.27c.01.11.01.22,0,.33l.04-.27c-.02.13-.06.25-.1.36l.1-.24c-.09.2-.2.38-.33.55l.16-.2c-.39.5-.89.93-1.35,1.37s-.92.87-1.39,1.29c-.95.86-1.91,1.69-2.9,2.5-.56.46-1.12.9-1.69,1.34l.2-.16c-2.12,1.63-4.31,3.16-6.58,4.57s-4.59,2.7-6.99,3.87c-1.35.66-2.71,1.28-4.09,1.86l.23-.1c-2.48,1.04-5.01,1.96-7.58,2.75s-5.18,1.44-7.82,1.96c-1.48.29-2.97.53-4.46.73l.25-.03c-2.63.35-5.29.59-7.94.46-.76-.03-1.51-.1-2.27-.2l.25.03c-1.36-.18-2.7-.48-3.99-.93-.32-.11-.64-.23-.96-.36-.06-.02-.16-.07.09.04-.03-.01-.06-.02-.08-.04-.07-.03-.14-.06-.21-.09-.13-.06-.25-.12-.38-.18-.51-.25-1.01-.53-1.49-.84-.23-.15-.47-.31-.69-.47-.11-.08-.22-.16-.34-.25-.12-.09.07.06.07.06,0,0-.06-.05-.07-.06-.07-.05-.13-.11-.2-.16-.44-.36-.85-.74-1.24-1.14-.2-.2-.39-.41-.57-.63-.08-.1-.17-.2-.25-.3-.02-.03-.05-.06-.07-.09-.07-.09.12.16.06.07-.05-.07-.1-.13-.15-.2-.33-.45-.63-.91-.89-1.4-.15-.27-.28-.55-.41-.83-.01-.03-.02-.06-.04-.08-.07-.16.09.21.02.05-.03-.07-.06-.14-.08-.21-.06-.15-.11-.29-.16-.44-.2-.59-.34-1.2-.43-1.82l.03.24c-.1-.73-.12-1.47-.02-2.2l-.03.24c.03-.22.07-.43.12-.64.03-.11.06-.21.09-.31.02-.05.03-.09.05-.14,0-.02.02-.05.03-.07.04-.12-.03.05-.03.08.07-.21.2-.41.32-.59.03-.04.06-.08.09-.12.05-.08-.07.09-.07.08.01-.02.03-.04.05-.06.07-.09.14-.17.22-.25.07-.07.13-.13.21-.19.02-.02.04-.03.05-.04.11-.1-.07.06-.07.06,0,0,.12-.09.13-.1.17-.12.34-.22.52-.31.09-.05.18-.09.28-.13.02,0,.04-.02.07-.03.08-.04-.11.05-.11.05,0-.01.14-.05.16-.06.2-.08.41-.14.62-.2.88-.25,1.78-.4,2.68-.57,1.03-.2,2.06-.41,3.08-.62,1.98-.41,3.96-.83,5.94-1.25s3.85-.84,5.77-1.27,3.74-.83,5.62-1.24,3.73-.81,5.59-1.2,3.72-.76,5.59-1.12,3.81-.7,5.72-1.01c.97-.16,1.95-.29,2.92-.45.49-.08.97-.16,1.46-.24.24-.04.49-.08.73-.11.12-.02.25-.04.37-.06.06,0,.11-.02.17-.03.03,0,.06,0,.09-.01.02,0,.15-.02.04,0s0,0,.01,0c.09-.01.17-.03.26-.04.06,0,.11-.02.17-.03.12-.02.25-.04.37-.06.26-.04.52-.08.77-.11s.5-.07.75-.11.52-.04.75-.1c0,0-.12.01-.04,0,.07,0,.14-.02.21-.03s.13-.02.2-.03c.13-.02.25-.04.38-.05.25-.04.51-.08.76-.11-.03,0-.12.02,0,0,.07,0,.13-.02.2-.03.06,0,.12-.02.18-.03s.12-.02.18-.02c.03,0,.06,0,.09-.01h.06c-.05,0-.06,0-.01,0,.26-.03.52-.07.78-.1.15-.02.3-.04.45-.06.07,0,.01,0,0,0,.04,0,.08-.01.12-.02.06,0,.12-.02.18-.02.26-.03.53-.07.79-.1s.52-.21.51-.51c-.01-.27-.22-.52-.51-.51Z"/>
        </g>
        <g class="st29">
          <path class="st26" d="M148.77,79.11c2.68.8,5.33,1.68,7.95,2.66.34.13,3.72,1.3,3.69,1.46,0-.04-1.07-.46-.2-.08.27.12.54.23.81.35.74.33,1.48.66,2.21,1,5.01,2.32,9.85,5.01,14.47,8.02,1.11.72,2.2,1.48,3.29,2.23.92.63-.11-.08-.24-.2l-1.15-2.97c-.05-.96.21-1.75.79-2.39l.26-.32c-.46.43-.33.35.37-.23l-.31.18c-.59.29-.5.25.28-.1-.12.3-1.32.26-1.59.42.7-.42,1.03-.07.35-.07-.35,0-.69.02-1.04.02-.17,0-.96.06-1.05-.06.02.02,1.51.27.32.04-.71-.14-1.41-.28-2.1-.48-1.26-.35-2.48-.79-3.69-1.27-.36-.14-.71-.29-1.07-.44-.88-.36,1.31.59-.06-.03-.7-.32-1.41-.63-2.1-.96-2.65-1.25-5.24-2.61-7.8-4.03-2.72-1.51-5.43-3.04-8.08-4.66-.29-.18-.56-.37-.85-.54-.97-.59.76.85-.05-.05-.09-.1-.49-.54-.56-.56.47.65.58.79.34.42-.1-.14-.18-.29-.25-.44.5.59.47,1.17.28.54-.33-1.08.02,1.38.08.33l-.15.97c.12-.44.08-.4-.13.13-.25.52-.26.57-.05.17-.32.55-.76.97-1.31,1.28,1.29-.96,2.29-1.95,2.74-3.56.39-1.43.22-3.32-.6-4.59-1.59-2.47-5.47-4.12-8.15-2.14-1.95,1.44-3.42,3.11-3.98,5.54s-.21,5.1.99,7.34c1.9,3.53,5.58,5.42,8.91,7.35,6.36,3.69,12.83,7.23,19.73,9.81,3.31,1.23,6.99,2.08,10.53,1.7,5.04-.54,10.93-3.44,10.93-9.31,0-5.09-5.16-7.68-8.91-10.06-2.79-1.78-5.66-3.44-8.6-4.97-7.04-3.67-14.46-6.68-22.07-8.94-2.98-.89-6.62,1.07-7.32,4.16s.96,6.37,4.16,7.32h0Z"/>
        </g>
      </g>
    </g>
  </g>
</svg>