<svg aria-roledescription="er" role="graphics-document document" viewBox="-120.01289367675781 0 1280.6435546875 1566" style="max-width: 1280.64px; background-color: transparent;" xmlns:xlink="http://www.w3.org/1999/xlink" xmlns="http://www.w3.org/2000/svg" width="100%" id="my-svg"><style>#my-svg{font-family:"trebuchet ms",verdana,arial,sans-serif;font-size:16px;fill:#333;}#my-svg .error-icon{fill:#552222;}#my-svg .error-text{fill:#552222;stroke:#552222;}#my-svg .edge-thickness-normal{stroke-width:1px;}#my-svg .edge-thickness-thick{stroke-width:3.5px;}#my-svg .edge-pattern-solid{stroke-dasharray:0;}#my-svg .edge-thickness-invisible{stroke-width:0;fill:none;}#my-svg .edge-pattern-dashed{stroke-dasharray:3;}#my-svg .edge-pattern-dotted{stroke-dasharray:2;}#my-svg .marker{fill:#333333;stroke:#333333;}#my-svg .marker.cross{stroke:#333333;}#my-svg svg{font-family:"trebuchet ms",verdana,arial,sans-serif;font-size:16px;}#my-svg p{margin:0;}#my-svg .entityBox{fill:#ECECFF;stroke:#9370DB;}#my-svg .attributeBoxOdd{fill:#ffffff;stroke:#9370DB;}#my-svg .attributeBoxEven{fill:#f2f2f2;stroke:#9370DB;}#my-svg .relationshipLabelBox{fill:hsl(80, 100%, 96.2745098039%);opacity:0.7;background-color:hsl(80, 100%, 96.2745098039%);}#my-svg .relationshipLabelBox rect{opacity:0.5;}#my-svg .relationshipLine{stroke:#333333;}#my-svg .entityTitleText{text-anchor:middle;font-size:18px;fill:#333;}#my-svg #MD_PARENT_START{fill:#f5f5f5!important;stroke:#333333!important;stroke-width:1;}#my-svg #MD_PARENT_END{fill:#f5f5f5!important;stroke:#333333!important;stroke-width:1;}#my-svg :root{--mermaid-font-family:"trebuchet ms",verdana,arial,sans-serif;}</style><g/><defs><marker orient="auto" markerHeight="240" markerWidth="190" refY="7" refX="0" id="MD_PARENT_START"><path d="M 18,7 L9,13 L1,7 L9,1 Z"/></marker></defs><defs><marker orient="auto" markerHeight="28" markerWidth="20" refY="7" refX="19" id="MD_PARENT_END"><path d="M 18,7 L9,13 L1,7 L9,1 Z"/></marker></defs><defs><marker orient="auto" markerHeight="18" markerWidth="18" refY="9" refX="0" id="ONLY_ONE_START"><path d="M9,0 L9,18 M15,0 L15,18" fill="none" stroke="gray"/></marker></defs><defs><marker orient="auto" markerHeight="18" markerWidth="18" refY="9" refX="18" id="ONLY_ONE_END"><path d="M3,0 L3,18 M9,0 L9,18" fill="none" stroke="gray"/></marker></defs><defs><marker orient="auto" markerHeight="18" markerWidth="30" refY="9" refX="0" id="ZERO_OR_ONE_START"><circle r="6" cy="9" cx="21" fill="white" stroke="gray"/><path d="M9,0 L9,18" fill="none" stroke="gray"/></marker></defs><defs><marker orient="auto" markerHeight="18" markerWidth="30" refY="9" refX="30" id="ZERO_OR_ONE_END"><circle r="6" cy="9" cx="9" fill="white" stroke="gray"/><path d="M21,0 L21,18" fill="none" stroke="gray"/></marker></defs><defs><marker orient="auto" markerHeight="36" markerWidth="45" refY="18" refX="18" id="ONE_OR_MORE_START"><path d="M0,18 Q 18,0 36,18 Q 18,36 0,18 M42,9 L42,27" fill="none" stroke="gray"/></marker></defs><defs><marker orient="auto" markerHeight="36" markerWidth="45" refY="18" refX="27" id="ONE_OR_MORE_END"><path d="M3,9 L3,27 M9,18 Q27,0 45,18 Q27,36 9,18" fill="none" stroke="gray"/></marker></defs><defs><marker orient="auto" markerHeight="36" markerWidth="57" refY="18" refX="18" id="ZERO_OR_MORE_START"><circle r="6" cy="18" cx="48" fill="white" stroke="gray"/><path d="M0,18 Q18,0 36,18 Q18,36 0,18" fill="none" stroke="gray"/></marker></defs><defs><marker orient="auto" markerHeight="36" markerWidth="57" refY="18" refX="39" id="ZERO_OR_MORE_END"><circle r="6" cy="18" cx="9" fill="white" stroke="gray"/><path d="M21,18 Q39,0 57,18 Q39,36 21,18" fill="none" stroke="gray"/></marker></defs><path style="stroke: gray; fill: none;" marker-start="url(#ONLY_ONE_START)" marker-end="url(#ZERO_OR_ONE_END)" d="M801.093,65L814.012,73.333C826.931,81.667,852.77,98.333,865.689,115C878.608,131.667,878.608,148.333,878.608,156.667L878.608,165" class="er relationshipLine"/><path style="stroke: gray; fill: none;" marker-start="url(#ONLY_ONE_START)" marker-end="url(#ZERO_OR_ONE_END)" d="M731.329,65L718.409,73.333C705.49,81.667,679.652,98.333,666.732,126.5C653.813,154.667,653.813,194.333,653.813,214.167L653.813,234" class="er relationshipLine"/><path style="stroke: gray; fill: none;" marker-start="url(#ONLY_ONE_START)" marker-end="url(#ONE_OR_MORE_END)" d="M708.331,292.078L768.349,314.731C828.367,337.385,948.404,382.693,1008.422,431.43C1068.44,480.167,1068.44,532.333,1068.44,584.5C1068.44,636.667,1068.44,688.833,1068.44,735.75C1068.44,782.667,1068.44,824.333,1068.44,866C1068.44,907.667,1068.44,949.333,1068.44,996C1068.44,1042.667,1068.44,1094.333,1068.44,1120.167L1068.44,1146" class="er relationshipLine"/><path style="stroke: gray; fill: none;" marker-start="url(#ONLY_ONE_START)" marker-end="url(#ONE_OR_MORE_END)" d="M599.295,296.042L550.441,318.035C501.587,340.028,403.879,384.014,355.025,414.34C306.171,444.667,306.171,461.333,306.171,469.667L306.171,478" class="er relationshipLine"/><path style="stroke: gray; fill: none;" marker-start="url(#ONLY_ONE_START)" marker-end="url(#ZERO_OR_MORE_END)" d="M240.425,629.911L213.62,648.426C186.814,666.941,133.204,703.97,106.398,736.069C79.593,768.167,79.593,795.333,79.593,808.917L79.593,822.5" class="er relationshipLine"/><path style="stroke: gray; fill: none;" marker-start="url(#ONLY_ONE_START)" marker-end="url(#ZERO_OR_ONE_END)" d="M371.917,617.526L412.884,638.105C453.851,658.684,535.784,699.842,576.751,728.754C617.718,757.667,617.718,774.333,617.718,782.667L617.718,791" class="er relationshipLine"/><path style="stroke: gray; fill: none;" marker-start="url(#ONLY_ONE_START)" marker-end="url(#ZERO_OR_MORE_END)" d="M260.587,691L257.02,699.333C253.453,707.667,246.319,724.333,242.753,753.5C239.186,782.667,239.186,824.333,239.186,866C239.186,907.667,239.186,949.333,255.247,991.876C271.308,1034.418,303.431,1077.835,319.492,1099.544L335.554,1121.253" class="er relationshipLine"/><path style="stroke: gray; fill: none;" marker-start="url(#ONLY_ONE_START)" marker-end="url(#ZERO_OR_MORE_END)" d="M240.425,611.144L187.021,632.787C133.617,654.429,26.808,697.715,-26.596,740.191C-80,782.667,-80,824.333,-80,866C-80,907.667,-80,949.333,-80,1006.75C-80,1064.167,-80,1137.333,-80,1210.5C-80,1283.667,-80,1356.833,27.953,1406.259C135.906,1455.684,351.812,1481.368,459.765,1494.21L567.718,1507.052" class="er relationshipLine"/><path style="stroke: gray; fill: none;" marker-start="url(#ONLY_ONE_START)" marker-end="url(#ZERO_OR_ONE_END)" d="M430.62,1041L432.048,1032.667C433.475,1024.333,436.331,1007.667,437.758,978.5C439.186,949.333,439.186,907.667,439.186,866C439.186,824.333,439.186,782.667,427.974,748.642C416.763,714.618,394.34,688.236,383.128,675.045L371.917,661.854" class="er relationshipLine"/><path style="stroke: gray; fill: none;" marker-start="url(#ONLY_ONE_START)" marker-end="url(#ONLY_ONE_END)" d="M467.613,1173.777L522.386,1143.314C577.159,1112.851,686.704,1051.926,741.477,1000.629C796.25,949.333,796.25,907.667,796.25,866C796.25,824.333,796.25,782.667,725.528,739.249C654.806,695.832,513.361,650.663,442.639,628.079L371.917,605.495" class="er relationshipLine"/><path style="stroke: gray; fill: none;" marker-start="url(#ONLY_ONE_START)" marker-end="url(#ZERO_OR_MORE_END)" d="M401.583,1380L401.583,1388.333C401.583,1396.667,401.583,1413.333,429.272,1432.3C456.961,1451.266,512.34,1472.533,540.029,1483.166L567.718,1493.799" class="er relationshipLine"/><path style="stroke: gray; fill: none;" marker-start="url(#ONLY_ONE_START)" marker-end="url(#ONLY_ONE_END)" d="M539.186,901.244L505.852,916.203C472.519,931.163,405.852,961.081,374.888,984.374C343.924,1007.667,348.661,1024.333,351.03,1032.667L353.399,1041" class="er relationshipLine"/><path style="stroke: gray; fill: none;" marker-start="url(#ONLY_ONE_START)" marker-end="url(#ZERO_OR_MORE_END)" d="M696.25,901.244L729.583,916.203C762.917,931.163,829.583,961.081,862.917,1012.624C896.25,1064.167,896.25,1137.333,896.25,1210.5C896.25,1283.667,896.25,1356.833,858.161,1404.767C820.073,1452.7,743.895,1475.4,705.807,1486.75L667.718,1498.1" class="er relationshipLine"/><path style="stroke: gray; fill: none;" marker-start="url(#ONLY_ONE_START)" marker-end="url(#ZERO_OR_MORE_END)" d="M1068.44,1275L1068.44,1300.833C1068.44,1326.667,1068.44,1378.333,1001.653,1416.465C934.866,1454.598,801.292,1479.195,734.505,1491.494L667.718,1503.793" class="er relationshipLine"/><g transform="translate(716.2106323242188,20 )" id="entity-Container-bc34fb32-8a75-5b81-936b-92374bf40296"><rect height="45" width="100" y="0" x="0" class="er entityBox"/><text style="dominant-baseline: middle; text-anchor: middle; font-size: 12px;" transform="translate(50,12)" y="0" x="0" id="text-entity-Container-bc34fb32-8a75-5b81-936b-92374bf40296" class="er entityLabel">Container</text><rect height="21" width="67.43675231933594" y="24" x="0" class="er attributeBoxOdd"/><text style="dominant-baseline: middle; font-size: 10.2px;" transform="translate(5,34.5)" y="0" x="0" id="text-entity-Container-bc34fb32-8a75-5b81-936b-92374bf40296-attr-1-type" class="er entityLabel">uriorcurie</text><rect height="21" width="32.56324768066406" y="24" x="67.43675231933594" class="er attributeBoxOdd"/><text style="dominant-baseline: middle; font-size: 10.2px;" transform="translate(72.43675231933594,34.5)" y="0" x="0" id="text-entity-Container-bc34fb32-8a75-5b81-936b-92374bf40296-attr-1-name" class="er entityLabel">iri</text></g><g transform="translate(599.2954864501953,234 )" id="entity-LandmarkData-f9afa573-fd43-576b-aaf0-87a01ccedbc7"><rect height="75" width="109.03515625" y="0" x="0" class="er entityBox"/><text style="dominant-baseline: middle; text-anchor: middle; font-size: 12px;" transform="translate(54.517578125,37.5)" y="0" x="0" id="text-entity-LandmarkData-f9afa573-fd43-576b-aaf0-87a01ccedbc7" class="er entityLabel">LandmarkData</text></g><g transform="translate(240.42506408691406,478 )" id="entity-SpatialEntity-d1db85b5-1d94-5840-8e44-d9029b3ecf4a"><rect height="213" width="131.4918212890625" y="0" x="0" class="er entityBox"/><text style="dominant-baseline: middle; text-anchor: middle; font-size: 12px;" transform="translate(65.74591064453125,12)" y="0" x="0" id="text-entity-SpatialEntity-d1db85b5-1d94-5840-8e44-d9029b3ecf4a" class="er entityLabel">SpatialEntity</text><rect height="21" width="52.795379638671875" y="24" x="0" class="er attributeBoxOdd"/><text style="dominant-baseline: middle; font-size: 10.2px;" transform="translate(5,34.5)" y="0" x="0" id="text-entity-SpatialEntity-d1db85b5-1d94-5840-8e44-d9029b3ecf4a-attr-1-type" class="er entityLabel">string</text><rect height="21" width="78.69644165039062" y="24" x="52.795379638671875" class="er attributeBoxOdd"/><text style="dominant-baseline: middle; font-size: 10.2px;" transform="translate(57.795379638671875,34.5)" y="0" x="0" id="text-entity-SpatialEntity-d1db85b5-1d94-5840-8e44-d9029b3ecf4a-attr-1-name" class="er entityLabel">pref_label</text><rect height="21" width="52.795379638671875" y="45" x="0" class="er attributeBoxEven"/><text style="dominant-baseline: middle; font-size: 10.2px;" transform="translate(5,55.5)" y="0" x="0" id="text-entity-SpatialEntity-d1db85b5-1d94-5840-8e44-d9029b3ecf4a-attr-2-type" class="er entityLabel">float</text><rect height="21" width="78.69644165039062" y="45" x="52.795379638671875" class="er attributeBoxEven"/><text style="dominant-baseline: middle; font-size: 10.2px;" transform="translate(57.795379638671875,55.5)" y="0" x="0" id="text-entity-SpatialEntity-d1db85b5-1d94-5840-8e44-d9029b3ecf4a-attr-2-name" class="er entityLabel">x_dimension</text><rect height="21" width="52.795379638671875" y="66" x="0" class="er attributeBoxOdd"/><text style="dominant-baseline: middle; font-size: 10.2px;" transform="translate(5,76.5)" y="0" x="0" id="text-entity-SpatialEntity-d1db85b5-1d94-5840-8e44-d9029b3ecf4a-attr-3-type" class="er entityLabel">float</text><rect height="21" width="78.69644165039062" y="66" x="52.795379638671875" class="er attributeBoxOdd"/><text style="dominant-baseline: middle; font-size: 10.2px;" transform="translate(57.795379638671875,76.5)" y="0" x="0" id="text-entity-SpatialEntity-d1db85b5-1d94-5840-8e44-d9029b3ecf4a-attr-3-name" class="er entityLabel">y_dimension</text><rect height="21" width="52.795379638671875" y="87" x="0" class="er attributeBoxEven"/><text style="dominant-baseline: middle; font-size: 10.2px;" transform="translate(5,97.5)" y="0" x="0" id="text-entity-SpatialEntity-d1db85b5-1d94-5840-8e44-d9029b3ecf4a-attr-4-type" class="er entityLabel">float</text><rect height="21" width="78.69644165039062" y="87" x="52.795379638671875" class="er attributeBoxEven"/><text style="dominant-baseline: middle; font-size: 10.2px;" transform="translate(57.795379638671875,97.5)" y="0" x="0" id="text-entity-SpatialEntity-d1db85b5-1d94-5840-8e44-d9029b3ecf4a-attr-4-name" class="er entityLabel">z_dimension</text><rect height="21" width="52.795379638671875" y="108" x="0" class="er attributeBoxOdd"/><text style="dominant-baseline: middle; font-size: 10.2px;" transform="translate(5,118.5)" y="0" x="0" id="text-entity-SpatialEntity-d1db85b5-1d94-5840-8e44-d9029b3ecf4a-attr-5-type" class="er entityLabel">string</text><rect height="21" width="78.69644165039062" y="108" x="52.795379638671875" class="er attributeBoxOdd"/><text style="dominant-baseline: middle; font-size: 10.2px;" transform="translate(57.795379638671875,118.5)" y="0" x="0" id="text-entity-SpatialEntity-d1db85b5-1d94-5840-8e44-d9029b3ecf4a-attr-5-name" class="er entityLabel">dimension_unit</text><rect height="21" width="52.795379638671875" y="129" x="0" class="er attributeBoxEven"/><text style="dominant-baseline: middle; font-size: 10.2px;" transform="translate(5,139.5)" y="0" x="0" id="text-entity-SpatialEntity-d1db85b5-1d94-5840-8e44-d9029b3ecf4a-attr-6-type" class="er entityLabel">uriorcurie</text><rect height="21" width="78.69644165039062" y="129" x="52.795379638671875" class="er attributeBoxEven"/><text style="dominant-baseline: middle; font-size: 10.2px;" transform="translate(57.795379638671875,139.5)" y="0" x="0" id="text-entity-SpatialEntity-d1db85b5-1d94-5840-8e44-d9029b3ecf4a-attr-6-name" class="er entityLabel">extraction_set</text><rect height="21" width="52.795379638671875" y="150" x="0" class="er attributeBoxOdd"/><text style="dominant-baseline: middle; font-size: 10.2px;" transform="translate(5,160.5)" y="0" x="0" id="text-entity-SpatialEntity-d1db85b5-1d94-5840-8e44-d9029b3ecf4a-attr-7-type" class="er entityLabel">integer</text><rect height="21" width="78.69644165039062" y="150" x="52.795379638671875" class="er attributeBoxOdd"/><text style="dominant-baseline: middle; font-size: 10.2px;" transform="translate(57.795379638671875,160.5)" y="0" x="0" id="text-entity-SpatialEntity-d1db85b5-1d94-5840-8e44-d9029b3ecf4a-attr-7-name" class="er entityLabel">rui_rank</text><rect height="21" width="52.795379638671875" y="171" x="0" class="er attributeBoxEven"/><text style="dominant-baseline: middle; font-size: 10.2px;" transform="translate(5,181.5)" y="0" x="0" id="text-entity-SpatialEntity-d1db85b5-1d94-5840-8e44-d9029b3ecf4a-attr-8-type" class="er entityLabel">uriorcurie</text><rect height="21" width="78.69644165039062" y="171" x="52.795379638671875" class="er attributeBoxEven"/><text style="dominant-baseline: middle; font-size: 10.2px;" transform="translate(57.795379638671875,181.5)" y="0" x="0" id="text-entity-SpatialEntity-d1db85b5-1d94-5840-8e44-d9029b3ecf4a-attr-8-name" class="er entityLabel">id</text><rect height="21" width="52.795379638671875" y="192" x="0" class="er attributeBoxOdd"/><text style="dominant-baseline: middle; font-size: 10.2px;" transform="translate(5,202.5)" y="0" x="0" id="text-entity-SpatialEntity-d1db85b5-1d94-5840-8e44-d9029b3ecf4a-attr-9-type" class="er entityLabel">string</text><rect height="21" width="78.69644165039062" y="192" x="52.795379638671875" class="er attributeBoxOdd"/><text style="dominant-baseline: middle; font-size: 10.2px;" transform="translate(57.795379638671875,202.5)" y="0" x="0" id="text-entity-SpatialEntity-d1db85b5-1d94-5840-8e44-d9029b3ecf4a-attr-9-name" class="er entityLabel">label</text></g><g transform="translate(567.7179260253906,1480 )" id="entity-Named-527792da-945b-57c2-aece-6a504f46f916"><rect height="66" width="100" y="0" x="0" class="er entityBox"/><text style="dominant-baseline: middle; text-anchor: middle; font-size: 12px;" transform="translate(50,12)" y="0" x="0" id="text-entity-Named-527792da-945b-57c2-aece-6a504f46f916" class="er entityLabel">Named</text><rect height="21" width="60.63206481933594" y="24" x="0" class="er attributeBoxOdd"/><text style="dominant-baseline: middle; font-size: 10.2px;" transform="translate(5,34.5)" y="0" x="0" id="text-entity-Named-527792da-945b-57c2-aece-6a504f46f916-attr-1-type" class="er entityLabel">uriorcurie</text><rect height="21" width="39.36793518066406" y="24" x="60.63206481933594" class="er attributeBoxOdd"/><text style="dominant-baseline: middle; font-size: 10.2px;" transform="translate(65.63206481933594,34.5)" y="0" x="0" id="text-entity-Named-527792da-945b-57c2-aece-6a504f46f916-attr-1-name" class="er entityLabel">id</text><rect height="21" width="60.63206481933594" y="45" x="0" class="er attributeBoxEven"/><text style="dominant-baseline: middle; font-size: 10.2px;" transform="translate(5,55.5)" y="0" x="0" id="text-entity-Named-527792da-945b-57c2-aece-6a504f46f916-attr-2-type" class="er entityLabel">string</text><rect height="21" width="39.36793518066406" y="45" x="60.63206481933594" class="er attributeBoxEven"/><text style="dominant-baseline: middle; font-size: 10.2px;" transform="translate(65.63206481933594,55.5)" y="0" x="0" id="text-entity-Named-527792da-945b-57c2-aece-6a504f46f916-attr-2-name" class="er entityLabel">label</text></g><g transform="translate(335.55381774902344,1041 )" id="entity-SpatialPlacement-346e1bb7-3014-5df7-8b75-dd9bd5f12664"><rect height="339" width="132.05889892578125" y="0" x="0" class="er entityBox"/><text style="dominant-baseline: middle; text-anchor: middle; font-size: 12px;" transform="translate(66.02944946289062,12)" y="0" x="0" id="text-entity-SpatialPlacement-346e1bb7-3014-5df7-8b75-dd9bd5f12664" class="er entityLabel">SpatialPlacement</text><rect height="21" width="52.795379638671875" y="24" x="0" class="er attributeBoxOdd"/><text style="dominant-baseline: middle; font-size: 10.2px;" transform="translate(5,34.5)" y="0" x="0" id="text-entity-SpatialPlacement-346e1bb7-3014-5df7-8b75-dd9bd5f12664-attr-1-type" class="er entityLabel">float</text><rect height="21" width="79.26351928710938" y="24" x="52.795379638671875" class="er attributeBoxOdd"/><text style="dominant-baseline: middle; font-size: 10.2px;" transform="translate(57.795379638671875,34.5)" y="0" x="0" id="text-entity-SpatialPlacement-346e1bb7-3014-5df7-8b75-dd9bd5f12664-attr-1-name" class="er entityLabel">x_scaling</text><rect height="21" width="52.795379638671875" y="45" x="0" class="er attributeBoxEven"/><text style="dominant-baseline: middle; font-size: 10.2px;" transform="translate(5,55.5)" y="0" x="0" id="text-entity-SpatialPlacement-346e1bb7-3014-5df7-8b75-dd9bd5f12664-attr-2-type" class="er entityLabel">float</text><rect height="21" width="79.26351928710938" y="45" x="52.795379638671875" class="er attributeBoxEven"/><text style="dominant-baseline: middle; font-size: 10.2px;" transform="translate(57.795379638671875,55.5)" y="0" x="0" id="text-entity-SpatialPlacement-346e1bb7-3014-5df7-8b75-dd9bd5f12664-attr-2-name" class="er entityLabel">y_scaling</text><rect height="21" width="52.795379638671875" y="66" x="0" class="er attributeBoxOdd"/><text style="dominant-baseline: middle; font-size: 10.2px;" transform="translate(5,76.5)" y="0" x="0" id="text-entity-SpatialPlacement-346e1bb7-3014-5df7-8b75-dd9bd5f12664-attr-3-type" class="er entityLabel">float</text><rect height="21" width="79.26351928710938" y="66" x="52.795379638671875" class="er attributeBoxOdd"/><text style="dominant-baseline: middle; font-size: 10.2px;" transform="translate(57.795379638671875,76.5)" y="0" x="0" id="text-entity-SpatialPlacement-346e1bb7-3014-5df7-8b75-dd9bd5f12664-attr-3-name" class="er entityLabel">z_scaling</text><rect height="21" width="52.795379638671875" y="87" x="0" class="er attributeBoxEven"/><text style="dominant-baseline: middle; font-size: 10.2px;" transform="translate(5,97.5)" y="0" x="0" id="text-entity-SpatialPlacement-346e1bb7-3014-5df7-8b75-dd9bd5f12664-attr-4-type" class="er entityLabel">string</text><rect height="21" width="79.26351928710938" y="87" x="52.795379638671875" class="er attributeBoxEven"/><text style="dominant-baseline: middle; font-size: 10.2px;" transform="translate(57.795379638671875,97.5)" y="0" x="0" id="text-entity-SpatialPlacement-346e1bb7-3014-5df7-8b75-dd9bd5f12664-attr-4-name" class="er entityLabel">scaling_unit</text><rect height="21" width="52.795379638671875" y="108" x="0" class="er attributeBoxOdd"/><text style="dominant-baseline: middle; font-size: 10.2px;" transform="translate(5,118.5)" y="0" x="0" id="text-entity-SpatialPlacement-346e1bb7-3014-5df7-8b75-dd9bd5f12664-attr-5-type" class="er entityLabel">float</text><rect height="21" width="79.26351928710938" y="108" x="52.795379638671875" class="er attributeBoxOdd"/><text style="dominant-baseline: middle; font-size: 10.2px;" transform="translate(57.795379638671875,118.5)" y="0" x="0" id="text-entity-SpatialPlacement-346e1bb7-3014-5df7-8b75-dd9bd5f12664-attr-5-name" class="er entityLabel">x_rotation</text><rect height="21" width="52.795379638671875" y="129" x="0" class="er attributeBoxEven"/><text style="dominant-baseline: middle; font-size: 10.2px;" transform="translate(5,139.5)" y="0" x="0" id="text-entity-SpatialPlacement-346e1bb7-3014-5df7-8b75-dd9bd5f12664-attr-6-type" class="er entityLabel">float</text><rect height="21" width="79.26351928710938" y="129" x="52.795379638671875" class="er attributeBoxEven"/><text style="dominant-baseline: middle; font-size: 10.2px;" transform="translate(57.795379638671875,139.5)" y="0" x="0" id="text-entity-SpatialPlacement-346e1bb7-3014-5df7-8b75-dd9bd5f12664-attr-6-name" class="er entityLabel">y_rotation</text><rect height="21" width="52.795379638671875" y="150" x="0" class="er attributeBoxOdd"/><text style="dominant-baseline: middle; font-size: 10.2px;" transform="translate(5,160.5)" y="0" x="0" id="text-entity-SpatialPlacement-346e1bb7-3014-5df7-8b75-dd9bd5f12664-attr-7-type" class="er entityLabel">float</text><rect height="21" width="79.26351928710938" y="150" x="52.795379638671875" class="er attributeBoxOdd"/><text style="dominant-baseline: middle; font-size: 10.2px;" transform="translate(57.795379638671875,160.5)" y="0" x="0" id="text-entity-SpatialPlacement-346e1bb7-3014-5df7-8b75-dd9bd5f12664-attr-7-name" class="er entityLabel">z_rotation</text><rect height="21" width="52.795379638671875" y="171" x="0" class="er attributeBoxEven"/><text style="dominant-baseline: middle; font-size: 10.2px;" transform="translate(5,181.5)" y="0" x="0" id="text-entity-SpatialPlacement-346e1bb7-3014-5df7-8b75-dd9bd5f12664-attr-8-type" class="er entityLabel">string</text><rect height="21" width="79.26351928710938" y="171" x="52.795379638671875" class="er attributeBoxEven"/><text style="dominant-baseline: middle; font-size: 10.2px;" transform="translate(57.795379638671875,181.5)" y="0" x="0" id="text-entity-SpatialPlacement-346e1bb7-3014-5df7-8b75-dd9bd5f12664-attr-8-name" class="er entityLabel">rotation_unit</text><rect height="21" width="52.795379638671875" y="192" x="0" class="er attributeBoxOdd"/><text style="dominant-baseline: middle; font-size: 10.2px;" transform="translate(5,202.5)" y="0" x="0" id="text-entity-SpatialPlacement-346e1bb7-3014-5df7-8b75-dd9bd5f12664-attr-9-type" class="er entityLabel">string</text><rect height="21" width="79.26351928710938" y="192" x="52.795379638671875" class="er attributeBoxOdd"/><text style="dominant-baseline: middle; font-size: 10.2px;" transform="translate(57.795379638671875,202.5)" y="0" x="0" id="text-entity-SpatialPlacement-346e1bb7-3014-5df7-8b75-dd9bd5f12664-attr-9-name" class="er entityLabel">rotation_order</text><rect height="21" width="52.795379638671875" y="213" x="0" class="er attributeBoxEven"/><text style="dominant-baseline: middle; font-size: 10.2px;" transform="translate(5,223.5)" y="0" x="0" id="text-entity-SpatialPlacement-346e1bb7-3014-5df7-8b75-dd9bd5f12664-attr-10-type" class="er entityLabel">float</text><rect height="21" width="79.26351928710938" y="213" x="52.795379638671875" class="er attributeBoxEven"/><text style="dominant-baseline: middle; font-size: 10.2px;" transform="translate(57.795379638671875,223.5)" y="0" x="0" id="text-entity-SpatialPlacement-346e1bb7-3014-5df7-8b75-dd9bd5f12664-attr-10-name" class="er entityLabel">x_translation</text><rect height="21" width="52.795379638671875" y="234" x="0" class="er attributeBoxOdd"/><text style="dominant-baseline: middle; font-size: 10.2px;" transform="translate(5,244.5)" y="0" x="0" id="text-entity-SpatialPlacement-346e1bb7-3014-5df7-8b75-dd9bd5f12664-attr-11-type" class="er entityLabel">float</text><rect height="21" width="79.26351928710938" y="234" x="52.795379638671875" class="er attributeBoxOdd"/><text style="dominant-baseline: middle; font-size: 10.2px;" transform="translate(57.795379638671875,244.5)" y="0" x="0" id="text-entity-SpatialPlacement-346e1bb7-3014-5df7-8b75-dd9bd5f12664-attr-11-name" class="er entityLabel">y_translation</text><rect height="21" width="52.795379638671875" y="255" x="0" class="er attributeBoxEven"/><text style="dominant-baseline: middle; font-size: 10.2px;" transform="translate(5,265.5)" y="0" x="0" id="text-entity-SpatialPlacement-346e1bb7-3014-5df7-8b75-dd9bd5f12664-attr-12-type" class="er entityLabel">float</text><rect height="21" width="79.26351928710938" y="255" x="52.795379638671875" class="er attributeBoxEven"/><text style="dominant-baseline: middle; font-size: 10.2px;" transform="translate(57.795379638671875,265.5)" y="0" x="0" id="text-entity-SpatialPlacement-346e1bb7-3014-5df7-8b75-dd9bd5f12664-attr-12-name" class="er entityLabel">z_translation</text><rect height="21" width="52.795379638671875" y="276" x="0" class="er attributeBoxOdd"/><text style="dominant-baseline: middle; font-size: 10.2px;" transform="translate(5,286.5)" y="0" x="0" id="text-entity-SpatialPlacement-346e1bb7-3014-5df7-8b75-dd9bd5f12664-attr-13-type" class="er entityLabel">string</text><rect height="21" width="79.26351928710938" y="276" x="52.795379638671875" class="er attributeBoxOdd"/><text style="dominant-baseline: middle; font-size: 10.2px;" transform="translate(57.795379638671875,286.5)" y="0" x="0" id="text-entity-SpatialPlacement-346e1bb7-3014-5df7-8b75-dd9bd5f12664-attr-13-name" class="er entityLabel">translation_unit</text><rect height="21" width="52.795379638671875" y="297" x="0" class="er attributeBoxEven"/><text style="dominant-baseline: middle; font-size: 10.2px;" transform="translate(5,307.5)" y="0" x="0" id="text-entity-SpatialPlacement-346e1bb7-3014-5df7-8b75-dd9bd5f12664-attr-14-type" class="er entityLabel">uriorcurie</text><rect height="21" width="79.26351928710938" y="297" x="52.795379638671875" class="er attributeBoxEven"/><text style="dominant-baseline: middle; font-size: 10.2px;" transform="translate(57.795379638671875,307.5)" y="0" x="0" id="text-entity-SpatialPlacement-346e1bb7-3014-5df7-8b75-dd9bd5f12664-attr-14-name" class="er entityLabel">id</text><rect height="21" width="52.795379638671875" y="318" x="0" class="er attributeBoxOdd"/><text style="dominant-baseline: middle; font-size: 10.2px;" transform="translate(5,328.5)" y="0" x="0" id="text-entity-SpatialPlacement-346e1bb7-3014-5df7-8b75-dd9bd5f12664-attr-15-type" class="er entityLabel">string</text><rect height="21" width="79.26351928710938" y="318" x="52.795379638671875" class="er attributeBoxOdd"/><text style="dominant-baseline: middle; font-size: 10.2px;" transform="translate(57.795379638671875,328.5)" y="0" x="0" id="text-entity-SpatialPlacement-346e1bb7-3014-5df7-8b75-dd9bd5f12664-attr-15-name" class="er entityLabel">label</text></g><g transform="translate(539.1856994628906,791 )" id="entity-SpatialObjectReference-d20666d8-ec01-5119-8567-c67f55a6b2e7"><rect height="150" width="157.064453125" y="0" x="0" class="er entityBox"/><text style="dominant-baseline: middle; text-anchor: middle; font-size: 12px;" transform="translate(78.5322265625,12)" y="0" x="0" id="text-entity-SpatialObjectReference-d20666d8-ec01-5119-8567-c67f55a6b2e7" class="er entityLabel">SpatialObjectReference</text><rect height="21" width="72.45335388183594" y="24" x="0" class="er attributeBoxOdd"/><text style="dominant-baseline: middle; font-size: 10.2px;" transform="translate(5,34.5)" y="0" x="0" id="text-entity-SpatialObjectReference-d20666d8-ec01-5119-8567-c67f55a6b2e7-attr-1-type" class="er entityLabel">string</text><rect height="21" width="84.61109924316406" y="24" x="72.45335388183594" class="er attributeBoxOdd"/><text style="dominant-baseline: middle; font-size: 10.2px;" transform="translate(77.45335388183594,34.5)" y="0" x="0" id="text-entity-SpatialObjectReference-d20666d8-ec01-5119-8567-c67f55a6b2e7-attr-1-name" class="er entityLabel">file_name</text><rect height="21" width="72.45335388183594" y="45" x="0" class="er attributeBoxEven"/><text style="dominant-baseline: middle; font-size: 10.2px;" transform="translate(5,55.5)" y="0" x="0" id="text-entity-SpatialObjectReference-d20666d8-ec01-5119-8567-c67f55a6b2e7-attr-2-type" class="er entityLabel">string</text><rect height="21" width="84.61109924316406" y="45" x="72.45335388183594" class="er attributeBoxEven"/><text style="dominant-baseline: middle; font-size: 10.2px;" transform="translate(77.45335388183594,55.5)" y="0" x="0" id="text-entity-SpatialObjectReference-d20666d8-ec01-5119-8567-c67f55a6b2e7-attr-2-name" class="er entityLabel">file_url</text><rect height="21" width="72.45335388183594" y="66" x="0" class="er attributeBoxOdd"/><text style="dominant-baseline: middle; font-size: 10.2px;" transform="translate(5,76.5)" y="0" x="0" id="text-entity-SpatialObjectReference-d20666d8-ec01-5119-8567-c67f55a6b2e7-attr-3-type" class="er entityLabel">string</text><rect height="21" width="84.61109924316406" y="66" x="72.45335388183594" class="er attributeBoxOdd"/><text style="dominant-baseline: middle; font-size: 10.2px;" transform="translate(77.45335388183594,76.5)" y="0" x="0" id="text-entity-SpatialObjectReference-d20666d8-ec01-5119-8567-c67f55a6b2e7-attr-3-name" class="er entityLabel">file_subpath</text><rect height="21" width="72.45335388183594" y="87" x="0" class="er attributeBoxEven"/><text style="dominant-baseline: middle; font-size: 10.2px;" transform="translate(5,97.5)" y="0" x="0" id="text-entity-SpatialObjectReference-d20666d8-ec01-5119-8567-c67f55a6b2e7-attr-4-type" class="er entityLabel">string</text><rect height="21" width="84.61109924316406" y="87" x="72.45335388183594" class="er attributeBoxEven"/><text style="dominant-baseline: middle; font-size: 10.2px;" transform="translate(77.45335388183594,97.5)" y="0" x="0" id="text-entity-SpatialObjectReference-d20666d8-ec01-5119-8567-c67f55a6b2e7-attr-4-name" class="er entityLabel">file_format</text><rect height="21" width="72.45335388183594" y="108" x="0" class="er attributeBoxOdd"/><text style="dominant-baseline: middle; font-size: 10.2px;" transform="translate(5,118.5)" y="0" x="0" id="text-entity-SpatialObjectReference-d20666d8-ec01-5119-8567-c67f55a6b2e7-attr-5-type" class="er entityLabel">uriorcurie</text><rect height="21" width="84.61109924316406" y="108" x="72.45335388183594" class="er attributeBoxOdd"/><text style="dominant-baseline: middle; font-size: 10.2px;" transform="translate(77.45335388183594,118.5)" y="0" x="0" id="text-entity-SpatialObjectReference-d20666d8-ec01-5119-8567-c67f55a6b2e7-attr-5-name" class="er entityLabel">id</text><rect height="21" width="72.45335388183594" y="129" x="0" class="er attributeBoxEven"/><text style="dominant-baseline: middle; font-size: 10.2px;" transform="translate(5,139.5)" y="0" x="0" id="text-entity-SpatialObjectReference-d20666d8-ec01-5119-8567-c67f55a6b2e7-attr-6-type" class="er entityLabel">string</text><rect height="21" width="84.61109924316406" y="129" x="72.45335388183594" class="er attributeBoxEven"/><text style="dominant-baseline: middle; font-size: 10.2px;" transform="translate(77.45335388183594,139.5)" y="0" x="0" id="text-entity-SpatialObjectReference-d20666d8-ec01-5119-8567-c67f55a6b2e7-attr-6-name" class="er entityLabel">label</text></g><g transform="translate(20,822.5 )" id="entity-Creator-22c37820-830e-5050-9ef7-2120deecbdf9"><rect height="87" width="119.18569946289062" y="0" x="0" class="er entityBox"/><text style="dominant-baseline: middle; text-anchor: middle; font-size: 12px;" transform="translate(59.59284973144531,12)" y="0" x="0" id="text-entity-Creator-22c37820-830e-5050-9ef7-2120deecbdf9" class="er entityLabel">Creator</text><rect height="21" width="52.795379638671875" y="24" x="0" class="er attributeBoxOdd"/><text style="dominant-baseline: middle; font-size: 10.2px;" transform="translate(5,34.5)" y="0" x="0" id="text-entity-Creator-22c37820-830e-5050-9ef7-2120deecbdf9-attr-1-type" class="er entityLabel">string</text><rect height="21" width="66.39031982421875" y="24" x="52.795379638671875" class="er attributeBoxOdd"/><text style="dominant-baseline: middle; font-size: 10.2px;" transform="translate(57.795379638671875,34.5)" y="0" x="0" id="text-entity-Creator-22c37820-830e-5050-9ef7-2120deecbdf9-attr-1-name" class="er entityLabel">conforms_to</text><rect height="21" width="52.795379638671875" y="45" x="0" class="er attributeBoxEven"/><text style="dominant-baseline: middle; font-size: 10.2px;" transform="translate(5,55.5)" y="0" x="0" id="text-entity-Creator-22c37820-830e-5050-9ef7-2120deecbdf9-attr-2-type" class="er entityLabel">uriorcurie</text><rect height="21" width="66.39031982421875" y="45" x="52.795379638671875" class="er attributeBoxEven"/><text style="dominant-baseline: middle; font-size: 10.2px;" transform="translate(57.795379638671875,55.5)" y="0" x="0" id="text-entity-Creator-22c37820-830e-5050-9ef7-2120deecbdf9-attr-2-name" class="er entityLabel">id</text><rect height="21" width="52.795379638671875" y="66" x="0" class="er attributeBoxOdd"/><text style="dominant-baseline: middle; font-size: 10.2px;" transform="translate(5,76.5)" y="0" x="0" id="text-entity-Creator-22c37820-830e-5050-9ef7-2120deecbdf9-attr-3-type" class="er entityLabel">string</text><rect height="21" width="66.39031982421875" y="66" x="52.795379638671875" class="er attributeBoxOdd"/><text style="dominant-baseline: middle; font-size: 10.2px;" transform="translate(57.795379638671875,76.5)" y="0" x="0" id="text-entity-Creator-22c37820-830e-5050-9ef7-2120deecbdf9-attr-3-name" class="er entityLabel">label</text></g><g transform="translate(996.2501525878906,1146 )" id="entity-ExtractionSet-36c25d42-40a1-50db-ad03-0979e3be5d88"><rect height="129" width="144.38055419921875" y="0" x="0" class="er entityBox"/><text style="dominant-baseline: middle; text-anchor: middle; font-size: 12px;" transform="translate(72.19027709960938,12)" y="0" x="0" id="text-entity-ExtractionSet-36c25d42-40a1-50db-ad03-0979e3be5d88" class="er entityLabel">ExtractionSet</text><rect height="21" width="52.795379638671875" y="24" x="0" class="er attributeBoxOdd"/><text style="dominant-baseline: middle; font-size: 10.2px;" transform="translate(5,34.5)" y="0" x="0" id="text-entity-ExtractionSet-36c25d42-40a1-50db-ad03-0979e3be5d88-attr-1-type" class="er entityLabel">string</text><rect height="21" width="91.58517456054688" y="24" x="52.795379638671875" class="er attributeBoxOdd"/><text style="dominant-baseline: middle; font-size: 10.2px;" transform="translate(57.795379638671875,34.5)" y="0" x="0" id="text-entity-ExtractionSet-36c25d42-40a1-50db-ad03-0979e3be5d88-attr-1-name" class="er entityLabel">pref_label</text><rect height="21" width="52.795379638671875" y="45" x="0" class="er attributeBoxEven"/><text style="dominant-baseline: middle; font-size: 10.2px;" transform="translate(5,55.5)" y="0" x="0" id="text-entity-ExtractionSet-36c25d42-40a1-50db-ad03-0979e3be5d88-attr-2-type" class="er entityLabel">uriorcurie</text><rect height="21" width="91.58517456054688" y="45" x="52.795379638671875" class="er attributeBoxEven"/><text style="dominant-baseline: middle; font-size: 10.2px;" transform="translate(57.795379638671875,55.5)" y="0" x="0" id="text-entity-ExtractionSet-36c25d42-40a1-50db-ad03-0979e3be5d88-attr-2-name" class="er entityLabel">extraction_set_for</text><rect height="21" width="52.795379638671875" y="66" x="0" class="er attributeBoxOdd"/><text style="dominant-baseline: middle; font-size: 10.2px;" transform="translate(5,76.5)" y="0" x="0" id="text-entity-ExtractionSet-36c25d42-40a1-50db-ad03-0979e3be5d88-attr-3-type" class="er entityLabel">integer</text><rect height="21" width="91.58517456054688" y="66" x="52.795379638671875" class="er attributeBoxOdd"/><text style="dominant-baseline: middle; font-size: 10.2px;" transform="translate(57.795379638671875,76.5)" y="0" x="0" id="text-entity-ExtractionSet-36c25d42-40a1-50db-ad03-0979e3be5d88-attr-3-name" class="er entityLabel">rui_rank</text><rect height="21" width="52.795379638671875" y="87" x="0" class="er attributeBoxEven"/><text style="dominant-baseline: middle; font-size: 10.2px;" transform="translate(5,97.5)" y="0" x="0" id="text-entity-ExtractionSet-36c25d42-40a1-50db-ad03-0979e3be5d88-attr-4-type" class="er entityLabel">uriorcurie</text><rect height="21" width="91.58517456054688" y="87" x="52.795379638671875" class="er attributeBoxEven"/><text style="dominant-baseline: middle; font-size: 10.2px;" transform="translate(57.795379638671875,97.5)" y="0" x="0" id="text-entity-ExtractionSet-36c25d42-40a1-50db-ad03-0979e3be5d88-attr-4-name" class="er entityLabel">id</text><rect height="21" width="52.795379638671875" y="108" x="0" class="er attributeBoxOdd"/><text style="dominant-baseline: middle; font-size: 10.2px;" transform="translate(5,118.5)" y="0" x="0" id="text-entity-ExtractionSet-36c25d42-40a1-50db-ad03-0979e3be5d88-attr-5-type" class="er entityLabel">string</text><rect height="21" width="91.58517456054688" y="108" x="52.795379638671875" class="er attributeBoxOdd"/><text style="dominant-baseline: middle; font-size: 10.2px;" transform="translate(57.795379638671875,118.5)" y="0" x="0" id="text-entity-ExtractionSet-36c25d42-40a1-50db-ad03-0979e3be5d88-attr-5-name" class="er entityLabel">label</text></g><g transform="translate(808.3306427001953,165 )" id="entity-LandmarkMetadata-aa1bb4ff-0edb-5d5e-ba87-4e2a0bc331a3"><rect height="213" width="140.55511474609375" y="0" x="0" class="er entityBox"/><text style="dominant-baseline: middle; text-anchor: middle; font-size: 12px;" transform="translate(70.27755737304688,12)" y="0" x="0" id="text-entity-LandmarkMetadata-aa1bb4ff-0edb-5d5e-ba87-4e2a0bc331a3" class="er entityLabel">LandmarkMetadata</text><rect height="21" width="68.48406982421875" y="24" x="0" class="er attributeBoxOdd"/><text style="dominant-baseline: middle; font-size: 10.2px;" transform="translate(5,34.5)" y="0" x="0" id="text-entity-LandmarkMetadata-aa1bb4ff-0edb-5d5e-ba87-4e2a0bc331a3-attr-1-type" class="er entityLabel">string</text><rect height="21" width="72.071044921875" y="24" x="68.48406982421875" class="er attributeBoxOdd"/><text style="dominant-baseline: middle; font-size: 10.2px;" transform="translate(73.48406982421875,34.5)" y="0" x="0" id="text-entity-LandmarkMetadata-aa1bb4ff-0edb-5d5e-ba87-4e2a0bc331a3-attr-1-name" class="er entityLabel">title</text><rect height="21" width="68.48406982421875" y="45" x="0" class="er attributeBoxEven"/><text style="dominant-baseline: middle; font-size: 10.2px;" transform="translate(5,55.5)" y="0" x="0" id="text-entity-LandmarkMetadata-aa1bb4ff-0edb-5d5e-ba87-4e2a0bc331a3-attr-2-type" class="er entityLabel">string</text><rect height="21" width="72.071044921875" y="45" x="68.48406982421875" class="er attributeBoxEven"/><text style="dominant-baseline: middle; font-size: 10.2px;" transform="translate(73.48406982421875,55.5)" y="0" x="0" id="text-entity-LandmarkMetadata-aa1bb4ff-0edb-5d5e-ba87-4e2a0bc331a3-attr-2-name" class="er entityLabel">description</text><rect height="21" width="68.48406982421875" y="66" x="0" class="er attributeBoxOdd"/><text style="dominant-baseline: middle; font-size: 10.2px;" transform="translate(5,76.5)" y="0" x="0" id="text-entity-LandmarkMetadata-aa1bb4ff-0edb-5d5e-ba87-4e2a0bc331a3-attr-3-type" class="er entityLabel">uriorcurieList</text><rect height="21" width="72.071044921875" y="66" x="68.48406982421875" class="er attributeBoxOdd"/><text style="dominant-baseline: middle; font-size: 10.2px;" transform="translate(73.48406982421875,76.5)" y="0" x="0" id="text-entity-LandmarkMetadata-aa1bb4ff-0edb-5d5e-ba87-4e2a0bc331a3-attr-3-name" class="er entityLabel">created_by</text><rect height="21" width="68.48406982421875" y="87" x="0" class="er attributeBoxEven"/><text style="dominant-baseline: middle; font-size: 10.2px;" transform="translate(5,97.5)" y="0" x="0" id="text-entity-LandmarkMetadata-aa1bb4ff-0edb-5d5e-ba87-4e2a0bc331a3-attr-4-type" class="er entityLabel">string</text><rect height="21" width="72.071044921875" y="87" x="68.48406982421875" class="er attributeBoxEven"/><text style="dominant-baseline: middle; font-size: 10.2px;" transform="translate(73.48406982421875,97.5)" y="0" x="0" id="text-entity-LandmarkMetadata-aa1bb4ff-0edb-5d5e-ba87-4e2a0bc331a3-attr-4-name" class="er entityLabel">creation_date</text><rect height="21" width="68.48406982421875" y="108" x="0" class="er attributeBoxOdd"/><text style="dominant-baseline: middle; font-size: 10.2px;" transform="translate(5,118.5)" y="0" x="0" id="text-entity-LandmarkMetadata-aa1bb4ff-0edb-5d5e-ba87-4e2a0bc331a3-attr-5-type" class="er entityLabel">string</text><rect height="21" width="72.071044921875" y="108" x="68.48406982421875" class="er attributeBoxOdd"/><text style="dominant-baseline: middle; font-size: 10.2px;" transform="translate(73.48406982421875,118.5)" y="0" x="0" id="text-entity-LandmarkMetadata-aa1bb4ff-0edb-5d5e-ba87-4e2a0bc331a3-attr-5-name" class="er entityLabel">version</text><rect height="21" width="68.48406982421875" y="129" x="0" class="er attributeBoxEven"/><text style="dominant-baseline: middle; font-size: 10.2px;" transform="translate(5,139.5)" y="0" x="0" id="text-entity-LandmarkMetadata-aa1bb4ff-0edb-5d5e-ba87-4e2a0bc331a3-attr-6-type" class="er entityLabel">string</text><rect height="21" width="72.071044921875" y="129" x="68.48406982421875" class="er attributeBoxEven"/><text style="dominant-baseline: middle; font-size: 10.2px;" transform="translate(73.48406982421875,139.5)" y="0" x="0" id="text-entity-LandmarkMetadata-aa1bb4ff-0edb-5d5e-ba87-4e2a0bc331a3-attr-6-name" class="er entityLabel">license</text><rect height="21" width="68.48406982421875" y="150" x="0" class="er attributeBoxOdd"/><text style="dominant-baseline: middle; font-size: 10.2px;" transform="translate(5,160.5)" y="0" x="0" id="text-entity-LandmarkMetadata-aa1bb4ff-0edb-5d5e-ba87-4e2a0bc331a3-attr-7-type" class="er entityLabel">string</text><rect height="21" width="72.071044921875" y="150" x="68.48406982421875" class="er attributeBoxOdd"/><text style="dominant-baseline: middle; font-size: 10.2px;" transform="translate(73.48406982421875,160.5)" y="0" x="0" id="text-entity-LandmarkMetadata-aa1bb4ff-0edb-5d5e-ba87-4e2a0bc331a3-attr-7-name" class="er entityLabel">publisher</text><rect height="21" width="68.48406982421875" y="171" x="0" class="er attributeBoxEven"/><text style="dominant-baseline: middle; font-size: 10.2px;" transform="translate(5,181.5)" y="0" x="0" id="text-entity-LandmarkMetadata-aa1bb4ff-0edb-5d5e-ba87-4e2a0bc331a3-attr-8-type" class="er entityLabel">uriorcurie</text><rect height="21" width="72.071044921875" y="171" x="68.48406982421875" class="er attributeBoxEven"/><text style="dominant-baseline: middle; font-size: 10.2px;" transform="translate(73.48406982421875,181.5)" y="0" x="0" id="text-entity-LandmarkMetadata-aa1bb4ff-0edb-5d5e-ba87-4e2a0bc331a3-attr-8-name" class="er entityLabel">see_also</text><rect height="21" width="68.48406982421875" y="192" x="0" class="er attributeBoxOdd"/><text style="dominant-baseline: middle; font-size: 10.2px;" transform="translate(5,202.5)" y="0" x="0" id="text-entity-LandmarkMetadata-aa1bb4ff-0edb-5d5e-ba87-4e2a0bc331a3-attr-9-type" class="er entityLabel">uriorcurie</text><rect height="21" width="72.071044921875" y="192" x="68.48406982421875" class="er attributeBoxOdd"/><text style="dominant-baseline: middle; font-size: 10.2px;" transform="translate(73.48406982421875,202.5)" y="0" x="0" id="text-entity-LandmarkMetadata-aa1bb4ff-0edb-5d5e-ba87-4e2a0bc331a3-attr-9-name" class="er entityLabel">derived_from</text></g><rect height="14" width="50.359375" y="97.30510711669922" x="830.6119995117188" class="er relationshipLabelBox"/><text style="text-anchor: middle; dominant-baseline: middle; font-size: 12px;" y="104.30510711669922" x="855.7916870117188" id="rel1" class="er relationshipLabel">metadata</text><rect height="14" width="23.681640625" y="128.08944702148438" x="651.451416015625" class="er relationshipLabelBox"/><text style="text-anchor: middle; dominant-baseline: middle; font-size: 12px;" y="135.08944702148438" x="663.292236328125" id="rel2" class="er relationshipLabel">data</text><rect height="14" width="55.359375" y="606.3723754882812" x="1040.76025390625" class="er relationshipLabelBox"/><text style="text-anchor: middle; dominant-baseline: middle; font-size: 12px;" y="613.3723754882812" x="1068.43994140625" id="rel3" class="er relationshipLabel">landmarks</text><rect height="14" width="79.390625" y="363.55914306640625" x="397.5154113769531" class="er relationshipLabelBox"/><text style="text-anchor: middle; dominant-baseline: middle; font-size: 12px;" y="370.55914306640625" x="437.2107238769531" id="rel4" class="er relationshipLabel">spatial_entities</text><rect height="14" width="43.359375" y="701.4071044921875" x="112.42437744140625" class="er relationshipLabelBox"/><text style="text-anchor: middle; dominant-baseline: middle; font-size: 12px;" y="708.4071044921875" x="134.10406494140625" id="rel5" class="er relationshipLabel">creators</text><rect height="14" width="89.716796875" y="681.8818359375" x="465.76666259765625" class="er relationshipLabelBox"/><text style="text-anchor: middle; dominant-baseline: middle; font-size: 12px;" y="688.8818359375" x="510.62506103515625" id="rel6" class="er relationshipLabel">object_reference</text><rect height="14" width="61.375" y="910.2495727539062" x="209.6023406982422" class="er relationshipLabelBox"/><text style="text-anchor: middle; dominant-baseline: middle; font-size: 12px;" y="917.2495727539062" x="240.2898406982422" id="rel7" class="er relationshipLabel">placements</text><rect height="14" width="40.029296875" y="1207.1488037109375" x="-100.01289367675781" class="er relationshipLabelBox"/><text style="text-anchor: middle; dominant-baseline: middle; font-size: 12px;" y="1214.1488037109375" x="-79.99824523925781" id="rel8" class="er relationshipLabel">type_of</text><rect height="14" width="36.34375" y="835.5123901367188" x="420.9390869140625" class="er relationshipLabelBox"/><text style="text-anchor: middle; dominant-baseline: middle; font-size: 12px;" y="842.5123901367188" x="439.1109619140625" id="rel9" class="er relationshipLabel">source</text><rect height="14" width="31.3515625" y="830.2723388671875" x="779.7169189453125" class="er relationshipLabelBox"/><text style="text-anchor: middle; dominant-baseline: middle; font-size: 12px;" y="837.2723388671875" x="795.3927001953125" id="rel10" class="er relationshipLabel">target</text><rect height="14" width="40.029296875" y="1446.5255126953125" x="448.3114013671875" class="er relationshipLabelBox"/><text style="text-anchor: middle; dominant-baseline: middle; font-size: 12px;" y="1453.5255126953125" x="468.3260498046875" id="rel11" class="er relationshipLabel">type_of</text><rect height="14" width="56.03125" y="947.2755126953125" x="397.4212646484375" class="er relationshipLabelBox"/><text style="text-anchor: middle; dominant-baseline: middle; font-size: 12px;" y="954.2755126953125" x="425.4368896484375" id="rel12" class="er relationshipLabel">placement</text><rect height="14" width="40.029296875" y="1208.646240234375" x="876.2318725585938" class="er relationshipLabelBox"/><text style="text-anchor: middle; dominant-baseline: middle; font-size: 12px;" y="1215.646240234375" x="896.2465209960938" id="rel13" class="er relationshipLabel">type_of</text><rect height="14" width="40.029296875" y="1442.7906494140625" x="898.6572265625" class="er relationshipLabelBox"/><text style="text-anchor: middle; dominant-baseline: middle; font-size: 12px;" y="1449.7906494140625" x="918.671875" id="rel14" class="er relationshipLabel">type_of</text></svg>