<svg aria-roledescription="er" role="graphics-document document" viewBox="0 0 418.2840576171875 778" style="max-width: 418.284px; background-color: transparent;" xmlns:xlink="http://www.w3.org/1999/xlink" xmlns="http://www.w3.org/2000/svg" width="100%" id="my-svg"><style>#my-svg{font-family:"trebuchet ms",verdana,arial,sans-serif;font-size:16px;fill:#333;}#my-svg .error-icon{fill:#552222;}#my-svg .error-text{fill:#552222;stroke:#552222;}#my-svg .edge-thickness-normal{stroke-width:1px;}#my-svg .edge-thickness-thick{stroke-width:3.5px;}#my-svg .edge-pattern-solid{stroke-dasharray:0;}#my-svg .edge-thickness-invisible{stroke-width:0;fill:none;}#my-svg .edge-pattern-dashed{stroke-dasharray:3;}#my-svg .edge-pattern-dotted{stroke-dasharray:2;}#my-svg .marker{fill:#333333;stroke:#333333;}#my-svg .marker.cross{stroke:#333333;}#my-svg svg{font-family:"trebuchet ms",verdana,arial,sans-serif;font-size:16px;}#my-svg p{margin:0;}#my-svg .entityBox{fill:#ECECFF;stroke:#9370DB;}#my-svg .attributeBoxOdd{fill:#ffffff;stroke:#9370DB;}#my-svg .attributeBoxEven{fill:#f2f2f2;stroke:#9370DB;}#my-svg .relationshipLabelBox{fill:hsl(80, 100%, 96.2745098039%);opacity:0.7;background-color:hsl(80, 100%, 96.2745098039%);}#my-svg .relationshipLabelBox rect{opacity:0.5;}#my-svg .relationshipLine{stroke:#333333;}#my-svg .entityTitleText{text-anchor:middle;font-size:18px;fill:#333;}#my-svg #MD_PARENT_START{fill:#f5f5f5!important;stroke:#333333!important;stroke-width:1;}#my-svg #MD_PARENT_END{fill:#f5f5f5!important;stroke:#333333!important;stroke-width:1;}#my-svg :root{--mermaid-font-family:"trebuchet ms",verdana,arial,sans-serif;}</style><g/><defs><marker orient="auto" markerHeight="240" markerWidth="190" refY="7" refX="0" id="MD_PARENT_START"><path d="M 18,7 L9,13 L1,7 L9,1 Z"/></marker></defs><defs><marker orient="auto" markerHeight="28" markerWidth="20" refY="7" refX="19" id="MD_PARENT_END"><path d="M 18,7 L9,13 L1,7 L9,1 Z"/></marker></defs><defs><marker orient="auto" markerHeight="18" markerWidth="18" refY="9" refX="0" id="ONLY_ONE_START"><path d="M9,0 L9,18 M15,0 L15,18" fill="none" stroke="gray"/></marker></defs><defs><marker orient="auto" markerHeight="18" markerWidth="18" refY="9" refX="18" id="ONLY_ONE_END"><path d="M3,0 L3,18 M9,0 L9,18" fill="none" stroke="gray"/></marker></defs><defs><marker orient="auto" markerHeight="18" markerWidth="30" refY="9" refX="0" id="ZERO_OR_ONE_START"><circle r="6" cy="9" cx="21" fill="white" stroke="gray"/><path d="M9,0 L9,18" fill="none" stroke="gray"/></marker></defs><defs><marker orient="auto" markerHeight="18" markerWidth="30" refY="9" refX="30" id="ZERO_OR_ONE_END"><circle r="6" cy="9" cx="9" fill="white" stroke="gray"/><path d="M21,0 L21,18" fill="none" stroke="gray"/></marker></defs><defs><marker orient="auto" markerHeight="36" markerWidth="45" refY="18" refX="18" id="ONE_OR_MORE_START"><path d="M0,18 Q 18,0 36,18 Q 18,36 0,18 M42,9 L42,27" fill="none" stroke="gray"/></marker></defs><defs><marker orient="auto" markerHeight="36" markerWidth="45" refY="18" refX="27" id="ONE_OR_MORE_END"><path d="M3,9 L3,27 M9,18 Q27,0 45,18 Q27,36 9,18" fill="none" stroke="gray"/></marker></defs><defs><marker orient="auto" markerHeight="36" markerWidth="57" refY="18" refX="18" id="ZERO_OR_MORE_START"><circle r="6" cy="18" cx="48" fill="white" stroke="gray"/><path d="M0,18 Q18,0 36,18 Q18,36 0,18" fill="none" stroke="gray"/></marker></defs><defs><marker orient="auto" markerHeight="36" markerWidth="57" refY="18" refX="39" id="ZERO_OR_MORE_END"><circle r="6" cy="18" cx="9" fill="white" stroke="gray"/><path d="M21,18 Q39,0 57,18 Q39,36 21,18" fill="none" stroke="gray"/></marker></defs><path style="stroke: gray; fill: none;" marker-start="url(#ONLY_ONE_START)" marker-end="url(#ZERO_OR_ONE_END)" d="M237.896,65L251.586,73.333C265.277,81.667,292.659,98.333,306.35,115C320.04,131.667,320.04,148.333,320.04,156.667L320.04,165" class="er relationshipLine"/><path style="stroke: gray; fill: none;" marker-start="url(#ONLY_ONE_START)" marker-end="url(#ZERO_OR_ONE_END)" d="M163.965,65L150.274,73.333C136.584,81.667,109.202,98.333,95.511,120.417C81.82,142.5,81.82,170,81.82,183.75L81.82,197.5" class="er relationshipLine"/><path style="stroke: gray; fill: none;" marker-start="url(#ONLY_ONE_START)" marker-end="url(#ZERO_OR_MORE_END)" d="M81.82,349.5L81.82,363.25C81.82,377,81.82,404.5,81.82,426.583C81.82,448.667,81.82,465.333,81.82,473.667L81.82,482" class="er relationshipLine"/><path style="stroke: gray; fill: none;" marker-start="url(#ONLY_ONE_START)" marker-end="url(#ZERO_OR_MORE_END)" d="M81.82,592L81.82,600.333C81.82,608.667,81.82,625.333,81.82,642C81.82,658.667,81.82,675.333,81.82,683.667L81.82,692" class="er relationshipLine"/><g transform="translate(150.93038940429688,20 )" id="entity-Container-bc34fb32-8a75-5b81-936b-92374bf40296"><rect height="45" width="100" y="0" x="0" class="er entityBox"/><text style="dominant-baseline: middle; text-anchor: middle; font-size: 12px;" transform="translate(50,12)" y="0" x="0" id="text-entity-Container-bc34fb32-8a75-5b81-936b-92374bf40296" class="er entityLabel">Container</text><rect height="21" width="69.5859375" y="24" x="0" class="er attributeBoxOdd"/><text style="dominant-baseline: middle; font-size: 10.2px;" transform="translate(5,34.5)" y="0" x="0" id="text-entity-Container-bc34fb32-8a75-5b81-936b-92374bf40296-attr-1-type" class="er entityLabel">uriorcurie</text><rect height="21" width="30.4140625" y="24" x="69.5859375" class="er attributeBoxOdd"/><text style="dominant-baseline: middle; font-size: 10.2px;" transform="translate(74.5859375,34.5)" y="0" x="0" id="text-entity-Container-bc34fb32-8a75-5b81-936b-92374bf40296-attr-1-name" class="er entityLabel">iri</text></g><g transform="translate(21.84375,197.5 )" id="entity-CorridorData-7a58881f-433f-5688-9ea0-39a6a2693fb1"><rect height="152" width="119.953125" y="0" x="0" class="er entityBox"/><text style="dominant-baseline: middle; text-anchor: middle; font-size: 12px;" transform="translate(59.9765625,12)" y="0" x="0" id="text-entity-CorridorData-7a58881f-433f-5688-9ea0-39a6a2693fb1" class="er entityLabel">CorridorData</text><rect height="21" width="39.25" y="24" x="0" class="er attributeBoxOdd"/><text style="dominant-baseline: middle; font-size: 10.2px;" transform="translate(5,34.5)" y="0" x="0" id="text-entity-CorridorData-7a58881f-433f-5688-9ea0-39a6a2693fb1-attr-1-type" class="er entityLabel">string</text><rect height="21" width="80.703125" y="24" x="39.25" class="er attributeBoxOdd"/><text style="dominant-baseline: middle; font-size: 10.2px;" transform="translate(44.25,34.5)" y="0" x="0" id="text-entity-CorridorData-7a58881f-433f-5688-9ea0-39a6a2693fb1-attr-1-name" class="er entityLabel">donor</text><rect height="21" width="39.25" y="45" x="0" class="er attributeBoxEven"/><text style="dominant-baseline: middle; font-size: 10.2px;" transform="translate(5,55.5)" y="0" x="0" id="text-entity-CorridorData-7a58881f-433f-5688-9ea0-39a6a2693fb1-attr-2-type" class="er entityLabel">string</text><rect height="21" width="80.703125" y="45" x="39.25" class="er attributeBoxEven"/><text style="dominant-baseline: middle; font-size: 10.2px;" transform="translate(44.25,55.5)" y="0" x="0" id="text-entity-CorridorData-7a58881f-433f-5688-9ea0-39a6a2693fb1-attr-2-name" class="er entityLabel">sample</text><rect height="21" width="39.25" y="66" x="0" class="er attributeBoxOdd"/><text style="dominant-baseline: middle; font-size: 10.2px;" transform="translate(5,76.5)" y="0" x="0" id="text-entity-CorridorData-7a58881f-433f-5688-9ea0-39a6a2693fb1-attr-3-type" class="er entityLabel">string</text><rect height="21" width="80.703125" y="66" x="39.25" class="er attributeBoxOdd"/><text style="dominant-baseline: middle; font-size: 10.2px;" transform="translate(44.25,76.5)" y="0" x="0" id="text-entity-CorridorData-7a58881f-433f-5688-9ea0-39a6a2693fb1-attr-3-name" class="er entityLabel">dataset</text><rect height="22" width="39.25" y="87" x="0" class="er attributeBoxEven"/><text style="dominant-baseline: middle; font-size: 10.2px;" transform="translate(5,98)" y="0" x="0" id="text-entity-CorridorData-7a58881f-433f-5688-9ea0-39a6a2693fb1-attr-4-type" class="er entityLabel">string</text><rect height="22" width="80.703125" y="87" x="39.25" class="er attributeBoxEven"/><text style="dominant-baseline: middle; font-size: 10.2px;" transform="translate(44.25,98)" y="0" x="0" id="text-entity-CorridorData-7a58881f-433f-5688-9ea0-39a6a2693fb1-attr-4-name" class="er entityLabel">spatial_entity</text><rect height="22" width="39.25" y="109" x="0" class="er attributeBoxOdd"/><text style="dominant-baseline: middle; font-size: 10.2px;" transform="translate(5,120)" y="0" x="0" id="text-entity-CorridorData-7a58881f-433f-5688-9ea0-39a6a2693fb1-attr-5-type" class="er entityLabel">string</text><rect height="22" width="80.703125" y="109" x="39.25" class="er attributeBoxOdd"/><text style="dominant-baseline: middle; font-size: 10.2px;" transform="translate(44.25,120)" y="0" x="0" id="text-entity-CorridorData-7a58881f-433f-5688-9ea0-39a6a2693fb1-attr-5-name" class="er entityLabel">cell_summary</text><rect height="21" width="39.25" y="131" x="0" class="er attributeBoxEven"/><text style="dominant-baseline: middle; font-size: 10.2px;" transform="translate(5,141.5)" y="0" x="0" id="text-entity-CorridorData-7a58881f-433f-5688-9ea0-39a6a2693fb1-attr-6-type" class="er entityLabel">string</text><rect height="21" width="80.703125" y="131" x="39.25" class="er attributeBoxEven"/><text style="dominant-baseline: middle; font-size: 10.2px;" transform="translate(44.25,141.5)" y="0" x="0" id="text-entity-CorridorData-7a58881f-433f-5688-9ea0-39a6a2693fb1-attr-6-name" class="er entityLabel">collision</text></g><g transform="translate(20,482 )" id="entity-Corridor-5402e022-3193-51f7-9660-85d7cf15a714"><rect height="110" width="123.640625" y="0" x="0" class="er entityBox"/><text style="dominant-baseline: middle; text-anchor: middle; font-size: 12px;" transform="translate(61.8203125,12)" y="0" x="0" id="text-entity-Corridor-5402e022-3193-51f7-9660-85d7cf15a714" class="er entityLabel">Corridor</text><rect height="22" width="59.03125" y="24" x="0" class="er attributeBoxOdd"/><text style="dominant-baseline: middle; font-size: 10.2px;" transform="translate(5,35)" y="0" x="0" id="text-entity-Corridor-5402e022-3193-51f7-9660-85d7cf15a714-attr-1-type" class="er entityLabel">string</text><rect height="22" width="64.609375" y="24" x="59.03125" class="er attributeBoxOdd"/><text style="dominant-baseline: middle; font-size: 10.2px;" transform="translate(64.03125,35)" y="0" x="0" id="text-entity-Corridor-5402e022-3193-51f7-9660-85d7cf15a714-attr-1-name" class="er entityLabel">file_format</text><rect height="22" width="59.03125" y="46" x="0" class="er attributeBoxEven"/><text style="dominant-baseline: middle; font-size: 10.2px;" transform="translate(5,57)" y="0" x="0" id="text-entity-Corridor-5402e022-3193-51f7-9660-85d7cf15a714-attr-2-type" class="er entityLabel">string</text><rect height="22" width="64.609375" y="46" x="59.03125" class="er attributeBoxEven"/><text style="dominant-baseline: middle; font-size: 10.2px;" transform="translate(64.03125,57)" y="0" x="0" id="text-entity-Corridor-5402e022-3193-51f7-9660-85d7cf15a714-attr-2-name" class="er entityLabel">file_url</text><rect height="21" width="59.03125" y="68" x="0" class="er attributeBoxOdd"/><text style="dominant-baseline: middle; font-size: 10.2px;" transform="translate(5,78.5)" y="0" x="0" id="text-entity-Corridor-5402e022-3193-51f7-9660-85d7cf15a714-attr-3-type" class="er entityLabel">uriorcurie</text><rect height="21" width="64.609375" y="68" x="59.03125" class="er attributeBoxOdd"/><text style="dominant-baseline: middle; font-size: 10.2px;" transform="translate(64.03125,78.5)" y="0" x="0" id="text-entity-Corridor-5402e022-3193-51f7-9660-85d7cf15a714-attr-3-name" class="er entityLabel">id</text><rect height="21" width="59.03125" y="89" x="0" class="er attributeBoxEven"/><text style="dominant-baseline: middle; font-size: 10.2px;" transform="translate(5,99.5)" y="0" x="0" id="text-entity-Corridor-5402e022-3193-51f7-9660-85d7cf15a714-attr-4-type" class="er entityLabel">string</text><rect height="21" width="64.609375" y="89" x="59.03125" class="er attributeBoxEven"/><text style="dominant-baseline: middle; font-size: 10.2px;" transform="translate(64.03125,99.5)" y="0" x="0" id="text-entity-Corridor-5402e022-3193-51f7-9660-85d7cf15a714-attr-4-name" class="er entityLabel">label</text></g><g transform="translate(31.8203125,692 )" id="entity-Named-527792da-945b-57c2-aece-6a504f46f916"><rect height="66" width="100" y="0" x="0" class="er entityBox"/><text style="dominant-baseline: middle; text-anchor: middle; font-size: 12px;" transform="translate(50,12)" y="0" x="0" id="text-entity-Named-527792da-945b-57c2-aece-6a504f46f916" class="er entityLabel">Named</text><rect height="21" width="62.1953125" y="24" x="0" class="er attributeBoxOdd"/><text style="dominant-baseline: middle; font-size: 10.2px;" transform="translate(5,34.5)" y="0" x="0" id="text-entity-Named-527792da-945b-57c2-aece-6a504f46f916-attr-1-type" class="er entityLabel">uriorcurie</text><rect height="21" width="37.8046875" y="24" x="62.1953125" class="er attributeBoxOdd"/><text style="dominant-baseline: middle; font-size: 10.2px;" transform="translate(67.1953125,34.5)" y="0" x="0" id="text-entity-Named-527792da-945b-57c2-aece-6a504f46f916-attr-1-name" class="er entityLabel">id</text><rect height="21" width="62.1953125" y="45" x="0" class="er attributeBoxEven"/><text style="dominant-baseline: middle; font-size: 10.2px;" transform="translate(5,55.5)" y="0" x="0" id="text-entity-Named-527792da-945b-57c2-aece-6a504f46f916-attr-2-type" class="er entityLabel">string</text><rect height="21" width="37.8046875" y="45" x="62.1953125" class="er attributeBoxEven"/><text style="dominant-baseline: middle; font-size: 10.2px;" transform="translate(67.1953125,55.5)" y="0" x="0" id="text-entity-Named-527792da-945b-57c2-aece-6a504f46f916-attr-2-name" class="er entityLabel">label</text></g><g transform="translate(241.796875,165 )" id="entity-CorridorMetadata-accddde2-07fa-5bd2-9109-d8673cd3e8ff"><rect height="217" width="156.4871826171875" y="0" x="0" class="er entityBox"/><text style="dominant-baseline: middle; text-anchor: middle; font-size: 12px;" transform="translate(78.24359130859375,12)" y="0" x="0" id="text-entity-CorridorMetadata-accddde2-07fa-5bd2-9109-d8673cd3e8ff" class="er entityLabel">CorridorMetadata</text><rect height="21" width="76.8309326171875" y="24" x="0" class="er attributeBoxOdd"/><text style="dominant-baseline: middle; font-size: 10.2px;" transform="translate(5,34.5)" y="0" x="0" id="text-entity-CorridorMetadata-accddde2-07fa-5bd2-9109-d8673cd3e8ff-attr-1-type" class="er entityLabel">string</text><rect height="21" width="79.65625" y="24" x="76.8309326171875" class="er attributeBoxOdd"/><text style="dominant-baseline: middle; font-size: 10.2px;" transform="translate(81.8309326171875,34.5)" y="0" x="0" id="text-entity-CorridorMetadata-accddde2-07fa-5bd2-9109-d8673cd3e8ff-attr-1-name" class="er entityLabel">title</text><rect height="21" width="76.8309326171875" y="45" x="0" class="er attributeBoxEven"/><text style="dominant-baseline: middle; font-size: 10.2px;" transform="translate(5,55.5)" y="0" x="0" id="text-entity-CorridorMetadata-accddde2-07fa-5bd2-9109-d8673cd3e8ff-attr-2-type" class="er entityLabel">string</text><rect height="21" width="79.65625" y="45" x="76.8309326171875" class="er attributeBoxEven"/><text style="dominant-baseline: middle; font-size: 10.2px;" transform="translate(81.8309326171875,55.5)" y="0" x="0" id="text-entity-CorridorMetadata-accddde2-07fa-5bd2-9109-d8673cd3e8ff-attr-2-name" class="er entityLabel">description</text><rect height="22" width="76.8309326171875" y="66" x="0" class="er attributeBoxOdd"/><text style="dominant-baseline: middle; font-size: 10.2px;" transform="translate(5,77)" y="0" x="0" id="text-entity-CorridorMetadata-accddde2-07fa-5bd2-9109-d8673cd3e8ff-attr-3-type" class="er entityLabel">uriorcurieList</text><rect height="22" width="79.65625" y="66" x="76.8309326171875" class="er attributeBoxOdd"/><text style="dominant-baseline: middle; font-size: 10.2px;" transform="translate(81.8309326171875,77)" y="0" x="0" id="text-entity-CorridorMetadata-accddde2-07fa-5bd2-9109-d8673cd3e8ff-attr-3-name" class="er entityLabel">created_by</text><rect height="22" width="76.8309326171875" y="88" x="0" class="er attributeBoxEven"/><text style="dominant-baseline: middle; font-size: 10.2px;" transform="translate(5,99)" y="0" x="0" id="text-entity-CorridorMetadata-accddde2-07fa-5bd2-9109-d8673cd3e8ff-attr-4-type" class="er entityLabel">string</text><rect height="22" width="79.65625" y="88" x="76.8309326171875" class="er attributeBoxEven"/><text style="dominant-baseline: middle; font-size: 10.2px;" transform="translate(81.8309326171875,99)" y="0" x="0" id="text-entity-CorridorMetadata-accddde2-07fa-5bd2-9109-d8673cd3e8ff-attr-4-name" class="er entityLabel">creation_date</text><rect height="21" width="76.8309326171875" y="110" x="0" class="er attributeBoxOdd"/><text style="dominant-baseline: middle; font-size: 10.2px;" transform="translate(5,120.5)" y="0" x="0" id="text-entity-CorridorMetadata-accddde2-07fa-5bd2-9109-d8673cd3e8ff-attr-5-type" class="er entityLabel">string</text><rect height="21" width="79.65625" y="110" x="76.8309326171875" class="er attributeBoxOdd"/><text style="dominant-baseline: middle; font-size: 10.2px;" transform="translate(81.8309326171875,120.5)" y="0" x="0" id="text-entity-CorridorMetadata-accddde2-07fa-5bd2-9109-d8673cd3e8ff-attr-5-name" class="er entityLabel">version</text><rect height="21" width="76.8309326171875" y="131" x="0" class="er attributeBoxEven"/><text style="dominant-baseline: middle; font-size: 10.2px;" transform="translate(5,141.5)" y="0" x="0" id="text-entity-CorridorMetadata-accddde2-07fa-5bd2-9109-d8673cd3e8ff-attr-6-type" class="er entityLabel">string</text><rect height="21" width="79.65625" y="131" x="76.8309326171875" class="er attributeBoxEven"/><text style="dominant-baseline: middle; font-size: 10.2px;" transform="translate(81.8309326171875,141.5)" y="0" x="0" id="text-entity-CorridorMetadata-accddde2-07fa-5bd2-9109-d8673cd3e8ff-attr-6-name" class="er entityLabel">license</text><rect height="21" width="76.8309326171875" y="152" x="0" class="er attributeBoxOdd"/><text style="dominant-baseline: middle; font-size: 10.2px;" transform="translate(5,162.5)" y="0" x="0" id="text-entity-CorridorMetadata-accddde2-07fa-5bd2-9109-d8673cd3e8ff-attr-7-type" class="er entityLabel">string</text><rect height="21" width="79.65625" y="152" x="76.8309326171875" class="er attributeBoxOdd"/><text style="dominant-baseline: middle; font-size: 10.2px;" transform="translate(81.8309326171875,162.5)" y="0" x="0" id="text-entity-CorridorMetadata-accddde2-07fa-5bd2-9109-d8673cd3e8ff-attr-7-name" class="er entityLabel">publisher</text><rect height="22" width="76.8309326171875" y="173" x="0" class="er attributeBoxEven"/><text style="dominant-baseline: middle; font-size: 10.2px;" transform="translate(5,184)" y="0" x="0" id="text-entity-CorridorMetadata-accddde2-07fa-5bd2-9109-d8673cd3e8ff-attr-8-type" class="er entityLabel">uriorcurie</text><rect height="22" width="79.65625" y="173" x="76.8309326171875" class="er attributeBoxEven"/><text style="dominant-baseline: middle; font-size: 10.2px;" transform="translate(81.8309326171875,184)" y="0" x="0" id="text-entity-CorridorMetadata-accddde2-07fa-5bd2-9109-d8673cd3e8ff-attr-8-name" class="er entityLabel">see_also</text><rect height="22" width="76.8309326171875" y="195" x="0" class="er attributeBoxOdd"/><text style="dominant-baseline: middle; font-size: 10.2px;" transform="translate(5,206)" y="0" x="0" id="text-entity-CorridorMetadata-accddde2-07fa-5bd2-9109-d8673cd3e8ff-attr-9-type" class="er entityLabel">uriorcurie</text><rect height="22" width="79.65625" y="195" x="76.8309326171875" class="er attributeBoxOdd"/><text style="dominant-baseline: middle; font-size: 10.2px;" transform="translate(81.8309326171875,206)" y="0" x="0" id="text-entity-CorridorMetadata-accddde2-07fa-5bd2-9109-d8673cd3e8ff-attr-9-name" class="er entityLabel">derived_from</text></g><rect height="14" width="58.171875" y="96.66233825683594" x="266.0470275878906" class="er relationshipLabelBox"/><text style="text-anchor: middle; dominant-baseline: middle; font-size: 12px;" y="103.66233825683594" x="295.1329650878906" id="rel1" class="er relationshipLabel">metadata</text><rect height="14" width="27.03125" y="109.47388458251953" x="84.6211929321289" class="er relationshipLabelBox"/><text style="text-anchor: middle; dominant-baseline: middle; font-size: 12px;" y="116.47388458251953" x="98.1368179321289" id="rel2" class="er relationshipLabel">data</text><rect height="14" width="46.888671875" y="408.75" x="58.37566375732422" class="er relationshipLabelBox"/><text style="text-anchor: middle; dominant-baseline: middle; font-size: 12px;" y="415.75" x="81.81999969482422" id="rel3" class="er relationshipLabel">corridor</text><rect height="14" width="45.1484375" y="635" x="59.24578094482422" class="er relationshipLabelBox"/><text style="text-anchor: middle; dominant-baseline: middle; font-size: 12px;" y="642" x="81.81999969482422" id="rel4" class="er relationshipLabel">type_of</text></svg>